# j0CC-FamiTracker text export 0.6.3.0

# Song information
TITLE           "Sword Master"
AUTHOR          "Sasaki Shotaro,Ishibashi Koichi"
COPYRIGHT       "cv. MiniMacro Sound 2022"

# Song comment
COMMENT ""

# Global settings
MACHINE         0
FRAMERATE       0
EXPANSION       0
VIBRATO         1
SPLIT           32

# Macros
MACRO       0   0  -1  -1   0 : 4 4 2 3 2 2 1 1 0
MACRO       0   1  -1  -1   0 : 8 6 6 2 2 2 6 4 4 1 1 1 4 3 3 2
MACRO       0   2  -1  -1   0 : 0 4
MACRO       0   3  -1  -1   0 : 15 0 15
MACRO       0   4  -1  -1   0 : 3 5 5 5 4 3 2 1 0 1 3 2 2 1
MACRO       0   5   2  -1   0 : 5 5 3 3 4 4 2 2
MACRO       0   6   3  -1   0 : 8 10 10 7 7 6 6 5 5 3 3
MACRO       0   7   4  -1   0 : 3 3 6 6 4 4 3 3 4 4 2 2
MACRO       0   8  16  -1   0 : 5 4 4 2 2 1 1 1 3 2 2 1 1 0 0 0 3 2 2 2 2 2 2 2
MACRO       0   9  -1  -1   0 : 3 5 5 5 4 3 2 1 0 1 3 2 2 1 1 2
MACRO       0  10  -1  -1   0 : 8 7 6 4 4 3 2 2 2 1
MACRO       0  11  -1  -1   0 : 5 4 2 3 2
MACRO       0  12  -1  -1   0 : 4 4 8 8 12 12 8 8 4 4 4 4 2 2 4 4 8 8 4
MACRO       2   0   0  -1   1 : 1 1 2 2 3 3 2 2
MACRO       2   1   5  -1   1 : 1 1 1 1 1 0 0 0 -1 -1 -1 -2 -2 -2 -1 -1 -1
MACRO       2   2  -1  -1   1 : 1
MACRO       2   3   6  -1   1 : 1 1 1 1 1 1 1 1 1 1 -1 -2 -3 -3 -4 -4 -3 -3 -2 0
MACRO       2   4   2  -1   1 : 1 1 1 1 1 1 -1 -2 -3 -3 -4 -4 -3 -3 -2 0
MACRO       2   5  10  -1   1 : 1 1 1 1 1 1 1 1 1 1 -2 -5 -7 -7 -9 -9 -7 -7 -5
MACRO       2   6  -1  -1   1 : 1 1 1 1 1 1 1 1 1 1 -2 -5 -7
MACRO       2   7   6  -1   1 : 13 13 9 3 1 1 -2 -5 -7 -7 -9 -9 -7 -7 -5 -2 1 1 1 1
MACRO       2   8   8  -1   1 : 1 1 1 1 1 1 1 1 1 1 1 1 -1 -2 -3 -3 -4 -4 -3 -3 -2 0
MACRO       4   0   0  -1   0 : 0 0 0 0 0 1 1 1 1 1
MACRO       4   1  -1  -1   0 : 1
MACRO       4   2  -1  -1   0 : 0 0 1 1 1 1 2
MACRO       4   3  -1  -1   0 : 2

# DPCM samples
DPCMDEF   0   129 "Sword Master Kick.dmc"
DPCM : 80 00 5F 17 29 ED 6F BF C0 00 00 07 FF FE 11 19 B0 7F FF FF E8 00 00 00 07 FF FF ED B0 03 5A 5B
DPCM : EB 67 67 F6 06 5A D7 7E F7 BF ED 00 02 6D FB FF 6B 69 2B FB F7 2C 64 B1 A8 FF 7F FE B7 0D DD 66
DPCM : EF 56 EF 77 3B DD E6 B7 77 77 73 6E F7 5B BB DD DD B6 EF 77 4E EF 77 77 73 BB AE BB BB DD DE A4
DPCM : B5 74 AD AF 3B BD DD DD DD 5B 77 6D BB 7D DA DA 9A D5 5A 9E DC ED F7 BC D5 94 EE B6 BE 00 00 00
DPCM : A9
DPCMDEF   1   129 "Sword Master Snare.dmc"
DPCM : A9 80 C3 FF FF FF E0 7A 20 00 00 00 F1 FF FF C6 5F FF FF FF E0 00 00 00 00 00 7F FF C6 2C 10 7F
DPCM : FF FF FF FF FF E0 00 00 00 00 00 18 00 3F FF FF FD 8E 00 CF FF FF FF C4 00 60 00 00 DF E2 12 7E
DPCM : 7C 30 01 8F 9F FF FC F3 8F FF FF 60 02 00 00 00 0C 79 FF C0 02 43 4F FF FF FF FF FF F8 00 00 11
DPCM : 99 1F 3C 10 CD 88 7F F0 11 9F 83 9F FF FF FE D8 C3 77 60 00 00 08 2E C2 37 F8 FB 3E 06 00 00 00
DPCM : C5
DPCMDEF   2   385 "Sword Master Tom.dmc"
DPCM : C5 F8 2E C0 00 17 06 FF FF FF ED 00 00 00 09 FF FF FF DF 40 00 00 00 2F FF FF FF F8 00 00 00 72
DPCM : FF FF FB FF 72 00 00 0B AC 3F FF FF DD D5 C0 00 01 D9 BD FF FF F2 BB D1 00 00 05 FF FF FD EB 68
DPCM : DB 20 00 0B 78 DF FF FF D2 A5 EE 00 01 6F BB 6F FF FF 98 1D FA 52 01 AF EE 9B 7F FF F9 50 D5 24
DPCM : 80 1B EE ED AF BF F5 D2 F4 8A 28 0B DD F7 4F DF FF EE 44 98 82 81 7A 5F AF FF F7 E4 2C 91 49 C2
DPCM : BF 6E DD 77 F7 E4 CD A8 A2 4A D9 DE B3 F3 77 AE B9 AB BF 04 47 79 72 DD 5E 56 97 DF 72 FA B6 AA
DPCM : 26 81 AB BF 6E FA FF E5 49 08 80 26 ED DA FF FF F6 59 C9 18 84 95 4B 7B FF BD BD AA A8 39 0E 9E
DPCM : 37 BB F5 B7 6B DF 4A 86 93 73 B9 7A D7 AE BB 95 F5 EE A4 EE B6 CA 93 D5 7B B7 BA F6 67 7A B6 5C
DPCM : EE E8 C9 6F BB 3F BF B6 37 79 68 32 B3 77 57 DB B7 EF 6D 9B 37 6C 95 FD 7B 9E F7 6A D7 97 76 ED
DPCM : 6E DB B5 B4 B6 FC BD FF 7E 26 DB 38 A6 E6 6E 6F AF B7 5E D7 59 65 5D 6A D7 75 DB D6 77 B6 DE A4
DPCM : BD 3F 36 E9 5F 4D 2F 5E F9 DF 7B 5D BC B7 6A 56 EE CB B6 F7 DF 4D 5E DB 56 76 DB 9B 3E F5 DB 7B
DPCM : EE B9 6B E6 EE 9A B6 5D D3 37 AF BB BB 76 F7 5D DB 66 4B AE FE F6 DF 7B B8 95 AE 9A 2E F7 D6 F9
DPCM : 7B BB D6 AD 69 B6 F5 E7 6E EE D6 F6 EB A8 ED B7 BD ED 75 D6 DA 75 B6 F9 BA BA F6 ED B7 00 00 00
DPCM : DD

# Detune settings

# Grooves
GROOVE   0   2 : 1 5
GROOVE   1   2 : 1 4
GROOVE   2   2 : 1 6
GROOVE   3   2 : 1 12
GROOVE   4   2 : 1 3
GROOVE   5   2 : 1 8
GROOVE   6   2 : 1 7

# Tracks using default groove
USEGROOVE : 1 2 3 4 5 6 8 9 10 11 12 15

# Instruments
INST2A03   0    -1  -1  -1  -1  -1 "Blank/DPCM"
KEYDPCM   0   3   0     0  10   0     0  -1
KEYDPCM   0   3   2     1  14   0     0  -1
KEYDPCM   0   3   4     2  15   0     0  -1
INST2A03   1     1  -1   0  -1   0 "Lead 1"
INST2A03   2     4  -1   1  -1   2 "Lead 2"
INST2A03   3     5  -1  -1  -1  -1 "Lead 3"
INST2A03   4     5  -1   4  -1  -1 "Lead 3 (Vibrato)"
INST2A03   5     7  -1  -1  -1   2 "Lead 4"
INST2A03   6     7  -1   3  -1   2 "Lead 4 (Vibrato)"
INST2A03   7     8  -1   2  -1  -1 "Lead 5"
INST2A03   8     9  -1   3  -1  -1 "Lead 6"
INST2A03   9     5  -1   6  -1   0 "Lead 7"
INST2A03  10     5  -1   7  -1   2 "Lead 8"
INST2A03  11     8  -1   2  -1   2 "Lead 9"
INST2A03  12     4  -1   2  -1  -1 "Lead 10"
INST2A03  13    10  -1   1  -1   2 "Lead 11"
INST2A03  14     8  -1   8  -1  -1 "Lead 12"
INST2A03  15    11  -1   4  -1   2 "Lead 13"
INST2A03  16    12  -1   2  -1   3 "Lead 14"
INST2A03  17    10  -1   1  -1   0 "Lead 15"
INST2A03  18     1  -1   3  -1   1 "Lead 16"
INST2A03  19     6  -1   5  -1   0 "Pulse Bass"
INST2A03  20     2  -1   3  -1   1 "Tri Lead 1"
INST2A03  21    -1  -1   8  -1  -1 "Tri Lead 2"
INST2A03  22     2  -1   1  -1   1 "Tri Bass 1"
INST2A03  23     3  -1   2  -1  -1 "Tri Bass 2"
INST2A03  24     2  -1   2  -1  -1 "Tri Bass 3"
INST2A03  25    -1  -1   1  -1  -1 "Tri Bass 4"
INST2A03  26     2  -1   6  -1  -1 "Tri Bass 5"
INST2A03  27     0  -1  -1  -1  -1 "Snare"

# Tracks

TRACK 128   1 150 "Introduction"
COLUMNS : 2 1 1 1 1

ORDER 00 : 00 00 00 00 00
ORDER 01 : 01 01 01 01 01
ORDER 02 : 02 02 02 02 02
ORDER 03 : 03 03 03 03 03
ORDER 04 : 04 04 04 04 04

PATTERN 00
ROW 00 : ... .. . ... ... : ... .. . ... : ... .. . ... : ... .. . ... : E-3 00 . W0A
ROW 01 : ... .. . ... ... : ... .. . ... : ... .. . ... : ... .. . ... : ... .. . ...
ROW 02 : ... .. . ... ... : ... .. . ... : ... .. . ... : ... .. . ... : E-3 00 . W0A
ROW 03 : ... .. . ... ... : ... .. . ... : ... .. . ... : ... .. . ... : ... .. . ...
ROW 04 : ... .. . ... ... : ... .. . ... : ... .. . ... : ... .. . ... : E-3 00 . W0A
ROW 05 : ... .. . ... ... : ... .. . ... : ... .. . ... : ... .. . ... : ... .. . ...
ROW 06 : ... .. . ... ... : ... .. . ... : ... .. . ... : ... .. . ... : ... .. . ...
ROW 07 : ... .. . ... ... : ... .. . ... : ... .. . ... : ... .. . ... : ... .. . ...
ROW 08 : ... .. . ... ... : ... .. . ... : ... .. . ... : ... .. . ... : E-3 00 . W09
ROW 09 : ... .. . ... ... : ... .. . ... : ... .. . ... : ... .. . ... : ... .. . ...
ROW 0A : ... .. . ... ... : ... .. . ... : ... .. . ... : ... .. . ... : ... .. . ...
ROW 0B : ... .. . ... ... : ... .. . ... : ... .. . ... : ... .. . ... : ... .. . ...
ROW 0C : ... .. . ... ... : ... .. . ... : ... .. . ... : ... .. . ... : E-3 00 . W09
ROW 0D : ... .. . ... ... : ... .. . ... : ... .. . ... : ... .. . ... : ... .. . ...
ROW 0E : ... .. . ... ... : ... .. . ... : ... .. . ... : ... .. . ... : ... .. . ...
ROW 0F : ... .. . ... ... : ... .. . ... : ... .. . ... : ... .. . ... : ... .. . ...
ROW 10 : ... .. . ... ... : ... .. . ... : ... .. . ... : ... .. . ... : E-3 00 . W08
ROW 11 : ... .. . ... ... : ... .. . ... : ... .. . ... : ... .. . ... : ... .. . ...
ROW 12 : ... .. . ... ... : ... .. . ... : ... .. . ... : ... .. . ... : ... .. . ...
ROW 13 : ... .. . ... ... : ... .. . ... : ... .. . ... : ... .. . ... : ... .. . ...
ROW 14 : ... .. . ... ... : ... .. . ... : ... .. . ... : ... .. . ... : E-3 00 . W08
ROW 15 : ... .. . ... ... : ... .. . ... : ... .. . ... : ... .. . ... : ... .. . ...
ROW 16 : ... .. . ... ... : ... .. . ... : ... .. . ... : ... .. . ... : ... .. . ...
ROW 17 : ... .. . ... ... : ... .. . ... : ... .. . ... : ... .. . ... : ... .. . ...
ROW 18 : ... .. . ... ... : ... .. . ... : ... .. . ... : ... .. . ... : D-3 00 . ...
ROW 19 : ... .. . ... ... : ... .. . ... : ... .. . ... : A-# 1B . ... : ... .. . ...
ROW 1A : ... .. . ... ... : ... .. . ... : ... .. . ... : ... .. . ... : ... .. . ...
ROW 1B : ... .. . ... ... : ... .. . ... : ... .. . ... : ... .. . ... : ... .. . ...
ROW 1C : ... .. . ... ... : ... .. . ... : ... .. . ... : ... .. . ... : D-3 00 . ...
ROW 1D : ... .. . ... ... : ... .. . ... : ... .. . ... : A-# 1B . ... : ... .. . ...
ROW 1E : ... .. . ... ... : ... .. . ... : ... .. . ... : ... .. . ... : ... .. . ...
ROW 1F : ... .. . ... ... : ... .. . ... : ... .. . ... : ... .. . ... : ... .. . D00
ROW 20 : ... .. . ... ... : ... .. . ... : ... .. . ... : ... .. . ... : ... .. . ...
ROW 21 : ... .. . ... ... : ... .. . ... : ... .. . ... : ... .. . ... : ... .. . ...
ROW 22 : ... .. . ... ... : ... .. . ... : ... .. . ... : ... .. . ... : ... .. . ...
ROW 23 : ... .. . ... ... : ... .. . ... : ... .. . ... : ... .. . ... : ... .. . ...
ROW 24 : ... .. . ... ... : ... .. . ... : ... .. . ... : ... .. . ... : ... .. . ...
ROW 25 : ... .. . ... ... : ... .. . ... : ... .. . ... : ... .. . ... : ... .. . ...
ROW 26 : ... .. . ... ... : ... .. . ... : ... .. . ... : ... .. . ... : ... .. . ...
ROW 27 : ... .. . ... ... : ... .. . ... : ... .. . ... : ... .. . ... : ... .. . ...
ROW 28 : ... .. . ... ... : ... .. . ... : ... .. . ... : ... .. . ... : ... .. . ...
ROW 29 : ... .. . ... ... : ... .. . ... : ... .. . ... : ... .. . ... : ... .. . ...
ROW 2A : ... .. . ... ... : ... .. . ... : ... .. . ... : ... .. . ... : ... .. . ...
ROW 2B : ... .. . ... ... : ... .. . ... : ... .. . ... : ... .. . ... : ... .. . ...
ROW 2C : ... .. . ... ... : ... .. . ... : ... .. . ... : ... .. . ... : ... .. . ...
ROW 2D : ... .. . ... ... : ... .. . ... : ... .. . ... : ... .. . ... : ... .. . ...
ROW 2E : ... .. . ... ... : ... .. . ... : ... .. . ... : ... .. . ... : ... .. . ...
ROW 2F : ... .. . ... ... : ... .. . ... : ... .. . ... : ... .. . ... : ... .. . ...
ROW 30 : ... .. . ... ... : ... .. . ... : ... .. . ... : ... .. . ... : ... .. . ...
ROW 31 : ... .. . ... ... : ... .. . ... : ... .. . ... : ... .. . ... : ... .. . ...
ROW 32 : ... .. . ... ... : ... .. . ... : ... .. . ... : ... .. . ... : ... .. . ...
ROW 33 : ... .. . ... ... : ... .. . ... : ... .. . ... : ... .. . ... : ... .. . ...
ROW 34 : ... .. . ... ... : ... .. . ... : ... .. . ... : ... .. . ... : ... .. . ...
ROW 35 : ... .. . ... ... : ... .. . ... : ... .. . ... : ... .. . ... : ... .. . ...
ROW 36 : ... .. . ... ... : ... .. . ... : ... .. . ... : ... .. . ... : ... .. . ...
ROW 37 : ... .. . ... ... : ... .. . ... : ... .. . ... : ... .. . ... : ... .. . ...
ROW 38 : ... .. . ... ... : ... .. . ... : ... .. . ... : ... .. . ... : ... .. . ...
ROW 39 : ... .. . ... ... : ... .. . ... : ... .. . ... : ... .. . ... : ... .. . ...
ROW 3A : ... .. . ... ... : ... .. . ... : ... .. . ... : ... .. . ... : ... .. . ...
ROW 3B : ... .. . ... ... : ... .. . ... : ... .. . ... : ... .. . ... : ... .. . ...
ROW 3C : ... .. . ... ... : ... .. . ... : ... .. . ... : ... .. . ... : ... .. . ...
ROW 3D : ... .. . ... ... : ... .. . ... : ... .. . ... : ... .. . ... : ... .. . ...
ROW 3E : ... .. . ... ... : ... .. . ... : ... .. . ... : ... .. . ... : ... .. . ...
ROW 3F : ... .. . ... ... : ... .. . ... : ... .. . ... : ... .. . ... : ... .. . ...
ROW 40 : ... .. . ... ... : ... .. . ... : ... .. . ... : ... .. . ... : ... .. . ...
ROW 41 : ... .. . ... ... : ... .. . ... : ... .. . ... : ... .. . ... : ... .. . ...
ROW 42 : ... .. . ... ... : ... .. . ... : ... .. . ... : ... .. . ... : ... .. . ...
ROW 43 : ... .. . ... ... : ... .. . ... : ... .. . ... : ... .. . ... : ... .. . ...
ROW 44 : ... .. . ... ... : ... .. . ... : ... .. . ... : ... .. . ... : ... .. . ...
ROW 45 : ... .. . ... ... : ... .. . ... : ... .. . ... : ... .. . ... : ... .. . ...
ROW 46 : ... .. . ... ... : ... .. . ... : ... .. . ... : ... .. . ... : ... .. . ...
ROW 47 : ... .. . ... ... : ... .. . ... : ... .. . ... : ... .. . ... : ... .. . ...
ROW 48 : ... .. . ... ... : ... .. . ... : ... .. . ... : ... .. . ... : ... .. . ...
ROW 49 : ... .. . ... ... : ... .. . ... : ... .. . ... : ... .. . ... : ... .. . ...
ROW 4A : ... .. . ... ... : ... .. . ... : ... .. . ... : ... .. . ... : ... .. . ...
ROW 4B : ... .. . ... ... : ... .. . ... : ... .. . ... : ... .. . ... : ... .. . ...
ROW 4C : ... .. . ... ... : ... .. . ... : ... .. . ... : ... .. . ... : ... .. . ...
ROW 4D : ... .. . ... ... : ... .. . ... : ... .. . ... : ... .. . ... : ... .. . ...
ROW 4E : ... .. . ... ... : ... .. . ... : ... .. . ... : ... .. . ... : ... .. . ...
ROW 4F : ... .. . ... ... : ... .. . ... : ... .. . ... : ... .. . ... : ... .. . ...
ROW 50 : ... .. . ... ... : ... .. . ... : ... .. . ... : ... .. . ... : ... .. . ...
ROW 51 : ... .. . ... ... : ... .. . ... : ... .. . ... : ... .. . ... : ... .. . ...
ROW 52 : ... .. . ... ... : ... .. . ... : ... .. . ... : ... .. . ... : ... .. . ...
ROW 53 : ... .. . ... ... : ... .. . ... : ... .. . ... : ... .. . ... : ... .. . ...
ROW 54 : ... .. . ... ... : ... .. . ... : ... .. . ... : ... .. . ... : ... .. . ...
ROW 55 : ... .. . ... ... : ... .. . ... : ... .. . ... : ... .. . ... : ... .. . ...
ROW 56 : ... .. . ... ... : ... .. . ... : ... .. . ... : ... .. . ... : ... .. . ...
ROW 57 : ... .. . ... ... : ... .. . ... : ... .. . ... : ... .. . ... : ... .. . ...
ROW 58 : ... .. . ... ... : ... .. . ... : ... .. . ... : ... .. . ... : ... .. . ...
ROW 59 : ... .. . ... ... : ... .. . ... : ... .. . ... : ... .. . ... : ... .. . ...
ROW 5A : ... .. . ... ... : ... .. . ... : ... .. . ... : ... .. . ... : ... .. . ...
ROW 5B : ... .. . ... ... : ... .. . ... : ... .. . ... : ... .. . ... : ... .. . ...
ROW 5C : ... .. . ... ... : ... .. . ... : ... .. . ... : ... .. . ... : ... .. . ...
ROW 5D : ... .. . ... ... : ... .. . ... : ... .. . ... : ... .. . ... : ... .. . ...
ROW 5E : ... .. . ... ... : ... .. . ... : ... .. . ... : ... .. . ... : ... .. . ...
ROW 5F : ... .. . ... ... : ... .. . ... : ... .. . ... : ... .. . ... : ... .. . ...
ROW 60 : ... .. . ... ... : ... .. . ... : ... .. . ... : ... .. . ... : ... .. . ...
ROW 61 : ... .. . ... ... : ... .. . ... : ... .. . ... : ... .. . ... : ... .. . ...
ROW 62 : ... .. . ... ... : ... .. . ... : ... .. . ... : ... .. . ... : ... .. . ...
ROW 63 : ... .. . ... ... : ... .. . ... : ... .. . ... : ... .. . ... : ... .. . ...
ROW 64 : ... .. . ... ... : ... .. . ... : ... .. . ... : ... .. . ... : ... .. . ...
ROW 65 : ... .. . ... ... : ... .. . ... : ... .. . ... : ... .. . ... : ... .. . ...
ROW 66 : ... .. . ... ... : ... .. . ... : ... .. . ... : ... .. . ... : ... .. . ...
ROW 67 : ... .. . ... ... : ... .. . ... : ... .. . ... : ... .. . ... : ... .. . ...
ROW 68 : ... .. . ... ... : ... .. . ... : ... .. . ... : ... .. . ... : ... .. . ...
ROW 69 : ... .. . ... ... : ... .. . ... : ... .. . ... : ... .. . ... : ... .. . ...
ROW 6A : ... .. . ... ... : ... .. . ... : ... .. . ... : ... .. . ... : ... .. . ...
ROW 6B : ... .. . ... ... : ... .. . ... : ... .. . ... : ... .. . ... : ... .. . ...
ROW 6C : ... .. . ... ... : ... .. . ... : ... .. . ... : ... .. . ... : ... .. . ...
ROW 6D : ... .. . ... ... : ... .. . ... : ... .. . ... : ... .. . ... : ... .. . ...
ROW 6E : ... .. . ... ... : ... .. . ... : ... .. . ... : ... .. . ... : ... .. . ...
ROW 6F : ... .. . ... ... : ... .. . ... : ... .. . ... : ... .. . ... : ... .. . ...
ROW 70 : ... .. . ... ... : ... .. . ... : ... .. . ... : ... .. . ... : ... .. . ...
ROW 71 : ... .. . ... ... : ... .. . ... : ... .. . ... : ... .. . ... : ... .. . ...
ROW 72 : ... .. . ... ... : ... .. . ... : ... .. . ... : ... .. . ... : ... .. . ...
ROW 73 : ... .. . ... ... : ... .. . ... : ... .. . ... : ... .. . ... : ... .. . ...
ROW 74 : ... .. . ... ... : ... .. . ... : ... .. . ... : ... .. . ... : ... .. . ...
ROW 75 : ... .. . ... ... : ... .. . ... : ... .. . ... : ... .. . ... : ... .. . ...
ROW 76 : ... .. . ... ... : ... .. . ... : ... .. . ... : ... .. . ... : ... .. . ...
ROW 77 : ... .. . ... ... : ... .. . ... : ... .. . ... : ... .. . ... : ... .. . ...
ROW 78 : ... .. . ... ... : ... .. . ... : ... .. . ... : ... .. . ... : ... .. . ...
ROW 79 : ... .. . ... ... : ... .. . ... : ... .. . ... : ... .. . ... : ... .. . ...
ROW 7A : ... .. . ... ... : ... .. . ... : ... .. . ... : ... .. . ... : ... .. . ...
ROW 7B : ... .. . ... ... : ... .. . ... : ... .. . ... : ... .. . ... : ... .. . ...
ROW 7C : ... .. . ... ... : ... .. . ... : ... .. . ... : ... .. . ... : ... .. . ...
ROW 7D : ... .. . ... ... : ... .. . ... : ... .. . ... : ... .. . ... : ... .. . ...
ROW 7E : ... .. . ... ... : ... .. . ... : ... .. . ... : ... .. . ... : ... .. . ...
ROW 7F : ... .. . ... ... : ... .. . ... : ... .. . ... : ... .. . ... : ... .. . ...

PATTERN 01
ROW 00 : ... .. . ... ... : ... .. . ... : ... .. . P80 : ... .. . ... : C-3 00 . ...
ROW 01 : A-3 04 . V02 P80 : C-1 13 . ... : A-4 14 . ... : ... .. . ... : ... .. . ...
ROW 02 : ... .. . ... ... : ... .. . ... : ... .. . ... : ... .. . ... : ... .. . ...
ROW 03 : D-4 04 . ... ... : ... .. . ... : D-5 14 . ... : ... .. . ... : ... .. . ...
ROW 04 : ... .. . ... ... : ... .. . ... : ... .. . ... : ... .. . ... : ... .. . ...
ROW 05 : F-4 04 . ... ... : D-1 13 . ... : F-5 14 . ... : ... .. . ... : ... .. . ...
ROW 06 : ... .. . ... ... : ... .. . ... : ... .. . ... : ... .. . ... : ... .. . ...
ROW 07 : ... .. . ... ... : ... .. . ... : ... .. . ... : ... .. . ... : ... .. . ...
ROW 08 : ... .. . ... ... : ... .. . ... : ... .. . ... : ... .. . ... : D-3 00 . ...
ROW 09 : ... .. . ... ... : ... .. . ... : ... .. . ... : A-# 1B . ... : ... .. . ...
ROW 0A : ... .. . ... ... : ... .. . ... : ... .. . ... : ... .. . ... : ... .. . ...
ROW 0B : ... .. . ... ... : ... .. . ... : ... .. . ... : ... .. . ... : ... .. . ...
ROW 0C : ... .. . ... ... : ... .. . ... : ... .. . ... : ... .. . ... : C-3 00 . ...
ROW 0D : ... .. . ... ... : D-1 13 . ... : ... .. . ... : ... .. . ... : ... .. . ...
ROW 0E : ... .. . ... ... : ... .. . ... : ... .. . ... : ... .. . ... : ... .. . ...
ROW 0F : ... .. . ... ... : ... .. . ... : ... .. . ... : ... .. . ... : ... .. . ...
ROW 10 : ... .. . ... ... : ... .. . ... : ... .. . ... : ... .. . ... : ... .. . ...
ROW 11 : ... .. . ... ... : ... .. . ... : ... .. . ... : ... .. . ... : ... .. . ...
ROW 12 : ... .. . ... ... : ... .. . ... : ... .. . ... : ... .. . ... : ... .. . ...
ROW 13 : ... .. . ... ... : ... .. . ... : ... .. . ... : ... .. . ... : ... .. . ...
ROW 14 : ... .. . ... ... : ... .. . ... : ... .. . ... : ... .. . ... : C-3 00 . ...
ROW 15 : ... .. . ... ... : D-1 13 . ... : ... .. . ... : ... .. . ... : ... .. . ...
ROW 16 : ... .. . ... ... : ... .. . ... : ... .. . ... : ... .. . ... : ... .. . ...
ROW 17 : ... .. . ... ... : ... .. . ... : ... .. . ... : ... .. . ... : ... .. . ...
ROW 18 : ... .. . ... ... : ... .. . ... : ... .. . ... : ... .. . ... : D-3 00 . ...
ROW 19 : ... .. . ... ... : F-1 13 . ... : ... .. . ... : A-# 1B . ... : ... .. . ...
ROW 1A : ... .. . ... ... : ... .. . ... : ... .. . ... : ... .. . ... : ... .. . ...
ROW 1B : ... .. . ... ... : ... .. . ... : ... .. . ... : ... .. . ... : ... .. . ...
ROW 1C : ... .. . ... ... : ... .. . ... : ... .. . ... : ... .. . ... : D-3 00 . ...
ROW 1D : ... .. . ... ... : D-1 13 . ... : ... .. . ... : A-# 1B . ... : ... .. . ...
ROW 1E : ... .. . ... ... : ... .. . ... : ... .. . ... : ... .. . ... : ... .. . ...
ROW 1F : ... .. . ... ... : ... .. . ... : ... .. . ... : ... .. . ... : ... .. . ...
ROW 20 : ... .. . ... ... : ... .. . ... : ... .. . ... : ... .. . ... : C-3 00 . ...
ROW 21 : G-3 04 . ... ... : C-1 13 . ... : G-4 14 . ... : ... .. . ... : ... .. . ...
ROW 22 : ... .. . ... ... : ... .. . ... : ... .. . ... : ... .. . ... : ... .. . ...
ROW 23 : C-4 04 . ... ... : ... .. . ... : C-5 14 . ... : ... .. . ... : ... .. . ...
ROW 24 : ... .. . ... ... : ... .. . ... : ... .. . ... : ... .. . ... : ... .. . ...
ROW 25 : E-4 04 . ... ... : D-1 13 . ... : E-5 14 . ... : ... .. . ... : ... .. . ...
ROW 26 : ... .. . ... ... : ... .. . ... : ... .. . ... : ... .. . ... : ... .. . ...
ROW 27 : ... .. . ... ... : ... .. . ... : ... .. . ... : ... .. . ... : ... .. . ...
ROW 28 : ... .. . ... ... : ... .. . ... : ... .. . ... : ... .. . ... : D-3 00 . ...
ROW 29 : ... .. . ... ... : ... .. . ... : ... .. . ... : A-# 1B . ... : ... .. . ...
ROW 2A : ... .. . ... ... : ... .. . ... : ... .. . ... : ... .. . ... : ... .. . ...
ROW 2B : ... .. . ... ... : ... .. . ... : ... .. . ... : ... .. . ... : ... .. . ...
ROW 2C : ... .. . ... ... : ... .. . ... : ... .. . ... : ... .. . ... : C-3 00 . ...
ROW 2D : ... .. . ... ... : D-1 13 . ... : ... .. . ... : ... .. . ... : ... .. . ...
ROW 2E : ... .. . ... ... : ... .. . ... : ... .. . ... : ... .. . ... : ... .. . ...
ROW 2F : ... .. . ... ... : ... .. . ... : ... .. . ... : ... .. . ... : ... .. . ...
ROW 30 : ... .. . ... ... : ... .. . ... : ... .. . ... : ... .. . ... : ... .. . ...
ROW 31 : ... .. . ... ... : ... .. . ... : ... .. . ... : ... .. . ... : ... .. . ...
ROW 32 : ... .. . ... ... : ... .. . ... : ... .. . ... : ... .. . ... : ... .. . ...
ROW 33 : ... .. . ... ... : ... .. . ... : ... .. . ... : ... .. . ... : ... .. . ...
ROW 34 : ... .. . ... ... : ... .. . ... : ... .. . ... : ... .. . ... : C-3 00 . ...
ROW 35 : ... .. . ... ... : D-1 13 . ... : ... .. . ... : ... .. . ... : ... .. . ...
ROW 36 : ... .. . ... ... : ... .. . ... : ... .. . ... : ... .. . ... : ... .. . ...
ROW 37 : ... .. . ... ... : ... .. . ... : ... .. . ... : ... .. . ... : ... .. . ...
ROW 38 : ... .. . ... ... : ... .. . ... : ... .. . ... : ... .. . ... : D-3 00 . ...
ROW 39 : ... .. . ... ... : F-1 13 . ... : ... .. . ... : A-# 1B . ... : ... .. . ...
ROW 3A : ... .. . ... ... : ... .. . ... : ... .. . ... : ... .. . ... : ... .. . ...
ROW 3B : ... .. . ... ... : ... .. . ... : ... .. . ... : ... .. . ... : ... .. . ...
ROW 3C : ... .. . ... ... : ... .. . ... : ... .. . ... : ... .. . ... : ... .. . ...
ROW 3D : ... .. . ... ... : D-1 13 . ... : ... .. . ... : ... .. . ... : ... .. . ...
ROW 3E : ... .. . ... ... : ... .. . ... : ... .. . ... : ... .. . ... : ... .. . ...
ROW 3F : ... .. . ... ... : ... .. . ... : ... .. . ... : ... .. . ... : ... .. . ...
ROW 40 : ... .. . ... ... : ... .. . ... : ... .. . ... : ... .. . ... : C-3 00 . ...
ROW 41 : F-3 04 . ... ... : C-1 13 . ... : F-4 14 . ... : ... .. . ... : ... .. . ...
ROW 42 : ... .. . ... ... : ... .. . ... : ... .. . ... : ... .. . ... : ... .. . ...
ROW 43 : A#3 04 . ... ... : ... .. . ... : A#4 14 . ... : ... .. . ... : ... .. . ...
ROW 44 : ... .. . ... ... : ... .. . ... : ... .. . ... : ... .. . ... : ... .. . ...
ROW 45 : D-4 04 . ... ... : D-1 13 . ... : D-5 14 . ... : ... .. . ... : ... .. . ...
ROW 46 : ... .. . ... ... : ... .. . ... : ... .. . ... : ... .. . ... : ... .. . ...
ROW 47 : ... .. . ... ... : ... .. . ... : ... .. . ... : ... .. . ... : ... .. . ...
ROW 48 : ... .. . ... ... : ... .. . ... : ... .. . ... : ... .. . ... : D-3 00 . ...
ROW 49 : ... .. . ... ... : ... .. . ... : ... .. . ... : A-# 1B . ... : ... .. . ...
ROW 4A : ... .. . ... ... : ... .. . ... : ... .. . ... : ... .. . ... : ... .. . ...
ROW 4B : ... .. . ... ... : ... .. . ... : ... .. . ... : ... .. . ... : ... .. . ...
ROW 4C : ... .. . ... ... : ... .. . ... : ... .. . ... : ... .. . ... : C-3 00 . ...
ROW 4D : ... .. . ... ... : D-1 13 . ... : ... .. . ... : ... .. . ... : ... .. . ...
ROW 4E : ... .. . ... ... : ... .. . ... : ... .. . ... : ... .. . ... : ... .. . ...
ROW 4F : ... .. . ... ... : ... .. . ... : ... .. . ... : ... .. . ... : ... .. . ...
ROW 50 : ... .. . ... ... : ... .. . ... : ... .. . ... : ... .. . ... : ... .. . ...
ROW 51 : ... .. . ... ... : ... .. . ... : ... .. . ... : ... .. . ... : ... .. . ...
ROW 52 : ... .. . ... ... : ... .. . ... : ... .. . ... : ... .. . ... : ... .. . ...
ROW 53 : ... .. . ... ... : ... .. . ... : ... .. . ... : ... .. . ... : ... .. . ...
ROW 54 : ... .. . ... ... : ... .. . ... : ... .. . ... : ... .. . ... : C-3 00 . ...
ROW 55 : ... .. . ... ... : D-1 13 . ... : ... .. . ... : ... .. . ... : ... .. . ...
ROW 56 : ... .. . ... ... : ... .. . ... : ... .. . ... : ... .. . ... : ... .. . ...
ROW 57 : ... .. . ... ... : ... .. . ... : ... .. . ... : ... .. . ... : ... .. . ...
ROW 58 : ... .. . ... ... : ... .. . ... : --- .. . P7F : ... .. . ... : D-3 00 . ...
ROW 59 : F-4 04 . ... ... : F-1 13 . ... : F-5 00 . ... : A-# 1B . ... : ... .. . ...
ROW 5A : ... .. . ... ... : ... .. . ... : ... .. . ... : ... .. . ... : ... .. . ...
ROW 5B : ... .. . ... ... : ... .. . ... : ... .. . ... : ... .. . ... : ... .. . ...
ROW 5C : ... .. . ... ... : ... .. . ... : --- .. . ... : ... .. . ... : D-3 00 . ...
ROW 5D : D-4 03 . ... P7F : D-1 13 . ... : D-5 00 . ... : A-# 1B . ... : ... .. . ...
ROW 5E : ... .. . ... ... : ... .. . ... : ... .. . ... : ... .. . ... : ... .. . ...
ROW 5F : ... .. . ... ... : ... .. . ... : ... .. . ... : ... .. . ... : ... .. . ...
ROW 60 : ... .. . ... ... : ... .. . ... : ... .. . ... : ... .. . ... : C-3 00 . ...
ROW 61 : ... .. . ... P7E : C-1 13 . ... : ... .. . P7E : ... .. . ... : ... .. . ...
ROW 62 : ... .. . ... ... : ... .. . ... : ... .. . ... : ... .. . ... : ... .. . ...
ROW 63 : ... .. . ... ... : ... .. . ... : ... .. . ... : ... .. . ... : ... .. . ...
ROW 64 : ... .. . ... ... : ... .. . ... : ... .. . ... : ... .. . ... : ... .. . ...
ROW 65 : ... .. . ... P7D : D-1 13 . ... : C#5 00 . P83 : ... .. . ... : ... .. . ...
ROW 66 : ... .. . ... ... : ... .. . ... : ... .. . ... : ... .. . ... : ... .. . ...
ROW 67 : ... .. . ... ... : ... .. . ... : ... .. . ... : ... .. . ... : ... .. . ...
ROW 68 : ... .. . ... ... : ... .. . ... : ... .. . ... : ... .. . ... : D-3 00 . ...
ROW 69 : ... .. . ... P7C : ... .. . ... : ... .. . P82 : A-# 1B . ... : ... .. . ...
ROW 6A : ... .. . ... ... : ... .. . ... : ... .. . ... : ... .. . ... : ... .. . ...
ROW 6B : ... .. . ... P7B : ... .. . ... : ... .. . P81 : ... .. . ... : ... .. . ...
ROW 6C : ... .. . ... T91 : ... .. . ... : ... .. . ... : ... .. . ... : C-3 00 . ...
ROW 6D : ... .. . ... P86 : D-1 13 . ... : ... .. . P80 : ... .. . ... : ... .. . ...
ROW 6E : ... .. . ... ... : ... .. . ... : ... .. . ... : ... .. . ... : ... .. . ...
ROW 6F : ... .. . ... P85 : ... .. . ... : ... .. . P7F : ... .. . ... : ... .. . ...
ROW 70 : ... .. . ... ... : ... .. . ... : ... .. . ... : ... .. . ... : ... .. . ...
ROW 71 : ... .. . ... P84 : ... .. . ... : ... .. . P7E : ... .. . ... : ... .. . ...
ROW 72 : ... .. . ... ... : ... .. . ... : ... .. . ... : ... .. . ... : ... .. . ...
ROW 73 : ... .. . ... P83 : ... .. . ... : C-5 00 . P83 : ... .. . ... : ... .. . ...
ROW 74 : ... .. . ... ... : ... .. . ... : ... .. . ... : ... .. . ... : C-3 00 . ...
ROW 75 : ... .. . ... P82 : D-1 13 . ... : ... .. . P82 : ... .. . ... : ... .. . ...
ROW 76 : ... .. . ... ... : ... .. . ... : ... .. . ... : ... .. . ... : ... .. . ...
ROW 77 : ... .. . ... P81 : ... .. . ... : ... .. . P81 : ... .. . ... : ... .. . ...
ROW 78 : ... .. . ... ... : ... .. . ... : ... .. . ... : ... .. . ... : D-3 00 . ...
ROW 79 : ... .. . ... P80 : F-1 13 . ... : ... .. . P80 : A-# 1B . ... : ... .. . ...
ROW 7A : ... .. . ... ... : ... .. . ... : ... .. . ... : ... .. . ... : ... .. . ...
ROW 7B : ... .. . ... P7F : ... .. . ... : ... .. . P7F : ... .. . ... : ... .. . ...
ROW 7C : ... .. . ... ... : ... .. . ... : ... .. . ... : ... .. . ... : C-3 00 . ...
ROW 7D : ... .. . ... ... : D-1 13 . ... : ... .. . ... : ... .. . ... : ... .. . ...
ROW 7E : ... .. . ... ... : ... .. . ... : ... .. . ... : ... .. . ... : ... .. . ...
ROW 7F : ... .. . ... ... : ... .. . ... : ... .. . ... : ... .. . ... : ... .. . ...

PATTERN 02
ROW 00 : ... .. . ... ... : ... .. . ... : ... .. . ... : ... .. . ... : C-3 00 . ...
ROW 01 : C-3 03 . V03 P7F : C-1 13 . ... : A-4 14 . P80 : ... .. . ... : ... .. . ...
ROW 02 : ... .. . ... ... : ... .. . ... : ... .. . ... : ... .. . ... : ... .. . ...
ROW 03 : F-3 03 . ... ... : ... .. . ... : D-5 14 . ... : ... .. . ... : ... .. . ...
ROW 04 : ... .. . ... ... : ... .. . ... : ... .. . ... : ... .. . ... : ... .. . ...
ROW 05 : A-3 03 . ... ... : D-1 13 . ... : F-5 14 . ... : ... .. . ... : ... .. . ...
ROW 06 : ... .. . ... ... : ... .. . ... : ... .. . ... : ... .. . ... : ... .. . ...
ROW 07 : ... .. . ... ... : ... .. . ... : ... .. . ... : ... .. . ... : ... .. . ...
ROW 08 : ... .. . ... ... : ... .. . ... : ... .. . ... : ... .. . ... : D-3 00 . ...
ROW 09 : ... .. . ... P7E : ... .. . ... : ... .. . ... : A-# 1B . ... : ... .. . ...
ROW 0A : ... .. . ... ... : ... .. . ... : ... .. . ... : ... .. . ... : ... .. . ...
ROW 0B : ... .. . ... ... : ... .. . ... : ... .. . ... : ... .. . ... : ... .. . ...
ROW 0C : ... .. . ... ... : ... .. . ... : ... .. . ... : ... .. . ... : C-3 00 . ...
ROW 0D : ... .. . ... P7D : D-1 13 . ... : ... .. . ... : ... .. . ... : ... .. . ...
ROW 0E : ... .. . ... ... : ... .. . ... : ... .. . ... : ... .. . ... : ... .. . ...
ROW 0F : ... .. . ... ... : ... .. . ... : ... .. . ... : ... .. . ... : ... .. . ...
ROW 10 : ... .. . ... ... : ... .. . ... : ... .. . ... : ... .. . ... : ... .. . ...
ROW 11 : ... .. . ... P7C : ... .. . ... : ... .. . ... : ... .. . ... : ... .. . ...
ROW 12 : ... .. . ... ... : ... .. . ... : ... .. . ... : ... .. . ... : ... .. . ...
ROW 13 : ... .. . ... P7B : ... .. . ... : ... .. . ... : ... .. . ... : ... .. . ...
ROW 14 : ... .. . ... ... : ... .. . ... : ... .. . ... : ... .. . ... : C-3 00 . ...
ROW 15 : ... .. . ... P7A : D-1 13 . ... : ... .. . ... : ... .. . ... : ... .. . ...
ROW 16 : ... .. . ... ... : ... .. . ... : ... .. . ... : ... .. . ... : ... .. . ...
ROW 17 : ... .. . ... P79 : ... .. . ... : ... .. . ... : ... .. . ... : ... .. . ...
ROW 18 : ... .. . ... T91 : ... .. . ... : ... .. . ... : ... .. . ... : D-3 00 . ...
ROW 19 : ... .. . ... P87 : F-1 13 . ... : ... .. . ... : A-# 1B . ... : ... .. . ...
ROW 1A : ... .. . ... ... : ... .. . ... : ... .. . ... : ... .. . ... : ... .. . ...
ROW 1B : ... .. . ... P86 : ... .. . ... : ... .. . ... : ... .. . ... : ... .. . ...
ROW 1C : ... .. . ... ... : ... .. . ... : ... .. . ... : ... .. . ... : D-3 00 . ...
ROW 1D : ... .. . ... P85 : D-1 13 . ... : ... .. . ... : A-# 1B . ... : ... .. . ...
ROW 1E : ... .. . ... ... : ... .. . ... : ... .. . ... : ... .. . ... : ... .. . ...
ROW 1F : ... .. . ... P84 : ... .. . ... : ... .. . ... : ... .. . ... : ... .. . ...
ROW 20 : ... .. . ... ... : ... .. . ... : ... .. . ... : ... .. . ... : C-3 00 . ...
ROW 21 : A#2 03 . ... P7F : C-1 13 . ... : G-4 14 . ... : ... .. . ... : ... .. . ...
ROW 22 : ... .. . ... ... : ... .. . ... : ... .. . ... : ... .. . ... : ... .. . ...
ROW 23 : D-3 03 . ... ... : ... .. . ... : C-5 14 . ... : ... .. . ... : ... .. . ...
ROW 24 : ... .. . ... ... : ... .. . ... : ... .. . ... : ... .. . ... : ... .. . ...
ROW 25 : G-3 03 . ... ... : D-1 13 . ... : E-5 14 . ... : ... .. . ... : ... .. . ...
ROW 26 : ... .. . ... ... : ... .. . ... : ... .. . ... : ... .. . ... : ... .. . ...
ROW 27 : ... .. . ... ... : ... .. . ... : ... .. . ... : ... .. . ... : ... .. . ...
ROW 28 : ... .. . ... ... : ... .. . ... : ... .. . ... : ... .. . ... : D-3 00 . ...
ROW 29 : ... .. . ... P7E : ... .. . ... : ... .. . ... : A-# 1B . ... : ... .. . ...
ROW 2A : ... .. . ... ... : ... .. . ... : ... .. . ... : ... .. . ... : ... .. . ...
ROW 2B : ... .. . ... ... : ... .. . ... : ... .. . ... : ... .. . ... : ... .. . ...
ROW 2C : ... .. . ... ... : ... .. . ... : ... .. . ... : ... .. . ... : C-3 00 . ...
ROW 2D : ... .. . ... P7D : D-1 13 . ... : ... .. . ... : ... .. . ... : ... .. . ...
ROW 2E : ... .. . ... ... : ... .. . ... : ... .. . ... : ... .. . ... : ... .. . ...
ROW 2F : ... .. . ... ... : ... .. . ... : ... .. . ... : ... .. . ... : ... .. . ...
ROW 30 : ... .. . ... ... : ... .. . ... : ... .. . ... : ... .. . ... : ... .. . ...
ROW 31 : ... .. . ... P7C : ... .. . ... : ... .. . ... : ... .. . ... : ... .. . ...
ROW 32 : ... .. . ... ... : ... .. . ... : ... .. . ... : ... .. . ... : ... .. . ...
ROW 33 : ... .. . ... P7B : ... .. . ... : ... .. . ... : ... .. . ... : ... .. . ...
ROW 34 : ... .. . ... ... : ... .. . ... : ... .. . ... : ... .. . ... : C-3 00 . ...
ROW 35 : ... .. . ... P7A : D-1 13 . ... : ... .. . ... : ... .. . ... : ... .. . ...
ROW 36 : ... .. . ... ... : ... .. . ... : ... .. . ... : ... .. . ... : ... .. . ...
ROW 37 : ... .. . ... P79 : ... .. . ... : ... .. . ... : ... .. . ... : ... .. . ...
ROW 38 : ... .. . ... ... : ... .. . ... : ... .. . ... : ... .. . ... : D-3 00 . ...
ROW 39 : ... .. . ... P78 : F-1 13 . ... : ... .. . ... : A-# 1B . ... : ... .. . ...
ROW 3A : ... .. . ... T91 : ... .. . ... : ... .. . ... : ... .. . ... : ... .. . ...
ROW 3B : ... .. . ... P88 : ... .. . ... : ... .. . ... : ... .. . ... : ... .. . ...
ROW 3C : ... .. . ... ... : ... .. . ... : ... .. . ... : ... .. . ... : ... .. . ...
ROW 3D : ... .. . ... P87 : D-1 13 . ... : ... .. . ... : ... .. . ... : ... .. . ...
ROW 3E : ... .. . ... ... : ... .. . ... : ... .. . ... : ... .. . ... : ... .. . ...
ROW 3F : ... .. . ... P86 : ... .. . ... : ... .. . ... : ... .. . ... : ... .. . ...
ROW 40 : ... .. . ... ... : ... .. . ... : ... .. . ... : ... .. . ... : C-3 00 . ...
ROW 41 : A-2 03 . ... P7F : C-1 13 . ... : F-4 14 . ... : ... .. . ... : ... .. . ...
ROW 42 : ... .. . ... ... : ... .. . ... : ... .. . ... : ... .. . ... : ... .. . ...
ROW 43 : C-3 03 . ... ... : ... .. . ... : A#4 14 . ... : ... .. . ... : ... .. . ...
ROW 44 : ... .. . ... ... : ... .. . ... : ... .. . ... : ... .. . ... : ... .. . ...
ROW 45 : F-3 03 . ... ... : D-1 13 . ... : D-5 14 . ... : ... .. . ... : ... .. . ...
ROW 46 : ... .. . ... ... : ... .. . ... : ... .. . ... : ... .. . ... : ... .. . ...
ROW 47 : ... .. . ... ... : ... .. . ... : ... .. . ... : ... .. . ... : ... .. . ...
ROW 48 : ... .. . ... ... : ... .. . ... : ... .. . ... : ... .. . ... : D-3 00 . ...
ROW 49 : ... .. . ... P7E : ... .. . ... : ... .. . ... : A-# 1B . ... : ... .. . ...
ROW 4A : ... .. . ... ... : ... .. . ... : ... .. . ... : ... .. . ... : ... .. . ...
ROW 4B : ... .. . ... ... : ... .. . ... : ... .. . ... : ... .. . ... : ... .. . ...
ROW 4C : ... .. . ... ... : ... .. . ... : ... .. . ... : ... .. . ... : C-3 00 . ...
ROW 4D : ... .. . ... P7D : D-1 13 . ... : ... .. . ... : ... .. . ... : ... .. . ...
ROW 4E : ... .. . ... ... : ... .. . ... : ... .. . ... : ... .. . ... : ... .. . ...
ROW 4F : ... .. . ... ... : ... .. . ... : ... .. . ... : ... .. . ... : ... .. . ...
ROW 50 : ... .. . ... ... : ... .. . ... : ... .. . ... : ... .. . ... : ... .. . ...
ROW 51 : ... .. . ... P7C : ... .. . ... : ... .. . ... : ... .. . ... : ... .. . ...
ROW 52 : ... .. . ... ... : ... .. . ... : ... .. . ... : ... .. . ... : ... .. . ...
ROW 53 : ... .. . ... P7B : ... .. . ... : ... .. . ... : ... .. . ... : ... .. . ...
ROW 54 : ... .. . ... ... : ... .. . ... : ... .. . ... : ... .. . ... : C-3 00 . ...
ROW 55 : ... .. . ... P7A : D-1 13 . ... : ... .. . ... : ... .. . ... : ... .. . ...
ROW 56 : ... .. . ... ... : ... .. . ... : ... .. . ... : ... .. . ... : ... .. . ...
ROW 57 : ... .. . ... P79 : ... .. . ... : ... .. . ... : ... .. . ... : ... .. . ...
ROW 58 : ... .. . ... ... : ... .. . ... : --- .. . P7F : ... .. . ... : D-3 00 . ...
ROW 59 : A-3 03 . ... P7F : F-1 13 . ... : F-5 00 . ... : A-# 1B . ... : ... .. . ...
ROW 5A : ... .. . ... ... : ... .. . ... : ... .. . ... : ... .. . ... : ... .. . ...
ROW 5B : ... .. . ... ... : ... .. . ... : ... .. . ... : ... .. . ... : ... .. . ...
ROW 5C : ... .. . ... ... : ... .. . ... : --- .. . ... : ... .. . ... : D-3 00 . ...
ROW 5D : F-3 03 . ... ... : D-1 13 . ... : D-5 00 . ... : A-# 1B . ... : ... .. . ...
ROW 5E : ... .. . ... ... : ... .. . ... : ... .. . ... : ... .. . ... : ... .. . ...
ROW 5F : ... .. . ... ... : ... .. . ... : ... .. . ... : ... .. . ... : ... .. . ...
ROW 60 : ... .. . ... ... : ... .. . ... : ... .. . ... : ... .. . ... : C-3 00 . ...
ROW 61 : ... .. . ... P7E : C-1 13 . ... : ... .. . P7E : ... .. . ... : ... .. . ...
ROW 62 : ... .. . ... ... : ... .. . ... : ... .. . ... : ... .. . ... : ... .. . ...
ROW 63 : ... .. . ... ... : ... .. . ... : ... .. . ... : ... .. . ... : ... .. . ...
ROW 64 : ... .. . ... ... : ... .. . ... : ... .. . ... : ... .. . ... : ... .. . ...
ROW 65 : ... .. . ... P7D : D-1 13 . ... : C#5 00 . P83 : ... .. . ... : ... .. . ...
ROW 66 : ... .. . ... ... : ... .. . ... : ... .. . ... : ... .. . ... : ... .. . ...
ROW 67 : ... .. . ... ... : ... .. . ... : ... .. . ... : ... .. . ... : ... .. . ...
ROW 68 : ... .. . ... ... : ... .. . ... : ... .. . ... : ... .. . ... : D-3 00 . ...
ROW 69 : ... .. . ... P7C : ... .. . ... : ... .. . P82 : A-# 1B . ... : ... .. . ...
ROW 6A : ... .. . ... ... : ... .. . ... : ... .. . ... : ... .. . ... : ... .. . ...
ROW 6B : ... .. . ... P7B : ... .. . ... : ... .. . P81 : ... .. . ... : ... .. . ...
ROW 6C : ... .. . ... ... : ... .. . ... : ... .. . ... : ... .. . ... : C-3 00 . ...
ROW 6D : ... .. . ... P7A : D-1 13 . ... : ... .. . P80 : ... .. . ... : ... .. . ...
ROW 6E : ... .. . ... ... : ... .. . ... : ... .. . ... : ... .. . ... : ... .. . ...
ROW 6F : ... .. . ... P79 : ... .. . ... : ... .. . P7F : ... .. . ... : ... .. . ...
ROW 70 : ... .. . ... ... : ... .. . ... : ... .. . ... : ... .. . ... : ... .. . ...
ROW 71 : ... .. . ... P78 : ... .. . ... : ... .. . P7E : ... .. . ... : ... .. . ...
ROW 72 : ... .. . ... ... : ... .. . ... : ... .. . ... : ... .. . ... : ... .. . ...
ROW 73 : ... .. . ... P77 : ... .. . ... : C-5 00 . P83 : ... .. . ... : ... .. . ...
ROW 74 : ... .. . ... T91 : ... .. . ... : ... .. . ... : ... .. . ... : C-3 00 . ...
ROW 75 : ... .. . ... P89 : D-1 13 . ... : ... .. . P82 : ... .. . ... : ... .. . ...
ROW 76 : ... .. . ... ... : ... .. . ... : ... .. . ... : ... .. . ... : ... .. . ...
ROW 77 : ... .. . ... P88 : ... .. . ... : ... .. . P81 : ... .. . ... : ... .. . ...
ROW 78 : ... .. . ... ... : ... .. . ... : ... .. . ... : ... .. . ... : D-3 00 . ...
ROW 79 : ... .. . ... P87 : F-1 13 . ... : ... .. . P80 : A-# 1B . ... : ... .. . ...
ROW 7A : ... .. . ... ... : ... .. . ... : ... .. . ... : ... .. . ... : ... .. . ...
ROW 7B : ... .. . ... P86 : ... .. . ... : ... .. . P7F : ... .. . ... : ... .. . ...
ROW 7C : ... .. . ... ... : ... .. . ... : ... .. . ... : ... .. . ... : C-3 00 . ...
ROW 7D : ... .. . ... ... : D-1 13 . ... : ... .. . ... : ... .. . ... : ... .. . ...
ROW 7E : ... .. . ... ... : ... .. . ... : ... .. . ... : ... .. . ... : ... .. . ...
ROW 7F : ... .. . ... ... : ... .. . ... : ... .. . ... : ... .. . ... : ... .. . ...

PATTERN 03
ROW 00 : ... .. . ... ... : ... .. . ... : ... .. . ... : ... .. . ... : C-3 00 . ...
ROW 01 : C-3 03 . V03 P7F : G-1 13 . ... : E-5 14 . P80 : ... .. . ... : ... .. . ...
ROW 02 : ... .. . ... ... : ... .. . ... : ... .. . ... : ... .. . ... : ... .. . ...
ROW 03 : ... .. . ... ... : ... .. . ... : ... .. . ... : ... .. . ... : ... .. . ...
ROW 04 : ... .. . ... ... : ... .. . ... : ... .. . ... : ... .. . ... : ... .. . ...
ROW 05 : C-3 03 . ... ... : ... .. . ... : C-5 14 . ... : ... .. . ... : ... .. . ...
ROW 06 : ... .. . ... ... : ... .. . ... : ... .. . ... : ... .. . ... : ... .. . ...
ROW 07 : ... .. . ... ... : ... .. . ... : ... .. . ... : ... .. . ... : ... .. . ...
ROW 08 : ... .. . ... ... : ... .. . ... : ... .. . ... : ... .. . ... : D-3 00 . ...
ROW 09 : C-3 03 . ... ... : G-1 13 . ... : A-4 14 . ... : A-# 1B . ... : ... .. . ...
ROW 0A : ... .. . ... ... : ... .. . ... : ... .. . ... : ... .. . ... : ... .. . ...
ROW 0B : ... .. . ... ... : ... .. . ... : ... .. . ... : ... .. . ... : ... .. . ...
ROW 0C : ... .. . ... ... : ... .. . ... : ... .. . ... : ... .. . ... : C-3 00 . ...
ROW 0D : C-3 03 . ... ... : G-1 13 . ... : G-4 14 . ... : ... .. . ... : ... .. . ...
ROW 0E : ... .. . ... ... : ... .. . ... : ... .. . ... : ... .. . ... : ... .. . ...
ROW 0F : ... .. . ... ... : ... .. . ... : ... .. . ... : ... .. . ... : ... .. . ...
ROW 10 : ... .. . ... ... : ... .. . ... : ... .. . ... : ... .. . ... : ... .. . ...
ROW 11 : C-3 03 . ... ... : ... .. . ... : ... .. . ... : ... .. . ... : ... .. . ...
ROW 12 : ... .. . ... ... : ... .. . ... : ... .. . ... : ... .. . ... : ... .. . ...
ROW 13 : ... .. . ... ... : ... .. . ... : ... .. . ... : ... .. . ... : ... .. . ...
ROW 14 : ... .. . ... ... : ... .. . ... : ... .. . ... : ... .. . ... : C-3 00 . ...
ROW 15 : C-3 03 . ... ... : G-1 13 . ... : ... .. . ... : ... .. . ... : ... .. . ...
ROW 16 : ... .. . ... ... : ... .. . ... : ... .. . ... : ... .. . ... : ... .. . ...
ROW 17 : ... .. . ... ... : ... .. . ... : ... .. . ... : ... .. . ... : ... .. . ...
ROW 18 : ... .. . ... ... : ... .. . ... : ... .. . ... : ... .. . ... : D-3 00 . ...
ROW 19 : C-3 03 . ... ... : E-1 13 . ... : ... .. . ... : A-# 1B . ... : ... .. . ...
ROW 1A : ... .. . ... ... : ... .. . ... : ... .. . ... : ... .. . ... : ... .. . ...
ROW 1B : ... .. . ... ... : ... .. . ... : ... .. . ... : ... .. . ... : ... .. . ...
ROW 1C : ... .. . ... ... : ... .. . ... : ... .. . ... : ... .. . ... : D-3 00 . ...
ROW 1D : C-3 03 . ... ... : F-1 13 . ... : E-4 14 . ... : A-# 1B . ... : ... .. . ...
ROW 1E : ... .. . ... ... : ... .. . ... : ... .. . ... : ... .. . ... : ... .. . ...
ROW 1F : ... .. . ... ... : ... .. . ... : F-4 14 . ... : ... .. . ... : ... .. . ...
ROW 20 : ... .. . ... ... : ... .. . ... : ... .. . ... : ... .. . ... : C-3 00 . ...
ROW 21 : A#2 03 . ... ... : F-1 13 . ... : G-4 14 . ... : ... .. . ... : ... .. . ...
ROW 22 : ... .. . ... ... : ... .. . ... : ... .. . ... : ... .. . ... : ... .. . ...
ROW 23 : ... .. . ... ... : ... .. . ... : ... .. . ... : ... .. . ... : ... .. . ...
ROW 24 : ... .. . ... ... : ... .. . ... : ... .. . ... : ... .. . ... : ... .. . ...
ROW 25 : A#2 03 . ... ... : ... .. . ... : ... .. . ... : ... .. . ... : ... .. . ...
ROW 26 : ... .. . ... ... : ... .. . ... : ... .. . ... : ... .. . ... : ... .. . ...
ROW 27 : ... .. . ... ... : ... .. . ... : ... .. . ... : ... .. . ... : ... .. . ...
ROW 28 : ... .. . ... ... : ... .. . ... : ... .. . ... : ... .. . ... : D-3 00 . ...
ROW 29 : A#2 03 . ... ... : F-1 13 . ... : ... .. . ... : A-# 1B . ... : ... .. . ...
ROW 2A : ... .. . ... ... : ... .. . ... : ... .. . ... : ... .. . ... : ... .. . ...
ROW 2B : ... .. . ... ... : ... .. . ... : ... .. . ... : ... .. . ... : ... .. . ...
ROW 2C : ... .. . ... ... : ... .. . ... : ... .. . ... : ... .. . ... : C-3 00 . ...
ROW 2D : A#2 03 . ... ... : E-1 13 . ... : ... .. . ... : ... .. . ... : ... .. . ...
ROW 2E : ... .. . ... ... : ... .. . ... : ... .. . ... : ... .. . ... : ... .. . ...
ROW 2F : ... .. . ... ... : ... .. . ... : ... .. . ... : ... .. . ... : ... .. . ...
ROW 30 : ... .. . ... ... : ... .. . ... : ... .. . ... : ... .. . ... : ... .. . ...
ROW 31 : A#2 03 . ... ... : ... .. . ... : A#4 14 . ... : ... .. . ... : ... .. . ...
ROW 32 : ... .. . ... ... : ... .. . ... : ... .. . ... : ... .. . ... : ... .. . ...
ROW 33 : ... .. . ... ... : ... .. . ... : ... .. . ... : ... .. . ... : ... .. . ...
ROW 34 : ... .. . ... ... : ... .. . ... : ... .. . ... : ... .. . ... : C-3 00 . ...
ROW 35 : A#2 03 . ... ... : F-1 13 . ... : ... .. . ... : ... .. . ... : ... .. . ...
ROW 36 : ... .. . ... ... : ... .. . ... : ... .. . ... : ... .. . ... : ... .. . ...
ROW 37 : ... .. . ... ... : ... .. . ... : ... .. . ... : ... .. . ... : ... .. . ...
ROW 38 : ... .. . ... ... : ... .. . ... : ... .. . ... : ... .. . ... : D-3 00 . ...
ROW 39 : A#2 03 . ... ... : A-1 13 . ... : ... .. . ... : A-# 1B . ... : ... .. . ...
ROW 3A : ... .. . ... ... : ... .. . ... : ... .. . ... : ... .. . ... : ... .. . ...
ROW 3B : ... .. . ... ... : ... .. . ... : ... .. . ... : ... .. . ... : ... .. . ...
ROW 3C : ... .. . ... ... : ... .. . ... : ... .. . ... : ... .. . ... : ... .. . ...
ROW 3D : A#2 03 . ... ... : G-1 13 . ... : C-5 14 . ... : ... .. . ... : ... .. . ...
ROW 3E : ... .. . ... ... : ... .. . ... : ... .. . ... : ... .. . ... : ... .. . ...
ROW 3F : ... .. . ... ... : ... .. . ... : ... .. . ... : ... .. . ... : ... .. . ...
ROW 40 : ... .. . ... ... : ... .. . ... : ... .. . ... : ... .. . ... : C-3 00 . ...
ROW 41 : D-3 03 . ... ... : G-1 13 . ... : E-5 14 . ... : ... .. . ... : ... .. . ...
ROW 42 : ... .. . ... ... : ... .. . ... : ... .. . ... : ... .. . ... : ... .. . ...
ROW 43 : ... .. . ... ... : ... .. . ... : ... .. . ... : ... .. . ... : ... .. . ...
ROW 44 : ... .. . ... ... : ... .. . ... : ... .. . ... : ... .. . ... : ... .. . ...
ROW 45 : D-3 03 . ... ... : ... .. . ... : C-5 14 . ... : ... .. . ... : ... .. . ...
ROW 46 : ... .. . ... ... : ... .. . ... : ... .. . ... : ... .. . ... : ... .. . ...
ROW 47 : ... .. . ... ... : ... .. . ... : ... .. . ... : ... .. . ... : ... .. . ...
ROW 48 : ... .. . ... ... : ... .. . ... : ... .. . ... : ... .. . ... : D-3 00 . ...
ROW 49 : D-3 03 . ... ... : G-1 13 . ... : A-4 14 . ... : A-# 1B . ... : ... .. . ...
ROW 4A : ... .. . ... ... : ... .. . ... : ... .. . ... : ... .. . ... : ... .. . ...
ROW 4B : ... .. . ... ... : ... .. . ... : ... .. . ... : ... .. . ... : ... .. . ...
ROW 4C : ... .. . ... ... : ... .. . ... : ... .. . ... : ... .. . ... : C-3 00 . ...
ROW 4D : D-3 03 . ... ... : G-1 13 . ... : G-4 14 . ... : ... .. . ... : ... .. . ...
ROW 4E : ... .. . ... ... : ... .. . ... : ... .. . ... : ... .. . ... : ... .. . ...
ROW 4F : ... .. . ... ... : ... .. . ... : ... .. . ... : ... .. . ... : ... .. . ...
ROW 50 : ... .. . ... ... : ... .. . ... : ... .. . ... : ... .. . ... : ... .. . ...
ROW 51 : D-3 03 . ... ... : ... .. . ... : ... .. . ... : ... .. . ... : ... .. . ...
ROW 52 : ... .. . ... ... : ... .. . ... : ... .. . ... : ... .. . ... : ... .. . ...
ROW 53 : ... .. . ... ... : ... .. . ... : ... .. . ... : ... .. . ... : ... .. . ...
ROW 54 : ... .. . ... ... : ... .. . ... : ... .. . ... : ... .. . ... : C-3 00 . ...
ROW 55 : D-3 03 . ... ... : G-1 13 . ... : ... .. . ... : ... .. . ... : ... .. . ...
ROW 56 : ... .. . ... ... : ... .. . ... : ... .. . ... : ... .. . ... : ... .. . ...
ROW 57 : ... .. . ... ... : ... .. . ... : ... .. . ... : ... .. . ... : ... .. . ...
ROW 58 : ... .. . ... ... : ... .. . ... : ... .. . ... : ... .. . ... : D-3 00 . ...
ROW 59 : D-3 03 . ... ... : E-1 13 . ... : ... .. . ... : A-# 1B . ... : ... .. . ...
ROW 5A : ... .. . ... ... : ... .. . ... : ... .. . ... : ... .. . ... : ... .. . ...
ROW 5B : ... .. . ... ... : ... .. . ... : ... .. . ... : ... .. . ... : ... .. . ...
ROW 5C : ... .. . ... ... : ... .. . ... : ... .. . ... : ... .. . ... : D-3 00 . ...
ROW 5D : D-3 03 . ... ... : F-1 13 . ... : E-4 14 . ... : A-# 1B . ... : ... .. . ...
ROW 5E : ... .. . ... ... : ... .. . ... : ... .. . ... : ... .. . ... : ... .. . ...
ROW 5F : ... .. . ... ... : ... .. . ... : F-4 14 . ... : ... .. . ... : ... .. . ...
ROW 60 : ... .. . ... ... : ... .. . ... : ... .. . ... : ... .. . ... : C-3 00 . ...
ROW 61 : E-3 03 . ... ... : F-1 13 . ... : G-4 14 . ... : ... .. . ... : ... .. . ...
ROW 62 : ... .. . ... ... : ... .. . ... : ... .. . ... : ... .. . ... : ... .. . ...
ROW 63 : ... .. . ... ... : ... .. . ... : ... .. . ... : ... .. . ... : ... .. . ...
ROW 64 : ... .. . ... ... : ... .. . ... : ... .. . ... : ... .. . ... : ... .. . ...
ROW 65 : E-3 03 . ... ... : ... .. . ... : ... .. . ... : ... .. . ... : ... .. . ...
ROW 66 : ... .. . ... ... : ... .. . ... : ... .. . ... : ... .. . ... : ... .. . ...
ROW 67 : ... .. . ... ... : ... .. . ... : ... .. . ... : ... .. . ... : ... .. . ...
ROW 68 : ... .. . ... ... : ... .. . ... : ... .. . ... : ... .. . ... : D-3 00 . ...
ROW 69 : E-3 03 . ... ... : F-1 13 . ... : ... .. . ... : A-# 1B . ... : ... .. . ...
ROW 6A : ... .. . ... ... : ... .. . ... : ... .. . ... : ... .. . ... : ... .. . ...
ROW 6B : ... .. . ... ... : ... .. . ... : ... .. . ... : ... .. . ... : ... .. . ...
ROW 6C : ... .. . ... ... : ... .. . ... : ... .. . ... : ... .. . ... : C-3 00 . ...
ROW 6D : E-3 03 . ... ... : E-1 13 . ... : ... .. . ... : ... .. . ... : ... .. . ...
ROW 6E : ... .. . ... ... : ... .. . ... : ... .. . ... : ... .. . ... : ... .. . ...
ROW 6F : ... .. . ... ... : ... .. . ... : ... .. . ... : ... .. . ... : ... .. . ...
ROW 70 : ... .. . ... ... : ... .. . ... : ... .. . ... : ... .. . ... : ... .. . ...
ROW 71 : D-3 03 . ... ... : ... .. . ... : A#4 14 . ... : ... .. . ... : ... .. . ...
ROW 72 : ... .. . ... ... : ... .. . ... : ... .. . ... : ... .. . ... : ... .. . ...
ROW 73 : ... .. . ... ... : ... .. . ... : ... .. . ... : ... .. . ... : ... .. . ...
ROW 74 : ... .. . ... ... : ... .. . ... : ... .. . ... : ... .. . ... : C-3 00 . ...
ROW 75 : D-3 03 . ... ... : F-1 13 . ... : ... .. . ... : ... .. . ... : ... .. . ...
ROW 76 : ... .. . ... ... : ... .. . ... : ... .. . ... : ... .. . ... : ... .. . ...
ROW 77 : ... .. . ... ... : ... .. . ... : ... .. . ... : ... .. . ... : ... .. . ...
ROW 78 : ... .. . ... ... : ... .. . ... : ... .. . ... : ... .. . ... : D-3 00 . ...
ROW 79 : D-3 03 . ... ... : A-1 13 . ... : ... .. . ... : A-# 1B . ... : ... .. . ...
ROW 7A : ... .. . ... ... : ... .. . ... : ... .. . ... : ... .. . ... : ... .. . ...
ROW 7B : ... .. . ... ... : ... .. . ... : ... .. . ... : ... .. . ... : ... .. . ...
ROW 7C : ... .. . ... ... : ... .. . ... : ... .. . ... : ... .. . ... : ... .. . ...
ROW 7D : D-3 03 . ... ... : G-1 13 . ... : C-5 14 . ... : ... .. . ... : ... .. . ...
ROW 7E : ... .. . ... ... : ... .. . ... : ... .. . ... : ... .. . ... : ... .. . ...
ROW 7F : ... .. . ... ... : ... .. . ... : ... .. . ... : ... .. . ... : ... .. . ...

PATTERN 04
ROW 00 : ... .. . ... ... : ... .. . ... : ... .. . ... : ... .. . ... : C-3 00 . ...
ROW 01 : F-3 03 . V03 P7F : A#0 13 . ... : D-5 14 . P80 : ... .. . ... : ... .. . ...
ROW 02 : ... .. . ... ... : ... .. . ... : ... .. . ... : ... .. . ... : ... .. . ...
ROW 03 : ... .. . ... ... : ... .. . ... : ... .. . ... : ... .. . ... : ... .. . ...
ROW 04 : ... .. . ... ... : ... .. . ... : ... .. . ... : ... .. . ... : ... .. . ...
ROW 05 : E-3 03 . ... ... : A#0 13 . ... : C-5 14 . ... : ... .. . ... : ... .. . ...
ROW 06 : ... .. . ... ... : ... .. . ... : ... .. . ... : ... .. . ... : ... .. . ...
ROW 07 : ... .. . ... ... : ... .. . ... : ... .. . ... : ... .. . ... : ... .. . ...
ROW 08 : ... .. . ... ... : ... .. . ... : ... .. . ... : ... .. . ... : D-3 00 . ...
ROW 09 : D-3 03 . ... ... : ... .. . ... : A#4 14 . ... : A-# 1B . ... : ... .. . ...
ROW 0A : ... .. . ... ... : ... .. . ... : ... .. . ... : ... .. . ... : ... .. . ...
ROW 0B : ... .. . ... ... : ... .. . ... : ... .. . ... : ... .. . ... : ... .. . ...
ROW 0C : ... .. . ... ... : ... .. . ... : ... .. . ... : ... .. . ... : C-3 00 . ...
ROW 0D : E-3 03 . ... ... : A#0 13 . ... : C-5 14 . ... : ... .. . ... : ... .. . ...
ROW 0E : ... .. . ... ... : ... .. . ... : ... .. . ... : ... .. . ... : ... .. . ...
ROW 0F : ... .. . ... ... : ... .. . ... : ... .. . ... : ... .. . ... : ... .. . ...
ROW 10 : ... .. . ... ... : ... .. . ... : ... .. . ... : ... .. . ... : ... .. . ...
ROW 11 : D-3 03 . ... ... : ... .. . ... : A#4 14 . ... : ... .. . ... : ... .. . ...
ROW 12 : ... .. . ... ... : ... .. . ... : ... .. . ... : ... .. . ... : ... .. . ...
ROW 13 : ... .. . ... ... : ... .. . ... : ... .. . ... : ... .. . ... : ... .. . ...
ROW 14 : ... .. . ... ... : ... .. . ... : ... .. . ... : ... .. . ... : C-3 00 . ...
ROW 15 : C-3 03 . ... ... : A#0 13 . ... : A-4 14 . ... : ... .. . ... : ... .. . ...
ROW 16 : ... .. . ... ... : ... .. . ... : ... .. . ... : ... .. . ... : ... .. . ...
ROW 17 : ... .. . ... ... : ... .. . ... : ... .. . ... : ... .. . ... : ... .. . ...
ROW 18 : ... .. . ... ... : ... .. . ... : ... .. . ... : ... .. . ... : D-3 00 . ...
ROW 19 : D-3 03 . ... ... : A#0 13 . ... : A#4 14 . ... : A-# 1B . ... : ... .. . ...
ROW 1A : ... .. . ... ... : ... .. . ... : ... .. . ... : ... .. . ... : ... .. . ...
ROW 1B : ... .. . ... ... : ... .. . ... : ... .. . ... : ... .. . ... : ... .. . ...
ROW 1C : ... .. . ... ... : ... .. . ... : ... .. . ... : ... .. . ... : D-3 00 . ...
ROW 1D : C-3 03 . ... ... : A#0 13 . ... : A-4 14 . ... : A-# 1B . ... : ... .. . ...
ROW 1E : ... .. . ... ... : ... .. . ... : ... .. . ... : ... .. . ... : ... .. . ...
ROW 1F : ... .. . ... ... : ... .. . ... : ... .. . ... : ... .. . ... : ... .. . ...
ROW 20 : ... .. . ... ... : ... .. . ... : ... .. . ... : ... .. . ... : E-3 00 . W0A
ROW 21 : A#2 03 . ... ... : C-1 13 . ... : G-4 14 . ... : ... .. . ... : ... .. . ...
ROW 22 : ... .. . ... ... : ... .. . ... : ... .. . ... : ... .. . ... : ... .. . ...
ROW 23 : ... .. . ... ... : ... .. . ... : ... .. . ... : ... .. . ... : ... .. . ...
ROW 24 : ... .. . ... ... : ... .. . ... : ... .. . ... : ... .. . ... : E-3 00 . W09
ROW 25 : C-3 03 . ... ... : C-1 13 . ... : A-4 14 . ... : ... .. . ... : ... .. . ...
ROW 26 : ... .. . ... ... : ... .. . ... : ... .. . ... : ... .. . ... : ... .. . ...
ROW 27 : ... .. . ... ... : ... .. . ... : ... .. . ... : ... .. . ... : ... .. . ...
ROW 28 : ... .. . ... ... : ... .. . ... : ... .. . ... : ... .. . ... : E-3 00 . W08
ROW 29 : A#2 03 . ... ... : ... .. . ... : G-4 14 . ... : ... .. . ... : ... .. . ...
ROW 2A : ... .. . ... ... : ... .. . ... : ... .. . ... : ... .. . ... : ... .. . ...
ROW 2B : ... .. . ... ... : ... .. . ... : ... .. . ... : ... .. . ... : ... .. . ...
ROW 2C : ... .. . ... ... : ... .. . ... : ... .. . ... : ... .. . ... : E-3 00 . W09
ROW 2D : A-2 03 . ... ... : C-1 13 . ... : F-4 14 . ... : ... .. . ... : ... .. . ...
ROW 2E : ... .. . ... ... : ... .. . ... : ... .. . ... : ... .. . ... : ... .. . ...
ROW 2F : ... .. . ... ... : ... .. . ... : ... .. . ... : ... .. . ... : ... .. . ...
ROW 30 : ... .. . ... ... : ... .. . ... : ... .. . ... : ... .. . ... : C-3 00 . ...
ROW 31 : A#2 03 . ... ... : ... .. . ... : G-4 14 . ... : ... .. . ... : ... .. . ...
ROW 32 : ... .. . ... ... : ... .. . ... : ... .. . ... : ... .. . ... : ... .. . ...
ROW 33 : ... .. . ... ... : ... .. . ... : ... .. . ... : ... .. . ... : ... .. . ...
ROW 34 : ... .. . ... ... : ... .. . ... : ... .. . ... : ... .. . ... : D-3 00 . ...
ROW 35 : A-2 03 . ... ... : C-1 13 . ... : F-4 14 . ... : A-# 1B . ... : ... .. . ...
ROW 36 : ... .. . ... ... : ... .. . ... : ... .. . ... : ... .. . ... : ... .. . ...
ROW 37 : ... .. . ... ... : ... .. . ... : ... .. . ... : ... .. . ... : ... .. . ...
ROW 38 : ... .. . ... ... : ... .. . ... : ... .. . ... : ... .. . ... : D-3 00 . ...
ROW 39 : G-2 03 . ... ... : C-1 13 . ... : E-4 14 . ... : A-# 1B . ... : ... .. . ...
ROW 3A : ... .. . ... ... : ... .. . ... : ... .. . ... : ... .. . ... : ... .. . ...
ROW 3B : ... .. . ... ... : ... .. . ... : ... .. . ... : ... .. . ... : ... .. . ...
ROW 3C : ... .. . ... ... : ... .. . ... : ... .. . ... : ... .. . ... : D-3 00 . ...
ROW 3D : ... .. . ... P7E : C-1 13 . ... : ... .. . ... : A-# 1B . ... : ... .. . ...
ROW 3E : ... .. . ... ... : ... .. . ... : ... .. . ... : ... .. . ... : ... .. . ...
ROW 3F : ... .. . ... ... : ... .. . ... : ... .. . ... : ... .. . ... : ... .. . B01
ROW 40 : ... .. . ... ... : ... .. . ... : ... .. . ... : ... .. . ... : ... .. . ...
ROW 41 : ... .. . ... ... : ... .. . ... : ... .. . ... : ... .. . ... : ... .. . ...
ROW 42 : ... .. . ... ... : ... .. . ... : ... .. . ... : ... .. . ... : ... .. . ...
ROW 43 : ... .. . ... ... : ... .. . ... : ... .. . ... : ... .. . ... : ... .. . ...
ROW 44 : ... .. . ... ... : ... .. . ... : ... .. . ... : ... .. . ... : ... .. . ...
ROW 45 : ... .. . ... ... : ... .. . ... : ... .. . ... : ... .. . ... : ... .. . ...
ROW 46 : ... .. . ... ... : ... .. . ... : ... .. . ... : ... .. . ... : ... .. . ...
ROW 47 : ... .. . ... ... : ... .. . ... : ... .. . ... : ... .. . ... : ... .. . ...
ROW 48 : ... .. . ... ... : ... .. . ... : ... .. . ... : ... .. . ... : ... .. . ...
ROW 49 : ... .. . ... ... : ... .. . ... : ... .. . ... : ... .. . ... : ... .. . ...
ROW 4A : ... .. . ... ... : ... .. . ... : ... .. . ... : ... .. . ... : ... .. . ...
ROW 4B : ... .. . ... ... : ... .. . ... : ... .. . ... : ... .. . ... : ... .. . ...
ROW 4C : ... .. . ... ... : ... .. . ... : ... .. . ... : ... .. . ... : ... .. . ...
ROW 4D : ... .. . ... ... : ... .. . ... : ... .. . ... : ... .. . ... : ... .. . ...
ROW 4E : ... .. . ... ... : ... .. . ... : ... .. . ... : ... .. . ... : ... .. . ...
ROW 4F : ... .. . ... ... : ... .. . ... : ... .. . ... : ... .. . ... : ... .. . ...
ROW 50 : ... .. . ... ... : ... .. . ... : ... .. . ... : ... .. . ... : ... .. . ...
ROW 51 : ... .. . ... ... : ... .. . ... : ... .. . ... : ... .. . ... : ... .. . ...
ROW 52 : ... .. . ... ... : ... .. . ... : ... .. . ... : ... .. . ... : ... .. . ...
ROW 53 : ... .. . ... ... : ... .. . ... : ... .. . ... : ... .. . ... : ... .. . ...
ROW 54 : ... .. . ... ... : ... .. . ... : ... .. . ... : ... .. . ... : ... .. . ...
ROW 55 : ... .. . ... ... : ... .. . ... : ... .. . ... : ... .. . ... : ... .. . ...
ROW 56 : ... .. . ... ... : ... .. . ... : ... .. . ... : ... .. . ... : ... .. . ...
ROW 57 : ... .. . ... ... : ... .. . ... : ... .. . ... : ... .. . ... : ... .. . ...
ROW 58 : ... .. . ... ... : ... .. . ... : ... .. . ... : ... .. . ... : ... .. . ...
ROW 59 : ... .. . ... ... : ... .. . ... : ... .. . ... : ... .. . ... : ... .. . ...
ROW 5A : ... .. . ... ... : ... .. . ... : ... .. . ... : ... .. . ... : ... .. . ...
ROW 5B : ... .. . ... ... : ... .. . ... : ... .. . ... : ... .. . ... : ... .. . ...
ROW 5C : ... .. . ... ... : ... .. . ... : ... .. . ... : ... .. . ... : ... .. . ...
ROW 5D : ... .. . ... ... : ... .. . ... : ... .. . ... : ... .. . ... : ... .. . ...
ROW 5E : ... .. . ... ... : ... .. . ... : ... .. . ... : ... .. . ... : ... .. . ...
ROW 5F : ... .. . ... ... : ... .. . ... : ... .. . ... : ... .. . ... : ... .. . ...
ROW 60 : ... .. . ... ... : ... .. . ... : ... .. . ... : ... .. . ... : ... .. . ...
ROW 61 : ... .. . ... ... : ... .. . ... : ... .. . ... : ... .. . ... : ... .. . ...
ROW 62 : ... .. . ... ... : ... .. . ... : ... .. . ... : ... .. . ... : ... .. . ...
ROW 63 : ... .. . ... ... : ... .. . ... : ... .. . ... : ... .. . ... : ... .. . ...
ROW 64 : ... .. . ... ... : ... .. . ... : ... .. . ... : ... .. . ... : ... .. . ...
ROW 65 : ... .. . ... ... : ... .. . ... : ... .. . ... : ... .. . ... : ... .. . ...
ROW 66 : ... .. . ... ... : ... .. . ... : ... .. . ... : ... .. . ... : ... .. . ...
ROW 67 : ... .. . ... ... : ... .. . ... : ... .. . ... : ... .. . ... : ... .. . ...
ROW 68 : ... .. . ... ... : ... .. . ... : ... .. . ... : ... .. . ... : ... .. . ...
ROW 69 : ... .. . ... ... : ... .. . ... : ... .. . ... : ... .. . ... : ... .. . ...
ROW 6A : ... .. . ... ... : ... .. . ... : ... .. . ... : ... .. . ... : ... .. . ...
ROW 6B : ... .. . ... ... : ... .. . ... : ... .. . ... : ... .. . ... : ... .. . ...
ROW 6C : ... .. . ... ... : ... .. . ... : ... .. . ... : ... .. . ... : ... .. . ...
ROW 6D : ... .. . ... ... : ... .. . ... : ... .. . ... : ... .. . ... : ... .. . ...
ROW 6E : ... .. . ... ... : ... .. . ... : ... .. . ... : ... .. . ... : ... .. . ...
ROW 6F : ... .. . ... ... : ... .. . ... : ... .. . ... : ... .. . ... : ... .. . ...
ROW 70 : ... .. . ... ... : ... .. . ... : ... .. . ... : ... .. . ... : ... .. . ...
ROW 71 : ... .. . ... ... : ... .. . ... : ... .. . ... : ... .. . ... : ... .. . ...
ROW 72 : ... .. . ... ... : ... .. . ... : ... .. . ... : ... .. . ... : ... .. . ...
ROW 73 : ... .. . ... ... : ... .. . ... : ... .. . ... : ... .. . ... : ... .. . ...
ROW 74 : ... .. . ... ... : ... .. . ... : ... .. . ... : ... .. . ... : ... .. . ...
ROW 75 : ... .. . ... ... : ... .. . ... : ... .. . ... : ... .. . ... : ... .. . ...
ROW 76 : ... .. . ... ... : ... .. . ... : ... .. . ... : ... .. . ... : ... .. . ...
ROW 77 : ... .. . ... ... : ... .. . ... : ... .. . ... : ... .. . ... : ... .. . ...
ROW 78 : ... .. . ... ... : ... .. . ... : ... .. . ... : ... .. . ... : ... .. . ...
ROW 79 : ... .. . ... ... : ... .. . ... : ... .. . ... : ... .. . ... : ... .. . ...
ROW 7A : ... .. . ... ... : ... .. . ... : ... .. . ... : ... .. . ... : ... .. . ...
ROW 7B : ... .. . ... ... : ... .. . ... : ... .. . ... : ... .. . ... : ... .. . ...
ROW 7C : ... .. . ... ... : ... .. . ... : ... .. . ... : ... .. . ... : ... .. . ...
ROW 7D : ... .. . ... ... : ... .. . ... : ... .. . ... : ... .. . ... : ... .. . ...
ROW 7E : ... .. . ... ... : ... .. . ... : ... .. . ... : ... .. . ... : ... .. . ...
ROW 7F : ... .. . ... ... : ... .. . ... : ... .. . ... : ... .. . ... : ... .. . ...

TRACK 128   4 150 "Stage 1"
COLUMNS : 2 1 1 1 1

ORDER 00 : 00 00 00 00 00
ORDER 01 : 01 01 01 01 01
ORDER 02 : 02 02 02 02 02
ORDER 03 : 03 03 03 03 03
ORDER 04 : 04 04 04 04 04
ORDER 05 : 05 05 05 05 05
ORDER 06 : 06 06 06 06 06

PATTERN 00
ROW 00 : ... .. . ... ... : ... .. . ... : ... .. . ... : ... .. . ... : D-3 00 . ...
ROW 01 : ... .. . ... ... : ... .. . ... : ... .. . ... : A-# 1B . ... : ... .. . ...
ROW 02 : ... .. . ... ... : ... .. . ... : ... .. . ... : ... .. . ... : ... .. . ...
ROW 03 : ... .. . ... ... : ... .. . ... : ... .. . ... : ... .. . ... : ... .. . ...
ROW 04 : ... .. . ... ... : ... .. . ... : ... .. . ... : ... .. . ... : E-3 00 . W0A
ROW 05 : ... .. . ... ... : ... .. . ... : ... .. . ... : ... .. . ... : ... .. . ...
ROW 06 : ... .. . ... ... : ... .. . ... : ... .. . ... : ... .. . ... : E-3 00 . W09
ROW 07 : ... .. . ... ... : ... .. . ... : ... .. . ... : ... .. . ... : ... .. . ...
ROW 08 : ... .. . ... ... : ... .. . ... : ... .. . ... : ... .. . ... : E-3 00 . W08
ROW 09 : ... .. . ... ... : ... .. . ... : ... .. . ... : ... .. . ... : ... .. . ...
ROW 0A : ... .. . ... ... : ... .. . ... : ... .. . ... : ... .. . ... : ... .. . ...
ROW 0B : ... .. . ... ... : ... .. . ... : ... .. . ... : ... .. . ... : ... .. . ...
ROW 0C : ... .. . ... ... : ... .. . ... : ... .. . ... : ... .. . ... : D-3 00 . ...
ROW 0D : ... .. . ... ... : ... .. . ... : ... .. . ... : A-# 1B . ... : ... .. . ...
ROW 0E : ... .. . ... ... : ... .. . ... : ... .. . ... : ... .. . ... : ... .. . ...
ROW 0F : ... .. . ... ... : ... .. . ... : ... .. . ... : ... .. . ... : ... .. . ...
ROW 10 : ... .. . ... ... : ... .. . ... : ... .. . ... : ... .. . ... : E-3 00 . W0A
ROW 11 : ... .. . ... ... : ... .. . ... : ... .. . ... : ... .. . ... : ... .. . ...
ROW 12 : ... .. . ... ... : ... .. . ... : ... .. . ... : ... .. . ... : E-3 00 . W09
ROW 13 : ... .. . ... ... : ... .. . ... : ... .. . ... : ... .. . ... : ... .. . ...
ROW 14 : ... .. . ... ... : ... .. . ... : ... .. . ... : ... .. . ... : E-3 00 . W08
ROW 15 : ... .. . ... ... : ... .. . ... : ... .. . ... : ... .. . ... : ... .. . ...
ROW 16 : ... .. . ... ... : ... .. . ... : ... .. . ... : ... .. . ... : ... .. . ...
ROW 17 : ... .. . ... ... : ... .. . ... : ... .. . ... : ... .. . ... : ... .. . ...
ROW 18 : ... .. . ... ... : ... .. . ... : ... .. . ... : ... .. . ... : D-3 00 . ...
ROW 19 : ... .. . ... ... : ... .. . ... : ... .. . ... : A-# 1B . ... : ... .. . ...
ROW 1A : ... .. . ... ... : ... .. . ... : ... .. . ... : ... .. . ... : ... .. . ...
ROW 1B : ... .. . ... ... : ... .. . ... : ... .. . ... : ... .. . ... : ... .. . ...
ROW 1C : ... .. . ... ... : ... .. . ... : ... .. . ... : ... .. . ... : D-3 00 . ...
ROW 1D : ... .. . ... ... : ... .. . ... : ... .. . ... : A-# 1B . ... : ... .. . ...
ROW 1E : ... .. . ... ... : ... .. . ... : ... .. . ... : ... .. . ... : ... .. . ...
ROW 1F : ... .. . ... ... : ... .. . ... : ... .. . ... : ... .. . ... : ... .. . D00
ROW 20 : ... .. . ... ... : ... .. . ... : ... .. . ... : ... .. . ... : ... .. . ...
ROW 21 : ... .. . ... ... : ... .. . ... : ... .. . ... : ... .. . ... : ... .. . ...
ROW 22 : ... .. . ... ... : ... .. . ... : ... .. . ... : ... .. . ... : ... .. . ...
ROW 23 : ... .. . ... ... : ... .. . ... : ... .. . ... : ... .. . ... : ... .. . ...
ROW 24 : ... .. . ... ... : ... .. . ... : ... .. . ... : ... .. . ... : ... .. . ...
ROW 25 : ... .. . ... ... : ... .. . ... : ... .. . ... : ... .. . ... : ... .. . ...
ROW 26 : ... .. . ... ... : ... .. . ... : ... .. . ... : ... .. . ... : ... .. . ...
ROW 27 : ... .. . ... ... : ... .. . ... : ... .. . ... : ... .. . ... : ... .. . ...
ROW 28 : ... .. . ... ... : ... .. . ... : ... .. . ... : ... .. . ... : ... .. . ...
ROW 29 : ... .. . ... ... : ... .. . ... : ... .. . ... : ... .. . ... : ... .. . ...
ROW 2A : ... .. . ... ... : ... .. . ... : ... .. . ... : ... .. . ... : ... .. . ...
ROW 2B : ... .. . ... ... : ... .. . ... : ... .. . ... : ... .. . ... : ... .. . ...
ROW 2C : ... .. . ... ... : ... .. . ... : ... .. . ... : ... .. . ... : ... .. . ...
ROW 2D : ... .. . ... ... : ... .. . ... : ... .. . ... : ... .. . ... : ... .. . ...
ROW 2E : ... .. . ... ... : ... .. . ... : ... .. . ... : ... .. . ... : ... .. . ...
ROW 2F : ... .. . ... ... : ... .. . ... : ... .. . ... : ... .. . ... : ... .. . ...
ROW 30 : ... .. . ... ... : ... .. . ... : ... .. . ... : ... .. . ... : ... .. . ...
ROW 31 : ... .. . ... ... : ... .. . ... : ... .. . ... : ... .. . ... : ... .. . ...
ROW 32 : ... .. . ... ... : ... .. . ... : ... .. . ... : ... .. . ... : ... .. . ...
ROW 33 : ... .. . ... ... : ... .. . ... : ... .. . ... : ... .. . ... : ... .. . ...
ROW 34 : ... .. . ... ... : ... .. . ... : ... .. . ... : ... .. . ... : ... .. . ...
ROW 35 : ... .. . ... ... : ... .. . ... : ... .. . ... : ... .. . ... : ... .. . ...
ROW 36 : ... .. . ... ... : ... .. . ... : ... .. . ... : ... .. . ... : ... .. . ...
ROW 37 : ... .. . ... ... : ... .. . ... : ... .. . ... : ... .. . ... : ... .. . ...
ROW 38 : ... .. . ... ... : ... .. . ... : ... .. . ... : ... .. . ... : ... .. . ...
ROW 39 : ... .. . ... ... : ... .. . ... : ... .. . ... : ... .. . ... : ... .. . ...
ROW 3A : ... .. . ... ... : ... .. . ... : ... .. . ... : ... .. . ... : ... .. . ...
ROW 3B : ... .. . ... ... : ... .. . ... : ... .. . ... : ... .. . ... : ... .. . ...
ROW 3C : ... .. . ... ... : ... .. . ... : ... .. . ... : ... .. . ... : ... .. . ...
ROW 3D : ... .. . ... ... : ... .. . ... : ... .. . ... : ... .. . ... : ... .. . ...
ROW 3E : ... .. . ... ... : ... .. . ... : ... .. . ... : ... .. . ... : ... .. . ...
ROW 3F : ... .. . ... ... : ... .. . ... : ... .. . ... : ... .. . ... : ... .. . ...
ROW 40 : ... .. . ... ... : ... .. . ... : ... .. . ... : ... .. . ... : ... .. . ...
ROW 41 : ... .. . ... ... : ... .. . ... : ... .. . ... : ... .. . ... : ... .. . ...
ROW 42 : ... .. . ... ... : ... .. . ... : ... .. . ... : ... .. . ... : ... .. . ...
ROW 43 : ... .. . ... ... : ... .. . ... : ... .. . ... : ... .. . ... : ... .. . ...
ROW 44 : ... .. . ... ... : ... .. . ... : ... .. . ... : ... .. . ... : ... .. . ...
ROW 45 : ... .. . ... ... : ... .. . ... : ... .. . ... : ... .. . ... : ... .. . ...
ROW 46 : ... .. . ... ... : ... .. . ... : ... .. . ... : ... .. . ... : ... .. . ...
ROW 47 : ... .. . ... ... : ... .. . ... : ... .. . ... : ... .. . ... : ... .. . ...
ROW 48 : ... .. . ... ... : ... .. . ... : ... .. . ... : ... .. . ... : ... .. . ...
ROW 49 : ... .. . ... ... : ... .. . ... : ... .. . ... : ... .. . ... : ... .. . ...
ROW 4A : ... .. . ... ... : ... .. . ... : ... .. . ... : ... .. . ... : ... .. . ...
ROW 4B : ... .. . ... ... : ... .. . ... : ... .. . ... : ... .. . ... : ... .. . ...
ROW 4C : ... .. . ... ... : ... .. . ... : ... .. . ... : ... .. . ... : ... .. . ...
ROW 4D : ... .. . ... ... : ... .. . ... : ... .. . ... : ... .. . ... : ... .. . ...
ROW 4E : ... .. . ... ... : ... .. . ... : ... .. . ... : ... .. . ... : ... .. . ...
ROW 4F : ... .. . ... ... : ... .. . ... : ... .. . ... : ... .. . ... : ... .. . ...
ROW 50 : ... .. . ... ... : ... .. . ... : ... .. . ... : ... .. . ... : ... .. . ...
ROW 51 : ... .. . ... ... : ... .. . ... : ... .. . ... : ... .. . ... : ... .. . ...
ROW 52 : ... .. . ... ... : ... .. . ... : ... .. . ... : ... .. . ... : ... .. . ...
ROW 53 : ... .. . ... ... : ... .. . ... : ... .. . ... : ... .. . ... : ... .. . ...
ROW 54 : ... .. . ... ... : ... .. . ... : ... .. . ... : ... .. . ... : ... .. . ...
ROW 55 : ... .. . ... ... : ... .. . ... : ... .. . ... : ... .. . ... : ... .. . ...
ROW 56 : ... .. . ... ... : ... .. . ... : ... .. . ... : ... .. . ... : ... .. . ...
ROW 57 : ... .. . ... ... : ... .. . ... : ... .. . ... : ... .. . ... : ... .. . ...
ROW 58 : ... .. . ... ... : ... .. . ... : ... .. . ... : ... .. . ... : ... .. . ...
ROW 59 : ... .. . ... ... : ... .. . ... : ... .. . ... : ... .. . ... : ... .. . ...
ROW 5A : ... .. . ... ... : ... .. . ... : ... .. . ... : ... .. . ... : ... .. . ...
ROW 5B : ... .. . ... ... : ... .. . ... : ... .. . ... : ... .. . ... : ... .. . ...
ROW 5C : ... .. . ... ... : ... .. . ... : ... .. . ... : ... .. . ... : ... .. . ...
ROW 5D : ... .. . ... ... : ... .. . ... : ... .. . ... : ... .. . ... : ... .. . ...
ROW 5E : ... .. . ... ... : ... .. . ... : ... .. . ... : ... .. . ... : ... .. . ...
ROW 5F : ... .. . ... ... : ... .. . ... : ... .. . ... : ... .. . ... : ... .. . ...
ROW 60 : ... .. . ... ... : ... .. . ... : ... .. . ... : ... .. . ... : ... .. . ...
ROW 61 : ... .. . ... ... : ... .. . ... : ... .. . ... : ... .. . ... : ... .. . ...
ROW 62 : ... .. . ... ... : ... .. . ... : ... .. . ... : ... .. . ... : ... .. . ...
ROW 63 : ... .. . ... ... : ... .. . ... : ... .. . ... : ... .. . ... : ... .. . ...
ROW 64 : ... .. . ... ... : ... .. . ... : ... .. . ... : ... .. . ... : ... .. . ...
ROW 65 : ... .. . ... ... : ... .. . ... : ... .. . ... : ... .. . ... : ... .. . ...
ROW 66 : ... .. . ... ... : ... .. . ... : ... .. . ... : ... .. . ... : ... .. . ...
ROW 67 : ... .. . ... ... : ... .. . ... : ... .. . ... : ... .. . ... : ... .. . ...
ROW 68 : ... .. . ... ... : ... .. . ... : ... .. . ... : ... .. . ... : ... .. . ...
ROW 69 : ... .. . ... ... : ... .. . ... : ... .. . ... : ... .. . ... : ... .. . ...
ROW 6A : ... .. . ... ... : ... .. . ... : ... .. . ... : ... .. . ... : ... .. . ...
ROW 6B : ... .. . ... ... : ... .. . ... : ... .. . ... : ... .. . ... : ... .. . ...
ROW 6C : ... .. . ... ... : ... .. . ... : ... .. . ... : ... .. . ... : ... .. . ...
ROW 6D : ... .. . ... ... : ... .. . ... : ... .. . ... : ... .. . ... : ... .. . ...
ROW 6E : ... .. . ... ... : ... .. . ... : ... .. . ... : ... .. . ... : ... .. . ...
ROW 6F : ... .. . ... ... : ... .. . ... : ... .. . ... : ... .. . ... : ... .. . ...
ROW 70 : ... .. . ... ... : ... .. . ... : ... .. . ... : ... .. . ... : ... .. . ...
ROW 71 : ... .. . ... ... : ... .. . ... : ... .. . ... : ... .. . ... : ... .. . ...
ROW 72 : ... .. . ... ... : ... .. . ... : ... .. . ... : ... .. . ... : ... .. . ...
ROW 73 : ... .. . ... ... : ... .. . ... : ... .. . ... : ... .. . ... : ... .. . ...
ROW 74 : ... .. . ... ... : ... .. . ... : ... .. . ... : ... .. . ... : ... .. . ...
ROW 75 : ... .. . ... ... : ... .. . ... : ... .. . ... : ... .. . ... : ... .. . ...
ROW 76 : ... .. . ... ... : ... .. . ... : ... .. . ... : ... .. . ... : ... .. . ...
ROW 77 : ... .. . ... ... : ... .. . ... : ... .. . ... : ... .. . ... : ... .. . ...
ROW 78 : ... .. . ... ... : ... .. . ... : ... .. . ... : ... .. . ... : ... .. . ...
ROW 79 : ... .. . ... ... : ... .. . ... : ... .. . ... : ... .. . ... : ... .. . ...
ROW 7A : ... .. . ... ... : ... .. . ... : ... .. . ... : ... .. . ... : ... .. . ...
ROW 7B : ... .. . ... ... : ... .. . ... : ... .. . ... : ... .. . ... : ... .. . ...
ROW 7C : ... .. . ... ... : ... .. . ... : ... .. . ... : ... .. . ... : ... .. . ...
ROW 7D : ... .. . ... ... : ... .. . ... : ... .. . ... : ... .. . ... : ... .. . ...
ROW 7E : ... .. . ... ... : ... .. . ... : ... .. . ... : ... .. . ... : ... .. . ...
ROW 7F : ... .. . ... ... : ... .. . ... : ... .. . ... : ... .. . ... : ... .. . ...

PATTERN 01
ROW 00 : ... .. . ... ... : ... .. . ... : ... .. . ... : ... .. . ... : C-3 00 . ...
ROW 01 : B-2 06 . ... ... : B-2 07 . ... : E-3 18 . ... : ... .. . ... : ... .. . ...
ROW 02 : ... .. . ... ... : ... .. . ... : ... .. . ... : ... .. . ... : ... .. . ...
ROW 03 : ... .. . ... ... : ... .. . ... : ... .. . ... : ... .. . ... : ... .. . ...
ROW 04 : ... .. . ... ... : ... .. . ... : ... .. . ... : ... .. . ... : ... .. . ...
ROW 05 : ... .. . ... ... : E-3 07 . ... : ... .. . ... : ... .. . ... : ... .. . ...
ROW 06 : ... .. . ... ... : ... .. . ... : ... .. . ... : ... .. . ... : ... .. . ...
ROW 07 : ... .. . ... ... : ... .. . ... : ... .. . ... : ... .. . ... : ... .. . ...
ROW 08 : ... .. . ... ... : ... .. . ... : ... .. . ... : ... .. . ... : D-3 00 . ...
ROW 09 : ... .. . ... ... : G-3 07 . ... : E-3 18 . ... : A-# 1B . ... : ... .. . ...
ROW 0A : ... .. . ... ... : ... .. . ... : ... .. . ... : ... .. . ... : ... .. . ...
ROW 0B : ... .. . ... ... : ... .. . ... : ... .. . ... : ... .. . ... : ... .. . ...
ROW 0C : ... .. . ... ... : ... .. . ... : ... .. . ... : ... .. . ... : C-3 00 . ...
ROW 0D : ... .. . ... ... : B-2 07 . ... : E-3 18 . ... : ... .. . ... : ... .. . ...
ROW 0E : ... .. . ... ... : ... .. . ... : ... .. . ... : ... .. . ... : ... .. . ...
ROW 0F : ... .. . ... ... : ... .. . ... : ... .. . ... : ... .. . ... : ... .. . ...
ROW 10 : ... .. . ... ... : ... .. . ... : ... .. . ... : ... .. . ... : ... .. . ...
ROW 11 : ... .. . ... ... : E-3 07 . ... : ... .. . ... : ... .. . ... : ... .. . ...
ROW 12 : ... .. . ... ... : ... .. . ... : ... .. . ... : ... .. . ... : ... .. . ...
ROW 13 : ... .. . ... ... : ... .. . ... : ... .. . ... : ... .. . ... : ... .. . ...
ROW 14 : ... .. . ... ... : ... .. . ... : ... .. . ... : ... .. . ... : C-3 00 . ...
ROW 15 : ... .. . ... ... : G-3 07 . ... : E-3 18 . ... : ... .. . ... : ... .. . ...
ROW 16 : ... .. . ... ... : ... .. . ... : ... .. . ... : ... .. . ... : ... .. . ...
ROW 17 : ... .. . ... ... : ... .. . ... : ... .. . ... : ... .. . ... : ... .. . ...
ROW 18 : ... .. . ... ... : ... .. . ... : ... .. . ... : ... .. . ... : D-3 00 . ...
ROW 19 : --- .. . ... ... : B-2 07 . ... : E-3 18 . ... : A-# 1B . ... : ... .. . ...
ROW 1A : ... .. . ... ... : ... .. . ... : ... .. . ... : ... .. . ... : ... .. . ...
ROW 1B : ... .. . ... ... : ... .. . ... : ... .. . ... : ... .. . ... : ... .. . ...
ROW 1C : ... .. . ... ... : ... .. . ... : ... .. . ... : ... .. . ... : ... .. . ...
ROW 1D : ... .. . ... ... : E-3 07 . ... : ... .. . ... : ... .. . ... : ... .. . ...
ROW 1E : ... .. . ... ... : ... .. . ... : ... .. . ... : ... .. . ... : ... .. . ...
ROW 1F : ... .. . ... ... : ... .. . ... : ... .. . ... : ... .. . ... : ... .. . ...
ROW 20 : ... .. . ... ... : ... .. . ... : ... .. . ... : ... .. . ... : C-3 00 . ...
ROW 21 : B-2 06 . ... ... : B-2 07 . ... : E-3 18 . ... : ... .. . ... : ... .. . ...
ROW 22 : ... .. . ... ... : ... .. . ... : ... .. . ... : ... .. . ... : ... .. . ...
ROW 23 : ... .. . ... ... : ... .. . ... : ... .. . ... : ... .. . ... : ... .. . ...
ROW 24 : ... .. . ... ... : ... .. . ... : ... .. . ... : ... .. . ... : ... .. . ...
ROW 25 : D-3 06 . ... ... : E-3 07 . ... : E-3 18 . ... : ... .. . ... : ... .. . ...
ROW 26 : ... .. . ... ... : ... .. . ... : ... .. . ... : ... .. . ... : ... .. . ...
ROW 27 : ... .. . ... ... : ... .. . ... : ... .. . ... : ... .. . ... : ... .. . ...
ROW 28 : ... .. . ... ... : ... .. . ... : ... .. . ... : ... .. . ... : D-3 00 . ...
ROW 29 : G-3 06 . ... ... : G-3 07 . ... : B-2 18 . ... : A-# 1B . ... : ... .. . ...
ROW 2A : ... .. . ... ... : ... .. . ... : ... .. . ... : ... .. . ... : ... .. . ...
ROW 2B : ... .. . ... ... : ... .. . ... : ... .. . ... : ... .. . ... : ... .. . ...
ROW 2C : ... .. . ... ... : ... .. . ... : ... .. . ... : ... .. . ... : ... .. . ...
ROW 2D : A-3 06 . ... ... : B-2 07 . ... : ... .. . ... : ... .. . ... : ... .. . ...
ROW 2E : ... .. . ... ... : ... .. . ... : ... .. . ... : ... .. . ... : ... .. . ...
ROW 2F : ... .. . ... ... : ... .. . ... : ... .. . ... : ... .. . ... : ... .. . ...
ROW 30 : ... .. . ... ... : ... .. . ... : ... .. . ... : ... .. . ... : C-3 00 . ...
ROW 31 : ... .. . ... ... : E-3 07 . ... : C-3 18 . ... : ... .. . ... : ... .. . ...
ROW 32 : ... .. . ... ... : ... .. . ... : ... .. . ... : ... .. . ... : ... .. . ...
ROW 33 : ... .. . ... ... : ... .. . ... : ... .. . ... : ... .. . ... : ... .. . ...
ROW 34 : ... .. . ... ... : ... .. . ... : ... .. . ... : ... .. . ... : ... .. . ...
ROW 35 : G-3 06 . ... ... : G-3 07 . ... : ... .. . ... : ... .. . ... : ... .. . ...
ROW 36 : ... .. . ... ... : ... .. . ... : ... .. . ... : ... .. . ... : ... .. . ...
ROW 37 : ... .. . ... ... : ... .. . ... : ... .. . ... : ... .. . ... : ... .. . ...
ROW 38 : ... .. . ... ... : ... .. . ... : ... .. . ... : ... .. . ... : D-3 00 . ...
ROW 39 : ... .. . ... ... : B-2 07 . ... : B-2 18 . ... : A-# 1B . ... : ... .. . ...
ROW 3A : ... .. . ... ... : ... .. . ... : ... .. . ... : ... .. . ... : ... .. . ...
ROW 3B : ... .. . ... ... : ... .. . ... : ... .. . ... : ... .. . ... : ... .. . ...
ROW 3C : ... .. . ... ... : ... .. . ... : ... .. . ... : ... .. . ... : ... .. . ...
ROW 3D : ... .. . ... ... : E-3 07 . ... : ... .. . ... : ... .. . ... : ... .. . ...
ROW 3E : ... .. . ... ... : ... .. . ... : ... .. . ... : ... .. . ... : ... .. . ...
ROW 3F : ... .. . ... ... : ... .. . ... : ... .. . ... : ... .. . ... : ... .. . ...
ROW 40 : ... .. . ... ... : ... .. . ... : ... .. . ... : ... .. . ... : C-3 00 . ...
ROW 41 : B-3 06 . ... ... : A-2 07 . ... : E-3 18 . ... : ... .. . ... : ... .. . ...
ROW 42 : ... .. . ... ... : ... .. . ... : ... .. . ... : ... .. . ... : ... .. . ...
ROW 43 : ... .. . ... ... : ... .. . ... : ... .. . ... : ... .. . ... : ... .. . ...
ROW 44 : ... .. . ... ... : ... .. . ... : ... .. . ... : ... .. . ... : ... .. . ...
ROW 45 : ... .. . ... ... : D-3 07 . ... : ... .. . ... : ... .. . ... : ... .. . ...
ROW 46 : ... .. . ... ... : ... .. . ... : ... .. . ... : ... .. . ... : ... .. . ...
ROW 47 : ... .. . ... ... : ... .. . ... : ... .. . ... : ... .. . ... : ... .. . ...
ROW 48 : ... .. . ... ... : ... .. . ... : ... .. . ... : ... .. . ... : D-3 00 . ...
ROW 49 : ... .. . ... ... : F#3 07 . ... : E-3 18 . ... : A-# 1B . ... : ... .. . ...
ROW 4A : ... .. . ... ... : ... .. . ... : ... .. . ... : ... .. . ... : ... .. . ...
ROW 4B : ... .. . ... ... : ... .. . ... : ... .. . ... : ... .. . ... : ... .. . ...
ROW 4C : ... .. . ... ... : ... .. . ... : ... .. . ... : ... .. . ... : C-3 00 . ...
ROW 4D : ... .. . ... ... : A-2 07 . ... : E-3 18 . ... : ... .. . ... : ... .. . ...
ROW 4E : ... .. . ... ... : ... .. . ... : ... .. . ... : ... .. . ... : ... .. . ...
ROW 4F : ... .. . ... ... : ... .. . ... : ... .. . ... : ... .. . ... : ... .. . ...
ROW 50 : ... .. . ... ... : ... .. . ... : ... .. . ... : ... .. . ... : ... .. . ...
ROW 51 : F#3 06 . ... ... : D-3 07 . ... : ... .. . ... : ... .. . ... : ... .. . ...
ROW 52 : ... .. . ... ... : ... .. . ... : ... .. . ... : ... .. . ... : ... .. . ...
ROW 53 : ... .. . ... ... : ... .. . ... : ... .. . ... : ... .. . ... : ... .. . ...
ROW 54 : ... .. . ... ... : ... .. . ... : ... .. . ... : ... .. . ... : C-3 00 . ...
ROW 55 : ... .. . ... ... : F#3 07 . ... : E-3 18 . ... : ... .. . ... : ... .. . ...
ROW 56 : ... .. . ... ... : ... .. . ... : ... .. . ... : ... .. . ... : ... .. . ...
ROW 57 : ... .. . ... ... : ... .. . ... : ... .. . ... : ... .. . ... : ... .. . ...
ROW 58 : ... .. . ... ... : ... .. . ... : ... .. . ... : ... .. . ... : D-3 00 . ...
ROW 59 : ... .. . ... ... : A-2 07 . ... : E-3 18 . ... : A-# 1B . ... : ... .. . ...
ROW 5A : ... .. . ... ... : ... .. . ... : ... .. . ... : ... .. . ... : ... .. . ...
ROW 5B : ... .. . ... ... : ... .. . ... : ... .. . ... : ... .. . ... : ... .. . ...
ROW 5C : ... .. . ... ... : ... .. . ... : ... .. . ... : ... .. . ... : ... .. . ...
ROW 5D : ... .. . ... ... : D-3 07 . ... : ... .. . ... : ... .. . ... : ... .. . ...
ROW 5E : ... .. . ... ... : ... .. . ... : ... .. . ... : ... .. . ... : ... .. . ...
ROW 5F : ... .. . ... ... : ... .. . ... : ... .. . ... : ... .. . ... : ... .. . ...
ROW 60 : ... .. . ... ... : ... .. . ... : ... .. . ... : ... .. . ... : C-3 00 . ...
ROW 61 : ... .. . ... ... : A-2 07 . ... : E-3 18 . ... : ... .. . ... : ... .. . ...
ROW 62 : ... .. . ... ... : ... .. . ... : ... .. . ... : ... .. . ... : ... .. . ...
ROW 63 : ... .. . ... ... : ... .. . ... : ... .. . ... : ... .. . ... : ... .. . ...
ROW 64 : ... .. . ... ... : ... .. . ... : ... .. . ... : ... .. . ... : ... .. . ...
ROW 65 : E-3 06 . ... ... : D-3 07 . ... : E-3 18 . ... : ... .. . ... : ... .. . ...
ROW 66 : ... .. . ... ... : ... .. . ... : ... .. . ... : ... .. . ... : ... .. . ...
ROW 67 : ... .. . ... ... : ... .. . ... : ... .. . ... : ... .. . ... : ... .. . ...
ROW 68 : ... .. . ... ... : ... .. . ... : ... .. . ... : ... .. . ... : D-3 00 . ...
ROW 69 : F#3 06 . ... ... : F#3 07 . ... : B-2 18 . ... : A-# 1B . ... : ... .. . ...
ROW 6A : ... .. . ... ... : ... .. . ... : ... .. . ... : ... .. . ... : ... .. . ...
ROW 6B : ... .. . ... ... : ... .. . ... : ... .. . ... : ... .. . ... : ... .. . ...
ROW 6C : ... .. . ... ... : ... .. . ... : ... .. . ... : ... .. . ... : C-3 00 . ...
ROW 6D : G-3 06 . ... ... : A-2 07 . ... : ... .. . ... : ... .. . ... : ... .. . ...
ROW 6E : ... .. . ... ... : ... .. . ... : ... .. . ... : ... .. . ... : ... .. . ...
ROW 6F : ... .. . ... ... : ... .. . ... : ... .. . ... : ... .. . ... : ... .. . ...
ROW 70 : ... .. . ... ... : ... .. . ... : ... .. . ... : ... .. . ... : ... .. . ...
ROW 71 : F#3 06 . ... ... : D-3 07 . ... : C-3 18 . ... : ... .. . ... : ... .. . ...
ROW 72 : ... .. . ... ... : ... .. . ... : ... .. . ... : ... .. . ... : ... .. . ...
ROW 73 : ... .. . ... ... : ... .. . ... : ... .. . ... : ... .. . ... : ... .. . ...
ROW 74 : ... .. . ... ... : ... .. . ... : ... .. . ... : ... .. . ... : C-3 00 . ...
ROW 75 : E-3 06 . ... ... : F#3 07 . ... : ... .. . ... : ... .. . ... : ... .. . ...
ROW 76 : ... .. . ... ... : ... .. . ... : ... .. . ... : ... .. . ... : ... .. . ...
ROW 77 : ... .. . ... ... : ... .. . ... : ... .. . ... : ... .. . ... : ... .. . ...
ROW 78 : ... .. . ... ... : ... .. . ... : ... .. . ... : ... .. . ... : D-3 00 . ...
ROW 79 : D-3 06 . ... ... : A-2 07 . ... : B-2 18 . ... : A-# 1B . ... : ... .. . ...
ROW 7A : ... .. . ... ... : ... .. . ... : ... .. . ... : ... .. . ... : ... .. . ...
ROW 7B : ... .. . ... ... : ... .. . ... : ... .. . ... : ... .. . ... : ... .. . ...
ROW 7C : ... .. . ... ... : ... .. . ... : ... .. . ... : ... .. . ... : ... .. . ...
ROW 7D : E-3 06 . ... ... : D-3 07 . ... : ... .. . ... : ... .. . ... : ... .. . ...
ROW 7E : ... .. . ... ... : ... .. . ... : ... .. . ... : ... .. . ... : ... .. . ...
ROW 7F : ... .. . ... ... : ... .. . ... : ... .. . ... : ... .. . ... : ... .. . ...

PATTERN 02
ROW 00 : ... .. . ... ... : ... .. . ... : ... .. . ... : ... .. . ... : C-3 00 . ...
ROW 01 : C-3 06 . ... ... : G-2 07 . ... : E-3 18 . ... : ... .. . ... : ... .. . ...
ROW 02 : ... .. . ... ... : ... .. . ... : ... .. . ... : ... .. . ... : ... .. . ...
ROW 03 : ... .. . ... ... : ... .. . ... : ... .. . ... : ... .. . ... : ... .. . ...
ROW 04 : ... .. . ... ... : ... .. . ... : ... .. . ... : ... .. . ... : ... .. . ...
ROW 05 : ... .. . ... ... : C-3 07 . ... : ... .. . ... : ... .. . ... : ... .. . ...
ROW 06 : ... .. . ... ... : ... .. . ... : ... .. . ... : ... .. . ... : ... .. . ...
ROW 07 : ... .. . ... ... : ... .. . ... : ... .. . ... : ... .. . ... : ... .. . ...
ROW 08 : ... .. . ... ... : ... .. . ... : ... .. . ... : ... .. . ... : D-3 00 . ...
ROW 09 : ... .. . ... ... : E-3 07 . ... : E-3 18 . ... : A-# 1B . ... : ... .. . ...
ROW 0A : ... .. . ... ... : ... .. . ... : ... .. . ... : ... .. . ... : ... .. . ...
ROW 0B : ... .. . ... ... : ... .. . ... : ... .. . ... : ... .. . ... : ... .. . ...
ROW 0C : ... .. . ... ... : ... .. . ... : ... .. . ... : ... .. . ... : C-3 00 . ...
ROW 0D : ... .. . ... ... : G-2 07 . ... : E-3 18 . ... : ... .. . ... : ... .. . ...
ROW 0E : ... .. . ... ... : ... .. . ... : ... .. . ... : ... .. . ... : ... .. . ...
ROW 0F : ... .. . ... ... : ... .. . ... : ... .. . ... : ... .. . ... : ... .. . ...
ROW 10 : ... .. . ... ... : ... .. . ... : ... .. . ... : ... .. . ... : ... .. . ...
ROW 11 : ... .. . ... ... : C-3 07 . ... : ... .. . ... : ... .. . ... : ... .. . ...
ROW 12 : ... .. . ... ... : ... .. . ... : ... .. . ... : ... .. . ... : ... .. . ...
ROW 13 : ... .. . ... ... : ... .. . ... : ... .. . ... : ... .. . ... : ... .. . ...
ROW 14 : ... .. . ... ... : ... .. . ... : ... .. . ... : ... .. . ... : C-3 00 . ...
ROW 15 : ... .. . ... ... : E-3 07 . ... : E-3 18 . ... : ... .. . ... : ... .. . ...
ROW 16 : ... .. . ... ... : ... .. . ... : ... .. . ... : ... .. . ... : ... .. . ...
ROW 17 : ... .. . ... ... : ... .. . ... : ... .. . ... : ... .. . ... : ... .. . ...
ROW 18 : ... .. . ... ... : ... .. . ... : ... .. . ... : ... .. . ... : D-3 00 . ...
ROW 19 : --- .. . ... ... : G-2 07 . ... : E-3 18 . ... : A-# 1B . ... : ... .. . ...
ROW 1A : ... .. . ... ... : ... .. . ... : ... .. . ... : ... .. . ... : ... .. . ...
ROW 1B : ... .. . ... ... : ... .. . ... : ... .. . ... : ... .. . ... : ... .. . ...
ROW 1C : ... .. . ... ... : ... .. . ... : ... .. . ... : ... .. . ... : ... .. . ...
ROW 1D : ... .. . ... ... : C-3 07 . ... : ... .. . ... : ... .. . ... : ... .. . ...
ROW 1E : ... .. . ... ... : ... .. . ... : ... .. . ... : ... .. . ... : ... .. . ...
ROW 1F : ... .. . ... ... : ... .. . ... : ... .. . ... : ... .. . ... : ... .. . ...
ROW 20 : ... .. . ... ... : ... .. . ... : ... .. . ... : ... .. . ... : C-3 00 . ...
ROW 21 : A-3 06 . ... ... : G-2 07 . ... : E-3 18 . ... : ... .. . ... : ... .. . ...
ROW 22 : ... .. . ... ... : ... .. . ... : ... .. . ... : ... .. . ... : ... .. . ...
ROW 23 : ... .. . ... ... : ... .. . ... : ... .. . ... : ... .. . ... : ... .. . ...
ROW 24 : ... .. . ... ... : ... .. . ... : ... .. . ... : ... .. . ... : C-3 00 . ...
ROW 25 : G-3 06 . ... ... : C-3 07 . ... : E-3 18 . ... : ... .. . ... : ... .. . ...
ROW 26 : ... .. . ... ... : ... .. . ... : ... .. . ... : ... .. . ... : ... .. . ...
ROW 27 : ... .. . ... ... : ... .. . ... : ... .. . ... : ... .. . ... : ... .. . ...
ROW 28 : ... .. . ... ... : ... .. . ... : ... .. . ... : ... .. . ... : D-3 00 . ...
ROW 29 : F#3 06 . ... ... : E-3 07 . ... : B-2 18 . ... : A-# 1B . ... : ... .. . ...
ROW 2A : ... .. . ... ... : ... .. . ... : ... .. . ... : ... .. . ... : ... .. . ...
ROW 2B : ... .. . ... ... : ... .. . ... : ... .. . ... : ... .. . ... : ... .. . ...
ROW 2C : ... .. . ... ... : ... .. . ... : ... .. . ... : ... .. . ... : C-3 00 . ...
ROW 2D : G-3 06 . ... ... : G-2 07 . ... : ... .. . ... : ... .. . ... : ... .. . ...
ROW 2E : ... .. . ... ... : ... .. . ... : ... .. . ... : ... .. . ... : ... .. . ...
ROW 2F : ... .. . ... ... : ... .. . ... : ... .. . ... : ... .. . ... : ... .. . ...
ROW 30 : ... .. . ... ... : ... .. . ... : ... .. . ... : ... .. . ... : ... .. . ...
ROW 31 : F#3 06 . ... ... : C-3 07 . ... : C-3 18 . ... : ... .. . ... : ... .. . ...
ROW 32 : ... .. . ... ... : ... .. . ... : ... .. . ... : ... .. . ... : ... .. . ...
ROW 33 : ... .. . ... ... : ... .. . ... : ... .. . ... : ... .. . ... : ... .. . ...
ROW 34 : ... .. . ... ... : ... .. . ... : ... .. . ... : ... .. . ... : C-3 00 . ...
ROW 35 : E-3 06 . ... ... : E-3 07 . ... : ... .. . ... : ... .. . ... : ... .. . ...
ROW 36 : ... .. . ... ... : ... .. . ... : ... .. . ... : ... .. . ... : ... .. . ...
ROW 37 : ... .. . ... ... : ... .. . ... : ... .. . ... : ... .. . ... : ... .. . ...
ROW 38 : ... .. . ... ... : ... .. . ... : ... .. . ... : ... .. . ... : D-3 00 . ...
ROW 39 : D#3 06 . ... ... : G-2 07 . ... : B-2 18 . ... : A-# 1B . ... : ... .. . ...
ROW 3A : ... .. . ... ... : ... .. . ... : ... .. . ... : ... .. . ... : ... .. . ...
ROW 3B : ... .. . ... ... : ... .. . ... : ... .. . ... : ... .. . ... : ... .. . ...
ROW 3C : ... .. . ... ... : ... .. . ... : ... .. . ... : ... .. . ... : D-3 00 . ...
ROW 3D : F#3 06 . ... ... : C-3 07 . ... : ... .. . ... : A-# 1B . ... : ... .. . ...
ROW 3E : ... .. . ... ... : ... .. . ... : ... .. . ... : ... .. . ... : ... .. . ...
ROW 3F : ... .. . ... ... : ... .. . ... : ... .. . ... : ... .. . ... : ... .. . ...
ROW 40 : ... .. . ... ... : ... .. . ... : ... .. . ... : ... .. . ... : C-3 00 . ...
ROW 41 : E-3 06 . ... ... : D#3 07 . ... : D#3 18 . ... : ... .. . ... : ... .. . ...
ROW 42 : ... .. . ... ... : ... .. . ... : ... .. . ... : ... .. . ... : ... .. . ...
ROW 43 : ... .. . ... ... : ... .. . ... : ... .. . ... : ... .. . ... : ... .. . ...
ROW 44 : ... .. . ... ... : ... .. . ... : ... .. . ... : ... .. . ... : ... .. . ...
ROW 45 : F#3 06 . ... ... : B-2 07 . ... : ... .. . ... : ... .. . ... : ... .. . ...
ROW 46 : ... .. . ... ... : ... .. . ... : ... .. . ... : ... .. . ... : ... .. . ...
ROW 47 : ... .. . ... ... : ... .. . ... : ... .. . ... : ... .. . ... : ... .. . ...
ROW 48 : ... .. . ... ... : ... .. . ... : ... .. . ... : ... .. . ... : D-3 00 . ...
ROW 49 : E-3 06 . ... ... : F#2 07 . ... : D#3 18 . ... : A-# 1B . ... : ... .. . ...
ROW 4A : ... .. . ... ... : ... .. . ... : ... .. . ... : ... .. . ... : ... .. . ...
ROW 4B : ... .. . ... ... : ... .. . ... : ... .. . ... : ... .. . ... : ... .. . ...
ROW 4C : ... .. . ... ... : ... .. . ... : ... .. . ... : ... .. . ... : C-3 00 . ...
ROW 4D : D#3 06 . ... ... : D#3 07 . ... : D#3 18 . ... : ... .. . ... : ... .. . ...
ROW 4E : ... .. . ... ... : ... .. . ... : ... .. . ... : ... .. . ... : ... .. . ...
ROW 4F : ... .. . ... ... : ... .. . ... : ... .. . ... : ... .. . ... : ... .. . ...
ROW 50 : ... .. . ... ... : ... .. . ... : ... .. . ... : ... .. . ... : ... .. . ...
ROW 51 : E-3 06 . ... ... : B-2 07 . ... : ... .. . ... : ... .. . ... : ... .. . ...
ROW 52 : ... .. . ... ... : ... .. . ... : ... .. . ... : ... .. . ... : ... .. . ...
ROW 53 : ... .. . ... ... : ... .. . ... : ... .. . ... : ... .. . ... : ... .. . ...
ROW 54 : ... .. . ... ... : ... .. . ... : ... .. . ... : ... .. . ... : C-3 00 . ...
ROW 55 : D#3 06 . ... ... : F#2 07 . ... : D#3 18 . ... : ... .. . ... : ... .. . ...
ROW 56 : ... .. . ... ... : ... .. . ... : ... .. . ... : ... .. . ... : ... .. . ...
ROW 57 : ... .. . ... ... : ... .. . ... : ... .. . ... : ... .. . ... : ... .. . ...
ROW 58 : ... .. . ... ... : ... .. . ... : ... .. . ... : ... .. . ... : D-3 00 . ...
ROW 59 : C-3 06 . ... ... : D#3 07 . ... : D#3 18 . ... : A-# 1B . ... : ... .. . ...
ROW 5A : ... .. . ... ... : ... .. . ... : ... .. . ... : ... .. . ... : ... .. . ...
ROW 5B : ... .. . ... ... : ... .. . ... : ... .. . ... : ... .. . ... : ... .. . ...
ROW 5C : ... .. . ... ... : ... .. . ... : ... .. . ... : ... .. . ... : ... .. . ...
ROW 5D : A-2 06 . ... ... : B-2 07 . ... : ... .. . ... : ... .. . ... : ... .. . ...
ROW 5E : ... .. . ... ... : ... .. . ... : ... .. . ... : ... .. . ... : ... .. . ...
ROW 5F : ... .. . ... ... : ... .. . ... : ... .. . ... : ... .. . ... : ... .. . ...
ROW 60 : ... .. . ... ... : ... .. . ... : ... .. . ... : ... .. . ... : C-3 00 . ...
ROW 61 : B-2 06 . ... ... : D#3 07 . ... : A-3 18 . ... : ... .. . ... : ... .. . ...
ROW 62 : ... .. . ... ... : ... .. . ... : ... .. . ... : ... .. . ... : ... .. . ...
ROW 63 : ... .. . ... ... : ... .. . ... : ... .. . ... : ... .. . ... : ... .. . ...
ROW 64 : ... .. . ... ... : ... .. . ... : ... .. . ... : ... .. . ... : ... .. . ...
ROW 65 : ... .. . ... ... : B-2 07 . ... : A-3 18 . ... : ... .. . ... : ... .. . ...
ROW 66 : ... .. . ... ... : ... .. . ... : ... .. . ... : ... .. . ... : ... .. . ...
ROW 67 : ... .. . ... ... : ... .. . ... : ... .. . ... : ... .. . ... : ... .. . ...
ROW 68 : ... .. . ... ... : ... .. . ... : ... .. . ... : ... .. . ... : D-3 00 . ...
ROW 69 : ... .. . ... ... : F#2 07 . ... : G-3 18 . ... : A-# 1B . ... : ... .. . ...
ROW 6A : ... .. . ... ... : ... .. . ... : ... .. . ... : ... .. . ... : ... .. . ...
ROW 6B : ... .. . ... ... : ... .. . ... : ... .. . ... : ... .. . ... : ... .. . ...
ROW 6C : ... .. . ... ... : ... .. . ... : ... .. . ... : ... .. . ... : ... .. . ...
ROW 6D : ... .. . ... ... : D#3 07 . ... : ... .. . ... : ... .. . ... : ... .. . ...
ROW 6E : ... .. . ... ... : ... .. . ... : ... .. . ... : ... .. . ... : ... .. . ...
ROW 6F : ... .. . ... ... : ... .. . ... : ... .. . ... : ... .. . ... : ... .. . ...
ROW 70 : ... .. . ... ... : ... .. . ... : ... .. . ... : ... .. . ... : C-3 00 . ...
ROW 71 : ... .. . ... ... : B-2 07 . ... : F#3 18 . ... : ... .. . ... : ... .. . ...
ROW 72 : ... .. . ... ... : ... .. . ... : ... .. . ... : ... .. . ... : ... .. . ...
ROW 73 : ... .. . ... ... : ... .. . ... : ... .. . ... : ... .. . ... : ... .. . ...
ROW 74 : ... .. . ... ... : ... .. . ... : ... .. . ... : ... .. . ... : ... .. . ...
ROW 75 : ... .. . ... ... : F#2 07 . ... : ... .. . ... : ... .. . ... : ... .. . ...
ROW 76 : ... .. . ... ... : ... .. . ... : ... .. . ... : ... .. . ... : ... .. . ...
ROW 77 : ... .. . ... ... : ... .. . ... : ... .. . ... : ... .. . ... : ... .. . ...
ROW 78 : ... .. . ... ... : ... .. . ... : ... .. . ... : ... .. . ... : D-3 00 . ...
ROW 79 : ... .. . ... ... : D#3 07 . ... : D#3 18 . ... : A-# 1B . ... : ... .. . ...
ROW 7A : ... .. . ... ... : ... .. . ... : ... .. . ... : ... .. . ... : ... .. . ...
ROW 7B : ... .. . ... ... : ... .. . ... : ... .. . ... : ... .. . ... : ... .. . ...
ROW 7C : ... .. . ... ... : ... .. . ... : ... .. . ... : ... .. . ... : C-3 00 . ...
ROW 7D : ... .. . ... ... : B-2 07 . ... : ... .. . ... : ... .. . ... : ... .. . ...
ROW 7E : ... .. . ... ... : ... .. . ... : ... .. . ... : ... .. . ... : ... .. . ...
ROW 7F : ... .. . ... ... : ... .. . ... : ... .. . ... : ... .. . ... : ... .. . ...

PATTERN 03
ROW 00 : ... .. . ... ... : ... .. . ... : ... .. . ... : ... .. . ... : C-3 00 . ...
ROW 01 : G-2 06 . ... ... : E-3 07 . ... : E-3 18 . ... : ... .. . ... : ... .. . ...
ROW 02 : ... .. . ... ... : ... .. . ... : ... .. . ... : ... .. . ... : ... .. . ...
ROW 03 : ... .. . ... ... : ... .. . ... : ... .. . ... : ... .. . ... : ... .. . ...
ROW 04 : ... .. . ... ... : ... .. . ... : ... .. . ... : ... .. . ... : ... .. . ...
ROW 05 : F#2 06 . ... ... : B-2 07 . ... : ... .. . ... : ... .. . ... : ... .. . ...
ROW 06 : ... .. . ... ... : ... .. . ... : ... .. . ... : ... .. . ... : ... .. . ...
ROW 07 : ... .. . ... ... : ... .. . ... : ... .. . ... : ... .. . ... : ... .. . ...
ROW 08 : ... .. . ... ... : ... .. . ... : ... .. . ... : ... .. . ... : D-3 00 . ...
ROW 09 : E-2 06 . ... ... : G-2 07 . ... : E-3 18 . ... : A-# 1B . ... : ... .. . ...
ROW 0A : ... .. . ... ... : ... .. . ... : ... .. . ... : ... .. . ... : ... .. . ...
ROW 0B : ... .. . ... ... : ... .. . ... : ... .. . ... : ... .. . ... : ... .. . ...
ROW 0C : ... .. . ... ... : ... .. . ... : ... .. . ... : ... .. . ... : C-3 00 . ...
ROW 0D : ... .. . ... ... : E-3 07 . ... : E-3 18 . ... : ... .. . ... : ... .. . ...
ROW 0E : ... .. . ... ... : ... .. . ... : ... .. . ... : ... .. . ... : ... .. . ...
ROW 0F : ... .. . ... ... : ... .. . ... : ... .. . ... : ... .. . ... : ... .. . ...
ROW 10 : ... .. . ... ... : ... .. . ... : ... .. . ... : ... .. . ... : ... .. . ...
ROW 11 : ... .. . ... ... : B-2 07 . ... : ... .. . ... : ... .. . ... : ... .. . ...
ROW 12 : ... .. . ... ... : ... .. . ... : ... .. . ... : ... .. . ... : ... .. . ...
ROW 13 : ... .. . ... ... : ... .. . ... : ... .. . ... : ... .. . ... : ... .. . ...
ROW 14 : ... .. . ... ... : ... .. . ... : ... .. . ... : ... .. . ... : C-3 00 . ...
ROW 15 : ... .. . ... ... : G-2 07 . ... : E-3 18 . ... : ... .. . ... : ... .. . ...
ROW 16 : ... .. . ... ... : ... .. . ... : ... .. . ... : ... .. . ... : ... .. . ...
ROW 17 : ... .. . ... ... : ... .. . ... : ... .. . ... : ... .. . ... : ... .. . ...
ROW 18 : ... .. . ... ... : ... .. . ... : ... .. . ... : ... .. . ... : D-3 00 . ...
ROW 19 : ... .. . ... ... : E-3 07 . ... : E-3 18 . ... : A-# 1B . ... : ... .. . ...
ROW 1A : ... .. . ... ... : ... .. . ... : ... .. . ... : ... .. . ... : ... .. . ...
ROW 1B : ... .. . ... ... : ... .. . ... : ... .. . ... : ... .. . ... : ... .. . ...
ROW 1C : ... .. . ... ... : ... .. . ... : ... .. . ... : ... .. . ... : ... .. . ...
ROW 1D : ... .. . ... ... : B-2 07 . ... : ... .. . ... : ... .. . ... : ... .. . ...
ROW 1E : ... .. . ... ... : ... .. . ... : ... .. . ... : ... .. . ... : ... .. . ...
ROW 1F : ... .. . ... ... : ... .. . ... : ... .. . ... : ... .. . ... : ... .. . ...
ROW 20 : ... .. . ... ... : ... .. . ... : ... .. . ... : ... .. . ... : C-3 00 . ...
ROW 21 : --- .. . ... ... : E-3 07 . ... : E-3 18 . ... : ... .. . ... : ... .. . ...
ROW 22 : ... .. . ... ... : ... .. . ... : ... .. . ... : ... .. . ... : ... .. . ...
ROW 23 : ... .. . ... ... : ... .. . ... : ... .. . ... : ... .. . ... : ... .. . ...
ROW 24 : ... .. . ... ... : ... .. . ... : ... .. . ... : ... .. . ... : ... .. . ...
ROW 25 : E-2 06 . ... ... : B-2 07 . ... : E-3 18 . ... : ... .. . ... : ... .. . ...
ROW 26 : ... .. . ... ... : ... .. . ... : ... .. . ... : ... .. . ... : ... .. . ...
ROW 27 : ... .. . ... ... : ... .. . ... : ... .. . ... : ... .. . ... : ... .. . ...
ROW 28 : ... .. . ... ... : ... .. . ... : ... .. . ... : ... .. . ... : D-3 00 . ...
ROW 29 : G-2 06 . ... ... : G-2 07 . ... : B-2 18 . ... : A-# 1B . ... : ... .. . ...
ROW 2A : ... .. . ... ... : ... .. . ... : ... .. . ... : ... .. . ... : ... .. . ...
ROW 2B : ... .. . ... ... : ... .. . ... : ... .. . ... : ... .. . ... : ... .. . ...
ROW 2C : ... .. . ... ... : ... .. . ... : ... .. . ... : ... .. . ... : C-3 00 . ...
ROW 2D : B-2 06 . ... ... : E-3 07 . ... : ... .. . ... : ... .. . ... : ... .. . ...
ROW 2E : ... .. . ... ... : ... .. . ... : ... .. . ... : ... .. . ... : ... .. . ...
ROW 2F : ... .. . ... ... : ... .. . ... : ... .. . ... : ... .. . ... : ... .. . ...
ROW 30 : ... .. . ... ... : ... .. . ... : ... .. . ... : ... .. . ... : ... .. . ...
ROW 31 : E-3 06 . ... ... : B-2 07 . ... : C-3 18 . ... : ... .. . ... : ... .. . ...
ROW 32 : ... .. . ... ... : ... .. . ... : ... .. . ... : ... .. . ... : ... .. . ...
ROW 33 : ... .. . ... ... : ... .. . ... : ... .. . ... : ... .. . ... : ... .. . ...
ROW 34 : ... .. . ... ... : ... .. . ... : ... .. . ... : ... .. . ... : C-3 00 . ...
ROW 35 : B-2 06 . ... ... : G-2 07 . ... : ... .. . ... : ... .. . ... : ... .. . ...
ROW 36 : ... .. . ... ... : ... .. . ... : ... .. . ... : ... .. . ... : ... .. . ...
ROW 37 : ... .. . ... ... : ... .. . ... : ... .. . ... : ... .. . ... : ... .. . ...
ROW 38 : ... .. . ... ... : ... .. . ... : ... .. . ... : ... .. . ... : D-3 00 . ...
ROW 39 : F#3 06 . ... ... : E-3 07 . ... : B-2 18 . ... : A-# 1B . ... : ... .. . ...
ROW 3A : ... .. . ... ... : ... .. . ... : ... .. . ... : ... .. . ... : ... .. . ...
ROW 3B : ... .. . ... ... : ... .. . ... : ... .. . ... : ... .. . ... : ... .. . ...
ROW 3C : ... .. . ... ... : ... .. . ... : ... .. . ... : ... .. . ... : C-3 00 . ...
ROW 3D : B-2 06 . ... ... : B-2 07 . ... : ... .. . ... : ... .. . ... : ... .. . ...
ROW 3E : ... .. . ... ... : ... .. . ... : ... .. . ... : ... .. . ... : ... .. . ...
ROW 3F : ... .. . ... ... : ... .. . ... : ... .. . ... : ... .. . ... : ... .. . ...
ROW 40 : ... .. . ... ... : ... .. . ... : ... .. . ... : ... .. . ... : C-3 00 . ...
ROW 41 : G-3 06 . ... ... : D#3 07 . ... : E-3 18 . ... : ... .. . ... : ... .. . ...
ROW 42 : ... .. . ... ... : ... .. . ... : ... .. . ... : ... .. . ... : ... .. . ...
ROW 43 : ... .. . ... ... : ... .. . ... : ... .. . ... : ... .. . ... : ... .. . ...
ROW 44 : ... .. . ... ... : ... .. . ... : ... .. . ... : ... .. . ... : ... .. . ...
ROW 45 : B-2 06 . ... ... : B-2 07 . ... : ... .. . ... : ... .. . ... : ... .. . ...
ROW 46 : ... .. . ... ... : ... .. . ... : ... .. . ... : ... .. . ... : ... .. . ...
ROW 47 : ... .. . ... ... : ... .. . ... : ... .. . ... : ... .. . ... : ... .. . ...
ROW 48 : ... .. . ... ... : ... .. . ... : ... .. . ... : ... .. . ... : D-3 00 . ...
ROW 49 : A-3 06 . ... ... : G-2 07 . ... : E-3 18 . ... : A-# 1B . ... : ... .. . ...
ROW 4A : ... .. . ... ... : ... .. . ... : ... .. . ... : ... .. . ... : ... .. . ...
ROW 4B : ... .. . ... ... : ... .. . ... : ... .. . ... : ... .. . ... : ... .. . ...
ROW 4C : ... .. . ... ... : ... .. . ... : ... .. . ... : ... .. . ... : C-3 00 . ...
ROW 4D : B-2 06 . ... ... : D#3 07 . ... : E-3 18 . ... : ... .. . ... : ... .. . ...
ROW 4E : ... .. . ... ... : ... .. . ... : ... .. . ... : ... .. . ... : ... .. . ...
ROW 4F : ... .. . ... ... : ... .. . ... : ... .. . ... : ... .. . ... : ... .. . ...
ROW 50 : ... .. . ... ... : ... .. . ... : ... .. . ... : ... .. . ... : ... .. . ...
ROW 51 : G-3 06 . ... ... : B-2 07 . ... : ... .. . ... : ... .. . ... : ... .. . ...
ROW 52 : ... .. . ... ... : ... .. . ... : ... .. . ... : ... .. . ... : ... .. . ...
ROW 53 : ... .. . ... ... : ... .. . ... : ... .. . ... : ... .. . ... : ... .. . ...
ROW 54 : ... .. . ... ... : ... .. . ... : ... .. . ... : ... .. . ... : C-3 00 . ...
ROW 55 : B-2 06 . ... ... : G-2 07 . ... : E-3 18 . ... : ... .. . ... : ... .. . ...
ROW 56 : ... .. . ... ... : ... .. . ... : ... .. . ... : ... .. . ... : ... .. . ...
ROW 57 : ... .. . ... ... : ... .. . ... : ... .. . ... : ... .. . ... : ... .. . ...
ROW 58 : ... .. . ... ... : ... .. . ... : ... .. . ... : ... .. . ... : D-3 00 . ...
ROW 59 : F#3 06 . ... ... : D#3 07 . ... : E-3 18 . ... : A-# 1B . ... : ... .. . ...
ROW 5A : ... .. . ... ... : ... .. . ... : ... .. . ... : ... .. . ... : ... .. . ...
ROW 5B : ... .. . ... ... : ... .. . ... : ... .. . ... : ... .. . ... : ... .. . ...
ROW 5C : ... .. . ... ... : ... .. . ... : ... .. . ... : ... .. . ... : ... .. . ...
ROW 5D : B-2 06 . ... ... : B-2 07 . ... : ... .. . ... : ... .. . ... : ... .. . ...
ROW 5E : ... .. . ... ... : ... .. . ... : ... .. . ... : ... .. . ... : ... .. . ...
ROW 5F : ... .. . ... ... : ... .. . ... : ... .. . ... : ... .. . ... : ... .. . ...
ROW 60 : ... .. . ... ... : ... .. . ... : ... .. . ... : ... .. . ... : C-3 00 . ...
ROW 61 : G-3 06 . ... ... : D#3 07 . ... : E-3 18 . ... : ... .. . ... : ... .. . ...
ROW 62 : ... .. . ... ... : ... .. . ... : ... .. . ... : ... .. . ... : ... .. . ...
ROW 63 : ... .. . ... ... : ... .. . ... : ... .. . ... : ... .. . ... : ... .. . ...
ROW 64 : ... .. . ... ... : ... .. . ... : ... .. . ... : ... .. . ... : C-3 00 . ...
ROW 65 : B-2 06 . ... ... : B-2 07 . ... : E-3 18 . ... : ... .. . ... : ... .. . ...
ROW 66 : ... .. . ... ... : ... .. . ... : ... .. . ... : ... .. . ... : ... .. . ...
ROW 67 : ... .. . ... ... : ... .. . ... : ... .. . ... : ... .. . ... : ... .. . ...
ROW 68 : ... .. . ... ... : ... .. . ... : ... .. . ... : ... .. . ... : D-3 00 . ...
ROW 69 : F#3 06 . ... ... : G-2 07 . ... : B-2 18 . ... : A-# 1B . ... : ... .. . ...
ROW 6A : ... .. . ... ... : ... .. . ... : ... .. . ... : ... .. . ... : ... .. . ...
ROW 6B : ... .. . ... ... : ... .. . ... : ... .. . ... : ... .. . ... : ... .. . ...
ROW 6C : ... .. . ... ... : ... .. . ... : ... .. . ... : ... .. . ... : E-3 00 . W0A
ROW 6D : B-2 06 . ... ... : D#3 07 . ... : ... .. . ... : ... .. . ... : ... .. . ...
ROW 6E : ... .. . ... ... : ... .. . ... : ... .. . ... : ... .. . ... : ... .. . ...
ROW 6F : ... .. . ... ... : ... .. . ... : ... .. . ... : ... .. . ... : ... .. . ...
ROW 70 : ... .. . ... ... : ... .. . ... : ... .. . ... : ... .. . ... : E-3 00 . W09
ROW 71 : E-3 06 . ... ... : B-2 07 . ... : C-3 18 . ... : ... .. . ... : ... .. . ...
ROW 72 : ... .. . ... ... : ... .. . ... : ... .. . ... : ... .. . ... : ... .. . ...
ROW 73 : ... .. . ... ... : ... .. . ... : ... .. . ... : ... .. . ... : ... .. . ...
ROW 74 : ... .. . ... ... : ... .. . ... : ... .. . ... : ... .. . ... : E-3 00 . W08
ROW 75 : B-2 06 . ... ... : G-2 07 . ... : ... .. . ... : ... .. . ... : ... .. . ...
ROW 76 : ... .. . ... ... : ... .. . ... : ... .. . ... : ... .. . ... : ... .. . ...
ROW 77 : ... .. . ... ... : ... .. . ... : ... .. . ... : ... .. . ... : ... .. . ...
ROW 78 : ... .. . ... ... : ... .. . ... : ... .. . ... : ... .. . ... : D-3 00 . ...
ROW 79 : D-3 06 . ... ... : D#3 07 . ... : B-2 18 . ... : A-# 1B . ... : ... .. . ...
ROW 7A : ... .. . ... ... : ... .. . ... : ... .. . ... : ... .. . ... : ... .. . ...
ROW 7B : ... .. . ... ... : ... .. . ... : ... .. . ... : ... .. . ... : ... .. . ...
ROW 7C : ... .. . ... ... : ... .. . ... : ... .. . ... : ... .. . ... : D-3 00 . ...
ROW 7D : B-2 06 . ... ... : B-2 07 . ... : ... .. . ... : A-# 1B . ... : ... .. . ...
ROW 7E : ... .. . ... ... : ... .. . ... : ... .. . ... : ... .. . ... : ... .. . ...
ROW 7F : ... .. . ... ... : ... .. . ... : ... .. . ... : ... .. . ... : ... .. . ...

PATTERN 04
ROW 00 : ... .. . ... ... : ... .. . ... : ... .. . ... : ... .. . ... : C-3 00 . ...
ROW 01 : E-3 06 . ... ... : D-3 07 . ... : E-3 18 . ... : ... .. . ... : ... .. . ...
ROW 02 : ... .. . ... ... : ... .. . ... : ... .. . ... : ... .. . ... : ... .. . ...
ROW 03 : ... .. . ... ... : ... .. . ... : ... .. . ... : ... .. . ... : ... .. . ...
ROW 04 : ... .. . ... ... : ... .. . ... : ... .. . ... : ... .. . ... : ... .. . ...
ROW 05 : G-3 06 . ... ... : B-2 07 . ... : ... .. . ... : ... .. . ... : ... .. . ...
ROW 06 : ... .. . ... ... : ... .. . ... : ... .. . ... : ... .. . ... : ... .. . ...
ROW 07 : ... .. . ... ... : ... .. . ... : ... .. . ... : ... .. . ... : ... .. . ...
ROW 08 : ... .. . ... ... : ... .. . ... : ... .. . ... : ... .. . ... : D-3 00 . ...
ROW 09 : B-3 06 . ... ... : G-2 07 . ... : E-3 18 . ... : A-# 1B . ... : ... .. . ...
ROW 0A : ... .. . ... ... : ... .. . ... : ... .. . ... : ... .. . ... : ... .. . ...
ROW 0B : ... .. . ... ... : ... .. . ... : ... .. . ... : ... .. . ... : ... .. . ...
ROW 0C : ... .. . ... ... : ... .. . ... : ... .. . ... : ... .. . ... : C-3 00 . ...
ROW 0D : ... .. . ... ... : D-3 07 . ... : E-3 18 . ... : ... .. . ... : ... .. . ...
ROW 0E : ... .. . ... ... : ... .. . ... : ... .. . ... : ... .. . ... : ... .. . ...
ROW 0F : ... .. . ... ... : ... .. . ... : ... .. . ... : ... .. . ... : ... .. . ...
ROW 10 : ... .. . ... ... : ... .. . ... : ... .. . ... : ... .. . ... : ... .. . ...
ROW 11 : ... .. . ... ... : B-2 07 . ... : ... .. . ... : ... .. . ... : ... .. . ...
ROW 12 : ... .. . ... ... : ... .. . ... : ... .. . ... : ... .. . ... : ... .. . ...
ROW 13 : ... .. . ... ... : ... .. . ... : ... .. . ... : ... .. . ... : ... .. . ...
ROW 14 : ... .. . ... ... : ... .. . ... : ... .. . ... : ... .. . ... : C-3 00 . ...
ROW 15 : ... .. . ... ... : G-2 07 . ... : E-3 18 . ... : ... .. . ... : ... .. . ...
ROW 16 : ... .. . ... ... : ... .. . ... : ... .. . ... : ... .. . ... : ... .. . ...
ROW 17 : ... .. . ... ... : ... .. . ... : ... .. . ... : ... .. . ... : ... .. . ...
ROW 18 : ... .. . ... ... : ... .. . ... : ... .. . ... : ... .. . ... : D-3 00 . ...
ROW 19 : A-3 06 . ... ... : D-3 07 . ... : E-3 18 . ... : A-# 1B . ... : ... .. . ...
ROW 1A : ... .. . ... ... : ... .. . ... : ... .. . ... : ... .. . ... : ... .. . ...
ROW 1B : ... .. . ... ... : ... .. . ... : ... .. . ... : ... .. . ... : ... .. . ...
ROW 1C : ... .. . ... ... : ... .. . ... : ... .. . ... : ... .. . ... : ... .. . ...
ROW 1D : ... .. . ... ... : B-2 07 . ... : ... .. . ... : ... .. . ... : ... .. . ...
ROW 1E : ... .. . ... ... : ... .. . ... : ... .. . ... : ... .. . ... : ... .. . ...
ROW 1F : ... .. . ... ... : ... .. . ... : ... .. . ... : ... .. . ... : ... .. . ...
ROW 20 : ... .. . ... ... : ... .. . ... : ... .. . ... : ... .. . ... : C-3 00 . ...
ROW 21 : G-3 06 . ... ... : D-3 07 . ... : E-3 18 . ... : ... .. . ... : ... .. . ...
ROW 22 : ... .. . ... ... : ... .. . ... : ... .. . ... : ... .. . ... : ... .. . ...
ROW 23 : ... .. . ... ... : ... .. . ... : ... .. . ... : ... .. . ... : ... .. . ...
ROW 24 : ... .. . ... ... : ... .. . ... : ... .. . ... : ... .. . ... : ... .. . ...
ROW 25 : ... .. . ... ... : B-2 07 . ... : E-3 18 . ... : ... .. . ... : ... .. . ...
ROW 26 : ... .. . ... ... : ... .. . ... : ... .. . ... : ... .. . ... : ... .. . ...
ROW 27 : ... .. . ... ... : ... .. . ... : ... .. . ... : ... .. . ... : ... .. . ...
ROW 28 : ... .. . ... ... : ... .. . ... : ... .. . ... : ... .. . ... : D-3 00 . ...
ROW 29 : F#3 06 . ... ... : G-2 07 . ... : B-2 18 . ... : A-# 1B . ... : ... .. . ...
ROW 2A : ... .. . ... ... : ... .. . ... : ... .. . ... : ... .. . ... : ... .. . ...
ROW 2B : ... .. . ... ... : ... .. . ... : ... .. . ... : ... .. . ... : ... .. . ...
ROW 2C : ... .. . ... ... : ... .. . ... : ... .. . ... : ... .. . ... : ... .. . ...
ROW 2D : ... .. . ... ... : D-3 07 . ... : ... .. . ... : ... .. . ... : ... .. . ...
ROW 2E : ... .. . ... ... : ... .. . ... : ... .. . ... : ... .. . ... : ... .. . ...
ROW 2F : ... .. . ... ... : ... .. . ... : ... .. . ... : ... .. . ... : ... .. . ...
ROW 30 : ... .. . ... ... : ... .. . ... : ... .. . ... : ... .. . ... : C-3 00 . ...
ROW 31 : G-3 06 . ... ... : B-2 07 . ... : C-3 18 . ... : ... .. . ... : ... .. . ...
ROW 32 : ... .. . ... ... : ... .. . ... : ... .. . ... : ... .. . ... : ... .. . ...
ROW 33 : ... .. . ... ... : ... .. . ... : ... .. . ... : ... .. . ... : ... .. . ...
ROW 34 : ... .. . ... ... : ... .. . ... : ... .. . ... : ... .. . ... : ... .. . ...
ROW 35 : ... .. . ... ... : G-2 07 . ... : ... .. . ... : ... .. . ... : ... .. . ...
ROW 36 : ... .. . ... ... : ... .. . ... : ... .. . ... : ... .. . ... : ... .. . ...
ROW 37 : ... .. . ... ... : ... .. . ... : ... .. . ... : ... .. . ... : ... .. . ...
ROW 38 : ... .. . ... ... : ... .. . ... : ... .. . ... : ... .. . ... : D-3 00 . ...
ROW 39 : F#3 06 . ... ... : D-3 07 . ... : B-2 18 . ... : A-# 1B . ... : ... .. . ...
ROW 3A : ... .. . ... ... : ... .. . ... : ... .. . ... : ... .. . ... : ... .. . ...
ROW 3B : ... .. . ... ... : ... .. . ... : ... .. . ... : ... .. . ... : ... .. . ...
ROW 3C : ... .. . ... ... : ... .. . ... : ... .. . ... : ... .. . ... : ... .. . ...
ROW 3D : ... .. . ... ... : B-2 07 . ... : ... .. . ... : ... .. . ... : ... .. . ...
ROW 3E : ... .. . ... ... : ... .. . ... : ... .. . ... : ... .. . ... : ... .. . ...
ROW 3F : ... .. . ... ... : ... .. . ... : ... .. . ... : ... .. . ... : ... .. . ...
ROW 40 : ... .. . ... ... : ... .. . ... : ... .. . ... : ... .. . ... : C-3 00 . ...
ROW 41 : E-3 06 . ... ... : C#3 07 . ... : C#3 18 . ... : ... .. . ... : ... .. . ...
ROW 42 : ... .. . ... ... : ... .. . ... : ... .. . ... : ... .. . ... : ... .. . ...
ROW 43 : ... .. . ... ... : ... .. . ... : ... .. . ... : ... .. . ... : ... .. . ...
ROW 44 : ... .. . ... ... : ... .. . ... : ... .. . ... : ... .. . ... : ... .. . ...
ROW 45 : ... .. . ... ... : A-2 07 . ... : ... .. . ... : ... .. . ... : ... .. . ...
ROW 46 : ... .. . ... ... : ... .. . ... : ... .. . ... : ... .. . ... : ... .. . ...
ROW 47 : ... .. . ... ... : ... .. . ... : ... .. . ... : ... .. . ... : ... .. . ...
ROW 48 : ... .. . ... ... : ... .. . ... : ... .. . ... : ... .. . ... : D-3 00 . ...
ROW 49 : ... .. . ... ... : E-2 07 . ... : C#3 18 . ... : A-# 1B . ... : ... .. . ...
ROW 4A : ... .. . ... ... : ... .. . ... : ... .. . ... : ... .. . ... : ... .. . ...
ROW 4B : ... .. . ... ... : ... .. . ... : ... .. . ... : ... .. . ... : ... .. . ...
ROW 4C : ... .. . ... ... : ... .. . ... : ... .. . ... : ... .. . ... : C-3 00 . ...
ROW 4D : ... .. . ... ... : C#3 07 . ... : C#3 18 . ... : ... .. . ... : ... .. . ...
ROW 4E : ... .. . ... ... : ... .. . ... : ... .. . ... : ... .. . ... : ... .. . ...
ROW 4F : ... .. . ... ... : ... .. . ... : ... .. . ... : ... .. . ... : ... .. . ...
ROW 50 : ... .. . ... ... : ... .. . ... : ... .. . ... : ... .. . ... : ... .. . ...
ROW 51 : D-3 06 . ... ... : A-2 07 . ... : ... .. . ... : ... .. . ... : ... .. . ...
ROW 52 : ... .. . ... ... : ... .. . ... : ... .. . ... : ... .. . ... : ... .. . ...
ROW 53 : ... .. . ... ... : ... .. . ... : ... .. . ... : ... .. . ... : ... .. . ...
ROW 54 : ... .. . ... ... : ... .. . ... : ... .. . ... : ... .. . ... : C-3 00 . ...
ROW 55 : ... .. . ... ... : E-2 07 . ... : C#3 18 . ... : ... .. . ... : ... .. . ...
ROW 56 : ... .. . ... ... : ... .. . ... : ... .. . ... : ... .. . ... : ... .. . ...
ROW 57 : ... .. . ... ... : ... .. . ... : ... .. . ... : ... .. . ... : ... .. . ...
ROW 58 : ... .. . ... ... : ... .. . ... : ... .. . ... : ... .. . ... : D-3 00 . ...
ROW 59 : ... .. . ... ... : C#3 07 . ... : C#3 18 . ... : A-# 1B . ... : ... .. . ...
ROW 5A : ... .. . ... ... : ... .. . ... : ... .. . ... : ... .. . ... : ... .. . ...
ROW 5B : ... .. . ... ... : ... .. . ... : ... .. . ... : ... .. . ... : ... .. . ...
ROW 5C : ... .. . ... ... : ... .. . ... : ... .. . ... : ... .. . ... : ... .. . ...
ROW 5D : ... .. . ... ... : A-2 07 . ... : ... .. . ... : ... .. . ... : ... .. . ...
ROW 5E : ... .. . ... ... : ... .. . ... : ... .. . ... : ... .. . ... : ... .. . ...
ROW 5F : ... .. . ... ... : ... .. . ... : ... .. . ... : ... .. . ... : ... .. . ...
ROW 60 : ... .. . ... ... : ... .. . ... : ... .. . ... : ... .. . ... : C-3 00 . ...
ROW 61 : E-3 06 . ... ... : E-2 07 . ... : C#3 18 . ... : ... .. . ... : ... .. . ...
ROW 62 : ... .. . ... ... : ... .. . ... : ... .. . ... : ... .. . ... : ... .. . ...
ROW 63 : ... .. . ... ... : ... .. . ... : ... .. . ... : ... .. . ... : ... .. . ...
ROW 64 : ... .. . ... ... : ... .. . ... : ... .. . ... : ... .. . ... : ... .. . ...
ROW 65 : ... .. . ... ... : C#3 07 . ... : C#3 18 . ... : ... .. . ... : ... .. . ...
ROW 66 : ... .. . ... ... : ... .. . ... : ... .. . ... : ... .. . ... : ... .. . ...
ROW 67 : ... .. . ... ... : ... .. . ... : ... .. . ... : ... .. . ... : ... .. . ...
ROW 68 : ... .. . ... ... : ... .. . ... : ... .. . ... : ... .. . ... : D-3 00 . ...
ROW 69 : ... .. . ... ... : A-2 07 . ... : A-2 18 . ... : A-# 1B . ... : ... .. . ...
ROW 6A : ... .. . ... ... : ... .. . ... : ... .. . ... : ... .. . ... : ... .. . ...
ROW 6B : ... .. . ... ... : ... .. . ... : ... .. . ... : ... .. . ... : ... .. . ...
ROW 6C : ... .. . ... ... : ... .. . ... : ... .. . ... : ... .. . ... : C-3 00 . ...
ROW 6D : ... .. . ... ... : E-2 07 . ... : A-2 18 . ... : ... .. . ... : ... .. . ...
ROW 6E : ... .. . ... ... : ... .. . ... : ... .. . ... : ... .. . ... : ... .. . ...
ROW 6F : ... .. . ... ... : ... .. . ... : ... .. . ... : ... .. . ... : ... .. . ...
ROW 70 : ... .. . ... ... : ... .. . ... : ... .. . ... : ... .. . ... : ... .. . ...
ROW 71 : F#3 06 . ... ... : C#3 07 . ... : B-2 18 . ... : ... .. . ... : ... .. . ...
ROW 72 : ... .. . ... ... : ... .. . ... : ... .. . ... : ... .. . ... : ... .. . ...
ROW 73 : ... .. . ... ... : ... .. . ... : ... .. . ... : ... .. . ... : ... .. . ...
ROW 74 : ... .. . ... ... : ... .. . ... : ... .. . ... : ... .. . ... : C-3 00 . ...
ROW 75 : ... .. . ... ... : A-2 07 . ... : B-2 18 . ... : ... .. . ... : ... .. . ...
ROW 76 : ... .. . ... ... : ... .. . ... : ... .. . ... : ... .. . ... : ... .. . ...
ROW 77 : ... .. . ... ... : ... .. . ... : ... .. . ... : ... .. . ... : ... .. . ...
ROW 78 : ... .. . ... ... : ... .. . ... : ... .. . ... : ... .. . ... : D-3 00 . ...
ROW 79 : ... .. . ... ... : E-2 07 . ... : A-2 18 . ... : A-# 1B . ... : ... .. . ...
ROW 7A : ... .. . ... ... : ... .. . ... : ... .. . ... : ... .. . ... : ... .. . ...
ROW 7B : ... .. . ... ... : ... .. . ... : ... .. . ... : ... .. . ... : ... .. . ...
ROW 7C : ... .. . ... ... : ... .. . ... : ... .. . ... : ... .. . ... : ... .. . ...
ROW 7D : ... .. . ... ... : C#3 07 . ... : A-2 18 . ... : ... .. . ... : ... .. . ...
ROW 7E : ... .. . ... ... : ... .. . ... : ... .. . ... : ... .. . ... : ... .. . ...
ROW 7F : ... .. . ... ... : ... .. . ... : ... .. . ... : ... .. . ... : ... .. . ...

PATTERN 05
ROW 00 : ... .. . ... ... : ... .. . ... : ... .. . ... : ... .. . ... : C-3 00 . ...
ROW 01 : A-3 06 . ... ... : D-3 07 . ... : F#3 18 . ... : ... .. . ... : ... .. . ...
ROW 02 : ... .. . ... ... : ... .. . ... : ... .. . ... : ... .. . ... : ... .. . ...
ROW 03 : ... .. . ... ... : ... .. . ... : ... .. . ... : ... .. . ... : ... .. . ...
ROW 04 : ... .. . ... ... : ... .. . ... : ... .. . ... : ... .. . ... : ... .. . ...
ROW 05 : ... .. . ... ... : F#3 07 . ... : ... .. . ... : ... .. . ... : ... .. . ...
ROW 06 : ... .. . ... ... : ... .. . ... : ... .. . ... : ... .. . ... : ... .. . ...
ROW 07 : ... .. . ... ... : ... .. . ... : ... .. . ... : ... .. . ... : ... .. . ...
ROW 08 : ... .. . ... ... : ... .. . ... : ... .. . ... : ... .. . ... : D-3 00 . ...
ROW 09 : ... .. . ... ... : A-2 07 . ... : F#3 18 . ... : A-# 1B . ... : ... .. . ...
ROW 0A : ... .. . ... ... : ... .. . ... : ... .. . ... : ... .. . ... : ... .. . ...
ROW 0B : ... .. . ... ... : ... .. . ... : ... .. . ... : ... .. . ... : ... .. . ...
ROW 0C : ... .. . ... ... : ... .. . ... : ... .. . ... : ... .. . ... : C-3 00 . ...
ROW 0D : ... .. . ... ... : D-3 07 . ... : F#3 18 . ... : ... .. . ... : ... .. . ...
ROW 0E : ... .. . ... ... : ... .. . ... : ... .. . ... : ... .. . ... : ... .. . ...
ROW 0F : ... .. . ... ... : ... .. . ... : ... .. . ... : ... .. . ... : ... .. . ...
ROW 10 : ... .. . ... ... : ... .. . ... : ... .. . ... : ... .. . ... : ... .. . ...
ROW 11 : G-3 06 . ... ... : F#3 07 . ... : ... .. . ... : ... .. . ... : ... .. . ...
ROW 12 : ... .. . ... ... : ... .. . ... : ... .. . ... : ... .. . ... : ... .. . ...
ROW 13 : ... .. . ... ... : ... .. . ... : ... .. . ... : ... .. . ... : ... .. . ...
ROW 14 : ... .. . ... ... : ... .. . ... : ... .. . ... : ... .. . ... : C-3 00 . ...
ROW 15 : ... .. . ... ... : A-2 07 . ... : F#3 18 . ... : ... .. . ... : ... .. . ...
ROW 16 : ... .. . ... ... : ... .. . ... : ... .. . ... : ... .. . ... : ... .. . ...
ROW 17 : ... .. . ... ... : ... .. . ... : ... .. . ... : ... .. . ... : ... .. . ...
ROW 18 : ... .. . ... ... : ... .. . ... : ... .. . ... : ... .. . ... : D-3 00 . ...
ROW 19 : F#3 06 . ... ... : D-3 07 . ... : F#3 18 . ... : A-# 1B . ... : ... .. . ...
ROW 1A : ... .. . ... ... : ... .. . ... : ... .. . ... : ... .. . ... : ... .. . ...
ROW 1B : ... .. . ... ... : ... .. . ... : ... .. . ... : ... .. . ... : ... .. . ...
ROW 1C : ... .. . ... ... : ... .. . ... : ... .. . ... : ... .. . ... : ... .. . ...
ROW 1D : D-3 06 . ... ... : F#3 07 . ... : ... .. . ... : ... .. . ... : ... .. . ...
ROW 1E : ... .. . ... ... : ... .. . ... : ... .. . ... : ... .. . ... : ... .. . ...
ROW 1F : ... .. . ... ... : ... .. . ... : ... .. . ... : ... .. . ... : ... .. . ...
ROW 20 : ... .. . ... ... : ... .. . ... : ... .. . ... : ... .. . ... : C-3 00 . ...
ROW 21 : ... .. . ... ... : D-3 07 . ... : F#3 18 . ... : ... .. . ... : ... .. . ...
ROW 22 : ... .. . ... ... : ... .. . ... : ... .. . ... : ... .. . ... : ... .. . ...
ROW 23 : ... .. . ... ... : ... .. . ... : ... .. . ... : ... .. . ... : ... .. . ...
ROW 24 : ... .. . ... ... : ... .. . ... : ... .. . ... : ... .. . ... : C-3 00 . ...
ROW 25 : ... .. . ... ... : F#3 07 . ... : ... .. . ... : ... .. . ... : ... .. . ...
ROW 26 : ... .. . ... ... : ... .. . ... : ... .. . ... : ... .. . ... : ... .. . ...
ROW 27 : ... .. . ... ... : ... .. . ... : ... .. . ... : ... .. . ... : ... .. . ...
ROW 28 : ... .. . ... ... : ... .. . ... : ... .. . ... : ... .. . ... : D-3 00 . ...
ROW 29 : ... .. . ... ... : A-2 07 . ... : F#3 18 . ... : A-# 1B . ... : ... .. . ...
ROW 2A : ... .. . ... ... : ... .. . ... : ... .. . ... : ... .. . ... : ... .. . ...
ROW 2B : ... .. . ... ... : ... .. . ... : ... .. . ... : ... .. . ... : ... .. . ...
ROW 2C : ... .. . ... ... : ... .. . ... : ... .. . ... : ... .. . ... : C-3 00 . ...
ROW 2D : ... .. . ... ... : D-3 07 . ... : F#3 18 . ... : ... .. . ... : ... .. . ...
ROW 2E : ... .. . ... ... : ... .. . ... : ... .. . ... : ... .. . ... : ... .. . ...
ROW 2F : ... .. . ... ... : ... .. . ... : ... .. . ... : ... .. . ... : ... .. . ...
ROW 30 : ... .. . ... ... : ... .. . ... : ... .. . ... : ... .. . ... : ... .. . ...
ROW 31 : ... .. . ... ... : F#3 07 . ... : ... .. . ... : ... .. . ... : ... .. . ...
ROW 32 : ... .. . ... ... : ... .. . ... : ... .. . ... : ... .. . ... : ... .. . ...
ROW 33 : ... .. . ... ... : ... .. . ... : ... .. . ... : ... .. . ... : ... .. . ...
ROW 34 : ... .. . ... ... : ... .. . ... : ... .. . ... : ... .. . ... : C-3 00 . ...
ROW 35 : ... .. . ... ... : A-2 07 . ... : F#3 18 . ... : ... .. . ... : ... .. . ...
ROW 36 : ... .. . ... ... : ... .. . ... : ... .. . ... : ... .. . ... : ... .. . ...
ROW 37 : ... .. . ... ... : ... .. . ... : ... .. . ... : ... .. . ... : ... .. . ...
ROW 38 : ... .. . ... ... : ... .. . ... : ... .. . ... : ... .. . ... : D-3 00 . ...
ROW 39 : ... .. . ... ... : D-3 07 . ... : F#3 18 . ... : A-# 1B . ... : ... .. . ...
ROW 3A : ... .. . ... ... : ... .. . ... : ... .. . ... : ... .. . ... : ... .. . ...
ROW 3B : ... .. . ... ... : ... .. . ... : ... .. . ... : ... .. . ... : ... .. . ...
ROW 3C : ... .. . ... ... : ... .. . ... : ... .. . ... : ... .. . ... : D-3 00 . ...
ROW 3D : ... .. . ... ... : F#3 07 . ... : ... .. . ... : A-# 1B . ... : ... .. . ...
ROW 3E : ... .. . ... ... : ... .. . ... : ... .. . ... : ... .. . ... : ... .. . ...
ROW 3F : ... .. . ... ... : ... .. . ... : ... .. . ... : ... .. . ... : ... .. . ...
ROW 40 : ... .. . ... ... : ... .. . ... : ... .. . ... : ... .. . ... : C-3 00 . ...
ROW 41 : ... .. . ... ... : D-3 07 . ... : F#3 18 . ... : ... .. . ... : ... .. . ...
ROW 42 : ... .. . ... ... : ... .. . ... : ... .. . ... : ... .. . ... : ... .. . ...
ROW 43 : ... .. . ... ... : ... .. . ... : ... .. . ... : ... .. . ... : ... .. . ...
ROW 44 : ... .. . ... ... : ... .. . ... : ... .. . ... : ... .. . ... : ... .. . ...
ROW 45 : ... .. . ... ... : F#3 07 . ... : ... .. . ... : ... .. . ... : ... .. . ...
ROW 46 : ... .. . ... ... : ... .. . ... : ... .. . ... : ... .. . ... : ... .. . ...
ROW 47 : ... .. . ... ... : ... .. . ... : ... .. . ... : ... .. . ... : ... .. . ...
ROW 48 : ... .. . ... ... : ... .. . ... : ... .. . ... : ... .. . ... : D-3 00 . ...
ROW 49 : ... .. . ... ... : A-2 07 . ... : F#3 18 . ... : A-# 1B . ... : ... .. . ...
ROW 4A : ... .. . ... ... : ... .. . ... : ... .. . ... : ... .. . ... : ... .. . ...
ROW 4B : ... .. . ... ... : ... .. . ... : ... .. . ... : ... .. . ... : ... .. . ...
ROW 4C : ... .. . ... ... : ... .. . ... : ... .. . ... : ... .. . ... : C-3 00 . ...
ROW 4D : --- .. . ... ... : D-3 07 . ... : F#3 18 . ... : ... .. . ... : ... .. . ...
ROW 4E : ... .. . ... ... : ... .. . ... : ... .. . ... : ... .. . ... : ... .. . ...
ROW 4F : ... .. . ... ... : ... .. . ... : ... .. . ... : ... .. . ... : ... .. . ...
ROW 50 : ... .. . ... ... : ... .. . ... : ... .. . ... : ... .. . ... : ... .. . ...
ROW 51 : B-3 06 . ... ... : F#3 07 . ... : ... .. . ... : ... .. . ... : ... .. . ...
ROW 52 : ... .. . ... ... : ... .. . ... : ... .. . ... : ... .. . ... : ... .. . ...
ROW 53 : ... .. . ... ... : ... .. . ... : ... .. . ... : ... .. . ... : ... .. . ...
ROW 54 : ... .. . ... ... : ... .. . ... : ... .. . ... : ... .. . ... : C-3 00 . ...
ROW 55 : ... .. . ... ... : A-2 07 . ... : F#3 18 . ... : ... .. . ... : ... .. . ...
ROW 56 : ... .. . ... ... : ... .. . ... : ... .. . ... : ... .. . ... : ... .. . ...
ROW 57 : ... .. . ... ... : ... .. . ... : ... .. . ... : ... .. . ... : ... .. . ...
ROW 58 : ... .. . ... ... : ... .. . ... : ... .. . ... : ... .. . ... : D-3 00 . ...
ROW 59 : ... .. . ... ... : D-3 07 . ... : F#3 18 . ... : A-# 1B . ... : ... .. . ...
ROW 5A : ... .. . ... ... : ... .. . ... : ... .. . ... : ... .. . ... : ... .. . ...
ROW 5B : ... .. . ... ... : ... .. . ... : ... .. . ... : ... .. . ... : ... .. . ...
ROW 5C : ... .. . ... ... : ... .. . ... : ... .. . ... : ... .. . ... : ... .. . ...
ROW 5D : ... .. . ... ... : F#3 07 . ... : ... .. . ... : ... .. . ... : ... .. . ...
ROW 5E : ... .. . ... ... : ... .. . ... : ... .. . ... : ... .. . ... : ... .. . ...
ROW 5F : ... .. . ... ... : ... .. . ... : ... .. . ... : ... .. . ... : ... .. . ...
ROW 60 : ... .. . ... ... : ... .. . ... : ... .. . ... : ... .. . ... : C-3 00 . ...
ROW 61 : D-4 06 . ... ... : D-3 07 . ... : F#3 18 . ... : ... .. . ... : ... .. . ...
ROW 62 : ... .. . ... ... : ... .. . ... : ... .. . ... : ... .. . ... : ... .. . ...
ROW 63 : ... .. . ... ... : ... .. . ... : ... .. . ... : ... .. . ... : ... .. . ...
ROW 64 : ... .. . ... ... : ... .. . ... : ... .. . ... : ... .. . ... : ... .. . ...
ROW 65 : ... .. . ... ... : F#3 07 . ... : ... .. . ... : ... .. . ... : ... .. . ...
ROW 66 : ... .. . ... ... : ... .. . ... : ... .. . ... : ... .. . ... : ... .. . ...
ROW 67 : ... .. . ... ... : ... .. . ... : ... .. . ... : ... .. . ... : ... .. . ...
ROW 68 : ... .. . ... ... : ... .. . ... : ... .. . ... : ... .. . ... : D-3 00 . ...
ROW 69 : ... .. . ... ... : A-2 07 . ... : F#3 18 . ... : A-# 1B . ... : ... .. . ...
ROW 6A : ... .. . ... ... : ... .. . ... : ... .. . ... : ... .. . ... : ... .. . ...
ROW 6B : ... .. . ... ... : ... .. . ... : ... .. . ... : ... .. . ... : ... .. . ...
ROW 6C : ... .. . ... ... : ... .. . ... : ... .. . ... : ... .. . ... : ... .. . ...
ROW 6D : ... .. . ... ... : D-3 07 . ... : F#3 18 . ... : ... .. . ... : ... .. . ...
ROW 6E : ... .. . ... ... : ... .. . ... : ... .. . ... : ... .. . ... : ... .. . ...
ROW 6F : ... .. . ... ... : ... .. . ... : ... .. . ... : ... .. . ... : ... .. . ...
ROW 70 : ... .. . ... ... : ... .. . ... : ... .. . ... : ... .. . ... : C-3 00 . ...
ROW 71 : G-4 06 . ... ... : F#3 07 . ... : ... .. . ... : ... .. . ... : ... .. . ...
ROW 72 : ... .. . ... ... : ... .. . ... : ... .. . ... : ... .. . ... : ... .. . ...
ROW 73 : ... .. . ... ... : ... .. . ... : ... .. . ... : ... .. . ... : ... .. . ...
ROW 74 : ... .. . ... ... : ... .. . ... : ... .. . ... : ... .. . ... : ... .. . ...
ROW 75 : ... .. . ... ... : A-2 07 . ... : F#3 18 . ... : ... .. . ... : ... .. . ...
ROW 76 : ... .. . ... ... : ... .. . ... : ... .. . ... : ... .. . ... : ... .. . ...
ROW 77 : ... .. . ... ... : ... .. . ... : ... .. . ... : ... .. . ... : ... .. . ...
ROW 78 : ... .. . ... ... : ... .. . ... : ... .. . ... : ... .. . ... : D-3 00 . ...
ROW 79 : ... .. . ... ... : D-3 07 . ... : F#3 18 . ... : A-# 1B . ... : ... .. . ...
ROW 7A : ... .. . ... ... : ... .. . ... : ... .. . ... : ... .. . ... : ... .. . ...
ROW 7B : ... .. . ... ... : ... .. . ... : ... .. . ... : ... .. . ... : ... .. . ...
ROW 7C : ... .. . ... ... : ... .. . ... : ... .. . ... : ... .. . ... : C-3 00 . ...
ROW 7D : ... .. . ... ... : F#3 07 . ... : ... .. . ... : ... .. . ... : ... .. . ...
ROW 7E : ... .. . ... ... : ... .. . ... : ... .. . ... : ... .. . ... : ... .. . ...
ROW 7F : ... .. . ... ... : ... .. . ... : ... .. . ... : ... .. . ... : ... .. . ...

PATTERN 06
ROW 00 : ... .. . ... ... : ... .. . ... : ... .. . ... : ... .. . ... : C-3 00 . ...
ROW 01 : F#4 06 . ... ... : C-3 07 . ... : G-3 18 . ... : ... .. . ... : ... .. . ...
ROW 02 : ... .. . ... ... : ... .. . ... : ... .. . ... : ... .. . ... : ... .. . ...
ROW 03 : ... .. . ... ... : ... .. . ... : ... .. . ... : ... .. . ... : ... .. . ...
ROW 04 : ... .. . ... ... : ... .. . ... : ... .. . ... : ... .. . ... : ... .. . ...
ROW 05 : ... .. . ... ... : E-3 07 . ... : ... .. . ... : ... .. . ... : ... .. . ...
ROW 06 : ... .. . ... ... : ... .. . ... : ... .. . ... : ... .. . ... : ... .. . ...
ROW 07 : ... .. . ... ... : ... .. . ... : ... .. . ... : ... .. . ... : ... .. . ...
ROW 08 : ... .. . ... ... : ... .. . ... : ... .. . ... : ... .. . ... : D-3 00 . ...
ROW 09 : ... .. . ... ... : G-3 07 . ... : G-3 18 . ... : A-# 1B . ... : ... .. . ...
ROW 0A : ... .. . ... ... : ... .. . ... : ... .. . ... : ... .. . ... : ... .. . ...
ROW 0B : ... .. . ... ... : ... .. . ... : ... .. . ... : ... .. . ... : ... .. . ...
ROW 0C : ... .. . ... ... : ... .. . ... : ... .. . ... : ... .. . ... : C-3 00 . ...
ROW 0D : E-4 06 . ... ... : C-3 07 . ... : G-3 18 . ... : ... .. . ... : ... .. . ...
ROW 0E : ... .. . ... ... : ... .. . ... : ... .. . ... : ... .. . ... : ... .. . ...
ROW 0F : ... .. . ... ... : ... .. . ... : ... .. . ... : ... .. . ... : ... .. . ...
ROW 10 : ... .. . ... ... : ... .. . ... : ... .. . ... : ... .. . ... : ... .. . ...
ROW 11 : ... .. . ... ... : E-3 07 . ... : ... .. . ... : ... .. . ... : ... .. . ...
ROW 12 : ... .. . ... ... : ... .. . ... : ... .. . ... : ... .. . ... : ... .. . ...
ROW 13 : ... .. . ... ... : ... .. . ... : ... .. . ... : ... .. . ... : ... .. . ...
ROW 14 : ... .. . ... ... : ... .. . ... : ... .. . ... : ... .. . ... : C-3 00 . ...
ROW 15 : ... .. . ... ... : G-3 07 . ... : G-3 18 . ... : ... .. . ... : ... .. . ...
ROW 16 : ... .. . ... ... : ... .. . ... : ... .. . ... : ... .. . ... : ... .. . ...
ROW 17 : ... .. . ... ... : ... .. . ... : ... .. . ... : ... .. . ... : ... .. . ...
ROW 18 : ... .. . ... ... : ... .. . ... : ... .. . ... : ... .. . ... : D-3 00 . ...
ROW 19 : ... .. . ... ... : C-3 07 . ... : G-3 18 . ... : A-# 1B . ... : ... .. . ...
ROW 1A : ... .. . ... ... : ... .. . ... : ... .. . ... : ... .. . ... : ... .. . ...
ROW 1B : ... .. . ... ... : ... .. . ... : ... .. . ... : ... .. . ... : ... .. . ...
ROW 1C : ... .. . ... ... : ... .. . ... : ... .. . ... : ... .. . ... : ... .. . ...
ROW 1D : ... .. . ... ... : E-3 07 . ... : ... .. . ... : ... .. . ... : ... .. . ...
ROW 1E : ... .. . ... ... : ... .. . ... : ... .. . ... : ... .. . ... : ... .. . ...
ROW 1F : ... .. . ... ... : ... .. . ... : ... .. . ... : ... .. . ... : ... .. . ...
ROW 20 : ... .. . ... ... : ... .. . ... : ... .. . ... : ... .. . ... : C-3 00 . ...
ROW 21 : D-3 05 . P80 ... : C#3 07 . ... : G-3 18 . ... : ... .. . ... : ... .. . ...
ROW 22 : ... .. . ... ... : ... .. . ... : ... .. . ... : ... .. . ... : ... .. . ...
ROW 23 : ... .. . P81 ... : ... .. . ... : ... .. . ... : ... .. . ... : ... .. . ...
ROW 24 : ... .. . ... ... : ... .. . ... : ... .. . ... : ... .. . ... : ... .. . ...
ROW 25 : ... .. . P83 ... : E-3 07 . ... : ... .. . ... : ... .. . ... : ... .. . ...
ROW 26 : ... .. . ... ... : ... .. . ... : ... .. . ... : ... .. . ... : ... .. . ...
ROW 27 : ... .. . P84 ... : ... .. . ... : ... .. . ... : ... .. . ... : ... .. . ...
ROW 28 : ... .. . ... ... : ... .. . ... : ... .. . ... : ... .. . ... : D-3 00 . ...
ROW 29 : ... .. . P86 ... : G-3 07 . ... : G-3 18 . ... : A-# 1B . ... : ... .. . ...
ROW 2A : ... .. . ... ... : ... .. . ... : ... .. . ... : ... .. . ... : ... .. . ...
ROW 2B : ... .. . P88 ... : ... .. . ... : ... .. . ... : ... .. . ... : ... .. . ...
ROW 2C : ... .. . ... ... : ... .. . ... : ... .. . ... : ... .. . ... : C-3 00 . ...
ROW 2D : ... .. . P8A ... : C#3 07 . ... : G-3 18 . ... : ... .. . ... : ... .. . ...
ROW 2E : ... .. . ... ... : ... .. . ... : ... .. . ... : ... .. . ... : ... .. . ...
ROW 2F : ... .. . P76 T01 : ... .. . ... : ... .. . ... : ... .. . ... : ... .. . ...
ROW 30 : ... .. . ... ... : ... .. . ... : ... .. . ... : ... .. . ... : ... .. . ...
ROW 31 : ... .. . P7A ... : E-3 07 . ... : ... .. . ... : ... .. . ... : ... .. . ...
ROW 32 : ... .. . P7E ... : ... .. . ... : ... .. . ... : ... .. . ... : ... .. . ...
ROW 33 : ... .. . P82 G02 : ... .. . ... : ... .. . ... : ... .. . ... : ... .. . ...
ROW 34 : ... .. . ... ... : ... .. . ... : ... .. . ... : ... .. . ... : C-3 00 . ...
ROW 35 : ... .. . P86 G01 : G-3 07 . ... : G-3 18 . ... : ... .. . ... : ... .. . ...
ROW 36 : ... .. . ... ... : ... .. . ... : ... .. . ... : ... .. . ... : ... .. . ...
ROW 37 : ... .. . P8A ... : ... .. . ... : ... .. . ... : ... .. . ... : ... .. . ...
ROW 38 : ... .. . ... ... : ... .. . ... : ... .. . ... : ... .. . ... : D-3 00 . ...
ROW 39 : ... .. . ... ... : C#3 07 . ... : G-3 18 . ... : A-# 1B . ... : ... .. . ...
ROW 3A : ... .. . ... ... : ... .. . ... : ... .. . ... : ... .. . ... : ... .. . ...
ROW 3B : ... .. . ... ... : ... .. . ... : ... .. . ... : ... .. . ... : ... .. . ...
ROW 3C : ... .. . ... ... : ... .. . ... : ... .. . ... : ... .. . ... : C-3 00 . ...
ROW 3D : ... .. . ... ... : E-3 07 . ... : ... .. . ... : ... .. . ... : ... .. . ...
ROW 3E : ... .. . ... ... : ... .. . ... : ... .. . ... : ... .. . ... : ... .. . ...
ROW 3F : ... .. . ... ... : ... .. . ... : ... .. . ... : ... .. . ... : ... .. . ...
ROW 40 : ... .. . ... ... : ... .. . ... : ... .. . ... : ... .. . ... : C-3 00 . ...
ROW 41 : B-3 06 . P80 ... : D-3 07 . ... : A-3 18 . ... : ... .. . ... : ... .. . ...
ROW 42 : ... .. . ... ... : ... .. . ... : ... .. . ... : ... .. . ... : ... .. . ...
ROW 43 : ... .. . ... ... : ... .. . ... : ... .. . ... : ... .. . ... : ... .. . ...
ROW 44 : ... .. . ... ... : ... .. . ... : ... .. . ... : ... .. . ... : ... .. . ...
ROW 45 : A-3 06 . ... ... : F#3 07 . ... : ... .. . ... : ... .. . ... : ... .. . ...
ROW 46 : ... .. . ... ... : ... .. . ... : ... .. . ... : ... .. . ... : ... .. . ...
ROW 47 : ... .. . ... ... : ... .. . ... : ... .. . ... : ... .. . ... : ... .. . ...
ROW 48 : ... .. . ... ... : ... .. . ... : ... .. . ... : ... .. . ... : D-3 00 . ...
ROW 49 : G-3 06 . ... ... : A-3 07 . ... : A-3 18 . ... : A-# 1B . ... : ... .. . ...
ROW 4A : ... .. . ... ... : ... .. . ... : ... .. . ... : ... .. . ... : ... .. . ...
ROW 4B : ... .. . ... ... : ... .. . ... : ... .. . ... : ... .. . ... : ... .. . ...
ROW 4C : ... .. . ... ... : ... .. . ... : ... .. . ... : ... .. . ... : C-3 00 . ...
ROW 4D : ... .. . ... ... : D-3 07 . ... : A-3 18 . ... : ... .. . ... : ... .. . ...
ROW 4E : ... .. . ... ... : ... .. . ... : ... .. . ... : ... .. . ... : ... .. . ...
ROW 4F : ... .. . ... ... : ... .. . ... : ... .. . ... : ... .. . ... : ... .. . ...
ROW 50 : ... .. . ... ... : ... .. . ... : ... .. . ... : ... .. . ... : ... .. . ...
ROW 51 : F#3 06 . ... ... : F#3 07 . ... : ... .. . ... : ... .. . ... : ... .. . ...
ROW 52 : ... .. . ... ... : ... .. . ... : ... .. . ... : ... .. . ... : ... .. . ...
ROW 53 : ... .. . ... ... : ... .. . ... : ... .. . ... : ... .. . ... : ... .. . ...
ROW 54 : ... .. . ... ... : ... .. . ... : ... .. . ... : ... .. . ... : C-3 00 . ...
ROW 55 : G-3 06 . ... ... : A-3 07 . ... : A-3 18 . ... : ... .. . ... : ... .. . ...
ROW 56 : ... .. . ... ... : ... .. . ... : ... .. . ... : ... .. . ... : ... .. . ...
ROW 57 : ... .. . ... ... : ... .. . ... : ... .. . ... : ... .. . ... : ... .. . ...
ROW 58 : ... .. . ... ... : ... .. . ... : ... .. . ... : ... .. . ... : D-3 00 . ...
ROW 59 : F#3 06 . ... ... : D-3 07 . ... : A-3 18 . ... : A-# 1B . ... : ... .. . ...
ROW 5A : ... .. . ... ... : ... .. . ... : ... .. . ... : ... .. . ... : ... .. . ...
ROW 5B : ... .. . ... ... : ... .. . ... : ... .. . ... : ... .. . ... : ... .. . ...
ROW 5C : ... .. . ... ... : ... .. . ... : ... .. . ... : ... .. . ... : ... .. . ...
ROW 5D : ... .. . ... ... : F#3 07 . ... : ... .. . ... : ... .. . ... : ... .. . ...
ROW 5E : ... .. . ... ... : ... .. . ... : ... .. . ... : ... .. . ... : ... .. . ...
ROW 5F : ... .. . ... ... : ... .. . ... : ... .. . ... : ... .. . ... : ... .. . ...
ROW 60 : ... .. . ... ... : ... .. . ... : ... .. . ... : ... .. . ... : C-3 00 . ...
ROW 61 : E-3 05 . P7F ... : D#3 07 . ... : A-3 18 . ... : ... .. . ... : ... .. . ...
ROW 62 : ... .. . ... ... : ... .. . ... : ... .. . ... : ... .. . ... : ... .. . ...
ROW 63 : ... .. . P7E G01 : ... .. . ... : ... .. . ... : ... .. . ... : ... .. . ...
ROW 64 : ... .. . ... ... : ... .. . ... : ... .. . ... : ... .. . ... : C-3 00 . ...
ROW 65 : ... .. . ... ... : F#3 07 . ... : A-3 18 . ... : ... .. . ... : ... .. . ...
ROW 66 : ... .. . ... ... : ... .. . ... : ... .. . ... : ... .. . ... : ... .. . ...
ROW 67 : ... .. . P7D G01 : ... .. . ... : ... .. . ... : ... .. . ... : ... .. . ...
ROW 68 : ... .. . ... ... : ... .. . ... : ... .. . ... : ... .. . ... : D-3 00 . ...
ROW 69 : ... .. . ... ... : A-3 07 . ... : A-3 18 . ... : A-# 1B . ... : ... .. . ...
ROW 6A : ... .. . ... ... : ... .. . ... : ... .. . ... : ... .. . ... : ... .. . ...
ROW 6B : ... .. . P7B G01 : ... .. . ... : ... .. . ... : ... .. . ... : ... .. . ...
ROW 6C : ... .. . ... ... : ... .. . ... : ... .. . ... : ... .. . ... : E-3 00 . W0A
ROW 6D : ... .. . ... ... : D#3 07 . ... : ... .. . ... : ... .. . ... : ... .. . ...
ROW 6E : ... .. . ... ... : ... .. . ... : ... .. . ... : ... .. . ... : ... .. . ...
ROW 6F : ... .. . P7A G01 : ... .. . ... : ... .. . ... : ... .. . ... : ... .. . ...
ROW 70 : ... .. . ... ... : ... .. . ... : ... .. . ... : ... .. . ... : E-3 00 . W09
ROW 71 : ... .. . ... ... : F#3 07 . ... : B-3 18 . ... : ... .. . ... : ... .. . ...
ROW 72 : ... .. . ... ... : ... .. . ... : ... .. . ... : ... .. . ... : ... .. . ...
ROW 73 : ... .. . P78 G01 : ... .. . ... : ... .. . ... : ... .. . ... : ... .. . ...
ROW 74 : ... .. . ... ... : ... .. . ... : ... .. . ... : ... .. . ... : E-3 00 . W08
ROW 75 : ... .. . P76 G02 : A-3 07 . ... : ... .. . ... : ... .. . ... : ... .. . ...
ROW 76 : ... .. . ... ... : ... .. . ... : ... .. . ... : ... .. . ... : ... .. . ...
ROW 77 : ... .. . ... ... : ... .. . ... : ... .. . ... : ... .. . ... : ... .. . ...
ROW 78 : ... .. . P89 T81 : ... .. . ... : ... .. . ... : ... .. . ... : D-3 00 . ...
ROW 79 : ... .. . ... ... : D#3 07 . ... : A-3 18 . ... : A-# 1B . ... : ... .. . ...
ROW 7A : ... .. . ... ... : ... .. . ... : ... .. . ... : ... .. . ... : ... .. . ...
ROW 7B : ... .. . P88 ... : ... .. . ... : ... .. . ... : ... .. . ... : ... .. . ...
ROW 7C : ... .. . ... ... : ... .. . ... : ... .. . ... : ... .. . ... : D-3 00 . ...
ROW 7D : --- .. . P80 ... : F#3 07 . ... : ... .. . ... : A-# 1B . ... : ... .. . ...
ROW 7E : ... .. . ... ... : ... .. . ... : ... .. . ... : ... .. . ... : ... .. . ...
ROW 7F : ... .. . ... ... : ... .. . ... : ... .. . ... : ... .. . ... : ... .. . B01

TRACK  64   2 150 "Boss Fight"
COLUMNS : 1 1 1 1 1

ORDER 00 : 00 00 00 00 00
ORDER 01 : 01 01 01 01 01
ORDER 02 : 02 02 02 02 02
ORDER 03 : 03 03 03 03 03
ORDER 04 : 04 04 04 04 04
ORDER 05 : 05 05 05 05 05
ORDER 06 : 06 06 06 06 06
ORDER 07 : 07 07 07 07 07
ORDER 08 : 08 08 08 08 08
ORDER 09 : 09 09 09 09 09

PATTERN 00
ROW 00 : ... .. . ... : ... .. . ... : ... .. . ... : ... .. . ... : E-3 00 . W0A
ROW 01 : ... .. . ... : F#2 02 . ... : F#2 18 . ... : ... .. . ... : ... .. . ...
ROW 02 : ... .. . ... : ... .. . ... : ... .. . ... : ... .. . ... : E-3 00 . W0A
ROW 03 : F#2 02 . ... : F#2 02 . ... : F#2 18 . ... : ... .. . ... : ... .. . ...
ROW 04 : ... .. . ... : ... .. . ... : ... .. . ... : ... .. . ... : E-3 00 . W09
ROW 05 : F#2 02 . ... : A-2 02 . ... : A-2 18 . ... : ... .. . ... : ... .. . ...
ROW 06 : ... .. . ... : ... .. . ... : ... .. . ... : ... .. . ... : E-3 00 . W09
ROW 07 : A-2 02 . ... : A-2 02 . ... : A-2 18 . ... : ... .. . ... : ... .. . ...
ROW 08 : ... .. . ... : ... .. . ... : ... .. . ... : ... .. . ... : E-3 00 . W08
ROW 09 : A-2 02 . ... : C#3 02 . ... : C#3 18 . ... : ... .. . ... : ... .. . ...
ROW 0A : ... .. . ... : ... .. . ... : ... .. . ... : ... .. . ... : E-3 00 . W08
ROW 0B : C#3 02 . ... : C#3 02 . ... : C#3 18 . ... : ... .. . ... : ... .. . ...
ROW 0C : ... .. . ... : ... .. . ... : ... .. . ... : ... .. . ... : E-3 00 . W0A
ROW 0D : C#3 02 . ... : A-2 02 . ... : A-2 18 . ... : ... .. . ... : ... .. . ...
ROW 0E : ... .. . ... : ... .. . ... : ... .. . ... : ... .. . ... : E-3 00 . W0A
ROW 0F : A-2 02 . ... : A-2 02 . ... : A-2 18 . ... : ... .. . ... : ... .. . ...
ROW 10 : ... .. . ... : ... .. . ... : ... .. . ... : ... .. . ... : E-3 00 . W09
ROW 11 : A-2 02 . ... : D-2 02 . ... : D-2 18 . ... : ... .. . ... : ... .. . ...
ROW 12 : ... .. . ... : ... .. . ... : ... .. . ... : ... .. . ... : E-3 00 . W09
ROW 13 : D-2 02 . ... : C#2 02 . ... : C#2 18 . ... : ... .. . ... : ... .. . ...
ROW 14 : ... .. . ... : ... .. . ... : ... .. . ... : ... .. . ... : E-3 00 . W08
ROW 15 : C#2 02 . ... : D-2 02 . ... : D-2 18 . ... : ... .. . ... : ... .. . ...
ROW 16 : ... .. . ... : ... .. . ... : ... .. . ... : ... .. . ... : E-3 00 . W08
ROW 17 : D-2 02 . ... : E-2 02 . ... : E-2 18 . ... : ... .. . ... : ... .. . ...
ROW 18 : ... .. . ... : ... .. . ... : ... .. . ... : ... .. . ... : C-3 00 . ...
ROW 19 : E-2 02 . ... : D-2 02 . ... : D-2 18 . ... : ... .. . ... : ... .. . ...
ROW 1A : ... .. . ... : ... .. . ... : ... .. . ... : ... .. . ... : C-3 00 . ...
ROW 1B : D-2 02 . ... : C#2 02 . ... : C#2 18 . ... : ... .. . ... : ... .. . ...
ROW 1C : ... .. . ... : ... .. . ... : ... .. . ... : ... .. . ... : D-3 00 . ...
ROW 1D : C#2 02 . ... : B-1 02 . ... : B-1 18 . ... : A-# 1B . ... : ... .. . ...
ROW 1E : ... .. . ... : ... .. . ... : ... .. . ... : ... .. . ... : D-3 00 . ...
ROW 1F : B-1 02 . ... : A-1 02 . ... : A-1 18 . ... : A-# 1B . ... : ... .. . ...
ROW 20 : ... .. . ... : ... .. . ... : ... .. . ... : ... .. . ... : E-3 00 . W0A
ROW 21 : A-1 02 . ... : E-2 02 . ... : E-2 18 . ... : ... .. . ... : ... .. . ...
ROW 22 : ... .. . ... : ... .. . ... : ... .. . ... : ... .. . ... : E-3 00 . W0A
ROW 23 : E-2 02 . ... : E-2 02 . ... : E-2 18 . ... : ... .. . ... : ... .. . ...
ROW 24 : ... .. . ... : ... .. . ... : ... .. . ... : ... .. . ... : E-3 00 . W09
ROW 25 : E-2 02 . ... : G-2 02 . ... : G-2 18 . ... : ... .. . ... : ... .. . ...
ROW 26 : ... .. . ... : ... .. . ... : ... .. . ... : ... .. . ... : E-3 00 . W09
ROW 27 : G-2 02 . ... : G-2 02 . ... : G-2 18 . ... : ... .. . ... : ... .. . ...
ROW 28 : ... .. . ... : ... .. . ... : ... .. . ... : ... .. . ... : E-3 00 . W08
ROW 29 : G-2 02 . ... : B-2 02 . ... : B-2 18 . ... : ... .. . ... : ... .. . ...
ROW 2A : ... .. . ... : ... .. . ... : ... .. . ... : ... .. . ... : E-3 00 . W08
ROW 2B : B-2 02 . ... : B-2 02 . ... : B-2 18 . ... : ... .. . ... : ... .. . ...
ROW 2C : ... .. . ... : ... .. . ... : ... .. . ... : ... .. . ... : E-3 00 . W0A
ROW 2D : B-2 02 . ... : G-2 02 . ... : G-2 18 . ... : ... .. . ... : ... .. . ...
ROW 2E : ... .. . ... : ... .. . ... : ... .. . ... : ... .. . ... : E-3 00 . W0A
ROW 2F : G-2 02 . ... : G-2 02 . ... : G-2 18 . ... : ... .. . ... : ... .. . ...
ROW 30 : ... .. . ... : ... .. . ... : ... .. . ... : ... .. . ... : E-3 00 . W09
ROW 31 : G-2 02 . ... : C-2 02 . ... : C-2 18 . ... : ... .. . ... : ... .. . ...
ROW 32 : ... .. . ... : ... .. . ... : ... .. . ... : ... .. . ... : E-3 00 . W09
ROW 33 : C-2 02 . ... : B-1 02 . ... : B-1 18 . ... : ... .. . ... : ... .. . ...
ROW 34 : ... .. . ... : ... .. . ... : ... .. . ... : ... .. . ... : E-3 00 . W08
ROW 35 : B-1 02 . ... : C-2 02 . ... : C-2 18 . ... : ... .. . ... : ... .. . ...
ROW 36 : ... .. . ... : ... .. . ... : ... .. . ... : ... .. . ... : E-3 00 . W08
ROW 37 : C-2 02 . ... : D-2 02 . ... : D-2 18 . ... : ... .. . ... : ... .. . ...
ROW 38 : ... .. . ... : ... .. . ... : ... .. . ... : ... .. . ... : C-3 00 . ...
ROW 39 : D-2 02 . ... : C-2 02 . ... : C-2 18 . ... : ... .. . ... : ... .. . ...
ROW 3A : ... .. . ... : ... .. . ... : ... .. . ... : ... .. . ... : C-3 00 . ...
ROW 3B : C-2 02 . ... : B-1 02 . ... : B-1 18 . ... : ... .. . ... : ... .. . ...
ROW 3C : ... .. . ... : ... .. . ... : ... .. . ... : ... .. . ... : D-3 00 . ...
ROW 3D : B-1 02 . ... : A-1 02 . ... : A-1 18 . ... : A-# 1B . ... : ... .. . ...
ROW 3E : ... .. . ... : ... .. . ... : ... .. . ... : ... .. . ... : D-3 00 . ...
ROW 3F : A-1 02 . ... : G-1 02 . ... : G-1 18 . ... : A-# 1B . ... : ... .. . ...

PATTERN 01
ROW 00 : ... .. . ... : ... .. . ... : ... .. . ... : ... .. . ... : C-3 00 . ...
ROW 01 : G-1 02 . ... : E-3 02 . ... : G-2 18 . ... : ... .. . ... : ... .. . ...
ROW 02 : ... .. . ... : ... .. . ... : ... .. . ... : ... .. . ... : ... .. . ...
ROW 03 : E-3 02 . ... : G-3 02 . ... : A-2 18 . ... : ... .. . ... : ... .. . ...
ROW 04 : ... .. . ... : ... .. . ... : ... .. . ... : ... .. . ... : D-3 00 . ...
ROW 05 : G-3 02 . ... : A-3 02 . ... : A-2 18 . ... : A-# 1B . ... : ... .. . ...
ROW 06 : ... .. . ... : ... .. . ... : ... .. . ... : ... .. . ... : C-3 00 . ...
ROW 07 : A-3 02 . ... : G-3 02 . ... : A-2 18 . ... : ... .. . ... : ... .. . ...
ROW 08 : ... .. . ... : ... .. . ... : ... .. . ... : ... .. . ... : ... .. . ...
ROW 09 : G-3 02 . ... : B-3 02 . ... : A-2 18 . ... : ... .. . ... : ... .. . ...
ROW 0A : ... .. . ... : ... .. . ... : ... .. . ... : ... .. . ... : C-3 00 . ...
ROW 0B : B-3 02 . ... : ... .. . ... : ... .. . ... : ... .. . ... : ... .. . ...
ROW 0C : ... .. . ... : ... .. . ... : ... .. . ... : ... .. . ... : D-3 00 . ...
ROW 0D : ... .. . ... : E-3 02 . ... : G-2 18 . ... : A-# 1B . ... : ... .. . ...
ROW 0E : ... .. . ... : ... .. . ... : ... .. . ... : ... .. . ... : ... .. . ...
ROW 0F : E-3 02 . ... : G-3 02 . ... : A-2 18 . ... : ... .. . ... : ... .. . ...
ROW 10 : ... .. . ... : ... .. . ... : ... .. . ... : ... .. . ... : C-3 00 . ...
ROW 11 : G-3 02 . ... : A-3 02 . ... : A-2 18 . ... : ... .. . ... : ... .. . ...
ROW 12 : ... .. . ... : ... .. . ... : ... .. . ... : ... .. . ... : ... .. . ...
ROW 13 : A-3 02 . ... : G-3 02 . ... : A-2 18 . ... : ... .. . ... : ... .. . ...
ROW 14 : ... .. . ... : ... .. . ... : ... .. . ... : ... .. . ... : D-3 00 . ...
ROW 15 : G-3 02 . ... : B-3 02 . ... : A-2 18 . ... : A-# 1B . ... : ... .. . ...
ROW 16 : ... .. . ... : ... .. . ... : ... .. . ... : ... .. . ... : C-3 00 . ...
ROW 17 : B-3 02 . ... : ... .. . ... : ... .. . ... : ... .. . ... : ... .. . ...
ROW 18 : ... .. . ... : ... .. . ... : ... .. . ... : ... .. . ... : ... .. . ...
ROW 19 : ... .. . ... : E-3 02 . ... : G-2 18 . ... : ... .. . ... : ... .. . ...
ROW 1A : ... .. . ... : ... .. . ... : ... .. . ... : ... .. . ... : C-3 00 . ...
ROW 1B : E-3 02 . ... : G-3 02 . ... : A-2 18 . ... : ... .. . ... : ... .. . ...
ROW 1C : ... .. . ... : ... .. . ... : ... .. . ... : ... .. . ... : D-3 00 . ...
ROW 1D : G-3 02 . ... : A-3 02 . ... : A-2 18 . ... : A-# 1B . ... : ... .. . ...
ROW 1E : ... .. . ... : ... .. . ... : ... .. . ... : ... .. . ... : ... .. . ...
ROW 1F : A-3 02 . ... : G-3 02 . ... : A-2 18 . ... : ... .. . ... : ... .. . ...
ROW 20 : ... .. . ... : ... .. . ... : ... .. . ... : ... .. . ... : C-3 00 . ...
ROW 21 : G-3 02 . ... : E-3 02 . ... : G-2 18 . ... : ... .. . ... : ... .. . ...
ROW 22 : ... .. . ... : ... .. . ... : ... .. . ... : ... .. . ... : ... .. . ...
ROW 23 : E-3 02 . ... : G-3 02 . ... : A-2 18 . ... : ... .. . ... : ... .. . ...
ROW 24 : ... .. . ... : ... .. . ... : ... .. . ... : ... .. . ... : D-3 00 . ...
ROW 25 : G-3 02 . ... : A-3 02 . ... : A-2 18 . ... : A-# 1B . ... : ... .. . ...
ROW 26 : ... .. . ... : ... .. . ... : ... .. . ... : ... .. . ... : C-3 00 . ...
ROW 27 : A-3 02 . ... : G-3 02 . ... : A-2 18 . ... : ... .. . ... : ... .. . ...
ROW 28 : ... .. . ... : ... .. . ... : ... .. . ... : ... .. . ... : ... .. . ...
ROW 29 : G-3 02 . ... : B-3 02 . ... : A-2 18 . ... : ... .. . ... : ... .. . ...
ROW 2A : ... .. . ... : ... .. . ... : ... .. . ... : ... .. . ... : C-3 00 . ...
ROW 2B : B-3 02 . ... : ... .. . ... : ... .. . ... : ... .. . ... : ... .. . ...
ROW 2C : ... .. . ... : ... .. . ... : ... .. . ... : ... .. . ... : D-3 00 . ...
ROW 2D : ... .. . ... : E-3 02 . ... : A-2 18 . ... : A-# 1B . ... : ... .. . ...
ROW 2E : ... .. . ... : ... .. . ... : ... .. . ... : ... .. . ... : ... .. . ...
ROW 2F : E-3 02 . ... : G-3 02 . ... : A-2 18 . ... : ... .. . ... : ... .. . ...
ROW 30 : ... .. . ... : ... .. . ... : ... .. . ... : ... .. . ... : C-3 00 . ...
ROW 31 : G-3 02 . ... : A-3 02 . ... : D-3 18 . ... : ... .. . ... : ... .. . ...
ROW 32 : ... .. . ... : ... .. . ... : ... .. . ... : ... .. . ... : ... .. . ...
ROW 33 : A-3 02 . ... : G-3 02 . ... : ... .. . ... : ... .. . ... : ... .. . ...
ROW 34 : ... .. . ... : ... .. . ... : ... .. . ... : ... .. . ... : D-3 00 . ...
ROW 35 : G-3 02 . ... : B-3 02 . ... : D-3 18 . ... : A-# 1B . ... : ... .. . ...
ROW 36 : ... .. . ... : ... .. . ... : ... .. . ... : ... .. . ... : C-3 00 . ...
ROW 37 : B-3 02 . ... : ... .. . ... : C#3 18 . ... : ... .. . ... : ... .. . ...
ROW 38 : ... .. . ... : ... .. . ... : ... .. . ... : ... .. . ... : ... .. . ...
ROW 39 : ... .. . ... : C-4 02 . ... : ... .. . ... : ... .. . ... : ... .. . ...
ROW 3A : ... .. . ... : ... .. . ... : ... .. . ... : ... .. . ... : C-3 00 . ...
ROW 3B : C-4 02 . ... : B-4 02 . ... : C#3 18 . ... : ... .. . ... : ... .. . ...
ROW 3C : ... .. . ... : ... .. . ... : ... .. . ... : ... .. . ... : D-3 00 . ...
ROW 3D : B-4 02 . ... : C-4 02 . ... : C-3 18 . ... : A-# 1B . ... : ... .. . ...
ROW 3E : ... .. . ... : ... .. . ... : ... .. . ... : ... .. . ... : ... .. . ...
ROW 3F : C-4 02 . ... : B-3 02 . ... : ... .. . ... : ... .. . ... : ... .. . ...

PATTERN 02
ROW 00 : ... .. . ... : ... .. . ... : ... .. . ... : ... .. . ... : C-3 00 . ...
ROW 01 : B-3 02 . ... : E-3 02 . ... : G-2 18 . ... : ... .. . ... : ... .. . ...
ROW 02 : ... .. . ... : ... .. . ... : ... .. . ... : ... .. . ... : ... .. . ...
ROW 03 : E-3 02 . ... : G-3 02 . ... : A-2 18 . ... : ... .. . ... : ... .. . ...
ROW 04 : ... .. . ... : ... .. . ... : ... .. . ... : ... .. . ... : D-3 00 . ...
ROW 05 : G-3 02 . ... : A-3 02 . ... : A-2 18 . ... : A-# 1B . ... : ... .. . ...
ROW 06 : ... .. . ... : ... .. . ... : ... .. . ... : ... .. . ... : C-3 00 . ...
ROW 07 : A-3 02 . ... : G-3 02 . ... : A-2 18 . ... : ... .. . ... : ... .. . ...
ROW 08 : ... .. . ... : ... .. . ... : ... .. . ... : ... .. . ... : ... .. . ...
ROW 09 : G-3 02 . ... : B-3 02 . ... : A-2 18 . ... : ... .. . ... : ... .. . ...
ROW 0A : ... .. . ... : ... .. . ... : ... .. . ... : ... .. . ... : C-3 00 . ...
ROW 0B : B-3 02 . ... : ... .. . ... : ... .. . ... : ... .. . ... : ... .. . ...
ROW 0C : ... .. . ... : ... .. . ... : ... .. . ... : ... .. . ... : D-3 00 . ...
ROW 0D : ... .. . ... : E-3 02 . ... : G-2 18 . ... : A-# 1B . ... : ... .. . ...
ROW 0E : ... .. . ... : ... .. . ... : ... .. . ... : ... .. . ... : ... .. . ...
ROW 0F : E-3 02 . ... : G-3 02 . ... : A-2 18 . ... : ... .. . ... : ... .. . ...
ROW 10 : ... .. . ... : ... .. . ... : ... .. . ... : ... .. . ... : C-3 00 . ...
ROW 11 : G-3 02 . ... : A-3 02 . ... : A-2 18 . ... : ... .. . ... : ... .. . ...
ROW 12 : ... .. . ... : ... .. . ... : ... .. . ... : ... .. . ... : ... .. . ...
ROW 13 : A-3 02 . ... : G-3 02 . ... : A-2 18 . ... : ... .. . ... : ... .. . ...
ROW 14 : ... .. . ... : ... .. . ... : ... .. . ... : ... .. . ... : D-3 00 . ...
ROW 15 : G-3 02 . ... : B-3 02 . ... : A-2 18 . ... : A-# 1B . ... : ... .. . ...
ROW 16 : ... .. . ... : ... .. . ... : ... .. . ... : ... .. . ... : C-3 00 . ...
ROW 17 : B-3 02 . ... : ... .. . ... : ... .. . ... : ... .. . ... : ... .. . ...
ROW 18 : ... .. . ... : ... .. . ... : ... .. . ... : ... .. . ... : ... .. . ...
ROW 19 : ... .. . ... : E-3 02 . ... : G-2 18 . ... : ... .. . ... : ... .. . ...
ROW 1A : ... .. . ... : ... .. . ... : ... .. . ... : ... .. . ... : C-3 00 . ...
ROW 1B : E-3 02 . ... : G-3 02 . ... : A-2 18 . ... : ... .. . ... : ... .. . ...
ROW 1C : ... .. . ... : ... .. . ... : ... .. . ... : ... .. . ... : D-3 00 . ...
ROW 1D : G-3 02 . ... : A-3 02 . ... : A-2 18 . ... : A-# 1B . ... : ... .. . ...
ROW 1E : ... .. . ... : ... .. . ... : ... .. . ... : ... .. . ... : ... .. . ...
ROW 1F : A-3 02 . ... : G-3 02 . ... : A-2 18 . ... : ... .. . ... : ... .. . ...
ROW 20 : ... .. . ... : ... .. . ... : ... .. . ... : ... .. . ... : C-3 00 . ...
ROW 21 : G-3 02 . ... : E-3 02 . ... : G-2 18 . ... : ... .. . ... : ... .. . ...
ROW 22 : ... .. . ... : ... .. . ... : ... .. . ... : ... .. . ... : ... .. . ...
ROW 23 : E-3 02 . ... : G-3 02 . ... : A-2 18 . ... : ... .. . ... : ... .. . ...
ROW 24 : ... .. . ... : ... .. . ... : ... .. . ... : ... .. . ... : D-3 00 . ...
ROW 25 : G-3 02 . ... : A-3 02 . ... : A-2 18 . ... : A-# 1B . ... : ... .. . ...
ROW 26 : ... .. . ... : ... .. . ... : ... .. . ... : ... .. . ... : C-3 00 . ...
ROW 27 : A-3 02 . ... : G-3 02 . ... : A-2 18 . ... : ... .. . ... : ... .. . ...
ROW 28 : ... .. . ... : ... .. . ... : ... .. . ... : ... .. . ... : ... .. . ...
ROW 29 : G-3 02 . ... : B-3 02 . ... : A-2 18 . ... : ... .. . ... : ... .. . ...
ROW 2A : ... .. . ... : ... .. . ... : ... .. . ... : ... .. . ... : C-3 00 . ...
ROW 2B : B-3 02 . ... : ... .. . ... : ... .. . ... : ... .. . ... : ... .. . ...
ROW 2C : ... .. . ... : ... .. . ... : ... .. . ... : ... .. . ... : D-3 00 . ...
ROW 2D : ... .. . ... : E-3 02 . ... : A-2 18 . ... : A-# 1B . ... : ... .. . ...
ROW 2E : ... .. . ... : ... .. . ... : ... .. . ... : ... .. . ... : ... .. . ...
ROW 2F : E-3 02 . ... : G-3 02 . ... : A-2 18 . ... : ... .. . ... : ... .. . ...
ROW 30 : ... .. . ... : ... .. . ... : ... .. . ... : ... .. . ... : E-3 00 . W0A
ROW 31 : G-3 02 . ... : A-3 02 . ... : D-3 18 . ... : ... .. . ... : ... .. . ...
ROW 32 : ... .. . ... : ... .. . ... : ... .. . ... : ... .. . ... : E-3 00 . W09
ROW 33 : A-3 02 . ... : G-3 02 . ... : ... .. . ... : ... .. . ... : ... .. . ...
ROW 34 : ... .. . ... : ... .. . ... : ... .. . ... : ... .. . ... : E-3 00 . W08
ROW 35 : G-3 02 . ... : B-3 02 . ... : D-3 18 . ... : ... .. . ... : ... .. . ...
ROW 36 : ... .. . ... : ... .. . ... : ... .. . ... : ... .. . ... : E-3 00 . W0A
ROW 37 : B-3 02 . ... : ... .. . ... : C#3 18 . ... : ... .. . ... : ... .. . ...
ROW 38 : ... .. . ... : ... .. . ... : ... .. . ... : ... .. . ... : E-3 00 . W09
ROW 39 : ... .. . ... : C-4 02 . ... : ... .. . ... : ... .. . ... : ... .. . ...
ROW 3A : ... .. . ... : ... .. . ... : ... .. . ... : ... .. . ... : E-3 00 . W08
ROW 3B : C-4 02 . ... : B-4 02 . ... : C#3 18 . ... : ... .. . ... : ... .. . ...
ROW 3C : ... .. . ... : ... .. . ... : ... .. . ... : ... .. . ... : D-3 00 . ...
ROW 3D : B-4 02 . ... : C-4 02 . ... : C-3 18 . ... : A-# 1B . ... : ... .. . ...
ROW 3E : ... .. . ... : ... .. . ... : ... .. . ... : ... .. . ... : D-3 00 . ...
ROW 3F : C-4 02 . ... : B-3 02 . ... : ... .. . ... : A-# 1B . ... : ... .. . ...

PATTERN 03
ROW 00 : ... .. . ... : ... .. . ... : ... .. . ... : ... .. . ... : C-3 00 . ...
ROW 01 : B-3 02 . ... : F#3 02 . ... : A-2 18 . ... : ... .. . ... : ... .. . ...
ROW 02 : ... .. . ... : ... .. . ... : ... .. . ... : ... .. . ... : ... .. . ...
ROW 03 : F#3 02 . ... : A-3 02 . ... : B-2 18 . ... : ... .. . ... : ... .. . ...
ROW 04 : ... .. . ... : ... .. . ... : ... .. . ... : ... .. . ... : D-3 00 . ...
ROW 05 : A-3 02 . ... : B-3 02 . ... : B-2 18 . ... : A-# 1B . ... : ... .. . ...
ROW 06 : ... .. . ... : ... .. . ... : ... .. . ... : ... .. . ... : C-3 00 . ...
ROW 07 : B-3 02 . ... : A-3 02 . ... : B-2 18 . ... : ... .. . ... : ... .. . ...
ROW 08 : ... .. . ... : ... .. . ... : ... .. . ... : ... .. . ... : ... .. . ...
ROW 09 : A-3 02 . ... : C#4 02 . ... : B-2 18 . ... : ... .. . ... : ... .. . ...
ROW 0A : ... .. . ... : ... .. . ... : ... .. . ... : ... .. . ... : C-3 00 . ...
ROW 0B : C#4 02 . ... : ... .. . ... : ... .. . ... : ... .. . ... : ... .. . ...
ROW 0C : ... .. . ... : ... .. . ... : ... .. . ... : ... .. . ... : D-3 00 . ...
ROW 0D : ... .. . ... : F#3 02 . ... : A-2 18 . ... : A-# 1B . ... : ... .. . ...
ROW 0E : ... .. . ... : ... .. . ... : ... .. . ... : ... .. . ... : ... .. . ...
ROW 0F : F#3 02 . ... : A-3 02 . ... : B-2 18 . ... : ... .. . ... : ... .. . ...
ROW 10 : ... .. . ... : ... .. . ... : ... .. . ... : ... .. . ... : C-3 00 . ...
ROW 11 : A-3 02 . ... : B-3 02 . ... : B-2 18 . ... : ... .. . ... : ... .. . ...
ROW 12 : ... .. . ... : ... .. . ... : ... .. . ... : ... .. . ... : ... .. . ...
ROW 13 : B-3 02 . ... : A-3 02 . ... : B-2 18 . ... : ... .. . ... : ... .. . ...
ROW 14 : ... .. . ... : ... .. . ... : ... .. . ... : ... .. . ... : D-3 00 . ...
ROW 15 : A-3 02 . ... : C#4 02 . ... : B-2 18 . ... : A-# 1B . ... : ... .. . ...
ROW 16 : ... .. . ... : ... .. . ... : ... .. . ... : ... .. . ... : C-3 00 . ...
ROW 17 : C#4 02 . ... : ... .. . ... : ... .. . ... : ... .. . ... : ... .. . ...
ROW 18 : ... .. . ... : ... .. . ... : ... .. . ... : ... .. . ... : ... .. . ...
ROW 19 : ... .. . ... : F#3 02 . ... : A-2 18 . ... : ... .. . ... : ... .. . ...
ROW 1A : ... .. . ... : ... .. . ... : ... .. . ... : ... .. . ... : C-3 00 . ...
ROW 1B : F#3 02 . ... : A-3 02 . ... : B-2 18 . ... : ... .. . ... : ... .. . ...
ROW 1C : ... .. . ... : ... .. . ... : ... .. . ... : ... .. . ... : D-3 00 . ...
ROW 1D : A-3 02 . ... : B-3 02 . ... : B-2 18 . ... : A-# 1B . ... : ... .. . ...
ROW 1E : ... .. . ... : ... .. . ... : ... .. . ... : ... .. . ... : ... .. . ...
ROW 1F : B-3 02 . ... : A-3 02 . ... : B-2 18 . ... : ... .. . ... : ... .. . ...
ROW 20 : ... .. . ... : ... .. . ... : ... .. . ... : ... .. . ... : C-3 00 . ...
ROW 21 : A-3 02 . ... : F#3 02 . ... : A-2 18 . ... : ... .. . ... : ... .. . ...
ROW 22 : ... .. . ... : ... .. . ... : ... .. . ... : ... .. . ... : ... .. . ...
ROW 23 : F#3 02 . ... : A-3 02 . ... : B-2 18 . ... : ... .. . ... : ... .. . ...
ROW 24 : ... .. . ... : ... .. . ... : ... .. . ... : ... .. . ... : D-3 00 . ...
ROW 25 : A-3 02 . ... : B-3 02 . ... : B-2 18 . ... : A-# 1B . ... : ... .. . ...
ROW 26 : ... .. . ... : ... .. . ... : ... .. . ... : ... .. . ... : C-3 00 . ...
ROW 27 : B-3 02 . ... : A-3 02 . ... : B-2 18 . ... : ... .. . ... : ... .. . ...
ROW 28 : ... .. . ... : ... .. . ... : ... .. . ... : ... .. . ... : ... .. . ...
ROW 29 : A-3 02 . ... : C#4 02 . ... : B-2 18 . ... : ... .. . ... : ... .. . ...
ROW 2A : ... .. . ... : ... .. . ... : ... .. . ... : ... .. . ... : C-3 00 . ...
ROW 2B : C#4 02 . ... : ... .. . ... : ... .. . ... : ... .. . ... : ... .. . ...
ROW 2C : ... .. . ... : ... .. . ... : ... .. . ... : ... .. . ... : D-3 00 . ...
ROW 2D : ... .. . ... : F#3 02 . ... : B-2 18 . ... : A-# 1B . ... : ... .. . ...
ROW 2E : ... .. . ... : ... .. . ... : ... .. . ... : ... .. . ... : ... .. . ...
ROW 2F : F#3 02 . ... : A-3 02 . ... : B-2 18 . ... : ... .. . ... : ... .. . ...
ROW 30 : ... .. . ... : ... .. . ... : ... .. . ... : ... .. . ... : C-3 00 . ...
ROW 31 : A-3 02 . ... : B-3 02 . ... : E-3 18 . ... : ... .. . ... : ... .. . ...
ROW 32 : ... .. . ... : ... .. . ... : ... .. . ... : ... .. . ... : ... .. . ...
ROW 33 : B-3 02 . ... : A-3 02 . ... : ... .. . ... : ... .. . ... : ... .. . ...
ROW 34 : ... .. . ... : ... .. . ... : ... .. . ... : ... .. . ... : D-3 00 . ...
ROW 35 : A-3 02 . ... : C#4 02 . ... : E-3 18 . ... : A-# 1B . ... : ... .. . ...
ROW 36 : ... .. . ... : ... .. . ... : ... .. . ... : ... .. . ... : C-3 00 . ...
ROW 37 : C#4 02 . ... : ... .. . ... : D#3 18 . ... : ... .. . ... : ... .. . ...
ROW 38 : ... .. . ... : ... .. . ... : ... .. . ... : ... .. . ... : ... .. . ...
ROW 39 : ... .. . ... : D-4 02 . ... : ... .. . ... : ... .. . ... : ... .. . ...
ROW 3A : ... .. . ... : ... .. . ... : ... .. . ... : ... .. . ... : C-3 00 . ...
ROW 3B : D-4 02 . ... : C#5 02 . ... : D#3 18 . ... : ... .. . ... : ... .. . ...
ROW 3C : ... .. . ... : ... .. . ... : ... .. . ... : ... .. . ... : D-3 00 . ...
ROW 3D : C#5 02 . ... : D-4 02 . ... : D-3 18 . ... : A-# 1B . ... : ... .. . ...
ROW 3E : ... .. . ... : ... .. . ... : ... .. . ... : ... .. . ... : ... .. . ...
ROW 3F : D-4 02 . ... : C#4 02 . ... : ... .. . ... : ... .. . ... : ... .. . ...

PATTERN 04
ROW 00 : ... .. . ... : ... .. . ... : ... .. . ... : ... .. . ... : C-3 00 . ...
ROW 01 : C#4 02 . ... : F#3 02 . ... : A-2 18 . ... : ... .. . ... : ... .. . ...
ROW 02 : ... .. . ... : ... .. . ... : ... .. . ... : ... .. . ... : ... .. . ...
ROW 03 : F#3 02 . ... : A-3 02 . ... : B-2 18 . ... : ... .. . ... : ... .. . ...
ROW 04 : ... .. . ... : ... .. . ... : ... .. . ... : ... .. . ... : D-3 00 . ...
ROW 05 : A-3 02 . ... : B-3 02 . ... : B-2 18 . ... : A-# 1B . ... : ... .. . ...
ROW 06 : ... .. . ... : ... .. . ... : ... .. . ... : ... .. . ... : C-3 00 . ...
ROW 07 : B-3 02 . ... : A-3 02 . ... : B-2 18 . ... : ... .. . ... : ... .. . ...
ROW 08 : ... .. . ... : ... .. . ... : ... .. . ... : ... .. . ... : ... .. . ...
ROW 09 : A-3 02 . ... : C#4 02 . ... : B-2 18 . ... : ... .. . ... : ... .. . ...
ROW 0A : ... .. . ... : ... .. . ... : ... .. . ... : ... .. . ... : C-3 00 . ...
ROW 0B : C#4 02 . ... : ... .. . ... : ... .. . ... : ... .. . ... : ... .. . ...
ROW 0C : ... .. . ... : ... .. . ... : ... .. . ... : ... .. . ... : D-3 00 . ...
ROW 0D : ... .. . ... : F#3 02 . ... : A-2 18 . ... : A-# 1B . ... : ... .. . ...
ROW 0E : ... .. . ... : ... .. . ... : ... .. . ... : ... .. . ... : ... .. . ...
ROW 0F : F#3 02 . ... : A-3 02 . ... : B-2 18 . ... : ... .. . ... : ... .. . ...
ROW 10 : ... .. . ... : ... .. . ... : ... .. . ... : ... .. . ... : C-3 00 . ...
ROW 11 : A-3 02 . ... : B-3 02 . ... : B-2 18 . ... : ... .. . ... : ... .. . ...
ROW 12 : ... .. . ... : ... .. . ... : ... .. . ... : ... .. . ... : ... .. . ...
ROW 13 : B-3 02 . ... : A-3 02 . ... : B-2 18 . ... : ... .. . ... : ... .. . ...
ROW 14 : ... .. . ... : ... .. . ... : ... .. . ... : ... .. . ... : D-3 00 . ...
ROW 15 : A-3 02 . ... : C#4 02 . ... : B-2 18 . ... : A-# 1B . ... : ... .. . ...
ROW 16 : ... .. . ... : ... .. . ... : ... .. . ... : ... .. . ... : C-3 00 . ...
ROW 17 : C#4 02 . ... : ... .. . ... : ... .. . ... : ... .. . ... : ... .. . ...
ROW 18 : ... .. . ... : ... .. . ... : ... .. . ... : ... .. . ... : ... .. . ...
ROW 19 : ... .. . ... : F#3 02 . ... : A-2 18 . ... : ... .. . ... : ... .. . ...
ROW 1A : ... .. . ... : ... .. . ... : ... .. . ... : ... .. . ... : C-3 00 . ...
ROW 1B : F#3 02 . ... : A-3 02 . ... : B-2 18 . ... : ... .. . ... : ... .. . ...
ROW 1C : ... .. . ... : ... .. . ... : ... .. . ... : ... .. . ... : D-3 00 . ...
ROW 1D : A-3 02 . ... : B-3 02 . ... : B-2 18 . ... : A-# 1B . ... : ... .. . ...
ROW 1E : ... .. . ... : ... .. . ... : ... .. . ... : ... .. . ... : ... .. . ...
ROW 1F : B-3 02 . ... : A-3 02 . ... : B-2 18 . ... : ... .. . ... : ... .. . ...
ROW 20 : ... .. . ... : ... .. . ... : ... .. . ... : ... .. . ... : C-3 00 . ...
ROW 21 : A-3 02 . ... : F#3 02 . ... : A-2 18 . ... : ... .. . ... : ... .. . ...
ROW 22 : ... .. . ... : ... .. . ... : ... .. . ... : ... .. . ... : ... .. . ...
ROW 23 : F#3 02 . ... : A-3 02 . ... : B-2 18 . ... : ... .. . ... : ... .. . ...
ROW 24 : ... .. . ... : ... .. . ... : ... .. . ... : ... .. . ... : D-3 00 . ...
ROW 25 : A-3 02 . ... : B-3 02 . ... : B-2 18 . ... : A-# 1B . ... : ... .. . ...
ROW 26 : ... .. . ... : ... .. . ... : ... .. . ... : ... .. . ... : C-3 00 . ...
ROW 27 : B-3 02 . ... : A-3 02 . ... : B-2 18 . ... : ... .. . ... : ... .. . ...
ROW 28 : ... .. . ... : ... .. . ... : ... .. . ... : ... .. . ... : ... .. . ...
ROW 29 : A-3 02 . ... : C#4 02 . ... : B-2 18 . ... : ... .. . ... : ... .. . ...
ROW 2A : ... .. . ... : ... .. . ... : ... .. . ... : ... .. . ... : C-3 00 . ...
ROW 2B : C#4 02 . ... : ... .. . ... : ... .. . ... : ... .. . ... : ... .. . ...
ROW 2C : ... .. . ... : ... .. . ... : ... .. . ... : ... .. . ... : D-3 00 . ...
ROW 2D : ... .. . ... : F#3 02 . ... : B-2 18 . ... : A-# 1B . ... : ... .. . ...
ROW 2E : ... .. . ... : ... .. . ... : ... .. . ... : ... .. . ... : ... .. . ...
ROW 2F : F#3 02 . ... : A-3 02 . ... : B-2 18 . ... : ... .. . ... : ... .. . ...
ROW 30 : ... .. . ... : ... .. . ... : ... .. . ... : ... .. . ... : E-3 00 . W0A
ROW 31 : A-3 02 . ... : B-3 02 . ... : E-3 18 . ... : ... .. . ... : ... .. . ...
ROW 32 : ... .. . ... : ... .. . ... : ... .. . ... : ... .. . ... : E-3 00 . W09
ROW 33 : B-3 02 . ... : A-3 02 . ... : ... .. . ... : ... .. . ... : ... .. . ...
ROW 34 : ... .. . ... : ... .. . ... : ... .. . ... : ... .. . ... : E-3 00 . W08
ROW 35 : A-3 02 . ... : C#4 02 . ... : E-3 18 . ... : ... .. . ... : ... .. . ...
ROW 36 : ... .. . ... : ... .. . ... : ... .. . ... : ... .. . ... : E-3 00 . W0A
ROW 37 : C#4 02 . ... : ... .. . ... : D#3 18 . ... : ... .. . ... : ... .. . ...
ROW 38 : ... .. . ... : ... .. . ... : ... .. . ... : ... .. . ... : E-3 00 . W09
ROW 39 : ... .. . ... : D-4 02 . ... : ... .. . ... : ... .. . ... : ... .. . ...
ROW 3A : ... .. . ... : ... .. . ... : ... .. . ... : ... .. . ... : E-3 00 . W08
ROW 3B : D-4 02 . ... : C#5 02 . ... : D#3 18 . ... : ... .. . ... : ... .. . ...
ROW 3C : ... .. . ... : ... .. . ... : ... .. . ... : ... .. . ... : D-3 00 . ...
ROW 3D : C#5 02 . ... : D-4 02 . ... : D-3 18 . ... : A-# 1B . ... : ... .. . ...
ROW 3E : ... .. . ... : ... .. . ... : ... .. . ... : ... .. . ... : D-3 00 . ...
ROW 3F : D-4 02 . ... : C#4 02 . ... : ... .. . ... : A-# 1B . ... : ... .. . ...

PATTERN 05
ROW 00 : ... .. . ... : ... .. . ... : ... .. . ... : ... .. . ... : C-3 00 . ...
ROW 01 : C#4 02 . ... : E-3 02 . ... : G-2 18 . ... : ... .. . ... : ... .. . ...
ROW 02 : ... .. . ... : ... .. . ... : ... .. . ... : ... .. . ... : ... .. . ...
ROW 03 : E-3 02 . ... : G-3 02 . ... : A-2 18 . ... : ... .. . ... : ... .. . ...
ROW 04 : ... .. . ... : ... .. . ... : ... .. . ... : ... .. . ... : D-3 00 . ...
ROW 05 : G-3 02 . ... : A-3 02 . ... : A-2 18 . ... : A-# 1B . ... : ... .. . ...
ROW 06 : ... .. . ... : ... .. . ... : ... .. . ... : ... .. . ... : C-3 00 . ...
ROW 07 : A-3 02 . ... : G-3 02 . ... : A-2 18 . ... : ... .. . ... : ... .. . ...
ROW 08 : ... .. . ... : ... .. . ... : ... .. . ... : ... .. . ... : ... .. . ...
ROW 09 : G-3 02 . ... : B-3 02 . ... : A-2 18 . ... : ... .. . ... : ... .. . ...
ROW 0A : ... .. . ... : ... .. . ... : ... .. . ... : ... .. . ... : C-3 00 . ...
ROW 0B : B-3 02 . ... : ... .. . ... : ... .. . ... : ... .. . ... : ... .. . ...
ROW 0C : ... .. . ... : ... .. . ... : ... .. . ... : ... .. . ... : D-3 00 . ...
ROW 0D : ... .. . ... : E-3 02 . ... : G-2 18 . ... : A-# 1B . ... : ... .. . ...
ROW 0E : ... .. . ... : ... .. . ... : ... .. . ... : ... .. . ... : ... .. . ...
ROW 0F : E-3 02 . ... : G-3 02 . ... : A-2 18 . ... : ... .. . ... : ... .. . ...
ROW 10 : ... .. . ... : ... .. . ... : ... .. . ... : ... .. . ... : C-3 00 . ...
ROW 11 : G-3 02 . ... : A-3 02 . ... : A-2 18 . ... : ... .. . ... : ... .. . ...
ROW 12 : ... .. . ... : ... .. . ... : ... .. . ... : ... .. . ... : ... .. . ...
ROW 13 : A-3 02 . ... : G-3 02 . ... : A-2 18 . ... : ... .. . ... : ... .. . ...
ROW 14 : ... .. . ... : ... .. . ... : ... .. . ... : ... .. . ... : D-3 00 . ...
ROW 15 : G-3 02 . ... : B-3 02 . ... : A-2 18 . ... : A-# 1B . ... : ... .. . ...
ROW 16 : ... .. . ... : ... .. . ... : ... .. . ... : ... .. . ... : C-3 00 . ...
ROW 17 : B-3 02 . ... : ... .. . ... : ... .. . ... : ... .. . ... : ... .. . ...
ROW 18 : ... .. . ... : ... .. . ... : ... .. . ... : ... .. . ... : ... .. . ...
ROW 19 : ... .. . ... : E-3 02 . ... : G-2 18 . ... : ... .. . ... : ... .. . ...
ROW 1A : ... .. . ... : ... .. . ... : ... .. . ... : ... .. . ... : C-3 00 . ...
ROW 1B : E-3 02 . ... : G-3 02 . ... : A-2 18 . ... : ... .. . ... : ... .. . ...
ROW 1C : ... .. . ... : ... .. . ... : ... .. . ... : ... .. . ... : D-3 00 . ...
ROW 1D : G-3 02 . ... : A-3 02 . ... : A-2 18 . ... : A-# 1B . ... : ... .. . ...
ROW 1E : ... .. . ... : ... .. . ... : ... .. . ... : ... .. . ... : ... .. . ...
ROW 1F : A-3 02 . ... : G-3 02 . ... : A-2 18 . ... : ... .. . ... : ... .. . ...
ROW 20 : ... .. . ... : ... .. . ... : ... .. . ... : ... .. . ... : C-3 00 . ...
ROW 21 : G-3 02 . ... : E-3 02 . ... : G-2 18 . ... : ... .. . ... : ... .. . ...
ROW 22 : ... .. . ... : ... .. . ... : ... .. . ... : ... .. . ... : ... .. . ...
ROW 23 : E-3 02 . ... : G-3 02 . ... : A-2 18 . ... : ... .. . ... : ... .. . ...
ROW 24 : ... .. . ... : ... .. . ... : ... .. . ... : ... .. . ... : D-3 00 . ...
ROW 25 : G-3 02 . ... : A-3 02 . ... : A-2 18 . ... : A-# 1B . ... : ... .. . ...
ROW 26 : ... .. . ... : ... .. . ... : ... .. . ... : ... .. . ... : C-3 00 . ...
ROW 27 : A-3 02 . ... : G-3 02 . ... : A-2 18 . ... : ... .. . ... : ... .. . ...
ROW 28 : ... .. . ... : ... .. . ... : ... .. . ... : ... .. . ... : ... .. . ...
ROW 29 : G-3 02 . ... : B-3 02 . ... : A-2 18 . ... : ... .. . ... : ... .. . ...
ROW 2A : ... .. . ... : ... .. . ... : ... .. . ... : ... .. . ... : C-3 00 . ...
ROW 2B : B-3 02 . ... : ... .. . ... : ... .. . ... : ... .. . ... : ... .. . ...
ROW 2C : ... .. . ... : ... .. . ... : ... .. . ... : ... .. . ... : D-3 00 . ...
ROW 2D : ... .. . ... : E-3 02 . ... : A-2 18 . ... : A-# 1B . ... : ... .. . ...
ROW 2E : ... .. . ... : ... .. . ... : ... .. . ... : ... .. . ... : ... .. . ...
ROW 2F : E-3 02 . ... : G-3 02 . ... : A-2 18 . ... : ... .. . ... : ... .. . ...
ROW 30 : ... .. . ... : ... .. . ... : ... .. . ... : ... .. . ... : C-3 00 . ...
ROW 31 : G-3 02 . ... : A-3 02 . ... : D-3 18 . ... : ... .. . ... : ... .. . ...
ROW 32 : ... .. . ... : ... .. . ... : ... .. . ... : ... .. . ... : ... .. . ...
ROW 33 : A-3 02 . ... : G-3 02 . ... : ... .. . ... : ... .. . ... : ... .. . ...
ROW 34 : ... .. . ... : ... .. . ... : ... .. . ... : ... .. . ... : D-3 00 . ...
ROW 35 : G-3 02 . ... : B-3 02 . ... : D-3 18 . ... : A-# 1B . ... : ... .. . ...
ROW 36 : ... .. . ... : ... .. . ... : ... .. . ... : ... .. . ... : C-3 00 . ...
ROW 37 : B-3 02 . ... : ... .. . ... : C#3 18 . ... : ... .. . ... : ... .. . ...
ROW 38 : ... .. . ... : ... .. . ... : ... .. . ... : ... .. . ... : ... .. . ...
ROW 39 : ... .. . ... : C-4 02 . ... : ... .. . ... : ... .. . ... : ... .. . ...
ROW 3A : ... .. . ... : ... .. . ... : ... .. . ... : ... .. . ... : C-3 00 . ...
ROW 3B : C-4 02 . ... : B-4 02 . ... : C#3 18 . ... : ... .. . ... : ... .. . ...
ROW 3C : ... .. . ... : ... .. . ... : ... .. . ... : ... .. . ... : D-3 00 . ...
ROW 3D : B-4 02 . ... : C-4 02 . ... : C-3 18 . ... : A-# 1B . ... : ... .. . ...
ROW 3E : ... .. . ... : ... .. . ... : ... .. . ... : ... .. . ... : ... .. . ...
ROW 3F : C-4 02 . ... : B-3 02 . ... : ... .. . ... : ... .. . ... : ... .. . ...

PATTERN 06
ROW 00 : ... .. . ... : ... .. . ... : ... .. . ... : ... .. . ... : C-3 00 . ...
ROW 01 : B-3 02 . ... : E-3 02 . ... : G-2 18 . ... : ... .. . ... : ... .. . ...
ROW 02 : ... .. . ... : ... .. . ... : ... .. . ... : ... .. . ... : ... .. . ...
ROW 03 : E-3 02 . ... : G-3 02 . ... : A-2 18 . ... : ... .. . ... : ... .. . ...
ROW 04 : ... .. . ... : ... .. . ... : ... .. . ... : ... .. . ... : D-3 00 . ...
ROW 05 : G-3 02 . ... : A-3 02 . ... : A-2 18 . ... : A-# 1B . ... : ... .. . ...
ROW 06 : ... .. . ... : ... .. . ... : ... .. . ... : ... .. . ... : C-3 00 . ...
ROW 07 : A-3 02 . ... : G-3 02 . ... : A-2 18 . ... : ... .. . ... : ... .. . ...
ROW 08 : ... .. . ... : ... .. . ... : ... .. . ... : ... .. . ... : ... .. . ...
ROW 09 : G-3 02 . ... : B-3 02 . ... : A-2 18 . ... : ... .. . ... : ... .. . ...
ROW 0A : ... .. . ... : ... .. . ... : ... .. . ... : ... .. . ... : C-3 00 . ...
ROW 0B : B-3 02 . ... : ... .. . ... : ... .. . ... : ... .. . ... : ... .. . ...
ROW 0C : ... .. . ... : ... .. . ... : ... .. . ... : ... .. . ... : D-3 00 . ...
ROW 0D : ... .. . ... : E-3 02 . ... : G-2 18 . ... : A-# 1B . ... : ... .. . ...
ROW 0E : ... .. . ... : ... .. . ... : ... .. . ... : ... .. . ... : ... .. . ...
ROW 0F : E-3 02 . ... : G-3 02 . ... : A-2 18 . ... : ... .. . ... : ... .. . ...
ROW 10 : ... .. . ... : ... .. . ... : ... .. . ... : ... .. . ... : C-3 00 . ...
ROW 11 : G-3 02 . ... : A-3 02 . ... : A-2 18 . ... : ... .. . ... : ... .. . ...
ROW 12 : ... .. . ... : ... .. . ... : ... .. . ... : ... .. . ... : ... .. . ...
ROW 13 : A-3 02 . ... : G-3 02 . ... : A-2 18 . ... : ... .. . ... : ... .. . ...
ROW 14 : ... .. . ... : ... .. . ... : ... .. . ... : ... .. . ... : D-3 00 . ...
ROW 15 : G-3 02 . ... : B-3 02 . ... : A-2 18 . ... : A-# 1B . ... : ... .. . ...
ROW 16 : ... .. . ... : ... .. . ... : ... .. . ... : ... .. . ... : C-3 00 . ...
ROW 17 : B-3 02 . ... : ... .. . ... : ... .. . ... : ... .. . ... : ... .. . ...
ROW 18 : ... .. . ... : ... .. . ... : ... .. . ... : ... .. . ... : ... .. . ...
ROW 19 : ... .. . ... : E-3 02 . ... : G-2 18 . ... : ... .. . ... : ... .. . ...
ROW 1A : ... .. . ... : ... .. . ... : ... .. . ... : ... .. . ... : C-3 00 . ...
ROW 1B : E-3 02 . ... : G-3 02 . ... : A-2 18 . ... : ... .. . ... : ... .. . ...
ROW 1C : ... .. . ... : ... .. . ... : ... .. . ... : ... .. . ... : D-3 00 . ...
ROW 1D : G-3 02 . ... : A-3 02 . ... : A-2 18 . ... : A-# 1B . ... : ... .. . ...
ROW 1E : ... .. . ... : ... .. . ... : ... .. . ... : ... .. . ... : ... .. . ...
ROW 1F : A-3 02 . ... : G-3 02 . ... : A-2 18 . ... : ... .. . ... : ... .. . ...
ROW 20 : ... .. . ... : ... .. . ... : ... .. . ... : ... .. . ... : C-3 00 . ...
ROW 21 : G-3 02 . ... : E-3 02 . ... : G-2 18 . ... : ... .. . ... : ... .. . ...
ROW 22 : ... .. . ... : ... .. . ... : ... .. . ... : ... .. . ... : ... .. . ...
ROW 23 : E-3 02 . ... : G-3 02 . ... : A-2 18 . ... : ... .. . ... : ... .. . ...
ROW 24 : ... .. . ... : ... .. . ... : ... .. . ... : ... .. . ... : D-3 00 . ...
ROW 25 : G-3 02 . ... : A-3 02 . ... : A-2 18 . ... : A-# 1B . ... : ... .. . ...
ROW 26 : ... .. . ... : ... .. . ... : ... .. . ... : ... .. . ... : C-3 00 . ...
ROW 27 : A-3 02 . ... : G-3 02 . ... : A-2 18 . ... : ... .. . ... : ... .. . ...
ROW 28 : ... .. . ... : ... .. . ... : ... .. . ... : ... .. . ... : ... .. . ...
ROW 29 : G-3 02 . ... : B-3 02 . ... : A-2 18 . ... : ... .. . ... : ... .. . ...
ROW 2A : ... .. . ... : ... .. . ... : ... .. . ... : ... .. . ... : C-3 00 . ...
ROW 2B : B-3 02 . ... : ... .. . ... : ... .. . ... : ... .. . ... : ... .. . ...
ROW 2C : ... .. . ... : ... .. . ... : ... .. . ... : ... .. . ... : D-3 00 . ...
ROW 2D : ... .. . ... : E-3 02 . ... : A-2 18 . ... : A-# 1B . ... : ... .. . ...
ROW 2E : ... .. . ... : ... .. . ... : ... .. . ... : ... .. . ... : ... .. . ...
ROW 2F : E-3 02 . ... : G-3 02 . ... : A-2 18 . ... : ... .. . ... : ... .. . ...
ROW 30 : ... .. . ... : ... .. . ... : ... .. . ... : ... .. . ... : E-3 00 . W0A
ROW 31 : G-3 02 . ... : A-3 02 . ... : D-3 18 . ... : ... .. . ... : ... .. . ...
ROW 32 : ... .. . ... : ... .. . ... : ... .. . ... : ... .. . ... : E-3 00 . W09
ROW 33 : A-3 02 . ... : G-3 02 . ... : ... .. . ... : ... .. . ... : ... .. . ...
ROW 34 : ... .. . ... : ... .. . ... : ... .. . ... : ... .. . ... : E-3 00 . W08
ROW 35 : G-3 02 . ... : B-3 02 . ... : D-3 18 . ... : ... .. . ... : ... .. . ...
ROW 36 : ... .. . ... : ... .. . ... : ... .. . ... : ... .. . ... : E-3 00 . W0A
ROW 37 : B-3 02 . ... : ... .. . ... : C#3 18 . ... : ... .. . ... : ... .. . ...
ROW 38 : ... .. . ... : ... .. . ... : ... .. . ... : ... .. . ... : E-3 00 . W09
ROW 39 : ... .. . ... : C-4 02 . ... : ... .. . ... : ... .. . ... : ... .. . ...
ROW 3A : ... .. . ... : ... .. . ... : ... .. . ... : ... .. . ... : E-3 00 . W08
ROW 3B : C-4 02 . ... : B-4 02 . ... : C#3 18 . ... : ... .. . ... : ... .. . ...
ROW 3C : ... .. . ... : ... .. . ... : ... .. . ... : ... .. . ... : D-3 00 . ...
ROW 3D : B-4 02 . ... : C-4 02 . ... : C-3 18 . ... : A-# 1B . ... : ... .. . ...
ROW 3E : ... .. . ... : ... .. . ... : ... .. . ... : ... .. . ... : D-3 00 . ...
ROW 3F : C-4 02 . ... : B-3 02 . ... : ... .. . ... : A-# 1B . ... : ... .. . ...

PATTERN 07
ROW 00 : ... .. . ... : ... .. . ... : ... .. . ... : ... .. . ... : C-3 00 . ...
ROW 01 : B-3 02 . ... : F#3 02 . ... : A-2 18 . ... : ... .. . ... : ... .. . ...
ROW 02 : ... .. . ... : ... .. . ... : ... .. . ... : ... .. . ... : ... .. . ...
ROW 03 : F#3 02 . ... : A-3 02 . ... : B-2 18 . ... : ... .. . ... : ... .. . ...
ROW 04 : ... .. . ... : ... .. . ... : ... .. . ... : ... .. . ... : D-3 00 . ...
ROW 05 : A-3 02 . ... : B-3 02 . ... : B-2 18 . ... : A-# 1B . ... : ... .. . ...
ROW 06 : ... .. . ... : ... .. . ... : ... .. . ... : ... .. . ... : C-3 00 . ...
ROW 07 : B-3 02 . ... : A-3 02 . ... : B-2 18 . ... : ... .. . ... : ... .. . ...
ROW 08 : ... .. . ... : ... .. . ... : ... .. . ... : ... .. . ... : ... .. . ...
ROW 09 : A-3 02 . ... : C#4 02 . ... : B-2 18 . ... : ... .. . ... : ... .. . ...
ROW 0A : ... .. . ... : ... .. . ... : ... .. . ... : ... .. . ... : C-3 00 . ...
ROW 0B : C#4 02 . ... : ... .. . ... : ... .. . ... : ... .. . ... : ... .. . ...
ROW 0C : ... .. . ... : ... .. . ... : ... .. . ... : ... .. . ... : D-3 00 . ...
ROW 0D : ... .. . ... : F#3 02 . ... : A-2 18 . ... : A-# 1B . ... : ... .. . ...
ROW 0E : ... .. . ... : ... .. . ... : ... .. . ... : ... .. . ... : ... .. . ...
ROW 0F : F#3 02 . ... : A-3 02 . ... : B-2 18 . ... : ... .. . ... : ... .. . ...
ROW 10 : ... .. . ... : ... .. . ... : ... .. . ... : ... .. . ... : C-3 00 . ...
ROW 11 : A-3 02 . ... : B-3 02 . ... : B-2 18 . ... : ... .. . ... : ... .. . ...
ROW 12 : ... .. . ... : ... .. . ... : ... .. . ... : ... .. . ... : ... .. . ...
ROW 13 : B-3 02 . ... : A-3 02 . ... : B-2 18 . ... : ... .. . ... : ... .. . ...
ROW 14 : ... .. . ... : ... .. . ... : ... .. . ... : ... .. . ... : D-3 00 . ...
ROW 15 : A-3 02 . ... : C#4 02 . ... : B-2 18 . ... : A-# 1B . ... : ... .. . ...
ROW 16 : ... .. . ... : ... .. . ... : ... .. . ... : ... .. . ... : C-3 00 . ...
ROW 17 : C#4 02 . ... : ... .. . ... : ... .. . ... : ... .. . ... : ... .. . ...
ROW 18 : ... .. . ... : ... .. . ... : ... .. . ... : ... .. . ... : ... .. . ...
ROW 19 : ... .. . ... : F#3 02 . ... : A-2 18 . ... : ... .. . ... : ... .. . ...
ROW 1A : ... .. . ... : ... .. . ... : ... .. . ... : ... .. . ... : C-3 00 . ...
ROW 1B : F#3 02 . ... : A-3 02 . ... : B-2 18 . ... : ... .. . ... : ... .. . ...
ROW 1C : ... .. . ... : ... .. . ... : ... .. . ... : ... .. . ... : D-3 00 . ...
ROW 1D : A-3 02 . ... : B-3 02 . ... : B-2 18 . ... : A-# 1B . ... : ... .. . ...
ROW 1E : ... .. . ... : ... .. . ... : ... .. . ... : ... .. . ... : ... .. . ...
ROW 1F : B-3 02 . ... : A-3 02 . ... : B-2 18 . ... : ... .. . ... : ... .. . ...
ROW 20 : ... .. . ... : ... .. . ... : ... .. . ... : ... .. . ... : C-3 00 . ...
ROW 21 : A-3 02 . ... : F#3 02 . ... : A-2 18 . ... : ... .. . ... : ... .. . ...
ROW 22 : ... .. . ... : ... .. . ... : ... .. . ... : ... .. . ... : ... .. . ...
ROW 23 : F#3 02 . ... : A-3 02 . ... : B-2 18 . ... : ... .. . ... : ... .. . ...
ROW 24 : ... .. . ... : ... .. . ... : ... .. . ... : ... .. . ... : D-3 00 . ...
ROW 25 : A-3 02 . ... : B-3 02 . ... : B-2 18 . ... : A-# 1B . ... : ... .. . ...
ROW 26 : ... .. . ... : ... .. . ... : ... .. . ... : ... .. . ... : C-3 00 . ...
ROW 27 : B-3 02 . ... : A-3 02 . ... : B-2 18 . ... : ... .. . ... : ... .. . ...
ROW 28 : ... .. . ... : ... .. . ... : ... .. . ... : ... .. . ... : ... .. . ...
ROW 29 : A-3 02 . ... : C#4 02 . ... : B-2 18 . ... : ... .. . ... : ... .. . ...
ROW 2A : ... .. . ... : ... .. . ... : ... .. . ... : ... .. . ... : C-3 00 . ...
ROW 2B : C#4 02 . ... : ... .. . ... : ... .. . ... : ... .. . ... : ... .. . ...
ROW 2C : ... .. . ... : ... .. . ... : ... .. . ... : ... .. . ... : D-3 00 . ...
ROW 2D : ... .. . ... : F#3 02 . ... : B-2 18 . ... : A-# 1B . ... : ... .. . ...
ROW 2E : ... .. . ... : ... .. . ... : ... .. . ... : ... .. . ... : ... .. . ...
ROW 2F : F#3 02 . ... : A-3 02 . ... : B-2 18 . ... : ... .. . ... : ... .. . ...
ROW 30 : ... .. . ... : ... .. . ... : ... .. . ... : ... .. . ... : C-3 00 . ...
ROW 31 : A-3 02 . ... : B-3 02 . ... : E-3 18 . ... : ... .. . ... : ... .. . ...
ROW 32 : ... .. . ... : ... .. . ... : ... .. . ... : ... .. . ... : ... .. . ...
ROW 33 : B-3 02 . ... : A-3 02 . ... : ... .. . ... : ... .. . ... : ... .. . ...
ROW 34 : ... .. . ... : ... .. . ... : ... .. . ... : ... .. . ... : D-3 00 . ...
ROW 35 : A-3 02 . ... : C#4 02 . ... : E-3 18 . ... : A-# 1B . ... : ... .. . ...
ROW 36 : ... .. . ... : ... .. . ... : ... .. . ... : ... .. . ... : C-3 00 . ...
ROW 37 : C#4 02 . ... : ... .. . ... : D#3 18 . ... : ... .. . ... : ... .. . ...
ROW 38 : ... .. . ... : ... .. . ... : ... .. . ... : ... .. . ... : ... .. . ...
ROW 39 : ... .. . ... : D-4 02 . ... : ... .. . ... : ... .. . ... : ... .. . ...
ROW 3A : ... .. . ... : ... .. . ... : ... .. . ... : ... .. . ... : C-3 00 . ...
ROW 3B : D-4 02 . ... : C#5 02 . ... : D#3 18 . ... : ... .. . ... : ... .. . ...
ROW 3C : ... .. . ... : ... .. . ... : ... .. . ... : ... .. . ... : D-3 00 . ...
ROW 3D : C#5 02 . ... : D-4 02 . ... : D-3 18 . ... : A-# 1B . ... : ... .. . ...
ROW 3E : ... .. . ... : ... .. . ... : ... .. . ... : ... .. . ... : ... .. . ...
ROW 3F : D-4 02 . ... : C#4 02 . ... : ... .. . ... : ... .. . ... : ... .. . ...

PATTERN 08
ROW 00 : ... .. . ... : ... .. . ... : ... .. . ... : ... .. . ... : C-3 00 . ...
ROW 01 : C#4 02 . ... : F#3 02 . ... : A-2 18 . ... : ... .. . ... : ... .. . ...
ROW 02 : ... .. . ... : ... .. . ... : ... .. . ... : ... .. . ... : ... .. . ...
ROW 03 : F#3 02 . ... : A-3 02 . ... : B-2 18 . ... : ... .. . ... : ... .. . ...
ROW 04 : ... .. . ... : ... .. . ... : ... .. . ... : ... .. . ... : D-3 00 . ...
ROW 05 : A-3 02 . ... : B-3 02 . ... : B-2 18 . ... : A-# 1B . ... : ... .. . ...
ROW 06 : ... .. . ... : ... .. . ... : ... .. . ... : ... .. . ... : C-3 00 . ...
ROW 07 : B-3 02 . ... : A-3 02 . ... : B-2 18 . ... : ... .. . ... : ... .. . ...
ROW 08 : ... .. . ... : ... .. . ... : ... .. . ... : ... .. . ... : ... .. . ...
ROW 09 : A-3 02 . ... : C#4 02 . ... : B-2 18 . ... : ... .. . ... : ... .. . ...
ROW 0A : ... .. . ... : ... .. . ... : ... .. . ... : ... .. . ... : C-3 00 . ...
ROW 0B : C#4 02 . ... : ... .. . ... : ... .. . ... : ... .. . ... : ... .. . ...
ROW 0C : ... .. . ... : ... .. . ... : ... .. . ... : ... .. . ... : D-3 00 . ...
ROW 0D : ... .. . ... : F#3 02 . ... : A-2 18 . ... : A-# 1B . ... : ... .. . ...
ROW 0E : ... .. . ... : ... .. . ... : ... .. . ... : ... .. . ... : ... .. . ...
ROW 0F : F#3 02 . ... : A-3 02 . ... : B-2 18 . ... : ... .. . ... : ... .. . ...
ROW 10 : ... .. . ... : ... .. . ... : ... .. . ... : ... .. . ... : C-3 00 . ...
ROW 11 : A-3 02 . ... : B-3 02 . ... : B-2 18 . ... : ... .. . ... : ... .. . ...
ROW 12 : ... .. . ... : ... .. . ... : ... .. . ... : ... .. . ... : ... .. . ...
ROW 13 : B-3 02 . ... : A-3 02 . ... : B-2 18 . ... : ... .. . ... : ... .. . ...
ROW 14 : ... .. . ... : ... .. . ... : ... .. . ... : ... .. . ... : D-3 00 . ...
ROW 15 : A-3 02 . ... : C#4 02 . ... : B-2 18 . ... : A-# 1B . ... : ... .. . ...
ROW 16 : ... .. . ... : ... .. . ... : ... .. . ... : ... .. . ... : C-3 00 . ...
ROW 17 : C#4 02 . ... : ... .. . ... : ... .. . ... : ... .. . ... : ... .. . ...
ROW 18 : ... .. . ... : ... .. . ... : ... .. . ... : ... .. . ... : ... .. . ...
ROW 19 : ... .. . ... : F#3 02 . ... : A-2 18 . ... : ... .. . ... : ... .. . ...
ROW 1A : ... .. . ... : ... .. . ... : ... .. . ... : ... .. . ... : C-3 00 . ...
ROW 1B : F#3 02 . ... : A-3 02 . ... : B-2 18 . ... : ... .. . ... : ... .. . ...
ROW 1C : ... .. . ... : ... .. . ... : ... .. . ... : ... .. . ... : D-3 00 . ...
ROW 1D : A-3 02 . ... : B-3 02 . ... : B-2 18 . ... : A-# 1B . ... : ... .. . ...
ROW 1E : ... .. . ... : ... .. . ... : ... .. . ... : ... .. . ... : ... .. . ...
ROW 1F : B-3 02 . ... : A-3 02 . ... : B-2 18 . ... : ... .. . ... : ... .. . ...
ROW 20 : ... .. . ... : ... .. . ... : ... .. . ... : ... .. . ... : C-3 00 . ...
ROW 21 : A-3 02 . ... : F#3 02 . ... : A-2 18 . ... : ... .. . ... : ... .. . ...
ROW 22 : ... .. . ... : ... .. . ... : ... .. . ... : ... .. . ... : ... .. . ...
ROW 23 : F#3 02 . ... : A-3 02 . ... : B-2 18 . ... : ... .. . ... : ... .. . ...
ROW 24 : ... .. . ... : ... .. . ... : ... .. . ... : ... .. . ... : D-3 00 . ...
ROW 25 : A-3 02 . ... : B-3 02 . ... : B-2 18 . ... : A-# 1B . ... : ... .. . ...
ROW 26 : ... .. . ... : ... .. . ... : ... .. . ... : ... .. . ... : C-3 00 . ...
ROW 27 : B-3 02 . ... : A-3 02 . ... : B-2 18 . ... : ... .. . ... : ... .. . ...
ROW 28 : ... .. . ... : ... .. . ... : ... .. . ... : ... .. . ... : ... .. . ...
ROW 29 : A-3 02 . ... : C#4 02 . ... : B-2 18 . ... : ... .. . ... : ... .. . ...
ROW 2A : ... .. . ... : ... .. . ... : ... .. . ... : ... .. . ... : C-3 00 . ...
ROW 2B : C#4 02 . ... : ... .. . ... : ... .. . ... : ... .. . ... : ... .. . ...
ROW 2C : ... .. . ... : ... .. . ... : ... .. . ... : ... .. . ... : D-3 00 . ...
ROW 2D : ... .. . ... : F#3 02 . ... : B-2 18 . ... : A-# 1B . ... : ... .. . ...
ROW 2E : ... .. . ... : ... .. . ... : ... .. . ... : ... .. . ... : ... .. . ...
ROW 2F : F#3 02 . ... : A-3 02 . ... : B-2 18 . ... : ... .. . ... : ... .. . ...
ROW 30 : ... .. . ... : ... .. . ... : ... .. . ... : ... .. . ... : E-3 00 . W0A
ROW 31 : A-3 02 . ... : B-3 02 . ... : E-3 18 . ... : ... .. . ... : ... .. . ...
ROW 32 : ... .. . ... : ... .. . ... : ... .. . ... : ... .. . ... : E-3 00 . W09
ROW 33 : B-3 02 . ... : A-3 02 . ... : ... .. . ... : ... .. . ... : ... .. . ...
ROW 34 : ... .. . ... : ... .. . ... : ... .. . ... : ... .. . ... : E-3 00 . W08
ROW 35 : A-3 02 . ... : C#4 02 . ... : E-3 18 . ... : ... .. . ... : ... .. . ...
ROW 36 : ... .. . ... : ... .. . ... : ... .. . ... : ... .. . ... : E-3 00 . W0A
ROW 37 : C#4 02 . ... : ... .. . ... : D#3 18 . ... : ... .. . ... : ... .. . ...
ROW 38 : ... .. . ... : ... .. . ... : ... .. . ... : ... .. . ... : E-3 00 . W09
ROW 39 : ... .. . ... : D-4 02 . ... : ... .. . ... : ... .. . ... : ... .. . ...
ROW 3A : ... .. . ... : ... .. . ... : ... .. . ... : ... .. . ... : E-3 00 . W08
ROW 3B : D-4 02 . ... : C#5 02 . ... : D#3 18 . ... : ... .. . ... : ... .. . ...
ROW 3C : ... .. . ... : ... .. . ... : ... .. . ... : ... .. . ... : D-3 00 . ...
ROW 3D : C#5 02 . ... : D-4 02 . ... : D-3 18 . ... : A-# 1B . ... : ... .. . ...
ROW 3E : ... .. . ... : ... .. . ... : ... .. . ... : ... .. . ... : D-3 00 . ...
ROW 3F : D-4 02 . ... : C#4 02 . ... : ... .. . ... : A-# 1B . ... : ... .. . ...

PATTERN 09
ROW 00 : ... .. . ... : ... .. . ... : ... .. . ... : ... .. . ... : E-3 00 . W0A
ROW 01 : C#4 02 . ... : F#2 02 . ... : F#2 18 . ... : ... .. . ... : ... .. . ...
ROW 02 : ... .. . ... : ... .. . ... : ... .. . ... : ... .. . ... : E-3 00 . W0A
ROW 03 : F#2 02 . ... : F#2 02 . ... : F#2 18 . ... : ... .. . ... : ... .. . ...
ROW 04 : ... .. . ... : ... .. . ... : ... .. . ... : ... .. . ... : E-3 00 . W09
ROW 05 : F#2 02 . ... : A-2 02 . ... : A-2 18 . ... : ... .. . ... : ... .. . ...
ROW 06 : ... .. . ... : ... .. . ... : ... .. . ... : ... .. . ... : E-3 00 . W09
ROW 07 : A-2 02 . ... : A-2 02 . ... : A-2 18 . ... : ... .. . ... : ... .. . ...
ROW 08 : ... .. . ... : ... .. . ... : ... .. . ... : ... .. . ... : E-3 00 . W08
ROW 09 : A-2 02 . ... : C#3 02 . ... : C#3 18 . ... : ... .. . ... : ... .. . ...
ROW 0A : ... .. . ... : ... .. . ... : ... .. . ... : ... .. . ... : E-3 00 . W08
ROW 0B : C#3 02 . ... : C#3 02 . ... : C#3 18 . ... : ... .. . ... : ... .. . ...
ROW 0C : ... .. . ... : ... .. . ... : ... .. . ... : ... .. . ... : E-3 00 . W0A
ROW 0D : C#3 02 . ... : A-2 02 . ... : A-2 18 . ... : ... .. . ... : ... .. . ...
ROW 0E : ... .. . ... : ... .. . ... : ... .. . ... : ... .. . ... : E-3 00 . W0A
ROW 0F : A-2 02 . ... : A-2 02 . ... : A-2 18 . ... : ... .. . ... : ... .. . ...
ROW 10 : ... .. . ... : ... .. . ... : ... .. . ... : ... .. . ... : E-3 00 . W09
ROW 11 : A-2 02 . ... : D-2 02 . ... : D-2 18 . ... : ... .. . ... : ... .. . ...
ROW 12 : ... .. . ... : ... .. . ... : ... .. . ... : ... .. . ... : E-3 00 . W09
ROW 13 : D-2 02 . ... : C#2 02 . ... : C#2 18 . ... : ... .. . ... : ... .. . ...
ROW 14 : ... .. . ... : ... .. . ... : ... .. . ... : ... .. . ... : E-3 00 . W08
ROW 15 : C#2 02 . ... : D-2 02 . ... : D-2 18 . ... : ... .. . ... : ... .. . ...
ROW 16 : ... .. . ... : ... .. . ... : ... .. . ... : ... .. . ... : E-3 00 . W08
ROW 17 : D-2 02 . ... : E-2 02 . ... : E-2 18 . ... : ... .. . ... : ... .. . ...
ROW 18 : ... .. . ... : ... .. . ... : ... .. . ... : ... .. . ... : C-3 00 . ...
ROW 19 : E-2 02 . ... : D-2 02 . ... : D-2 18 . ... : ... .. . ... : ... .. . ...
ROW 1A : ... .. . ... : ... .. . ... : ... .. . ... : ... .. . ... : C-3 00 . ...
ROW 1B : D-2 02 . ... : C#2 02 . ... : C#2 18 . ... : ... .. . ... : ... .. . ...
ROW 1C : ... .. . ... : ... .. . ... : ... .. . ... : ... .. . ... : D-3 00 . ...
ROW 1D : C#2 02 . ... : B-1 02 . ... : B-1 18 . ... : A-# 1B . ... : ... .. . ...
ROW 1E : ... .. . ... : ... .. . ... : ... .. . ... : ... .. . ... : D-3 00 . ...
ROW 1F : B-1 02 . ... : A-1 02 . ... : A-1 18 . ... : A-# 1B . ... : ... .. . ...
ROW 20 : ... .. . ... : ... .. . ... : ... .. . ... : ... .. . ... : E-3 00 . W0A
ROW 21 : A-1 02 . ... : E-2 02 . ... : E-2 18 . ... : ... .. . ... : ... .. . ...
ROW 22 : ... .. . ... : ... .. . ... : ... .. . ... : ... .. . ... : E-3 00 . W0A
ROW 23 : E-2 02 . ... : E-2 02 . ... : E-2 18 . ... : ... .. . ... : ... .. . ...
ROW 24 : ... .. . ... : ... .. . ... : ... .. . ... : ... .. . ... : E-3 00 . W09
ROW 25 : E-2 02 . ... : G-2 02 . ... : G-2 18 . ... : ... .. . ... : ... .. . ...
ROW 26 : ... .. . ... : ... .. . ... : ... .. . ... : ... .. . ... : E-3 00 . W09
ROW 27 : G-2 02 . ... : G-2 02 . ... : G-2 18 . ... : ... .. . ... : ... .. . ...
ROW 28 : ... .. . ... : ... .. . ... : ... .. . ... : ... .. . ... : E-3 00 . W08
ROW 29 : G-2 02 . ... : B-2 02 . ... : B-2 18 . ... : ... .. . ... : ... .. . ...
ROW 2A : ... .. . ... : ... .. . ... : ... .. . ... : ... .. . ... : E-3 00 . W08
ROW 2B : B-2 02 . ... : B-2 02 . ... : B-2 18 . ... : ... .. . ... : ... .. . ...
ROW 2C : ... .. . ... : ... .. . ... : ... .. . ... : ... .. . ... : E-3 00 . W0A
ROW 2D : B-2 02 . ... : G-2 02 . ... : G-2 18 . ... : ... .. . ... : ... .. . ...
ROW 2E : ... .. . ... : ... .. . ... : ... .. . ... : ... .. . ... : E-3 00 . W0A
ROW 2F : G-2 02 . ... : G-2 02 . ... : G-2 18 . ... : ... .. . ... : ... .. . ...
ROW 30 : ... .. . ... : ... .. . ... : ... .. . ... : ... .. . ... : E-3 00 . W09
ROW 31 : G-2 02 . ... : C-2 02 . ... : C-2 18 . ... : ... .. . ... : ... .. . ...
ROW 32 : ... .. . ... : ... .. . ... : ... .. . ... : ... .. . ... : E-3 00 . W09
ROW 33 : C-2 02 . ... : B-1 02 . ... : B-1 18 . ... : ... .. . ... : ... .. . ...
ROW 34 : ... .. . ... : ... .. . ... : ... .. . ... : ... .. . ... : E-3 00 . W08
ROW 35 : B-1 02 . ... : C-2 02 . ... : C-2 18 . ... : ... .. . ... : ... .. . ...
ROW 36 : ... .. . ... : ... .. . ... : ... .. . ... : ... .. . ... : E-3 00 . W08
ROW 37 : C-2 02 . ... : D-2 02 . ... : D-2 18 . ... : ... .. . ... : ... .. . ...
ROW 38 : ... .. . ... : ... .. . ... : ... .. . ... : ... .. . ... : C-3 00 . ...
ROW 39 : D-2 02 . ... : C-2 02 . ... : C-2 18 . ... : ... .. . ... : ... .. . ...
ROW 3A : ... .. . ... : ... .. . ... : ... .. . ... : ... .. . ... : C-3 00 . ...
ROW 3B : C-2 02 . ... : B-1 02 . ... : B-1 18 . ... : ... .. . ... : ... .. . ...
ROW 3C : ... .. . ... : ... .. . ... : ... .. . ... : ... .. . ... : D-3 00 . ...
ROW 3D : B-1 02 . ... : A-1 02 . ... : A-1 18 . ... : A-# 1B . ... : ... .. . ...
ROW 3E : ... .. . ... : ... .. . ... : ... .. . ... : ... .. . ... : D-3 00 . ...
ROW 3F : A-1 02 . ... : G-1 02 . ... : G-1 18 . ... : A-# 1B . ... : ... .. . B01

TRACK  72   0 150 "Stage Clear"
COLUMNS : 1 1 1 1 1

ORDER 00 : 00 00 00 00 00

PATTERN 00
ROW 00 : ... .. . V01 : ... .. . V01 : ... .. . ... : ... .. . ... : E-3 00 . W0A
ROW 01 : A-3 08 . G03 : D-3 08 . ... : D-2 19 . ... : ... .. . ... : ... .. . ...
ROW 02 : ... .. . ... : ... .. . ... : ... .. . ... : ... .. . ... : E-3 00 . W0A
ROW 03 : ... .. . ... : ... .. . ... : ... .. . ... : ... .. . ... : ... .. . ...
ROW 04 : ... .. . ... : ... .. . ... : ... .. . ... : ... .. . ... : E-3 00 . W09
ROW 05 : ... .. . ... : ... .. . ... : ... .. . ... : ... .. . ... : ... .. . ...
ROW 06 : ... .. . ... : ... .. . ... : ... .. . ... : ... .. . ... : E-3 00 . W09
ROW 07 : A-3 08 . G03 : D-3 08 . ... : ... .. . ... : ... .. . ... : ... .. . ...
ROW 08 : ... .. . ... : ... .. . ... : ... .. . ... : ... .. . ... : E-3 00 . W08
ROW 09 : A-3 08 . G03 : D-3 08 . ... : E-2 19 . ... : ... .. . ... : ... .. . ...
ROW 0A : ... .. . ... : ... .. . ... : ... .. . ... : ... .. . ... : E-3 00 . W08
ROW 0B : ... .. . ... : ... .. . ... : ... .. . ... : ... .. . ... : ... .. . ...
ROW 0C : ... .. . ... : ... .. . ... : ... .. . ... : ... .. . ... : E-3 00 . W0A
ROW 0D : B-3 08 . G03 : E-3 08 . ... : ... .. . ... : ... .. . ... : ... .. . ...
ROW 0E : ... .. . ... : ... .. . ... : ... .. . ... : ... .. . ... : E-3 00 . W0A
ROW 0F : ... .. . ... : ... .. . ... : ... .. . ... : ... .. . ... : ... .. . ...
ROW 10 : ... .. . ... : ... .. . ... : ... .. . ... : ... .. . ... : E-3 00 . W09
ROW 11 : A-3 08 . G03 : D-3 08 . ... : F-2 19 . ... : ... .. . ... : ... .. . ...
ROW 12 : ... .. . ... : ... .. . ... : ... .. . ... : ... .. . ... : E-3 00 . W09
ROW 13 : ... .. . ... : ... .. . ... : ... .. . ... : ... .. . ... : ... .. . ...
ROW 14 : ... .. . ... : ... .. . ... : ... .. . ... : ... .. . ... : E-3 00 . W08
ROW 15 : G-3 08 . G03 : C-3 08 . ... : ... .. . ... : ... .. . ... : ... .. . ...
ROW 16 : ... .. . ... : ... .. . ... : ... .. . ... : ... .. . ... : E-3 00 . W08
ROW 17 : ... .. . ... : ... .. . ... : ... .. . ... : ... .. . ... : ... .. . ...
ROW 18 : ... .. . ... : ... .. . ... : ... .. . ... : ... .. . ... : D-3 00 . ...
ROW 19 : A-3 08 . G03 : D-3 08 . ... : G-2 19 . ... : A-# 1B . ... : ... .. . ...
ROW 1A : ... .. . ... : ... .. . ... : ... .. . ... : ... .. . ... : D-3 00 . ...
ROW 1B : ... .. . ... : ... .. . ... : ... .. . ... : A-# 1B . ... : ... .. . ...
ROW 1C : ... .. . ... : ... .. . ... : ... .. . ... : ... .. . ... : C-3 00 . ...
ROW 1D : B-3 08 . G03 : E-3 08 . ... : ... .. . ... : ... .. . ... : ... .. . ...
ROW 1E : ... .. . ... : ... .. . ... : ... .. . ... : ... .. . ... : C-3 00 . ...
ROW 1F : ... .. . ... : ... .. . ... : ... .. . ... : ... .. . ... : ... .. . ...
ROW 20 : ... .. . ... : ... .. . ... : ... .. . ... : ... .. . ... : D-3 00 . ...
ROW 21 : C-4 08 . G03 : F-3 08 . ... : A-2 19 . ... : A-# 1B . ... : ... .. . ...
ROW 22 : ... .. . ... : ... .. . ... : ... .. . ... : ... .. . ... : D-3 00 . ...
ROW 23 : ... .. . ... : ... .. . ... : ... .. . ... : A-# 1B . ... : ... .. . ...
ROW 24 : ... .. . ... : ... .. . ... : ... .. . ... : ... .. . ... : D-3 00 . ...
ROW 25 : ... .. . ... : ... .. . ... : ... .. . ... : A-# 1B . ... : ... .. . ...
ROW 26 : ... .. . ... : ... .. . ... : ... .. . ... : ... .. . ... : D-3 00 . ...
ROW 27 : ... .. . ... : ... .. . ... : ... .. . ... : A-# 1B . ... : ... .. . ...
ROW 28 : ... .. . ... : ... .. . ... : ... .. . ... : ... .. . ... : D-3 00 . ...
ROW 29 : D-4 08 . G03 : G-3 08 . ... : B-2 19 . ... : A-# 1B . ... : ... .. . ...
ROW 2A : ... .. . ... : ... .. . ... : ... .. . ... : ... .. . ... : ... .. . ...
ROW 2B : ... .. . ... : ... .. . ... : ... .. . ... : ... .. . ... : ... .. . ...
ROW 2C : ... .. . ... : ... .. . ... : ... .. . ... : ... .. . ... : D-3 00 . ...
ROW 2D : ... .. . ... : ... .. . ... : ... .. . ... : A-# 1B . ... : ... .. . ...
ROW 2E : ... .. . ... : ... .. . ... : ... .. . ... : ... .. . ... : D-3 00 . ...
ROW 2F : ... .. . ... : ... .. . ... : ... .. . ... : A-# 1B . ... : ... .. . ...
ROW 30 : ... .. . ... : ... .. . ... : ... .. . ... : ... .. . ... : D-3 00 . ...
ROW 31 : E-4 08 . G03 : A-3 08 . ... : A-2 19 . ... : A-# 1B . ... : ... .. . ...
ROW 32 : ... .. . ... : ... .. . ... : ... .. . ... : ... .. . ... : ... .. . ...
ROW 33 : ... .. . ... : ... .. . ... : G-2 19 . ... : ... .. . ... : ... .. . ...
ROW 34 : ... .. . ... : ... .. . ... : ... .. . ... : ... .. . ... : D-3 00 . ...
ROW 35 : ... .. . ... : ... .. . ... : A-2 19 . ... : A-# 1B . ... : ... .. . ...
ROW 36 : ... .. . ... : ... .. . ... : ... .. . ... : ... .. . ... : ... .. . ...
ROW 37 : ... .. . ... : ... .. . ... : G-2 19 . ... : ... .. . ... : ... .. . ...
ROW 38 : ... .. . ... : ... .. . ... : ... .. . ... : ... .. . ... : D-3 00 . ...
ROW 39 : ... .. . ... : ... .. . ... : A-2 19 . ... : A-# 1B . ... : ... .. . ...
ROW 3A : ... .. . ... : ... .. . ... : ... .. . ... : ... .. . ... : D-3 00 . ...
ROW 3B : ... .. . ... : ... .. . ... : G-2 19 . ... : A-# 1B . ... : ... .. . ...
ROW 3C : ... .. . ... : ... .. . ... : ... .. . ... : ... .. . ... : D-3 00 . ...
ROW 3D : ... .. . ... : ... .. . ... : A-2 19 . ... : A-# 1B . ... : ... .. . ...
ROW 3E : ... .. . ... : ... .. . ... : ... .. . ... : ... .. . ... : ... .. . ...
ROW 3F : ... .. . ... : ... .. . ... : G-2 19 . ... : ... .. . ... : ... .. . ...
ROW 40 : ... .. . ... : ... .. . ... : ... .. . ... : ... .. . ... : ... .. . ...
ROW 41 : --- .. . G03 : --- .. . ... : --- .. . ... : ... .. . ... : ... .. . ...
ROW 42 : ... .. . ... : ... .. . ... : ... .. . ... : ... .. . ... : ... .. . ...
ROW 43 : ... .. . ... : ... .. . ... : ... .. . ... : ... .. . ... : ... .. . ...
ROW 44 : ... .. . ... : ... .. . ... : ... .. . ... : ... .. . ... : ... .. . ...
ROW 45 : ... .. . ... : ... .. . ... : ... .. . ... : ... .. . ... : ... .. . ...
ROW 46 : ... .. . ... : ... .. . ... : ... .. . ... : ... .. . ... : ... .. . ...
ROW 47 : ... .. . ... : ... .. . ... : ... .. . ... : ... .. . ... : ... .. . C00

TRACK  88   5 150 "Map"
COLUMNS : 1 1 1 1 1

ORDER 00 : 00 00 00 00 00
ORDER 01 : 01 01 01 01 01
ORDER 02 : 02 02 02 02 02
ORDER 03 : 03 03 03 03 03
ORDER 04 : 04 04 04 04 04
ORDER 05 : 05 05 05 05 05
ORDER 06 : 06 06 06 06 06
ORDER 07 : 07 07 07 07 07
ORDER 08 : 08 08 08 08 08
ORDER 09 : 09 09 09 09 09
ORDER 0A : 0A 0A 0A 0A 0A
ORDER 0B : 0B 0B 0B 0B 0B
ORDER 0C : 0C 0C 0C 0C 0C
ORDER 0D : 0D 0D 0D 0D 0D
ORDER 0E : 0E 0E 0E 0E 0E
ORDER 0F : 0F 0F 0F 0F 0F
ORDER 10 : 10 10 10 10 10
ORDER 11 : 11 11 11 11 11
ORDER 12 : 12 12 12 12 12
ORDER 13 : 13 13 13 13 13
ORDER 14 : 14 14 14 14 14
ORDER 15 : 15 15 15 15 15
ORDER 16 : 16 16 16 16 16
ORDER 17 : 17 17 17 17 17
ORDER 18 : 18 18 18 18 18
ORDER 19 : 19 19 19 19 19
ORDER 1A : 1A 1A 1A 1A 1A
ORDER 1B : 1B 1B 1B 1B 1B
ORDER 1C : 1C 1C 1C 1C 1C
ORDER 1D : 1D 1D 1D 1D 1D
ORDER 1E : 1E 1E 1E 1E 1E
ORDER 1F : 1F 1F 1F 1F 1F
ORDER 20 : 20 20 20 20 20
ORDER 21 : 21 21 21 21 21
ORDER 22 : 22 22 22 22 22
ORDER 23 : 23 23 23 23 23
ORDER 24 : 24 24 24 24 24
ORDER 25 : 25 25 25 25 25
ORDER 26 : 26 26 26 26 26
ORDER 27 : 27 27 27 27 27
ORDER 28 : 28 28 28 28 28
ORDER 29 : 29 29 29 29 29
ORDER 2A : 2A 2A 2A 2A 2A
ORDER 2B : 2B 2B 2B 2B 2B
ORDER 2C : 2C 2C 2C 2C 2C
ORDER 2D : 2D 2D 2D 2D 2D
ORDER 2E : 2E 2E 2E 2E 2E
ORDER 2F : 2F 2F 2F 2F 2F
ORDER 30 : 30 30 30 30 30
ORDER 31 : 31 31 31 31 31
ORDER 32 : 32 32 32 32 32
ORDER 33 : 33 33 33 33 33
ORDER 34 : 34 34 34 34 34
ORDER 35 : 35 35 35 35 35
ORDER 36 : 36 36 36 36 36
ORDER 37 : 37 37 37 37 37
ORDER 38 : 38 38 38 38 38
ORDER 39 : 39 39 39 39 39
ORDER 3A : 3A 3A 3A 3A 3A
ORDER 3B : 3B 3B 3B 3B 3B
ORDER 3C : 3C 3C 3C 3C 3C
ORDER 3D : 3D 3D 3D 3D 3D
ORDER 3E : 3E 3E 3E 3E 3E
ORDER 3F : 3F 3F 3F 3F 3F
ORDER 40 : 40 40 40 40 40
ORDER 41 : 41 41 41 41 41
ORDER 42 : 42 42 42 42 42
ORDER 43 : 43 43 43 43 43
ORDER 44 : 44 44 44 44 44
ORDER 45 : 45 45 45 45 45
ORDER 46 : 46 46 46 46 46
ORDER 47 : 47 47 47 47 47
ORDER 48 : 48 48 48 48 48
ORDER 49 : 49 49 49 49 49
ORDER 4A : 4A 4A 4A 4A 4A
ORDER 4B : 4B 4B 4B 4B 4B
ORDER 4C : 4C 4C 4C 4C 4C
ORDER 4D : 4D 4D 4D 4D 4D
ORDER 4E : 4E 4E 4E 4E 4E
ORDER 4F : 4F 4F 4F 4F 4F
ORDER 50 : 50 50 50 50 50
ORDER 51 : 51 51 51 51 51
ORDER 52 : 52 52 52 52 52
ORDER 53 : 53 53 53 53 53
ORDER 54 : 54 54 54 54 54
ORDER 55 : 55 55 55 55 55
ORDER 56 : 56 56 56 56 56
ORDER 57 : 57 57 57 57 57
ORDER 58 : 58 58 58 58 58
ORDER 59 : 59 59 59 59 59
ORDER 5A : 5A 5A 5A 5A 5A

PATTERN 00
ROW 00 : ... .. . ... : ... .. . ... : ... .. . ... : ... .. . ... : D-3 00 . ...
ROW 01 : B-2 0B . ... : B-2 0B . ... : ... .. . ... : A-# 1B . ... : ... .. . ...
ROW 02 : ... .. . ... : ... .. . ... : ... .. . ... : ... .. . ... : D-3 00 . ...
ROW 03 : D-3 0B . ... : D-3 0B . ... : ... .. . ... : A-# 1B . ... : ... .. . D00
ROW 04 : ... .. . ... : ... .. . ... : ... .. . ... : ... .. . ... : ... .. . ...
ROW 05 : ... .. . ... : ... .. . ... : ... .. . ... : ... .. . ... : ... .. . ...
ROW 06 : ... .. . ... : ... .. . ... : ... .. . ... : ... .. . ... : ... .. . ...
ROW 07 : ... .. . ... : ... .. . ... : ... .. . ... : ... .. . ... : ... .. . ...
ROW 08 : ... .. . ... : ... .. . ... : ... .. . ... : ... .. . ... : ... .. . ...
ROW 09 : ... .. . ... : ... .. . ... : ... .. . ... : ... .. . ... : ... .. . ...
ROW 0A : ... .. . ... : ... .. . ... : ... .. . ... : ... .. . ... : ... .. . ...
ROW 0B : ... .. . ... : ... .. . ... : ... .. . ... : ... .. . ... : ... .. . ...
ROW 0C : ... .. . ... : ... .. . ... : ... .. . ... : ... .. . ... : ... .. . ...
ROW 0D : ... .. . ... : ... .. . ... : ... .. . ... : ... .. . ... : ... .. . ...
ROW 0E : ... .. . ... : ... .. . ... : ... .. . ... : ... .. . ... : ... .. . ...
ROW 0F : ... .. . ... : ... .. . ... : ... .. . ... : ... .. . ... : ... .. . ...
ROW 10 : ... .. . ... : ... .. . ... : ... .. . ... : ... .. . ... : ... .. . ...
ROW 11 : ... .. . ... : ... .. . ... : ... .. . ... : ... .. . ... : ... .. . ...
ROW 12 : ... .. . ... : ... .. . ... : ... .. . ... : ... .. . ... : ... .. . ...
ROW 13 : ... .. . ... : ... .. . ... : ... .. . ... : ... .. . ... : ... .. . ...
ROW 14 : ... .. . ... : ... .. . ... : ... .. . ... : ... .. . ... : ... .. . ...
ROW 15 : ... .. . ... : ... .. . ... : ... .. . ... : ... .. . ... : ... .. . ...
ROW 16 : ... .. . ... : ... .. . ... : ... .. . ... : ... .. . ... : ... .. . ...
ROW 17 : ... .. . ... : ... .. . ... : ... .. . ... : ... .. . ... : ... .. . ...
ROW 18 : ... .. . ... : ... .. . ... : ... .. . ... : ... .. . ... : ... .. . ...
ROW 19 : ... .. . ... : ... .. . ... : ... .. . ... : ... .. . ... : ... .. . ...
ROW 1A : ... .. . ... : ... .. . ... : ... .. . ... : ... .. . ... : ... .. . ...
ROW 1B : ... .. . ... : ... .. . ... : ... .. . ... : ... .. . ... : ... .. . ...
ROW 1C : ... .. . ... : ... .. . ... : ... .. . ... : ... .. . ... : ... .. . ...
ROW 1D : ... .. . ... : ... .. . ... : ... .. . ... : ... .. . ... : ... .. . ...
ROW 1E : ... .. . ... : ... .. . ... : ... .. . ... : ... .. . ... : ... .. . ...
ROW 1F : ... .. . ... : ... .. . ... : ... .. . ... : ... .. . ... : ... .. . ...
ROW 20 : ... .. . ... : ... .. . ... : ... .. . ... : ... .. . ... : ... .. . ...
ROW 21 : ... .. . ... : ... .. . ... : ... .. . ... : ... .. . ... : ... .. . ...
ROW 22 : ... .. . ... : ... .. . ... : ... .. . ... : ... .. . ... : ... .. . ...
ROW 23 : ... .. . ... : ... .. . ... : ... .. . ... : ... .. . ... : ... .. . ...
ROW 24 : ... .. . ... : ... .. . ... : ... .. . ... : ... .. . ... : ... .. . ...
ROW 25 : ... .. . ... : ... .. . ... : ... .. . ... : ... .. . ... : ... .. . ...
ROW 26 : ... .. . ... : ... .. . ... : ... .. . ... : ... .. . ... : ... .. . ...
ROW 27 : ... .. . ... : ... .. . ... : ... .. . ... : ... .. . ... : ... .. . ...
ROW 28 : ... .. . ... : ... .. . ... : ... .. . ... : ... .. . ... : ... .. . ...
ROW 29 : ... .. . ... : ... .. . ... : ... .. . ... : ... .. . ... : ... .. . ...
ROW 2A : ... .. . ... : ... .. . ... : ... .. . ... : ... .. . ... : ... .. . ...
ROW 2B : ... .. . ... : ... .. . ... : ... .. . ... : ... .. . ... : ... .. . ...
ROW 2C : ... .. . ... : ... .. . ... : ... .. . ... : ... .. . ... : ... .. . ...
ROW 2D : ... .. . ... : ... .. . ... : ... .. . ... : ... .. . ... : ... .. . ...
ROW 2E : ... .. . ... : ... .. . ... : ... .. . ... : ... .. . ... : ... .. . ...
ROW 2F : ... .. . ... : ... .. . ... : ... .. . ... : ... .. . ... : ... .. . ...
ROW 30 : ... .. . ... : ... .. . ... : ... .. . ... : ... .. . ... : ... .. . ...
ROW 31 : ... .. . ... : ... .. . ... : ... .. . ... : ... .. . ... : ... .. . ...
ROW 32 : ... .. . ... : ... .. . ... : ... .. . ... : ... .. . ... : ... .. . ...
ROW 33 : ... .. . ... : ... .. . ... : ... .. . ... : ... .. . ... : ... .. . ...
ROW 34 : ... .. . ... : ... .. . ... : ... .. . ... : ... .. . ... : ... .. . ...
ROW 35 : ... .. . ... : ... .. . ... : ... .. . ... : ... .. . ... : ... .. . ...
ROW 36 : ... .. . ... : ... .. . ... : ... .. . ... : ... .. . ... : ... .. . ...
ROW 37 : ... .. . ... : ... .. . ... : ... .. . ... : ... .. . ... : ... .. . ...
ROW 38 : ... .. . ... : ... .. . ... : ... .. . ... : ... .. . ... : ... .. . ...
ROW 39 : ... .. . ... : ... .. . ... : ... .. . ... : ... .. . ... : ... .. . ...
ROW 3A : ... .. . ... : ... .. . ... : ... .. . ... : ... .. . ... : ... .. . ...
ROW 3B : ... .. . ... : ... .. . ... : ... .. . ... : ... .. . ... : ... .. . ...
ROW 3C : ... .. . ... : ... .. . ... : ... .. . ... : ... .. . ... : ... .. . ...
ROW 3D : ... .. . ... : ... .. . ... : ... .. . ... : ... .. . ... : ... .. . ...
ROW 3E : ... .. . ... : ... .. . ... : ... .. . ... : ... .. . ... : ... .. . ...
ROW 3F : ... .. . ... : ... .. . ... : ... .. . ... : ... .. . ... : ... .. . ...
ROW 40 : ... .. . ... : ... .. . ... : ... .. . ... : ... .. . ... : ... .. . ...
ROW 41 : ... .. . ... : ... .. . ... : ... .. . ... : ... .. . ... : ... .. . ...
ROW 42 : ... .. . ... : ... .. . ... : ... .. . ... : ... .. . ... : ... .. . ...
ROW 43 : ... .. . ... : ... .. . ... : ... .. . ... : ... .. . ... : ... .. . ...
ROW 44 : ... .. . ... : ... .. . ... : ... .. . ... : ... .. . ... : ... .. . ...
ROW 45 : ... .. . ... : ... .. . ... : ... .. . ... : ... .. . ... : ... .. . ...
ROW 46 : ... .. . ... : ... .. . ... : ... .. . ... : ... .. . ... : ... .. . ...
ROW 47 : ... .. . ... : ... .. . ... : ... .. . ... : ... .. . ... : ... .. . ...
ROW 48 : ... .. . ... : ... .. . ... : ... .. . ... : ... .. . ... : ... .. . ...
ROW 49 : ... .. . ... : ... .. . ... : ... .. . ... : ... .. . ... : ... .. . ...
ROW 4A : ... .. . ... : ... .. . ... : ... .. . ... : ... .. . ... : ... .. . ...
ROW 4B : ... .. . ... : ... .. . ... : ... .. . ... : ... .. . ... : ... .. . ...
ROW 4C : ... .. . ... : ... .. . ... : ... .. . ... : ... .. . ... : ... .. . ...
ROW 4D : ... .. . ... : ... .. . ... : ... .. . ... : ... .. . ... : ... .. . ...
ROW 4E : ... .. . ... : ... .. . ... : ... .. . ... : ... .. . ... : ... .. . ...
ROW 4F : ... .. . ... : ... .. . ... : ... .. . ... : ... .. . ... : ... .. . ...
ROW 50 : ... .. . ... : ... .. . ... : ... .. . ... : ... .. . ... : ... .. . ...
ROW 51 : ... .. . ... : ... .. . ... : ... .. . ... : ... .. . ... : ... .. . ...
ROW 52 : ... .. . ... : ... .. . ... : ... .. . ... : ... .. . ... : ... .. . ...
ROW 53 : ... .. . ... : ... .. . ... : ... .. . ... : ... .. . ... : ... .. . ...
ROW 54 : ... .. . ... : ... .. . ... : ... .. . ... : ... .. . ... : ... .. . ...
ROW 55 : ... .. . ... : ... .. . ... : ... .. . ... : ... .. . ... : ... .. . ...
ROW 56 : ... .. . ... : ... .. . ... : ... .. . ... : ... .. . ... : ... .. . ...
ROW 57 : ... .. . ... : ... .. . ... : ... .. . ... : ... .. . ... : ... .. . ...

PATTERN 01
ROW 00 : ... .. . ... : ... .. . ... : ... .. . ... : ... .. . ... : C-3 00 . ...
ROW 01 : E-3 0B . ... : E-3 0B . ... : E-2 17 . ... : ... .. . ... : ... .. . ...
ROW 02 : ... .. . ... : ... .. . ... : ... .. . ... : ... .. . ... : ... .. . ...
ROW 03 : E-2 0B . ... : E-2 0B . ... : ... .. . ... : ... .. . ... : ... .. . ...
ROW 04 : ... .. . ... : ... .. . ... : ... .. . ... : ... .. . ... : ... .. . ...
ROW 05 : D-3 0B . ... : D-3 0B . ... : --- .. . ... : ... .. . ... : ... .. . ...
ROW 06 : ... .. . ... : ... .. . ... : ... .. . ... : ... .. . ... : ... .. . ...
ROW 07 : A-2 0B . ... : A-2 0B . ... : ... .. . ... : ... .. . ... : ... .. . ...
ROW 08 : ... .. . ... : ... .. . ... : ... .. . ... : ... .. . ... : D-3 00 . ...
ROW 09 : G-3 0B . ... : G-3 0B . ... : E-3 17 . ... : A-# 1B . ... : ... .. . ...
ROW 0A : ... .. . ... : ... .. . ... : ... .. . ... : ... .. . ... : ... .. . ...
ROW 0B : E-3 0B . ... : E-3 0B . ... : ... .. . ... : ... .. . ... : ... .. . ...
ROW 0C : ... .. . ... : ... .. . ... : ... .. . ... : ... .. . ... : ... .. . ...
ROW 0D : E-2 0B . ... : E-2 0B . ... : --- .. . ... : ... .. . ... : ... .. . ...
ROW 0E : ... .. . ... : ... .. . ... : ... .. . ... : ... .. . ... : ... .. . ...
ROW 0F : D-3 0B . ... : D-3 0B . ... : ... .. . ... : ... .. . ... : ... .. . ...
ROW 10 : ... .. . ... : ... .. . ... : ... .. . ... : ... .. . ... : C-3 00 . ...
ROW 11 : A-2 0B . ... : G-3 0B . ... : E-2 17 . ... : ... .. . ... : ... .. . ...
ROW 12 : ... .. . ... : ... .. . ... : ... .. . ... : ... .. . ... : ... .. . ...
ROW 13 : G-3 0B . ... : E-3 0B . ... : ... .. . ... : ... .. . ... : ... .. . ...
ROW 14 : ... .. . ... : ... .. . ... : ... .. . ... : ... .. . ... : ... .. . ...
ROW 15 : E-3 0B . ... : E-2 0B . ... : --- .. . ... : ... .. . ... : ... .. . ...
ROW 16 : ... .. . ... : ... .. . ... : ... .. . ... : ... .. . ... : ... .. . ...
ROW 17 : E-2 0B . ... : D-3 0B . ... : ... .. . ... : ... .. . ... : ... .. . ...
ROW 18 : ... .. . ... : ... .. . ... : ... .. . ... : ... .. . ... : D-3 00 . ...
ROW 19 : D-3 0B . ... : A-2 0B . ... : E-3 17 . ... : A-# 1B . ... : ... .. . ...
ROW 1A : ... .. . ... : ... .. . ... : ... .. . ... : ... .. . ... : ... .. . ...
ROW 1B : A-2 0B . ... : G-3 0B . ... : ... .. . ... : ... .. . ... : ... .. . ...
ROW 1C : ... .. . ... : ... .. . ... : ... .. . ... : ... .. . ... : ... .. . ...
ROW 1D : G-3 0B . ... : E-3 0B . ... : --- .. . ... : ... .. . ... : ... .. . ...
ROW 1E : ... .. . ... : ... .. . ... : ... .. . ... : ... .. . ... : ... .. . ...
ROW 1F : E-3 0B . ... : E-2 0B . ... : ... .. . ... : ... .. . ... : ... .. . ...
ROW 20 : ... .. . ... : ... .. . ... : ... .. . ... : ... .. . ... : C-3 00 . ...
ROW 21 : E-2 0B . ... : D-3 0B . ... : E-2 17 . ... : ... .. . ... : ... .. . ...
ROW 22 : ... .. . ... : ... .. . ... : ... .. . ... : ... .. . ... : ... .. . ...
ROW 23 : D-3 0B . ... : G-3 0B . ... : ... .. . ... : ... .. . ... : ... .. . ...
ROW 24 : ... .. . ... : ... .. . ... : ... .. . ... : ... .. . ... : ... .. . ...
ROW 25 : A-2 0B . ... : E-3 0B . ... : --- .. . ... : ... .. . ... : ... .. . ...
ROW 26 : ... .. . ... : ... .. . ... : ... .. . ... : ... .. . ... : ... .. . ...
ROW 27 : G-3 0B . ... : E-2 0B . ... : ... .. . ... : ... .. . ... : ... .. . ...
ROW 28 : ... .. . ... : ... .. . ... : ... .. . ... : ... .. . ... : D-3 00 . ...
ROW 29 : E-3 0B . ... : D-3 0B . ... : E-3 17 . ... : A-# 1B . ... : ... .. . ...
ROW 2A : ... .. . ... : ... .. . ... : ... .. . ... : ... .. . ... : ... .. . ...
ROW 2B : E-2 0B . ... : A-2 0B . ... : ... .. . ... : ... .. . ... : ... .. . ...
ROW 2C : ... .. . ... : ... .. . ... : ... .. . ... : ... .. . ... : ... .. . ...
ROW 2D : D-3 0B . ... : G-3 0B . ... : --- .. . ... : ... .. . ... : ... .. . ...
ROW 2E : ... .. . ... : ... .. . ... : ... .. . ... : ... .. . ... : ... .. . ...
ROW 2F : A-2 0B . ... : E-3 0B . ... : ... .. . ... : ... .. . ... : ... .. . ...
ROW 30 : ... .. . ... : ... .. . ... : ... .. . ... : ... .. . ... : C-3 00 . ...
ROW 31 : G-3 0B . ... : E-2 0B . ... : E-2 17 . ... : ... .. . ... : ... .. . ...
ROW 32 : ... .. . ... : ... .. . ... : ... .. . ... : ... .. . ... : ... .. . ...
ROW 33 : E-3 0B . ... : D-3 0B . ... : ... .. . ... : ... .. . ... : ... .. . ...
ROW 34 : ... .. . ... : ... .. . ... : ... .. . ... : ... .. . ... : ... .. . ...
ROW 35 : E-2 0B . ... : G-3 0B . ... : --- .. . ... : ... .. . ... : ... .. . ...
ROW 36 : ... .. . ... : ... .. . ... : ... .. . ... : ... .. . ... : ... .. . ...
ROW 37 : D-3 0B . ... : E-3 0B . ... : ... .. . ... : ... .. . ... : ... .. . ...
ROW 38 : ... .. . ... : ... .. . ... : ... .. . ... : ... .. . ... : D-3 00 . ...
ROW 39 : A-2 0B . ... : E-2 0B . ... : E-3 17 . ... : A-# 1B . ... : ... .. . ...
ROW 3A : ... .. . ... : ... .. . ... : ... .. . ... : ... .. . ... : ... .. . ...
ROW 3B : G-3 0B . ... : D-3 0B . ... : ... .. . ... : ... .. . ... : ... .. . ...
ROW 3C : ... .. . ... : ... .. . ... : ... .. . ... : ... .. . ... : ... .. . ...
ROW 3D : E-3 0B . ... : A-2 0B . ... : --- .. . ... : ... .. . ... : ... .. . ...
ROW 3E : ... .. . ... : ... .. . ... : ... .. . ... : ... .. . ... : ... .. . ...
ROW 3F : E-2 0B . ... : G-3 0B . ... : ... .. . ... : ... .. . ... : ... .. . ...
ROW 40 : ... .. . ... : ... .. . ... : ... .. . ... : ... .. . ... : C-3 00 . ...
ROW 41 : D-3 0B . ... : E-3 0B . ... : E-2 17 . ... : ... .. . ... : ... .. . ...
ROW 42 : ... .. . ... : ... .. . ... : ... .. . ... : ... .. . ... : ... .. . ...
ROW 43 : A-2 0B . ... : E-2 0B . ... : ... .. . ... : ... .. . ... : ... .. . ...
ROW 44 : ... .. . ... : ... .. . ... : ... .. . ... : ... .. . ... : ... .. . ...
ROW 45 : G-3 0B . ... : D-3 0B . ... : --- .. . ... : ... .. . ... : ... .. . ...
ROW 46 : ... .. . ... : ... .. . ... : ... .. . ... : ... .. . ... : ... .. . ...
ROW 47 : E-3 0B . ... : G-3 0B . ... : ... .. . ... : ... .. . ... : ... .. . ...
ROW 48 : ... .. . ... : ... .. . ... : ... .. . ... : ... .. . ... : D-3 00 . ...
ROW 49 : E-2 0B . ... : E-3 0B . ... : E-3 17 . ... : A-# 1B . ... : ... .. . ...
ROW 4A : ... .. . ... : ... .. . ... : ... .. . ... : ... .. . ... : ... .. . ...
ROW 4B : D-3 0B . ... : E-2 0B . ... : ... .. . ... : ... .. . ... : ... .. . ...
ROW 4C : ... .. . ... : ... .. . ... : ... .. . ... : ... .. . ... : ... .. . ...
ROW 4D : A-2 0B . ... : D-3 0B . ... : --- .. . ... : ... .. . ... : ... .. . ...
ROW 4E : ... .. . ... : ... .. . ... : ... .. . ... : ... .. . ... : ... .. . ...
ROW 4F : G-3 0B . ... : A-2 0B . ... : ... .. . ... : ... .. . ... : ... .. . ...
ROW 50 : ... .. . ... : ... .. . ... : ... .. . ... : ... .. . ... : D-3 00 . ...
ROW 51 : E-3 0B . ... : G-3 0B . ... : D-3 17 . ... : A-# 1B . ... : ... .. . ...
ROW 52 : ... .. . ... : ... .. . ... : ... .. . ... : ... .. . ... : E-3 00 . W09
ROW 53 : E-2 0B . ... : E-3 0B . ... : A-2 17 . ... : ... .. . ... : ... .. . ...
ROW 54 : ... .. . ... : ... .. . ... : ... .. . ... : ... .. . ... : D-3 00 . ...
ROW 55 : D-3 0B . ... : E-2 0B . ... : E-3 17 . ... : A-# 1B . ... : ... .. . ...
ROW 56 : ... .. . ... : ... .. . ... : ... .. . ... : ... .. . ... : D-3 00 . ...
ROW 57 : A-2 0B . ... : D-3 0B . ... : E-2 17 . ... : A-# 1B . ... : ... .. . ...

PATTERN 02
ROW 00 : ... .. . ... : ... .. . ... : ... .. . ... : ... .. . ... : C-3 00 . ...
ROW 01 : G-3 0B . ... : G-3 0B . ... : G-2 17 . ... : ... .. . ... : ... .. . ...
ROW 02 : ... .. . ... : ... .. . ... : ... .. . ... : ... .. . ... : ... .. . ...
ROW 03 : G-3 0B . ... : G-3 0B . ... : ... .. . ... : ... .. . ... : ... .. . ...
ROW 04 : ... .. . ... : ... .. . ... : ... .. . ... : ... .. . ... : ... .. . ...
ROW 05 : G-2 0B . ... : G-2 0B . ... : --- .. . ... : ... .. . ... : ... .. . ...
ROW 06 : ... .. . ... : ... .. . ... : ... .. . ... : ... .. . ... : ... .. . ...
ROW 07 : F-3 0B . ... : F-3 0B . ... : ... .. . ... : ... .. . ... : ... .. . ...
ROW 08 : ... .. . ... : ... .. . ... : ... .. . ... : ... .. . ... : D-3 00 . ...
ROW 09 : C-3 0B . ... : C-3 0B . ... : G-3 17 . ... : A-# 1B . ... : ... .. . ...
ROW 0A : ... .. . ... : ... .. . ... : ... .. . ... : ... .. . ... : ... .. . ...
ROW 0B : A#3 0B . ... : A#3 0B . ... : ... .. . ... : ... .. . ... : ... .. . ...
ROW 0C : ... .. . ... : ... .. . ... : ... .. . ... : ... .. . ... : ... .. . ...
ROW 0D : G-3 0B . ... : G-3 0B . ... : --- .. . ... : ... .. . ... : ... .. . ...
ROW 0E : ... .. . ... : ... .. . ... : ... .. . ... : ... .. . ... : ... .. . ...
ROW 0F : G-2 0B . ... : G-2 0B . ... : ... .. . ... : ... .. . ... : ... .. . ...
ROW 10 : ... .. . ... : ... .. . ... : ... .. . ... : ... .. . ... : C-3 00 . ...
ROW 11 : F-3 0B . ... : F-3 0B . ... : G-2 17 . ... : ... .. . ... : ... .. . ...
ROW 12 : ... .. . ... : ... .. . ... : ... .. . ... : ... .. . ... : ... .. . ...
ROW 13 : C-3 0B . ... : A#3 0B . ... : ... .. . ... : ... .. . ... : ... .. . ...
ROW 14 : ... .. . ... : ... .. . ... : ... .. . ... : ... .. . ... : ... .. . ...
ROW 15 : A#3 0B . ... : G-3 0B . ... : --- .. . ... : ... .. . ... : ... .. . ...
ROW 16 : ... .. . ... : ... .. . ... : ... .. . ... : ... .. . ... : ... .. . ...
ROW 17 : G-3 0B . ... : G-2 0B . ... : ... .. . ... : ... .. . ... : ... .. . ...
ROW 18 : ... .. . ... : ... .. . ... : ... .. . ... : ... .. . ... : D-3 00 . ...
ROW 19 : G-2 0B . ... : F-3 0B . ... : G-3 17 . ... : A-# 1B . ... : ... .. . ...
ROW 1A : ... .. . ... : ... .. . ... : ... .. . ... : ... .. . ... : ... .. . ...
ROW 1B : F-3 0B . ... : C-3 0B . ... : ... .. . ... : ... .. . ... : ... .. . ...
ROW 1C : ... .. . ... : ... .. . ... : ... .. . ... : ... .. . ... : ... .. . ...
ROW 1D : C-3 0B . ... : A#3 0B . ... : --- .. . ... : ... .. . ... : ... .. . ...
ROW 1E : ... .. . ... : ... .. . ... : ... .. . ... : ... .. . ... : ... .. . ...
ROW 1F : A#3 0B . ... : G-3 0B . ... : ... .. . ... : ... .. . ... : ... .. . ...
ROW 20 : ... .. . ... : ... .. . ... : ... .. . ... : ... .. . ... : C-3 00 . ...
ROW 21 : G-3 0B . ... : G-2 0B . ... : G-2 17 . ... : ... .. . ... : ... .. . ...
ROW 22 : ... .. . ... : ... .. . ... : ... .. . ... : ... .. . ... : ... .. . ...
ROW 23 : G-2 0B . ... : F-3 0B . ... : ... .. . ... : ... .. . ... : ... .. . ...
ROW 24 : ... .. . ... : ... .. . ... : ... .. . ... : ... .. . ... : ... .. . ...
ROW 25 : F-3 0B . ... : A#3 0B . ... : --- .. . ... : ... .. . ... : ... .. . ...
ROW 26 : ... .. . ... : ... .. . ... : ... .. . ... : ... .. . ... : ... .. . ...
ROW 27 : C-3 0B . ... : G-3 0B . ... : ... .. . ... : ... .. . ... : ... .. . ...
ROW 28 : ... .. . ... : ... .. . ... : ... .. . ... : ... .. . ... : D-3 00 . ...
ROW 29 : A#3 0B . ... : G-2 0B . ... : G-3 17 . ... : A-# 1B . ... : ... .. . ...
ROW 2A : ... .. . ... : ... .. . ... : ... .. . ... : ... .. . ... : ... .. . ...
ROW 2B : G-3 0B . ... : F-3 0B . ... : ... .. . ... : ... .. . ... : ... .. . ...
ROW 2C : ... .. . ... : ... .. . ... : ... .. . ... : ... .. . ... : ... .. . ...
ROW 2D : G-2 0B . ... : C-3 0B . ... : --- .. . ... : ... .. . ... : ... .. . ...
ROW 2E : ... .. . ... : ... .. . ... : ... .. . ... : ... .. . ... : ... .. . ...
ROW 2F : F-3 0B . ... : A#3 0B . ... : ... .. . ... : ... .. . ... : ... .. . ...
ROW 30 : ... .. . ... : ... .. . ... : ... .. . ... : ... .. . ... : C-3 00 . ...
ROW 31 : C-3 0B . ... : G-3 0B . ... : G-2 17 . ... : ... .. . ... : ... .. . ...
ROW 32 : ... .. . ... : ... .. . ... : ... .. . ... : ... .. . ... : ... .. . ...
ROW 33 : A#3 0B . ... : G-2 0B . ... : ... .. . ... : ... .. . ... : ... .. . ...
ROW 34 : ... .. . ... : ... .. . ... : ... .. . ... : ... .. . ... : ... .. . ...
ROW 35 : G-3 0B . ... : F-3 0B . ... : --- .. . ... : ... .. . ... : ... .. . ...
ROW 36 : ... .. . ... : ... .. . ... : ... .. . ... : ... .. . ... : ... .. . ...
ROW 37 : G-2 0B . ... : A#3 0B . ... : ... .. . ... : ... .. . ... : ... .. . ...
ROW 38 : ... .. . ... : ... .. . ... : ... .. . ... : ... .. . ... : D-3 00 . ...
ROW 39 : F-3 0B . ... : G-3 0B . ... : G-3 17 . ... : A-# 1B . ... : ... .. . ...
ROW 3A : ... .. . ... : ... .. . ... : ... .. . ... : ... .. . ... : ... .. . ...
ROW 3B : C-3 0B . ... : G-2 0B . ... : ... .. . ... : ... .. . ... : ... .. . ...
ROW 3C : ... .. . ... : ... .. . ... : ... .. . ... : ... .. . ... : ... .. . ...
ROW 3D : A#3 0B . ... : F-3 0B . ... : --- .. . ... : ... .. . ... : ... .. . ...
ROW 3E : ... .. . ... : ... .. . ... : ... .. . ... : ... .. . ... : ... .. . ...
ROW 3F : G-3 0B . ... : C-3 0B . ... : ... .. . ... : ... .. . ... : ... .. . ...
ROW 40 : ... .. . ... : ... .. . ... : ... .. . ... : ... .. . ... : C-3 00 . ...
ROW 41 : G-2 0B . ... : A#3 0B . ... : G-2 17 . ... : ... .. . ... : ... .. . ...
ROW 42 : ... .. . ... : ... .. . ... : ... .. . ... : ... .. . ... : ... .. . ...
ROW 43 : F-3 0B . ... : G-3 0B . ... : ... .. . ... : ... .. . ... : ... .. . ...
ROW 44 : ... .. . ... : ... .. . ... : ... .. . ... : ... .. . ... : ... .. . ...
ROW 45 : C-3 0B . ... : G-2 0B . ... : --- .. . ... : ... .. . ... : ... .. . ...
ROW 46 : ... .. . ... : ... .. . ... : ... .. . ... : ... .. . ... : ... .. . ...
ROW 47 : A#3 0B . ... : F-3 0B . ... : ... .. . ... : ... .. . ... : ... .. . ...
ROW 48 : ... .. . ... : ... .. . ... : ... .. . ... : ... .. . ... : D-3 00 . ...
ROW 49 : G-3 0B . ... : A#3 0B . ... : G-3 17 . ... : A-# 1B . ... : ... .. . ...
ROW 4A : ... .. . ... : ... .. . ... : ... .. . ... : ... .. . ... : ... .. . ...
ROW 4B : G-2 0B . ... : G-3 0B . ... : ... .. . ... : ... .. . ... : ... .. . ...
ROW 4C : ... .. . ... : ... .. . ... : ... .. . ... : ... .. . ... : ... .. . ...
ROW 4D : F-3 0B . ... : G-2 0B . ... : --- .. . ... : ... .. . ... : ... .. . ...
ROW 4E : ... .. . ... : ... .. . ... : ... .. . ... : ... .. . ... : ... .. . ...
ROW 4F : C-3 0B . ... : F-3 0B . ... : ... .. . ... : ... .. . ... : ... .. . ...
ROW 50 : ... .. . ... : ... .. . ... : ... .. . ... : ... .. . ... : D-3 00 . ...
ROW 51 : A#3 0B . ... : C-3 0B . ... : F-3 17 . ... : A-# 1B . ... : ... .. . ...
ROW 52 : ... .. . ... : ... .. . ... : ... .. . ... : ... .. . ... : E-3 00 . W09
ROW 53 : G-3 0B . ... : A#3 0B . ... : C-3 17 . ... : ... .. . ... : ... .. . ...
ROW 54 : ... .. . ... : ... .. . ... : ... .. . ... : ... .. . ... : D-3 00 . ...
ROW 55 : G-2 0B . ... : G-3 0B . ... : G-3 17 . ... : A-# 1B . ... : ... .. . ...
ROW 56 : ... .. . ... : ... .. . ... : ... .. . ... : ... .. . ... : D-3 00 . ...
ROW 57 : F-3 0B . ... : G-2 0B . ... : G-2 17 . ... : A-# 1B . ... : ... .. . ...

PATTERN 03
ROW 00 : ... .. . ... : ... .. . ... : ... .. . ... : ... .. . ... : C-3 00 . ...
ROW 01 : C-3 0B . ... : F-3 0B . ... : E-2 17 . ... : ... .. . ... : ... .. . ...
ROW 02 : ... .. . ... : ... .. . ... : ... .. . ... : ... .. . ... : ... .. . ...
ROW 03 : A#3 0B . ... : A#3 0B . ... : ... .. . ... : ... .. . ... : ... .. . ...
ROW 04 : ... .. . ... : ... .. . ... : ... .. . ... : ... .. . ... : ... .. . ...
ROW 05 : E-3 0B . ... : E-3 0B . ... : --- .. . ... : ... .. . ... : ... .. . ...
ROW 06 : ... .. . ... : ... .. . ... : ... .. . ... : ... .. . ... : ... .. . ...
ROW 07 : E-2 0B . ... : E-2 0B . ... : ... .. . ... : ... .. . ... : ... .. . ...
ROW 08 : ... .. . ... : ... .. . ... : ... .. . ... : ... .. . ... : D-3 00 . ...
ROW 09 : D-3 0B . ... : D-3 0B . ... : E-3 17 . ... : A-# 1B . ... : ... .. . ...
ROW 0A : ... .. . ... : ... .. . ... : ... .. . ... : ... .. . ... : ... .. . ...
ROW 0B : A-2 0B . ... : A-2 0B . ... : ... .. . ... : ... .. . ... : ... .. . ...
ROW 0C : ... .. . ... : ... .. . ... : ... .. . ... : ... .. . ... : ... .. . ...
ROW 0D : G-3 0B . ... : G-3 0B . ... : --- .. . ... : ... .. . ... : ... .. . ...
ROW 0E : ... .. . ... : ... .. . ... : ... .. . ... : ... .. . ... : ... .. . ...
ROW 0F : E-3 0B . ... : E-3 0B . ... : ... .. . ... : ... .. . ... : ... .. . ...
ROW 10 : ... .. . ... : ... .. . ... : ... .. . ... : ... .. . ... : C-3 00 . ...
ROW 11 : E-2 0B . ... : E-2 0B . ... : E-2 17 . ... : ... .. . ... : ... .. . ...
ROW 12 : ... .. . ... : ... .. . ... : ... .. . ... : ... .. . ... : ... .. . ...
ROW 13 : D-3 0B . ... : D-3 0B . ... : ... .. . ... : ... .. . ... : ... .. . ...
ROW 14 : ... .. . ... : ... .. . ... : ... .. . ... : ... .. . ... : ... .. . ...
ROW 15 : A-2 0B . ... : G-3 0B . ... : --- .. . ... : ... .. . ... : ... .. . ...
ROW 16 : ... .. . ... : ... .. . ... : ... .. . ... : ... .. . ... : ... .. . ...
ROW 17 : G-3 0B . ... : E-3 0B . ... : ... .. . ... : ... .. . ... : ... .. . ...
ROW 18 : ... .. . ... : ... .. . ... : ... .. . ... : ... .. . ... : D-3 00 . ...
ROW 19 : E-3 0B . ... : E-2 0B . ... : E-3 17 . ... : A-# 1B . ... : ... .. . ...
ROW 1A : ... .. . ... : ... .. . ... : ... .. . ... : ... .. . ... : ... .. . ...
ROW 1B : E-2 0B . ... : D-3 0B . ... : ... .. . ... : ... .. . ... : ... .. . ...
ROW 1C : ... .. . ... : ... .. . ... : ... .. . ... : ... .. . ... : ... .. . ...
ROW 1D : D-3 0B . ... : A-2 0B . ... : --- .. . ... : ... .. . ... : ... .. . ...
ROW 1E : ... .. . ... : ... .. . ... : ... .. . ... : ... .. . ... : ... .. . ...
ROW 1F : A-2 0B . ... : G-3 0B . ... : ... .. . ... : ... .. . ... : ... .. . ...
ROW 20 : ... .. . ... : ... .. . ... : ... .. . ... : ... .. . ... : C-3 00 . ...
ROW 21 : G-3 0B . ... : E-3 0B . ... : E-2 17 . ... : ... .. . ... : ... .. . ...
ROW 22 : ... .. . ... : ... .. . ... : ... .. . ... : ... .. . ... : ... .. . ...
ROW 23 : E-3 0B . ... : E-2 0B . ... : ... .. . ... : ... .. . ... : ... .. . ...
ROW 24 : ... .. . ... : ... .. . ... : ... .. . ... : ... .. . ... : ... .. . ...
ROW 25 : E-2 0B . ... : D-3 0B . ... : --- .. . ... : ... .. . ... : ... .. . ...
ROW 26 : ... .. . ... : ... .. . ... : ... .. . ... : ... .. . ... : ... .. . ...
ROW 27 : D-3 0B . ... : G-3 0B . ... : ... .. . ... : ... .. . ... : ... .. . ...
ROW 28 : ... .. . ... : ... .. . ... : ... .. . ... : ... .. . ... : D-3 00 . ...
ROW 29 : A-2 0B . ... : E-3 0B . ... : E-3 17 . ... : A-# 1B . ... : ... .. . ...
ROW 2A : ... .. . ... : ... .. . ... : ... .. . ... : ... .. . ... : ... .. . ...
ROW 2B : G-3 0B . ... : E-2 0B . ... : ... .. . ... : ... .. . ... : ... .. . ...
ROW 2C : ... .. . ... : ... .. . ... : ... .. . ... : ... .. . ... : ... .. . ...
ROW 2D : E-3 0B . ... : D-3 0B . ... : --- .. . ... : ... .. . ... : ... .. . ...
ROW 2E : ... .. . ... : ... .. . ... : ... .. . ... : ... .. . ... : ... .. . ...
ROW 2F : E-2 0B . ... : A-2 0B . ... : ... .. . ... : ... .. . ... : ... .. . ...
ROW 30 : ... .. . ... : ... .. . ... : ... .. . ... : ... .. . ... : C-3 00 . ...
ROW 31 : D-3 0B . ... : G-3 0B . ... : E-2 17 . ... : ... .. . ... : ... .. . ...
ROW 32 : ... .. . ... : ... .. . ... : ... .. . ... : ... .. . ... : ... .. . ...
ROW 33 : A-2 0B . ... : E-3 0B . ... : ... .. . ... : ... .. . ... : ... .. . ...
ROW 34 : ... .. . ... : ... .. . ... : ... .. . ... : ... .. . ... : ... .. . ...
ROW 35 : G-3 0B . ... : E-2 0B . ... : --- .. . ... : ... .. . ... : ... .. . ...
ROW 36 : ... .. . ... : ... .. . ... : ... .. . ... : ... .. . ... : ... .. . ...
ROW 37 : E-3 0B . ... : D-3 0B . ... : ... .. . ... : ... .. . ... : ... .. . ...
ROW 38 : ... .. . ... : ... .. . ... : ... .. . ... : ... .. . ... : D-3 00 . ...
ROW 39 : E-2 0B . ... : G-3 0B . ... : E-3 17 . ... : A-# 1B . ... : ... .. . ...
ROW 3A : ... .. . ... : ... .. . ... : ... .. . ... : ... .. . ... : ... .. . ...
ROW 3B : D-3 0B . ... : E-3 0B . ... : ... .. . ... : ... .. . ... : ... .. . ...
ROW 3C : ... .. . ... : ... .. . ... : ... .. . ... : ... .. . ... : ... .. . ...
ROW 3D : A-2 0B . ... : E-2 0B . ... : --- .. . ... : ... .. . ... : ... .. . ...
ROW 3E : ... .. . ... : ... .. . ... : ... .. . ... : ... .. . ... : ... .. . ...
ROW 3F : G-3 0B . ... : D-3 0B . ... : ... .. . ... : ... .. . ... : ... .. . ...
ROW 40 : ... .. . ... : ... .. . ... : ... .. . ... : ... .. . ... : C-3 00 . ...
ROW 41 : E-3 0B . ... : A-2 0B . ... : E-2 17 . ... : ... .. . ... : ... .. . ...
ROW 42 : ... .. . ... : ... .. . ... : ... .. . ... : ... .. . ... : ... .. . ...
ROW 43 : E-2 0B . ... : G-3 0B . ... : ... .. . ... : ... .. . ... : ... .. . ...
ROW 44 : ... .. . ... : ... .. . ... : ... .. . ... : ... .. . ... : ... .. . ...
ROW 45 : D-3 0B . ... : E-3 0B . ... : --- .. . ... : ... .. . ... : ... .. . ...
ROW 46 : ... .. . ... : ... .. . ... : ... .. . ... : ... .. . ... : ... .. . ...
ROW 47 : A-2 0B . ... : E-2 0B . ... : ... .. . ... : ... .. . ... : ... .. . ...
ROW 48 : ... .. . ... : ... .. . ... : ... .. . ... : ... .. . ... : D-3 00 . ...
ROW 49 : G-3 0B . ... : D-3 0B . ... : E-3 17 . ... : A-# 1B . ... : ... .. . ...
ROW 4A : ... .. . ... : ... .. . ... : ... .. . ... : ... .. . ... : ... .. . ...
ROW 4B : E-3 0B . ... : G-3 0B . ... : ... .. . ... : ... .. . ... : ... .. . ...
ROW 4C : ... .. . ... : ... .. . ... : ... .. . ... : ... .. . ... : ... .. . ...
ROW 4D : E-2 0B . ... : E-3 0B . ... : --- .. . ... : ... .. . ... : ... .. . ...
ROW 4E : ... .. . ... : ... .. . ... : ... .. . ... : ... .. . ... : ... .. . ...
ROW 4F : D-3 0B . ... : E-2 0B . ... : ... .. . ... : ... .. . ... : ... .. . ...
ROW 50 : ... .. . ... : ... .. . ... : ... .. . ... : ... .. . ... : D-3 00 . ...
ROW 51 : A-2 0B . ... : D-3 0B . ... : D-3 17 . ... : A-# 1B . ... : ... .. . ...
ROW 52 : ... .. . ... : ... .. . ... : ... .. . ... : ... .. . ... : E-3 00 . W09
ROW 53 : G-3 0B . ... : A-2 0B . ... : A-2 17 . ... : ... .. . ... : ... .. . ...
ROW 54 : ... .. . ... : ... .. . ... : ... .. . ... : ... .. . ... : D-3 00 . ...
ROW 55 : E-3 0B . ... : G-3 0B . ... : E-3 17 . ... : A-# 1B . ... : ... .. . ...
ROW 56 : ... .. . ... : ... .. . ... : ... .. . ... : ... .. . ... : D-3 00 . ...
ROW 57 : E-2 0B . ... : E-3 0B . ... : E-2 17 . ... : A-# 1B . ... : ... .. . ...

PATTERN 04
ROW 00 : ... .. . ... : ... .. . ... : ... .. . ... : ... .. . ... : C-3 00 . ...
ROW 01 : D-3 0B . ... : E-2 0B . ... : G-2 17 . ... : ... .. . ... : ... .. . ...
ROW 02 : ... .. . ... : ... .. . ... : ... .. . ... : ... .. . ... : ... .. . ...
ROW 03 : A-2 0B . ... : D-3 0B . ... : ... .. . ... : ... .. . ... : ... .. . ...
ROW 04 : ... .. . ... : ... .. . ... : ... .. . ... : ... .. . ... : ... .. . ...
ROW 05 : G-3 0B . ... : G-3 0B . ... : --- .. . ... : ... .. . ... : ... .. . ...
ROW 06 : ... .. . ... : ... .. . ... : ... .. . ... : ... .. . ... : ... .. . ...
ROW 07 : G-3 0B . ... : G-3 0B . ... : ... .. . ... : ... .. . ... : ... .. . ...
ROW 08 : ... .. . ... : ... .. . ... : ... .. . ... : ... .. . ... : D-3 00 . ...
ROW 09 : G-2 0B . ... : G-2 0B . ... : G-3 17 . ... : A-# 1B . ... : ... .. . ...
ROW 0A : ... .. . ... : ... .. . ... : ... .. . ... : ... .. . ... : ... .. . ...
ROW 0B : F-3 0B . ... : F-3 0B . ... : ... .. . ... : ... .. . ... : ... .. . ...
ROW 0C : ... .. . ... : ... .. . ... : ... .. . ... : ... .. . ... : ... .. . ...
ROW 0D : C-3 0B . ... : C-3 0B . ... : --- .. . ... : ... .. . ... : ... .. . ...
ROW 0E : ... .. . ... : ... .. . ... : ... .. . ... : ... .. . ... : ... .. . ...
ROW 0F : A#3 0B . ... : A#3 0B . ... : ... .. . ... : ... .. . ... : ... .. . ...
ROW 10 : ... .. . ... : ... .. . ... : ... .. . ... : ... .. . ... : C-3 00 . ...
ROW 11 : G-3 0B . ... : G-3 0B . ... : G-2 17 . ... : ... .. . ... : ... .. . ...
ROW 12 : ... .. . ... : ... .. . ... : ... .. . ... : ... .. . ... : ... .. . ...
ROW 13 : G-2 0B . ... : G-2 0B . ... : ... .. . ... : ... .. . ... : ... .. . ...
ROW 14 : ... .. . ... : ... .. . ... : ... .. . ... : ... .. . ... : ... .. . ...
ROW 15 : F-3 0B . ... : F-3 0B . ... : --- .. . ... : ... .. . ... : ... .. . ...
ROW 16 : ... .. . ... : ... .. . ... : ... .. . ... : ... .. . ... : ... .. . ...
ROW 17 : C-3 0B . ... : A#3 0B . ... : ... .. . ... : ... .. . ... : ... .. . ...
ROW 18 : ... .. . ... : ... .. . ... : ... .. . ... : ... .. . ... : D-3 00 . ...
ROW 19 : A#3 0B . ... : G-3 0B . ... : G-3 17 . ... : A-# 1B . ... : ... .. . ...
ROW 1A : ... .. . ... : ... .. . ... : ... .. . ... : ... .. . ... : ... .. . ...
ROW 1B : G-3 0B . ... : G-2 0B . ... : ... .. . ... : ... .. . ... : ... .. . ...
ROW 1C : ... .. . ... : ... .. . ... : ... .. . ... : ... .. . ... : ... .. . ...
ROW 1D : G-2 0B . ... : F-3 0B . ... : --- .. . ... : ... .. . ... : ... .. . ...
ROW 1E : ... .. . ... : ... .. . ... : ... .. . ... : ... .. . ... : ... .. . ...
ROW 1F : F-3 0B . ... : C-3 0B . ... : ... .. . ... : ... .. . ... : ... .. . ...
ROW 20 : ... .. . ... : ... .. . ... : ... .. . ... : ... .. . ... : C-3 00 . ...
ROW 21 : C-3 0B . ... : A#3 0B . ... : G-2 17 . ... : ... .. . ... : ... .. . ...
ROW 22 : ... .. . ... : ... .. . ... : ... .. . ... : ... .. . ... : ... .. . ...
ROW 23 : A#3 0B . ... : G-3 0B . ... : ... .. . ... : ... .. . ... : ... .. . ...
ROW 24 : ... .. . ... : ... .. . ... : ... .. . ... : ... .. . ... : ... .. . ...
ROW 25 : G-3 0B . ... : G-2 0B . ... : --- .. . ... : ... .. . ... : ... .. . ...
ROW 26 : ... .. . ... : ... .. . ... : ... .. . ... : ... .. . ... : ... .. . ...
ROW 27 : G-2 0B . ... : F-3 0B . ... : ... .. . ... : ... .. . ... : ... .. . ...
ROW 28 : ... .. . ... : ... .. . ... : ... .. . ... : ... .. . ... : D-3 00 . ...
ROW 29 : F-3 0B . ... : A#3 0B . ... : G-3 17 . ... : A-# 1B . ... : ... .. . ...
ROW 2A : ... .. . ... : ... .. . ... : ... .. . ... : ... .. . ... : ... .. . ...
ROW 2B : C-3 0B . ... : G-3 0B . ... : ... .. . ... : ... .. . ... : ... .. . ...
ROW 2C : ... .. . ... : ... .. . ... : ... .. . ... : ... .. . ... : ... .. . ...
ROW 2D : A#3 0B . ... : G-2 0B . ... : --- .. . ... : ... .. . ... : ... .. . ...
ROW 2E : ... .. . ... : ... .. . ... : ... .. . ... : ... .. . ... : ... .. . ...
ROW 2F : G-3 0B . ... : F-3 0B . ... : ... .. . ... : ... .. . ... : ... .. . ...
ROW 30 : ... .. . ... : ... .. . ... : ... .. . ... : ... .. . ... : C-3 00 . ...
ROW 31 : G-2 0B . ... : C-3 0B . ... : G-2 17 . ... : ... .. . ... : ... .. . ...
ROW 32 : ... .. . ... : ... .. . ... : ... .. . ... : ... .. . ... : ... .. . ...
ROW 33 : F-3 0B . ... : A#3 0B . ... : ... .. . ... : ... .. . ... : ... .. . ...
ROW 34 : ... .. . ... : ... .. . ... : ... .. . ... : ... .. . ... : ... .. . ...
ROW 35 : C-3 0B . ... : G-3 0B . ... : --- .. . ... : ... .. . ... : ... .. . ...
ROW 36 : ... .. . ... : ... .. . ... : ... .. . ... : ... .. . ... : ... .. . ...
ROW 37 : A#3 0B . ... : G-2 0B . ... : ... .. . ... : ... .. . ... : ... .. . ...
ROW 38 : ... .. . ... : ... .. . ... : ... .. . ... : ... .. . ... : D-3 00 . ...
ROW 39 : G-3 0B . ... : F-3 0B . ... : G-3 17 . ... : A-# 1B . ... : ... .. . ...
ROW 3A : ... .. . ... : ... .. . ... : ... .. . ... : ... .. . ... : ... .. . ...
ROW 3B : G-2 0B . ... : A#3 0B . ... : ... .. . ... : ... .. . ... : ... .. . ...
ROW 3C : ... .. . ... : ... .. . ... : ... .. . ... : ... .. . ... : ... .. . ...
ROW 3D : F-3 0B . ... : G-3 0B . ... : --- .. . ... : ... .. . ... : ... .. . ...
ROW 3E : ... .. . ... : ... .. . ... : ... .. . ... : ... .. . ... : ... .. . ...
ROW 3F : C-3 0B . ... : G-2 0B . ... : ... .. . ... : ... .. . ... : ... .. . ...
ROW 40 : ... .. . ... : ... .. . ... : ... .. . ... : ... .. . ... : C-3 00 . ...
ROW 41 : A#3 0B . ... : F-3 0B . ... : G-2 17 . ... : ... .. . ... : ... .. . ...
ROW 42 : ... .. . ... : ... .. . ... : ... .. . ... : ... .. . ... : ... .. . ...
ROW 43 : G-3 0B . ... : C-3 0B . ... : ... .. . ... : ... .. . ... : ... .. . ...
ROW 44 : ... .. . ... : ... .. . ... : ... .. . ... : ... .. . ... : ... .. . ...
ROW 45 : G-2 0B . ... : A#3 0B . ... : --- .. . ... : ... .. . ... : ... .. . ...
ROW 46 : ... .. . ... : ... .. . ... : ... .. . ... : ... .. . ... : ... .. . ...
ROW 47 : F-3 0B . ... : G-3 0B . ... : ... .. . ... : ... .. . ... : ... .. . ...
ROW 48 : ... .. . ... : ... .. . ... : ... .. . ... : ... .. . ... : D-3 00 . ...
ROW 49 : C-3 0B . ... : G-2 0B . ... : G-3 17 . ... : A-# 1B . ... : ... .. . ...
ROW 4A : ... .. . ... : ... .. . ... : ... .. . ... : ... .. . ... : ... .. . ...
ROW 4B : A#3 0B . ... : F-3 0B . ... : ... .. . ... : ... .. . ... : ... .. . ...
ROW 4C : ... .. . ... : ... .. . ... : ... .. . ... : ... .. . ... : ... .. . ...
ROW 4D : G-3 0B . ... : A#3 0B . ... : --- .. . ... : ... .. . ... : ... .. . ...
ROW 4E : ... .. . ... : ... .. . ... : ... .. . ... : ... .. . ... : ... .. . ...
ROW 4F : G-2 0B . ... : G-3 0B . ... : ... .. . ... : ... .. . ... : ... .. . ...
ROW 50 : ... .. . ... : ... .. . ... : ... .. . ... : ... .. . ... : D-3 00 . ...
ROW 51 : F-3 0B . ... : G-2 0B . ... : F-3 17 . ... : A-# 1B . ... : ... .. . ...
ROW 52 : ... .. . ... : ... .. . ... : ... .. . ... : ... .. . ... : E-3 00 . W09
ROW 53 : C-3 0B . ... : F-3 0B . ... : C-3 17 . ... : ... .. . ... : ... .. . ...
ROW 54 : ... .. . ... : ... .. . ... : ... .. . ... : ... .. . ... : D-3 00 . ...
ROW 55 : A#3 0B . ... : C-3 0B . ... : G-3 17 . ... : A-# 1B . ... : ... .. . ...
ROW 56 : ... .. . ... : ... .. . ... : ... .. . ... : ... .. . ... : D-3 00 . ...
ROW 57 : G-3 0B . ... : A#3 0B . ... : G-2 17 . ... : A-# 1B . ... : ... .. . ...

PATTERN 05
ROW 00 : ... .. . ... : ... .. . ... : ... .. . ... : ... .. . ... : C-3 00 . ...
ROW 01 : G-2 0B . ... : G-3 0B . ... : E-2 17 . ... : ... .. . ... : ... .. . ...
ROW 02 : ... .. . ... : ... .. . ... : ... .. . ... : ... .. . ... : ... .. . ...
ROW 03 : F-3 0B . ... : G-2 0B . ... : ... .. . ... : ... .. . ... : ... .. . ...
ROW 04 : ... .. . ... : ... .. . ... : ... .. . ... : ... .. . ... : ... .. . ...
ROW 05 : C-3 0B . ... : F-3 0B . ... : --- .. . ... : ... .. . ... : ... .. . ...
ROW 06 : ... .. . ... : ... .. . ... : ... .. . ... : ... .. . ... : ... .. . ...
ROW 07 : A#3 0B . ... : A#3 0B . ... : ... .. . ... : ... .. . ... : ... .. . ...
ROW 08 : ... .. . ... : ... .. . ... : ... .. . ... : ... .. . ... : D-3 00 . ...
ROW 09 : E-3 0B . ... : E-3 0B . ... : E-3 17 . ... : A-# 1B . ... : ... .. . ...
ROW 0A : ... .. . ... : ... .. . ... : ... .. . ... : ... .. . ... : ... .. . ...
ROW 0B : E-2 0B . ... : E-2 0B . ... : ... .. . ... : ... .. . ... : ... .. . ...
ROW 0C : ... .. . ... : ... .. . ... : ... .. . ... : ... .. . ... : ... .. . ...
ROW 0D : D-3 0B . ... : D-3 0B . ... : --- .. . ... : ... .. . ... : ... .. . ...
ROW 0E : ... .. . ... : ... .. . ... : ... .. . ... : ... .. . ... : ... .. . ...
ROW 0F : A-2 0B . ... : A-2 0B . ... : ... .. . ... : ... .. . ... : ... .. . ...
ROW 10 : ... .. . ... : ... .. . ... : ... .. . ... : ... .. . ... : C-3 00 . ...
ROW 11 : G-3 0B . ... : G-3 0B . ... : E-2 17 . ... : ... .. . ... : ... .. . ...
ROW 12 : ... .. . ... : ... .. . ... : ... .. . ... : ... .. . ... : ... .. . ...
ROW 13 : E-3 0B . ... : E-3 0B . ... : ... .. . ... : ... .. . ... : ... .. . ...
ROW 14 : ... .. . ... : ... .. . ... : ... .. . ... : ... .. . ... : ... .. . ...
ROW 15 : E-2 0B . ... : E-2 0B . ... : --- .. . ... : ... .. . ... : ... .. . ...
ROW 16 : ... .. . ... : ... .. . ... : ... .. . ... : ... .. . ... : ... .. . ...
ROW 17 : D-3 0B . ... : D-3 0B . ... : ... .. . ... : ... .. . ... : ... .. . ...
ROW 18 : ... .. . ... : ... .. . ... : ... .. . ... : ... .. . ... : D-3 00 . ...
ROW 19 : A-2 0B . ... : G-3 0B . ... : E-3 17 . ... : A-# 1B . ... : ... .. . ...
ROW 1A : ... .. . ... : ... .. . ... : ... .. . ... : ... .. . ... : ... .. . ...
ROW 1B : G-3 0B . ... : E-3 0B . ... : ... .. . ... : ... .. . ... : ... .. . ...
ROW 1C : ... .. . ... : ... .. . ... : ... .. . ... : ... .. . ... : ... .. . ...
ROW 1D : E-3 0B . ... : E-2 0B . ... : --- .. . ... : ... .. . ... : ... .. . ...
ROW 1E : ... .. . ... : ... .. . ... : ... .. . ... : ... .. . ... : ... .. . ...
ROW 1F : E-2 0B . ... : D-3 0B . ... : ... .. . ... : ... .. . ... : ... .. . ...
ROW 20 : ... .. . ... : ... .. . ... : ... .. . ... : ... .. . ... : C-3 00 . ...
ROW 21 : D-3 0B . ... : A-2 0B . ... : E-2 17 . ... : ... .. . ... : ... .. . ...
ROW 22 : ... .. . ... : ... .. . ... : ... .. . ... : ... .. . ... : ... .. . ...
ROW 23 : A-2 0B . ... : G-3 0B . ... : ... .. . ... : ... .. . ... : ... .. . ...
ROW 24 : ... .. . ... : ... .. . ... : ... .. . ... : ... .. . ... : ... .. . ...
ROW 25 : G-3 0B . ... : E-3 0B . ... : --- .. . ... : ... .. . ... : ... .. . ...
ROW 26 : ... .. . ... : ... .. . ... : ... .. . ... : ... .. . ... : ... .. . ...
ROW 27 : E-3 0B . ... : E-2 0B . ... : ... .. . ... : ... .. . ... : ... .. . ...
ROW 28 : ... .. . ... : ... .. . ... : ... .. . ... : ... .. . ... : D-3 00 . ...
ROW 29 : E-2 0B . ... : D-3 0B . ... : E-3 17 . ... : A-# 1B . ... : ... .. . ...
ROW 2A : ... .. . ... : ... .. . ... : ... .. . ... : ... .. . ... : ... .. . ...
ROW 2B : D-3 0B . ... : G-3 0B . ... : ... .. . ... : ... .. . ... : ... .. . ...
ROW 2C : ... .. . ... : ... .. . ... : ... .. . ... : ... .. . ... : ... .. . ...
ROW 2D : A-2 0B . ... : E-3 0B . ... : --- .. . ... : ... .. . ... : ... .. . ...
ROW 2E : ... .. . ... : ... .. . ... : ... .. . ... : ... .. . ... : ... .. . ...
ROW 2F : G-3 0B . ... : E-2 0B . ... : ... .. . ... : ... .. . ... : ... .. . ...
ROW 30 : ... .. . ... : ... .. . ... : ... .. . ... : ... .. . ... : C-3 00 . ...
ROW 31 : E-3 0B . ... : D-3 0B . ... : E-2 17 . ... : ... .. . ... : ... .. . ...
ROW 32 : ... .. . ... : ... .. . ... : ... .. . ... : ... .. . ... : ... .. . ...
ROW 33 : E-2 0B . ... : A-2 0B . ... : ... .. . ... : ... .. . ... : ... .. . ...
ROW 34 : ... .. . ... : ... .. . ... : ... .. . ... : ... .. . ... : ... .. . ...
ROW 35 : D-3 0B . ... : G-3 0B . ... : --- .. . ... : ... .. . ... : ... .. . ...
ROW 36 : ... .. . ... : ... .. . ... : ... .. . ... : ... .. . ... : ... .. . ...
ROW 37 : A-2 0B . ... : E-3 0B . ... : ... .. . ... : ... .. . ... : ... .. . ...
ROW 38 : ... .. . ... : ... .. . ... : ... .. . ... : ... .. . ... : D-3 00 . ...
ROW 39 : G-3 0B . ... : E-2 0B . ... : E-3 17 . ... : A-# 1B . ... : ... .. . ...
ROW 3A : ... .. . ... : ... .. . ... : ... .. . ... : ... .. . ... : ... .. . ...
ROW 3B : E-3 0B . ... : D-3 0B . ... : ... .. . ... : ... .. . ... : ... .. . ...
ROW 3C : ... .. . ... : ... .. . ... : ... .. . ... : ... .. . ... : ... .. . ...
ROW 3D : E-2 0B . ... : G-3 0B . ... : --- .. . ... : ... .. . ... : ... .. . ...
ROW 3E : ... .. . ... : ... .. . ... : ... .. . ... : ... .. . ... : ... .. . ...
ROW 3F : D-3 0B . ... : E-3 0B . ... : ... .. . ... : ... .. . ... : ... .. . ...
ROW 40 : ... .. . ... : ... .. . ... : ... .. . ... : ... .. . ... : C-3 00 . ...
ROW 41 : A-2 0B . ... : E-2 0B . ... : E-2 17 . ... : ... .. . ... : ... .. . ...
ROW 42 : ... .. . ... : ... .. . ... : ... .. . ... : ... .. . ... : ... .. . ...
ROW 43 : G-3 0B . ... : D-3 0B . ... : ... .. . ... : ... .. . ... : ... .. . ...
ROW 44 : ... .. . ... : ... .. . ... : ... .. . ... : ... .. . ... : ... .. . ...
ROW 45 : E-3 0B . ... : A-2 0B . ... : --- .. . ... : ... .. . ... : ... .. . ...
ROW 46 : ... .. . ... : ... .. . ... : ... .. . ... : ... .. . ... : ... .. . ...
ROW 47 : E-2 0B . ... : G-3 0B . ... : ... .. . ... : ... .. . ... : ... .. . ...
ROW 48 : ... .. . ... : ... .. . ... : ... .. . ... : ... .. . ... : D-3 00 . ...
ROW 49 : D-3 0B . ... : E-3 0B . ... : E-3 17 . ... : A-# 1B . ... : ... .. . ...
ROW 4A : ... .. . ... : ... .. . ... : ... .. . ... : ... .. . ... : ... .. . ...
ROW 4B : A-2 0B . ... : E-2 0B . ... : ... .. . ... : ... .. . ... : ... .. . ...
ROW 4C : ... .. . ... : ... .. . ... : ... .. . ... : ... .. . ... : ... .. . ...
ROW 4D : G-3 0B . ... : D-3 0B . ... : --- .. . ... : ... .. . ... : ... .. . ...
ROW 4E : ... .. . ... : ... .. . ... : ... .. . ... : ... .. . ... : ... .. . ...
ROW 4F : E-3 0B . ... : G-3 0B . ... : ... .. . ... : ... .. . ... : ... .. . ...
ROW 50 : ... .. . ... : ... .. . ... : ... .. . ... : ... .. . ... : D-3 00 . ...
ROW 51 : E-2 0B . ... : E-3 0B . ... : D-3 17 . ... : A-# 1B . ... : ... .. . ...
ROW 52 : ... .. . ... : ... .. . ... : ... .. . ... : ... .. . ... : E-3 00 . W09
ROW 53 : D-3 0B . ... : E-2 0B . ... : A-2 17 . ... : ... .. . ... : ... .. . ...
ROW 54 : ... .. . ... : ... .. . ... : ... .. . ... : ... .. . ... : D-3 00 . ...
ROW 55 : A-2 0B . ... : D-3 0B . ... : E-3 17 . ... : A-# 1B . ... : ... .. . ...
ROW 56 : ... .. . ... : ... .. . ... : ... .. . ... : ... .. . ... : D-3 00 . ...
ROW 57 : G-3 0B . ... : A-2 0B . ... : E-2 17 . ... : A-# 1B . ... : ... .. . ...

PATTERN 06
ROW 00 : ... .. . ... : ... .. . ... : ... .. . ... : ... .. . ... : C-3 00 . ...
ROW 01 : E-3 0B . ... : G-3 0B . ... : G-2 17 . ... : ... .. . ... : ... .. . ...
ROW 02 : ... .. . ... : ... .. . ... : ... .. . ... : ... .. . ... : ... .. . ...
ROW 03 : E-2 0B . ... : E-3 0B . ... : ... .. . ... : ... .. . ... : ... .. . ...
ROW 04 : ... .. . ... : ... .. . ... : ... .. . ... : ... .. . ... : ... .. . ...
ROW 05 : D-3 0B . ... : E-2 0B . ... : --- .. . ... : ... .. . ... : ... .. . ...
ROW 06 : ... .. . ... : ... .. . ... : ... .. . ... : ... .. . ... : ... .. . ...
ROW 07 : A-2 0B . ... : D-3 0B . ... : ... .. . ... : ... .. . ... : ... .. . ...
ROW 08 : ... .. . ... : ... .. . ... : ... .. . ... : ... .. . ... : D-3 00 . ...
ROW 09 : G-3 0B . ... : G-3 0B . ... : G-3 17 . ... : A-# 1B . ... : ... .. . ...
ROW 0A : ... .. . ... : ... .. . ... : ... .. . ... : ... .. . ... : ... .. . ...
ROW 0B : G-3 0B . ... : G-3 0B . ... : ... .. . ... : ... .. . ... : ... .. . ...
ROW 0C : ... .. . ... : ... .. . ... : ... .. . ... : ... .. . ... : ... .. . ...
ROW 0D : G-2 0B . ... : G-2 0B . ... : --- .. . ... : ... .. . ... : ... .. . ...
ROW 0E : ... .. . ... : ... .. . ... : ... .. . ... : ... .. . ... : ... .. . ...
ROW 0F : F-3 0B . ... : F-3 0B . ... : ... .. . ... : ... .. . ... : ... .. . ...
ROW 10 : ... .. . ... : ... .. . ... : ... .. . ... : ... .. . ... : C-3 00 . ...
ROW 11 : C-3 0B . ... : C-3 0B . ... : G-2 17 . ... : ... .. . ... : ... .. . ...
ROW 12 : ... .. . ... : ... .. . ... : ... .. . ... : ... .. . ... : ... .. . ...
ROW 13 : A#3 0B . ... : A#3 0B . ... : ... .. . ... : ... .. . ... : ... .. . ...
ROW 14 : ... .. . ... : ... .. . ... : ... .. . ... : ... .. . ... : ... .. . ...
ROW 15 : G-3 0B . ... : G-3 0B . ... : --- .. . ... : ... .. . ... : ... .. . ...
ROW 16 : ... .. . ... : ... .. . ... : ... .. . ... : ... .. . ... : ... .. . ...
ROW 17 : G-2 0B . ... : G-2 0B . ... : ... .. . ... : ... .. . ... : ... .. . ...
ROW 18 : ... .. . ... : ... .. . ... : ... .. . ... : ... .. . ... : D-3 00 . ...
ROW 19 : F-3 0B . ... : F-3 0B . ... : G-3 17 . ... : A-# 1B . ... : ... .. . ...
ROW 1A : ... .. . ... : ... .. . ... : ... .. . ... : ... .. . ... : ... .. . ...
ROW 1B : C-3 0B . ... : A#3 0B . ... : ... .. . ... : ... .. . ... : ... .. . ...
ROW 1C : ... .. . ... : ... .. . ... : ... .. . ... : ... .. . ... : ... .. . ...
ROW 1D : A#3 0B . ... : G-3 0B . ... : --- .. . ... : ... .. . ... : ... .. . ...
ROW 1E : ... .. . ... : ... .. . ... : ... .. . ... : ... .. . ... : ... .. . ...
ROW 1F : G-3 0B . ... : G-2 0B . ... : ... .. . ... : ... .. . ... : ... .. . ...
ROW 20 : ... .. . ... : ... .. . ... : ... .. . ... : ... .. . ... : C-3 00 . ...
ROW 21 : G-2 0B . ... : F-3 0B . ... : G-2 17 . ... : ... .. . ... : ... .. . ...
ROW 22 : ... .. . ... : ... .. . ... : ... .. . ... : ... .. . ... : ... .. . ...
ROW 23 : F-3 0B . ... : C-3 0B . ... : ... .. . ... : ... .. . ... : ... .. . ...
ROW 24 : ... .. . ... : ... .. . ... : ... .. . ... : ... .. . ... : ... .. . ...
ROW 25 : C-3 0B . ... : A#3 0B . ... : --- .. . ... : ... .. . ... : ... .. . ...
ROW 26 : ... .. . ... : ... .. . ... : ... .. . ... : ... .. . ... : ... .. . ...
ROW 27 : A#3 0B . ... : G-3 0B . ... : ... .. . ... : ... .. . ... : ... .. . ...
ROW 28 : ... .. . ... : ... .. . ... : ... .. . ... : ... .. . ... : D-3 00 . ...
ROW 29 : G-3 0B . ... : G-2 0B . ... : G-3 17 . ... : A-# 1B . ... : ... .. . ...
ROW 2A : ... .. . ... : ... .. . ... : ... .. . ... : ... .. . ... : ... .. . ...
ROW 2B : G-2 0B . ... : F-3 0B . ... : ... .. . ... : ... .. . ... : ... .. . ...
ROW 2C : ... .. . ... : ... .. . ... : ... .. . ... : ... .. . ... : ... .. . ...
ROW 2D : F-3 0B . ... : A#3 0B . ... : --- .. . ... : ... .. . ... : ... .. . ...
ROW 2E : ... .. . ... : ... .. . ... : ... .. . ... : ... .. . ... : ... .. . ...
ROW 2F : C-3 0B . ... : G-3 0B . ... : ... .. . ... : ... .. . ... : ... .. . ...
ROW 30 : ... .. . ... : ... .. . ... : ... .. . ... : ... .. . ... : C-3 00 . ...
ROW 31 : A#3 0B . ... : G-2 0B . ... : G-2 17 . ... : ... .. . ... : ... .. . ...
ROW 32 : ... .. . ... : ... .. . ... : ... .. . ... : ... .. . ... : ... .. . ...
ROW 33 : G-3 0B . ... : F-3 0B . ... : ... .. . ... : ... .. . ... : ... .. . ...
ROW 34 : ... .. . ... : ... .. . ... : ... .. . ... : ... .. . ... : ... .. . ...
ROW 35 : G-2 0B . ... : C-3 0B . ... : --- .. . ... : ... .. . ... : ... .. . ...
ROW 36 : ... .. . ... : ... .. . ... : ... .. . ... : ... .. . ... : ... .. . ...
ROW 37 : F-3 0B . ... : A#3 0B . ... : ... .. . ... : ... .. . ... : ... .. . ...
ROW 38 : ... .. . ... : ... .. . ... : ... .. . ... : ... .. . ... : D-3 00 . ...
ROW 39 : C-3 0B . ... : G-3 0B . ... : G-3 17 . ... : A-# 1B . ... : ... .. . ...
ROW 3A : ... .. . ... : ... .. . ... : ... .. . ... : ... .. . ... : ... .. . ...
ROW 3B : A#3 0B . ... : G-2 0B . ... : ... .. . ... : ... .. . ... : ... .. . ...
ROW 3C : ... .. . ... : ... .. . ... : ... .. . ... : ... .. . ... : ... .. . ...
ROW 3D : G-3 0B . ... : F-3 0B . ... : --- .. . ... : ... .. . ... : ... .. . ...
ROW 3E : ... .. . ... : ... .. . ... : ... .. . ... : ... .. . ... : ... .. . ...
ROW 3F : G-2 0B . ... : A#3 0B . ... : ... .. . ... : ... .. . ... : ... .. . ...
ROW 40 : ... .. . ... : ... .. . ... : ... .. . ... : ... .. . ... : C-3 00 . ...
ROW 41 : F-3 0B . ... : G-3 0B . ... : G-2 17 . ... : ... .. . ... : ... .. . ...
ROW 42 : ... .. . ... : ... .. . ... : ... .. . ... : ... .. . ... : ... .. . ...
ROW 43 : C-3 0B . ... : G-2 0B . ... : ... .. . ... : ... .. . ... : ... .. . ...
ROW 44 : ... .. . ... : ... .. . ... : ... .. . ... : ... .. . ... : ... .. . ...
ROW 45 : A#3 0B . ... : F-3 0B . ... : --- .. . ... : ... .. . ... : ... .. . ...
ROW 46 : ... .. . ... : ... .. . ... : ... .. . ... : ... .. . ... : ... .. . ...
ROW 47 : G-3 0B . ... : C-3 0B . ... : ... .. . ... : ... .. . ... : ... .. . ...
ROW 48 : ... .. . ... : ... .. . ... : ... .. . ... : ... .. . ... : D-3 00 . ...
ROW 49 : G-2 0B . ... : A#3 0B . ... : G-3 17 . ... : A-# 1B . ... : ... .. . ...
ROW 4A : ... .. . ... : ... .. . ... : ... .. . ... : ... .. . ... : ... .. . ...
ROW 4B : F-3 0B . ... : G-3 0B . ... : ... .. . ... : ... .. . ... : ... .. . ...
ROW 4C : ... .. . ... : ... .. . ... : ... .. . ... : ... .. . ... : ... .. . ...
ROW 4D : C-3 0B . ... : G-2 0B . ... : --- .. . ... : ... .. . ... : ... .. . ...
ROW 4E : ... .. . ... : ... .. . ... : ... .. . ... : ... .. . ... : ... .. . ...
ROW 4F : A#3 0B . ... : F-3 0B . ... : ... .. . ... : ... .. . ... : ... .. . ...
ROW 50 : ... .. . ... : ... .. . ... : ... .. . ... : ... .. . ... : D-3 00 . ...
ROW 51 : G-3 0B . ... : A#3 0B . ... : F-3 17 . ... : A-# 1B . ... : ... .. . ...
ROW 52 : ... .. . ... : ... .. . ... : ... .. . ... : ... .. . ... : E-3 00 . W09
ROW 53 : G-2 0B . ... : G-3 0B . ... : C-3 17 . ... : ... .. . ... : ... .. . ...
ROW 54 : ... .. . ... : ... .. . ... : ... .. . ... : ... .. . ... : D-3 00 . ...
ROW 55 : F-3 0B . ... : G-2 0B . ... : G-3 17 . ... : A-# 1B . ... : ... .. . ...
ROW 56 : ... .. . ... : ... .. . ... : ... .. . ... : ... .. . ... : D-3 00 . ...
ROW 57 : C-3 0B . ... : F-3 0B . ... : G-2 17 . ... : A-# 1B . ... : ... .. . ...

PATTERN 07
ROW 00 : ... .. . ... : ... .. . ... : ... .. . ... : ... .. . ... : C-3 00 . ...
ROW 01 : A#3 0B . ... : C-3 0B . ... : E-2 17 . ... : ... .. . ... : ... .. . ...
ROW 02 : ... .. . ... : ... .. . ... : ... .. . ... : ... .. . ... : ... .. . ...
ROW 03 : G-3 0B . ... : A#3 0B . ... : ... .. . ... : ... .. . ... : ... .. . ...
ROW 04 : ... .. . ... : ... .. . ... : ... .. . ... : ... .. . ... : ... .. . ...
ROW 05 : G-2 0B . ... : G-3 0B . ... : --- .. . ... : ... .. . ... : ... .. . ...
ROW 06 : ... .. . ... : ... .. . ... : ... .. . ... : ... .. . ... : ... .. . ...
ROW 07 : F-3 0B . ... : G-2 0B . ... : ... .. . ... : ... .. . ... : ... .. . ...
ROW 08 : ... .. . ... : ... .. . ... : ... .. . ... : ... .. . ... : D-3 00 . ...
ROW 09 : C-3 0B . ... : F-3 0B . ... : E-3 17 . ... : A-# 1B . ... : ... .. . ...
ROW 0A : ... .. . ... : ... .. . ... : ... .. . ... : ... .. . ... : ... .. . ...
ROW 0B : A#3 0B . ... : A#3 0B . ... : ... .. . ... : ... .. . ... : ... .. . ...
ROW 0C : ... .. . ... : ... .. . ... : ... .. . ... : ... .. . ... : ... .. . ...
ROW 0D : E-3 0B . ... : E-3 0B . ... : --- .. . ... : ... .. . ... : ... .. . ...
ROW 0E : ... .. . ... : ... .. . ... : ... .. . ... : ... .. . ... : ... .. . ...
ROW 0F : E-2 0B . ... : E-2 0B . ... : ... .. . ... : ... .. . ... : ... .. . ...
ROW 10 : ... .. . ... : ... .. . ... : ... .. . ... : ... .. . ... : C-3 00 . ...
ROW 11 : D-3 0B . ... : D-3 0B . ... : E-2 17 . ... : ... .. . ... : ... .. . ...
ROW 12 : ... .. . ... : ... .. . ... : ... .. . ... : ... .. . ... : ... .. . ...
ROW 13 : A-2 0B . ... : A-2 0B . ... : ... .. . ... : ... .. . ... : ... .. . ...
ROW 14 : ... .. . ... : ... .. . ... : ... .. . ... : ... .. . ... : ... .. . ...
ROW 15 : G-3 0B . ... : G-3 0B . ... : --- .. . ... : ... .. . ... : ... .. . ...
ROW 16 : ... .. . ... : ... .. . ... : ... .. . ... : ... .. . ... : ... .. . ...
ROW 17 : E-3 0B . ... : E-3 0B . ... : ... .. . ... : ... .. . ... : ... .. . ...
ROW 18 : ... .. . ... : ... .. . ... : ... .. . ... : ... .. . ... : D-3 00 . ...
ROW 19 : E-2 0B . ... : E-2 0B . ... : E-3 17 . ... : A-# 1B . ... : ... .. . ...
ROW 1A : ... .. . ... : ... .. . ... : ... .. . ... : ... .. . ... : ... .. . ...
ROW 1B : D-3 0B . ... : D-3 0B . ... : ... .. . ... : ... .. . ... : ... .. . ...
ROW 1C : ... .. . ... : ... .. . ... : ... .. . ... : ... .. . ... : ... .. . ...
ROW 1D : A-2 0B . ... : G-3 0B . ... : --- .. . ... : ... .. . ... : ... .. . ...
ROW 1E : ... .. . ... : ... .. . ... : ... .. . ... : ... .. . ... : ... .. . ...
ROW 1F : G-3 0B . ... : E-3 0B . ... : ... .. . ... : ... .. . ... : ... .. . ...
ROW 20 : ... .. . ... : ... .. . ... : ... .. . ... : ... .. . ... : C-3 00 . ...
ROW 21 : E-3 0B . ... : E-2 0B . ... : E-2 17 . ... : ... .. . ... : ... .. . ...
ROW 22 : ... .. . ... : ... .. . ... : ... .. . ... : ... .. . ... : ... .. . ...
ROW 23 : E-2 0B . ... : D-3 0B . ... : ... .. . ... : ... .. . ... : ... .. . ...
ROW 24 : ... .. . ... : ... .. . ... : ... .. . ... : ... .. . ... : ... .. . ...
ROW 25 : D-3 0B . ... : A-2 0B . ... : --- .. . ... : ... .. . ... : ... .. . ...
ROW 26 : ... .. . ... : ... .. . ... : ... .. . ... : ... .. . ... : ... .. . ...
ROW 27 : A-2 0B . ... : G-3 0B . ... : ... .. . ... : ... .. . ... : ... .. . ...
ROW 28 : ... .. . ... : ... .. . ... : ... .. . ... : ... .. . ... : D-3 00 . ...
ROW 29 : G-3 0B . ... : E-3 0B . ... : E-3 17 . ... : A-# 1B . ... : ... .. . ...
ROW 2A : ... .. . ... : ... .. . ... : ... .. . ... : ... .. . ... : ... .. . ...
ROW 2B : E-3 0B . ... : E-2 0B . ... : ... .. . ... : ... .. . ... : ... .. . ...
ROW 2C : ... .. . ... : ... .. . ... : ... .. . ... : ... .. . ... : ... .. . ...
ROW 2D : E-2 0B . ... : D-3 0B . ... : --- .. . ... : ... .. . ... : ... .. . ...
ROW 2E : ... .. . ... : ... .. . ... : ... .. . ... : ... .. . ... : ... .. . ...
ROW 2F : D-3 0B . ... : G-3 0B . ... : ... .. . ... : ... .. . ... : ... .. . ...
ROW 30 : ... .. . ... : ... .. . ... : ... .. . ... : ... .. . ... : C-3 00 . ...
ROW 31 : A-2 0B . ... : E-3 0B . ... : E-2 17 . ... : ... .. . ... : ... .. . ...
ROW 32 : ... .. . ... : ... .. . ... : ... .. . ... : ... .. . ... : ... .. . ...
ROW 33 : G-3 0B . ... : E-2 0B . ... : ... .. . ... : ... .. . ... : ... .. . ...
ROW 34 : ... .. . ... : ... .. . ... : ... .. . ... : ... .. . ... : ... .. . ...
ROW 35 : E-3 0B . ... : D-3 0B . ... : --- .. . ... : ... .. . ... : ... .. . ...
ROW 36 : ... .. . ... : ... .. . ... : ... .. . ... : ... .. . ... : ... .. . ...
ROW 37 : E-2 0B . ... : A-2 0B . ... : ... .. . ... : ... .. . ... : ... .. . ...
ROW 38 : ... .. . ... : ... .. . ... : ... .. . ... : ... .. . ... : D-3 00 . ...
ROW 39 : D-3 0B . ... : G-3 0B . ... : E-3 17 . ... : A-# 1B . ... : ... .. . ...
ROW 3A : ... .. . ... : ... .. . ... : ... .. . ... : ... .. . ... : ... .. . ...
ROW 3B : A-2 0B . ... : E-3 0B . ... : ... .. . ... : ... .. . ... : ... .. . ...
ROW 3C : ... .. . ... : ... .. . ... : ... .. . ... : ... .. . ... : ... .. . ...
ROW 3D : G-3 0B . ... : E-2 0B . ... : --- .. . ... : ... .. . ... : ... .. . ...
ROW 3E : ... .. . ... : ... .. . ... : ... .. . ... : ... .. . ... : ... .. . ...
ROW 3F : E-3 0B . ... : D-3 0B . ... : ... .. . ... : ... .. . ... : ... .. . ...
ROW 40 : ... .. . ... : ... .. . ... : ... .. . ... : ... .. . ... : C-3 00 . ...
ROW 41 : E-2 0B . ... : G-3 0B . ... : E-2 17 . ... : ... .. . ... : ... .. . ...
ROW 42 : ... .. . ... : ... .. . ... : ... .. . ... : ... .. . ... : ... .. . ...
ROW 43 : D-3 0B . ... : E-3 0B . ... : ... .. . ... : ... .. . ... : ... .. . ...
ROW 44 : ... .. . ... : ... .. . ... : ... .. . ... : ... .. . ... : ... .. . ...
ROW 45 : A-2 0B . ... : E-2 0B . ... : --- .. . ... : ... .. . ... : ... .. . ...
ROW 46 : ... .. . ... : ... .. . ... : ... .. . ... : ... .. . ... : ... .. . ...
ROW 47 : G-3 0B . ... : D-3 0B . ... : ... .. . ... : ... .. . ... : ... .. . ...
ROW 48 : ... .. . ... : ... .. . ... : ... .. . ... : ... .. . ... : D-3 00 . ...
ROW 49 : E-3 0B . ... : A-2 0B . ... : E-3 17 . ... : A-# 1B . ... : ... .. . ...
ROW 4A : ... .. . ... : ... .. . ... : ... .. . ... : ... .. . ... : ... .. . ...
ROW 4B : E-2 0B . ... : G-3 0B . ... : ... .. . ... : ... .. . ... : ... .. . ...
ROW 4C : ... .. . ... : ... .. . ... : ... .. . ... : ... .. . ... : ... .. . ...
ROW 4D : D-3 0B . ... : E-3 0B . ... : --- .. . ... : ... .. . ... : ... .. . ...
ROW 4E : ... .. . ... : ... .. . ... : ... .. . ... : ... .. . ... : ... .. . ...
ROW 4F : A-2 0B . ... : E-2 0B . ... : ... .. . ... : ... .. . ... : ... .. . ...
ROW 50 : ... .. . ... : ... .. . ... : ... .. . ... : ... .. . ... : D-3 00 . ...
ROW 51 : G-3 0B . ... : D-3 0B . ... : D-3 17 . ... : A-# 1B . ... : ... .. . ...
ROW 52 : ... .. . ... : ... .. . ... : ... .. . ... : ... .. . ... : E-3 00 . W09
ROW 53 : E-3 0B . ... : G-3 0B . ... : A-2 17 . ... : ... .. . ... : ... .. . ...
ROW 54 : ... .. . ... : ... .. . ... : ... .. . ... : ... .. . ... : D-3 00 . ...
ROW 55 : E-2 0B . ... : E-3 0B . ... : E-3 17 . ... : A-# 1B . ... : ... .. . ...
ROW 56 : ... .. . ... : ... .. . ... : ... .. . ... : ... .. . ... : D-3 00 . ...
ROW 57 : D-3 0B . ... : E-2 0B . ... : E-2 17 . ... : A-# 1B . ... : ... .. . ...

PATTERN 08
ROW 00 : ... .. . ... : ... .. . ... : ... .. . ... : ... .. . ... : C-3 00 . ...
ROW 01 : A-2 0B . ... : D-3 0B . ... : G-2 17 . ... : ... .. . ... : ... .. . ...
ROW 02 : ... .. . ... : ... .. . ... : ... .. . ... : ... .. . ... : ... .. . ...
ROW 03 : G-3 0B . ... : A-2 0B . ... : ... .. . ... : ... .. . ... : ... .. . ...
ROW 04 : ... .. . ... : ... .. . ... : ... .. . ... : ... .. . ... : ... .. . ...
ROW 05 : E-3 0B . ... : G-3 0B . ... : --- .. . ... : ... .. . ... : ... .. . ...
ROW 06 : ... .. . ... : ... .. . ... : ... .. . ... : ... .. . ... : ... .. . ...
ROW 07 : E-2 0B . ... : E-3 0B . ... : ... .. . ... : ... .. . ... : ... .. . ...
ROW 08 : ... .. . ... : ... .. . ... : ... .. . ... : ... .. . ... : D-3 00 . ...
ROW 09 : D-3 0B . ... : E-2 0B . ... : G-3 17 . ... : A-# 1B . ... : ... .. . ...
ROW 0A : ... .. . ... : ... .. . ... : ... .. . ... : ... .. . ... : ... .. . ...
ROW 0B : A-2 0B . ... : D-3 0B . ... : ... .. . ... : ... .. . ... : ... .. . ...
ROW 0C : ... .. . ... : ... .. . ... : ... .. . ... : ... .. . ... : ... .. . ...
ROW 0D : G-3 0B . ... : G-3 0B . ... : --- .. . ... : ... .. . ... : ... .. . ...
ROW 0E : ... .. . ... : ... .. . ... : ... .. . ... : ... .. . ... : ... .. . ...
ROW 0F : G-3 0B . ... : G-3 0B . ... : ... .. . ... : ... .. . ... : ... .. . ...
ROW 10 : ... .. . ... : ... .. . ... : ... .. . ... : ... .. . ... : C-3 00 . ...
ROW 11 : G-2 0B . ... : G-2 0B . ... : G-2 17 . ... : ... .. . ... : ... .. . ...
ROW 12 : ... .. . ... : ... .. . ... : ... .. . ... : ... .. . ... : ... .. . ...
ROW 13 : F-3 0B . ... : F-3 0B . ... : ... .. . ... : ... .. . ... : ... .. . ...
ROW 14 : ... .. . ... : ... .. . ... : ... .. . ... : ... .. . ... : ... .. . ...
ROW 15 : C-3 0B . ... : C-3 0B . ... : --- .. . ... : ... .. . ... : ... .. . ...
ROW 16 : ... .. . ... : ... .. . ... : ... .. . ... : ... .. . ... : ... .. . ...
ROW 17 : A#3 0B . ... : A#3 0B . ... : ... .. . ... : ... .. . ... : ... .. . ...
ROW 18 : ... .. . ... : ... .. . ... : ... .. . ... : ... .. . ... : D-3 00 . ...
ROW 19 : G-3 0B . ... : G-3 0B . ... : G-3 17 . ... : A-# 1B . ... : ... .. . ...
ROW 1A : ... .. . ... : ... .. . ... : ... .. . ... : ... .. . ... : ... .. . ...
ROW 1B : G-2 0B . ... : G-2 0B . ... : ... .. . ... : ... .. . ... : ... .. . ...
ROW 1C : ... .. . ... : ... .. . ... : ... .. . ... : ... .. . ... : ... .. . ...
ROW 1D : F-3 0B . ... : F-3 0B . ... : --- .. . ... : ... .. . ... : ... .. . ...
ROW 1E : ... .. . ... : ... .. . ... : ... .. . ... : ... .. . ... : ... .. . ...
ROW 1F : C-3 0B . ... : A#3 0B . ... : ... .. . ... : ... .. . ... : ... .. . ...
ROW 20 : ... .. . ... : ... .. . ... : ... .. . ... : ... .. . ... : C-3 00 . ...
ROW 21 : A#3 0B . ... : G-3 0B . ... : G-2 17 . ... : ... .. . ... : ... .. . ...
ROW 22 : ... .. . ... : ... .. . ... : ... .. . ... : ... .. . ... : ... .. . ...
ROW 23 : G-3 0B . ... : G-2 0B . ... : ... .. . ... : ... .. . ... : ... .. . ...
ROW 24 : ... .. . ... : ... .. . ... : ... .. . ... : ... .. . ... : ... .. . ...
ROW 25 : G-2 0B . ... : F-3 0B . ... : --- .. . ... : ... .. . ... : ... .. . ...
ROW 26 : ... .. . ... : ... .. . ... : ... .. . ... : ... .. . ... : ... .. . ...
ROW 27 : F-3 0B . ... : C-3 0B . ... : ... .. . ... : ... .. . ... : ... .. . ...
ROW 28 : ... .. . ... : ... .. . ... : ... .. . ... : ... .. . ... : D-3 00 . ...
ROW 29 : C-3 0B . ... : A#3 0B . ... : G-3 17 . ... : A-# 1B . ... : ... .. . ...
ROW 2A : ... .. . ... : ... .. . ... : ... .. . ... : ... .. . ... : ... .. . ...
ROW 2B : A#3 0B . ... : G-3 0B . ... : ... .. . ... : ... .. . ... : ... .. . ...
ROW 2C : ... .. . ... : ... .. . ... : ... .. . ... : ... .. . ... : ... .. . ...
ROW 2D : G-3 0B . ... : G-2 0B . ... : --- .. . ... : ... .. . ... : ... .. . ...
ROW 2E : ... .. . ... : ... .. . ... : ... .. . ... : ... .. . ... : ... .. . ...
ROW 2F : G-2 0B . ... : F-3 0B . ... : ... .. . ... : ... .. . ... : ... .. . ...
ROW 30 : ... .. . ... : ... .. . ... : ... .. . ... : ... .. . ... : C-3 00 . ...
ROW 31 : F-3 0B . ... : A#3 0B . ... : G-2 17 . ... : ... .. . ... : ... .. . ...
ROW 32 : ... .. . ... : ... .. . ... : ... .. . ... : ... .. . ... : ... .. . ...
ROW 33 : C-3 0B . ... : G-3 0B . ... : ... .. . ... : ... .. . ... : ... .. . ...
ROW 34 : ... .. . ... : ... .. . ... : ... .. . ... : ... .. . ... : ... .. . ...
ROW 35 : A#3 0B . ... : G-2 0B . ... : --- .. . ... : ... .. . ... : ... .. . ...
ROW 36 : ... .. . ... : ... .. . ... : ... .. . ... : ... .. . ... : ... .. . ...
ROW 37 : G-3 0B . ... : F-3 0B . ... : ... .. . ... : ... .. . ... : ... .. . ...
ROW 38 : ... .. . ... : ... .. . ... : ... .. . ... : ... .. . ... : D-3 00 . ...
ROW 39 : G-2 0B . ... : C-3 0B . ... : G-3 17 . ... : A-# 1B . ... : ... .. . ...
ROW 3A : ... .. . ... : ... .. . ... : ... .. . ... : ... .. . ... : ... .. . ...
ROW 3B : F-3 0B . ... : A#3 0B . ... : ... .. . ... : ... .. . ... : ... .. . ...
ROW 3C : ... .. . ... : ... .. . ... : ... .. . ... : ... .. . ... : ... .. . ...
ROW 3D : C-3 0B . ... : G-3 0B . ... : --- .. . ... : ... .. . ... : ... .. . ...
ROW 3E : ... .. . ... : ... .. . ... : ... .. . ... : ... .. . ... : ... .. . ...
ROW 3F : A#3 0B . ... : G-2 0B . ... : ... .. . ... : ... .. . ... : ... .. . ...
ROW 40 : ... .. . ... : ... .. . ... : ... .. . ... : ... .. . ... : C-3 00 . ...
ROW 41 : G-3 0B . ... : F-3 0B . ... : G-2 17 . ... : ... .. . ... : ... .. . ...
ROW 42 : ... .. . ... : ... .. . ... : ... .. . ... : ... .. . ... : ... .. . ...
ROW 43 : G-2 0B . ... : A#3 0B . ... : ... .. . ... : ... .. . ... : ... .. . ...
ROW 44 : ... .. . ... : ... .. . ... : ... .. . ... : ... .. . ... : ... .. . ...
ROW 45 : F-3 0B . ... : G-3 0B . ... : --- .. . ... : ... .. . ... : ... .. . ...
ROW 46 : ... .. . ... : ... .. . ... : ... .. . ... : ... .. . ... : ... .. . ...
ROW 47 : C-3 0B . ... : G-2 0B . ... : ... .. . ... : ... .. . ... : ... .. . ...
ROW 48 : ... .. . ... : ... .. . ... : ... .. . ... : ... .. . ... : D-3 00 . ...
ROW 49 : A#3 0B . ... : F-3 0B . ... : G-3 17 . ... : A-# 1B . ... : ... .. . ...
ROW 4A : ... .. . ... : ... .. . ... : ... .. . ... : ... .. . ... : ... .. . ...
ROW 4B : G-3 0B . ... : C-3 0B . ... : ... .. . ... : ... .. . ... : ... .. . ...
ROW 4C : ... .. . ... : ... .. . ... : ... .. . ... : ... .. . ... : ... .. . ...
ROW 4D : G-2 0B . ... : A#3 0B . ... : --- .. . ... : ... .. . ... : ... .. . ...
ROW 4E : ... .. . ... : ... .. . ... : ... .. . ... : ... .. . ... : ... .. . ...
ROW 4F : F-3 0B . ... : G-3 0B . ... : ... .. . ... : ... .. . ... : ... .. . ...
ROW 50 : ... .. . ... : ... .. . ... : ... .. . ... : ... .. . ... : D-3 00 . ...
ROW 51 : C-3 0B . ... : G-2 0B . ... : F-3 17 . ... : A-# 1B . ... : ... .. . ...
ROW 52 : ... .. . ... : ... .. . ... : ... .. . ... : ... .. . ... : E-3 00 . W09
ROW 53 : A#3 0B . ... : F-3 0B . ... : C-3 17 . ... : ... .. . ... : ... .. . ...
ROW 54 : ... .. . ... : ... .. . ... : ... .. . ... : ... .. . ... : D-3 00 . ...
ROW 55 : G-3 0B . ... : A#3 0B . ... : G-3 17 . ... : A-# 1B . ... : ... .. . ...
ROW 56 : ... .. . ... : ... .. . ... : ... .. . ... : ... .. . ... : D-3 00 . ...
ROW 57 : G-2 0B . ... : G-3 0B . ... : G-2 17 . ... : A-# 1B . ... : ... .. . ...

PATTERN 09
ROW 00 : ... .. . ... : ... .. . ... : ... .. . ... : ... .. . ... : C-3 00 . ...
ROW 01 : F-3 0B . ... : G-2 0B . ... : E-2 17 . ... : ... .. . ... : ... .. . ...
ROW 02 : ... .. . ... : ... .. . ... : ... .. . ... : ... .. . ... : ... .. . ...
ROW 03 : C-3 0B . ... : F-3 0B . ... : ... .. . ... : ... .. . ... : ... .. . ...
ROW 04 : ... .. . ... : ... .. . ... : ... .. . ... : ... .. . ... : ... .. . ...
ROW 05 : A#3 0B . ... : C-3 0B . ... : --- .. . ... : ... .. . ... : ... .. . ...
ROW 06 : ... .. . ... : ... .. . ... : ... .. . ... : ... .. . ... : ... .. . ...
ROW 07 : G-3 0B . ... : A#3 0B . ... : ... .. . ... : ... .. . ... : ... .. . ...
ROW 08 : ... .. . ... : ... .. . ... : ... .. . ... : ... .. . ... : D-3 00 . ...
ROW 09 : G-2 0B . ... : G-3 0B . ... : E-3 17 . ... : A-# 1B . ... : ... .. . ...
ROW 0A : ... .. . ... : ... .. . ... : ... .. . ... : ... .. . ... : ... .. . ...
ROW 0B : F-3 0B . ... : G-2 0B . ... : ... .. . ... : ... .. . ... : ... .. . ...
ROW 0C : ... .. . ... : ... .. . ... : ... .. . ... : ... .. . ... : ... .. . ...
ROW 0D : C-3 0B . ... : F-3 0B . ... : --- .. . ... : ... .. . ... : ... .. . ...
ROW 0E : ... .. . ... : ... .. . ... : ... .. . ... : ... .. . ... : ... .. . ...
ROW 0F : A#3 0B . ... : A#3 0B . ... : ... .. . ... : ... .. . ... : ... .. . ...
ROW 10 : ... .. . ... : ... .. . ... : ... .. . ... : ... .. . ... : C-3 00 . ...
ROW 11 : E-3 0B . ... : E-3 0B . ... : E-2 17 . ... : ... .. . ... : ... .. . ...
ROW 12 : ... .. . ... : ... .. . ... : ... .. . ... : ... .. . ... : ... .. . ...
ROW 13 : E-2 0B . ... : E-2 0B . ... : ... .. . ... : ... .. . ... : ... .. . ...
ROW 14 : ... .. . ... : ... .. . ... : ... .. . ... : ... .. . ... : ... .. . ...
ROW 15 : D-3 0B . ... : D-3 0B . ... : --- .. . ... : ... .. . ... : ... .. . ...
ROW 16 : ... .. . ... : ... .. . ... : ... .. . ... : ... .. . ... : ... .. . ...
ROW 17 : A-2 0B . ... : A-2 0B . ... : ... .. . ... : ... .. . ... : ... .. . ...
ROW 18 : ... .. . ... : ... .. . ... : ... .. . ... : ... .. . ... : D-3 00 . ...
ROW 19 : G-3 0B . ... : G-3 0B . ... : E-3 17 . ... : A-# 1B . ... : ... .. . ...
ROW 1A : ... .. . ... : ... .. . ... : ... .. . ... : ... .. . ... : ... .. . ...
ROW 1B : E-3 0B . ... : E-3 0B . ... : ... .. . ... : ... .. . ... : ... .. . ...
ROW 1C : ... .. . ... : ... .. . ... : ... .. . ... : ... .. . ... : ... .. . ...
ROW 1D : E-2 0B . ... : E-2 0B . ... : --- .. . ... : ... .. . ... : ... .. . ...
ROW 1E : ... .. . ... : ... .. . ... : ... .. . ... : ... .. . ... : ... .. . ...
ROW 1F : D-3 0B . ... : D-3 0B . ... : ... .. . ... : ... .. . ... : ... .. . ...
ROW 20 : ... .. . ... : ... .. . ... : ... .. . ... : ... .. . ... : C-3 00 . ...
ROW 21 : A-2 0B . ... : G-3 0B . ... : E-2 17 . ... : ... .. . ... : ... .. . ...
ROW 22 : ... .. . ... : ... .. . ... : ... .. . ... : ... .. . ... : ... .. . ...
ROW 23 : G-3 0B . ... : E-3 0B . ... : ... .. . ... : ... .. . ... : ... .. . ...
ROW 24 : ... .. . ... : ... .. . ... : ... .. . ... : ... .. . ... : ... .. . ...
ROW 25 : E-3 0B . ... : E-2 0B . ... : --- .. . ... : ... .. . ... : ... .. . ...
ROW 26 : ... .. . ... : ... .. . ... : ... .. . ... : ... .. . ... : ... .. . ...
ROW 27 : E-2 0B . ... : D-3 0B . ... : ... .. . ... : ... .. . ... : ... .. . ...
ROW 28 : ... .. . ... : ... .. . ... : ... .. . ... : ... .. . ... : D-3 00 . ...
ROW 29 : D-3 0B . ... : A-2 0B . ... : E-3 17 . ... : A-# 1B . ... : ... .. . ...
ROW 2A : ... .. . ... : ... .. . ... : ... .. . ... : ... .. . ... : ... .. . ...
ROW 2B : A-2 0B . ... : G-3 0B . ... : ... .. . ... : ... .. . ... : ... .. . ...
ROW 2C : ... .. . ... : ... .. . ... : ... .. . ... : ... .. . ... : ... .. . ...
ROW 2D : G-3 0B . ... : E-3 0B . ... : --- .. . ... : ... .. . ... : ... .. . ...
ROW 2E : ... .. . ... : ... .. . ... : ... .. . ... : ... .. . ... : ... .. . ...
ROW 2F : E-3 0B . ... : E-2 0B . ... : ... .. . ... : ... .. . ... : ... .. . ...
ROW 30 : ... .. . ... : ... .. . ... : ... .. . ... : ... .. . ... : C-3 00 . ...
ROW 31 : E-2 0B . ... : D-3 0B . ... : E-2 17 . ... : ... .. . ... : ... .. . ...
ROW 32 : ... .. . ... : ... .. . ... : ... .. . ... : ... .. . ... : ... .. . ...
ROW 33 : D-3 0B . ... : G-3 0B . ... : ... .. . ... : ... .. . ... : ... .. . ...
ROW 34 : ... .. . ... : ... .. . ... : ... .. . ... : ... .. . ... : ... .. . ...
ROW 35 : A-2 0B . ... : E-3 0B . ... : --- .. . ... : ... .. . ... : ... .. . ...
ROW 36 : ... .. . ... : ... .. . ... : ... .. . ... : ... .. . ... : ... .. . ...
ROW 37 : G-3 0B . ... : E-2 0B . ... : ... .. . ... : ... .. . ... : ... .. . ...
ROW 38 : ... .. . ... : ... .. . ... : ... .. . ... : ... .. . ... : D-3 00 . ...
ROW 39 : E-3 0B . ... : D-3 0B . ... : E-3 17 . ... : A-# 1B . ... : ... .. . ...
ROW 3A : ... .. . ... : ... .. . ... : ... .. . ... : ... .. . ... : ... .. . ...
ROW 3B : E-2 0B . ... : A-2 0B . ... : ... .. . ... : ... .. . ... : ... .. . ...
ROW 3C : ... .. . ... : ... .. . ... : ... .. . ... : ... .. . ... : ... .. . ...
ROW 3D : D-3 0B . ... : G-3 0B . ... : --- .. . ... : ... .. . ... : ... .. . ...
ROW 3E : ... .. . ... : ... .. . ... : ... .. . ... : ... .. . ... : ... .. . ...
ROW 3F : A-2 0B . ... : E-3 0B . ... : ... .. . ... : ... .. . ... : ... .. . ...
ROW 40 : ... .. . ... : ... .. . ... : ... .. . ... : ... .. . ... : C-3 00 . ...
ROW 41 : G-3 0B . ... : E-2 0B . ... : E-2 17 . ... : ... .. . ... : ... .. . ...
ROW 42 : ... .. . ... : ... .. . ... : ... .. . ... : ... .. . ... : ... .. . ...
ROW 43 : E-3 0B . ... : D-3 0B . ... : ... .. . ... : ... .. . ... : ... .. . ...
ROW 44 : ... .. . ... : ... .. . ... : ... .. . ... : ... .. . ... : ... .. . ...
ROW 45 : E-2 0B . ... : G-3 0B . ... : --- .. . ... : ... .. . ... : ... .. . ...
ROW 46 : ... .. . ... : ... .. . ... : ... .. . ... : ... .. . ... : ... .. . ...
ROW 47 : D-3 0B . ... : E-3 0B . ... : ... .. . ... : ... .. . ... : ... .. . ...
ROW 48 : ... .. . ... : ... .. . ... : ... .. . ... : ... .. . ... : D-3 00 . ...
ROW 49 : A-2 0B . ... : E-2 0B . ... : E-3 17 . ... : A-# 1B . ... : ... .. . ...
ROW 4A : ... .. . ... : ... .. . ... : ... .. . ... : ... .. . ... : ... .. . ...
ROW 4B : G-3 0B . ... : D-3 0B . ... : ... .. . ... : ... .. . ... : ... .. . ...
ROW 4C : ... .. . ... : ... .. . ... : ... .. . ... : ... .. . ... : ... .. . ...
ROW 4D : E-3 0B . ... : A-2 0B . ... : --- .. . ... : ... .. . ... : ... .. . ...
ROW 4E : ... .. . ... : ... .. . ... : ... .. . ... : ... .. . ... : ... .. . ...
ROW 4F : E-2 0B . ... : G-3 0B . ... : ... .. . ... : ... .. . ... : ... .. . ...
ROW 50 : ... .. . ... : ... .. . ... : ... .. . ... : ... .. . ... : D-3 00 . ...
ROW 51 : D-3 0B . ... : E-3 0B . ... : D-3 17 . ... : A-# 1B . ... : ... .. . ...
ROW 52 : ... .. . ... : ... .. . ... : ... .. . ... : ... .. . ... : E-3 00 . W09
ROW 53 : A-2 0B . ... : E-2 0B . ... : A-2 17 . ... : ... .. . ... : ... .. . ...
ROW 54 : ... .. . ... : ... .. . ... : ... .. . ... : ... .. . ... : D-3 00 . ...
ROW 55 : G-3 0B . ... : D-3 0B . ... : E-3 17 . ... : A-# 1B . ... : ... .. . ...
ROW 56 : ... .. . ... : ... .. . ... : ... .. . ... : ... .. . ... : D-3 00 . ...
ROW 57 : E-3 0B . ... : G-3 0B . ... : E-2 17 . ... : A-# 1B . ... : ... .. . ...

PATTERN 0A
ROW 00 : ... .. . ... : ... .. . ... : ... .. . ... : ... .. . ... : C-3 00 . ...
ROW 01 : E-2 0B . ... : E-3 0B . ... : G-2 17 . ... : ... .. . ... : ... .. . ...
ROW 02 : ... .. . ... : ... .. . ... : ... .. . ... : ... .. . ... : ... .. . ...
ROW 03 : D-3 0B . ... : E-2 0B . ... : ... .. . ... : ... .. . ... : ... .. . ...
ROW 04 : ... .. . ... : ... .. . ... : ... .. . ... : ... .. . ... : ... .. . ...
ROW 05 : A-2 0B . ... : D-3 0B . ... : --- .. . ... : ... .. . ... : ... .. . ...
ROW 06 : ... .. . ... : ... .. . ... : ... .. . ... : ... .. . ... : ... .. . ...
ROW 07 : G-3 0B . ... : A-2 0B . ... : ... .. . ... : ... .. . ... : ... .. . ...
ROW 08 : ... .. . ... : ... .. . ... : ... .. . ... : ... .. . ... : D-3 00 . ...
ROW 09 : E-3 0B . ... : G-3 0B . ... : G-3 17 . ... : A-# 1B . ... : ... .. . ...
ROW 0A : ... .. . ... : ... .. . ... : ... .. . ... : ... .. . ... : ... .. . ...
ROW 0B : E-2 0B . ... : E-3 0B . ... : ... .. . ... : ... .. . ... : ... .. . ...
ROW 0C : ... .. . ... : ... .. . ... : ... .. . ... : ... .. . ... : ... .. . ...
ROW 0D : D-3 0B . ... : E-2 0B . ... : --- .. . ... : ... .. . ... : ... .. . ...
ROW 0E : ... .. . ... : ... .. . ... : ... .. . ... : ... .. . ... : ... .. . ...
ROW 0F : A-2 0B . ... : D-3 0B . ... : ... .. . ... : ... .. . ... : ... .. . ...
ROW 10 : ... .. . ... : ... .. . ... : ... .. . ... : ... .. . ... : C-3 00 . ...
ROW 11 : G-3 0B . ... : G-3 0B . ... : G-2 17 . ... : ... .. . ... : ... .. . ...
ROW 12 : ... .. . ... : ... .. . ... : ... .. . ... : ... .. . ... : ... .. . ...
ROW 13 : G-3 0B . ... : G-3 0B . ... : ... .. . ... : ... .. . ... : ... .. . ...
ROW 14 : ... .. . ... : ... .. . ... : ... .. . ... : ... .. . ... : ... .. . ...
ROW 15 : G-2 0B . ... : G-2 0B . ... : --- .. . ... : ... .. . ... : ... .. . ...
ROW 16 : ... .. . ... : ... .. . ... : ... .. . ... : ... .. . ... : ... .. . ...
ROW 17 : F-3 0B . ... : F-3 0B . ... : ... .. . ... : ... .. . ... : ... .. . ...
ROW 18 : ... .. . ... : ... .. . ... : ... .. . ... : ... .. . ... : D-3 00 . ...
ROW 19 : C-3 0B . ... : C-3 0B . ... : G-3 17 . ... : A-# 1B . ... : ... .. . ...
ROW 1A : ... .. . ... : ... .. . ... : ... .. . ... : ... .. . ... : ... .. . ...
ROW 1B : A#3 0B . ... : A#3 0B . ... : ... .. . ... : ... .. . ... : ... .. . ...
ROW 1C : ... .. . ... : ... .. . ... : ... .. . ... : ... .. . ... : ... .. . ...
ROW 1D : G-3 0B . ... : G-3 0B . ... : --- .. . ... : ... .. . ... : ... .. . ...
ROW 1E : ... .. . ... : ... .. . ... : ... .. . ... : ... .. . ... : ... .. . ...
ROW 1F : G-2 0B . ... : G-2 0B . ... : ... .. . ... : ... .. . ... : ... .. . ...
ROW 20 : ... .. . ... : ... .. . ... : ... .. . ... : ... .. . ... : C-3 00 . ...
ROW 21 : F-3 0B . ... : F-3 0B . ... : G-2 17 . ... : ... .. . ... : ... .. . ...
ROW 22 : ... .. . ... : ... .. . ... : ... .. . ... : ... .. . ... : ... .. . ...
ROW 23 : C-3 0B . ... : A#3 0B . ... : ... .. . ... : ... .. . ... : ... .. . ...
ROW 24 : ... .. . ... : ... .. . ... : ... .. . ... : ... .. . ... : ... .. . ...
ROW 25 : A#3 0B . ... : G-3 0B . ... : --- .. . ... : ... .. . ... : ... .. . ...
ROW 26 : ... .. . ... : ... .. . ... : ... .. . ... : ... .. . ... : ... .. . ...
ROW 27 : G-3 0B . ... : G-2 0B . ... : ... .. . ... : ... .. . ... : ... .. . ...
ROW 28 : ... .. . ... : ... .. . ... : ... .. . ... : ... .. . ... : D-3 00 . ...
ROW 29 : G-2 0B . ... : F-3 0B . ... : G-3 17 . ... : A-# 1B . ... : ... .. . ...
ROW 2A : ... .. . ... : ... .. . ... : ... .. . ... : ... .. . ... : ... .. . ...
ROW 2B : F-3 0B . ... : C-3 0B . ... : ... .. . ... : ... .. . ... : ... .. . ...
ROW 2C : ... .. . ... : ... .. . ... : ... .. . ... : ... .. . ... : ... .. . ...
ROW 2D : C-3 0B . ... : A#3 0B . ... : --- .. . ... : ... .. . ... : ... .. . ...
ROW 2E : ... .. . ... : ... .. . ... : ... .. . ... : ... .. . ... : ... .. . ...
ROW 2F : A#3 0B . ... : G-3 0B . ... : ... .. . ... : ... .. . ... : ... .. . ...
ROW 30 : ... .. . ... : ... .. . ... : ... .. . ... : ... .. . ... : C-3 00 . ...
ROW 31 : G-3 0B . ... : G-2 0B . ... : G-2 17 . ... : ... .. . ... : ... .. . ...
ROW 32 : ... .. . ... : ... .. . ... : ... .. . ... : ... .. . ... : ... .. . ...
ROW 33 : G-2 0B . ... : F-3 0B . ... : ... .. . ... : ... .. . ... : ... .. . ...
ROW 34 : ... .. . ... : ... .. . ... : ... .. . ... : ... .. . ... : ... .. . ...
ROW 35 : F-3 0B . ... : A#3 0B . ... : --- .. . ... : ... .. . ... : ... .. . ...
ROW 36 : ... .. . ... : ... .. . ... : ... .. . ... : ... .. . ... : ... .. . ...
ROW 37 : C-3 0B . ... : G-3 0B . ... : ... .. . ... : ... .. . ... : ... .. . ...
ROW 38 : ... .. . ... : ... .. . ... : ... .. . ... : ... .. . ... : D-3 00 . ...
ROW 39 : A#3 0B . ... : G-2 0B . ... : G-3 17 . ... : A-# 1B . ... : ... .. . ...
ROW 3A : ... .. . ... : ... .. . ... : ... .. . ... : ... .. . ... : ... .. . ...
ROW 3B : G-3 0B . ... : F-3 0B . ... : ... .. . ... : ... .. . ... : ... .. . ...
ROW 3C : ... .. . ... : ... .. . ... : ... .. . ... : ... .. . ... : ... .. . ...
ROW 3D : G-2 0B . ... : C-3 0B . ... : --- .. . ... : ... .. . ... : ... .. . ...
ROW 3E : ... .. . ... : ... .. . ... : ... .. . ... : ... .. . ... : ... .. . ...
ROW 3F : F-3 0B . ... : A#3 0B . ... : ... .. . ... : ... .. . ... : ... .. . ...
ROW 40 : ... .. . ... : ... .. . ... : ... .. . ... : ... .. . ... : C-3 00 . ...
ROW 41 : C-3 0B . ... : G-3 0B . ... : G-2 17 . ... : ... .. . ... : ... .. . ...
ROW 42 : ... .. . ... : ... .. . ... : ... .. . ... : ... .. . ... : ... .. . ...
ROW 43 : A#3 0B . ... : G-2 0B . ... : ... .. . ... : ... .. . ... : ... .. . ...
ROW 44 : ... .. . ... : ... .. . ... : ... .. . ... : ... .. . ... : ... .. . ...
ROW 45 : G-3 0B . ... : F-3 0B . ... : --- .. . ... : ... .. . ... : ... .. . ...
ROW 46 : ... .. . ... : ... .. . ... : ... .. . ... : ... .. . ... : ... .. . ...
ROW 47 : G-2 0B . ... : A#3 0B . ... : ... .. . ... : ... .. . ... : ... .. . ...
ROW 48 : ... .. . ... : ... .. . ... : ... .. . ... : ... .. . ... : D-3 00 . ...
ROW 49 : F-3 0B . ... : G-3 0B . ... : G-3 17 . ... : A-# 1B . ... : ... .. . ...
ROW 4A : ... .. . ... : ... .. . ... : ... .. . ... : ... .. . ... : ... .. . ...
ROW 4B : C-3 0B . ... : G-2 0B . ... : ... .. . ... : ... .. . ... : ... .. . ...
ROW 4C : ... .. . ... : ... .. . ... : ... .. . ... : ... .. . ... : ... .. . ...
ROW 4D : A#3 0B . ... : F-3 0B . ... : --- .. . ... : ... .. . ... : ... .. . ...
ROW 4E : ... .. . ... : ... .. . ... : ... .. . ... : ... .. . ... : ... .. . ...
ROW 4F : G-3 0B . ... : C-3 0B . ... : ... .. . ... : ... .. . ... : ... .. . ...
ROW 50 : ... .. . ... : ... .. . ... : ... .. . ... : ... .. . ... : D-3 00 . ...
ROW 51 : G-2 0B . ... : A#3 0B . ... : F-3 17 . ... : A-# 1B . ... : ... .. . ...
ROW 52 : ... .. . ... : ... .. . ... : ... .. . ... : ... .. . ... : E-3 00 . W09
ROW 53 : F-3 0B . ... : G-3 0B . ... : C-3 17 . ... : ... .. . ... : ... .. . ...
ROW 54 : ... .. . ... : ... .. . ... : ... .. . ... : ... .. . ... : D-3 00 . ...
ROW 55 : C-3 0B . ... : G-2 0B . ... : G-3 17 . ... : A-# 1B . ... : ... .. . ...
ROW 56 : ... .. . ... : ... .. . ... : ... .. . ... : ... .. . ... : D-3 00 . ...
ROW 57 : A#3 0B . ... : F-3 0B . ... : G-2 17 . ... : A-# 1B . ... : ... .. . ...

PATTERN 0B
ROW 00 : ... .. . ... : ... .. . ... : ... .. . ... : ... .. . ... : C-3 00 . ...
ROW 01 : G-3 0B . ... : A#3 0B . ... : E-2 17 . ... : ... .. . ... : ... .. . ...
ROW 02 : ... .. . ... : ... .. . ... : ... .. . ... : ... .. . ... : ... .. . ...
ROW 03 : G-2 0B . ... : G-3 0B . ... : ... .. . ... : ... .. . ... : ... .. . ...
ROW 04 : ... .. . ... : ... .. . ... : ... .. . ... : ... .. . ... : ... .. . ...
ROW 05 : F-3 0B . ... : G-2 0B . ... : --- .. . ... : ... .. . ... : ... .. . ...
ROW 06 : ... .. . ... : ... .. . ... : ... .. . ... : ... .. . ... : ... .. . ...
ROW 07 : C-3 0B . ... : F-3 0B . ... : ... .. . ... : ... .. . ... : ... .. . ...
ROW 08 : ... .. . ... : ... .. . ... : ... .. . ... : ... .. . ... : D-3 00 . ...
ROW 09 : A#3 0B . ... : C-3 0B . ... : E-3 17 . ... : A-# 1B . ... : ... .. . ...
ROW 0A : ... .. . ... : ... .. . ... : ... .. . ... : ... .. . ... : ... .. . ...
ROW 0B : G-3 0B . ... : A#3 0B . ... : ... .. . ... : ... .. . ... : ... .. . ...
ROW 0C : ... .. . ... : ... .. . ... : ... .. . ... : ... .. . ... : ... .. . ...
ROW 0D : G-2 0B . ... : G-3 0B . ... : --- .. . ... : ... .. . ... : ... .. . ...
ROW 0E : ... .. . ... : ... .. . ... : ... .. . ... : ... .. . ... : ... .. . ...
ROW 0F : F-3 0B . ... : G-2 0B . ... : ... .. . ... : ... .. . ... : ... .. . ...
ROW 10 : ... .. . ... : ... .. . ... : ... .. . ... : ... .. . ... : C-3 00 . ...
ROW 11 : C-3 0B . ... : F-3 0B . ... : E-2 17 . ... : ... .. . ... : ... .. . ...
ROW 12 : ... .. . ... : ... .. . ... : ... .. . ... : ... .. . ... : ... .. . ...
ROW 13 : A#3 0B . ... : A#3 0B . ... : ... .. . ... : ... .. . ... : ... .. . ...
ROW 14 : ... .. . ... : ... .. . ... : ... .. . ... : ... .. . ... : ... .. . ...
ROW 15 : E-3 0B . ... : E-3 0B . ... : --- .. . ... : ... .. . ... : ... .. . ...
ROW 16 : ... .. . ... : ... .. . ... : ... .. . ... : ... .. . ... : ... .. . ...
ROW 17 : E-2 0B . ... : E-2 0B . ... : ... .. . ... : ... .. . ... : ... .. . ...
ROW 18 : ... .. . ... : ... .. . ... : ... .. . ... : ... .. . ... : D-3 00 . ...
ROW 19 : D-3 0B . ... : D-3 0B . ... : E-3 17 . ... : A-# 1B . ... : ... .. . ...
ROW 1A : ... .. . ... : ... .. . ... : ... .. . ... : ... .. . ... : ... .. . ...
ROW 1B : A-2 0B . ... : A-2 0B . ... : ... .. . ... : ... .. . ... : ... .. . ...
ROW 1C : ... .. . ... : ... .. . ... : ... .. . ... : ... .. . ... : ... .. . ...
ROW 1D : G-3 0B . ... : G-3 0B . ... : --- .. . ... : ... .. . ... : ... .. . ...
ROW 1E : ... .. . ... : ... .. . ... : ... .. . ... : ... .. . ... : ... .. . ...
ROW 1F : E-3 0B . ... : E-3 0B . ... : ... .. . ... : ... .. . ... : ... .. . ...
ROW 20 : ... .. . ... : ... .. . ... : ... .. . ... : ... .. . ... : C-3 00 . ...
ROW 21 : E-2 0B . ... : E-2 0B . ... : E-2 17 . ... : ... .. . ... : ... .. . ...
ROW 22 : ... .. . ... : ... .. . ... : ... .. . ... : ... .. . ... : ... .. . ...
ROW 23 : D-3 0B . ... : D-3 0B . ... : ... .. . ... : ... .. . ... : ... .. . ...
ROW 24 : ... .. . ... : ... .. . ... : ... .. . ... : ... .. . ... : ... .. . ...
ROW 25 : A-2 0B . ... : G-3 0B . ... : --- .. . ... : ... .. . ... : ... .. . ...
ROW 26 : ... .. . ... : ... .. . ... : ... .. . ... : ... .. . ... : ... .. . ...
ROW 27 : G-3 0B . ... : E-3 0B . ... : ... .. . ... : ... .. . ... : ... .. . ...
ROW 28 : ... .. . ... : ... .. . ... : ... .. . ... : ... .. . ... : D-3 00 . ...
ROW 29 : E-3 0B . ... : E-2 0B . ... : E-3 17 . ... : A-# 1B . ... : ... .. . ...
ROW 2A : ... .. . ... : ... .. . ... : ... .. . ... : ... .. . ... : ... .. . ...
ROW 2B : E-2 0B . ... : D-3 0B . ... : ... .. . ... : ... .. . ... : ... .. . ...
ROW 2C : ... .. . ... : ... .. . ... : ... .. . ... : ... .. . ... : ... .. . ...
ROW 2D : D-3 0B . ... : A-2 0B . ... : --- .. . ... : ... .. . ... : ... .. . ...
ROW 2E : ... .. . ... : ... .. . ... : ... .. . ... : ... .. . ... : ... .. . ...
ROW 2F : A-2 0B . ... : G-3 0B . ... : ... .. . ... : ... .. . ... : ... .. . ...
ROW 30 : ... .. . ... : ... .. . ... : ... .. . ... : ... .. . ... : C-3 00 . ...
ROW 31 : G-3 0B . ... : E-3 0B . ... : E-2 17 . ... : ... .. . ... : ... .. . ...
ROW 32 : ... .. . ... : ... .. . ... : ... .. . ... : ... .. . ... : ... .. . ...
ROW 33 : E-3 0B . ... : E-2 0B . ... : ... .. . ... : ... .. . ... : ... .. . ...
ROW 34 : ... .. . ... : ... .. . ... : ... .. . ... : ... .. . ... : ... .. . ...
ROW 35 : E-2 0B . ... : D-3 0B . ... : --- .. . ... : ... .. . ... : ... .. . ...
ROW 36 : ... .. . ... : ... .. . ... : ... .. . ... : ... .. . ... : ... .. . ...
ROW 37 : D-3 0B . ... : G-3 0B . ... : ... .. . ... : ... .. . ... : ... .. . ...
ROW 38 : ... .. . ... : ... .. . ... : ... .. . ... : ... .. . ... : D-3 00 . ...
ROW 39 : A-2 0B . ... : E-3 0B . ... : E-3 17 . ... : A-# 1B . ... : ... .. . ...
ROW 3A : ... .. . ... : ... .. . ... : ... .. . ... : ... .. . ... : ... .. . ...
ROW 3B : G-3 0B . ... : E-2 0B . ... : ... .. . ... : ... .. . ... : ... .. . ...
ROW 3C : ... .. . ... : ... .. . ... : ... .. . ... : ... .. . ... : ... .. . ...
ROW 3D : E-3 0B . ... : D-3 0B . ... : --- .. . ... : ... .. . ... : ... .. . ...
ROW 3E : ... .. . ... : ... .. . ... : ... .. . ... : ... .. . ... : ... .. . ...
ROW 3F : E-2 0B . ... : A-2 0B . ... : ... .. . ... : ... .. . ... : ... .. . ...
ROW 40 : ... .. . ... : ... .. . ... : ... .. . ... : ... .. . ... : C-3 00 . ...
ROW 41 : D-3 0B . ... : G-3 0B . ... : E-2 17 . ... : ... .. . ... : ... .. . ...
ROW 42 : ... .. . ... : ... .. . ... : ... .. . ... : ... .. . ... : ... .. . ...
ROW 43 : A-2 0B . ... : E-3 0B . ... : ... .. . ... : ... .. . ... : ... .. . ...
ROW 44 : ... .. . ... : ... .. . ... : ... .. . ... : ... .. . ... : ... .. . ...
ROW 45 : G-3 0B . ... : E-2 0B . ... : --- .. . ... : ... .. . ... : ... .. . ...
ROW 46 : ... .. . ... : ... .. . ... : ... .. . ... : ... .. . ... : ... .. . ...
ROW 47 : E-3 0B . ... : D-3 0B . ... : ... .. . ... : ... .. . ... : ... .. . ...
ROW 48 : ... .. . ... : ... .. . ... : ... .. . ... : ... .. . ... : D-3 00 . ...
ROW 49 : E-2 0B . ... : G-3 0B . ... : E-3 17 . ... : A-# 1B . ... : ... .. . ...
ROW 4A : ... .. . ... : ... .. . ... : ... .. . ... : ... .. . ... : ... .. . ...
ROW 4B : D-3 0B . ... : E-3 0B . ... : ... .. . ... : ... .. . ... : ... .. . ...
ROW 4C : ... .. . ... : ... .. . ... : ... .. . ... : ... .. . ... : ... .. . ...
ROW 4D : A-2 0B . ... : E-2 0B . ... : --- .. . ... : ... .. . ... : ... .. . ...
ROW 4E : ... .. . ... : ... .. . ... : ... .. . ... : ... .. . ... : ... .. . ...
ROW 4F : G-3 0B . ... : D-3 0B . ... : ... .. . ... : ... .. . ... : ... .. . ...
ROW 50 : ... .. . ... : ... .. . ... : ... .. . ... : ... .. . ... : D-3 00 . ...
ROW 51 : E-3 0B . ... : A-2 0B . ... : D-3 17 . ... : A-# 1B . ... : ... .. . ...
ROW 52 : ... .. . ... : ... .. . ... : ... .. . ... : ... .. . ... : E-3 00 . W09
ROW 53 : E-2 0B . ... : G-3 0B . ... : A-2 17 . ... : ... .. . ... : ... .. . ...
ROW 54 : ... .. . ... : ... .. . ... : ... .. . ... : ... .. . ... : D-3 00 . ...
ROW 55 : D-3 0B . ... : E-3 0B . ... : E-3 17 . ... : A-# 1B . ... : ... .. . ...
ROW 56 : ... .. . ... : ... .. . ... : ... .. . ... : ... .. . ... : D-3 00 . ...
ROW 57 : A-2 0B . ... : E-2 0B . ... : E-2 17 . ... : A-# 1B . ... : ... .. . ...

PATTERN 0C
ROW 00 : ... .. . ... : ... .. . ... : ... .. . ... : ... .. . ... : C-3 00 . ...
ROW 01 : G-3 0B . ... : D-3 0B . ... : G-2 17 . ... : ... .. . ... : ... .. . ...
ROW 02 : ... .. . ... : ... .. . ... : ... .. . ... : ... .. . ... : ... .. . ...
ROW 03 : E-3 0B . ... : G-3 0B . ... : ... .. . ... : ... .. . ... : ... .. . ...
ROW 04 : ... .. . ... : ... .. . ... : ... .. . ... : ... .. . ... : ... .. . ...
ROW 05 : E-2 0B . ... : E-3 0B . ... : --- .. . ... : ... .. . ... : ... .. . ...
ROW 06 : ... .. . ... : ... .. . ... : ... .. . ... : ... .. . ... : ... .. . ...
ROW 07 : D-3 0B . ... : E-2 0B . ... : ... .. . ... : ... .. . ... : ... .. . ...
ROW 08 : ... .. . ... : ... .. . ... : ... .. . ... : ... .. . ... : D-3 00 . ...
ROW 09 : A-2 0B . ... : D-3 0B . ... : G-3 17 . ... : A-# 1B . ... : ... .. . ...
ROW 0A : ... .. . ... : ... .. . ... : ... .. . ... : ... .. . ... : ... .. . ...
ROW 0B : G-3 0B . ... : A-2 0B . ... : ... .. . ... : ... .. . ... : ... .. . ...
ROW 0C : ... .. . ... : ... .. . ... : ... .. . ... : ... .. . ... : ... .. . ...
ROW 0D : E-3 0B . ... : G-3 0B . ... : --- .. . ... : ... .. . ... : ... .. . ...
ROW 0E : ... .. . ... : ... .. . ... : ... .. . ... : ... .. . ... : ... .. . ...
ROW 0F : E-2 0B . ... : E-3 0B . ... : ... .. . ... : ... .. . ... : ... .. . ...
ROW 10 : ... .. . ... : ... .. . ... : ... .. . ... : ... .. . ... : C-3 00 . ...
ROW 11 : D-3 0B . ... : E-2 0B . ... : G-2 17 . ... : ... .. . ... : ... .. . ...
ROW 12 : ... .. . ... : ... .. . ... : ... .. . ... : ... .. . ... : ... .. . ...
ROW 13 : A-2 0B . ... : D-3 0B . ... : ... .. . ... : ... .. . ... : ... .. . ...
ROW 14 : ... .. . ... : ... .. . ... : ... .. . ... : ... .. . ... : ... .. . ...
ROW 15 : G-3 0B . ... : G-3 0B . ... : --- .. . ... : ... .. . ... : ... .. . ...
ROW 16 : ... .. . ... : ... .. . ... : ... .. . ... : ... .. . ... : ... .. . ...
ROW 17 : G-3 0B . ... : G-3 0B . ... : ... .. . ... : ... .. . ... : ... .. . ...
ROW 18 : ... .. . ... : ... .. . ... : ... .. . ... : ... .. . ... : D-3 00 . ...
ROW 19 : G-2 0B . ... : G-2 0B . ... : G-3 17 . ... : A-# 1B . ... : ... .. . ...
ROW 1A : ... .. . ... : ... .. . ... : ... .. . ... : ... .. . ... : ... .. . ...
ROW 1B : F-3 0B . ... : F-3 0B . ... : ... .. . ... : ... .. . ... : ... .. . ...
ROW 1C : ... .. . ... : ... .. . ... : ... .. . ... : ... .. . ... : ... .. . ...
ROW 1D : C-3 0B . ... : C-3 0B . ... : --- .. . ... : ... .. . ... : ... .. . ...
ROW 1E : ... .. . ... : ... .. . ... : ... .. . ... : ... .. . ... : ... .. . ...
ROW 1F : A#3 0B . ... : A#3 0B . ... : ... .. . ... : ... .. . ... : ... .. . ...
ROW 20 : ... .. . ... : ... .. . ... : ... .. . ... : ... .. . ... : C-3 00 . ...
ROW 21 : G-3 0B . ... : G-3 0B . ... : G-2 17 . ... : ... .. . ... : ... .. . ...
ROW 22 : ... .. . ... : ... .. . ... : ... .. . ... : ... .. . ... : ... .. . ...
ROW 23 : G-2 0B . ... : G-2 0B . ... : ... .. . ... : ... .. . ... : ... .. . ...
ROW 24 : ... .. . ... : ... .. . ... : ... .. . ... : ... .. . ... : ... .. . ...
ROW 25 : F-3 0B . ... : F-3 0B . ... : --- .. . ... : ... .. . ... : ... .. . ...
ROW 26 : ... .. . ... : ... .. . ... : ... .. . ... : ... .. . ... : ... .. . ...
ROW 27 : C-3 0B . ... : A#3 0B . ... : ... .. . ... : ... .. . ... : ... .. . ...
ROW 28 : ... .. . ... : ... .. . ... : ... .. . ... : ... .. . ... : D-3 00 . ...
ROW 29 : A#3 0B . ... : G-3 0B . ... : G-3 17 . ... : A-# 1B . ... : ... .. . ...
ROW 2A : ... .. . ... : ... .. . ... : ... .. . ... : ... .. . ... : ... .. . ...
ROW 2B : G-3 0B . ... : G-2 0B . ... : ... .. . ... : ... .. . ... : ... .. . ...
ROW 2C : ... .. . ... : ... .. . ... : ... .. . ... : ... .. . ... : ... .. . ...
ROW 2D : G-2 0B . ... : F-3 0B . ... : --- .. . ... : ... .. . ... : ... .. . ...
ROW 2E : ... .. . ... : ... .. . ... : ... .. . ... : ... .. . ... : ... .. . ...
ROW 2F : F-3 0B . ... : C-3 0B . ... : ... .. . ... : ... .. . ... : ... .. . ...
ROW 30 : ... .. . ... : ... .. . ... : ... .. . ... : ... .. . ... : C-3 00 . ...
ROW 31 : C-3 0B . ... : A#3 0B . ... : G-2 17 . ... : ... .. . ... : ... .. . ...
ROW 32 : ... .. . ... : ... .. . ... : ... .. . ... : ... .. . ... : ... .. . ...
ROW 33 : A#3 0B . ... : G-3 0B . ... : ... .. . ... : ... .. . ... : ... .. . ...
ROW 34 : ... .. . ... : ... .. . ... : ... .. . ... : ... .. . ... : ... .. . ...
ROW 35 : G-3 0B . ... : G-2 0B . ... : --- .. . ... : ... .. . ... : ... .. . ...
ROW 36 : ... .. . ... : ... .. . ... : ... .. . ... : ... .. . ... : ... .. . ...
ROW 37 : G-2 0B . ... : F-3 0B . ... : ... .. . ... : ... .. . ... : ... .. . ...
ROW 38 : ... .. . ... : ... .. . ... : ... .. . ... : ... .. . ... : D-3 00 . ...
ROW 39 : F-3 0B . ... : A#3 0B . ... : G-3 17 . ... : A-# 1B . ... : ... .. . ...
ROW 3A : ... .. . ... : ... .. . ... : ... .. . ... : ... .. . ... : ... .. . ...
ROW 3B : C-3 0B . ... : G-3 0B . ... : ... .. . ... : ... .. . ... : ... .. . ...
ROW 3C : ... .. . ... : ... .. . ... : ... .. . ... : ... .. . ... : ... .. . ...
ROW 3D : A#3 0B . ... : G-2 0B . ... : --- .. . ... : ... .. . ... : ... .. . ...
ROW 3E : ... .. . ... : ... .. . ... : ... .. . ... : ... .. . ... : ... .. . ...
ROW 3F : G-3 0B . ... : F-3 0B . ... : ... .. . ... : ... .. . ... : ... .. . ...
ROW 40 : ... .. . ... : ... .. . ... : ... .. . ... : ... .. . ... : C-3 00 . ...
ROW 41 : G-2 0B . ... : C-3 0B . ... : G-2 17 . ... : ... .. . ... : ... .. . ...
ROW 42 : ... .. . ... : ... .. . ... : ... .. . ... : ... .. . ... : ... .. . ...
ROW 43 : F-3 0B . ... : A#3 0B . ... : ... .. . ... : ... .. . ... : ... .. . ...
ROW 44 : ... .. . ... : ... .. . ... : ... .. . ... : ... .. . ... : ... .. . ...
ROW 45 : C-3 0B . ... : G-3 0B . ... : --- .. . ... : ... .. . ... : ... .. . ...
ROW 46 : ... .. . ... : ... .. . ... : ... .. . ... : ... .. . ... : ... .. . ...
ROW 47 : A#3 0B . ... : G-2 0B . ... : ... .. . ... : ... .. . ... : ... .. . ...
ROW 48 : ... .. . ... : ... .. . ... : ... .. . ... : ... .. . ... : D-3 00 . ...
ROW 49 : G-3 0B . ... : F-3 0B . ... : G-3 17 . ... : A-# 1B . ... : ... .. . ...
ROW 4A : ... .. . ... : ... .. . ... : ... .. . ... : ... .. . ... : ... .. . ...
ROW 4B : G-2 0B . ... : A#3 0B . ... : ... .. . ... : ... .. . ... : ... .. . ...
ROW 4C : ... .. . ... : ... .. . ... : ... .. . ... : ... .. . ... : ... .. . ...
ROW 4D : F-3 0B . ... : G-3 0B . ... : --- .. . ... : ... .. . ... : ... .. . ...
ROW 4E : ... .. . ... : ... .. . ... : ... .. . ... : ... .. . ... : ... .. . ...
ROW 4F : C-3 0B . ... : G-2 0B . ... : ... .. . ... : ... .. . ... : ... .. . ...
ROW 50 : ... .. . ... : ... .. . ... : ... .. . ... : ... .. . ... : D-3 00 . ...
ROW 51 : A#3 0B . ... : F-3 0B . ... : F-3 17 . ... : A-# 1B . ... : ... .. . ...
ROW 52 : ... .. . ... : ... .. . ... : ... .. . ... : ... .. . ... : E-3 00 . W09
ROW 53 : G-3 0B . ... : C-3 0B . ... : C-3 17 . ... : ... .. . ... : ... .. . ...
ROW 54 : ... .. . ... : ... .. . ... : ... .. . ... : ... .. . ... : D-3 00 . ...
ROW 55 : G-2 0B . ... : A#3 0B . ... : G-3 17 . ... : A-# 1B . ... : ... .. . ...
ROW 56 : ... .. . ... : ... .. . ... : ... .. . ... : ... .. . ... : D-3 00 . ...
ROW 57 : F-3 0B . ... : G-3 0B . ... : G-2 17 . ... : A-# 1B . ... : ... .. . ...

PATTERN 0D
ROW 00 : ... .. . ... : ... .. . ... : ... .. . ... : ... .. . ... : C-3 00 . ...
ROW 01 : C-3 0B . ... : G-2 0B . ... : E-2 17 . ... : ... .. . ... : ... .. . ...
ROW 02 : ... .. . ... : ... .. . ... : ... .. . ... : ... .. . ... : ... .. . ...
ROW 03 : A#3 0B . ... : F-3 0B . ... : ... .. . ... : ... .. . ... : ... .. . ...
ROW 04 : ... .. . ... : ... .. . ... : ... .. . ... : ... .. . ... : ... .. . ...
ROW 05 : G-3 0B . ... : A#3 0B . ... : --- .. . ... : ... .. . ... : ... .. . ...
ROW 06 : ... .. . ... : ... .. . ... : ... .. . ... : ... .. . ... : ... .. . ...
ROW 07 : G-2 0B . ... : G-3 0B . ... : ... .. . ... : ... .. . ... : ... .. . ...
ROW 08 : ... .. . ... : ... .. . ... : ... .. . ... : ... .. . ... : D-3 00 . ...
ROW 09 : F-3 0B . ... : G-2 0B . ... : E-3 17 . ... : A-# 1B . ... : ... .. . ...
ROW 0A : ... .. . ... : ... .. . ... : ... .. . ... : ... .. . ... : ... .. . ...
ROW 0B : C-3 0B . ... : F-3 0B . ... : ... .. . ... : ... .. . ... : ... .. . ...
ROW 0C : ... .. . ... : ... .. . ... : ... .. . ... : ... .. . ... : ... .. . ...
ROW 0D : A#3 0B . ... : C-3 0B . ... : --- .. . ... : ... .. . ... : ... .. . ...
ROW 0E : ... .. . ... : ... .. . ... : ... .. . ... : ... .. . ... : ... .. . ...
ROW 0F : G-3 0B . ... : A#3 0B . ... : ... .. . ... : ... .. . ... : ... .. . ...
ROW 10 : ... .. . ... : ... .. . ... : ... .. . ... : ... .. . ... : C-3 00 . ...
ROW 11 : G-2 0B . ... : G-3 0B . ... : E-2 17 . ... : ... .. . ... : ... .. . ...
ROW 12 : ... .. . ... : ... .. . ... : ... .. . ... : ... .. . ... : ... .. . ...
ROW 13 : F-3 0B . ... : G-2 0B . ... : ... .. . ... : ... .. . ... : ... .. . ...
ROW 14 : ... .. . ... : ... .. . ... : ... .. . ... : ... .. . ... : ... .. . ...
ROW 15 : C-3 0B . ... : F-3 0B . ... : --- .. . ... : ... .. . ... : ... .. . ...
ROW 16 : ... .. . ... : ... .. . ... : ... .. . ... : ... .. . ... : ... .. . ...
ROW 17 : A#3 0B . ... : A#3 0B . ... : ... .. . ... : ... .. . ... : ... .. . ...
ROW 18 : ... .. . ... : ... .. . ... : ... .. . ... : ... .. . ... : D-3 00 . ...
ROW 19 : E-3 0B . ... : E-3 0B . ... : E-3 17 . ... : A-# 1B . ... : ... .. . ...
ROW 1A : ... .. . ... : ... .. . ... : ... .. . ... : ... .. . ... : ... .. . ...
ROW 1B : E-2 0B . ... : E-2 0B . ... : ... .. . ... : ... .. . ... : ... .. . ...
ROW 1C : ... .. . ... : ... .. . ... : ... .. . ... : ... .. . ... : ... .. . ...
ROW 1D : D-3 0B . ... : D-3 0B . ... : --- .. . ... : ... .. . ... : ... .. . ...
ROW 1E : ... .. . ... : ... .. . ... : ... .. . ... : ... .. . ... : ... .. . ...
ROW 1F : A-2 0B . ... : A-2 0B . ... : ... .. . ... : ... .. . ... : ... .. . ...
ROW 20 : ... .. . ... : ... .. . ... : ... .. . ... : ... .. . ... : C-3 00 . ...
ROW 21 : G-3 0B . ... : G-3 0B . ... : E-2 17 . ... : ... .. . ... : ... .. . ...
ROW 22 : ... .. . ... : ... .. . ... : ... .. . ... : ... .. . ... : ... .. . ...
ROW 23 : E-3 0B . ... : E-3 0B . ... : ... .. . ... : ... .. . ... : ... .. . ...
ROW 24 : ... .. . ... : ... .. . ... : ... .. . ... : ... .. . ... : ... .. . ...
ROW 25 : E-2 0B . ... : E-2 0B . ... : --- .. . ... : ... .. . ... : ... .. . ...
ROW 26 : ... .. . ... : ... .. . ... : ... .. . ... : ... .. . ... : ... .. . ...
ROW 27 : D-3 0B . ... : D-3 0B . ... : ... .. . ... : ... .. . ... : ... .. . ...
ROW 28 : ... .. . ... : ... .. . ... : ... .. . ... : ... .. . ... : D-3 00 . ...
ROW 29 : A-2 0B . ... : G-3 0B . ... : E-3 17 . ... : A-# 1B . ... : ... .. . ...
ROW 2A : ... .. . ... : ... .. . ... : ... .. . ... : ... .. . ... : ... .. . ...
ROW 2B : G-3 0B . ... : E-3 0B . ... : ... .. . ... : ... .. . ... : ... .. . ...
ROW 2C : ... .. . ... : ... .. . ... : ... .. . ... : ... .. . ... : ... .. . ...
ROW 2D : E-3 0B . ... : E-2 0B . ... : --- .. . ... : ... .. . ... : ... .. . ...
ROW 2E : ... .. . ... : ... .. . ... : ... .. . ... : ... .. . ... : ... .. . ...
ROW 2F : E-2 0B . ... : D-3 0B . ... : ... .. . ... : ... .. . ... : ... .. . ...
ROW 30 : ... .. . ... : ... .. . ... : ... .. . ... : ... .. . ... : C-3 00 . ...
ROW 31 : D-3 0B . ... : A-2 0B . ... : E-2 17 . ... : ... .. . ... : ... .. . ...
ROW 32 : ... .. . ... : ... .. . ... : ... .. . ... : ... .. . ... : ... .. . ...
ROW 33 : A-2 0B . ... : G-3 0B . ... : ... .. . ... : ... .. . ... : ... .. . ...
ROW 34 : ... .. . ... : ... .. . ... : ... .. . ... : ... .. . ... : ... .. . ...
ROW 35 : G-3 0B . ... : E-3 0B . ... : --- .. . ... : ... .. . ... : ... .. . ...
ROW 36 : ... .. . ... : ... .. . ... : ... .. . ... : ... .. . ... : ... .. . ...
ROW 37 : E-3 0B . ... : E-2 0B . ... : ... .. . ... : ... .. . ... : ... .. . ...
ROW 38 : ... .. . ... : ... .. . ... : ... .. . ... : ... .. . ... : D-3 00 . ...
ROW 39 : E-2 0B . ... : D-3 0B . ... : E-3 17 . ... : A-# 1B . ... : ... .. . ...
ROW 3A : ... .. . ... : ... .. . ... : ... .. . ... : ... .. . ... : ... .. . ...
ROW 3B : D-3 0B . ... : G-3 0B . ... : ... .. . ... : ... .. . ... : ... .. . ...
ROW 3C : ... .. . ... : ... .. . ... : ... .. . ... : ... .. . ... : ... .. . ...
ROW 3D : A-2 0B . ... : E-3 0B . ... : --- .. . ... : ... .. . ... : ... .. . ...
ROW 3E : ... .. . ... : ... .. . ... : ... .. . ... : ... .. . ... : ... .. . ...
ROW 3F : G-3 0B . ... : E-2 0B . ... : ... .. . ... : ... .. . ... : ... .. . ...
ROW 40 : ... .. . ... : ... .. . ... : ... .. . ... : ... .. . ... : C-3 00 . ...
ROW 41 : E-3 0B . ... : D-3 0B . ... : E-2 17 . ... : ... .. . ... : ... .. . ...
ROW 42 : ... .. . ... : ... .. . ... : ... .. . ... : ... .. . ... : ... .. . ...
ROW 43 : E-2 0B . ... : A-2 0B . ... : ... .. . ... : ... .. . ... : ... .. . ...
ROW 44 : ... .. . ... : ... .. . ... : ... .. . ... : ... .. . ... : ... .. . ...
ROW 45 : D-3 0B . ... : G-3 0B . ... : --- .. . ... : ... .. . ... : ... .. . ...
ROW 46 : ... .. . ... : ... .. . ... : ... .. . ... : ... .. . ... : ... .. . ...
ROW 47 : A-2 0B . ... : E-3 0B . ... : ... .. . ... : ... .. . ... : ... .. . ...
ROW 48 : ... .. . ... : ... .. . ... : ... .. . ... : ... .. . ... : D-3 00 . ...
ROW 49 : G-3 0B . ... : E-2 0B . ... : E-3 17 . ... : A-# 1B . ... : ... .. . ...
ROW 4A : ... .. . ... : ... .. . ... : ... .. . ... : ... .. . ... : ... .. . ...
ROW 4B : E-3 0B . ... : D-3 0B . ... : ... .. . ... : ... .. . ... : ... .. . ...
ROW 4C : ... .. . ... : ... .. . ... : ... .. . ... : ... .. . ... : ... .. . ...
ROW 4D : E-2 0B . ... : G-3 0B . ... : --- .. . ... : ... .. . ... : ... .. . ...
ROW 4E : ... .. . ... : ... .. . ... : ... .. . ... : ... .. . ... : ... .. . ...
ROW 4F : D-3 0B . ... : E-3 0B . ... : ... .. . ... : ... .. . ... : ... .. . ...
ROW 50 : ... .. . ... : ... .. . ... : ... .. . ... : ... .. . ... : D-3 00 . ...
ROW 51 : A-2 0B . ... : E-2 0B . ... : D-3 17 . ... : A-# 1B . ... : ... .. . ...
ROW 52 : ... .. . ... : ... .. . ... : ... .. . ... : ... .. . ... : E-3 00 . W09
ROW 53 : G-3 0B . ... : D-3 0B . ... : A-2 17 . ... : ... .. . ... : ... .. . ...
ROW 54 : ... .. . ... : ... .. . ... : ... .. . ... : ... .. . ... : D-3 00 . ...
ROW 55 : E-3 0B . ... : A-2 0B . ... : E-3 17 . ... : A-# 1B . ... : ... .. . ...
ROW 56 : ... .. . ... : ... .. . ... : ... .. . ... : ... .. . ... : D-3 00 . ...
ROW 57 : E-2 0B . ... : G-3 0B . ... : E-2 17 . ... : A-# 1B . ... : ... .. . ...

PATTERN 0E
ROW 00 : ... .. . ... : ... .. . ... : ... .. . ... : ... .. . ... : C-3 00 . ...
ROW 01 : D-3 0B . ... : E-3 0B . ... : G-2 17 . ... : ... .. . ... : ... .. . ...
ROW 02 : ... .. . ... : ... .. . ... : ... .. . ... : ... .. . ... : ... .. . ...
ROW 03 : A-2 0B . ... : E-2 0B . ... : ... .. . ... : ... .. . ... : ... .. . ...
ROW 04 : ... .. . ... : ... .. . ... : ... .. . ... : ... .. . ... : ... .. . ...
ROW 05 : G-3 0B . ... : D-3 0B . ... : --- .. . ... : ... .. . ... : ... .. . ...
ROW 06 : ... .. . ... : ... .. . ... : ... .. . ... : ... .. . ... : ... .. . ...
ROW 07 : E-3 0B . ... : G-3 0B . ... : ... .. . ... : ... .. . ... : ... .. . ...
ROW 08 : ... .. . ... : ... .. . ... : ... .. . ... : ... .. . ... : D-3 00 . ...
ROW 09 : E-2 0B . ... : E-3 0B . ... : G-3 17 . ... : A-# 1B . ... : ... .. . ...
ROW 0A : ... .. . ... : ... .. . ... : ... .. . ... : ... .. . ... : ... .. . ...
ROW 0B : D-3 0B . ... : E-2 0B . ... : ... .. . ... : ... .. . ... : ... .. . ...
ROW 0C : ... .. . ... : ... .. . ... : ... .. . ... : ... .. . ... : ... .. . ...
ROW 0D : A-2 0B . ... : D-3 0B . ... : --- .. . ... : ... .. . ... : ... .. . ...
ROW 0E : ... .. . ... : ... .. . ... : ... .. . ... : ... .. . ... : ... .. . ...
ROW 0F : G-3 0B . ... : A-2 0B . ... : ... .. . ... : ... .. . ... : ... .. . ...
ROW 10 : ... .. . ... : ... .. . ... : ... .. . ... : ... .. . ... : C-3 00 . ...
ROW 11 : E-3 0B . ... : G-3 0B . ... : G-2 17 . ... : ... .. . ... : ... .. . ...
ROW 12 : ... .. . ... : ... .. . ... : ... .. . ... : ... .. . ... : ... .. . ...
ROW 13 : E-2 0B . ... : E-3 0B . ... : ... .. . ... : ... .. . ... : ... .. . ...
ROW 14 : ... .. . ... : ... .. . ... : ... .. . ... : ... .. . ... : ... .. . ...
ROW 15 : D-3 0B . ... : E-2 0B . ... : --- .. . ... : ... .. . ... : ... .. . ...
ROW 16 : ... .. . ... : ... .. . ... : ... .. . ... : ... .. . ... : ... .. . ...
ROW 17 : A-2 0B . ... : D-3 0B . ... : ... .. . ... : ... .. . ... : ... .. . ...
ROW 18 : ... .. . ... : ... .. . ... : ... .. . ... : ... .. . ... : D-3 00 . ...
ROW 19 : G-3 0B . ... : G-3 0B . ... : G-3 17 . ... : A-# 1B . ... : ... .. . ...
ROW 1A : ... .. . ... : ... .. . ... : ... .. . ... : ... .. . ... : ... .. . ...
ROW 1B : G-3 0B . ... : G-3 0B . ... : ... .. . ... : ... .. . ... : ... .. . ...
ROW 1C : ... .. . ... : ... .. . ... : ... .. . ... : ... .. . ... : ... .. . ...
ROW 1D : G-2 0B . ... : G-2 0B . ... : --- .. . ... : ... .. . ... : ... .. . ...
ROW 1E : ... .. . ... : ... .. . ... : ... .. . ... : ... .. . ... : ... .. . ...
ROW 1F : F-3 0B . ... : F-3 0B . ... : ... .. . ... : ... .. . ... : ... .. . ...
ROW 20 : ... .. . ... : ... .. . ... : ... .. . ... : ... .. . ... : C-3 00 . ...
ROW 21 : C-3 0B . ... : C-3 0B . ... : G-2 17 . ... : ... .. . ... : ... .. . ...
ROW 22 : ... .. . ... : ... .. . ... : ... .. . ... : ... .. . ... : ... .. . ...
ROW 23 : A#3 0B . ... : A#3 0B . ... : ... .. . ... : ... .. . ... : ... .. . ...
ROW 24 : ... .. . ... : ... .. . ... : ... .. . ... : ... .. . ... : ... .. . ...
ROW 25 : G-3 0B . ... : G-3 0B . ... : --- .. . ... : ... .. . ... : ... .. . ...
ROW 26 : ... .. . ... : ... .. . ... : ... .. . ... : ... .. . ... : ... .. . ...
ROW 27 : G-2 0B . ... : G-2 0B . ... : ... .. . ... : ... .. . ... : ... .. . ...
ROW 28 : ... .. . ... : ... .. . ... : ... .. . ... : ... .. . ... : D-3 00 . ...
ROW 29 : F-3 0B . ... : F-3 0B . ... : G-3 17 . ... : A-# 1B . ... : ... .. . ...
ROW 2A : ... .. . ... : ... .. . ... : ... .. . ... : ... .. . ... : ... .. . ...
ROW 2B : C-3 0B . ... : A#3 0B . ... : ... .. . ... : ... .. . ... : ... .. . ...
ROW 2C : ... .. . ... : ... .. . ... : ... .. . ... : ... .. . ... : ... .. . ...
ROW 2D : A#3 0B . ... : G-3 0B . ... : --- .. . ... : ... .. . ... : ... .. . ...
ROW 2E : ... .. . ... : ... .. . ... : ... .. . ... : ... .. . ... : ... .. . ...
ROW 2F : G-3 0B . ... : G-2 0B . ... : ... .. . ... : ... .. . ... : ... .. . ...
ROW 30 : ... .. . ... : ... .. . ... : ... .. . ... : ... .. . ... : C-3 00 . ...
ROW 31 : G-2 0B . ... : F-3 0B . ... : G-2 17 . ... : ... .. . ... : ... .. . ...
ROW 32 : ... .. . ... : ... .. . ... : ... .. . ... : ... .. . ... : ... .. . ...
ROW 33 : F-3 0B . ... : C-3 0B . ... : ... .. . ... : ... .. . ... : ... .. . ...
ROW 34 : ... .. . ... : ... .. . ... : ... .. . ... : ... .. . ... : ... .. . ...
ROW 35 : C-3 0B . ... : A#3 0B . ... : --- .. . ... : ... .. . ... : ... .. . ...
ROW 36 : ... .. . ... : ... .. . ... : ... .. . ... : ... .. . ... : ... .. . ...
ROW 37 : A#3 0B . ... : G-3 0B . ... : ... .. . ... : ... .. . ... : ... .. . ...
ROW 38 : ... .. . ... : ... .. . ... : ... .. . ... : ... .. . ... : D-3 00 . ...
ROW 39 : G-3 0B . ... : G-2 0B . ... : G-3 17 . ... : A-# 1B . ... : ... .. . ...
ROW 3A : ... .. . ... : ... .. . ... : ... .. . ... : ... .. . ... : ... .. . ...
ROW 3B : G-2 0B . ... : F-3 0B . ... : ... .. . ... : ... .. . ... : ... .. . ...
ROW 3C : ... .. . ... : ... .. . ... : ... .. . ... : ... .. . ... : ... .. . ...
ROW 3D : F-3 0B . ... : A#3 0B . ... : --- .. . ... : ... .. . ... : ... .. . ...
ROW 3E : ... .. . ... : ... .. . ... : ... .. . ... : ... .. . ... : ... .. . ...
ROW 3F : C-3 0B . ... : G-3 0B . ... : ... .. . ... : ... .. . ... : ... .. . ...
ROW 40 : ... .. . ... : ... .. . ... : ... .. . ... : ... .. . ... : C-3 00 . ...
ROW 41 : A#3 0B . ... : G-2 0B . ... : G-2 17 . ... : ... .. . ... : ... .. . ...
ROW 42 : ... .. . ... : ... .. . ... : ... .. . ... : ... .. . ... : ... .. . ...
ROW 43 : G-3 0B . ... : F-3 0B . ... : ... .. . ... : ... .. . ... : ... .. . ...
ROW 44 : ... .. . ... : ... .. . ... : ... .. . ... : ... .. . ... : ... .. . ...
ROW 45 : G-2 0B . ... : C-3 0B . ... : --- .. . ... : ... .. . ... : ... .. . ...
ROW 46 : ... .. . ... : ... .. . ... : ... .. . ... : ... .. . ... : ... .. . ...
ROW 47 : F-3 0B . ... : A#3 0B . ... : ... .. . ... : ... .. . ... : ... .. . ...
ROW 48 : ... .. . ... : ... .. . ... : ... .. . ... : ... .. . ... : D-3 00 . ...
ROW 49 : C-3 0B . ... : G-3 0B . ... : G-3 17 . ... : A-# 1B . ... : ... .. . ...
ROW 4A : ... .. . ... : ... .. . ... : ... .. . ... : ... .. . ... : ... .. . ...
ROW 4B : A#3 0B . ... : G-2 0B . ... : ... .. . ... : ... .. . ... : ... .. . ...
ROW 4C : ... .. . ... : ... .. . ... : ... .. . ... : ... .. . ... : ... .. . ...
ROW 4D : G-3 0B . ... : F-3 0B . ... : --- .. . ... : ... .. . ... : ... .. . ...
ROW 4E : ... .. . ... : ... .. . ... : ... .. . ... : ... .. . ... : ... .. . ...
ROW 4F : G-2 0B . ... : A#3 0B . ... : ... .. . ... : ... .. . ... : ... .. . ...
ROW 50 : ... .. . ... : ... .. . ... : ... .. . ... : ... .. . ... : D-3 00 . ...
ROW 51 : F-3 0B . ... : G-3 0B . ... : F-3 17 . ... : A-# 1B . ... : ... .. . ...
ROW 52 : ... .. . ... : ... .. . ... : ... .. . ... : ... .. . ... : E-3 00 . W09
ROW 53 : C-3 0B . ... : G-2 0B . ... : C-3 17 . ... : ... .. . ... : ... .. . ...
ROW 54 : ... .. . ... : ... .. . ... : ... .. . ... : ... .. . ... : D-3 00 . ...
ROW 55 : A#3 0B . ... : F-3 0B . ... : G-3 17 . ... : A-# 1B . ... : ... .. . ...
ROW 56 : ... .. . ... : ... .. . ... : ... .. . ... : ... .. . ... : D-3 00 . ...
ROW 57 : G-3 0B . ... : C-3 0B . ... : G-2 17 . ... : A-# 1B . ... : ... .. . ...

PATTERN 0F
ROW 00 : ... .. . ... : ... .. . ... : ... .. . ... : ... .. . ... : C-3 00 . ...
ROW 01 : G-2 0B . ... : A#3 0B . ... : E-2 17 . ... : ... .. . ... : ... .. . ...
ROW 02 : ... .. . ... : ... .. . ... : ... .. . ... : ... .. . ... : ... .. . ...
ROW 03 : F-3 0B . ... : G-3 0B . ... : ... .. . ... : ... .. . ... : ... .. . ...
ROW 04 : ... .. . ... : ... .. . ... : ... .. . ... : ... .. . ... : ... .. . ...
ROW 05 : C-3 0B . ... : G-2 0B . ... : --- .. . ... : ... .. . ... : ... .. . ...
ROW 06 : ... .. . ... : ... .. . ... : ... .. . ... : ... .. . ... : ... .. . ...
ROW 07 : A#3 0B . ... : F-3 0B . ... : ... .. . ... : ... .. . ... : ... .. . ...
ROW 08 : ... .. . ... : ... .. . ... : ... .. . ... : ... .. . ... : D-3 00 . ...
ROW 09 : G-3 0B . ... : A#3 0B . ... : E-3 17 . ... : A-# 1B . ... : ... .. . ...
ROW 0A : ... .. . ... : ... .. . ... : ... .. . ... : ... .. . ... : ... .. . ...
ROW 0B : G-2 0B . ... : G-3 0B . ... : ... .. . ... : ... .. . ... : ... .. . ...
ROW 0C : ... .. . ... : ... .. . ... : ... .. . ... : ... .. . ... : ... .. . ...
ROW 0D : F-3 0B . ... : G-2 0B . ... : --- .. . ... : ... .. . ... : ... .. . ...
ROW 0E : ... .. . ... : ... .. . ... : ... .. . ... : ... .. . ... : ... .. . ...
ROW 0F : C-3 0B . ... : F-3 0B . ... : ... .. . ... : ... .. . ... : ... .. . ...
ROW 10 : ... .. . ... : ... .. . ... : ... .. . ... : ... .. . ... : C-3 00 . ...
ROW 11 : A#3 0B . ... : C-3 0B . ... : E-2 17 . ... : ... .. . ... : ... .. . ...
ROW 12 : ... .. . ... : ... .. . ... : ... .. . ... : ... .. . ... : ... .. . ...
ROW 13 : G-3 0B . ... : A#3 0B . ... : ... .. . ... : ... .. . ... : ... .. . ...
ROW 14 : ... .. . ... : ... .. . ... : ... .. . ... : ... .. . ... : ... .. . ...
ROW 15 : G-2 0B . ... : G-3 0B . ... : --- .. . ... : ... .. . ... : ... .. . ...
ROW 16 : ... .. . ... : ... .. . ... : ... .. . ... : ... .. . ... : ... .. . ...
ROW 17 : F-3 0B . ... : G-2 0B . ... : ... .. . ... : ... .. . ... : ... .. . ...
ROW 18 : ... .. . ... : ... .. . ... : ... .. . ... : ... .. . ... : D-3 00 . ...
ROW 19 : C-3 0B . ... : F-3 0B . ... : E-3 17 . ... : A-# 1B . ... : ... .. . ...
ROW 1A : ... .. . ... : ... .. . ... : ... .. . ... : ... .. . ... : ... .. . ...
ROW 1B : A#3 0B . ... : A#3 0B . ... : ... .. . ... : ... .. . ... : ... .. . ...
ROW 1C : ... .. . ... : ... .. . ... : ... .. . ... : ... .. . ... : ... .. . ...
ROW 1D : E-3 0B . ... : E-3 0B . ... : --- .. . ... : ... .. . ... : ... .. . ...
ROW 1E : ... .. . ... : ... .. . ... : ... .. . ... : ... .. . ... : ... .. . ...
ROW 1F : E-2 0B . ... : E-2 0B . ... : ... .. . ... : ... .. . ... : ... .. . ...
ROW 20 : ... .. . ... : ... .. . ... : ... .. . ... : ... .. . ... : C-3 00 . ...
ROW 21 : D-3 0B . ... : D-3 0B . ... : E-2 17 . ... : ... .. . ... : ... .. . ...
ROW 22 : ... .. . ... : ... .. . ... : ... .. . ... : ... .. . ... : ... .. . ...
ROW 23 : A-2 0B . ... : A-2 0B . ... : ... .. . ... : ... .. . ... : ... .. . ...
ROW 24 : ... .. . ... : ... .. . ... : ... .. . ... : ... .. . ... : ... .. . ...
ROW 25 : G-3 0B . ... : G-3 0B . ... : --- .. . ... : ... .. . ... : ... .. . ...
ROW 26 : ... .. . ... : ... .. . ... : ... .. . ... : ... .. . ... : ... .. . ...
ROW 27 : E-3 0B . ... : E-3 0B . ... : ... .. . ... : ... .. . ... : ... .. . ...
ROW 28 : ... .. . ... : ... .. . ... : ... .. . ... : ... .. . ... : D-3 00 . ...
ROW 29 : E-2 0B . ... : E-2 0B . ... : E-3 17 . ... : A-# 1B . ... : ... .. . ...
ROW 2A : ... .. . ... : ... .. . ... : ... .. . ... : ... .. . ... : ... .. . ...
ROW 2B : D-3 0B . ... : D-3 0B . ... : ... .. . ... : ... .. . ... : ... .. . ...
ROW 2C : ... .. . ... : ... .. . ... : ... .. . ... : ... .. . ... : ... .. . ...
ROW 2D : A-2 0B . ... : G-3 0B . ... : --- .. . ... : ... .. . ... : ... .. . ...
ROW 2E : ... .. . ... : ... .. . ... : ... .. . ... : ... .. . ... : ... .. . ...
ROW 2F : G-3 0B . ... : E-3 0B . ... : ... .. . ... : ... .. . ... : ... .. . ...
ROW 30 : ... .. . ... : ... .. . ... : ... .. . ... : ... .. . ... : C-3 00 . ...
ROW 31 : E-3 0B . ... : E-2 0B . ... : E-2 17 . ... : ... .. . ... : ... .. . ...
ROW 32 : ... .. . ... : ... .. . ... : ... .. . ... : ... .. . ... : ... .. . ...
ROW 33 : E-2 0B . ... : D-3 0B . ... : ... .. . ... : ... .. . ... : ... .. . ...
ROW 34 : ... .. . ... : ... .. . ... : ... .. . ... : ... .. . ... : ... .. . ...
ROW 35 : D-3 0B . ... : A-2 0B . ... : --- .. . ... : ... .. . ... : ... .. . ...
ROW 36 : ... .. . ... : ... .. . ... : ... .. . ... : ... .. . ... : ... .. . ...
ROW 37 : A-2 0B . ... : G-3 0B . ... : ... .. . ... : ... .. . ... : ... .. . ...
ROW 38 : ... .. . ... : ... .. . ... : ... .. . ... : ... .. . ... : D-3 00 . ...
ROW 39 : G-3 0B . ... : E-3 0B . ... : E-3 17 . ... : A-# 1B . ... : ... .. . ...
ROW 3A : ... .. . ... : ... .. . ... : ... .. . ... : ... .. . ... : ... .. . ...
ROW 3B : E-3 0B . ... : E-2 0B . ... : ... .. . ... : ... .. . ... : ... .. . ...
ROW 3C : ... .. . ... : ... .. . ... : ... .. . ... : ... .. . ... : ... .. . ...
ROW 3D : E-2 0B . ... : D-3 0B . ... : --- .. . ... : ... .. . ... : ... .. . ...
ROW 3E : ... .. . ... : ... .. . ... : ... .. . ... : ... .. . ... : ... .. . ...
ROW 3F : D-3 0B . ... : G-3 0B . ... : ... .. . ... : ... .. . ... : ... .. . ...
ROW 40 : ... .. . ... : ... .. . ... : ... .. . ... : ... .. . ... : C-3 00 . ...
ROW 41 : A-2 0B . ... : E-3 0B . ... : E-2 17 . ... : ... .. . ... : ... .. . ...
ROW 42 : ... .. . ... : ... .. . ... : ... .. . ... : ... .. . ... : ... .. . ...
ROW 43 : G-3 0B . ... : E-2 0B . ... : ... .. . ... : ... .. . ... : ... .. . ...
ROW 44 : ... .. . ... : ... .. . ... : ... .. . ... : ... .. . ... : ... .. . ...
ROW 45 : E-3 0B . ... : D-3 0B . ... : --- .. . ... : ... .. . ... : ... .. . ...
ROW 46 : ... .. . ... : ... .. . ... : ... .. . ... : ... .. . ... : ... .. . ...
ROW 47 : E-2 0B . ... : A-2 0B . ... : ... .. . ... : ... .. . ... : ... .. . ...
ROW 48 : ... .. . ... : ... .. . ... : ... .. . ... : ... .. . ... : D-3 00 . ...
ROW 49 : D-3 0B . ... : G-3 0B . ... : E-3 17 . ... : A-# 1B . ... : ... .. . ...
ROW 4A : ... .. . ... : ... .. . ... : ... .. . ... : ... .. . ... : ... .. . ...
ROW 4B : A-2 0B . ... : E-3 0B . ... : ... .. . ... : ... .. . ... : ... .. . ...
ROW 4C : ... .. . ... : ... .. . ... : ... .. . ... : ... .. . ... : ... .. . ...
ROW 4D : G-3 0B . ... : E-2 0B . ... : --- .. . ... : ... .. . ... : ... .. . ...
ROW 4E : ... .. . ... : ... .. . ... : ... .. . ... : ... .. . ... : ... .. . ...
ROW 4F : E-3 0B . ... : D-3 0B . ... : ... .. . ... : ... .. . ... : ... .. . ...
ROW 50 : ... .. . ... : ... .. . ... : ... .. . ... : ... .. . ... : D-3 00 . ...
ROW 51 : E-2 0B . ... : G-3 0B . ... : D-3 17 . ... : A-# 1B . ... : ... .. . ...
ROW 52 : ... .. . ... : ... .. . ... : ... .. . ... : ... .. . ... : E-3 00 . W09
ROW 53 : D-3 0B . ... : E-3 0B . ... : A-2 17 . ... : ... .. . ... : ... .. . ...
ROW 54 : ... .. . ... : ... .. . ... : ... .. . ... : ... .. . ... : D-3 00 . ...
ROW 55 : A-2 0B . ... : E-2 0B . ... : E-3 17 . ... : A-# 1B . ... : ... .. . ...
ROW 56 : ... .. . ... : ... .. . ... : ... .. . ... : ... .. . ... : D-3 00 . ...
ROW 57 : G-3 0B . ... : D-3 0B . ... : E-2 17 . ... : A-# 1B . ... : ... .. . ...

PATTERN 10
ROW 00 : ... .. . ... : ... .. . ... : ... .. . ... : ... .. . ... : C-3 00 . ...
ROW 01 : E-3 0B . ... : A-2 0B . ... : G-2 17 . ... : ... .. . ... : ... .. . ...
ROW 02 : ... .. . ... : ... .. . ... : ... .. . ... : ... .. . ... : ... .. . ...
ROW 03 : E-2 0B . ... : G-3 0B . ... : ... .. . ... : ... .. . ... : ... .. . ...
ROW 04 : ... .. . ... : ... .. . ... : ... .. . ... : ... .. . ... : ... .. . ...
ROW 05 : D-3 0B . ... : E-3 0B . ... : --- .. . ... : ... .. . ... : ... .. . ...
ROW 06 : ... .. . ... : ... .. . ... : ... .. . ... : ... .. . ... : ... .. . ...
ROW 07 : A-2 0B . ... : E-2 0B . ... : ... .. . ... : ... .. . ... : ... .. . ...
ROW 08 : ... .. . ... : ... .. . ... : ... .. . ... : ... .. . ... : D-3 00 . ...
ROW 09 : G-3 0B . ... : D-3 0B . ... : G-3 17 . ... : A-# 1B . ... : ... .. . ...
ROW 0A : ... .. . ... : ... .. . ... : ... .. . ... : ... .. . ... : ... .. . ...
ROW 0B : E-3 0B . ... : G-3 0B . ... : ... .. . ... : ... .. . ... : ... .. . ...
ROW 0C : ... .. . ... : ... .. . ... : ... .. . ... : ... .. . ... : ... .. . ...
ROW 0D : E-2 0B . ... : E-3 0B . ... : --- .. . ... : ... .. . ... : ... .. . ...
ROW 0E : ... .. . ... : ... .. . ... : ... .. . ... : ... .. . ... : ... .. . ...
ROW 0F : D-3 0B . ... : E-2 0B . ... : ... .. . ... : ... .. . ... : ... .. . ...
ROW 10 : ... .. . ... : ... .. . ... : ... .. . ... : ... .. . ... : C-3 00 . ...
ROW 11 : A-2 0B . ... : D-3 0B . ... : G-2 17 . ... : ... .. . ... : ... .. . ...
ROW 12 : ... .. . ... : ... .. . ... : ... .. . ... : ... .. . ... : ... .. . ...
ROW 13 : G-3 0B . ... : A-2 0B . ... : ... .. . ... : ... .. . ... : ... .. . ...
ROW 14 : ... .. . ... : ... .. . ... : ... .. . ... : ... .. . ... : ... .. . ...
ROW 15 : E-3 0B . ... : G-3 0B . ... : --- .. . ... : ... .. . ... : ... .. . ...
ROW 16 : ... .. . ... : ... .. . ... : ... .. . ... : ... .. . ... : ... .. . ...
ROW 17 : E-2 0B . ... : E-3 0B . ... : ... .. . ... : ... .. . ... : ... .. . ...
ROW 18 : ... .. . ... : ... .. . ... : ... .. . ... : ... .. . ... : D-3 00 . ...
ROW 19 : D-3 0B . ... : E-2 0B . ... : G-3 17 . ... : A-# 1B . ... : ... .. . ...
ROW 1A : ... .. . ... : ... .. . ... : ... .. . ... : ... .. . ... : ... .. . ...
ROW 1B : A-2 0B . ... : D-3 0B . ... : ... .. . ... : ... .. . ... : ... .. . ...
ROW 1C : ... .. . ... : ... .. . ... : ... .. . ... : ... .. . ... : ... .. . ...
ROW 1D : G-3 0B . ... : G-3 0B . ... : --- .. . ... : ... .. . ... : ... .. . ...
ROW 1E : ... .. . ... : ... .. . ... : ... .. . ... : ... .. . ... : ... .. . ...
ROW 1F : G-3 0B . ... : G-3 0B . ... : ... .. . ... : ... .. . ... : ... .. . ...
ROW 20 : ... .. . ... : ... .. . ... : ... .. . ... : ... .. . ... : C-3 00 . ...
ROW 21 : G-2 0B . ... : G-2 0B . ... : G-2 17 . ... : ... .. . ... : ... .. . ...
ROW 22 : ... .. . ... : ... .. . ... : ... .. . ... : ... .. . ... : ... .. . ...
ROW 23 : F-3 0B . ... : F-3 0B . ... : ... .. . ... : ... .. . ... : ... .. . ...
ROW 24 : ... .. . ... : ... .. . ... : ... .. . ... : ... .. . ... : ... .. . ...
ROW 25 : C-3 0B . ... : C-3 0B . ... : --- .. . ... : ... .. . ... : ... .. . ...
ROW 26 : ... .. . ... : ... .. . ... : ... .. . ... : ... .. . ... : ... .. . ...
ROW 27 : A#3 0B . ... : A#3 0B . ... : ... .. . ... : ... .. . ... : ... .. . ...
ROW 28 : ... .. . ... : ... .. . ... : ... .. . ... : ... .. . ... : D-3 00 . ...
ROW 29 : G-3 0B . ... : G-3 0B . ... : G-3 17 . ... : A-# 1B . ... : ... .. . ...
ROW 2A : ... .. . ... : ... .. . ... : ... .. . ... : ... .. . ... : ... .. . ...
ROW 2B : G-2 0B . ... : G-2 0B . ... : ... .. . ... : ... .. . ... : ... .. . ...
ROW 2C : ... .. . ... : ... .. . ... : ... .. . ... : ... .. . ... : ... .. . ...
ROW 2D : F-3 0B . ... : F-3 0B . ... : --- .. . ... : ... .. . ... : ... .. . ...
ROW 2E : ... .. . ... : ... .. . ... : ... .. . ... : ... .. . ... : ... .. . ...
ROW 2F : C-3 0B . ... : A#3 0B . ... : ... .. . ... : ... .. . ... : ... .. . ...
ROW 30 : ... .. . ... : ... .. . ... : ... .. . ... : ... .. . ... : C-3 00 . ...
ROW 31 : A#3 0B . ... : G-3 0B . ... : G-2 17 . ... : ... .. . ... : ... .. . ...
ROW 32 : ... .. . ... : ... .. . ... : ... .. . ... : ... .. . ... : ... .. . ...
ROW 33 : G-3 0B . ... : G-2 0B . ... : ... .. . ... : ... .. . ... : ... .. . ...
ROW 34 : ... .. . ... : ... .. . ... : ... .. . ... : ... .. . ... : ... .. . ...
ROW 35 : G-2 0B . ... : F-3 0B . ... : --- .. . ... : ... .. . ... : ... .. . ...
ROW 36 : ... .. . ... : ... .. . ... : ... .. . ... : ... .. . ... : ... .. . ...
ROW 37 : F-3 0B . ... : C-3 0B . ... : ... .. . ... : ... .. . ... : ... .. . ...
ROW 38 : ... .. . ... : ... .. . ... : ... .. . ... : ... .. . ... : D-3 00 . ...
ROW 39 : C-3 0B . ... : A#3 0B . ... : G-3 17 . ... : A-# 1B . ... : ... .. . ...
ROW 3A : ... .. . ... : ... .. . ... : ... .. . ... : ... .. . ... : ... .. . ...
ROW 3B : A#3 0B . ... : G-3 0B . ... : ... .. . ... : ... .. . ... : ... .. . ...
ROW 3C : ... .. . ... : ... .. . ... : ... .. . ... : ... .. . ... : ... .. . ...
ROW 3D : G-3 0B . ... : G-2 0B . ... : --- .. . ... : ... .. . ... : ... .. . ...
ROW 3E : ... .. . ... : ... .. . ... : ... .. . ... : ... .. . ... : ... .. . ...
ROW 3F : G-2 0B . ... : F-3 0B . ... : ... .. . ... : ... .. . ... : ... .. . ...
ROW 40 : ... .. . ... : ... .. . ... : ... .. . ... : ... .. . ... : C-3 00 . ...
ROW 41 : F-3 0B . ... : A#3 0B . ... : G-2 17 . ... : ... .. . ... : ... .. . ...
ROW 42 : ... .. . ... : ... .. . ... : ... .. . ... : ... .. . ... : ... .. . ...
ROW 43 : C-3 0B . ... : G-3 0B . ... : ... .. . ... : ... .. . ... : ... .. . ...
ROW 44 : ... .. . ... : ... .. . ... : ... .. . ... : ... .. . ... : ... .. . ...
ROW 45 : A#3 0B . ... : G-2 0B . ... : --- .. . ... : ... .. . ... : ... .. . ...
ROW 46 : ... .. . ... : ... .. . ... : ... .. . ... : ... .. . ... : ... .. . ...
ROW 47 : G-3 0B . ... : F-3 0B . ... : ... .. . ... : ... .. . ... : ... .. . ...
ROW 48 : ... .. . ... : ... .. . ... : ... .. . ... : ... .. . ... : D-3 00 . ...
ROW 49 : G-2 0B . ... : C-3 0B . ... : G-3 17 . ... : A-# 1B . ... : ... .. . ...
ROW 4A : ... .. . ... : ... .. . ... : ... .. . ... : ... .. . ... : ... .. . ...
ROW 4B : F-3 0B . ... : A#3 0B . ... : ... .. . ... : ... .. . ... : ... .. . ...
ROW 4C : ... .. . ... : ... .. . ... : ... .. . ... : ... .. . ... : ... .. . ...
ROW 4D : C-3 0B . ... : G-3 0B . ... : --- .. . ... : ... .. . ... : ... .. . ...
ROW 4E : ... .. . ... : ... .. . ... : ... .. . ... : ... .. . ... : ... .. . ...
ROW 4F : A#3 0B . ... : G-2 0B . ... : ... .. . ... : ... .. . ... : ... .. . ...
ROW 50 : ... .. . ... : ... .. . ... : ... .. . ... : ... .. . ... : D-3 00 . ...
ROW 51 : G-3 0B . ... : F-3 0B . ... : F-3 17 . ... : A-# 1B . ... : ... .. . ...
ROW 52 : ... .. . ... : ... .. . ... : ... .. . ... : ... .. . ... : E-3 00 . W09
ROW 53 : G-2 0B . ... : A#3 0B . ... : C-3 17 . ... : ... .. . ... : ... .. . ...
ROW 54 : ... .. . ... : ... .. . ... : ... .. . ... : ... .. . ... : D-3 00 . ...
ROW 55 : F-3 0B . ... : G-3 0B . ... : G-3 17 . ... : A-# 1B . ... : ... .. . ...
ROW 56 : ... .. . ... : ... .. . ... : ... .. . ... : ... .. . ... : D-3 00 . ...
ROW 57 : C-3 0B . ... : G-2 0B . ... : G-2 17 . ... : A-# 1B . ... : ... .. . ...

PATTERN 11
ROW 00 : ... .. . ... : ... .. . ... : ... .. . ... : ... .. . ... : C-3 00 . ...
ROW 01 : A#3 0B . ... : F-3 0B . ... : E-2 17 . ... : ... .. . ... : ... .. . ...
ROW 02 : ... .. . ... : ... .. . ... : ... .. . ... : ... .. . ... : ... .. . ...
ROW 03 : G-3 0B . ... : C-3 0B . ... : ... .. . ... : ... .. . ... : ... .. . ...
ROW 04 : ... .. . ... : ... .. . ... : ... .. . ... : ... .. . ... : ... .. . ...
ROW 05 : G-2 0B . ... : A#3 0B . ... : --- .. . ... : ... .. . ... : ... .. . ...
ROW 06 : ... .. . ... : ... .. . ... : ... .. . ... : ... .. . ... : ... .. . ...
ROW 07 : F-3 0B . ... : G-3 0B . ... : ... .. . ... : ... .. . ... : ... .. . ...
ROW 08 : ... .. . ... : ... .. . ... : ... .. . ... : ... .. . ... : D-3 00 . ...
ROW 09 : C-3 0B . ... : G-2 0B . ... : E-3 17 . ... : A-# 1B . ... : ... .. . ...
ROW 0A : ... .. . ... : ... .. . ... : ... .. . ... : ... .. . ... : ... .. . ...
ROW 0B : A#3 0B . ... : F-3 0B . ... : ... .. . ... : ... .. . ... : ... .. . ...
ROW 0C : ... .. . ... : ... .. . ... : ... .. . ... : ... .. . ... : ... .. . ...
ROW 0D : G-3 0B . ... : A#3 0B . ... : --- .. . ... : ... .. . ... : ... .. . ...
ROW 0E : ... .. . ... : ... .. . ... : ... .. . ... : ... .. . ... : ... .. . ...
ROW 0F : G-2 0B . ... : G-3 0B . ... : ... .. . ... : ... .. . ... : ... .. . ...
ROW 10 : ... .. . ... : ... .. . ... : ... .. . ... : ... .. . ... : C-3 00 . ...
ROW 11 : F-3 0B . ... : G-2 0B . ... : E-2 17 . ... : ... .. . ... : ... .. . ...
ROW 12 : ... .. . ... : ... .. . ... : ... .. . ... : ... .. . ... : ... .. . ...
ROW 13 : C-3 0B . ... : F-3 0B . ... : ... .. . ... : ... .. . ... : ... .. . ...
ROW 14 : ... .. . ... : ... .. . ... : ... .. . ... : ... .. . ... : ... .. . ...
ROW 15 : A#3 0B . ... : C-3 0B . ... : --- .. . ... : ... .. . ... : ... .. . ...
ROW 16 : ... .. . ... : ... .. . ... : ... .. . ... : ... .. . ... : ... .. . ...
ROW 17 : G-3 0B . ... : A#3 0B . ... : ... .. . ... : ... .. . ... : ... .. . ...
ROW 18 : ... .. . ... : ... .. . ... : ... .. . ... : ... .. . ... : D-3 00 . ...
ROW 19 : G-2 0B . ... : G-3 0B . ... : E-3 17 . ... : A-# 1B . ... : ... .. . ...
ROW 1A : ... .. . ... : ... .. . ... : ... .. . ... : ... .. . ... : ... .. . ...
ROW 1B : F-3 0B . ... : G-2 0B . ... : ... .. . ... : ... .. . ... : ... .. . ...
ROW 1C : ... .. . ... : ... .. . ... : ... .. . ... : ... .. . ... : ... .. . ...
ROW 1D : C-3 0B . ... : F-3 0B . ... : --- .. . ... : ... .. . ... : ... .. . ...
ROW 1E : ... .. . ... : ... .. . ... : ... .. . ... : ... .. . ... : ... .. . ...
ROW 1F : A#3 0B . ... : A#3 0B . ... : ... .. . ... : ... .. . ... : ... .. . ...
ROW 20 : ... .. . ... : ... .. . ... : ... .. . ... : ... .. . ... : C-3 00 . ...
ROW 21 : E-3 0B . ... : E-3 0B . ... : E-2 17 . ... : ... .. . ... : ... .. . ...
ROW 22 : ... .. . ... : ... .. . ... : ... .. . ... : ... .. . ... : ... .. . ...
ROW 23 : E-2 0B . ... : E-2 0B . ... : ... .. . ... : ... .. . ... : ... .. . ...
ROW 24 : ... .. . ... : ... .. . ... : ... .. . ... : ... .. . ... : ... .. . ...
ROW 25 : D-3 0B . ... : D-3 0B . ... : --- .. . ... : ... .. . ... : ... .. . ...
ROW 26 : ... .. . ... : ... .. . ... : ... .. . ... : ... .. . ... : ... .. . ...
ROW 27 : A-2 0B . ... : A-2 0B . ... : ... .. . ... : ... .. . ... : ... .. . ...
ROW 28 : ... .. . ... : ... .. . ... : ... .. . ... : ... .. . ... : D-3 00 . ...
ROW 29 : G-3 0B . ... : G-3 0B . ... : E-3 17 . ... : A-# 1B . ... : ... .. . ...
ROW 2A : ... .. . ... : ... .. . ... : ... .. . ... : ... .. . ... : ... .. . ...
ROW 2B : E-3 0B . ... : E-3 0B . ... : ... .. . ... : ... .. . ... : ... .. . ...
ROW 2C : ... .. . ... : ... .. . ... : ... .. . ... : ... .. . ... : ... .. . ...
ROW 2D : E-2 0B . ... : E-2 0B . ... : --- .. . ... : ... .. . ... : ... .. . ...
ROW 2E : ... .. . ... : ... .. . ... : ... .. . ... : ... .. . ... : ... .. . ...
ROW 2F : D-3 0B . ... : D-3 0B . ... : ... .. . ... : ... .. . ... : ... .. . ...
ROW 30 : ... .. . ... : ... .. . ... : ... .. . ... : ... .. . ... : C-3 00 . ...
ROW 31 : A-2 0B . ... : G-3 0B . ... : E-2 17 . ... : ... .. . ... : ... .. . ...
ROW 32 : ... .. . ... : ... .. . ... : ... .. . ... : ... .. . ... : ... .. . ...
ROW 33 : G-3 0B . ... : E-3 0B . ... : ... .. . ... : ... .. . ... : ... .. . ...
ROW 34 : ... .. . ... : ... .. . ... : ... .. . ... : ... .. . ... : ... .. . ...
ROW 35 : E-3 0B . ... : E-2 0B . ... : --- .. . ... : ... .. . ... : ... .. . ...
ROW 36 : ... .. . ... : ... .. . ... : ... .. . ... : ... .. . ... : ... .. . ...
ROW 37 : E-2 0B . ... : D-3 0B . ... : ... .. . ... : ... .. . ... : ... .. . ...
ROW 38 : ... .. . ... : ... .. . ... : ... .. . ... : ... .. . ... : D-3 00 . ...
ROW 39 : D-3 0B . ... : A-2 0B . ... : E-3 17 . ... : A-# 1B . ... : ... .. . ...
ROW 3A : ... .. . ... : ... .. . ... : ... .. . ... : ... .. . ... : ... .. . ...
ROW 3B : A-2 0B . ... : G-3 0B . ... : ... .. . ... : ... .. . ... : ... .. . ...
ROW 3C : ... .. . ... : ... .. . ... : ... .. . ... : ... .. . ... : ... .. . ...
ROW 3D : G-3 0B . ... : E-3 0B . ... : --- .. . ... : ... .. . ... : ... .. . ...
ROW 3E : ... .. . ... : ... .. . ... : ... .. . ... : ... .. . ... : ... .. . ...
ROW 3F : E-3 0B . ... : E-2 0B . ... : ... .. . ... : ... .. . ... : ... .. . ...
ROW 40 : ... .. . ... : ... .. . ... : ... .. . ... : ... .. . ... : C-3 00 . ...
ROW 41 : E-2 0B . ... : D-3 0B . ... : E-2 17 . ... : ... .. . ... : ... .. . ...
ROW 42 : ... .. . ... : ... .. . ... : ... .. . ... : ... .. . ... : ... .. . ...
ROW 43 : D-3 0B . ... : G-3 0B . ... : ... .. . ... : ... .. . ... : ... .. . ...
ROW 44 : ... .. . ... : ... .. . ... : ... .. . ... : ... .. . ... : ... .. . ...
ROW 45 : A-2 0B . ... : E-3 0B . ... : --- .. . ... : ... .. . ... : ... .. . ...
ROW 46 : ... .. . ... : ... .. . ... : ... .. . ... : ... .. . ... : ... .. . ...
ROW 47 : G-3 0B . ... : E-2 0B . ... : ... .. . ... : ... .. . ... : ... .. . ...
ROW 48 : ... .. . ... : ... .. . ... : ... .. . ... : ... .. . ... : D-3 00 . ...
ROW 49 : E-3 0B . ... : D-3 0B . ... : E-3 17 . ... : A-# 1B . ... : ... .. . ...
ROW 4A : ... .. . ... : ... .. . ... : ... .. . ... : ... .. . ... : ... .. . ...
ROW 4B : E-2 0B . ... : A-2 0B . ... : ... .. . ... : ... .. . ... : ... .. . ...
ROW 4C : ... .. . ... : ... .. . ... : ... .. . ... : ... .. . ... : ... .. . ...
ROW 4D : D-3 0B . ... : G-3 0B . ... : --- .. . ... : ... .. . ... : ... .. . ...
ROW 4E : ... .. . ... : ... .. . ... : ... .. . ... : ... .. . ... : ... .. . ...
ROW 4F : A-2 0B . ... : E-3 0B . ... : ... .. . ... : ... .. . ... : ... .. . ...
ROW 50 : ... .. . ... : ... .. . ... : ... .. . ... : ... .. . ... : D-3 00 . ...
ROW 51 : G-3 0B . ... : E-2 0B . ... : D-3 17 . ... : A-# 1B . ... : ... .. . ...
ROW 52 : ... .. . ... : ... .. . ... : ... .. . ... : ... .. . ... : E-3 00 . W09
ROW 53 : E-3 0B . ... : D-3 0B . ... : A-2 17 . ... : ... .. . ... : ... .. . ...
ROW 54 : ... .. . ... : ... .. . ... : ... .. . ... : ... .. . ... : D-3 00 . ...
ROW 55 : E-2 0B . ... : G-3 0B . ... : E-3 17 . ... : A-# 1B . ... : ... .. . ...
ROW 56 : ... .. . ... : ... .. . ... : ... .. . ... : ... .. . ... : D-3 00 . ...
ROW 57 : D-3 0B . ... : E-3 0B . ... : E-2 17 . ... : A-# 1B . ... : ... .. . ...

PATTERN 12
ROW 00 : ... .. . ... : ... .. . ... : ... .. . ... : ... .. . ... : C-3 00 . ...
ROW 01 : A-2 0B . ... : E-2 0B . ... : G-2 17 . ... : ... .. . ... : ... .. . ...
ROW 02 : ... .. . ... : ... .. . ... : ... .. . ... : ... .. . ... : ... .. . ...
ROW 03 : G-3 0B . ... : D-3 0B . ... : ... .. . ... : ... .. . ... : ... .. . ...
ROW 04 : ... .. . ... : ... .. . ... : ... .. . ... : ... .. . ... : ... .. . ...
ROW 05 : E-3 0B . ... : A-2 0B . ... : --- .. . ... : ... .. . ... : ... .. . ...
ROW 06 : ... .. . ... : ... .. . ... : ... .. . ... : ... .. . ... : ... .. . ...
ROW 07 : E-2 0B . ... : G-3 0B . ... : ... .. . ... : ... .. . ... : ... .. . ...
ROW 08 : ... .. . ... : ... .. . ... : ... .. . ... : ... .. . ... : D-3 00 . ...
ROW 09 : D-3 0B . ... : E-3 0B . ... : G-3 17 . ... : A-# 1B . ... : ... .. . ...
ROW 0A : ... .. . ... : ... .. . ... : ... .. . ... : ... .. . ... : ... .. . ...
ROW 0B : A-2 0B . ... : E-2 0B . ... : ... .. . ... : ... .. . ... : ... .. . ...
ROW 0C : ... .. . ... : ... .. . ... : ... .. . ... : ... .. . ... : ... .. . ...
ROW 0D : G-3 0B . ... : D-3 0B . ... : --- .. . ... : ... .. . ... : ... .. . ...
ROW 0E : ... .. . ... : ... .. . ... : ... .. . ... : ... .. . ... : ... .. . ...
ROW 0F : E-3 0B . ... : G-3 0B . ... : ... .. . ... : ... .. . ... : ... .. . ...
ROW 10 : ... .. . ... : ... .. . ... : ... .. . ... : ... .. . ... : C-3 00 . ...
ROW 11 : E-2 0B . ... : E-3 0B . ... : G-2 17 . ... : ... .. . ... : ... .. . ...
ROW 12 : ... .. . ... : ... .. . ... : ... .. . ... : ... .. . ... : ... .. . ...
ROW 13 : D-3 0B . ... : E-2 0B . ... : ... .. . ... : ... .. . ... : ... .. . ...
ROW 14 : ... .. . ... : ... .. . ... : ... .. . ... : ... .. . ... : ... .. . ...
ROW 15 : A-2 0B . ... : D-3 0B . ... : --- .. . ... : ... .. . ... : ... .. . ...
ROW 16 : ... .. . ... : ... .. . ... : ... .. . ... : ... .. . ... : ... .. . ...
ROW 17 : G-3 0B . ... : A-2 0B . ... : ... .. . ... : ... .. . ... : ... .. . ...
ROW 18 : ... .. . ... : ... .. . ... : ... .. . ... : ... .. . ... : D-3 00 . ...
ROW 19 : E-3 0B . ... : G-3 0B . ... : G-3 17 . ... : A-# 1B . ... : ... .. . ...
ROW 1A : ... .. . ... : ... .. . ... : ... .. . ... : ... .. . ... : ... .. . ...
ROW 1B : E-2 0B . ... : E-3 0B . ... : ... .. . ... : ... .. . ... : ... .. . ...
ROW 1C : ... .. . ... : ... .. . ... : ... .. . ... : ... .. . ... : ... .. . ...
ROW 1D : D-3 0B . ... : E-2 0B . ... : --- .. . ... : ... .. . ... : ... .. . ...
ROW 1E : ... .. . ... : ... .. . ... : ... .. . ... : ... .. . ... : ... .. . ...
ROW 1F : A-2 0B . ... : D-3 0B . ... : ... .. . ... : ... .. . ... : ... .. . ...
ROW 20 : ... .. . ... : ... .. . ... : ... .. . ... : ... .. . ... : C-3 00 . ...
ROW 21 : G-3 0B . ... : G-3 0B . ... : G-2 17 . ... : ... .. . ... : ... .. . ...
ROW 22 : ... .. . ... : ... .. . ... : ... .. . ... : ... .. . ... : ... .. . ...
ROW 23 : G-3 0B . ... : G-3 0B . ... : ... .. . ... : ... .. . ... : ... .. . ...
ROW 24 : ... .. . ... : ... .. . ... : ... .. . ... : ... .. . ... : ... .. . ...
ROW 25 : G-2 0B . ... : G-2 0B . ... : --- .. . ... : ... .. . ... : ... .. . ...
ROW 26 : ... .. . ... : ... .. . ... : ... .. . ... : ... .. . ... : ... .. . ...
ROW 27 : F-3 0B . ... : F-3 0B . ... : ... .. . ... : ... .. . ... : ... .. . ...
ROW 28 : ... .. . ... : ... .. . ... : ... .. . ... : ... .. . ... : D-3 00 . ...
ROW 29 : C-3 0B . ... : C-3 0B . ... : G-3 17 . ... : A-# 1B . ... : ... .. . ...
ROW 2A : ... .. . ... : ... .. . ... : ... .. . ... : ... .. . ... : ... .. . ...
ROW 2B : A#3 0B . ... : A#3 0B . ... : ... .. . ... : ... .. . ... : ... .. . ...
ROW 2C : ... .. . ... : ... .. . ... : ... .. . ... : ... .. . ... : ... .. . ...
ROW 2D : G-3 0B . ... : G-3 0B . ... : --- .. . ... : ... .. . ... : ... .. . ...
ROW 2E : ... .. . ... : ... .. . ... : ... .. . ... : ... .. . ... : ... .. . ...
ROW 2F : G-2 0B . ... : G-2 0B . ... : ... .. . ... : ... .. . ... : ... .. . ...
ROW 30 : ... .. . ... : ... .. . ... : ... .. . ... : ... .. . ... : C-3 00 . ...
ROW 31 : F-3 0B . ... : F-3 0B . ... : G-2 17 . ... : ... .. . ... : ... .. . ...
ROW 32 : ... .. . ... : ... .. . ... : ... .. . ... : ... .. . ... : ... .. . ...
ROW 33 : C-3 0B . ... : A#3 0B . ... : ... .. . ... : ... .. . ... : ... .. . ...
ROW 34 : ... .. . ... : ... .. . ... : ... .. . ... : ... .. . ... : ... .. . ...
ROW 35 : A#3 0B . ... : G-3 0B . ... : --- .. . ... : ... .. . ... : ... .. . ...
ROW 36 : ... .. . ... : ... .. . ... : ... .. . ... : ... .. . ... : ... .. . ...
ROW 37 : G-3 0B . ... : G-2 0B . ... : ... .. . ... : ... .. . ... : ... .. . ...
ROW 38 : ... .. . ... : ... .. . ... : ... .. . ... : ... .. . ... : D-3 00 . ...
ROW 39 : G-2 0B . ... : F-3 0B . ... : G-3 17 . ... : A-# 1B . ... : ... .. . ...
ROW 3A : ... .. . ... : ... .. . ... : ... .. . ... : ... .. . ... : ... .. . ...
ROW 3B : F-3 0B . ... : C-3 0B . ... : ... .. . ... : ... .. . ... : ... .. . ...
ROW 3C : ... .. . ... : ... .. . ... : ... .. . ... : ... .. . ... : ... .. . ...
ROW 3D : C-3 0B . ... : A#3 0B . ... : --- .. . ... : ... .. . ... : ... .. . ...
ROW 3E : ... .. . ... : ... .. . ... : ... .. . ... : ... .. . ... : ... .. . ...
ROW 3F : A#3 0B . ... : G-3 0B . ... : ... .. . ... : ... .. . ... : ... .. . ...
ROW 40 : ... .. . ... : ... .. . ... : ... .. . ... : ... .. . ... : C-3 00 . ...
ROW 41 : G-3 0B . ... : G-2 0B . ... : G-2 17 . ... : ... .. . ... : ... .. . ...
ROW 42 : ... .. . ... : ... .. . ... : ... .. . ... : ... .. . ... : ... .. . ...
ROW 43 : G-2 0B . ... : F-3 0B . ... : ... .. . ... : ... .. . ... : ... .. . ...
ROW 44 : ... .. . ... : ... .. . ... : ... .. . ... : ... .. . ... : ... .. . ...
ROW 45 : F-3 0B . ... : A#3 0B . ... : --- .. . ... : ... .. . ... : ... .. . ...
ROW 46 : ... .. . ... : ... .. . ... : ... .. . ... : ... .. . ... : ... .. . ...
ROW 47 : C-3 0B . ... : G-3 0B . ... : ... .. . ... : ... .. . ... : ... .. . ...
ROW 48 : ... .. . ... : ... .. . ... : ... .. . ... : ... .. . ... : D-3 00 . ...
ROW 49 : A#3 0B . ... : G-2 0B . ... : G-3 17 . ... : A-# 1B . ... : ... .. . ...
ROW 4A : ... .. . ... : ... .. . ... : ... .. . ... : ... .. . ... : ... .. . ...
ROW 4B : G-3 0B . ... : F-3 0B . ... : ... .. . ... : ... .. . ... : ... .. . ...
ROW 4C : ... .. . ... : ... .. . ... : ... .. . ... : ... .. . ... : ... .. . ...
ROW 4D : G-2 0B . ... : C-3 0B . ... : --- .. . ... : ... .. . ... : ... .. . ...
ROW 4E : ... .. . ... : ... .. . ... : ... .. . ... : ... .. . ... : ... .. . ...
ROW 4F : F-3 0B . ... : A#3 0B . ... : ... .. . ... : ... .. . ... : ... .. . ...
ROW 50 : ... .. . ... : ... .. . ... : ... .. . ... : ... .. . ... : D-3 00 . ...
ROW 51 : C-3 0B . ... : G-3 0B . ... : F-3 17 . ... : A-# 1B . ... : ... .. . ...
ROW 52 : ... .. . ... : ... .. . ... : ... .. . ... : ... .. . ... : E-3 00 . W09
ROW 53 : A#3 0B . ... : G-2 0B . ... : C-3 17 . ... : ... .. . ... : ... .. . ...
ROW 54 : ... .. . ... : ... .. . ... : ... .. . ... : ... .. . ... : D-3 00 . ...
ROW 55 : G-3 0B . ... : F-3 0B . ... : G-3 17 . ... : A-# 1B . ... : ... .. . ...
ROW 56 : ... .. . ... : ... .. . ... : ... .. . ... : ... .. . ... : D-3 00 . ...
ROW 57 : G-2 0B . ... : A#3 0B . ... : G-2 17 . ... : A-# 1B . ... : ... .. . ...

PATTERN 13
ROW 00 : ... .. . ... : ... .. . ... : ... .. . ... : ... .. . ... : C-3 00 . ...
ROW 01 : F-3 0B . ... : G-3 0B . ... : E-2 17 . ... : ... .. . ... : ... .. . ...
ROW 02 : ... .. . ... : ... .. . ... : ... .. . ... : ... .. . ... : ... .. . ...
ROW 03 : C-3 0B . ... : G-2 0B . ... : ... .. . ... : ... .. . ... : ... .. . ...
ROW 04 : ... .. . ... : ... .. . ... : ... .. . ... : ... .. . ... : ... .. . ...
ROW 05 : A#3 0B . ... : F-3 0B . ... : --- .. . ... : ... .. . ... : ... .. . ...
ROW 06 : ... .. . ... : ... .. . ... : ... .. . ... : ... .. . ... : ... .. . ...
ROW 07 : G-3 0B . ... : C-3 0B . ... : ... .. . ... : ... .. . ... : ... .. . ...
ROW 08 : ... .. . ... : ... .. . ... : ... .. . ... : ... .. . ... : D-3 00 . ...
ROW 09 : G-2 0B . ... : A#3 0B . ... : E-3 17 . ... : A-# 1B . ... : ... .. . ...
ROW 0A : ... .. . ... : ... .. . ... : ... .. . ... : ... .. . ... : ... .. . ...
ROW 0B : F-3 0B . ... : G-3 0B . ... : ... .. . ... : ... .. . ... : ... .. . ...
ROW 0C : ... .. . ... : ... .. . ... : ... .. . ... : ... .. . ... : ... .. . ...
ROW 0D : C-3 0B . ... : G-2 0B . ... : --- .. . ... : ... .. . ... : ... .. . ...
ROW 0E : ... .. . ... : ... .. . ... : ... .. . ... : ... .. . ... : ... .. . ...
ROW 0F : A#3 0B . ... : F-3 0B . ... : ... .. . ... : ... .. . ... : ... .. . ...
ROW 10 : ... .. . ... : ... .. . ... : ... .. . ... : ... .. . ... : C-3 00 . ...
ROW 11 : G-3 0B . ... : A#3 0B . ... : E-2 17 . ... : ... .. . ... : ... .. . ...
ROW 12 : ... .. . ... : ... .. . ... : ... .. . ... : ... .. . ... : ... .. . ...
ROW 13 : G-2 0B . ... : G-3 0B . ... : ... .. . ... : ... .. . ... : ... .. . ...
ROW 14 : ... .. . ... : ... .. . ... : ... .. . ... : ... .. . ... : ... .. . ...
ROW 15 : F-3 0B . ... : G-2 0B . ... : --- .. . ... : ... .. . ... : ... .. . ...
ROW 16 : ... .. . ... : ... .. . ... : ... .. . ... : ... .. . ... : ... .. . ...
ROW 17 : C-3 0B . ... : F-3 0B . ... : ... .. . ... : ... .. . ... : ... .. . ...
ROW 18 : ... .. . ... : ... .. . ... : ... .. . ... : ... .. . ... : D-3 00 . ...
ROW 19 : A#3 0B . ... : C-3 0B . ... : E-3 17 . ... : A-# 1B . ... : ... .. . ...
ROW 1A : ... .. . ... : ... .. . ... : ... .. . ... : ... .. . ... : ... .. . ...
ROW 1B : G-3 0B . ... : A#3 0B . ... : ... .. . ... : ... .. . ... : ... .. . ...
ROW 1C : ... .. . ... : ... .. . ... : ... .. . ... : ... .. . ... : ... .. . ...
ROW 1D : G-2 0B . ... : G-3 0B . ... : --- .. . ... : ... .. . ... : ... .. . ...
ROW 1E : ... .. . ... : ... .. . ... : ... .. . ... : ... .. . ... : ... .. . ...
ROW 1F : F-3 0B . ... : G-2 0B . ... : ... .. . ... : ... .. . ... : ... .. . ...
ROW 20 : ... .. . ... : ... .. . ... : ... .. . ... : ... .. . ... : C-3 00 . ...
ROW 21 : C-3 0B . ... : F-3 0B . ... : E-2 17 . ... : ... .. . ... : ... .. . ...
ROW 22 : ... .. . ... : ... .. . ... : ... .. . ... : ... .. . ... : ... .. . ...
ROW 23 : A#3 0B . ... : A#3 0B . ... : ... .. . ... : ... .. . ... : ... .. . ...
ROW 24 : ... .. . ... : ... .. . ... : ... .. . ... : ... .. . ... : ... .. . ...
ROW 25 : E-3 0B . ... : E-3 0B . ... : --- .. . ... : ... .. . ... : ... .. . ...
ROW 26 : ... .. . ... : ... .. . ... : ... .. . ... : ... .. . ... : ... .. . ...
ROW 27 : E-2 0B . ... : E-2 0B . ... : ... .. . ... : ... .. . ... : ... .. . ...
ROW 28 : ... .. . ... : ... .. . ... : ... .. . ... : ... .. . ... : D-3 00 . ...
ROW 29 : D-3 0B . ... : D-3 0B . ... : E-3 17 . ... : A-# 1B . ... : ... .. . ...
ROW 2A : ... .. . ... : ... .. . ... : ... .. . ... : ... .. . ... : ... .. . ...
ROW 2B : A-2 0B . ... : A-2 0B . ... : ... .. . ... : ... .. . ... : ... .. . ...
ROW 2C : ... .. . ... : ... .. . ... : ... .. . ... : ... .. . ... : ... .. . ...
ROW 2D : G-3 0B . ... : G-3 0B . ... : --- .. . ... : ... .. . ... : ... .. . ...
ROW 2E : ... .. . ... : ... .. . ... : ... .. . ... : ... .. . ... : ... .. . ...
ROW 2F : E-3 0B . ... : E-3 0B . ... : ... .. . ... : ... .. . ... : ... .. . ...
ROW 30 : ... .. . ... : ... .. . ... : ... .. . ... : ... .. . ... : C-3 00 . ...
ROW 31 : E-2 0B . ... : E-2 0B . ... : E-2 17 . ... : ... .. . ... : ... .. . ...
ROW 32 : ... .. . ... : ... .. . ... : ... .. . ... : ... .. . ... : ... .. . ...
ROW 33 : D-3 0B . ... : D-3 0B . ... : ... .. . ... : ... .. . ... : ... .. . ...
ROW 34 : ... .. . ... : ... .. . ... : ... .. . ... : ... .. . ... : ... .. . ...
ROW 35 : A-2 0B . ... : G-3 0B . ... : --- .. . ... : ... .. . ... : ... .. . ...
ROW 36 : ... .. . ... : ... .. . ... : ... .. . ... : ... .. . ... : ... .. . ...
ROW 37 : G-3 0B . ... : E-3 0B . ... : ... .. . ... : ... .. . ... : ... .. . ...
ROW 38 : ... .. . ... : ... .. . ... : ... .. . ... : ... .. . ... : D-3 00 . ...
ROW 39 : E-3 0B . ... : E-2 0B . ... : E-3 17 . ... : A-# 1B . ... : ... .. . ...
ROW 3A : ... .. . ... : ... .. . ... : ... .. . ... : ... .. . ... : ... .. . ...
ROW 3B : E-2 0B . ... : D-3 0B . ... : ... .. . ... : ... .. . ... : ... .. . ...
ROW 3C : ... .. . ... : ... .. . ... : ... .. . ... : ... .. . ... : ... .. . ...
ROW 3D : D-3 0B . ... : A-2 0B . ... : --- .. . ... : ... .. . ... : ... .. . ...
ROW 3E : ... .. . ... : ... .. . ... : ... .. . ... : ... .. . ... : ... .. . ...
ROW 3F : A-2 0B . ... : G-3 0B . ... : ... .. . ... : ... .. . ... : ... .. . ...
ROW 40 : ... .. . ... : ... .. . ... : ... .. . ... : ... .. . ... : C-3 00 . ...
ROW 41 : G-3 0B . ... : E-3 0B . ... : E-2 17 . ... : ... .. . ... : ... .. . ...
ROW 42 : ... .. . ... : ... .. . ... : ... .. . ... : ... .. . ... : ... .. . ...
ROW 43 : E-3 0B . ... : E-2 0B . ... : ... .. . ... : ... .. . ... : ... .. . ...
ROW 44 : ... .. . ... : ... .. . ... : ... .. . ... : ... .. . ... : ... .. . ...
ROW 45 : E-2 0B . ... : D-3 0B . ... : --- .. . ... : ... .. . ... : ... .. . ...
ROW 46 : ... .. . ... : ... .. . ... : ... .. . ... : ... .. . ... : ... .. . ...
ROW 47 : D-3 0B . ... : G-3 0B . ... : ... .. . ... : ... .. . ... : ... .. . ...
ROW 48 : ... .. . ... : ... .. . ... : ... .. . ... : ... .. . ... : D-3 00 . ...
ROW 49 : A-2 0B . ... : E-3 0B . ... : E-3 17 . ... : A-# 1B . ... : ... .. . ...
ROW 4A : ... .. . ... : ... .. . ... : ... .. . ... : ... .. . ... : ... .. . ...
ROW 4B : G-3 0B . ... : E-2 0B . ... : ... .. . ... : ... .. . ... : ... .. . ...
ROW 4C : ... .. . ... : ... .. . ... : ... .. . ... : ... .. . ... : ... .. . ...
ROW 4D : E-3 0B . ... : D-3 0B . ... : --- .. . ... : ... .. . ... : ... .. . ...
ROW 4E : ... .. . ... : ... .. . ... : ... .. . ... : ... .. . ... : ... .. . ...
ROW 4F : E-2 0B . ... : A-2 0B . ... : ... .. . ... : ... .. . ... : ... .. . ...
ROW 50 : ... .. . ... : ... .. . ... : ... .. . ... : ... .. . ... : D-3 00 . ...
ROW 51 : D-3 0B . ... : G-3 0B . ... : D-3 17 . ... : A-# 1B . ... : ... .. . ...
ROW 52 : ... .. . ... : ... .. . ... : ... .. . ... : ... .. . ... : E-3 00 . W09
ROW 53 : A-2 0B . ... : E-3 0B . ... : A-2 17 . ... : ... .. . ... : ... .. . ...
ROW 54 : ... .. . ... : ... .. . ... : ... .. . ... : ... .. . ... : D-3 00 . ...
ROW 55 : G-3 0B . ... : E-2 0B . ... : E-3 17 . ... : A-# 1B . ... : ... .. . ...
ROW 56 : ... .. . ... : ... .. . ... : ... .. . ... : ... .. . ... : D-3 00 . ...
ROW 57 : E-3 0B . ... : D-3 0B . ... : E-2 17 . ... : A-# 1B . ... : ... .. . ...

PATTERN 14
ROW 00 : ... .. . ... : ... .. . ... : ... .. . ... : ... .. . ... : C-3 00 . ...
ROW 01 : E-2 0B . ... : G-3 0B . ... : G-2 17 . ... : ... .. . ... : ... .. . ...
ROW 02 : ... .. . ... : ... .. . ... : ... .. . ... : ... .. . ... : ... .. . ...
ROW 03 : D-3 0B . ... : E-3 0B . ... : ... .. . ... : ... .. . ... : ... .. . ...
ROW 04 : ... .. . ... : ... .. . ... : ... .. . ... : ... .. . ... : ... .. . ...
ROW 05 : A-2 0B . ... : E-2 0B . ... : --- .. . ... : ... .. . ... : ... .. . ...
ROW 06 : ... .. . ... : ... .. . ... : ... .. . ... : ... .. . ... : ... .. . ...
ROW 07 : G-3 0B . ... : D-3 0B . ... : ... .. . ... : ... .. . ... : ... .. . ...
ROW 08 : ... .. . ... : ... .. . ... : ... .. . ... : ... .. . ... : D-3 00 . ...
ROW 09 : E-3 0B . ... : A-2 0B . ... : G-3 17 . ... : A-# 1B . ... : ... .. . ...
ROW 0A : ... .. . ... : ... .. . ... : ... .. . ... : ... .. . ... : ... .. . ...
ROW 0B : E-2 0B . ... : G-3 0B . ... : ... .. . ... : ... .. . ... : ... .. . ...
ROW 0C : ... .. . ... : ... .. . ... : ... .. . ... : ... .. . ... : ... .. . ...
ROW 0D : D-3 0B . ... : E-3 0B . ... : --- .. . ... : ... .. . ... : ... .. . ...
ROW 0E : ... .. . ... : ... .. . ... : ... .. . ... : ... .. . ... : ... .. . ...
ROW 0F : A-2 0B . ... : E-2 0B . ... : ... .. . ... : ... .. . ... : ... .. . ...
ROW 10 : ... .. . ... : ... .. . ... : ... .. . ... : ... .. . ... : C-3 00 . ...
ROW 11 : G-3 0B . ... : D-3 0B . ... : G-2 17 . ... : ... .. . ... : ... .. . ...
ROW 12 : ... .. . ... : ... .. . ... : ... .. . ... : ... .. . ... : ... .. . ...
ROW 13 : E-3 0B . ... : G-3 0B . ... : ... .. . ... : ... .. . ... : ... .. . ...
ROW 14 : ... .. . ... : ... .. . ... : ... .. . ... : ... .. . ... : ... .. . ...
ROW 15 : E-2 0B . ... : E-3 0B . ... : --- .. . ... : ... .. . ... : ... .. . ...
ROW 16 : ... .. . ... : ... .. . ... : ... .. . ... : ... .. . ... : ... .. . ...
ROW 17 : D-3 0B . ... : E-2 0B . ... : ... .. . ... : ... .. . ... : ... .. . ...
ROW 18 : ... .. . ... : ... .. . ... : ... .. . ... : ... .. . ... : D-3 00 . ...
ROW 19 : A-2 0B . ... : D-3 0B . ... : G-3 17 . ... : A-# 1B . ... : ... .. . ...
ROW 1A : ... .. . ... : ... .. . ... : ... .. . ... : ... .. . ... : ... .. . ...
ROW 1B : G-3 0B . ... : A-2 0B . ... : ... .. . ... : ... .. . ... : ... .. . ...
ROW 1C : ... .. . ... : ... .. . ... : ... .. . ... : ... .. . ... : ... .. . ...
ROW 1D : E-3 0B . ... : G-3 0B . ... : --- .. . ... : ... .. . ... : ... .. . ...
ROW 1E : ... .. . ... : ... .. . ... : ... .. . ... : ... .. . ... : ... .. . ...
ROW 1F : E-2 0B . ... : E-3 0B . ... : ... .. . ... : ... .. . ... : ... .. . ...
ROW 20 : ... .. . ... : ... .. . ... : ... .. . ... : ... .. . ... : C-3 00 . ...
ROW 21 : D-3 0B . ... : E-2 0B . ... : G-2 17 . ... : ... .. . ... : ... .. . ...
ROW 22 : ... .. . ... : ... .. . ... : ... .. . ... : ... .. . ... : ... .. . ...
ROW 23 : A-2 0B . ... : D-3 0B . ... : ... .. . ... : ... .. . ... : ... .. . ...
ROW 24 : ... .. . ... : ... .. . ... : ... .. . ... : ... .. . ... : ... .. . ...
ROW 25 : G-3 0B . ... : G-3 0B . ... : --- .. . ... : ... .. . ... : ... .. . ...
ROW 26 : ... .. . ... : ... .. . ... : ... .. . ... : ... .. . ... : ... .. . ...
ROW 27 : G-3 0B . ... : G-3 0B . ... : ... .. . ... : ... .. . ... : ... .. . ...
ROW 28 : ... .. . ... : ... .. . ... : ... .. . ... : ... .. . ... : D-3 00 . ...
ROW 29 : G-2 0B . ... : G-2 0B . ... : G-3 17 . ... : A-# 1B . ... : ... .. . ...
ROW 2A : ... .. . ... : ... .. . ... : ... .. . ... : ... .. . ... : ... .. . ...
ROW 2B : F-3 0B . ... : F-3 0B . ... : ... .. . ... : ... .. . ... : ... .. . ...
ROW 2C : ... .. . ... : ... .. . ... : ... .. . ... : ... .. . ... : ... .. . ...
ROW 2D : C-3 0B . ... : C-3 0B . ... : --- .. . ... : ... .. . ... : ... .. . ...
ROW 2E : ... .. . ... : ... .. . ... : ... .. . ... : ... .. . ... : ... .. . ...
ROW 2F : A#3 0B . ... : A#3 0B . ... : ... .. . ... : ... .. . ... : ... .. . ...
ROW 30 : ... .. . ... : ... .. . ... : ... .. . ... : ... .. . ... : C-3 00 . ...
ROW 31 : G-3 0B . ... : G-3 0B . ... : G-2 17 . ... : ... .. . ... : ... .. . ...
ROW 32 : ... .. . ... : ... .. . ... : ... .. . ... : ... .. . ... : ... .. . ...
ROW 33 : G-2 0B . ... : G-2 0B . ... : ... .. . ... : ... .. . ... : ... .. . ...
ROW 34 : ... .. . ... : ... .. . ... : ... .. . ... : ... .. . ... : ... .. . ...
ROW 35 : F-3 0B . ... : F-3 0B . ... : --- .. . ... : ... .. . ... : ... .. . ...
ROW 36 : ... .. . ... : ... .. . ... : ... .. . ... : ... .. . ... : ... .. . ...
ROW 37 : C-3 0B . ... : A#3 0B . ... : ... .. . ... : ... .. . ... : ... .. . ...
ROW 38 : ... .. . ... : ... .. . ... : ... .. . ... : ... .. . ... : D-3 00 . ...
ROW 39 : A#3 0B . ... : G-3 0B . ... : G-3 17 . ... : A-# 1B . ... : ... .. . ...
ROW 3A : ... .. . ... : ... .. . ... : ... .. . ... : ... .. . ... : ... .. . ...
ROW 3B : G-3 0B . ... : G-2 0B . ... : ... .. . ... : ... .. . ... : ... .. . ...
ROW 3C : ... .. . ... : ... .. . ... : ... .. . ... : ... .. . ... : ... .. . ...
ROW 3D : G-2 0B . ... : F-3 0B . ... : --- .. . ... : ... .. . ... : ... .. . ...
ROW 3E : ... .. . ... : ... .. . ... : ... .. . ... : ... .. . ... : ... .. . ...
ROW 3F : F-3 0B . ... : C-3 0B . ... : ... .. . ... : ... .. . ... : ... .. . ...
ROW 40 : ... .. . ... : ... .. . ... : ... .. . ... : ... .. . ... : C-3 00 . ...
ROW 41 : C-3 0B . ... : A#3 0B . ... : G-2 17 . ... : ... .. . ... : ... .. . ...
ROW 42 : ... .. . ... : ... .. . ... : ... .. . ... : ... .. . ... : ... .. . ...
ROW 43 : A#3 0B . ... : G-3 0B . ... : ... .. . ... : ... .. . ... : ... .. . ...
ROW 44 : ... .. . ... : ... .. . ... : ... .. . ... : ... .. . ... : ... .. . ...
ROW 45 : G-3 0B . ... : G-2 0B . ... : --- .. . ... : ... .. . ... : ... .. . ...
ROW 46 : ... .. . ... : ... .. . ... : ... .. . ... : ... .. . ... : ... .. . ...
ROW 47 : G-2 0B . ... : F-3 0B . ... : ... .. . ... : ... .. . ... : ... .. . ...
ROW 48 : ... .. . ... : ... .. . ... : ... .. . ... : ... .. . ... : D-3 00 . ...
ROW 49 : F-3 0B . ... : A#3 0B . ... : G-3 17 . ... : A-# 1B . ... : ... .. . ...
ROW 4A : ... .. . ... : ... .. . ... : ... .. . ... : ... .. . ... : ... .. . ...
ROW 4B : C-3 0B . ... : G-3 0B . ... : ... .. . ... : ... .. . ... : ... .. . ...
ROW 4C : ... .. . ... : ... .. . ... : ... .. . ... : ... .. . ... : ... .. . ...
ROW 4D : A#3 0B . ... : G-2 0B . ... : --- .. . ... : ... .. . ... : ... .. . ...
ROW 4E : ... .. . ... : ... .. . ... : ... .. . ... : ... .. . ... : ... .. . ...
ROW 4F : G-3 0B . ... : F-3 0B . ... : ... .. . ... : ... .. . ... : ... .. . ...
ROW 50 : ... .. . ... : ... .. . ... : ... .. . ... : ... .. . ... : D-3 00 . ...
ROW 51 : G-2 0B . ... : C-3 0B . ... : F-3 17 . ... : A-# 1B . ... : ... .. . ...
ROW 52 : ... .. . ... : ... .. . ... : ... .. . ... : ... .. . ... : E-3 00 . W09
ROW 53 : F-3 0B . ... : A#3 0B . ... : C-3 17 . ... : ... .. . ... : ... .. . ...
ROW 54 : ... .. . ... : ... .. . ... : ... .. . ... : ... .. . ... : D-3 00 . ...
ROW 55 : C-3 0B . ... : G-3 0B . ... : G-3 17 . ... : A-# 1B . ... : ... .. . ...
ROW 56 : ... .. . ... : ... .. . ... : ... .. . ... : ... .. . ... : D-3 00 . ...
ROW 57 : A#3 0B . ... : G-2 0B . ... : G-2 17 . ... : A-# 1B . ... : ... .. . ...

PATTERN 15
ROW 00 : ... .. . ... : ... .. . ... : ... .. . ... : ... .. . ... : C-3 00 . ...
ROW 01 : G-3 0B . ... : F-3 0B . ... : E-2 17 . ... : ... .. . ... : ... .. . ...
ROW 02 : ... .. . ... : ... .. . ... : ... .. . ... : ... .. . ... : ... .. . ...
ROW 03 : G-2 0B . ... : A#3 0B . ... : ... .. . ... : ... .. . ... : ... .. . ...
ROW 04 : ... .. . ... : ... .. . ... : ... .. . ... : ... .. . ... : ... .. . ...
ROW 05 : F-3 0B . ... : G-3 0B . ... : --- .. . ... : ... .. . ... : ... .. . ...
ROW 06 : ... .. . ... : ... .. . ... : ... .. . ... : ... .. . ... : ... .. . ...
ROW 07 : C-3 0B . ... : G-2 0B . ... : ... .. . ... : ... .. . ... : ... .. . ...
ROW 08 : ... .. . ... : ... .. . ... : ... .. . ... : ... .. . ... : D-3 00 . ...
ROW 09 : A#3 0B . ... : F-3 0B . ... : E-3 17 . ... : A-# 1B . ... : ... .. . ...
ROW 0A : ... .. . ... : ... .. . ... : ... .. . ... : ... .. . ... : ... .. . ...
ROW 0B : G-3 0B . ... : C-3 0B . ... : ... .. . ... : ... .. . ... : ... .. . ...
ROW 0C : ... .. . ... : ... .. . ... : ... .. . ... : ... .. . ... : ... .. . ...
ROW 0D : G-2 0B . ... : A#3 0B . ... : --- .. . ... : ... .. . ... : ... .. . ...
ROW 0E : ... .. . ... : ... .. . ... : ... .. . ... : ... .. . ... : ... .. . ...
ROW 0F : F-3 0B . ... : G-3 0B . ... : ... .. . ... : ... .. . ... : ... .. . ...
ROW 10 : ... .. . ... : ... .. . ... : ... .. . ... : ... .. . ... : C-3 00 . ...
ROW 11 : C-3 0B . ... : G-2 0B . ... : E-2 17 . ... : ... .. . ... : ... .. . ...
ROW 12 : ... .. . ... : ... .. . ... : ... .. . ... : ... .. . ... : ... .. . ...
ROW 13 : A#3 0B . ... : F-3 0B . ... : ... .. . ... : ... .. . ... : ... .. . ...
ROW 14 : ... .. . ... : ... .. . ... : ... .. . ... : ... .. . ... : ... .. . ...
ROW 15 : G-3 0B . ... : A#3 0B . ... : --- .. . ... : ... .. . ... : ... .. . ...
ROW 16 : ... .. . ... : ... .. . ... : ... .. . ... : ... .. . ... : ... .. . ...
ROW 17 : G-2 0B . ... : G-3 0B . ... : ... .. . ... : ... .. . ... : ... .. . ...
ROW 18 : ... .. . ... : ... .. . ... : ... .. . ... : ... .. . ... : D-3 00 . ...
ROW 19 : F-3 0B . ... : G-2 0B . ... : E-3 17 . ... : A-# 1B . ... : ... .. . ...
ROW 1A : ... .. . ... : ... .. . ... : ... .. . ... : ... .. . ... : ... .. . ...
ROW 1B : C-3 0B . ... : F-3 0B . ... : ... .. . ... : ... .. . ... : ... .. . ...
ROW 1C : ... .. . ... : ... .. . ... : ... .. . ... : ... .. . ... : ... .. . ...
ROW 1D : A#3 0B . ... : C-3 0B . ... : --- .. . ... : ... .. . ... : ... .. . ...
ROW 1E : ... .. . ... : ... .. . ... : ... .. . ... : ... .. . ... : ... .. . ...
ROW 1F : G-3 0B . ... : A#3 0B . ... : ... .. . ... : ... .. . ... : ... .. . ...
ROW 20 : ... .. . ... : ... .. . ... : ... .. . ... : ... .. . ... : C-3 00 . ...
ROW 21 : G-2 0B . ... : G-3 0B . ... : E-2 17 . ... : ... .. . ... : ... .. . ...
ROW 22 : ... .. . ... : ... .. . ... : ... .. . ... : ... .. . ... : ... .. . ...
ROW 23 : F-3 0B . ... : G-2 0B . ... : ... .. . ... : ... .. . ... : ... .. . ...
ROW 24 : ... .. . ... : ... .. . ... : ... .. . ... : ... .. . ... : ... .. . ...
ROW 25 : C-3 0B . ... : F-3 0B . ... : --- .. . ... : ... .. . ... : ... .. . ...
ROW 26 : ... .. . ... : ... .. . ... : ... .. . ... : ... .. . ... : ... .. . ...
ROW 27 : A#3 0B . ... : A#3 0B . ... : ... .. . ... : ... .. . ... : ... .. . ...
ROW 28 : ... .. . ... : ... .. . ... : ... .. . ... : ... .. . ... : D-3 00 . ...
ROW 29 : E-3 0B . ... : E-3 0B . ... : E-3 17 . ... : A-# 1B . ... : ... .. . ...
ROW 2A : ... .. . ... : ... .. . ... : ... .. . ... : ... .. . ... : ... .. . ...
ROW 2B : E-2 0B . ... : E-2 0B . ... : ... .. . ... : ... .. . ... : ... .. . ...
ROW 2C : ... .. . ... : ... .. . ... : ... .. . ... : ... .. . ... : ... .. . ...
ROW 2D : D-3 0B . ... : D-3 0B . ... : --- .. . ... : ... .. . ... : ... .. . ...
ROW 2E : ... .. . ... : ... .. . ... : ... .. . ... : ... .. . ... : ... .. . ...
ROW 2F : A-2 0B . ... : A-2 0B . ... : ... .. . ... : ... .. . ... : ... .. . ...
ROW 30 : ... .. . ... : ... .. . ... : ... .. . ... : ... .. . ... : C-3 00 . ...
ROW 31 : G-3 0B . ... : G-3 0B . ... : E-2 17 . ... : ... .. . ... : ... .. . ...
ROW 32 : ... .. . ... : ... .. . ... : ... .. . ... : ... .. . ... : ... .. . ...
ROW 33 : E-3 0B . ... : E-3 0B . ... : ... .. . ... : ... .. . ... : ... .. . ...
ROW 34 : ... .. . ... : ... .. . ... : ... .. . ... : ... .. . ... : ... .. . ...
ROW 35 : E-2 0B . ... : E-2 0B . ... : --- .. . ... : ... .. . ... : ... .. . ...
ROW 36 : ... .. . ... : ... .. . ... : ... .. . ... : ... .. . ... : ... .. . ...
ROW 37 : D-3 0B . ... : D-3 0B . ... : ... .. . ... : ... .. . ... : ... .. . ...
ROW 38 : ... .. . ... : ... .. . ... : ... .. . ... : ... .. . ... : D-3 00 . ...
ROW 39 : A-2 0B . ... : G-3 0B . ... : E-3 17 . ... : A-# 1B . ... : ... .. . ...
ROW 3A : ... .. . ... : ... .. . ... : ... .. . ... : ... .. . ... : ... .. . ...
ROW 3B : G-3 0B . ... : E-3 0B . ... : ... .. . ... : ... .. . ... : ... .. . ...
ROW 3C : ... .. . ... : ... .. . ... : ... .. . ... : ... .. . ... : ... .. . ...
ROW 3D : E-3 0B . ... : E-2 0B . ... : --- .. . ... : ... .. . ... : ... .. . ...
ROW 3E : ... .. . ... : ... .. . ... : ... .. . ... : ... .. . ... : ... .. . ...
ROW 3F : E-2 0B . ... : D-3 0B . ... : ... .. . ... : ... .. . ... : ... .. . ...
ROW 40 : ... .. . ... : ... .. . ... : ... .. . ... : ... .. . ... : C-3 00 . ...
ROW 41 : D-3 0B . ... : A-2 0B . ... : E-2 17 . ... : ... .. . ... : ... .. . ...
ROW 42 : ... .. . ... : ... .. . ... : ... .. . ... : ... .. . ... : ... .. . ...
ROW 43 : A-2 0B . ... : G-3 0B . ... : ... .. . ... : ... .. . ... : ... .. . ...
ROW 44 : ... .. . ... : ... .. . ... : ... .. . ... : ... .. . ... : ... .. . ...
ROW 45 : G-3 0B . ... : E-3 0B . ... : --- .. . ... : ... .. . ... : ... .. . ...
ROW 46 : ... .. . ... : ... .. . ... : ... .. . ... : ... .. . ... : ... .. . ...
ROW 47 : E-3 0B . ... : E-2 0B . ... : ... .. . ... : ... .. . ... : ... .. . ...
ROW 48 : ... .. . ... : ... .. . ... : ... .. . ... : ... .. . ... : D-3 00 . ...
ROW 49 : E-2 0B . ... : D-3 0B . ... : E-3 17 . ... : A-# 1B . ... : ... .. . ...
ROW 4A : ... .. . ... : ... .. . ... : ... .. . ... : ... .. . ... : ... .. . ...
ROW 4B : D-3 0B . ... : G-3 0B . ... : ... .. . ... : ... .. . ... : ... .. . ...
ROW 4C : ... .. . ... : ... .. . ... : ... .. . ... : ... .. . ... : ... .. . ...
ROW 4D : A-2 0B . ... : E-3 0B . ... : --- .. . ... : ... .. . ... : ... .. . ...
ROW 4E : ... .. . ... : ... .. . ... : ... .. . ... : ... .. . ... : ... .. . ...
ROW 4F : G-3 0B . ... : E-2 0B . ... : ... .. . ... : ... .. . ... : ... .. . ...
ROW 50 : ... .. . ... : ... .. . ... : ... .. . ... : ... .. . ... : D-3 00 . ...
ROW 51 : E-3 0B . ... : D-3 0B . ... : D-3 17 . ... : A-# 1B . ... : ... .. . ...
ROW 52 : ... .. . ... : ... .. . ... : ... .. . ... : ... .. . ... : E-3 00 . W09
ROW 53 : E-2 0B . ... : A-2 0B . ... : A-2 17 . ... : ... .. . ... : ... .. . ...
ROW 54 : ... .. . ... : ... .. . ... : ... .. . ... : ... .. . ... : D-3 00 . ...
ROW 55 : D-3 0B . ... : G-3 0B . ... : E-3 17 . ... : A-# 1B . ... : ... .. . ...
ROW 56 : ... .. . ... : ... .. . ... : ... .. . ... : ... .. . ... : D-3 00 . ...
ROW 57 : A-2 0B . ... : E-3 0B . ... : E-2 17 . ... : A-# 1B . ... : ... .. . ...

PATTERN 16
ROW 00 : ... .. . ... : ... .. . ... : ... .. . ... : ... .. . ... : C-3 00 . ...
ROW 01 : G-3 0B . ... : E-2 0B . ... : G-2 17 . ... : ... .. . ... : ... .. . ...
ROW 02 : ... .. . ... : ... .. . ... : ... .. . ... : ... .. . ... : ... .. . ...
ROW 03 : E-3 0B . ... : D-3 0B . ... : ... .. . ... : ... .. . ... : ... .. . ...
ROW 04 : ... .. . ... : ... .. . ... : ... .. . ... : ... .. . ... : ... .. . ...
ROW 05 : E-2 0B . ... : G-3 0B . ... : --- .. . ... : ... .. . ... : ... .. . ...
ROW 06 : ... .. . ... : ... .. . ... : ... .. . ... : ... .. . ... : ... .. . ...
ROW 07 : D-3 0B . ... : E-3 0B . ... : ... .. . ... : ... .. . ... : ... .. . ...
ROW 08 : ... .. . ... : ... .. . ... : ... .. . ... : ... .. . ... : D-3 00 . ...
ROW 09 : A-2 0B . ... : E-2 0B . ... : G-3 17 . ... : A-# 1B . ... : ... .. . ...
ROW 0A : ... .. . ... : ... .. . ... : ... .. . ... : ... .. . ... : ... .. . ...
ROW 0B : G-3 0B . ... : D-3 0B . ... : ... .. . ... : ... .. . ... : ... .. . ...
ROW 0C : ... .. . ... : ... .. . ... : ... .. . ... : ... .. . ... : ... .. . ...
ROW 0D : E-3 0B . ... : A-2 0B . ... : --- .. . ... : ... .. . ... : ... .. . ...
ROW 0E : ... .. . ... : ... .. . ... : ... .. . ... : ... .. . ... : ... .. . ...
ROW 0F : E-2 0B . ... : G-3 0B . ... : ... .. . ... : ... .. . ... : ... .. . ...
ROW 10 : ... .. . ... : ... .. . ... : ... .. . ... : ... .. . ... : C-3 00 . ...
ROW 11 : D-3 0B . ... : E-3 0B . ... : G-2 17 . ... : ... .. . ... : ... .. . ...
ROW 12 : ... .. . ... : ... .. . ... : ... .. . ... : ... .. . ... : ... .. . ...
ROW 13 : A-2 0B . ... : E-2 0B . ... : ... .. . ... : ... .. . ... : ... .. . ...
ROW 14 : ... .. . ... : ... .. . ... : ... .. . ... : ... .. . ... : ... .. . ...
ROW 15 : G-3 0B . ... : D-3 0B . ... : --- .. . ... : ... .. . ... : ... .. . ...
ROW 16 : ... .. . ... : ... .. . ... : ... .. . ... : ... .. . ... : ... .. . ...
ROW 17 : E-3 0B . ... : G-3 0B . ... : ... .. . ... : ... .. . ... : ... .. . ...
ROW 18 : ... .. . ... : ... .. . ... : ... .. . ... : ... .. . ... : D-3 00 . ...
ROW 19 : E-2 0B . ... : E-3 0B . ... : G-3 17 . ... : A-# 1B . ... : ... .. . ...
ROW 1A : ... .. . ... : ... .. . ... : ... .. . ... : ... .. . ... : ... .. . ...
ROW 1B : D-3 0B . ... : E-2 0B . ... : ... .. . ... : ... .. . ... : ... .. . ...
ROW 1C : ... .. . ... : ... .. . ... : ... .. . ... : ... .. . ... : ... .. . ...
ROW 1D : A-2 0B . ... : D-3 0B . ... : --- .. . ... : ... .. . ... : ... .. . ...
ROW 1E : ... .. . ... : ... .. . ... : ... .. . ... : ... .. . ... : ... .. . ...
ROW 1F : G-3 0B . ... : A-2 0B . ... : ... .. . ... : ... .. . ... : ... .. . ...
ROW 20 : ... .. . ... : ... .. . ... : ... .. . ... : ... .. . ... : C-3 00 . ...
ROW 21 : E-3 0B . ... : G-3 0B . ... : G-2 17 . ... : ... .. . ... : ... .. . ...
ROW 22 : ... .. . ... : ... .. . ... : ... .. . ... : ... .. . ... : ... .. . ...
ROW 23 : E-2 0B . ... : E-3 0B . ... : ... .. . ... : ... .. . ... : ... .. . ...
ROW 24 : ... .. . ... : ... .. . ... : ... .. . ... : ... .. . ... : ... .. . ...
ROW 25 : D-3 0B . ... : E-2 0B . ... : --- .. . ... : ... .. . ... : ... .. . ...
ROW 26 : ... .. . ... : ... .. . ... : ... .. . ... : ... .. . ... : ... .. . ...
ROW 27 : A-2 0B . ... : D-3 0B . ... : ... .. . ... : ... .. . ... : ... .. . ...
ROW 28 : ... .. . ... : ... .. . ... : ... .. . ... : ... .. . ... : D-3 00 . ...
ROW 29 : G-3 0B . ... : G-3 0B . ... : G-3 17 . ... : A-# 1B . ... : ... .. . ...
ROW 2A : ... .. . ... : ... .. . ... : ... .. . ... : ... .. . ... : ... .. . ...
ROW 2B : G-3 0B . ... : G-3 0B . ... : ... .. . ... : ... .. . ... : ... .. . ...
ROW 2C : ... .. . ... : ... .. . ... : ... .. . ... : ... .. . ... : ... .. . ...
ROW 2D : G-2 0B . ... : G-2 0B . ... : --- .. . ... : ... .. . ... : ... .. . ...
ROW 2E : ... .. . ... : ... .. . ... : ... .. . ... : ... .. . ... : ... .. . ...
ROW 2F : F-3 0B . ... : F-3 0B . ... : ... .. . ... : ... .. . ... : ... .. . ...
ROW 30 : ... .. . ... : ... .. . ... : ... .. . ... : ... .. . ... : C-3 00 . ...
ROW 31 : C-3 0B . ... : C-3 0B . ... : G-2 17 . ... : ... .. . ... : ... .. . ...
ROW 32 : ... .. . ... : ... .. . ... : ... .. . ... : ... .. . ... : ... .. . ...
ROW 33 : A#3 0B . ... : A#3 0B . ... : ... .. . ... : ... .. . ... : ... .. . ...
ROW 34 : ... .. . ... : ... .. . ... : ... .. . ... : ... .. . ... : ... .. . ...
ROW 35 : G-3 0B . ... : G-3 0B . ... : --- .. . ... : ... .. . ... : ... .. . ...
ROW 36 : ... .. . ... : ... .. . ... : ... .. . ... : ... .. . ... : ... .. . ...
ROW 37 : G-2 0B . ... : G-2 0B . ... : ... .. . ... : ... .. . ... : ... .. . ...
ROW 38 : ... .. . ... : ... .. . ... : ... .. . ... : ... .. . ... : D-3 00 . ...
ROW 39 : F-3 0B . ... : F-3 0B . ... : G-3 17 . ... : A-# 1B . ... : ... .. . ...
ROW 3A : ... .. . ... : ... .. . ... : ... .. . ... : ... .. . ... : ... .. . ...
ROW 3B : C-3 0B . ... : A#3 0B . ... : ... .. . ... : ... .. . ... : ... .. . ...
ROW 3C : ... .. . ... : ... .. . ... : ... .. . ... : ... .. . ... : ... .. . ...
ROW 3D : A#3 0B . ... : G-3 0B . ... : --- .. . ... : ... .. . ... : ... .. . ...
ROW 3E : ... .. . ... : ... .. . ... : ... .. . ... : ... .. . ... : ... .. . ...
ROW 3F : G-3 0B . ... : G-2 0B . ... : ... .. . ... : ... .. . ... : ... .. . ...
ROW 40 : ... .. . ... : ... .. . ... : ... .. . ... : ... .. . ... : C-3 00 . ...
ROW 41 : G-2 0B . ... : F-3 0B . ... : G-2 17 . ... : ... .. . ... : ... .. . ...
ROW 42 : ... .. . ... : ... .. . ... : ... .. . ... : ... .. . ... : ... .. . ...
ROW 43 : F-3 0B . ... : C-3 0B . ... : ... .. . ... : ... .. . ... : ... .. . ...
ROW 44 : ... .. . ... : ... .. . ... : ... .. . ... : ... .. . ... : ... .. . ...
ROW 45 : C-3 0B . ... : A#3 0B . ... : --- .. . ... : ... .. . ... : ... .. . ...
ROW 46 : ... .. . ... : ... .. . ... : ... .. . ... : ... .. . ... : ... .. . ...
ROW 47 : A#3 0B . ... : G-3 0B . ... : ... .. . ... : ... .. . ... : ... .. . ...
ROW 48 : ... .. . ... : ... .. . ... : ... .. . ... : ... .. . ... : D-3 00 . ...
ROW 49 : G-3 0B . ... : G-2 0B . ... : G-3 17 . ... : A-# 1B . ... : ... .. . ...
ROW 4A : ... .. . ... : ... .. . ... : ... .. . ... : ... .. . ... : ... .. . ...
ROW 4B : G-2 0B . ... : F-3 0B . ... : ... .. . ... : ... .. . ... : ... .. . ...
ROW 4C : ... .. . ... : ... .. . ... : ... .. . ... : ... .. . ... : ... .. . ...
ROW 4D : F-3 0B . ... : A#3 0B . ... : --- .. . ... : ... .. . ... : ... .. . ...
ROW 4E : ... .. . ... : ... .. . ... : ... .. . ... : ... .. . ... : ... .. . ...
ROW 4F : C-3 0B . ... : G-3 0B . ... : ... .. . ... : ... .. . ... : ... .. . ...
ROW 50 : ... .. . ... : ... .. . ... : ... .. . ... : ... .. . ... : D-3 00 . ...
ROW 51 : A#3 0B . ... : G-2 0B . ... : F-3 17 . ... : A-# 1B . ... : ... .. . ...
ROW 52 : ... .. . ... : ... .. . ... : ... .. . ... : ... .. . ... : E-3 00 . W09
ROW 53 : G-3 0B . ... : F-3 0B . ... : C-3 17 . ... : ... .. . ... : ... .. . ...
ROW 54 : ... .. . ... : ... .. . ... : ... .. . ... : ... .. . ... : D-3 00 . ...
ROW 55 : G-2 0B . ... : C-3 0B . ... : G-3 17 . ... : A-# 1B . ... : ... .. . ...
ROW 56 : ... .. . ... : ... .. . ... : ... .. . ... : ... .. . ... : D-3 00 . ...
ROW 57 : F-3 0B . ... : A#3 0B . ... : G-2 17 . ... : A-# 1B . ... : ... .. . ...

PATTERN 17
ROW 00 : ... .. . ... : ... .. . ... : ... .. . ... : ... .. . ... : C-3 00 . ...
ROW 01 : C-3 0B . ... : G-3 0B . ... : E-2 17 . ... : ... .. . ... : ... .. . ...
ROW 02 : ... .. . ... : ... .. . ... : ... .. . ... : ... .. . ... : ... .. . ...
ROW 03 : A#3 0B . ... : G-2 0B . ... : ... .. . ... : ... .. . ... : ... .. . ...
ROW 04 : ... .. . ... : ... .. . ... : ... .. . ... : ... .. . ... : ... .. . ...
ROW 05 : G-3 0B . ... : F-3 0B . ... : --- .. . ... : ... .. . ... : ... .. . ...
ROW 06 : ... .. . ... : ... .. . ... : ... .. . ... : ... .. . ... : ... .. . ...
ROW 07 : G-2 0B . ... : A#3 0B . ... : ... .. . ... : ... .. . ... : ... .. . ...
ROW 08 : ... .. . ... : ... .. . ... : ... .. . ... : ... .. . ... : D-3 00 . ...
ROW 09 : F-3 0B . ... : G-3 0B . ... : E-3 17 . ... : A-# 1B . ... : ... .. . ...
ROW 0A : ... .. . ... : ... .. . ... : ... .. . ... : ... .. . ... : ... .. . ...
ROW 0B : C-3 0B . ... : G-2 0B . ... : ... .. . ... : ... .. . ... : ... .. . ...
ROW 0C : ... .. . ... : ... .. . ... : ... .. . ... : ... .. . ... : ... .. . ...
ROW 0D : A#3 0B . ... : F-3 0B . ... : --- .. . ... : ... .. . ... : ... .. . ...
ROW 0E : ... .. . ... : ... .. . ... : ... .. . ... : ... .. . ... : ... .. . ...
ROW 0F : G-3 0B . ... : C-3 0B . ... : ... .. . ... : ... .. . ... : ... .. . ...
ROW 10 : ... .. . ... : ... .. . ... : ... .. . ... : ... .. . ... : C-3 00 . ...
ROW 11 : G-2 0B . ... : A#3 0B . ... : E-2 17 . ... : ... .. . ... : ... .. . ...
ROW 12 : ... .. . ... : ... .. . ... : ... .. . ... : ... .. . ... : ... .. . ...
ROW 13 : F-3 0B . ... : G-3 0B . ... : ... .. . ... : ... .. . ... : ... .. . ...
ROW 14 : ... .. . ... : ... .. . ... : ... .. . ... : ... .. . ... : ... .. . ...
ROW 15 : C-3 0B . ... : G-2 0B . ... : --- .. . ... : ... .. . ... : ... .. . ...
ROW 16 : ... .. . ... : ... .. . ... : ... .. . ... : ... .. . ... : ... .. . ...
ROW 17 : A#3 0B . ... : F-3 0B . ... : ... .. . ... : ... .. . ... : ... .. . ...
ROW 18 : ... .. . ... : ... .. . ... : ... .. . ... : ... .. . ... : D-3 00 . ...
ROW 19 : G-3 0B . ... : A#3 0B . ... : E-3 17 . ... : A-# 1B . ... : ... .. . ...
ROW 1A : ... .. . ... : ... .. . ... : ... .. . ... : ... .. . ... : ... .. . ...
ROW 1B : G-2 0B . ... : G-3 0B . ... : ... .. . ... : ... .. . ... : ... .. . ...
ROW 1C : ... .. . ... : ... .. . ... : ... .. . ... : ... .. . ... : ... .. . ...
ROW 1D : F-3 0B . ... : G-2 0B . ... : --- .. . ... : ... .. . ... : ... .. . ...
ROW 1E : ... .. . ... : ... .. . ... : ... .. . ... : ... .. . ... : ... .. . ...
ROW 1F : C-3 0B . ... : F-3 0B . ... : ... .. . ... : ... .. . ... : ... .. . ...
ROW 20 : ... .. . ... : ... .. . ... : ... .. . ... : ... .. . ... : C-3 00 . ...
ROW 21 : A#3 0B . ... : C-3 0B . ... : E-2 17 . ... : ... .. . ... : ... .. . ...
ROW 22 : ... .. . ... : ... .. . ... : ... .. . ... : ... .. . ... : ... .. . ...
ROW 23 : G-3 0B . ... : A#3 0B . ... : ... .. . ... : ... .. . ... : ... .. . ...
ROW 24 : ... .. . ... : ... .. . ... : ... .. . ... : ... .. . ... : ... .. . ...
ROW 25 : G-2 0B . ... : G-3 0B . ... : --- .. . ... : ... .. . ... : ... .. . ...
ROW 26 : ... .. . ... : ... .. . ... : ... .. . ... : ... .. . ... : ... .. . ...
ROW 27 : F-3 0B . ... : G-2 0B . ... : ... .. . ... : ... .. . ... : ... .. . ...
ROW 28 : ... .. . ... : ... .. . ... : ... .. . ... : ... .. . ... : D-3 00 . ...
ROW 29 : C-3 0B . ... : F-3 0B . ... : E-3 17 . ... : A-# 1B . ... : ... .. . ...
ROW 2A : ... .. . ... : ... .. . ... : ... .. . ... : ... .. . ... : ... .. . ...
ROW 2B : A#3 0B . ... : A#3 0B . ... : ... .. . ... : ... .. . ... : ... .. . ...
ROW 2C : ... .. . ... : ... .. . ... : ... .. . ... : ... .. . ... : ... .. . ...
ROW 2D : E-3 0B . ... : E-3 0B . ... : --- .. . ... : ... .. . ... : ... .. . ...
ROW 2E : ... .. . ... : ... .. . ... : ... .. . ... : ... .. . ... : ... .. . ...
ROW 2F : E-2 0B . ... : E-2 0B . ... : ... .. . ... : ... .. . ... : ... .. . ...
ROW 30 : ... .. . ... : ... .. . ... : ... .. . ... : ... .. . ... : C-3 00 . ...
ROW 31 : D-3 0B . ... : D-3 0B . ... : E-2 17 . ... : ... .. . ... : ... .. . ...
ROW 32 : ... .. . ... : ... .. . ... : ... .. . ... : ... .. . ... : ... .. . ...
ROW 33 : A-2 0B . ... : A-2 0B . ... : ... .. . ... : ... .. . ... : ... .. . ...
ROW 34 : ... .. . ... : ... .. . ... : ... .. . ... : ... .. . ... : ... .. . ...
ROW 35 : G-3 0B . ... : G-3 0B . ... : --- .. . ... : ... .. . ... : ... .. . ...
ROW 36 : ... .. . ... : ... .. . ... : ... .. . ... : ... .. . ... : ... .. . ...
ROW 37 : E-3 0B . ... : E-3 0B . ... : ... .. . ... : ... .. . ... : ... .. . ...
ROW 38 : ... .. . ... : ... .. . ... : ... .. . ... : ... .. . ... : D-3 00 . ...
ROW 39 : E-2 0B . ... : E-2 0B . ... : E-3 17 . ... : A-# 1B . ... : ... .. . ...
ROW 3A : ... .. . ... : ... .. . ... : ... .. . ... : ... .. . ... : ... .. . ...
ROW 3B : D-3 0B . ... : D-3 0B . ... : ... .. . ... : ... .. . ... : ... .. . ...
ROW 3C : ... .. . ... : ... .. . ... : ... .. . ... : ... .. . ... : ... .. . ...
ROW 3D : A-2 0B . ... : G-3 0B . ... : --- .. . ... : ... .. . ... : ... .. . ...
ROW 3E : ... .. . ... : ... .. . ... : ... .. . ... : ... .. . ... : ... .. . ...
ROW 3F : G-3 0B . ... : E-3 0B . ... : ... .. . ... : ... .. . ... : ... .. . ...
ROW 40 : ... .. . ... : ... .. . ... : ... .. . ... : ... .. . ... : C-3 00 . ...
ROW 41 : E-3 0B . ... : E-2 0B . ... : E-2 17 . ... : ... .. . ... : ... .. . ...
ROW 42 : ... .. . ... : ... .. . ... : ... .. . ... : ... .. . ... : ... .. . ...
ROW 43 : E-2 0B . ... : D-3 0B . ... : ... .. . ... : ... .. . ... : ... .. . ...
ROW 44 : ... .. . ... : ... .. . ... : ... .. . ... : ... .. . ... : ... .. . ...
ROW 45 : D-3 0B . ... : A-2 0B . ... : --- .. . ... : ... .. . ... : ... .. . ...
ROW 46 : ... .. . ... : ... .. . ... : ... .. . ... : ... .. . ... : ... .. . ...
ROW 47 : A-2 0B . ... : G-3 0B . ... : ... .. . ... : ... .. . ... : ... .. . ...
ROW 48 : ... .. . ... : ... .. . ... : ... .. . ... : ... .. . ... : D-3 00 . ...
ROW 49 : G-3 0B . ... : E-3 0B . ... : E-3 17 . ... : A-# 1B . ... : ... .. . ...
ROW 4A : ... .. . ... : ... .. . ... : ... .. . ... : ... .. . ... : ... .. . ...
ROW 4B : E-3 0B . ... : E-2 0B . ... : ... .. . ... : ... .. . ... : ... .. . ...
ROW 4C : ... .. . ... : ... .. . ... : ... .. . ... : ... .. . ... : ... .. . ...
ROW 4D : E-2 0B . ... : D-3 0B . ... : --- .. . ... : ... .. . ... : ... .. . ...
ROW 4E : ... .. . ... : ... .. . ... : ... .. . ... : ... .. . ... : ... .. . ...
ROW 4F : D-3 0B . ... : G-3 0B . ... : ... .. . ... : ... .. . ... : ... .. . ...
ROW 50 : ... .. . ... : ... .. . ... : ... .. . ... : ... .. . ... : D-3 00 . ...
ROW 51 : A-2 0B . ... : E-3 0B . ... : D-3 17 . ... : A-# 1B . ... : ... .. . ...
ROW 52 : ... .. . ... : ... .. . ... : ... .. . ... : ... .. . ... : E-3 00 . W09
ROW 53 : G-3 0B . ... : E-2 0B . ... : A-2 17 . ... : ... .. . ... : ... .. . ...
ROW 54 : ... .. . ... : ... .. . ... : ... .. . ... : ... .. . ... : D-3 00 . ...
ROW 55 : E-3 0B . ... : D-3 0B . ... : E-3 17 . ... : A-# 1B . ... : ... .. . ...
ROW 56 : ... .. . ... : ... .. . ... : ... .. . ... : ... .. . ... : D-3 00 . ...
ROW 57 : E-2 0B . ... : A-2 0B . ... : E-2 17 . ... : A-# 1B . ... : ... .. . ...

PATTERN 18
ROW 00 : ... .. . ... : ... .. . ... : ... .. . ... : ... .. . ... : C-3 00 . ...
ROW 01 : D-3 0B . ... : G-3 0B . ... : G-2 17 . ... : ... .. . ... : ... .. . ...
ROW 02 : ... .. . ... : ... .. . ... : ... .. . ... : ... .. . ... : ... .. . ...
ROW 03 : A-2 0B . ... : E-3 0B . ... : ... .. . ... : ... .. . ... : ... .. . ...
ROW 04 : ... .. . ... : ... .. . ... : ... .. . ... : ... .. . ... : ... .. . ...
ROW 05 : G-3 0B . ... : E-2 0B . ... : --- .. . ... : ... .. . ... : ... .. . ...
ROW 06 : ... .. . ... : ... .. . ... : ... .. . ... : ... .. . ... : ... .. . ...
ROW 07 : E-3 0B . ... : D-3 0B . ... : ... .. . ... : ... .. . ... : ... .. . ...
ROW 08 : ... .. . ... : ... .. . ... : ... .. . ... : ... .. . ... : D-3 00 . ...
ROW 09 : E-2 0B . ... : G-3 0B . ... : G-3 17 . ... : A-# 1B . ... : ... .. . ...
ROW 0A : ... .. . ... : ... .. . ... : ... .. . ... : ... .. . ... : ... .. . ...
ROW 0B : D-3 0B . ... : E-3 0B . ... : ... .. . ... : ... .. . ... : ... .. . ...
ROW 0C : ... .. . ... : ... .. . ... : ... .. . ... : ... .. . ... : ... .. . ...
ROW 0D : A-2 0B . ... : E-2 0B . ... : --- .. . ... : ... .. . ... : ... .. . ...
ROW 0E : ... .. . ... : ... .. . ... : ... .. . ... : ... .. . ... : ... .. . ...
ROW 0F : G-3 0B . ... : D-3 0B . ... : ... .. . ... : ... .. . ... : ... .. . ...
ROW 10 : ... .. . ... : ... .. . ... : ... .. . ... : ... .. . ... : C-3 00 . ...
ROW 11 : E-3 0B . ... : A-2 0B . ... : G-2 17 . ... : ... .. . ... : ... .. . ...
ROW 12 : ... .. . ... : ... .. . ... : ... .. . ... : ... .. . ... : ... .. . ...
ROW 13 : E-2 0B . ... : G-3 0B . ... : ... .. . ... : ... .. . ... : ... .. . ...
ROW 14 : ... .. . ... : ... .. . ... : ... .. . ... : ... .. . ... : ... .. . ...
ROW 15 : D-3 0B . ... : E-3 0B . ... : --- .. . ... : ... .. . ... : ... .. . ...
ROW 16 : ... .. . ... : ... .. . ... : ... .. . ... : ... .. . ... : ... .. . ...
ROW 17 : A-2 0B . ... : E-2 0B . ... : ... .. . ... : ... .. . ... : ... .. . ...
ROW 18 : ... .. . ... : ... .. . ... : ... .. . ... : ... .. . ... : D-3 00 . ...
ROW 19 : G-3 0B . ... : D-3 0B . ... : G-3 17 . ... : A-# 1B . ... : ... .. . ...
ROW 1A : ... .. . ... : ... .. . ... : ... .. . ... : ... .. . ... : ... .. . ...
ROW 1B : E-3 0B . ... : G-3 0B . ... : ... .. . ... : ... .. . ... : ... .. . ...
ROW 1C : ... .. . ... : ... .. . ... : ... .. . ... : ... .. . ... : ... .. . ...
ROW 1D : E-2 0B . ... : E-3 0B . ... : --- .. . ... : ... .. . ... : ... .. . ...
ROW 1E : ... .. . ... : ... .. . ... : ... .. . ... : ... .. . ... : ... .. . ...
ROW 1F : D-3 0B . ... : E-2 0B . ... : ... .. . ... : ... .. . ... : ... .. . ...
ROW 20 : ... .. . ... : ... .. . ... : ... .. . ... : ... .. . ... : C-3 00 . ...
ROW 21 : A-2 0B . ... : D-3 0B . ... : G-2 17 . ... : ... .. . ... : ... .. . ...
ROW 22 : ... .. . ... : ... .. . ... : ... .. . ... : ... .. . ... : ... .. . ...
ROW 23 : G-3 0B . ... : A-2 0B . ... : ... .. . ... : ... .. . ... : ... .. . ...
ROW 24 : ... .. . ... : ... .. . ... : ... .. . ... : ... .. . ... : ... .. . ...
ROW 25 : E-3 0B . ... : G-3 0B . ... : --- .. . ... : ... .. . ... : ... .. . ...
ROW 26 : ... .. . ... : ... .. . ... : ... .. . ... : ... .. . ... : ... .. . ...
ROW 27 : E-2 0B . ... : E-3 0B . ... : ... .. . ... : ... .. . ... : ... .. . ...
ROW 28 : ... .. . ... : ... .. . ... : ... .. . ... : ... .. . ... : D-3 00 . ...
ROW 29 : D-3 0B . ... : E-2 0B . ... : G-3 17 . ... : A-# 1B . ... : ... .. . ...
ROW 2A : ... .. . ... : ... .. . ... : ... .. . ... : ... .. . ... : ... .. . ...
ROW 2B : A-2 0B . ... : D-3 0B . ... : ... .. . ... : ... .. . ... : ... .. . ...
ROW 2C : ... .. . ... : ... .. . ... : ... .. . ... : ... .. . ... : ... .. . ...
ROW 2D : G-3 0B . ... : G-3 0B . ... : --- .. . ... : ... .. . ... : ... .. . ...
ROW 2E : ... .. . ... : ... .. . ... : ... .. . ... : ... .. . ... : ... .. . ...
ROW 2F : G-3 0B . ... : G-3 0B . ... : ... .. . ... : ... .. . ... : ... .. . ...
ROW 30 : ... .. . ... : ... .. . ... : ... .. . ... : ... .. . ... : C-3 00 . ...
ROW 31 : G-2 0B . ... : G-2 0B . ... : G-2 17 . ... : ... .. . ... : ... .. . ...
ROW 32 : ... .. . ... : ... .. . ... : ... .. . ... : ... .. . ... : ... .. . ...
ROW 33 : F-3 0B . ... : F-3 0B . ... : ... .. . ... : ... .. . ... : ... .. . ...
ROW 34 : ... .. . ... : ... .. . ... : ... .. . ... : ... .. . ... : ... .. . ...
ROW 35 : C-3 0B . ... : C-3 0B . ... : --- .. . ... : ... .. . ... : ... .. . ...
ROW 36 : ... .. . ... : ... .. . ... : ... .. . ... : ... .. . ... : ... .. . ...
ROW 37 : A#3 0B . ... : A#3 0B . ... : ... .. . ... : ... .. . ... : ... .. . ...
ROW 38 : ... .. . ... : ... .. . ... : ... .. . ... : ... .. . ... : D-3 00 . ...
ROW 39 : G-3 0B . ... : G-3 0B . ... : G-3 17 . ... : A-# 1B . ... : ... .. . ...
ROW 3A : ... .. . ... : ... .. . ... : ... .. . ... : ... .. . ... : ... .. . ...
ROW 3B : G-2 0B . ... : G-2 0B . ... : ... .. . ... : ... .. . ... : ... .. . ...
ROW 3C : ... .. . ... : ... .. . ... : ... .. . ... : ... .. . ... : ... .. . ...
ROW 3D : F-3 0B . ... : F-3 0B . ... : --- .. . ... : ... .. . ... : ... .. . ...
ROW 3E : ... .. . ... : ... .. . ... : ... .. . ... : ... .. . ... : ... .. . ...
ROW 3F : C-3 0B . ... : A#3 0B . ... : ... .. . ... : ... .. . ... : ... .. . ...
ROW 40 : ... .. . ... : ... .. . ... : ... .. . ... : ... .. . ... : C-3 00 . ...
ROW 41 : A#3 0B . ... : G-3 0B . ... : G-2 17 . ... : ... .. . ... : ... .. . ...
ROW 42 : ... .. . ... : ... .. . ... : ... .. . ... : ... .. . ... : ... .. . ...
ROW 43 : G-3 0B . ... : G-2 0B . ... : ... .. . ... : ... .. . ... : ... .. . ...
ROW 44 : ... .. . ... : ... .. . ... : ... .. . ... : ... .. . ... : ... .. . ...
ROW 45 : G-2 0B . ... : F-3 0B . ... : --- .. . ... : ... .. . ... : ... .. . ...
ROW 46 : ... .. . ... : ... .. . ... : ... .. . ... : ... .. . ... : ... .. . ...
ROW 47 : F-3 0B . ... : C-3 0B . ... : ... .. . ... : ... .. . ... : ... .. . ...
ROW 48 : ... .. . ... : ... .. . ... : ... .. . ... : ... .. . ... : D-3 00 . ...
ROW 49 : C-3 0B . ... : A#3 0B . ... : G-3 17 . ... : A-# 1B . ... : ... .. . ...
ROW 4A : ... .. . ... : ... .. . ... : ... .. . ... : ... .. . ... : ... .. . ...
ROW 4B : A#3 0B . ... : G-3 0B . ... : ... .. . ... : ... .. . ... : ... .. . ...
ROW 4C : ... .. . ... : ... .. . ... : ... .. . ... : ... .. . ... : ... .. . ...
ROW 4D : G-3 0B . ... : G-2 0B . ... : --- .. . ... : ... .. . ... : ... .. . ...
ROW 4E : ... .. . ... : ... .. . ... : ... .. . ... : ... .. . ... : ... .. . ...
ROW 4F : G-2 0B . ... : F-3 0B . ... : ... .. . ... : ... .. . ... : ... .. . ...
ROW 50 : ... .. . ... : ... .. . ... : ... .. . ... : ... .. . ... : D-3 00 . ...
ROW 51 : F-3 0B . ... : A#3 0B . ... : F-3 17 . ... : A-# 1B . ... : ... .. . ...
ROW 52 : ... .. . ... : ... .. . ... : ... .. . ... : ... .. . ... : E-3 00 . W09
ROW 53 : C-3 0B . ... : G-3 0B . ... : C-3 17 . ... : ... .. . ... : ... .. . ...
ROW 54 : ... .. . ... : ... .. . ... : ... .. . ... : ... .. . ... : D-3 00 . ...
ROW 55 : A#3 0B . ... : G-2 0B . ... : G-3 17 . ... : A-# 1B . ... : ... .. . ...
ROW 56 : ... .. . ... : ... .. . ... : ... .. . ... : ... .. . ... : D-3 00 . ...
ROW 57 : G-3 0B . ... : F-3 0B . ... : G-2 17 . ... : A-# 1B . ... : ... .. . ...

PATTERN 19
ROW 00 : ... .. . ... : ... .. . ... : ... .. . ... : ... .. . ... : C-3 00 . ...
ROW 01 : G-2 0B . ... : C-3 0B . ... : E-2 17 . ... : ... .. . ... : ... .. . ...
ROW 02 : ... .. . ... : ... .. . ... : ... .. . ... : ... .. . ... : ... .. . ...
ROW 03 : F-3 0B . ... : A#3 0B . ... : ... .. . ... : ... .. . ... : ... .. . ...
ROW 04 : ... .. . ... : ... .. . ... : ... .. . ... : ... .. . ... : ... .. . ...
ROW 05 : C-3 0B . ... : G-3 0B . ... : --- .. . ... : ... .. . ... : ... .. . ...
ROW 06 : ... .. . ... : ... .. . ... : ... .. . ... : ... .. . ... : ... .. . ...
ROW 07 : A#3 0B . ... : G-2 0B . ... : ... .. . ... : ... .. . ... : ... .. . ...
ROW 08 : ... .. . ... : ... .. . ... : ... .. . ... : ... .. . ... : D-3 00 . ...
ROW 09 : G-3 0B . ... : F-3 0B . ... : E-3 17 . ... : A-# 1B . ... : ... .. . ...
ROW 0A : ... .. . ... : ... .. . ... : ... .. . ... : ... .. . ... : ... .. . ...
ROW 0B : G-2 0B . ... : A#3 0B . ... : ... .. . ... : ... .. . ... : ... .. . ...
ROW 0C : ... .. . ... : ... .. . ... : ... .. . ... : ... .. . ... : ... .. . ...
ROW 0D : F-3 0B . ... : G-3 0B . ... : --- .. . ... : ... .. . ... : ... .. . ...
ROW 0E : ... .. . ... : ... .. . ... : ... .. . ... : ... .. . ... : ... .. . ...
ROW 0F : C-3 0B . ... : G-2 0B . ... : ... .. . ... : ... .. . ... : ... .. . ...
ROW 10 : ... .. . ... : ... .. . ... : ... .. . ... : ... .. . ... : C-3 00 . ...
ROW 11 : A#3 0B . ... : F-3 0B . ... : E-2 17 . ... : ... .. . ... : ... .. . ...
ROW 12 : ... .. . ... : ... .. . ... : ... .. . ... : ... .. . ... : ... .. . ...
ROW 13 : G-3 0B . ... : C-3 0B . ... : ... .. . ... : ... .. . ... : ... .. . ...
ROW 14 : ... .. . ... : ... .. . ... : ... .. . ... : ... .. . ... : ... .. . ...
ROW 15 : G-2 0B . ... : A#3 0B . ... : --- .. . ... : ... .. . ... : ... .. . ...
ROW 16 : ... .. . ... : ... .. . ... : ... .. . ... : ... .. . ... : ... .. . ...
ROW 17 : F-3 0B . ... : G-3 0B . ... : ... .. . ... : ... .. . ... : ... .. . ...
ROW 18 : ... .. . ... : ... .. . ... : ... .. . ... : ... .. . ... : D-3 00 . ...
ROW 19 : C-3 0B . ... : G-2 0B . ... : E-3 17 . ... : A-# 1B . ... : ... .. . ...
ROW 1A : ... .. . ... : ... .. . ... : ... .. . ... : ... .. . ... : ... .. . ...
ROW 1B : A#3 0B . ... : F-3 0B . ... : ... .. . ... : ... .. . ... : ... .. . ...
ROW 1C : ... .. . ... : ... .. . ... : ... .. . ... : ... .. . ... : ... .. . ...
ROW 1D : G-3 0B . ... : A#3 0B . ... : --- .. . ... : ... .. . ... : ... .. . ...
ROW 1E : ... .. . ... : ... .. . ... : ... .. . ... : ... .. . ... : ... .. . ...
ROW 1F : G-2 0B . ... : G-3 0B . ... : ... .. . ... : ... .. . ... : ... .. . ...
ROW 20 : ... .. . ... : ... .. . ... : ... .. . ... : ... .. . ... : C-3 00 . ...
ROW 21 : F-3 0B . ... : G-2 0B . ... : E-2 17 . ... : ... .. . ... : ... .. . ...
ROW 22 : ... .. . ... : ... .. . ... : ... .. . ... : ... .. . ... : ... .. . ...
ROW 23 : C-3 0B . ... : F-3 0B . ... : ... .. . ... : ... .. . ... : ... .. . ...
ROW 24 : ... .. . ... : ... .. . ... : ... .. . ... : ... .. . ... : ... .. . ...
ROW 25 : A#3 0B . ... : C-3 0B . ... : --- .. . ... : ... .. . ... : ... .. . ...
ROW 26 : ... .. . ... : ... .. . ... : ... .. . ... : ... .. . ... : ... .. . ...
ROW 27 : G-3 0B . ... : A#3 0B . ... : ... .. . ... : ... .. . ... : ... .. . ...
ROW 28 : ... .. . ... : ... .. . ... : ... .. . ... : ... .. . ... : D-3 00 . ...
ROW 29 : G-2 0B . ... : G-3 0B . ... : E-3 17 . ... : A-# 1B . ... : ... .. . ...
ROW 2A : ... .. . ... : ... .. . ... : ... .. . ... : ... .. . ... : ... .. . ...
ROW 2B : F-3 0B . ... : G-2 0B . ... : ... .. . ... : ... .. . ... : ... .. . ...
ROW 2C : ... .. . ... : ... .. . ... : ... .. . ... : ... .. . ... : ... .. . ...
ROW 2D : C-3 0B . ... : F-3 0B . ... : --- .. . ... : ... .. . ... : ... .. . ...
ROW 2E : ... .. . ... : ... .. . ... : ... .. . ... : ... .. . ... : ... .. . ...
ROW 2F : A#3 0B . ... : A#3 0B . ... : ... .. . ... : ... .. . ... : ... .. . ...
ROW 30 : ... .. . ... : ... .. . ... : ... .. . ... : ... .. . ... : C-3 00 . ...
ROW 31 : E-3 0B . ... : E-3 0B . ... : E-2 17 . ... : ... .. . ... : ... .. . ...
ROW 32 : ... .. . ... : ... .. . ... : ... .. . ... : ... .. . ... : ... .. . ...
ROW 33 : E-2 0B . ... : E-2 0B . ... : ... .. . ... : ... .. . ... : ... .. . ...
ROW 34 : ... .. . ... : ... .. . ... : ... .. . ... : ... .. . ... : ... .. . ...
ROW 35 : D-3 0B . ... : D-3 0B . ... : --- .. . ... : ... .. . ... : ... .. . ...
ROW 36 : ... .. . ... : ... .. . ... : ... .. . ... : ... .. . ... : ... .. . ...
ROW 37 : A-2 0B . ... : A-2 0B . ... : ... .. . ... : ... .. . ... : ... .. . ...
ROW 38 : ... .. . ... : ... .. . ... : ... .. . ... : ... .. . ... : D-3 00 . ...
ROW 39 : G-3 0B . ... : G-3 0B . ... : E-3 17 . ... : A-# 1B . ... : ... .. . ...
ROW 3A : ... .. . ... : ... .. . ... : ... .. . ... : ... .. . ... : ... .. . ...
ROW 3B : E-3 0B . ... : E-3 0B . ... : ... .. . ... : ... .. . ... : ... .. . ...
ROW 3C : ... .. . ... : ... .. . ... : ... .. . ... : ... .. . ... : ... .. . ...
ROW 3D : E-2 0B . ... : E-2 0B . ... : --- .. . ... : ... .. . ... : ... .. . ...
ROW 3E : ... .. . ... : ... .. . ... : ... .. . ... : ... .. . ... : ... .. . ...
ROW 3F : D-3 0B . ... : D-3 0B . ... : ... .. . ... : ... .. . ... : ... .. . ...
ROW 40 : ... .. . ... : ... .. . ... : ... .. . ... : ... .. . ... : C-3 00 . ...
ROW 41 : A-2 0B . ... : G-3 0B . ... : E-2 17 . ... : ... .. . ... : ... .. . ...
ROW 42 : ... .. . ... : ... .. . ... : ... .. . ... : ... .. . ... : ... .. . ...
ROW 43 : G-3 0B . ... : E-3 0B . ... : ... .. . ... : ... .. . ... : ... .. . ...
ROW 44 : ... .. . ... : ... .. . ... : ... .. . ... : ... .. . ... : ... .. . ...
ROW 45 : E-3 0B . ... : E-2 0B . ... : --- .. . ... : ... .. . ... : ... .. . ...
ROW 46 : ... .. . ... : ... .. . ... : ... .. . ... : ... .. . ... : ... .. . ...
ROW 47 : E-2 0B . ... : D-3 0B . ... : ... .. . ... : ... .. . ... : ... .. . ...
ROW 48 : ... .. . ... : ... .. . ... : ... .. . ... : ... .. . ... : D-3 00 . ...
ROW 49 : D-3 0B . ... : A-2 0B . ... : E-3 17 . ... : A-# 1B . ... : ... .. . ...
ROW 4A : ... .. . ... : ... .. . ... : ... .. . ... : ... .. . ... : ... .. . ...
ROW 4B : A-2 0B . ... : G-3 0B . ... : ... .. . ... : ... .. . ... : ... .. . ...
ROW 4C : ... .. . ... : ... .. . ... : ... .. . ... : ... .. . ... : ... .. . ...
ROW 4D : G-3 0B . ... : E-3 0B . ... : --- .. . ... : ... .. . ... : ... .. . ...
ROW 4E : ... .. . ... : ... .. . ... : ... .. . ... : ... .. . ... : ... .. . ...
ROW 4F : E-3 0B . ... : E-2 0B . ... : ... .. . ... : ... .. . ... : ... .. . ...
ROW 50 : ... .. . ... : ... .. . ... : ... .. . ... : ... .. . ... : D-3 00 . ...
ROW 51 : E-2 0B . ... : D-3 0B . ... : D-3 17 . ... : A-# 1B . ... : ... .. . ...
ROW 52 : ... .. . ... : ... .. . ... : ... .. . ... : ... .. . ... : E-3 00 . W09
ROW 53 : D-3 0B . ... : G-3 0B . ... : A-2 17 . ... : ... .. . ... : ... .. . ...
ROW 54 : ... .. . ... : ... .. . ... : ... .. . ... : ... .. . ... : D-3 00 . ...
ROW 55 : A-2 0B . ... : E-3 0B . ... : E-3 17 . ... : A-# 1B . ... : ... .. . ...
ROW 56 : ... .. . ... : ... .. . ... : ... .. . ... : ... .. . ... : D-3 00 . ...
ROW 57 : G-3 0B . ... : E-2 0B . ... : E-2 17 . ... : A-# 1B . ... : ... .. . ...

PATTERN 1A
ROW 00 : ... .. . ... : ... .. . ... : ... .. . ... : ... .. . ... : C-3 00 . ...
ROW 01 : E-3 0B . ... : D-3 0B . ... : G-2 17 . ... : ... .. . ... : ... .. . ...
ROW 02 : ... .. . ... : ... .. . ... : ... .. . ... : ... .. . ... : ... .. . ...
ROW 03 : E-2 0B . ... : A-2 0B . ... : ... .. . ... : ... .. . ... : ... .. . ...
ROW 04 : ... .. . ... : ... .. . ... : ... .. . ... : ... .. . ... : ... .. . ...
ROW 05 : D-3 0B . ... : G-3 0B . ... : --- .. . ... : ... .. . ... : ... .. . ...
ROW 06 : ... .. . ... : ... .. . ... : ... .. . ... : ... .. . ... : ... .. . ...
ROW 07 : A-2 0B . ... : E-3 0B . ... : ... .. . ... : ... .. . ... : ... .. . ...
ROW 08 : ... .. . ... : ... .. . ... : ... .. . ... : ... .. . ... : D-3 00 . ...
ROW 09 : G-3 0B . ... : E-2 0B . ... : G-3 17 . ... : A-# 1B . ... : ... .. . ...
ROW 0A : ... .. . ... : ... .. . ... : ... .. . ... : ... .. . ... : ... .. . ...
ROW 0B : E-3 0B . ... : D-3 0B . ... : ... .. . ... : ... .. . ... : ... .. . ...
ROW 0C : ... .. . ... : ... .. . ... : ... .. . ... : ... .. . ... : ... .. . ...
ROW 0D : E-2 0B . ... : G-3 0B . ... : --- .. . ... : ... .. . ... : ... .. . ...
ROW 0E : ... .. . ... : ... .. . ... : ... .. . ... : ... .. . ... : ... .. . ...
ROW 0F : D-3 0B . ... : E-3 0B . ... : ... .. . ... : ... .. . ... : ... .. . ...
ROW 10 : ... .. . ... : ... .. . ... : ... .. . ... : ... .. . ... : C-3 00 . ...
ROW 11 : A-2 0B . ... : E-2 0B . ... : G-2 17 . ... : ... .. . ... : ... .. . ...
ROW 12 : ... .. . ... : ... .. . ... : ... .. . ... : ... .. . ... : ... .. . ...
ROW 13 : G-3 0B . ... : D-3 0B . ... : ... .. . ... : ... .. . ... : ... .. . ...
ROW 14 : ... .. . ... : ... .. . ... : ... .. . ... : ... .. . ... : ... .. . ...
ROW 15 : E-3 0B . ... : A-2 0B . ... : --- .. . ... : ... .. . ... : ... .. . ...
ROW 16 : ... .. . ... : ... .. . ... : ... .. . ... : ... .. . ... : ... .. . ...
ROW 17 : E-2 0B . ... : G-3 0B . ... : ... .. . ... : ... .. . ... : ... .. . ...
ROW 18 : ... .. . ... : ... .. . ... : ... .. . ... : ... .. . ... : D-3 00 . ...
ROW 19 : D-3 0B . ... : E-3 0B . ... : G-3 17 . ... : A-# 1B . ... : ... .. . ...
ROW 1A : ... .. . ... : ... .. . ... : ... .. . ... : ... .. . ... : ... .. . ...
ROW 1B : A-2 0B . ... : E-2 0B . ... : ... .. . ... : ... .. . ... : ... .. . ...
ROW 1C : ... .. . ... : ... .. . ... : ... .. . ... : ... .. . ... : ... .. . ...
ROW 1D : G-3 0B . ... : D-3 0B . ... : --- .. . ... : ... .. . ... : ... .. . ...
ROW 1E : ... .. . ... : ... .. . ... : ... .. . ... : ... .. . ... : ... .. . ...
ROW 1F : E-3 0B . ... : G-3 0B . ... : ... .. . ... : ... .. . ... : ... .. . ...
ROW 20 : ... .. . ... : ... .. . ... : ... .. . ... : ... .. . ... : C-3 00 . ...
ROW 21 : E-2 0B . ... : E-3 0B . ... : G-2 17 . ... : ... .. . ... : ... .. . ...
ROW 22 : ... .. . ... : ... .. . ... : ... .. . ... : ... .. . ... : ... .. . ...
ROW 23 : D-3 0B . ... : E-2 0B . ... : ... .. . ... : ... .. . ... : ... .. . ...
ROW 24 : ... .. . ... : ... .. . ... : ... .. . ... : ... .. . ... : ... .. . ...
ROW 25 : A-2 0B . ... : D-3 0B . ... : --- .. . ... : ... .. . ... : ... .. . ...
ROW 26 : ... .. . ... : ... .. . ... : ... .. . ... : ... .. . ... : ... .. . ...
ROW 27 : G-3 0B . ... : A-2 0B . ... : ... .. . ... : ... .. . ... : ... .. . ...
ROW 28 : ... .. . ... : ... .. . ... : ... .. . ... : ... .. . ... : D-3 00 . ...
ROW 29 : E-3 0B . ... : G-3 0B . ... : G-3 17 . ... : A-# 1B . ... : ... .. . ...
ROW 2A : ... .. . ... : ... .. . ... : ... .. . ... : ... .. . ... : ... .. . ...
ROW 2B : E-2 0B . ... : E-3 0B . ... : ... .. . ... : ... .. . ... : ... .. . ...
ROW 2C : ... .. . ... : ... .. . ... : ... .. . ... : ... .. . ... : ... .. . ...
ROW 2D : D-3 0B . ... : E-2 0B . ... : --- .. . ... : ... .. . ... : ... .. . ...
ROW 2E : ... .. . ... : ... .. . ... : ... .. . ... : ... .. . ... : ... .. . ...
ROW 2F : A-2 0B . ... : D-3 0B . ... : ... .. . ... : ... .. . ... : ... .. . ...
ROW 30 : ... .. . ... : ... .. . ... : ... .. . ... : ... .. . ... : C-3 00 . ...
ROW 31 : G-3 0B . ... : G-3 0B . ... : G-2 17 . ... : ... .. . ... : ... .. . ...
ROW 32 : ... .. . ... : ... .. . ... : ... .. . ... : ... .. . ... : ... .. . ...
ROW 33 : G-3 0B . ... : G-3 0B . ... : ... .. . ... : ... .. . ... : ... .. . ...
ROW 34 : ... .. . ... : ... .. . ... : ... .. . ... : ... .. . ... : ... .. . ...
ROW 35 : G-2 0B . ... : G-2 0B . ... : --- .. . ... : ... .. . ... : ... .. . ...
ROW 36 : ... .. . ... : ... .. . ... : ... .. . ... : ... .. . ... : ... .. . ...
ROW 37 : F-3 0B . ... : F-3 0B . ... : ... .. . ... : ... .. . ... : ... .. . ...
ROW 38 : ... .. . ... : ... .. . ... : ... .. . ... : ... .. . ... : D-3 00 . ...
ROW 39 : C-3 0B . ... : C-3 0B . ... : G-3 17 . ... : A-# 1B . ... : ... .. . ...
ROW 3A : ... .. . ... : ... .. . ... : ... .. . ... : ... .. . ... : ... .. . ...
ROW 3B : A#3 0B . ... : A#3 0B . ... : ... .. . ... : ... .. . ... : ... .. . ...
ROW 3C : ... .. . ... : ... .. . ... : ... .. . ... : ... .. . ... : ... .. . ...
ROW 3D : G-3 0B . ... : G-3 0B . ... : --- .. . ... : ... .. . ... : ... .. . ...
ROW 3E : ... .. . ... : ... .. . ... : ... .. . ... : ... .. . ... : ... .. . ...
ROW 3F : G-2 0B . ... : G-2 0B . ... : ... .. . ... : ... .. . ... : ... .. . ...
ROW 40 : ... .. . ... : ... .. . ... : ... .. . ... : ... .. . ... : C-3 00 . ...
ROW 41 : F-3 0B . ... : F-3 0B . ... : G-2 17 . ... : ... .. . ... : ... .. . ...
ROW 42 : ... .. . ... : ... .. . ... : ... .. . ... : ... .. . ... : ... .. . ...
ROW 43 : C-3 0B . ... : A#3 0B . ... : ... .. . ... : ... .. . ... : ... .. . ...
ROW 44 : ... .. . ... : ... .. . ... : ... .. . ... : ... .. . ... : ... .. . ...
ROW 45 : A#3 0B . ... : G-3 0B . ... : --- .. . ... : ... .. . ... : ... .. . ...
ROW 46 : ... .. . ... : ... .. . ... : ... .. . ... : ... .. . ... : ... .. . ...
ROW 47 : G-3 0B . ... : G-2 0B . ... : ... .. . ... : ... .. . ... : ... .. . ...
ROW 48 : ... .. . ... : ... .. . ... : ... .. . ... : ... .. . ... : D-3 00 . ...
ROW 49 : G-2 0B . ... : F-3 0B . ... : G-3 17 . ... : A-# 1B . ... : ... .. . ...
ROW 4A : ... .. . ... : ... .. . ... : ... .. . ... : ... .. . ... : ... .. . ...
ROW 4B : F-3 0B . ... : C-3 0B . ... : ... .. . ... : ... .. . ... : ... .. . ...
ROW 4C : ... .. . ... : ... .. . ... : ... .. . ... : ... .. . ... : ... .. . ...
ROW 4D : C-3 0B . ... : A#3 0B . ... : --- .. . ... : ... .. . ... : ... .. . ...
ROW 4E : ... .. . ... : ... .. . ... : ... .. . ... : ... .. . ... : ... .. . ...
ROW 4F : A#3 0B . ... : G-3 0B . ... : ... .. . ... : ... .. . ... : ... .. . ...
ROW 50 : ... .. . ... : ... .. . ... : ... .. . ... : ... .. . ... : D-3 00 . ...
ROW 51 : G-3 0B . ... : G-2 0B . ... : F-3 17 . ... : A-# 1B . ... : ... .. . ...
ROW 52 : ... .. . ... : ... .. . ... : ... .. . ... : ... .. . ... : E-3 00 . W09
ROW 53 : G-2 0B . ... : F-3 0B . ... : C-3 17 . ... : ... .. . ... : ... .. . ...
ROW 54 : ... .. . ... : ... .. . ... : ... .. . ... : ... .. . ... : D-3 00 . ...
ROW 55 : F-3 0B . ... : A#3 0B . ... : G-3 17 . ... : A-# 1B . ... : ... .. . ...
ROW 56 : ... .. . ... : ... .. . ... : ... .. . ... : ... .. . ... : D-3 00 . ...
ROW 57 : C-3 0B . ... : G-3 0B . ... : G-2 17 . ... : A-# 1B . ... : ... .. . ...

PATTERN 1B
ROW 00 : ... .. . ... : ... .. . ... : ... .. . ... : ... .. . ... : C-3 00 . ...
ROW 01 : A#3 0B . ... : G-2 0B . ... : E-2 17 . ... : ... .. . ... : ... .. . ...
ROW 02 : ... .. . ... : ... .. . ... : ... .. . ... : ... .. . ... : ... .. . ...
ROW 03 : G-3 0B . ... : F-3 0B . ... : ... .. . ... : ... .. . ... : ... .. . ...
ROW 04 : ... .. . ... : ... .. . ... : ... .. . ... : ... .. . ... : ... .. . ...
ROW 05 : G-2 0B . ... : C-3 0B . ... : --- .. . ... : ... .. . ... : ... .. . ...
ROW 06 : ... .. . ... : ... .. . ... : ... .. . ... : ... .. . ... : ... .. . ...
ROW 07 : F-3 0B . ... : A#3 0B . ... : ... .. . ... : ... .. . ... : ... .. . ...
ROW 08 : ... .. . ... : ... .. . ... : ... .. . ... : ... .. . ... : D-3 00 . ...
ROW 09 : C-3 0B . ... : G-3 0B . ... : E-3 17 . ... : A-# 1B . ... : ... .. . ...
ROW 0A : ... .. . ... : ... .. . ... : ... .. . ... : ... .. . ... : ... .. . ...
ROW 0B : A#3 0B . ... : G-2 0B . ... : ... .. . ... : ... .. . ... : ... .. . ...
ROW 0C : ... .. . ... : ... .. . ... : ... .. . ... : ... .. . ... : ... .. . ...
ROW 0D : G-3 0B . ... : F-3 0B . ... : --- .. . ... : ... .. . ... : ... .. . ...
ROW 0E : ... .. . ... : ... .. . ... : ... .. . ... : ... .. . ... : ... .. . ...
ROW 0F : G-2 0B . ... : A#3 0B . ... : ... .. . ... : ... .. . ... : ... .. . ...
ROW 10 : ... .. . ... : ... .. . ... : ... .. . ... : ... .. . ... : C-3 00 . ...
ROW 11 : F-3 0B . ... : G-3 0B . ... : E-2 17 . ... : ... .. . ... : ... .. . ...
ROW 12 : ... .. . ... : ... .. . ... : ... .. . ... : ... .. . ... : ... .. . ...
ROW 13 : C-3 0B . ... : G-2 0B . ... : ... .. . ... : ... .. . ... : ... .. . ...
ROW 14 : ... .. . ... : ... .. . ... : ... .. . ... : ... .. . ... : ... .. . ...
ROW 15 : A#3 0B . ... : F-3 0B . ... : --- .. . ... : ... .. . ... : ... .. . ...
ROW 16 : ... .. . ... : ... .. . ... : ... .. . ... : ... .. . ... : ... .. . ...
ROW 17 : G-3 0B . ... : C-3 0B . ... : ... .. . ... : ... .. . ... : ... .. . ...
ROW 18 : ... .. . ... : ... .. . ... : ... .. . ... : ... .. . ... : D-3 00 . ...
ROW 19 : G-2 0B . ... : A#3 0B . ... : E-3 17 . ... : A-# 1B . ... : ... .. . ...
ROW 1A : ... .. . ... : ... .. . ... : ... .. . ... : ... .. . ... : ... .. . ...
ROW 1B : F-3 0B . ... : G-3 0B . ... : ... .. . ... : ... .. . ... : ... .. . ...
ROW 1C : ... .. . ... : ... .. . ... : ... .. . ... : ... .. . ... : ... .. . ...
ROW 1D : C-3 0B . ... : G-2 0B . ... : --- .. . ... : ... .. . ... : ... .. . ...
ROW 1E : ... .. . ... : ... .. . ... : ... .. . ... : ... .. . ... : ... .. . ...
ROW 1F : A#3 0B . ... : F-3 0B . ... : ... .. . ... : ... .. . ... : ... .. . ...
ROW 20 : ... .. . ... : ... .. . ... : ... .. . ... : ... .. . ... : C-3 00 . ...
ROW 21 : G-3 0B . ... : A#3 0B . ... : E-2 17 . ... : ... .. . ... : ... .. . ...
ROW 22 : ... .. . ... : ... .. . ... : ... .. . ... : ... .. . ... : ... .. . ...
ROW 23 : G-2 0B . ... : G-3 0B . ... : ... .. . ... : ... .. . ... : ... .. . ...
ROW 24 : ... .. . ... : ... .. . ... : ... .. . ... : ... .. . ... : ... .. . ...
ROW 25 : F-3 0B . ... : G-2 0B . ... : --- .. . ... : ... .. . ... : ... .. . ...
ROW 26 : ... .. . ... : ... .. . ... : ... .. . ... : ... .. . ... : ... .. . ...
ROW 27 : C-3 0B . ... : F-3 0B . ... : ... .. . ... : ... .. . ... : ... .. . ...
ROW 28 : ... .. . ... : ... .. . ... : ... .. . ... : ... .. . ... : D-3 00 . ...
ROW 29 : A#3 0B . ... : C-3 0B . ... : E-3 17 . ... : A-# 1B . ... : ... .. . ...
ROW 2A : ... .. . ... : ... .. . ... : ... .. . ... : ... .. . ... : ... .. . ...
ROW 2B : G-3 0B . ... : A#3 0B . ... : ... .. . ... : ... .. . ... : ... .. . ...
ROW 2C : ... .. . ... : ... .. . ... : ... .. . ... : ... .. . ... : ... .. . ...
ROW 2D : G-2 0B . ... : G-3 0B . ... : --- .. . ... : ... .. . ... : ... .. . ...
ROW 2E : ... .. . ... : ... .. . ... : ... .. . ... : ... .. . ... : ... .. . ...
ROW 2F : F-3 0B . ... : G-2 0B . ... : ... .. . ... : ... .. . ... : ... .. . ...
ROW 30 : ... .. . ... : ... .. . ... : ... .. . ... : ... .. . ... : C-3 00 . ...
ROW 31 : C-3 0B . ... : F-3 0B . ... : E-2 17 . ... : ... .. . ... : ... .. . ...
ROW 32 : ... .. . ... : ... .. . ... : ... .. . ... : ... .. . ... : ... .. . ...
ROW 33 : A#3 0B . ... : A#3 0B . ... : ... .. . ... : ... .. . ... : ... .. . ...
ROW 34 : ... .. . ... : ... .. . ... : ... .. . ... : ... .. . ... : ... .. . ...
ROW 35 : E-3 0B . ... : E-3 0B . ... : --- .. . ... : ... .. . ... : ... .. . ...
ROW 36 : ... .. . ... : ... .. . ... : ... .. . ... : ... .. . ... : ... .. . ...
ROW 37 : E-2 0B . ... : E-2 0B . ... : ... .. . ... : ... .. . ... : ... .. . ...
ROW 38 : ... .. . ... : ... .. . ... : ... .. . ... : ... .. . ... : D-3 00 . ...
ROW 39 : D-3 0B . ... : D-3 0B . ... : E-3 17 . ... : A-# 1B . ... : ... .. . ...
ROW 3A : ... .. . ... : ... .. . ... : ... .. . ... : ... .. . ... : ... .. . ...
ROW 3B : A-2 0B . ... : A-2 0B . ... : ... .. . ... : ... .. . ... : ... .. . ...
ROW 3C : ... .. . ... : ... .. . ... : ... .. . ... : ... .. . ... : ... .. . ...
ROW 3D : G-3 0B . ... : G-3 0B . ... : --- .. . ... : ... .. . ... : ... .. . ...
ROW 3E : ... .. . ... : ... .. . ... : ... .. . ... : ... .. . ... : ... .. . ...
ROW 3F : E-3 0B . ... : E-3 0B . ... : ... .. . ... : ... .. . ... : ... .. . ...
ROW 40 : ... .. . ... : ... .. . ... : ... .. . ... : ... .. . ... : C-3 00 . ...
ROW 41 : E-2 0B . ... : E-2 0B . ... : E-2 17 . ... : ... .. . ... : ... .. . ...
ROW 42 : ... .. . ... : ... .. . ... : ... .. . ... : ... .. . ... : ... .. . ...
ROW 43 : D-3 0B . ... : D-3 0B . ... : ... .. . ... : ... .. . ... : ... .. . ...
ROW 44 : ... .. . ... : ... .. . ... : ... .. . ... : ... .. . ... : ... .. . ...
ROW 45 : A-2 0B . ... : G-3 0B . ... : --- .. . ... : ... .. . ... : ... .. . ...
ROW 46 : ... .. . ... : ... .. . ... : ... .. . ... : ... .. . ... : ... .. . ...
ROW 47 : G-3 0B . ... : E-3 0B . ... : ... .. . ... : ... .. . ... : ... .. . ...
ROW 48 : ... .. . ... : ... .. . ... : ... .. . ... : ... .. . ... : D-3 00 . ...
ROW 49 : E-3 0B . ... : E-2 0B . ... : E-3 17 . ... : A-# 1B . ... : ... .. . ...
ROW 4A : ... .. . ... : ... .. . ... : ... .. . ... : ... .. . ... : ... .. . ...
ROW 4B : E-2 0B . ... : D-3 0B . ... : ... .. . ... : ... .. . ... : ... .. . ...
ROW 4C : ... .. . ... : ... .. . ... : ... .. . ... : ... .. . ... : ... .. . ...
ROW 4D : D-3 0B . ... : A-2 0B . ... : --- .. . ... : ... .. . ... : ... .. . ...
ROW 4E : ... .. . ... : ... .. . ... : ... .. . ... : ... .. . ... : ... .. . ...
ROW 4F : A-2 0B . ... : G-3 0B . ... : ... .. . ... : ... .. . ... : ... .. . ...
ROW 50 : ... .. . ... : ... .. . ... : ... .. . ... : ... .. . ... : D-3 00 . ...
ROW 51 : G-3 0B . ... : E-3 0B . ... : D-3 17 . ... : A-# 1B . ... : ... .. . ...
ROW 52 : ... .. . ... : ... .. . ... : ... .. . ... : ... .. . ... : E-3 00 . W09
ROW 53 : E-3 0B . ... : E-2 0B . ... : A-2 17 . ... : ... .. . ... : ... .. . ...
ROW 54 : ... .. . ... : ... .. . ... : ... .. . ... : ... .. . ... : D-3 00 . ...
ROW 55 : E-2 0B . ... : D-3 0B . ... : E-3 17 . ... : A-# 1B . ... : ... .. . ...
ROW 56 : ... .. . ... : ... .. . ... : ... .. . ... : ... .. . ... : D-3 00 . ...
ROW 57 : D-3 0B . ... : G-3 0B . ... : E-2 17 . ... : A-# 1B . ... : ... .. . ...

PATTERN 1C
ROW 00 : ... .. . ... : ... .. . ... : ... .. . ... : ... .. . ... : C-3 00 . ...
ROW 01 : A-2 0B . ... : E-3 0B . ... : G-2 17 . ... : ... .. . ... : ... .. . ...
ROW 02 : ... .. . ... : ... .. . ... : ... .. . ... : ... .. . ... : ... .. . ...
ROW 03 : G-3 0B . ... : E-2 0B . ... : ... .. . ... : ... .. . ... : ... .. . ...
ROW 04 : ... .. . ... : ... .. . ... : ... .. . ... : ... .. . ... : ... .. . ...
ROW 05 : E-3 0B . ... : D-3 0B . ... : --- .. . ... : ... .. . ... : ... .. . ...
ROW 06 : ... .. . ... : ... .. . ... : ... .. . ... : ... .. . ... : ... .. . ...
ROW 07 : E-2 0B . ... : A-2 0B . ... : ... .. . ... : ... .. . ... : ... .. . ...
ROW 08 : ... .. . ... : ... .. . ... : ... .. . ... : ... .. . ... : D-3 00 . ...
ROW 09 : D-3 0B . ... : G-3 0B . ... : G-3 17 . ... : A-# 1B . ... : ... .. . ...
ROW 0A : ... .. . ... : ... .. . ... : ... .. . ... : ... .. . ... : ... .. . ...
ROW 0B : A-2 0B . ... : E-3 0B . ... : ... .. . ... : ... .. . ... : ... .. . ...
ROW 0C : ... .. . ... : ... .. . ... : ... .. . ... : ... .. . ... : ... .. . ...
ROW 0D : G-3 0B . ... : E-2 0B . ... : --- .. . ... : ... .. . ... : ... .. . ...
ROW 0E : ... .. . ... : ... .. . ... : ... .. . ... : ... .. . ... : ... .. . ...
ROW 0F : E-3 0B . ... : D-3 0B . ... : ... .. . ... : ... .. . ... : ... .. . ...
ROW 10 : ... .. . ... : ... .. . ... : ... .. . ... : ... .. . ... : C-3 00 . ...
ROW 11 : E-2 0B . ... : G-3 0B . ... : G-2 17 . ... : ... .. . ... : ... .. . ...
ROW 12 : ... .. . ... : ... .. . ... : ... .. . ... : ... .. . ... : ... .. . ...
ROW 13 : D-3 0B . ... : E-3 0B . ... : ... .. . ... : ... .. . ... : ... .. . ...
ROW 14 : ... .. . ... : ... .. . ... : ... .. . ... : ... .. . ... : ... .. . ...
ROW 15 : A-2 0B . ... : E-2 0B . ... : --- .. . ... : ... .. . ... : ... .. . ...
ROW 16 : ... .. . ... : ... .. . ... : ... .. . ... : ... .. . ... : ... .. . ...
ROW 17 : G-3 0B . ... : D-3 0B . ... : ... .. . ... : ... .. . ... : ... .. . ...
ROW 18 : ... .. . ... : ... .. . ... : ... .. . ... : ... .. . ... : D-3 00 . ...
ROW 19 : E-3 0B . ... : A-2 0B . ... : G-3 17 . ... : A-# 1B . ... : ... .. . ...
ROW 1A : ... .. . ... : ... .. . ... : ... .. . ... : ... .. . ... : ... .. . ...
ROW 1B : E-2 0B . ... : G-3 0B . ... : ... .. . ... : ... .. . ... : ... .. . ...
ROW 1C : ... .. . ... : ... .. . ... : ... .. . ... : ... .. . ... : ... .. . ...
ROW 1D : D-3 0B . ... : E-3 0B . ... : --- .. . ... : ... .. . ... : ... .. . ...
ROW 1E : ... .. . ... : ... .. . ... : ... .. . ... : ... .. . ... : ... .. . ...
ROW 1F : A-2 0B . ... : E-2 0B . ... : ... .. . ... : ... .. . ... : ... .. . ...
ROW 20 : ... .. . ... : ... .. . ... : ... .. . ... : ... .. . ... : C-3 00 . ...
ROW 21 : G-3 0B . ... : D-3 0B . ... : G-2 17 . ... : ... .. . ... : ... .. . ...
ROW 22 : ... .. . ... : ... .. . ... : ... .. . ... : ... .. . ... : ... .. . ...
ROW 23 : E-3 0B . ... : G-3 0B . ... : ... .. . ... : ... .. . ... : ... .. . ...
ROW 24 : ... .. . ... : ... .. . ... : ... .. . ... : ... .. . ... : ... .. . ...
ROW 25 : E-2 0B . ... : E-3 0B . ... : --- .. . ... : ... .. . ... : ... .. . ...
ROW 26 : ... .. . ... : ... .. . ... : ... .. . ... : ... .. . ... : ... .. . ...
ROW 27 : D-3 0B . ... : E-2 0B . ... : ... .. . ... : ... .. . ... : ... .. . ...
ROW 28 : ... .. . ... : ... .. . ... : ... .. . ... : ... .. . ... : D-3 00 . ...
ROW 29 : A-2 0B . ... : D-3 0B . ... : G-3 17 . ... : A-# 1B . ... : ... .. . ...
ROW 2A : ... .. . ... : ... .. . ... : ... .. . ... : ... .. . ... : ... .. . ...
ROW 2B : G-3 0B . ... : A-2 0B . ... : ... .. . ... : ... .. . ... : ... .. . ...
ROW 2C : ... .. . ... : ... .. . ... : ... .. . ... : ... .. . ... : ... .. . ...
ROW 2D : E-3 0B . ... : G-3 0B . ... : --- .. . ... : ... .. . ... : ... .. . ...
ROW 2E : ... .. . ... : ... .. . ... : ... .. . ... : ... .. . ... : ... .. . ...
ROW 2F : E-2 0B . ... : E-3 0B . ... : ... .. . ... : ... .. . ... : ... .. . ...
ROW 30 : ... .. . ... : ... .. . ... : ... .. . ... : ... .. . ... : C-3 00 . ...
ROW 31 : D-3 0B . ... : E-2 0B . ... : G-2 17 . ... : ... .. . ... : ... .. . ...
ROW 32 : ... .. . ... : ... .. . ... : ... .. . ... : ... .. . ... : ... .. . ...
ROW 33 : A-2 0B . ... : D-3 0B . ... : ... .. . ... : ... .. . ... : ... .. . ...
ROW 34 : ... .. . ... : ... .. . ... : ... .. . ... : ... .. . ... : ... .. . ...
ROW 35 : G-3 0B . ... : G-3 0B . ... : --- .. . ... : ... .. . ... : ... .. . ...
ROW 36 : ... .. . ... : ... .. . ... : ... .. . ... : ... .. . ... : ... .. . ...
ROW 37 : G-3 0B . ... : G-3 0B . ... : ... .. . ... : ... .. . ... : ... .. . ...
ROW 38 : ... .. . ... : ... .. . ... : ... .. . ... : ... .. . ... : D-3 00 . ...
ROW 39 : G-2 0B . ... : G-2 0B . ... : G-3 17 . ... : A-# 1B . ... : ... .. . ...
ROW 3A : ... .. . ... : ... .. . ... : ... .. . ... : ... .. . ... : ... .. . ...
ROW 3B : F-3 0B . ... : F-3 0B . ... : ... .. . ... : ... .. . ... : ... .. . ...
ROW 3C : ... .. . ... : ... .. . ... : ... .. . ... : ... .. . ... : ... .. . ...
ROW 3D : C-3 0B . ... : C-3 0B . ... : --- .. . ... : ... .. . ... : ... .. . ...
ROW 3E : ... .. . ... : ... .. . ... : ... .. . ... : ... .. . ... : ... .. . ...
ROW 3F : A#3 0B . ... : A#3 0B . ... : ... .. . ... : ... .. . ... : ... .. . ...
ROW 40 : ... .. . ... : ... .. . ... : ... .. . ... : ... .. . ... : C-3 00 . ...
ROW 41 : G-3 0B . ... : G-3 0B . ... : G-2 17 . ... : ... .. . ... : ... .. . ...
ROW 42 : ... .. . ... : ... .. . ... : ... .. . ... : ... .. . ... : ... .. . ...
ROW 43 : G-2 0B . ... : G-2 0B . ... : ... .. . ... : ... .. . ... : ... .. . ...
ROW 44 : ... .. . ... : ... .. . ... : ... .. . ... : ... .. . ... : ... .. . ...
ROW 45 : F-3 0B . ... : F-3 0B . ... : --- .. . ... : ... .. . ... : ... .. . ...
ROW 46 : ... .. . ... : ... .. . ... : ... .. . ... : ... .. . ... : ... .. . ...
ROW 47 : C-3 0B . ... : A#3 0B . ... : ... .. . ... : ... .. . ... : ... .. . ...
ROW 48 : ... .. . ... : ... .. . ... : ... .. . ... : ... .. . ... : D-3 00 . ...
ROW 49 : A#3 0B . ... : G-3 0B . ... : G-3 17 . ... : A-# 1B . ... : ... .. . ...
ROW 4A : ... .. . ... : ... .. . ... : ... .. . ... : ... .. . ... : ... .. . ...
ROW 4B : G-3 0B . ... : G-2 0B . ... : ... .. . ... : ... .. . ... : ... .. . ...
ROW 4C : ... .. . ... : ... .. . ... : ... .. . ... : ... .. . ... : ... .. . ...
ROW 4D : G-2 0B . ... : F-3 0B . ... : --- .. . ... : ... .. . ... : ... .. . ...
ROW 4E : ... .. . ... : ... .. . ... : ... .. . ... : ... .. . ... : ... .. . ...
ROW 4F : F-3 0B . ... : C-3 0B . ... : ... .. . ... : ... .. . ... : ... .. . ...
ROW 50 : ... .. . ... : ... .. . ... : ... .. . ... : ... .. . ... : D-3 00 . ...
ROW 51 : C-3 0B . ... : A#3 0B . ... : F-3 17 . ... : A-# 1B . ... : ... .. . ...
ROW 52 : ... .. . ... : ... .. . ... : ... .. . ... : ... .. . ... : E-3 00 . W09
ROW 53 : A#3 0B . ... : G-3 0B . ... : C-3 17 . ... : ... .. . ... : ... .. . ...
ROW 54 : ... .. . ... : ... .. . ... : ... .. . ... : ... .. . ... : D-3 00 . ...
ROW 55 : G-3 0B . ... : G-2 0B . ... : G-3 17 . ... : A-# 1B . ... : ... .. . ...
ROW 56 : ... .. . ... : ... .. . ... : ... .. . ... : ... .. . ... : D-3 00 . ...
ROW 57 : G-2 0B . ... : F-3 0B . ... : G-2 17 . ... : A-# 1B . ... : ... .. . ...

PATTERN 1D
ROW 00 : ... .. . ... : ... .. . ... : ... .. . ... : ... .. . ... : C-3 00 . ...
ROW 01 : F-3 0B . ... : A#3 0B . ... : E-2 17 . ... : ... .. . ... : ... .. . ...
ROW 02 : ... .. . ... : ... .. . ... : ... .. . ... : ... .. . ... : ... .. . ...
ROW 03 : C-3 0B . ... : G-3 0B . ... : ... .. . ... : ... .. . ... : ... .. . ...
ROW 04 : ... .. . ... : ... .. . ... : ... .. . ... : ... .. . ... : ... .. . ...
ROW 05 : A#3 0B . ... : G-2 0B . ... : --- .. . ... : ... .. . ... : ... .. . ...
ROW 06 : ... .. . ... : ... .. . ... : ... .. . ... : ... .. . ... : ... .. . ...
ROW 07 : G-3 0B . ... : F-3 0B . ... : ... .. . ... : ... .. . ... : ... .. . ...
ROW 08 : ... .. . ... : ... .. . ... : ... .. . ... : ... .. . ... : D-3 00 . ...
ROW 09 : G-2 0B . ... : C-3 0B . ... : E-3 17 . ... : A-# 1B . ... : ... .. . ...
ROW 0A : ... .. . ... : ... .. . ... : ... .. . ... : ... .. . ... : ... .. . ...
ROW 0B : F-3 0B . ... : A#3 0B . ... : ... .. . ... : ... .. . ... : ... .. . ...
ROW 0C : ... .. . ... : ... .. . ... : ... .. . ... : ... .. . ... : ... .. . ...
ROW 0D : C-3 0B . ... : G-3 0B . ... : --- .. . ... : ... .. . ... : ... .. . ...
ROW 0E : ... .. . ... : ... .. . ... : ... .. . ... : ... .. . ... : ... .. . ...
ROW 0F : A#3 0B . ... : G-2 0B . ... : ... .. . ... : ... .. . ... : ... .. . ...
ROW 10 : ... .. . ... : ... .. . ... : ... .. . ... : ... .. . ... : C-3 00 . ...
ROW 11 : G-3 0B . ... : F-3 0B . ... : E-2 17 . ... : ... .. . ... : ... .. . ...
ROW 12 : ... .. . ... : ... .. . ... : ... .. . ... : ... .. . ... : ... .. . ...
ROW 13 : G-2 0B . ... : A#3 0B . ... : ... .. . ... : ... .. . ... : ... .. . ...
ROW 14 : ... .. . ... : ... .. . ... : ... .. . ... : ... .. . ... : ... .. . ...
ROW 15 : F-3 0B . ... : G-3 0B . ... : --- .. . ... : ... .. . ... : ... .. . ...
ROW 16 : ... .. . ... : ... .. . ... : ... .. . ... : ... .. . ... : ... .. . ...
ROW 17 : C-3 0B . ... : G-2 0B . ... : ... .. . ... : ... .. . ... : ... .. . ...
ROW 18 : ... .. . ... : ... .. . ... : ... .. . ... : ... .. . ... : D-3 00 . ...
ROW 19 : A#3 0B . ... : F-3 0B . ... : E-3 17 . ... : A-# 1B . ... : ... .. . ...
ROW 1A : ... .. . ... : ... .. . ... : ... .. . ... : ... .. . ... : ... .. . ...
ROW 1B : G-3 0B . ... : C-3 0B . ... : ... .. . ... : ... .. . ... : ... .. . ...
ROW 1C : ... .. . ... : ... .. . ... : ... .. . ... : ... .. . ... : ... .. . ...
ROW 1D : G-2 0B . ... : A#3 0B . ... : --- .. . ... : ... .. . ... : ... .. . ...
ROW 1E : ... .. . ... : ... .. . ... : ... .. . ... : ... .. . ... : ... .. . ...
ROW 1F : F-3 0B . ... : G-3 0B . ... : ... .. . ... : ... .. . ... : ... .. . ...
ROW 20 : ... .. . ... : ... .. . ... : ... .. . ... : ... .. . ... : C-3 00 . ...
ROW 21 : C-3 0B . ... : G-2 0B . ... : E-2 17 . ... : ... .. . ... : ... .. . ...
ROW 22 : ... .. . ... : ... .. . ... : ... .. . ... : ... .. . ... : ... .. . ...
ROW 23 : A#3 0B . ... : F-3 0B . ... : ... .. . ... : ... .. . ... : ... .. . ...
ROW 24 : ... .. . ... : ... .. . ... : ... .. . ... : ... .. . ... : ... .. . ...
ROW 25 : G-3 0B . ... : A#3 0B . ... : --- .. . ... : ... .. . ... : ... .. . ...
ROW 26 : ... .. . ... : ... .. . ... : ... .. . ... : ... .. . ... : ... .. . ...
ROW 27 : G-2 0B . ... : G-3 0B . ... : ... .. . ... : ... .. . ... : ... .. . ...
ROW 28 : ... .. . ... : ... .. . ... : ... .. . ... : ... .. . ... : D-3 00 . ...
ROW 29 : F-3 0B . ... : G-2 0B . ... : E-3 17 . ... : A-# 1B . ... : ... .. . ...
ROW 2A : ... .. . ... : ... .. . ... : ... .. . ... : ... .. . ... : ... .. . ...
ROW 2B : C-3 0B . ... : F-3 0B . ... : ... .. . ... : ... .. . ... : ... .. . ...
ROW 2C : ... .. . ... : ... .. . ... : ... .. . ... : ... .. . ... : ... .. . ...
ROW 2D : A#3 0B . ... : C-3 0B . ... : --- .. . ... : ... .. . ... : ... .. . ...
ROW 2E : ... .. . ... : ... .. . ... : ... .. . ... : ... .. . ... : ... .. . ...
ROW 2F : G-3 0B . ... : A#3 0B . ... : ... .. . ... : ... .. . ... : ... .. . ...
ROW 30 : ... .. . ... : ... .. . ... : ... .. . ... : ... .. . ... : C-3 00 . ...
ROW 31 : G-2 0B . ... : G-3 0B . ... : E-2 17 . ... : ... .. . ... : ... .. . ...
ROW 32 : ... .. . ... : ... .. . ... : ... .. . ... : ... .. . ... : ... .. . ...
ROW 33 : F-3 0B . ... : G-2 0B . ... : ... .. . ... : ... .. . ... : ... .. . ...
ROW 34 : ... .. . ... : ... .. . ... : ... .. . ... : ... .. . ... : ... .. . ...
ROW 35 : C-3 0B . ... : F-3 0B . ... : --- .. . ... : ... .. . ... : ... .. . ...
ROW 36 : ... .. . ... : ... .. . ... : ... .. . ... : ... .. . ... : ... .. . ...
ROW 37 : A#3 0B . ... : A#3 0B . ... : ... .. . ... : ... .. . ... : ... .. . ...
ROW 38 : ... .. . ... : ... .. . ... : ... .. . ... : ... .. . ... : D-3 00 . ...
ROW 39 : E-3 0B . ... : E-3 0B . ... : E-3 17 . ... : A-# 1B . ... : ... .. . ...
ROW 3A : ... .. . ... : ... .. . ... : ... .. . ... : ... .. . ... : ... .. . ...
ROW 3B : E-2 0B . ... : E-2 0B . ... : ... .. . ... : ... .. . ... : ... .. . ...
ROW 3C : ... .. . ... : ... .. . ... : ... .. . ... : ... .. . ... : ... .. . ...
ROW 3D : D-3 0B . ... : D-3 0B . ... : --- .. . ... : ... .. . ... : ... .. . ...
ROW 3E : ... .. . ... : ... .. . ... : ... .. . ... : ... .. . ... : ... .. . ...
ROW 3F : A-2 0B . ... : A-2 0B . ... : ... .. . ... : ... .. . ... : ... .. . ...
ROW 40 : ... .. . ... : ... .. . ... : ... .. . ... : ... .. . ... : C-3 00 . ...
ROW 41 : G-3 0B . ... : G-3 0B . ... : E-2 17 . ... : ... .. . ... : ... .. . ...
ROW 42 : ... .. . ... : ... .. . ... : ... .. . ... : ... .. . ... : ... .. . ...
ROW 43 : E-3 0B . ... : E-3 0B . ... : ... .. . ... : ... .. . ... : ... .. . ...
ROW 44 : ... .. . ... : ... .. . ... : ... .. . ... : ... .. . ... : ... .. . ...
ROW 45 : E-2 0B . ... : E-2 0B . ... : --- .. . ... : ... .. . ... : ... .. . ...
ROW 46 : ... .. . ... : ... .. . ... : ... .. . ... : ... .. . ... : ... .. . ...
ROW 47 : D-3 0B . ... : D-3 0B . ... : ... .. . ... : ... .. . ... : ... .. . ...
ROW 48 : ... .. . ... : ... .. . ... : ... .. . ... : ... .. . ... : D-3 00 . ...
ROW 49 : A-2 0B . ... : G-3 0B . ... : E-3 17 . ... : A-# 1B . ... : ... .. . ...
ROW 4A : ... .. . ... : ... .. . ... : ... .. . ... : ... .. . ... : ... .. . ...
ROW 4B : G-3 0B . ... : E-3 0B . ... : ... .. . ... : ... .. . ... : ... .. . ...
ROW 4C : ... .. . ... : ... .. . ... : ... .. . ... : ... .. . ... : ... .. . ...
ROW 4D : E-3 0B . ... : E-2 0B . ... : --- .. . ... : ... .. . ... : ... .. . ...
ROW 4E : ... .. . ... : ... .. . ... : ... .. . ... : ... .. . ... : ... .. . ...
ROW 4F : E-2 0B . ... : D-3 0B . ... : ... .. . ... : ... .. . ... : ... .. . ...
ROW 50 : ... .. . ... : ... .. . ... : ... .. . ... : ... .. . ... : D-3 00 . ...
ROW 51 : D-3 0B . ... : A-2 0B . ... : D-3 17 . ... : A-# 1B . ... : ... .. . ...
ROW 52 : ... .. . ... : ... .. . ... : ... .. . ... : ... .. . ... : E-3 00 . W09
ROW 53 : A-2 0B . ... : G-3 0B . ... : A-2 17 . ... : ... .. . ... : ... .. . ...
ROW 54 : ... .. . ... : ... .. . ... : ... .. . ... : ... .. . ... : D-3 00 . ...
ROW 55 : G-3 0B . ... : E-3 0B . ... : E-3 17 . ... : A-# 1B . ... : ... .. . ...
ROW 56 : ... .. . ... : ... .. . ... : ... .. . ... : ... .. . ... : D-3 00 . ...
ROW 57 : E-3 0B . ... : E-2 0B . ... : E-2 17 . ... : A-# 1B . ... : ... .. . ...

PATTERN 1E
ROW 00 : ... .. . ... : ... .. . ... : ... .. . ... : ... .. . ... : C-3 00 . ...
ROW 01 : E-2 0B . ... : D-3 0B . ... : G-2 17 . ... : ... .. . ... : ... .. . ...
ROW 02 : ... .. . ... : ... .. . ... : ... .. . ... : ... .. . ... : ... .. . ...
ROW 03 : D-3 0B . ... : G-3 0B . ... : ... .. . ... : ... .. . ... : ... .. . ...
ROW 04 : ... .. . ... : ... .. . ... : ... .. . ... : ... .. . ... : ... .. . ...
ROW 05 : A-2 0B . ... : E-3 0B . ... : --- .. . ... : ... .. . ... : ... .. . ...
ROW 06 : ... .. . ... : ... .. . ... : ... .. . ... : ... .. . ... : ... .. . ...
ROW 07 : G-3 0B . ... : E-2 0B . ... : ... .. . ... : ... .. . ... : ... .. . ...
ROW 08 : ... .. . ... : ... .. . ... : ... .. . ... : ... .. . ... : D-3 00 . ...
ROW 09 : E-3 0B . ... : D-3 0B . ... : G-3 17 . ... : A-# 1B . ... : ... .. . ...
ROW 0A : ... .. . ... : ... .. . ... : ... .. . ... : ... .. . ... : ... .. . ...
ROW 0B : E-2 0B . ... : A-2 0B . ... : ... .. . ... : ... .. . ... : ... .. . ...
ROW 0C : ... .. . ... : ... .. . ... : ... .. . ... : ... .. . ... : ... .. . ...
ROW 0D : D-3 0B . ... : G-3 0B . ... : --- .. . ... : ... .. . ... : ... .. . ...
ROW 0E : ... .. . ... : ... .. . ... : ... .. . ... : ... .. . ... : ... .. . ...
ROW 0F : A-2 0B . ... : E-3 0B . ... : ... .. . ... : ... .. . ... : ... .. . ...
ROW 10 : ... .. . ... : ... .. . ... : ... .. . ... : ... .. . ... : C-3 00 . ...
ROW 11 : G-3 0B . ... : E-2 0B . ... : G-2 17 . ... : ... .. . ... : ... .. . ...
ROW 12 : ... .. . ... : ... .. . ... : ... .. . ... : ... .. . ... : ... .. . ...
ROW 13 : E-3 0B . ... : D-3 0B . ... : ... .. . ... : ... .. . ... : ... .. . ...
ROW 14 : ... .. . ... : ... .. . ... : ... .. . ... : ... .. . ... : ... .. . ...
ROW 15 : E-2 0B . ... : G-3 0B . ... : --- .. . ... : ... .. . ... : ... .. . ...
ROW 16 : ... .. . ... : ... .. . ... : ... .. . ... : ... .. . ... : ... .. . ...
ROW 17 : D-3 0B . ... : E-3 0B . ... : ... .. . ... : ... .. . ... : ... .. . ...
ROW 18 : ... .. . ... : ... .. . ... : ... .. . ... : ... .. . ... : D-3 00 . ...
ROW 19 : A-2 0B . ... : E-2 0B . ... : G-3 17 . ... : A-# 1B . ... : ... .. . ...
ROW 1A : ... .. . ... : ... .. . ... : ... .. . ... : ... .. . ... : ... .. . ...
ROW 1B : G-3 0B . ... : D-3 0B . ... : ... .. . ... : ... .. . ... : ... .. . ...
ROW 1C : ... .. . ... : ... .. . ... : ... .. . ... : ... .. . ... : ... .. . ...
ROW 1D : E-3 0B . ... : A-2 0B . ... : --- .. . ... : ... .. . ... : ... .. . ...
ROW 1E : ... .. . ... : ... .. . ... : ... .. . ... : ... .. . ... : ... .. . ...
ROW 1F : E-2 0B . ... : G-3 0B . ... : ... .. . ... : ... .. . ... : ... .. . ...
ROW 20 : ... .. . ... : ... .. . ... : ... .. . ... : ... .. . ... : C-3 00 . ...
ROW 21 : D-3 0B . ... : E-3 0B . ... : G-2 17 . ... : ... .. . ... : ... .. . ...
ROW 22 : ... .. . ... : ... .. . ... : ... .. . ... : ... .. . ... : ... .. . ...
ROW 23 : A-2 0B . ... : E-2 0B . ... : ... .. . ... : ... .. . ... : ... .. . ...
ROW 24 : ... .. . ... : ... .. . ... : ... .. . ... : ... .. . ... : ... .. . ...
ROW 25 : G-3 0B . ... : D-3 0B . ... : --- .. . ... : ... .. . ... : ... .. . ...
ROW 26 : ... .. . ... : ... .. . ... : ... .. . ... : ... .. . ... : ... .. . ...
ROW 27 : E-3 0B . ... : G-3 0B . ... : ... .. . ... : ... .. . ... : ... .. . ...
ROW 28 : ... .. . ... : ... .. . ... : ... .. . ... : ... .. . ... : D-3 00 . ...
ROW 29 : E-2 0B . ... : E-3 0B . ... : G-3 17 . ... : A-# 1B . ... : ... .. . ...
ROW 2A : ... .. . ... : ... .. . ... : ... .. . ... : ... .. . ... : ... .. . ...
ROW 2B : D-3 0B . ... : E-2 0B . ... : ... .. . ... : ... .. . ... : ... .. . ...
ROW 2C : ... .. . ... : ... .. . ... : ... .. . ... : ... .. . ... : ... .. . ...
ROW 2D : A-2 0B . ... : D-3 0B . ... : --- .. . ... : ... .. . ... : ... .. . ...
ROW 2E : ... .. . ... : ... .. . ... : ... .. . ... : ... .. . ... : ... .. . ...
ROW 2F : G-3 0B . ... : A-2 0B . ... : ... .. . ... : ... .. . ... : ... .. . ...
ROW 30 : ... .. . ... : ... .. . ... : ... .. . ... : ... .. . ... : C-3 00 . ...
ROW 31 : E-3 0B . ... : G-3 0B . ... : G-2 17 . ... : ... .. . ... : ... .. . ...
ROW 32 : ... .. . ... : ... .. . ... : ... .. . ... : ... .. . ... : ... .. . ...
ROW 33 : E-2 0B . ... : E-3 0B . ... : ... .. . ... : ... .. . ... : ... .. . ...
ROW 34 : ... .. . ... : ... .. . ... : ... .. . ... : ... .. . ... : ... .. . ...
ROW 35 : D-3 0B . ... : E-2 0B . ... : --- .. . ... : ... .. . ... : ... .. . ...
ROW 36 : ... .. . ... : ... .. . ... : ... .. . ... : ... .. . ... : ... .. . ...
ROW 37 : A-2 0B . ... : D-3 0B . ... : ... .. . ... : ... .. . ... : ... .. . ...
ROW 38 : ... .. . ... : ... .. . ... : ... .. . ... : ... .. . ... : D-3 00 . ...
ROW 39 : G-3 0B . ... : G-3 0B . ... : G-3 17 . ... : A-# 1B . ... : ... .. . ...
ROW 3A : ... .. . ... : ... .. . ... : ... .. . ... : ... .. . ... : ... .. . ...
ROW 3B : G-3 0B . ... : G-3 0B . ... : ... .. . ... : ... .. . ... : ... .. . ...
ROW 3C : ... .. . ... : ... .. . ... : ... .. . ... : ... .. . ... : ... .. . ...
ROW 3D : G-2 0B . ... : G-2 0B . ... : --- .. . ... : ... .. . ... : ... .. . ...
ROW 3E : ... .. . ... : ... .. . ... : ... .. . ... : ... .. . ... : ... .. . ...
ROW 3F : F-3 0B . ... : F-3 0B . ... : ... .. . ... : ... .. . ... : ... .. . ...
ROW 40 : ... .. . ... : ... .. . ... : ... .. . ... : ... .. . ... : C-3 00 . ...
ROW 41 : C-3 0B . ... : C-3 0B . ... : G-2 17 . ... : ... .. . ... : ... .. . ...
ROW 42 : ... .. . ... : ... .. . ... : ... .. . ... : ... .. . ... : ... .. . ...
ROW 43 : A#3 0B . ... : A#3 0B . ... : ... .. . ... : ... .. . ... : ... .. . ...
ROW 44 : ... .. . ... : ... .. . ... : ... .. . ... : ... .. . ... : ... .. . ...
ROW 45 : G-3 0B . ... : G-3 0B . ... : --- .. . ... : ... .. . ... : ... .. . ...
ROW 46 : ... .. . ... : ... .. . ... : ... .. . ... : ... .. . ... : ... .. . ...
ROW 47 : G-2 0B . ... : G-2 0B . ... : ... .. . ... : ... .. . ... : ... .. . ...
ROW 48 : ... .. . ... : ... .. . ... : ... .. . ... : ... .. . ... : D-3 00 . ...
ROW 49 : F-3 0B . ... : F-3 0B . ... : G-3 17 . ... : A-# 1B . ... : ... .. . ...
ROW 4A : ... .. . ... : ... .. . ... : ... .. . ... : ... .. . ... : ... .. . ...
ROW 4B : C-3 0B . ... : A#3 0B . ... : ... .. . ... : ... .. . ... : ... .. . ...
ROW 4C : ... .. . ... : ... .. . ... : ... .. . ... : ... .. . ... : ... .. . ...
ROW 4D : A#3 0B . ... : G-3 0B . ... : --- .. . ... : ... .. . ... : ... .. . ...
ROW 4E : ... .. . ... : ... .. . ... : ... .. . ... : ... .. . ... : ... .. . ...
ROW 4F : G-3 0B . ... : G-2 0B . ... : ... .. . ... : ... .. . ... : ... .. . ...
ROW 50 : ... .. . ... : ... .. . ... : ... .. . ... : ... .. . ... : D-3 00 . ...
ROW 51 : G-2 0B . ... : F-3 0B . ... : F-3 17 . ... : A-# 1B . ... : ... .. . ...
ROW 52 : ... .. . ... : ... .. . ... : ... .. . ... : ... .. . ... : E-3 00 . W09
ROW 53 : F-3 0B . ... : C-3 0B . ... : C-3 17 . ... : ... .. . ... : ... .. . ...
ROW 54 : ... .. . ... : ... .. . ... : ... .. . ... : ... .. . ... : D-3 00 . ...
ROW 55 : C-3 0B . ... : A#3 0B . ... : G-3 17 . ... : A-# 1B . ... : ... .. . ...
ROW 56 : ... .. . ... : ... .. . ... : ... .. . ... : ... .. . ... : D-3 00 . ...
ROW 57 : A#3 0B . ... : G-3 0B . ... : G-2 17 . ... : A-# 1B . ... : ... .. . ...

PATTERN 1F
ROW 00 : ... .. . ... : ... .. . ... : ... .. . ... : ... .. . ... : C-3 00 . ...
ROW 01 : G-3 0B . ... : G-2 0B . ... : E-2 17 . ... : ... .. . ... : ... .. . ...
ROW 02 : ... .. . ... : ... .. . ... : ... .. . ... : ... .. . ... : ... .. . ...
ROW 03 : G-2 0B . ... : F-3 0B . ... : ... .. . ... : ... .. . ... : ... .. . ...
ROW 04 : ... .. . ... : ... .. . ... : ... .. . ... : ... .. . ... : ... .. . ...
ROW 05 : F-3 0B . ... : A#3 0B . ... : --- .. . ... : ... .. . ... : ... .. . ...
ROW 06 : ... .. . ... : ... .. . ... : ... .. . ... : ... .. . ... : ... .. . ...
ROW 07 : C-3 0B . ... : G-3 0B . ... : ... .. . ... : ... .. . ... : ... .. . ...
ROW 08 : ... .. . ... : ... .. . ... : ... .. . ... : ... .. . ... : D-3 00 . ...
ROW 09 : A#3 0B . ... : G-2 0B . ... : E-3 17 . ... : A-# 1B . ... : ... .. . ...
ROW 0A : ... .. . ... : ... .. . ... : ... .. . ... : ... .. . ... : ... .. . ...
ROW 0B : G-3 0B . ... : F-3 0B . ... : ... .. . ... : ... .. . ... : ... .. . ...
ROW 0C : ... .. . ... : ... .. . ... : ... .. . ... : ... .. . ... : ... .. . ...
ROW 0D : G-2 0B . ... : C-3 0B . ... : --- .. . ... : ... .. . ... : ... .. . ...
ROW 0E : ... .. . ... : ... .. . ... : ... .. . ... : ... .. . ... : ... .. . ...
ROW 0F : F-3 0B . ... : A#3 0B . ... : ... .. . ... : ... .. . ... : ... .. . ...
ROW 10 : ... .. . ... : ... .. . ... : ... .. . ... : ... .. . ... : C-3 00 . ...
ROW 11 : C-3 0B . ... : G-3 0B . ... : E-2 17 . ... : ... .. . ... : ... .. . ...
ROW 12 : ... .. . ... : ... .. . ... : ... .. . ... : ... .. . ... : ... .. . ...
ROW 13 : A#3 0B . ... : G-2 0B . ... : ... .. . ... : ... .. . ... : ... .. . ...
ROW 14 : ... .. . ... : ... .. . ... : ... .. . ... : ... .. . ... : ... .. . ...
ROW 15 : G-3 0B . ... : F-3 0B . ... : --- .. . ... : ... .. . ... : ... .. . ...
ROW 16 : ... .. . ... : ... .. . ... : ... .. . ... : ... .. . ... : ... .. . ...
ROW 17 : G-2 0B . ... : A#3 0B . ... : ... .. . ... : ... .. . ... : ... .. . ...
ROW 18 : ... .. . ... : ... .. . ... : ... .. . ... : ... .. . ... : D-3 00 . ...
ROW 19 : F-3 0B . ... : G-3 0B . ... : E-3 17 . ... : A-# 1B . ... : ... .. . ...
ROW 1A : ... .. . ... : ... .. . ... : ... .. . ... : ... .. . ... : ... .. . ...
ROW 1B : C-3 0B . ... : G-2 0B . ... : ... .. . ... : ... .. . ... : ... .. . ...
ROW 1C : ... .. . ... : ... .. . ... : ... .. . ... : ... .. . ... : ... .. . ...
ROW 1D : A#3 0B . ... : F-3 0B . ... : --- .. . ... : ... .. . ... : ... .. . ...
ROW 1E : ... .. . ... : ... .. . ... : ... .. . ... : ... .. . ... : ... .. . ...
ROW 1F : G-3 0B . ... : C-3 0B . ... : ... .. . ... : ... .. . ... : ... .. . ...
ROW 20 : ... .. . ... : ... .. . ... : ... .. . ... : ... .. . ... : C-3 00 . ...
ROW 21 : G-2 0B . ... : A#3 0B . ... : E-2 17 . ... : ... .. . ... : ... .. . ...
ROW 22 : ... .. . ... : ... .. . ... : ... .. . ... : ... .. . ... : ... .. . ...
ROW 23 : F-3 0B . ... : G-3 0B . ... : ... .. . ... : ... .. . ... : ... .. . ...
ROW 24 : ... .. . ... : ... .. . ... : ... .. . ... : ... .. . ... : ... .. . ...
ROW 25 : C-3 0B . ... : G-2 0B . ... : --- .. . ... : ... .. . ... : ... .. . ...
ROW 26 : ... .. . ... : ... .. . ... : ... .. . ... : ... .. . ... : ... .. . ...
ROW 27 : A#3 0B . ... : F-3 0B . ... : ... .. . ... : ... .. . ... : ... .. . ...
ROW 28 : ... .. . ... : ... .. . ... : ... .. . ... : ... .. . ... : D-3 00 . ...
ROW 29 : G-3 0B . ... : A#3 0B . ... : E-3 17 . ... : A-# 1B . ... : ... .. . ...
ROW 2A : ... .. . ... : ... .. . ... : ... .. . ... : ... .. . ... : ... .. . ...
ROW 2B : G-2 0B . ... : G-3 0B . ... : ... .. . ... : ... .. . ... : ... .. . ...
ROW 2C : ... .. . ... : ... .. . ... : ... .. . ... : ... .. . ... : ... .. . ...
ROW 2D : F-3 0B . ... : G-2 0B . ... : --- .. . ... : ... .. . ... : ... .. . ...
ROW 2E : ... .. . ... : ... .. . ... : ... .. . ... : ... .. . ... : ... .. . ...
ROW 2F : C-3 0B . ... : F-3 0B . ... : ... .. . ... : ... .. . ... : ... .. . ...
ROW 30 : ... .. . ... : ... .. . ... : ... .. . ... : ... .. . ... : C-3 00 . ...
ROW 31 : A#3 0B . ... : C-3 0B . ... : E-2 17 . ... : ... .. . ... : ... .. . ...
ROW 32 : ... .. . ... : ... .. . ... : ... .. . ... : ... .. . ... : ... .. . ...
ROW 33 : G-3 0B . ... : A#3 0B . ... : ... .. . ... : ... .. . ... : ... .. . ...
ROW 34 : ... .. . ... : ... .. . ... : ... .. . ... : ... .. . ... : ... .. . ...
ROW 35 : G-2 0B . ... : G-3 0B . ... : --- .. . ... : ... .. . ... : ... .. . ...
ROW 36 : ... .. . ... : ... .. . ... : ... .. . ... : ... .. . ... : ... .. . ...
ROW 37 : F-3 0B . ... : G-2 0B . ... : ... .. . ... : ... .. . ... : ... .. . ...
ROW 38 : ... .. . ... : ... .. . ... : ... .. . ... : ... .. . ... : D-3 00 . ...
ROW 39 : C-3 0B . ... : F-3 0B . ... : E-3 17 . ... : A-# 1B . ... : ... .. . ...
ROW 3A : ... .. . ... : ... .. . ... : ... .. . ... : ... .. . ... : ... .. . ...
ROW 3B : A#3 0B . ... : A#3 0B . ... : ... .. . ... : ... .. . ... : ... .. . ...
ROW 3C : ... .. . ... : ... .. . ... : ... .. . ... : ... .. . ... : ... .. . ...
ROW 3D : E-3 0B . ... : E-3 0B . ... : --- .. . ... : ... .. . ... : ... .. . ...
ROW 3E : ... .. . ... : ... .. . ... : ... .. . ... : ... .. . ... : ... .. . ...
ROW 3F : E-2 0B . ... : E-2 0B . ... : ... .. . ... : ... .. . ... : ... .. . ...
ROW 40 : ... .. . ... : ... .. . ... : ... .. . ... : ... .. . ... : C-3 00 . ...
ROW 41 : D-3 0B . ... : D-3 0B . ... : E-2 17 . ... : ... .. . ... : ... .. . ...
ROW 42 : ... .. . ... : ... .. . ... : ... .. . ... : ... .. . ... : ... .. . ...
ROW 43 : A-2 0B . ... : A-2 0B . ... : ... .. . ... : ... .. . ... : ... .. . ...
ROW 44 : ... .. . ... : ... .. . ... : ... .. . ... : ... .. . ... : ... .. . ...
ROW 45 : G-3 0B . ... : G-3 0B . ... : --- .. . ... : ... .. . ... : ... .. . ...
ROW 46 : ... .. . ... : ... .. . ... : ... .. . ... : ... .. . ... : ... .. . ...
ROW 47 : E-3 0B . ... : E-3 0B . ... : ... .. . ... : ... .. . ... : ... .. . ...
ROW 48 : ... .. . ... : ... .. . ... : ... .. . ... : ... .. . ... : D-3 00 . ...
ROW 49 : E-2 0B . ... : E-2 0B . ... : E-3 17 . ... : A-# 1B . ... : ... .. . ...
ROW 4A : ... .. . ... : ... .. . ... : ... .. . ... : ... .. . ... : ... .. . ...
ROW 4B : D-3 0B . ... : D-3 0B . ... : ... .. . ... : ... .. . ... : ... .. . ...
ROW 4C : ... .. . ... : ... .. . ... : ... .. . ... : ... .. . ... : ... .. . ...
ROW 4D : A-2 0B . ... : G-3 0B . ... : --- .. . ... : ... .. . ... : ... .. . ...
ROW 4E : ... .. . ... : ... .. . ... : ... .. . ... : ... .. . ... : ... .. . ...
ROW 4F : G-3 0B . ... : E-3 0B . ... : ... .. . ... : ... .. . ... : ... .. . ...
ROW 50 : ... .. . ... : ... .. . ... : ... .. . ... : ... .. . ... : D-3 00 . ...
ROW 51 : E-3 0B . ... : E-2 0B . ... : D-3 17 . ... : A-# 1B . ... : ... .. . ...
ROW 52 : ... .. . ... : ... .. . ... : ... .. . ... : ... .. . ... : E-3 00 . W09
ROW 53 : E-2 0B . ... : D-3 0B . ... : A-2 17 . ... : ... .. . ... : ... .. . ...
ROW 54 : ... .. . ... : ... .. . ... : ... .. . ... : ... .. . ... : D-3 00 . ...
ROW 55 : D-3 0B . ... : A-2 0B . ... : E-3 17 . ... : A-# 1B . ... : ... .. . ...
ROW 56 : ... .. . ... : ... .. . ... : ... .. . ... : ... .. . ... : D-3 00 . ...
ROW 57 : A-2 0B . ... : G-3 0B . ... : E-2 17 . ... : A-# 1B . ... : ... .. . ...

PATTERN 20
ROW 00 : ... .. . ... : ... .. . ... : ... .. . ... : ... .. . ... : C-3 00 . ...
ROW 01 : G-3 0B . ... : E-3 0B . ... : G-2 17 . ... : ... .. . ... : ... .. . ...
ROW 02 : ... .. . ... : ... .. . ... : ... .. . ... : ... .. . ... : ... .. . ...
ROW 03 : E-3 0B . ... : E-2 0B . ... : ... .. . ... : ... .. . ... : ... .. . ...
ROW 04 : ... .. . ... : ... .. . ... : ... .. . ... : ... .. . ... : ... .. . ...
ROW 05 : E-2 0B . ... : D-3 0B . ... : --- .. . ... : ... .. . ... : ... .. . ...
ROW 06 : ... .. . ... : ... .. . ... : ... .. . ... : ... .. . ... : ... .. . ...
ROW 07 : D-3 0B . ... : G-3 0B . ... : ... .. . ... : ... .. . ... : ... .. . ...
ROW 08 : ... .. . ... : ... .. . ... : ... .. . ... : ... .. . ... : D-3 00 . ...
ROW 09 : A-2 0B . ... : E-3 0B . ... : G-3 17 . ... : A-# 1B . ... : ... .. . ...
ROW 0A : ... .. . ... : ... .. . ... : ... .. . ... : ... .. . ... : ... .. . ...
ROW 0B : G-3 0B . ... : E-2 0B . ... : ... .. . ... : ... .. . ... : ... .. . ...
ROW 0C : ... .. . ... : ... .. . ... : ... .. . ... : ... .. . ... : ... .. . ...
ROW 0D : E-3 0B . ... : D-3 0B . ... : --- .. . ... : ... .. . ... : ... .. . ...
ROW 0E : ... .. . ... : ... .. . ... : ... .. . ... : ... .. . ... : ... .. . ...
ROW 0F : E-2 0B . ... : A-2 0B . ... : ... .. . ... : ... .. . ... : ... .. . ...
ROW 10 : ... .. . ... : ... .. . ... : ... .. . ... : ... .. . ... : C-3 00 . ...
ROW 11 : D-3 0B . ... : G-3 0B . ... : G-2 17 . ... : ... .. . ... : ... .. . ...
ROW 12 : ... .. . ... : ... .. . ... : ... .. . ... : ... .. . ... : ... .. . ...
ROW 13 : A-2 0B . ... : E-3 0B . ... : ... .. . ... : ... .. . ... : ... .. . ...
ROW 14 : ... .. . ... : ... .. . ... : ... .. . ... : ... .. . ... : ... .. . ...
ROW 15 : G-3 0B . ... : E-2 0B . ... : --- .. . ... : ... .. . ... : ... .. . ...
ROW 16 : ... .. . ... : ... .. . ... : ... .. . ... : ... .. . ... : ... .. . ...
ROW 17 : E-3 0B . ... : D-3 0B . ... : ... .. . ... : ... .. . ... : ... .. . ...
ROW 18 : ... .. . ... : ... .. . ... : ... .. . ... : ... .. . ... : D-3 00 . ...
ROW 19 : E-2 0B . ... : G-3 0B . ... : G-3 17 . ... : A-# 1B . ... : ... .. . ...
ROW 1A : ... .. . ... : ... .. . ... : ... .. . ... : ... .. . ... : ... .. . ...
ROW 1B : D-3 0B . ... : E-3 0B . ... : ... .. . ... : ... .. . ... : ... .. . ...
ROW 1C : ... .. . ... : ... .. . ... : ... .. . ... : ... .. . ... : ... .. . ...
ROW 1D : A-2 0B . ... : E-2 0B . ... : --- .. . ... : ... .. . ... : ... .. . ...
ROW 1E : ... .. . ... : ... .. . ... : ... .. . ... : ... .. . ... : ... .. . ...
ROW 1F : G-3 0B . ... : D-3 0B . ... : ... .. . ... : ... .. . ... : ... .. . ...
ROW 20 : ... .. . ... : ... .. . ... : ... .. . ... : ... .. . ... : C-3 00 . ...
ROW 21 : E-3 0B . ... : A-2 0B . ... : G-2 17 . ... : ... .. . ... : ... .. . ...
ROW 22 : ... .. . ... : ... .. . ... : ... .. . ... : ... .. . ... : ... .. . ...
ROW 23 : E-2 0B . ... : G-3 0B . ... : ... .. . ... : ... .. . ... : ... .. . ...
ROW 24 : ... .. . ... : ... .. . ... : ... .. . ... : ... .. . ... : ... .. . ...
ROW 25 : D-3 0B . ... : E-3 0B . ... : --- .. . ... : ... .. . ... : ... .. . ...
ROW 26 : ... .. . ... : ... .. . ... : ... .. . ... : ... .. . ... : ... .. . ...
ROW 27 : A-2 0B . ... : E-2 0B . ... : ... .. . ... : ... .. . ... : ... .. . ...
ROW 28 : ... .. . ... : ... .. . ... : ... .. . ... : ... .. . ... : D-3 00 . ...
ROW 29 : G-3 0B . ... : D-3 0B . ... : G-3 17 . ... : A-# 1B . ... : ... .. . ...
ROW 2A : ... .. . ... : ... .. . ... : ... .. . ... : ... .. . ... : ... .. . ...
ROW 2B : E-3 0B . ... : G-3 0B . ... : ... .. . ... : ... .. . ... : ... .. . ...
ROW 2C : ... .. . ... : ... .. . ... : ... .. . ... : ... .. . ... : ... .. . ...
ROW 2D : E-2 0B . ... : E-3 0B . ... : --- .. . ... : ... .. . ... : ... .. . ...
ROW 2E : ... .. . ... : ... .. . ... : ... .. . ... : ... .. . ... : ... .. . ...
ROW 2F : D-3 0B . ... : E-2 0B . ... : ... .. . ... : ... .. . ... : ... .. . ...
ROW 30 : ... .. . ... : ... .. . ... : ... .. . ... : ... .. . ... : C-3 00 . ...
ROW 31 : A-2 0B . ... : D-3 0B . ... : G-2 17 . ... : ... .. . ... : ... .. . ...
ROW 32 : ... .. . ... : ... .. . ... : ... .. . ... : ... .. . ... : ... .. . ...
ROW 33 : G-3 0B . ... : A-2 0B . ... : ... .. . ... : ... .. . ... : ... .. . ...
ROW 34 : ... .. . ... : ... .. . ... : ... .. . ... : ... .. . ... : ... .. . ...
ROW 35 : E-3 0B . ... : G-3 0B . ... : --- .. . ... : ... .. . ... : ... .. . ...
ROW 36 : ... .. . ... : ... .. . ... : ... .. . ... : ... .. . ... : ... .. . ...
ROW 37 : E-2 0B . ... : E-3 0B . ... : ... .. . ... : ... .. . ... : ... .. . ...
ROW 38 : ... .. . ... : ... .. . ... : ... .. . ... : ... .. . ... : D-3 00 . ...
ROW 39 : D-3 0B . ... : E-2 0B . ... : G-3 17 . ... : A-# 1B . ... : ... .. . ...
ROW 3A : ... .. . ... : ... .. . ... : ... .. . ... : ... .. . ... : ... .. . ...
ROW 3B : A-2 0B . ... : D-3 0B . ... : ... .. . ... : ... .. . ... : ... .. . ...
ROW 3C : ... .. . ... : ... .. . ... : ... .. . ... : ... .. . ... : ... .. . ...
ROW 3D : G-3 0B . ... : G-3 0B . ... : --- .. . ... : ... .. . ... : ... .. . ...
ROW 3E : ... .. . ... : ... .. . ... : ... .. . ... : ... .. . ... : ... .. . ...
ROW 3F : G-3 0B . ... : G-3 0B . ... : ... .. . ... : ... .. . ... : ... .. . ...
ROW 40 : ... .. . ... : ... .. . ... : ... .. . ... : ... .. . ... : C-3 00 . ...
ROW 41 : G-2 0B . ... : G-2 0B . ... : G-2 17 . ... : ... .. . ... : ... .. . ...
ROW 42 : ... .. . ... : ... .. . ... : ... .. . ... : ... .. . ... : ... .. . ...
ROW 43 : F-3 0B . ... : F-3 0B . ... : ... .. . ... : ... .. . ... : ... .. . ...
ROW 44 : ... .. . ... : ... .. . ... : ... .. . ... : ... .. . ... : ... .. . ...
ROW 45 : C-3 0B . ... : C-3 0B . ... : --- .. . ... : ... .. . ... : ... .. . ...
ROW 46 : ... .. . ... : ... .. . ... : ... .. . ... : ... .. . ... : ... .. . ...
ROW 47 : A#3 0B . ... : A#3 0B . ... : ... .. . ... : ... .. . ... : ... .. . ...
ROW 48 : ... .. . ... : ... .. . ... : ... .. . ... : ... .. . ... : D-3 00 . ...
ROW 49 : G-3 0B . ... : G-3 0B . ... : G-3 17 . ... : A-# 1B . ... : ... .. . ...
ROW 4A : ... .. . ... : ... .. . ... : ... .. . ... : ... .. . ... : ... .. . ...
ROW 4B : G-2 0B . ... : G-2 0B . ... : ... .. . ... : ... .. . ... : ... .. . ...
ROW 4C : ... .. . ... : ... .. . ... : ... .. . ... : ... .. . ... : ... .. . ...
ROW 4D : F-3 0B . ... : F-3 0B . ... : --- .. . ... : ... .. . ... : ... .. . ...
ROW 4E : ... .. . ... : ... .. . ... : ... .. . ... : ... .. . ... : ... .. . ...
ROW 4F : C-3 0B . ... : A#3 0B . ... : ... .. . ... : ... .. . ... : ... .. . ...
ROW 50 : ... .. . ... : ... .. . ... : ... .. . ... : ... .. . ... : D-3 00 . ...
ROW 51 : A#3 0B . ... : G-3 0B . ... : F-3 17 . ... : A-# 1B . ... : ... .. . ...
ROW 52 : ... .. . ... : ... .. . ... : ... .. . ... : ... .. . ... : E-3 00 . W09
ROW 53 : G-3 0B . ... : G-2 0B . ... : C-3 17 . ... : ... .. . ... : ... .. . ...
ROW 54 : ... .. . ... : ... .. . ... : ... .. . ... : ... .. . ... : D-3 00 . ...
ROW 55 : G-2 0B . ... : F-3 0B . ... : G-3 17 . ... : A-# 1B . ... : ... .. . ...
ROW 56 : ... .. . ... : ... .. . ... : ... .. . ... : ... .. . ... : D-3 00 . ...
ROW 57 : F-3 0B . ... : C-3 0B . ... : G-2 17 . ... : A-# 1B . ... : ... .. . ...

PATTERN 21
ROW 00 : ... .. . ... : ... .. . ... : ... .. . ... : ... .. . ... : C-3 00 . ...
ROW 01 : C-3 0B . ... : A#3 0B . ... : E-2 17 . ... : ... .. . ... : ... .. . ...
ROW 02 : ... .. . ... : ... .. . ... : ... .. . ... : ... .. . ... : ... .. . ...
ROW 03 : A#3 0B . ... : G-3 0B . ... : ... .. . ... : ... .. . ... : ... .. . ...
ROW 04 : ... .. . ... : ... .. . ... : ... .. . ... : ... .. . ... : ... .. . ...
ROW 05 : G-3 0B . ... : G-2 0B . ... : --- .. . ... : ... .. . ... : ... .. . ...
ROW 06 : ... .. . ... : ... .. . ... : ... .. . ... : ... .. . ... : ... .. . ...
ROW 07 : G-2 0B . ... : F-3 0B . ... : ... .. . ... : ... .. . ... : ... .. . ...
ROW 08 : ... .. . ... : ... .. . ... : ... .. . ... : ... .. . ... : D-3 00 . ...
ROW 09 : F-3 0B . ... : A#3 0B . ... : E-3 17 . ... : A-# 1B . ... : ... .. . ...
ROW 0A : ... .. . ... : ... .. . ... : ... .. . ... : ... .. . ... : ... .. . ...
ROW 0B : C-3 0B . ... : G-3 0B . ... : ... .. . ... : ... .. . ... : ... .. . ...
ROW 0C : ... .. . ... : ... .. . ... : ... .. . ... : ... .. . ... : ... .. . ...
ROW 0D : A#3 0B . ... : G-2 0B . ... : --- .. . ... : ... .. . ... : ... .. . ...
ROW 0E : ... .. . ... : ... .. . ... : ... .. . ... : ... .. . ... : ... .. . ...
ROW 0F : G-3 0B . ... : F-3 0B . ... : ... .. . ... : ... .. . ... : ... .. . ...
ROW 10 : ... .. . ... : ... .. . ... : ... .. . ... : ... .. . ... : C-3 00 . ...
ROW 11 : G-2 0B . ... : C-3 0B . ... : E-2 17 . ... : ... .. . ... : ... .. . ...
ROW 12 : ... .. . ... : ... .. . ... : ... .. . ... : ... .. . ... : ... .. . ...
ROW 13 : F-3 0B . ... : A#3 0B . ... : ... .. . ... : ... .. . ... : ... .. . ...
ROW 14 : ... .. . ... : ... .. . ... : ... .. . ... : ... .. . ... : ... .. . ...
ROW 15 : C-3 0B . ... : G-3 0B . ... : --- .. . ... : ... .. . ... : ... .. . ...
ROW 16 : ... .. . ... : ... .. . ... : ... .. . ... : ... .. . ... : ... .. . ...
ROW 17 : A#3 0B . ... : G-2 0B . ... : ... .. . ... : ... .. . ... : ... .. . ...
ROW 18 : ... .. . ... : ... .. . ... : ... .. . ... : ... .. . ... : D-3 00 . ...
ROW 19 : G-3 0B . ... : F-3 0B . ... : E-3 17 . ... : A-# 1B . ... : ... .. . ...
ROW 1A : ... .. . ... : ... .. . ... : ... .. . ... : ... .. . ... : ... .. . ...
ROW 1B : G-2 0B . ... : A#3 0B . ... : ... .. . ... : ... .. . ... : ... .. . ...
ROW 1C : ... .. . ... : ... .. . ... : ... .. . ... : ... .. . ... : ... .. . ...
ROW 1D : F-3 0B . ... : G-3 0B . ... : --- .. . ... : ... .. . ... : ... .. . ...
ROW 1E : ... .. . ... : ... .. . ... : ... .. . ... : ... .. . ... : ... .. . ...
ROW 1F : C-3 0B . ... : G-2 0B . ... : ... .. . ... : ... .. . ... : ... .. . ...
ROW 20 : ... .. . ... : ... .. . ... : ... .. . ... : ... .. . ... : C-3 00 . ...
ROW 21 : A#3 0B . ... : F-3 0B . ... : E-2 17 . ... : ... .. . ... : ... .. . ...
ROW 22 : ... .. . ... : ... .. . ... : ... .. . ... : ... .. . ... : ... .. . ...
ROW 23 : G-3 0B . ... : C-3 0B . ... : ... .. . ... : ... .. . ... : ... .. . ...
ROW 24 : ... .. . ... : ... .. . ... : ... .. . ... : ... .. . ... : ... .. . ...
ROW 25 : G-2 0B . ... : A#3 0B . ... : --- .. . ... : ... .. . ... : ... .. . ...
ROW 26 : ... .. . ... : ... .. . ... : ... .. . ... : ... .. . ... : ... .. . ...
ROW 27 : F-3 0B . ... : G-3 0B . ... : ... .. . ... : ... .. . ... : ... .. . ...
ROW 28 : ... .. . ... : ... .. . ... : ... .. . ... : ... .. . ... : D-3 00 . ...
ROW 29 : C-3 0B . ... : G-2 0B . ... : E-3 17 . ... : A-# 1B . ... : ... .. . ...
ROW 2A : ... .. . ... : ... .. . ... : ... .. . ... : ... .. . ... : ... .. . ...
ROW 2B : A#3 0B . ... : F-3 0B . ... : ... .. . ... : ... .. . ... : ... .. . ...
ROW 2C : ... .. . ... : ... .. . ... : ... .. . ... : ... .. . ... : ... .. . ...
ROW 2D : G-3 0B . ... : A#3 0B . ... : --- .. . ... : ... .. . ... : ... .. . ...
ROW 2E : ... .. . ... : ... .. . ... : ... .. . ... : ... .. . ... : ... .. . ...
ROW 2F : G-2 0B . ... : G-3 0B . ... : ... .. . ... : ... .. . ... : ... .. . ...
ROW 30 : ... .. . ... : ... .. . ... : ... .. . ... : ... .. . ... : C-3 00 . ...
ROW 31 : F-3 0B . ... : G-2 0B . ... : E-2 17 . ... : ... .. . ... : ... .. . ...
ROW 32 : ... .. . ... : ... .. . ... : ... .. . ... : ... .. . ... : ... .. . ...
ROW 33 : C-3 0B . ... : F-3 0B . ... : ... .. . ... : ... .. . ... : ... .. . ...
ROW 34 : ... .. . ... : ... .. . ... : ... .. . ... : ... .. . ... : ... .. . ...
ROW 35 : A#3 0B . ... : C-3 0B . ... : --- .. . ... : ... .. . ... : ... .. . ...
ROW 36 : ... .. . ... : ... .. . ... : ... .. . ... : ... .. . ... : ... .. . ...
ROW 37 : G-3 0B . ... : A#3 0B . ... : ... .. . ... : ... .. . ... : ... .. . ...
ROW 38 : ... .. . ... : ... .. . ... : ... .. . ... : ... .. . ... : D-3 00 . ...
ROW 39 : G-2 0B . ... : G-3 0B . ... : E-3 17 . ... : A-# 1B . ... : ... .. . ...
ROW 3A : ... .. . ... : ... .. . ... : ... .. . ... : ... .. . ... : ... .. . ...
ROW 3B : F-3 0B . ... : G-2 0B . ... : ... .. . ... : ... .. . ... : ... .. . ...
ROW 3C : ... .. . ... : ... .. . ... : ... .. . ... : ... .. . ... : ... .. . ...
ROW 3D : C-3 0B . ... : F-3 0B . ... : --- .. . ... : ... .. . ... : ... .. . ...
ROW 3E : ... .. . ... : ... .. . ... : ... .. . ... : ... .. . ... : ... .. . ...
ROW 3F : A#3 0B . ... : A#3 0B . ... : ... .. . ... : ... .. . ... : ... .. . ...
ROW 40 : ... .. . ... : ... .. . ... : ... .. . ... : ... .. . ... : C-3 00 . ...
ROW 41 : E-3 0B . ... : E-3 0B . ... : E-2 17 . ... : ... .. . ... : ... .. . ...
ROW 42 : ... .. . ... : ... .. . ... : ... .. . ... : ... .. . ... : ... .. . ...
ROW 43 : E-2 0B . ... : E-2 0B . ... : ... .. . ... : ... .. . ... : ... .. . ...
ROW 44 : ... .. . ... : ... .. . ... : ... .. . ... : ... .. . ... : ... .. . ...
ROW 45 : D-3 0B . ... : D-3 0B . ... : --- .. . ... : ... .. . ... : ... .. . ...
ROW 46 : ... .. . ... : ... .. . ... : ... .. . ... : ... .. . ... : ... .. . ...
ROW 47 : A-2 0B . ... : A-2 0B . ... : ... .. . ... : ... .. . ... : ... .. . ...
ROW 48 : ... .. . ... : ... .. . ... : ... .. . ... : ... .. . ... : D-3 00 . ...
ROW 49 : G-3 0B . ... : G-3 0B . ... : E-3 17 . ... : A-# 1B . ... : ... .. . ...
ROW 4A : ... .. . ... : ... .. . ... : ... .. . ... : ... .. . ... : ... .. . ...
ROW 4B : E-3 0B . ... : E-3 0B . ... : ... .. . ... : ... .. . ... : ... .. . ...
ROW 4C : ... .. . ... : ... .. . ... : ... .. . ... : ... .. . ... : ... .. . ...
ROW 4D : E-2 0B . ... : E-2 0B . ... : --- .. . ... : ... .. . ... : ... .. . ...
ROW 4E : ... .. . ... : ... .. . ... : ... .. . ... : ... .. . ... : ... .. . ...
ROW 4F : D-3 0B . ... : D-3 0B . ... : ... .. . ... : ... .. . ... : ... .. . ...
ROW 50 : ... .. . ... : ... .. . ... : ... .. . ... : ... .. . ... : D-3 00 . ...
ROW 51 : A-2 0B . ... : G-3 0B . ... : D-3 17 . ... : A-# 1B . ... : ... .. . ...
ROW 52 : ... .. . ... : ... .. . ... : ... .. . ... : ... .. . ... : E-3 00 . W09
ROW 53 : G-3 0B . ... : E-3 0B . ... : A-2 17 . ... : ... .. . ... : ... .. . ...
ROW 54 : ... .. . ... : ... .. . ... : ... .. . ... : ... .. . ... : D-3 00 . ...
ROW 55 : E-3 0B . ... : E-2 0B . ... : E-3 17 . ... : A-# 1B . ... : ... .. . ...
ROW 56 : ... .. . ... : ... .. . ... : ... .. . ... : ... .. . ... : D-3 00 . ...
ROW 57 : E-2 0B . ... : D-3 0B . ... : E-2 17 . ... : A-# 1B . ... : ... .. . ...

PATTERN 22
ROW 00 : ... .. . ... : ... .. . ... : ... .. . ... : ... .. . ... : C-3 00 . ...
ROW 01 : D-3 0B . ... : A-2 0B . ... : G-2 17 . ... : ... .. . ... : ... .. . ...
ROW 02 : ... .. . ... : ... .. . ... : ... .. . ... : ... .. . ... : ... .. . ...
ROW 03 : A-2 0B . ... : G-3 0B . ... : ... .. . ... : ... .. . ... : ... .. . ...
ROW 04 : ... .. . ... : ... .. . ... : ... .. . ... : ... .. . ... : ... .. . ...
ROW 05 : G-3 0B . ... : E-3 0B . ... : --- .. . ... : ... .. . ... : ... .. . ...
ROW 06 : ... .. . ... : ... .. . ... : ... .. . ... : ... .. . ... : ... .. . ...
ROW 07 : E-3 0B . ... : E-2 0B . ... : ... .. . ... : ... .. . ... : ... .. . ...
ROW 08 : ... .. . ... : ... .. . ... : ... .. . ... : ... .. . ... : D-3 00 . ...
ROW 09 : E-2 0B . ... : D-3 0B . ... : G-3 17 . ... : A-# 1B . ... : ... .. . ...
ROW 0A : ... .. . ... : ... .. . ... : ... .. . ... : ... .. . ... : ... .. . ...
ROW 0B : D-3 0B . ... : G-3 0B . ... : ... .. . ... : ... .. . ... : ... .. . ...
ROW 0C : ... .. . ... : ... .. . ... : ... .. . ... : ... .. . ... : ... .. . ...
ROW 0D : A-2 0B . ... : E-3 0B . ... : --- .. . ... : ... .. . ... : ... .. . ...
ROW 0E : ... .. . ... : ... .. . ... : ... .. . ... : ... .. . ... : ... .. . ...
ROW 0F : G-3 0B . ... : E-2 0B . ... : ... .. . ... : ... .. . ... : ... .. . ...
ROW 10 : ... .. . ... : ... .. . ... : ... .. . ... : ... .. . ... : C-3 00 . ...
ROW 11 : E-3 0B . ... : D-3 0B . ... : G-2 17 . ... : ... .. . ... : ... .. . ...
ROW 12 : ... .. . ... : ... .. . ... : ... .. . ... : ... .. . ... : ... .. . ...
ROW 13 : E-2 0B . ... : A-2 0B . ... : ... .. . ... : ... .. . ... : ... .. . ...
ROW 14 : ... .. . ... : ... .. . ... : ... .. . ... : ... .. . ... : ... .. . ...
ROW 15 : D-3 0B . ... : G-3 0B . ... : --- .. . ... : ... .. . ... : ... .. . ...
ROW 16 : ... .. . ... : ... .. . ... : ... .. . ... : ... .. . ... : ... .. . ...
ROW 17 : A-2 0B . ... : E-3 0B . ... : ... .. . ... : ... .. . ... : ... .. . ...
ROW 18 : ... .. . ... : ... .. . ... : ... .. . ... : ... .. . ... : D-3 00 . ...
ROW 19 : G-3 0B . ... : E-2 0B . ... : G-3 17 . ... : A-# 1B . ... : ... .. . ...
ROW 1A : ... .. . ... : ... .. . ... : ... .. . ... : ... .. . ... : ... .. . ...
ROW 1B : E-3 0B . ... : D-3 0B . ... : ... .. . ... : ... .. . ... : ... .. . ...
ROW 1C : ... .. . ... : ... .. . ... : ... .. . ... : ... .. . ... : ... .. . ...
ROW 1D : E-2 0B . ... : G-3 0B . ... : --- .. . ... : ... .. . ... : ... .. . ...
ROW 1E : ... .. . ... : ... .. . ... : ... .. . ... : ... .. . ... : ... .. . ...
ROW 1F : D-3 0B . ... : E-3 0B . ... : ... .. . ... : ... .. . ... : ... .. . ...
ROW 20 : ... .. . ... : ... .. . ... : ... .. . ... : ... .. . ... : C-3 00 . ...
ROW 21 : A-2 0B . ... : E-2 0B . ... : G-2 17 . ... : ... .. . ... : ... .. . ...
ROW 22 : ... .. . ... : ... .. . ... : ... .. . ... : ... .. . ... : ... .. . ...
ROW 23 : G-3 0B . ... : D-3 0B . ... : ... .. . ... : ... .. . ... : ... .. . ...
ROW 24 : ... .. . ... : ... .. . ... : ... .. . ... : ... .. . ... : ... .. . ...
ROW 25 : E-3 0B . ... : A-2 0B . ... : --- .. . ... : ... .. . ... : ... .. . ...
ROW 26 : ... .. . ... : ... .. . ... : ... .. . ... : ... .. . ... : ... .. . ...
ROW 27 : E-2 0B . ... : G-3 0B . ... : ... .. . ... : ... .. . ... : ... .. . ...
ROW 28 : ... .. . ... : ... .. . ... : ... .. . ... : ... .. . ... : D-3 00 . ...
ROW 29 : D-3 0B . ... : E-3 0B . ... : G-3 17 . ... : A-# 1B . ... : ... .. . ...
ROW 2A : ... .. . ... : ... .. . ... : ... .. . ... : ... .. . ... : ... .. . ...
ROW 2B : A-2 0B . ... : E-2 0B . ... : ... .. . ... : ... .. . ... : ... .. . ...
ROW 2C : ... .. . ... : ... .. . ... : ... .. . ... : ... .. . ... : ... .. . ...
ROW 2D : G-3 0B . ... : D-3 0B . ... : --- .. . ... : ... .. . ... : ... .. . ...
ROW 2E : ... .. . ... : ... .. . ... : ... .. . ... : ... .. . ... : ... .. . ...
ROW 2F : E-3 0B . ... : G-3 0B . ... : ... .. . ... : ... .. . ... : ... .. . ...
ROW 30 : ... .. . ... : ... .. . ... : ... .. . ... : ... .. . ... : C-3 00 . ...
ROW 31 : E-2 0B . ... : E-3 0B . ... : G-2 17 . ... : ... .. . ... : ... .. . ...
ROW 32 : ... .. . ... : ... .. . ... : ... .. . ... : ... .. . ... : ... .. . ...
ROW 33 : D-3 0B . ... : E-2 0B . ... : ... .. . ... : ... .. . ... : ... .. . ...
ROW 34 : ... .. . ... : ... .. . ... : ... .. . ... : ... .. . ... : ... .. . ...
ROW 35 : A-2 0B . ... : D-3 0B . ... : --- .. . ... : ... .. . ... : ... .. . ...
ROW 36 : ... .. . ... : ... .. . ... : ... .. . ... : ... .. . ... : ... .. . ...
ROW 37 : G-3 0B . ... : A-2 0B . ... : ... .. . ... : ... .. . ... : ... .. . ...
ROW 38 : ... .. . ... : ... .. . ... : ... .. . ... : ... .. . ... : D-3 00 . ...
ROW 39 : E-3 0B . ... : G-3 0B . ... : G-3 17 . ... : A-# 1B . ... : ... .. . ...
ROW 3A : ... .. . ... : ... .. . ... : ... .. . ... : ... .. . ... : ... .. . ...
ROW 3B : E-2 0B . ... : E-3 0B . ... : ... .. . ... : ... .. . ... : ... .. . ...
ROW 3C : ... .. . ... : ... .. . ... : ... .. . ... : ... .. . ... : ... .. . ...
ROW 3D : D-3 0B . ... : E-2 0B . ... : --- .. . ... : ... .. . ... : ... .. . ...
ROW 3E : ... .. . ... : ... .. . ... : ... .. . ... : ... .. . ... : ... .. . ...
ROW 3F : A-2 0B . ... : D-3 0B . ... : ... .. . ... : ... .. . ... : ... .. . ...
ROW 40 : ... .. . ... : ... .. . ... : ... .. . ... : ... .. . ... : C-3 00 . ...
ROW 41 : G-3 0B . ... : G-3 0B . ... : G-2 17 . ... : ... .. . ... : ... .. . ...
ROW 42 : ... .. . ... : ... .. . ... : ... .. . ... : ... .. . ... : ... .. . ...
ROW 43 : G-3 0B . ... : G-3 0B . ... : ... .. . ... : ... .. . ... : ... .. . ...
ROW 44 : ... .. . ... : ... .. . ... : ... .. . ... : ... .. . ... : ... .. . ...
ROW 45 : G-2 0B . ... : G-2 0B . ... : --- .. . ... : ... .. . ... : ... .. . ...
ROW 46 : ... .. . ... : ... .. . ... : ... .. . ... : ... .. . ... : ... .. . ...
ROW 47 : F-3 0B . ... : F-3 0B . ... : ... .. . ... : ... .. . ... : ... .. . ...
ROW 48 : ... .. . ... : ... .. . ... : ... .. . ... : ... .. . ... : D-3 00 . ...
ROW 49 : C-3 0B . ... : C-3 0B . ... : G-3 17 . ... : A-# 1B . ... : ... .. . ...
ROW 4A : ... .. . ... : ... .. . ... : ... .. . ... : ... .. . ... : ... .. . ...
ROW 4B : A#3 0B . ... : A#3 0B . ... : ... .. . ... : ... .. . ... : ... .. . ...
ROW 4C : ... .. . ... : ... .. . ... : ... .. . ... : ... .. . ... : ... .. . ...
ROW 4D : G-3 0B . ... : G-3 0B . ... : --- .. . ... : ... .. . ... : ... .. . ...
ROW 4E : ... .. . ... : ... .. . ... : ... .. . ... : ... .. . ... : ... .. . ...
ROW 4F : G-2 0B . ... : G-2 0B . ... : ... .. . ... : ... .. . ... : ... .. . ...
ROW 50 : ... .. . ... : ... .. . ... : ... .. . ... : ... .. . ... : D-3 00 . ...
ROW 51 : F-3 0B . ... : F-3 0B . ... : F-3 17 . ... : A-# 1B . ... : ... .. . ...
ROW 52 : ... .. . ... : ... .. . ... : ... .. . ... : ... .. . ... : E-3 00 . W09
ROW 53 : C-3 0B . ... : A#3 0B . ... : C-3 17 . ... : ... .. . ... : ... .. . ...
ROW 54 : ... .. . ... : ... .. . ... : ... .. . ... : ... .. . ... : D-3 00 . ...
ROW 55 : A#3 0B . ... : G-3 0B . ... : G-3 17 . ... : A-# 1B . ... : ... .. . ...
ROW 56 : ... .. . ... : ... .. . ... : ... .. . ... : ... .. . ... : D-3 00 . ...
ROW 57 : G-3 0B . ... : G-2 0B . ... : G-2 17 . ... : A-# 1B . ... : ... .. . ...

PATTERN 23
ROW 00 : ... .. . ... : ... .. . ... : ... .. . ... : ... .. . ... : C-3 00 . ...
ROW 01 : G-2 0B . ... : F-3 0B . ... : E-2 17 . ... : ... .. . ... : ... .. . ...
ROW 02 : ... .. . ... : ... .. . ... : ... .. . ... : ... .. . ... : ... .. . ...
ROW 03 : F-3 0B . ... : C-3 0B . ... : ... .. . ... : ... .. . ... : ... .. . ...
ROW 04 : ... .. . ... : ... .. . ... : ... .. . ... : ... .. . ... : ... .. . ...
ROW 05 : C-3 0B . ... : A#3 0B . ... : --- .. . ... : ... .. . ... : ... .. . ...
ROW 06 : ... .. . ... : ... .. . ... : ... .. . ... : ... .. . ... : ... .. . ...
ROW 07 : A#3 0B . ... : G-3 0B . ... : ... .. . ... : ... .. . ... : ... .. . ...
ROW 08 : ... .. . ... : ... .. . ... : ... .. . ... : ... .. . ... : D-3 00 . ...
ROW 09 : G-3 0B . ... : G-2 0B . ... : E-3 17 . ... : A-# 1B . ... : ... .. . ...
ROW 0A : ... .. . ... : ... .. . ... : ... .. . ... : ... .. . ... : ... .. . ...
ROW 0B : G-2 0B . ... : F-3 0B . ... : ... .. . ... : ... .. . ... : ... .. . ...
ROW 0C : ... .. . ... : ... .. . ... : ... .. . ... : ... .. . ... : ... .. . ...
ROW 0D : F-3 0B . ... : A#3 0B . ... : --- .. . ... : ... .. . ... : ... .. . ...
ROW 0E : ... .. . ... : ... .. . ... : ... .. . ... : ... .. . ... : ... .. . ...
ROW 0F : C-3 0B . ... : G-3 0B . ... : ... .. . ... : ... .. . ... : ... .. . ...
ROW 10 : ... .. . ... : ... .. . ... : ... .. . ... : ... .. . ... : C-3 00 . ...
ROW 11 : A#3 0B . ... : G-2 0B . ... : E-2 17 . ... : ... .. . ... : ... .. . ...
ROW 12 : ... .. . ... : ... .. . ... : ... .. . ... : ... .. . ... : ... .. . ...
ROW 13 : G-3 0B . ... : F-3 0B . ... : ... .. . ... : ... .. . ... : ... .. . ...
ROW 14 : ... .. . ... : ... .. . ... : ... .. . ... : ... .. . ... : ... .. . ...
ROW 15 : G-2 0B . ... : C-3 0B . ... : --- .. . ... : ... .. . ... : ... .. . ...
ROW 16 : ... .. . ... : ... .. . ... : ... .. . ... : ... .. . ... : ... .. . ...
ROW 17 : F-3 0B . ... : A#3 0B . ... : ... .. . ... : ... .. . ... : ... .. . ...
ROW 18 : ... .. . ... : ... .. . ... : ... .. . ... : ... .. . ... : D-3 00 . ...
ROW 19 : C-3 0B . ... : G-3 0B . ... : E-3 17 . ... : A-# 1B . ... : ... .. . ...
ROW 1A : ... .. . ... : ... .. . ... : ... .. . ... : ... .. . ... : ... .. . ...
ROW 1B : A#3 0B . ... : G-2 0B . ... : ... .. . ... : ... .. . ... : ... .. . ...
ROW 1C : ... .. . ... : ... .. . ... : ... .. . ... : ... .. . ... : ... .. . ...
ROW 1D : G-3 0B . ... : F-3 0B . ... : --- .. . ... : ... .. . ... : ... .. . ...
ROW 1E : ... .. . ... : ... .. . ... : ... .. . ... : ... .. . ... : ... .. . ...
ROW 1F : G-2 0B . ... : A#3 0B . ... : ... .. . ... : ... .. . ... : ... .. . ...
ROW 20 : ... .. . ... : ... .. . ... : ... .. . ... : ... .. . ... : C-3 00 . ...
ROW 21 : F-3 0B . ... : G-3 0B . ... : E-2 17 . ... : ... .. . ... : ... .. . ...
ROW 22 : ... .. . ... : ... .. . ... : ... .. . ... : ... .. . ... : ... .. . ...
ROW 23 : C-3 0B . ... : G-2 0B . ... : ... .. . ... : ... .. . ... : ... .. . ...
ROW 24 : ... .. . ... : ... .. . ... : ... .. . ... : ... .. . ... : ... .. . ...
ROW 25 : A#3 0B . ... : F-3 0B . ... : --- .. . ... : ... .. . ... : ... .. . ...
ROW 26 : ... .. . ... : ... .. . ... : ... .. . ... : ... .. . ... : ... .. . ...
ROW 27 : G-3 0B . ... : C-3 0B . ... : ... .. . ... : ... .. . ... : ... .. . ...
ROW 28 : ... .. . ... : ... .. . ... : ... .. . ... : ... .. . ... : D-3 00 . ...
ROW 29 : G-2 0B . ... : A#3 0B . ... : E-3 17 . ... : A-# 1B . ... : ... .. . ...
ROW 2A : ... .. . ... : ... .. . ... : ... .. . ... : ... .. . ... : ... .. . ...
ROW 2B : F-3 0B . ... : G-3 0B . ... : ... .. . ... : ... .. . ... : ... .. . ...
ROW 2C : ... .. . ... : ... .. . ... : ... .. . ... : ... .. . ... : ... .. . ...
ROW 2D : C-3 0B . ... : G-2 0B . ... : --- .. . ... : ... .. . ... : ... .. . ...
ROW 2E : ... .. . ... : ... .. . ... : ... .. . ... : ... .. . ... : ... .. . ...
ROW 2F : A#3 0B . ... : F-3 0B . ... : ... .. . ... : ... .. . ... : ... .. . ...
ROW 30 : ... .. . ... : ... .. . ... : ... .. . ... : ... .. . ... : C-3 00 . ...
ROW 31 : G-3 0B . ... : A#3 0B . ... : E-2 17 . ... : ... .. . ... : ... .. . ...
ROW 32 : ... .. . ... : ... .. . ... : ... .. . ... : ... .. . ... : ... .. . ...
ROW 33 : G-2 0B . ... : G-3 0B . ... : ... .. . ... : ... .. . ... : ... .. . ...
ROW 34 : ... .. . ... : ... .. . ... : ... .. . ... : ... .. . ... : ... .. . ...
ROW 35 : F-3 0B . ... : G-2 0B . ... : --- .. . ... : ... .. . ... : ... .. . ...
ROW 36 : ... .. . ... : ... .. . ... : ... .. . ... : ... .. . ... : ... .. . ...
ROW 37 : C-3 0B . ... : F-3 0B . ... : ... .. . ... : ... .. . ... : ... .. . ...
ROW 38 : ... .. . ... : ... .. . ... : ... .. . ... : ... .. . ... : D-3 00 . ...
ROW 39 : A#3 0B . ... : C-3 0B . ... : E-3 17 . ... : A-# 1B . ... : ... .. . ...
ROW 3A : ... .. . ... : ... .. . ... : ... .. . ... : ... .. . ... : ... .. . ...
ROW 3B : G-3 0B . ... : A#3 0B . ... : ... .. . ... : ... .. . ... : ... .. . ...
ROW 3C : ... .. . ... : ... .. . ... : ... .. . ... : ... .. . ... : ... .. . ...
ROW 3D : G-2 0B . ... : G-3 0B . ... : --- .. . ... : ... .. . ... : ... .. . ...
ROW 3E : ... .. . ... : ... .. . ... : ... .. . ... : ... .. . ... : ... .. . ...
ROW 3F : F-3 0B . ... : G-2 0B . ... : ... .. . ... : ... .. . ... : ... .. . ...
ROW 40 : ... .. . ... : ... .. . ... : ... .. . ... : ... .. . ... : C-3 00 . ...
ROW 41 : C-3 0B . ... : F-3 0B . ... : E-2 17 . ... : ... .. . ... : ... .. . ...
ROW 42 : ... .. . ... : ... .. . ... : ... .. . ... : ... .. . ... : ... .. . ...
ROW 43 : A#3 0B . ... : A#3 0B . ... : ... .. . ... : ... .. . ... : ... .. . ...
ROW 44 : ... .. . ... : ... .. . ... : ... .. . ... : ... .. . ... : ... .. . ...
ROW 45 : E-3 0B . ... : E-3 0B . ... : --- .. . ... : ... .. . ... : ... .. . ...
ROW 46 : ... .. . ... : ... .. . ... : ... .. . ... : ... .. . ... : ... .. . ...
ROW 47 : E-2 0B . ... : E-2 0B . ... : ... .. . ... : ... .. . ... : ... .. . ...
ROW 48 : ... .. . ... : ... .. . ... : ... .. . ... : ... .. . ... : D-3 00 . ...
ROW 49 : D-3 0B . ... : D-3 0B . ... : E-3 17 . ... : A-# 1B . ... : ... .. . ...
ROW 4A : ... .. . ... : ... .. . ... : ... .. . ... : ... .. . ... : ... .. . ...
ROW 4B : A-2 0B . ... : A-2 0B . ... : ... .. . ... : ... .. . ... : ... .. . ...
ROW 4C : ... .. . ... : ... .. . ... : ... .. . ... : ... .. . ... : ... .. . ...
ROW 4D : G-3 0B . ... : G-3 0B . ... : --- .. . ... : ... .. . ... : ... .. . ...
ROW 4E : ... .. . ... : ... .. . ... : ... .. . ... : ... .. . ... : ... .. . ...
ROW 4F : E-3 0B . ... : E-3 0B . ... : ... .. . ... : ... .. . ... : ... .. . ...
ROW 50 : ... .. . ... : ... .. . ... : ... .. . ... : ... .. . ... : D-3 00 . ...
ROW 51 : E-2 0B . ... : E-2 0B . ... : D-3 17 . ... : A-# 1B . ... : ... .. . ...
ROW 52 : ... .. . ... : ... .. . ... : ... .. . ... : ... .. . ... : E-3 00 . W09
ROW 53 : D-3 0B . ... : D-3 0B . ... : A-2 17 . ... : ... .. . ... : ... .. . ...
ROW 54 : ... .. . ... : ... .. . ... : ... .. . ... : ... .. . ... : D-3 00 . ...
ROW 55 : A-2 0B . ... : G-3 0B . ... : E-3 17 . ... : A-# 1B . ... : ... .. . ...
ROW 56 : ... .. . ... : ... .. . ... : ... .. . ... : ... .. . ... : D-3 00 . ...
ROW 57 : G-3 0B . ... : E-3 0B . ... : E-2 17 . ... : A-# 1B . ... : ... .. . ...

PATTERN 24
ROW 00 : ... .. . ... : ... .. . ... : ... .. . ... : ... .. . ... : C-3 00 . ...
ROW 01 : E-3 0B . ... : E-2 0B . ... : G-2 17 . ... : ... .. . ... : ... .. . ...
ROW 02 : ... .. . ... : ... .. . ... : ... .. . ... : ... .. . ... : ... .. . ...
ROW 03 : E-2 0B . ... : D-3 0B . ... : ... .. . ... : ... .. . ... : ... .. . ...
ROW 04 : ... .. . ... : ... .. . ... : ... .. . ... : ... .. . ... : ... .. . ...
ROW 05 : D-3 0B . ... : A-2 0B . ... : --- .. . ... : ... .. . ... : ... .. . ...
ROW 06 : ... .. . ... : ... .. . ... : ... .. . ... : ... .. . ... : ... .. . ...
ROW 07 : A-2 0B . ... : G-3 0B . ... : ... .. . ... : ... .. . ... : ... .. . ...
ROW 08 : ... .. . ... : ... .. . ... : ... .. . ... : ... .. . ... : D-3 00 . ...
ROW 09 : G-3 0B . ... : E-3 0B . ... : G-3 17 . ... : A-# 1B . ... : ... .. . ...
ROW 0A : ... .. . ... : ... .. . ... : ... .. . ... : ... .. . ... : ... .. . ...
ROW 0B : E-3 0B . ... : E-2 0B . ... : ... .. . ... : ... .. . ... : ... .. . ...
ROW 0C : ... .. . ... : ... .. . ... : ... .. . ... : ... .. . ... : ... .. . ...
ROW 0D : E-2 0B . ... : D-3 0B . ... : --- .. . ... : ... .. . ... : ... .. . ...
ROW 0E : ... .. . ... : ... .. . ... : ... .. . ... : ... .. . ... : ... .. . ...
ROW 0F : D-3 0B . ... : G-3 0B . ... : ... .. . ... : ... .. . ... : ... .. . ...
ROW 10 : ... .. . ... : ... .. . ... : ... .. . ... : ... .. . ... : C-3 00 . ...
ROW 11 : A-2 0B . ... : E-3 0B . ... : G-2 17 . ... : ... .. . ... : ... .. . ...
ROW 12 : ... .. . ... : ... .. . ... : ... .. . ... : ... .. . ... : ... .. . ...
ROW 13 : G-3 0B . ... : E-2 0B . ... : ... .. . ... : ... .. . ... : ... .. . ...
ROW 14 : ... .. . ... : ... .. . ... : ... .. . ... : ... .. . ... : ... .. . ...
ROW 15 : E-3 0B . ... : D-3 0B . ... : --- .. . ... : ... .. . ... : ... .. . ...
ROW 16 : ... .. . ... : ... .. . ... : ... .. . ... : ... .. . ... : ... .. . ...
ROW 17 : E-2 0B . ... : A-2 0B . ... : ... .. . ... : ... .. . ... : ... .. . ...
ROW 18 : ... .. . ... : ... .. . ... : ... .. . ... : ... .. . ... : D-3 00 . ...
ROW 19 : D-3 0B . ... : G-3 0B . ... : G-3 17 . ... : A-# 1B . ... : ... .. . ...
ROW 1A : ... .. . ... : ... .. . ... : ... .. . ... : ... .. . ... : ... .. . ...
ROW 1B : A-2 0B . ... : E-3 0B . ... : ... .. . ... : ... .. . ... : ... .. . ...
ROW 1C : ... .. . ... : ... .. . ... : ... .. . ... : ... .. . ... : ... .. . ...
ROW 1D : G-3 0B . ... : E-2 0B . ... : --- .. . ... : ... .. . ... : ... .. . ...
ROW 1E : ... .. . ... : ... .. . ... : ... .. . ... : ... .. . ... : ... .. . ...
ROW 1F : E-3 0B . ... : D-3 0B . ... : ... .. . ... : ... .. . ... : ... .. . ...
ROW 20 : ... .. . ... : ... .. . ... : ... .. . ... : ... .. . ... : C-3 00 . ...
ROW 21 : E-2 0B . ... : G-3 0B . ... : G-2 17 . ... : ... .. . ... : ... .. . ...
ROW 22 : ... .. . ... : ... .. . ... : ... .. . ... : ... .. . ... : ... .. . ...
ROW 23 : D-3 0B . ... : E-3 0B . ... : ... .. . ... : ... .. . ... : ... .. . ...
ROW 24 : ... .. . ... : ... .. . ... : ... .. . ... : ... .. . ... : ... .. . ...
ROW 25 : A-2 0B . ... : E-2 0B . ... : --- .. . ... : ... .. . ... : ... .. . ...
ROW 26 : ... .. . ... : ... .. . ... : ... .. . ... : ... .. . ... : ... .. . ...
ROW 27 : G-3 0B . ... : D-3 0B . ... : ... .. . ... : ... .. . ... : ... .. . ...
ROW 28 : ... .. . ... : ... .. . ... : ... .. . ... : ... .. . ... : D-3 00 . ...
ROW 29 : E-3 0B . ... : A-2 0B . ... : G-3 17 . ... : A-# 1B . ... : ... .. . ...
ROW 2A : ... .. . ... : ... .. . ... : ... .. . ... : ... .. . ... : ... .. . ...
ROW 2B : E-2 0B . ... : G-3 0B . ... : ... .. . ... : ... .. . ... : ... .. . ...
ROW 2C : ... .. . ... : ... .. . ... : ... .. . ... : ... .. . ... : ... .. . ...
ROW 2D : D-3 0B . ... : E-3 0B . ... : --- .. . ... : ... .. . ... : ... .. . ...
ROW 2E : ... .. . ... : ... .. . ... : ... .. . ... : ... .. . ... : ... .. . ...
ROW 2F : A-2 0B . ... : E-2 0B . ... : ... .. . ... : ... .. . ... : ... .. . ...
ROW 30 : ... .. . ... : ... .. . ... : ... .. . ... : ... .. . ... : C-3 00 . ...
ROW 31 : G-3 0B . ... : D-3 0B . ... : G-2 17 . ... : ... .. . ... : ... .. . ...
ROW 32 : ... .. . ... : ... .. . ... : ... .. . ... : ... .. . ... : ... .. . ...
ROW 33 : E-3 0B . ... : G-3 0B . ... : ... .. . ... : ... .. . ... : ... .. . ...
ROW 34 : ... .. . ... : ... .. . ... : ... .. . ... : ... .. . ... : ... .. . ...
ROW 35 : E-2 0B . ... : E-3 0B . ... : --- .. . ... : ... .. . ... : ... .. . ...
ROW 36 : ... .. . ... : ... .. . ... : ... .. . ... : ... .. . ... : ... .. . ...
ROW 37 : D-3 0B . ... : E-2 0B . ... : ... .. . ... : ... .. . ... : ... .. . ...
ROW 38 : ... .. . ... : ... .. . ... : ... .. . ... : ... .. . ... : D-3 00 . ...
ROW 39 : A-2 0B . ... : D-3 0B . ... : G-3 17 . ... : A-# 1B . ... : ... .. . ...
ROW 3A : ... .. . ... : ... .. . ... : ... .. . ... : ... .. . ... : ... .. . ...
ROW 3B : G-3 0B . ... : A-2 0B . ... : ... .. . ... : ... .. . ... : ... .. . ...
ROW 3C : ... .. . ... : ... .. . ... : ... .. . ... : ... .. . ... : ... .. . ...
ROW 3D : E-3 0B . ... : G-3 0B . ... : --- .. . ... : ... .. . ... : ... .. . ...
ROW 3E : ... .. . ... : ... .. . ... : ... .. . ... : ... .. . ... : ... .. . ...
ROW 3F : E-2 0B . ... : E-3 0B . ... : ... .. . ... : ... .. . ... : ... .. . ...
ROW 40 : ... .. . ... : ... .. . ... : ... .. . ... : ... .. . ... : C-3 00 . ...
ROW 41 : D-3 0B . ... : E-2 0B . ... : G-2 17 . ... : ... .. . ... : ... .. . ...
ROW 42 : ... .. . ... : ... .. . ... : ... .. . ... : ... .. . ... : ... .. . ...
ROW 43 : A-2 0B . ... : D-3 0B . ... : ... .. . ... : ... .. . ... : ... .. . ...
ROW 44 : ... .. . ... : ... .. . ... : ... .. . ... : ... .. . ... : ... .. . ...
ROW 45 : G-3 0B . ... : G-3 0B . ... : --- .. . ... : ... .. . ... : ... .. . ...
ROW 46 : ... .. . ... : ... .. . ... : ... .. . ... : ... .. . ... : ... .. . ...
ROW 47 : G-3 0B . ... : G-3 0B . ... : ... .. . ... : ... .. . ... : ... .. . ...
ROW 48 : ... .. . ... : ... .. . ... : ... .. . ... : ... .. . ... : D-3 00 . ...
ROW 49 : G-2 0B . ... : G-2 0B . ... : G-3 17 . ... : A-# 1B . ... : ... .. . ...
ROW 4A : ... .. . ... : ... .. . ... : ... .. . ... : ... .. . ... : ... .. . ...
ROW 4B : F-3 0B . ... : F-3 0B . ... : ... .. . ... : ... .. . ... : ... .. . ...
ROW 4C : ... .. . ... : ... .. . ... : ... .. . ... : ... .. . ... : ... .. . ...
ROW 4D : C-3 0B . ... : C-3 0B . ... : --- .. . ... : ... .. . ... : ... .. . ...
ROW 4E : ... .. . ... : ... .. . ... : ... .. . ... : ... .. . ... : ... .. . ...
ROW 4F : A#3 0B . ... : A#3 0B . ... : ... .. . ... : ... .. . ... : ... .. . ...
ROW 50 : ... .. . ... : ... .. . ... : ... .. . ... : ... .. . ... : D-3 00 . ...
ROW 51 : G-3 0B . ... : G-3 0B . ... : F-3 17 . ... : A-# 1B . ... : ... .. . ...
ROW 52 : ... .. . ... : ... .. . ... : ... .. . ... : ... .. . ... : E-3 00 . W09
ROW 53 : G-2 0B . ... : G-2 0B . ... : C-3 17 . ... : ... .. . ... : ... .. . ...
ROW 54 : ... .. . ... : ... .. . ... : ... .. . ... : ... .. . ... : D-3 00 . ...
ROW 55 : F-3 0B . ... : F-3 0B . ... : G-3 17 . ... : A-# 1B . ... : ... .. . ...
ROW 56 : ... .. . ... : ... .. . ... : ... .. . ... : ... .. . ... : D-3 00 . ...
ROW 57 : C-3 0B . ... : A#3 0B . ... : G-2 17 . ... : A-# 1B . ... : ... .. . ...

PATTERN 25
ROW 00 : ... .. . ... : ... .. . ... : ... .. . ... : ... .. . ... : C-3 00 . ...
ROW 01 : A#3 0B . ... : G-3 0B . ... : E-2 17 . ... : ... .. . ... : ... .. . ...
ROW 02 : ... .. . ... : ... .. . ... : ... .. . ... : ... .. . ... : ... .. . ...
ROW 03 : G-3 0B . ... : G-2 0B . ... : ... .. . ... : ... .. . ... : ... .. . ...
ROW 04 : ... .. . ... : ... .. . ... : ... .. . ... : ... .. . ... : ... .. . ...
ROW 05 : G-2 0B . ... : F-3 0B . ... : --- .. . ... : ... .. . ... : ... .. . ...
ROW 06 : ... .. . ... : ... .. . ... : ... .. . ... : ... .. . ... : ... .. . ...
ROW 07 : F-3 0B . ... : C-3 0B . ... : ... .. . ... : ... .. . ... : ... .. . ...
ROW 08 : ... .. . ... : ... .. . ... : ... .. . ... : ... .. . ... : D-3 00 . ...
ROW 09 : C-3 0B . ... : A#3 0B . ... : E-3 17 . ... : A-# 1B . ... : ... .. . ...
ROW 0A : ... .. . ... : ... .. . ... : ... .. . ... : ... .. . ... : ... .. . ...
ROW 0B : A#3 0B . ... : G-3 0B . ... : ... .. . ... : ... .. . ... : ... .. . ...
ROW 0C : ... .. . ... : ... .. . ... : ... .. . ... : ... .. . ... : ... .. . ...
ROW 0D : G-3 0B . ... : G-2 0B . ... : --- .. . ... : ... .. . ... : ... .. . ...
ROW 0E : ... .. . ... : ... .. . ... : ... .. . ... : ... .. . ... : ... .. . ...
ROW 0F : G-2 0B . ... : F-3 0B . ... : ... .. . ... : ... .. . ... : ... .. . ...
ROW 10 : ... .. . ... : ... .. . ... : ... .. . ... : ... .. . ... : C-3 00 . ...
ROW 11 : F-3 0B . ... : A#3 0B . ... : E-2 17 . ... : ... .. . ... : ... .. . ...
ROW 12 : ... .. . ... : ... .. . ... : ... .. . ... : ... .. . ... : ... .. . ...
ROW 13 : C-3 0B . ... : G-3 0B . ... : ... .. . ... : ... .. . ... : ... .. . ...
ROW 14 : ... .. . ... : ... .. . ... : ... .. . ... : ... .. . ... : ... .. . ...
ROW 15 : A#3 0B . ... : G-2 0B . ... : --- .. . ... : ... .. . ... : ... .. . ...
ROW 16 : ... .. . ... : ... .. . ... : ... .. . ... : ... .. . ... : ... .. . ...
ROW 17 : G-3 0B . ... : F-3 0B . ... : ... .. . ... : ... .. . ... : ... .. . ...
ROW 18 : ... .. . ... : ... .. . ... : ... .. . ... : ... .. . ... : D-3 00 . ...
ROW 19 : G-2 0B . ... : C-3 0B . ... : E-3 17 . ... : A-# 1B . ... : ... .. . ...
ROW 1A : ... .. . ... : ... .. . ... : ... .. . ... : ... .. . ... : ... .. . ...
ROW 1B : F-3 0B . ... : A#3 0B . ... : ... .. . ... : ... .. . ... : ... .. . ...
ROW 1C : ... .. . ... : ... .. . ... : ... .. . ... : ... .. . ... : ... .. . ...
ROW 1D : C-3 0B . ... : G-3 0B . ... : --- .. . ... : ... .. . ... : ... .. . ...
ROW 1E : ... .. . ... : ... .. . ... : ... .. . ... : ... .. . ... : ... .. . ...
ROW 1F : A#3 0B . ... : G-2 0B . ... : ... .. . ... : ... .. . ... : ... .. . ...
ROW 20 : ... .. . ... : ... .. . ... : ... .. . ... : ... .. . ... : C-3 00 . ...
ROW 21 : G-3 0B . ... : F-3 0B . ... : E-2 17 . ... : ... .. . ... : ... .. . ...
ROW 22 : ... .. . ... : ... .. . ... : ... .. . ... : ... .. . ... : ... .. . ...
ROW 23 : G-2 0B . ... : A#3 0B . ... : ... .. . ... : ... .. . ... : ... .. . ...
ROW 24 : ... .. . ... : ... .. . ... : ... .. . ... : ... .. . ... : ... .. . ...
ROW 25 : F-3 0B . ... : G-3 0B . ... : --- .. . ... : ... .. . ... : ... .. . ...
ROW 26 : ... .. . ... : ... .. . ... : ... .. . ... : ... .. . ... : ... .. . ...
ROW 27 : C-3 0B . ... : G-2 0B . ... : ... .. . ... : ... .. . ... : ... .. . ...
ROW 28 : ... .. . ... : ... .. . ... : ... .. . ... : ... .. . ... : D-3 00 . ...
ROW 29 : A#3 0B . ... : F-3 0B . ... : E-3 17 . ... : A-# 1B . ... : ... .. . ...
ROW 2A : ... .. . ... : ... .. . ... : ... .. . ... : ... .. . ... : ... .. . ...
ROW 2B : G-3 0B . ... : C-3 0B . ... : ... .. . ... : ... .. . ... : ... .. . ...
ROW 2C : ... .. . ... : ... .. . ... : ... .. . ... : ... .. . ... : ... .. . ...
ROW 2D : G-2 0B . ... : A#3 0B . ... : --- .. . ... : ... .. . ... : ... .. . ...
ROW 2E : ... .. . ... : ... .. . ... : ... .. . ... : ... .. . ... : ... .. . ...
ROW 2F : F-3 0B . ... : G-3 0B . ... : ... .. . ... : ... .. . ... : ... .. . ...
ROW 30 : ... .. . ... : ... .. . ... : ... .. . ... : ... .. . ... : C-3 00 . ...
ROW 31 : C-3 0B . ... : G-2 0B . ... : E-2 17 . ... : ... .. . ... : ... .. . ...
ROW 32 : ... .. . ... : ... .. . ... : ... .. . ... : ... .. . ... : ... .. . ...
ROW 33 : A#3 0B . ... : F-3 0B . ... : ... .. . ... : ... .. . ... : ... .. . ...
ROW 34 : ... .. . ... : ... .. . ... : ... .. . ... : ... .. . ... : ... .. . ...
ROW 35 : G-3 0B . ... : A#3 0B . ... : --- .. . ... : ... .. . ... : ... .. . ...
ROW 36 : ... .. . ... : ... .. . ... : ... .. . ... : ... .. . ... : ... .. . ...
ROW 37 : G-2 0B . ... : G-3 0B . ... : ... .. . ... : ... .. . ... : ... .. . ...
ROW 38 : ... .. . ... : ... .. . ... : ... .. . ... : ... .. . ... : D-3 00 . ...
ROW 39 : F-3 0B . ... : G-2 0B . ... : E-3 17 . ... : A-# 1B . ... : ... .. . ...
ROW 3A : ... .. . ... : ... .. . ... : ... .. . ... : ... .. . ... : ... .. . ...
ROW 3B : C-3 0B . ... : F-3 0B . ... : ... .. . ... : ... .. . ... : ... .. . ...
ROW 3C : ... .. . ... : ... .. . ... : ... .. . ... : ... .. . ... : ... .. . ...
ROW 3D : A#3 0B . ... : C-3 0B . ... : --- .. . ... : ... .. . ... : ... .. . ...
ROW 3E : ... .. . ... : ... .. . ... : ... .. . ... : ... .. . ... : ... .. . ...
ROW 3F : G-3 0B . ... : A#3 0B . ... : ... .. . ... : ... .. . ... : ... .. . ...
ROW 40 : ... .. . ... : ... .. . ... : ... .. . ... : ... .. . ... : C-3 00 . ...
ROW 41 : G-2 0B . ... : G-3 0B . ... : E-2 17 . ... : ... .. . ... : ... .. . ...
ROW 42 : ... .. . ... : ... .. . ... : ... .. . ... : ... .. . ... : ... .. . ...
ROW 43 : F-3 0B . ... : G-2 0B . ... : ... .. . ... : ... .. . ... : ... .. . ...
ROW 44 : ... .. . ... : ... .. . ... : ... .. . ... : ... .. . ... : ... .. . ...
ROW 45 : C-3 0B . ... : F-3 0B . ... : --- .. . ... : ... .. . ... : ... .. . ...
ROW 46 : ... .. . ... : ... .. . ... : ... .. . ... : ... .. . ... : ... .. . ...
ROW 47 : A#3 0B . ... : A#3 0B . ... : ... .. . ... : ... .. . ... : ... .. . ...
ROW 48 : ... .. . ... : ... .. . ... : ... .. . ... : ... .. . ... : D-3 00 . ...
ROW 49 : E-3 0B . ... : E-3 0B . ... : E-3 17 . ... : A-# 1B . ... : ... .. . ...
ROW 4A : ... .. . ... : ... .. . ... : ... .. . ... : ... .. . ... : ... .. . ...
ROW 4B : E-2 0B . ... : E-2 0B . ... : ... .. . ... : ... .. . ... : ... .. . ...
ROW 4C : ... .. . ... : ... .. . ... : ... .. . ... : ... .. . ... : ... .. . ...
ROW 4D : D-3 0B . ... : D-3 0B . ... : --- .. . ... : ... .. . ... : ... .. . ...
ROW 4E : ... .. . ... : ... .. . ... : ... .. . ... : ... .. . ... : ... .. . ...
ROW 4F : A-2 0B . ... : A-2 0B . ... : ... .. . ... : ... .. . ... : ... .. . ...
ROW 50 : ... .. . ... : ... .. . ... : ... .. . ... : ... .. . ... : D-3 00 . ...
ROW 51 : G-3 0B . ... : G-3 0B . ... : D-3 17 . ... : A-# 1B . ... : ... .. . ...
ROW 52 : ... .. . ... : ... .. . ... : ... .. . ... : ... .. . ... : E-3 00 . W09
ROW 53 : E-3 0B . ... : E-3 0B . ... : A-2 17 . ... : ... .. . ... : ... .. . ...
ROW 54 : ... .. . ... : ... .. . ... : ... .. . ... : ... .. . ... : D-3 00 . ...
ROW 55 : E-2 0B . ... : E-2 0B . ... : E-3 17 . ... : A-# 1B . ... : ... .. . ...
ROW 56 : ... .. . ... : ... .. . ... : ... .. . ... : ... .. . ... : D-3 00 . ...
ROW 57 : D-3 0B . ... : D-3 0B . ... : E-2 17 . ... : A-# 1B . ... : ... .. . ...

PATTERN 26
ROW 00 : ... .. . ... : ... .. . ... : ... .. . ... : ... .. . ... : C-3 00 . ...
ROW 01 : A-2 0B . ... : G-3 0B . ... : G-2 17 . ... : ... .. . ... : ... .. . ...
ROW 02 : ... .. . ... : ... .. . ... : ... .. . ... : ... .. . ... : ... .. . ...
ROW 03 : G-3 0B . ... : E-3 0B . ... : ... .. . ... : ... .. . ... : ... .. . ...
ROW 04 : ... .. . ... : ... .. . ... : ... .. . ... : ... .. . ... : ... .. . ...
ROW 05 : E-3 0B . ... : E-2 0B . ... : --- .. . ... : ... .. . ... : ... .. . ...
ROW 06 : ... .. . ... : ... .. . ... : ... .. . ... : ... .. . ... : ... .. . ...
ROW 07 : E-2 0B . ... : D-3 0B . ... : ... .. . ... : ... .. . ... : ... .. . ...
ROW 08 : ... .. . ... : ... .. . ... : ... .. . ... : ... .. . ... : D-3 00 . ...
ROW 09 : D-3 0B . ... : A-2 0B . ... : G-3 17 . ... : A-# 1B . ... : ... .. . ...
ROW 0A : ... .. . ... : ... .. . ... : ... .. . ... : ... .. . ... : ... .. . ...
ROW 0B : A-2 0B . ... : G-3 0B . ... : ... .. . ... : ... .. . ... : ... .. . ...
ROW 0C : ... .. . ... : ... .. . ... : ... .. . ... : ... .. . ... : ... .. . ...
ROW 0D : G-3 0B . ... : E-3 0B . ... : --- .. . ... : ... .. . ... : ... .. . ...
ROW 0E : ... .. . ... : ... .. . ... : ... .. . ... : ... .. . ... : ... .. . ...
ROW 0F : E-3 0B . ... : E-2 0B . ... : ... .. . ... : ... .. . ... : ... .. . ...
ROW 10 : ... .. . ... : ... .. . ... : ... .. . ... : ... .. . ... : C-3 00 . ...
ROW 11 : E-2 0B . ... : D-3 0B . ... : G-2 17 . ... : ... .. . ... : ... .. . ...
ROW 12 : ... .. . ... : ... .. . ... : ... .. . ... : ... .. . ... : ... .. . ...
ROW 13 : D-3 0B . ... : G-3 0B . ... : ... .. . ... : ... .. . ... : ... .. . ...
ROW 14 : ... .. . ... : ... .. . ... : ... .. . ... : ... .. . ... : ... .. . ...
ROW 15 : A-2 0B . ... : E-3 0B . ... : --- .. . ... : ... .. . ... : ... .. . ...
ROW 16 : ... .. . ... : ... .. . ... : ... .. . ... : ... .. . ... : ... .. . ...
ROW 17 : G-3 0B . ... : E-2 0B . ... : ... .. . ... : ... .. . ... : ... .. . ...
ROW 18 : ... .. . ... : ... .. . ... : ... .. . ... : ... .. . ... : D-3 00 . ...
ROW 19 : E-3 0B . ... : D-3 0B . ... : G-3 17 . ... : A-# 1B . ... : ... .. . ...
ROW 1A : ... .. . ... : ... .. . ... : ... .. . ... : ... .. . ... : ... .. . ...
ROW 1B : E-2 0B . ... : A-2 0B . ... : ... .. . ... : ... .. . ... : ... .. . ...
ROW 1C : ... .. . ... : ... .. . ... : ... .. . ... : ... .. . ... : ... .. . ...
ROW 1D : D-3 0B . ... : G-3 0B . ... : --- .. . ... : ... .. . ... : ... .. . ...
ROW 1E : ... .. . ... : ... .. . ... : ... .. . ... : ... .. . ... : ... .. . ...
ROW 1F : A-2 0B . ... : E-3 0B . ... : ... .. . ... : ... .. . ... : ... .. . ...
ROW 20 : ... .. . ... : ... .. . ... : ... .. . ... : ... .. . ... : C-3 00 . ...
ROW 21 : G-3 0B . ... : E-2 0B . ... : G-2 17 . ... : ... .. . ... : ... .. . ...
ROW 22 : ... .. . ... : ... .. . ... : ... .. . ... : ... .. . ... : ... .. . ...
ROW 23 : E-3 0B . ... : D-3 0B . ... : ... .. . ... : ... .. . ... : ... .. . ...
ROW 24 : ... .. . ... : ... .. . ... : ... .. . ... : ... .. . ... : ... .. . ...
ROW 25 : E-2 0B . ... : G-3 0B . ... : --- .. . ... : ... .. . ... : ... .. . ...
ROW 26 : ... .. . ... : ... .. . ... : ... .. . ... : ... .. . ... : ... .. . ...
ROW 27 : D-3 0B . ... : E-3 0B . ... : ... .. . ... : ... .. . ... : ... .. . ...
ROW 28 : ... .. . ... : ... .. . ... : ... .. . ... : ... .. . ... : D-3 00 . ...
ROW 29 : A-2 0B . ... : E-2 0B . ... : G-3 17 . ... : A-# 1B . ... : ... .. . ...
ROW 2A : ... .. . ... : ... .. . ... : ... .. . ... : ... .. . ... : ... .. . ...
ROW 2B : G-3 0B . ... : D-3 0B . ... : ... .. . ... : ... .. . ... : ... .. . ...
ROW 2C : ... .. . ... : ... .. . ... : ... .. . ... : ... .. . ... : ... .. . ...
ROW 2D : E-3 0B . ... : A-2 0B . ... : --- .. . ... : ... .. . ... : ... .. . ...
ROW 2E : ... .. . ... : ... .. . ... : ... .. . ... : ... .. . ... : ... .. . ...
ROW 2F : E-2 0B . ... : G-3 0B . ... : ... .. . ... : ... .. . ... : ... .. . ...
ROW 30 : ... .. . ... : ... .. . ... : ... .. . ... : ... .. . ... : C-3 00 . ...
ROW 31 : D-3 0B . ... : E-3 0B . ... : G-2 17 . ... : ... .. . ... : ... .. . ...
ROW 32 : ... .. . ... : ... .. . ... : ... .. . ... : ... .. . ... : ... .. . ...
ROW 33 : A-2 0B . ... : E-2 0B . ... : ... .. . ... : ... .. . ... : ... .. . ...
ROW 34 : ... .. . ... : ... .. . ... : ... .. . ... : ... .. . ... : ... .. . ...
ROW 35 : G-3 0B . ... : D-3 0B . ... : --- .. . ... : ... .. . ... : ... .. . ...
ROW 36 : ... .. . ... : ... .. . ... : ... .. . ... : ... .. . ... : ... .. . ...
ROW 37 : E-3 0B . ... : G-3 0B . ... : ... .. . ... : ... .. . ... : ... .. . ...
ROW 38 : ... .. . ... : ... .. . ... : ... .. . ... : ... .. . ... : D-3 00 . ...
ROW 39 : E-2 0B . ... : E-3 0B . ... : G-3 17 . ... : A-# 1B . ... : ... .. . ...
ROW 3A : ... .. . ... : ... .. . ... : ... .. . ... : ... .. . ... : ... .. . ...
ROW 3B : D-3 0B . ... : E-2 0B . ... : ... .. . ... : ... .. . ... : ... .. . ...
ROW 3C : ... .. . ... : ... .. . ... : ... .. . ... : ... .. . ... : ... .. . ...
ROW 3D : A-2 0B . ... : D-3 0B . ... : --- .. . ... : ... .. . ... : ... .. . ...
ROW 3E : ... .. . ... : ... .. . ... : ... .. . ... : ... .. . ... : ... .. . ...
ROW 3F : G-3 0B . ... : A-2 0B . ... : ... .. . ... : ... .. . ... : ... .. . ...
ROW 40 : ... .. . ... : ... .. . ... : ... .. . ... : ... .. . ... : C-3 00 . ...
ROW 41 : E-3 0B . ... : G-3 0B . ... : G-2 17 . ... : ... .. . ... : ... .. . ...
ROW 42 : ... .. . ... : ... .. . ... : ... .. . ... : ... .. . ... : ... .. . ...
ROW 43 : E-2 0B . ... : E-3 0B . ... : ... .. . ... : ... .. . ... : ... .. . ...
ROW 44 : ... .. . ... : ... .. . ... : ... .. . ... : ... .. . ... : ... .. . ...
ROW 45 : D-3 0B . ... : E-2 0B . ... : --- .. . ... : ... .. . ... : ... .. . ...
ROW 46 : ... .. . ... : ... .. . ... : ... .. . ... : ... .. . ... : ... .. . ...
ROW 47 : A-2 0B . ... : D-3 0B . ... : ... .. . ... : ... .. . ... : ... .. . ...
ROW 48 : ... .. . ... : ... .. . ... : ... .. . ... : ... .. . ... : D-3 00 . ...
ROW 49 : G-3 0B . ... : G-3 0B . ... : G-3 17 . ... : A-# 1B . ... : ... .. . ...
ROW 4A : ... .. . ... : ... .. . ... : ... .. . ... : ... .. . ... : ... .. . ...
ROW 4B : G-3 0B . ... : G-3 0B . ... : ... .. . ... : ... .. . ... : ... .. . ...
ROW 4C : ... .. . ... : ... .. . ... : ... .. . ... : ... .. . ... : ... .. . ...
ROW 4D : G-2 0B . ... : G-2 0B . ... : --- .. . ... : ... .. . ... : ... .. . ...
ROW 4E : ... .. . ... : ... .. . ... : ... .. . ... : ... .. . ... : ... .. . ...
ROW 4F : F-3 0B . ... : F-3 0B . ... : ... .. . ... : ... .. . ... : ... .. . ...
ROW 50 : ... .. . ... : ... .. . ... : ... .. . ... : ... .. . ... : D-3 00 . ...
ROW 51 : C-3 0B . ... : C-3 0B . ... : F-3 17 . ... : A-# 1B . ... : ... .. . ...
ROW 52 : ... .. . ... : ... .. . ... : ... .. . ... : ... .. . ... : E-3 00 . W09
ROW 53 : A#3 0B . ... : A#3 0B . ... : C-3 17 . ... : ... .. . ... : ... .. . ...
ROW 54 : ... .. . ... : ... .. . ... : ... .. . ... : ... .. . ... : D-3 00 . ...
ROW 55 : G-3 0B . ... : G-3 0B . ... : G-3 17 . ... : A-# 1B . ... : ... .. . ...
ROW 56 : ... .. . ... : ... .. . ... : ... .. . ... : ... .. . ... : D-3 00 . ...
ROW 57 : G-2 0B . ... : G-2 0B . ... : G-2 17 . ... : A-# 1B . ... : ... .. . ...

PATTERN 27
ROW 00 : ... .. . ... : ... .. . ... : ... .. . ... : ... .. . ... : C-3 00 . ...
ROW 01 : F-3 0B . ... : F-3 0B . ... : E-2 17 . ... : ... .. . ... : ... .. . ...
ROW 02 : ... .. . ... : ... .. . ... : ... .. . ... : ... .. . ... : ... .. . ...
ROW 03 : C-3 0B . ... : A#3 0B . ... : ... .. . ... : ... .. . ... : ... .. . ...
ROW 04 : ... .. . ... : ... .. . ... : ... .. . ... : ... .. . ... : ... .. . ...
ROW 05 : A#3 0B . ... : G-3 0B . ... : --- .. . ... : ... .. . ... : ... .. . ...
ROW 06 : ... .. . ... : ... .. . ... : ... .. . ... : ... .. . ... : ... .. . ...
ROW 07 : G-3 0B . ... : G-2 0B . ... : ... .. . ... : ... .. . ... : ... .. . ...
ROW 08 : ... .. . ... : ... .. . ... : ... .. . ... : ... .. . ... : D-3 00 . ...
ROW 09 : G-2 0B . ... : F-3 0B . ... : E-3 17 . ... : A-# 1B . ... : ... .. . ...
ROW 0A : ... .. . ... : ... .. . ... : ... .. . ... : ... .. . ... : ... .. . ...
ROW 0B : F-3 0B . ... : C-3 0B . ... : ... .. . ... : ... .. . ... : ... .. . ...
ROW 0C : ... .. . ... : ... .. . ... : ... .. . ... : ... .. . ... : ... .. . ...
ROW 0D : C-3 0B . ... : A#3 0B . ... : --- .. . ... : ... .. . ... : ... .. . ...
ROW 0E : ... .. . ... : ... .. . ... : ... .. . ... : ... .. . ... : ... .. . ...
ROW 0F : A#3 0B . ... : G-3 0B . ... : ... .. . ... : ... .. . ... : ... .. . ...
ROW 10 : ... .. . ... : ... .. . ... : ... .. . ... : ... .. . ... : C-3 00 . ...
ROW 11 : G-3 0B . ... : G-2 0B . ... : E-2 17 . ... : ... .. . ... : ... .. . ...
ROW 12 : ... .. . ... : ... .. . ... : ... .. . ... : ... .. . ... : ... .. . ...
ROW 13 : G-2 0B . ... : F-3 0B . ... : ... .. . ... : ... .. . ... : ... .. . ...
ROW 14 : ... .. . ... : ... .. . ... : ... .. . ... : ... .. . ... : ... .. . ...
ROW 15 : F-3 0B . ... : A#3 0B . ... : --- .. . ... : ... .. . ... : ... .. . ...
ROW 16 : ... .. . ... : ... .. . ... : ... .. . ... : ... .. . ... : ... .. . ...
ROW 17 : C-3 0B . ... : G-3 0B . ... : ... .. . ... : ... .. . ... : ... .. . ...
ROW 18 : ... .. . ... : ... .. . ... : ... .. . ... : ... .. . ... : D-3 00 . ...
ROW 19 : A#3 0B . ... : G-2 0B . ... : E-3 17 . ... : A-# 1B . ... : ... .. . ...
ROW 1A : ... .. . ... : ... .. . ... : ... .. . ... : ... .. . ... : ... .. . ...
ROW 1B : G-3 0B . ... : F-3 0B . ... : ... .. . ... : ... .. . ... : ... .. . ...
ROW 1C : ... .. . ... : ... .. . ... : ... .. . ... : ... .. . ... : ... .. . ...
ROW 1D : G-2 0B . ... : C-3 0B . ... : --- .. . ... : ... .. . ... : ... .. . ...
ROW 1E : ... .. . ... : ... .. . ... : ... .. . ... : ... .. . ... : ... .. . ...
ROW 1F : F-3 0B . ... : A#3 0B . ... : ... .. . ... : ... .. . ... : ... .. . ...
ROW 20 : ... .. . ... : ... .. . ... : ... .. . ... : ... .. . ... : C-3 00 . ...
ROW 21 : C-3 0B . ... : G-3 0B . ... : E-2 17 . ... : ... .. . ... : ... .. . ...
ROW 22 : ... .. . ... : ... .. . ... : ... .. . ... : ... .. . ... : ... .. . ...
ROW 23 : A#3 0B . ... : G-2 0B . ... : ... .. . ... : ... .. . ... : ... .. . ...
ROW 24 : ... .. . ... : ... .. . ... : ... .. . ... : ... .. . ... : ... .. . ...
ROW 25 : G-3 0B . ... : F-3 0B . ... : --- .. . ... : ... .. . ... : ... .. . ...
ROW 26 : ... .. . ... : ... .. . ... : ... .. . ... : ... .. . ... : ... .. . ...
ROW 27 : G-2 0B . ... : A#3 0B . ... : ... .. . ... : ... .. . ... : ... .. . ...
ROW 28 : ... .. . ... : ... .. . ... : ... .. . ... : ... .. . ... : D-3 00 . ...
ROW 29 : F-3 0B . ... : G-3 0B . ... : E-3 17 . ... : A-# 1B . ... : ... .. . ...
ROW 2A : ... .. . ... : ... .. . ... : ... .. . ... : ... .. . ... : ... .. . ...
ROW 2B : C-3 0B . ... : G-2 0B . ... : ... .. . ... : ... .. . ... : ... .. . ...
ROW 2C : ... .. . ... : ... .. . ... : ... .. . ... : ... .. . ... : ... .. . ...
ROW 2D : A#3 0B . ... : F-3 0B . ... : --- .. . ... : ... .. . ... : ... .. . ...
ROW 2E : ... .. . ... : ... .. . ... : ... .. . ... : ... .. . ... : ... .. . ...
ROW 2F : G-3 0B . ... : C-3 0B . ... : ... .. . ... : ... .. . ... : ... .. . ...
ROW 30 : ... .. . ... : ... .. . ... : ... .. . ... : ... .. . ... : C-3 00 . ...
ROW 31 : G-2 0B . ... : A#3 0B . ... : E-2 17 . ... : ... .. . ... : ... .. . ...
ROW 32 : ... .. . ... : ... .. . ... : ... .. . ... : ... .. . ... : ... .. . ...
ROW 33 : F-3 0B . ... : G-3 0B . ... : ... .. . ... : ... .. . ... : ... .. . ...
ROW 34 : ... .. . ... : ... .. . ... : ... .. . ... : ... .. . ... : ... .. . ...
ROW 35 : C-3 0B . ... : G-2 0B . ... : --- .. . ... : ... .. . ... : ... .. . ...
ROW 36 : ... .. . ... : ... .. . ... : ... .. . ... : ... .. . ... : ... .. . ...
ROW 37 : A#3 0B . ... : F-3 0B . ... : ... .. . ... : ... .. . ... : ... .. . ...
ROW 38 : ... .. . ... : ... .. . ... : ... .. . ... : ... .. . ... : D-3 00 . ...
ROW 39 : G-3 0B . ... : A#3 0B . ... : E-3 17 . ... : A-# 1B . ... : ... .. . ...
ROW 3A : ... .. . ... : ... .. . ... : ... .. . ... : ... .. . ... : ... .. . ...
ROW 3B : G-2 0B . ... : G-3 0B . ... : ... .. . ... : ... .. . ... : ... .. . ...
ROW 3C : ... .. . ... : ... .. . ... : ... .. . ... : ... .. . ... : ... .. . ...
ROW 3D : F-3 0B . ... : G-2 0B . ... : --- .. . ... : ... .. . ... : ... .. . ...
ROW 3E : ... .. . ... : ... .. . ... : ... .. . ... : ... .. . ... : ... .. . ...
ROW 3F : C-3 0B . ... : F-3 0B . ... : ... .. . ... : ... .. . ... : ... .. . ...
ROW 40 : ... .. . ... : ... .. . ... : ... .. . ... : ... .. . ... : C-3 00 . ...
ROW 41 : A#3 0B . ... : C-3 0B . ... : E-2 17 . ... : ... .. . ... : ... .. . ...
ROW 42 : ... .. . ... : ... .. . ... : ... .. . ... : ... .. . ... : ... .. . ...
ROW 43 : G-3 0B . ... : A#3 0B . ... : ... .. . ... : ... .. . ... : ... .. . ...
ROW 44 : ... .. . ... : ... .. . ... : ... .. . ... : ... .. . ... : ... .. . ...
ROW 45 : G-2 0B . ... : G-3 0B . ... : --- .. . ... : ... .. . ... : ... .. . ...
ROW 46 : ... .. . ... : ... .. . ... : ... .. . ... : ... .. . ... : ... .. . ...
ROW 47 : F-3 0B . ... : G-2 0B . ... : ... .. . ... : ... .. . ... : ... .. . ...
ROW 48 : ... .. . ... : ... .. . ... : ... .. . ... : ... .. . ... : D-3 00 . ...
ROW 49 : C-3 0B . ... : F-3 0B . ... : E-3 17 . ... : A-# 1B . ... : ... .. . ...
ROW 4A : ... .. . ... : ... .. . ... : ... .. . ... : ... .. . ... : ... .. . ...
ROW 4B : A#3 0B . ... : A#3 0B . ... : ... .. . ... : ... .. . ... : ... .. . ...
ROW 4C : ... .. . ... : ... .. . ... : ... .. . ... : ... .. . ... : ... .. . ...
ROW 4D : E-3 0B . ... : E-3 0B . ... : --- .. . ... : ... .. . ... : ... .. . ...
ROW 4E : ... .. . ... : ... .. . ... : ... .. . ... : ... .. . ... : ... .. . ...
ROW 4F : E-2 0B . ... : E-2 0B . ... : ... .. . ... : ... .. . ... : ... .. . ...
ROW 50 : ... .. . ... : ... .. . ... : ... .. . ... : ... .. . ... : D-3 00 . ...
ROW 51 : D-3 0B . ... : D-3 0B . ... : D-3 17 . ... : A-# 1B . ... : ... .. . ...
ROW 52 : ... .. . ... : ... .. . ... : ... .. . ... : ... .. . ... : E-3 00 . W09
ROW 53 : A-2 0B . ... : A-2 0B . ... : A-2 17 . ... : ... .. . ... : ... .. . ...
ROW 54 : ... .. . ... : ... .. . ... : ... .. . ... : ... .. . ... : D-3 00 . ...
ROW 55 : G-3 0B . ... : G-3 0B . ... : E-3 17 . ... : A-# 1B . ... : ... .. . ...
ROW 56 : ... .. . ... : ... .. . ... : ... .. . ... : ... .. . ... : D-3 00 . ...
ROW 57 : E-3 0B . ... : E-3 0B . ... : E-2 17 . ... : A-# 1B . ... : ... .. . ...

PATTERN 28
ROW 00 : ... .. . ... : ... .. . ... : ... .. . ... : ... .. . ... : C-3 00 . ...
ROW 01 : E-2 0B . ... : E-2 0B . ... : G-2 17 . ... : ... .. . ... : ... .. . ...
ROW 02 : ... .. . ... : ... .. . ... : ... .. . ... : ... .. . ... : ... .. . ...
ROW 03 : D-3 0B . ... : D-3 0B . ... : ... .. . ... : ... .. . ... : ... .. . ...
ROW 04 : ... .. . ... : ... .. . ... : ... .. . ... : ... .. . ... : ... .. . ...
ROW 05 : A-2 0B . ... : G-3 0B . ... : --- .. . ... : ... .. . ... : ... .. . ...
ROW 06 : ... .. . ... : ... .. . ... : ... .. . ... : ... .. . ... : ... .. . ...
ROW 07 : G-3 0B . ... : E-3 0B . ... : ... .. . ... : ... .. . ... : ... .. . ...
ROW 08 : ... .. . ... : ... .. . ... : ... .. . ... : ... .. . ... : D-3 00 . ...
ROW 09 : E-3 0B . ... : E-2 0B . ... : G-3 17 . ... : A-# 1B . ... : ... .. . ...
ROW 0A : ... .. . ... : ... .. . ... : ... .. . ... : ... .. . ... : ... .. . ...
ROW 0B : E-2 0B . ... : D-3 0B . ... : ... .. . ... : ... .. . ... : ... .. . ...
ROW 0C : ... .. . ... : ... .. . ... : ... .. . ... : ... .. . ... : ... .. . ...
ROW 0D : D-3 0B . ... : A-2 0B . ... : --- .. . ... : ... .. . ... : ... .. . ...
ROW 0E : ... .. . ... : ... .. . ... : ... .. . ... : ... .. . ... : ... .. . ...
ROW 0F : A-2 0B . ... : G-3 0B . ... : ... .. . ... : ... .. . ... : ... .. . ...
ROW 10 : ... .. . ... : ... .. . ... : ... .. . ... : ... .. . ... : C-3 00 . ...
ROW 11 : G-3 0B . ... : E-3 0B . ... : G-2 17 . ... : ... .. . ... : ... .. . ...
ROW 12 : ... .. . ... : ... .. . ... : ... .. . ... : ... .. . ... : ... .. . ...
ROW 13 : E-3 0B . ... : E-2 0B . ... : ... .. . ... : ... .. . ... : ... .. . ...
ROW 14 : ... .. . ... : ... .. . ... : ... .. . ... : ... .. . ... : ... .. . ...
ROW 15 : E-2 0B . ... : D-3 0B . ... : --- .. . ... : ... .. . ... : ... .. . ...
ROW 16 : ... .. . ... : ... .. . ... : ... .. . ... : ... .. . ... : ... .. . ...
ROW 17 : D-3 0B . ... : G-3 0B . ... : ... .. . ... : ... .. . ... : ... .. . ...
ROW 18 : ... .. . ... : ... .. . ... : ... .. . ... : ... .. . ... : D-3 00 . ...
ROW 19 : A-2 0B . ... : E-3 0B . ... : G-3 17 . ... : A-# 1B . ... : ... .. . ...
ROW 1A : ... .. . ... : ... .. . ... : ... .. . ... : ... .. . ... : ... .. . ...
ROW 1B : G-3 0B . ... : E-2 0B . ... : ... .. . ... : ... .. . ... : ... .. . ...
ROW 1C : ... .. . ... : ... .. . ... : ... .. . ... : ... .. . ... : ... .. . ...
ROW 1D : E-3 0B . ... : D-3 0B . ... : --- .. . ... : ... .. . ... : ... .. . ...
ROW 1E : ... .. . ... : ... .. . ... : ... .. . ... : ... .. . ... : ... .. . ...
ROW 1F : E-2 0B . ... : A-2 0B . ... : ... .. . ... : ... .. . ... : ... .. . ...
ROW 20 : ... .. . ... : ... .. . ... : ... .. . ... : ... .. . ... : C-3 00 . ...
ROW 21 : D-3 0B . ... : G-3 0B . ... : G-2 17 . ... : ... .. . ... : ... .. . ...
ROW 22 : ... .. . ... : ... .. . ... : ... .. . ... : ... .. . ... : ... .. . ...
ROW 23 : A-2 0B . ... : E-3 0B . ... : ... .. . ... : ... .. . ... : ... .. . ...
ROW 24 : ... .. . ... : ... .. . ... : ... .. . ... : ... .. . ... : ... .. . ...
ROW 25 : G-3 0B . ... : E-2 0B . ... : --- .. . ... : ... .. . ... : ... .. . ...
ROW 26 : ... .. . ... : ... .. . ... : ... .. . ... : ... .. . ... : ... .. . ...
ROW 27 : E-3 0B . ... : D-3 0B . ... : ... .. . ... : ... .. . ... : ... .. . ...
ROW 28 : ... .. . ... : ... .. . ... : ... .. . ... : ... .. . ... : D-3 00 . ...
ROW 29 : E-2 0B . ... : G-3 0B . ... : G-3 17 . ... : A-# 1B . ... : ... .. . ...
ROW 2A : ... .. . ... : ... .. . ... : ... .. . ... : ... .. . ... : ... .. . ...
ROW 2B : D-3 0B . ... : E-3 0B . ... : ... .. . ... : ... .. . ... : ... .. . ...
ROW 2C : ... .. . ... : ... .. . ... : ... .. . ... : ... .. . ... : ... .. . ...
ROW 2D : A-2 0B . ... : E-2 0B . ... : --- .. . ... : ... .. . ... : ... .. . ...
ROW 2E : ... .. . ... : ... .. . ... : ... .. . ... : ... .. . ... : ... .. . ...
ROW 2F : G-3 0B . ... : D-3 0B . ... : ... .. . ... : ... .. . ... : ... .. . ...
ROW 30 : ... .. . ... : ... .. . ... : ... .. . ... : ... .. . ... : C-3 00 . ...
ROW 31 : E-3 0B . ... : A-2 0B . ... : G-2 17 . ... : ... .. . ... : ... .. . ...
ROW 32 : ... .. . ... : ... .. . ... : ... .. . ... : ... .. . ... : ... .. . ...
ROW 33 : E-2 0B . ... : G-3 0B . ... : ... .. . ... : ... .. . ... : ... .. . ...
ROW 34 : ... .. . ... : ... .. . ... : ... .. . ... : ... .. . ... : ... .. . ...
ROW 35 : D-3 0B . ... : E-3 0B . ... : --- .. . ... : ... .. . ... : ... .. . ...
ROW 36 : ... .. . ... : ... .. . ... : ... .. . ... : ... .. . ... : ... .. . ...
ROW 37 : A-2 0B . ... : E-2 0B . ... : ... .. . ... : ... .. . ... : ... .. . ...
ROW 38 : ... .. . ... : ... .. . ... : ... .. . ... : ... .. . ... : D-3 00 . ...
ROW 39 : G-3 0B . ... : D-3 0B . ... : G-3 17 . ... : A-# 1B . ... : ... .. . ...
ROW 3A : ... .. . ... : ... .. . ... : ... .. . ... : ... .. . ... : ... .. . ...
ROW 3B : E-3 0B . ... : G-3 0B . ... : ... .. . ... : ... .. . ... : ... .. . ...
ROW 3C : ... .. . ... : ... .. . ... : ... .. . ... : ... .. . ... : ... .. . ...
ROW 3D : E-2 0B . ... : E-3 0B . ... : --- .. . ... : ... .. . ... : ... .. . ...
ROW 3E : ... .. . ... : ... .. . ... : ... .. . ... : ... .. . ... : ... .. . ...
ROW 3F : D-3 0B . ... : E-2 0B . ... : ... .. . ... : ... .. . ... : ... .. . ...
ROW 40 : ... .. . ... : ... .. . ... : ... .. . ... : ... .. . ... : C-3 00 . ...
ROW 41 : A-2 0B . ... : D-3 0B . ... : G-2 17 . ... : ... .. . ... : ... .. . ...
ROW 42 : ... .. . ... : ... .. . ... : ... .. . ... : ... .. . ... : ... .. . ...
ROW 43 : G-3 0B . ... : A-2 0B . ... : ... .. . ... : ... .. . ... : ... .. . ...
ROW 44 : ... .. . ... : ... .. . ... : ... .. . ... : ... .. . ... : ... .. . ...
ROW 45 : E-3 0B . ... : G-3 0B . ... : --- .. . ... : ... .. . ... : ... .. . ...
ROW 46 : ... .. . ... : ... .. . ... : ... .. . ... : ... .. . ... : ... .. . ...
ROW 47 : E-2 0B . ... : E-3 0B . ... : ... .. . ... : ... .. . ... : ... .. . ...
ROW 48 : ... .. . ... : ... .. . ... : ... .. . ... : ... .. . ... : D-3 00 . ...
ROW 49 : D-3 0B . ... : E-2 0B . ... : G-3 17 . ... : A-# 1B . ... : ... .. . ...
ROW 4A : ... .. . ... : ... .. . ... : ... .. . ... : ... .. . ... : ... .. . ...
ROW 4B : A-2 0B . ... : D-3 0B . ... : ... .. . ... : ... .. . ... : ... .. . ...
ROW 4C : ... .. . ... : ... .. . ... : ... .. . ... : ... .. . ... : ... .. . ...
ROW 4D : G-3 0B . ... : G-3 0B . ... : --- .. . ... : ... .. . ... : ... .. . ...
ROW 4E : ... .. . ... : ... .. . ... : ... .. . ... : ... .. . ... : ... .. . ...
ROW 4F : G-3 0B . ... : G-3 0B . ... : ... .. . ... : ... .. . ... : ... .. . ...
ROW 50 : ... .. . ... : ... .. . ... : ... .. . ... : ... .. . ... : D-3 00 . ...
ROW 51 : G-2 0B . ... : G-2 0B . ... : F-3 17 . ... : A-# 1B . ... : ... .. . ...
ROW 52 : ... .. . ... : ... .. . ... : ... .. . ... : ... .. . ... : E-3 00 . W09
ROW 53 : F-3 0B . ... : F-3 0B . ... : C-3 17 . ... : ... .. . ... : ... .. . ...
ROW 54 : ... .. . ... : ... .. . ... : ... .. . ... : ... .. . ... : D-3 00 . ...
ROW 55 : C-3 0B . ... : C-3 0B . ... : G-3 17 . ... : A-# 1B . ... : ... .. . ...
ROW 56 : ... .. . ... : ... .. . ... : ... .. . ... : ... .. . ... : D-3 00 . ...
ROW 57 : A#3 0B . ... : A#3 0B . ... : G-2 17 . ... : A-# 1B . ... : ... .. . ...

PATTERN 29
ROW 00 : ... .. . ... : ... .. . ... : ... .. . ... : ... .. . ... : C-3 00 . ...
ROW 01 : G-3 0B . ... : G-3 0B . ... : E-2 17 . ... : ... .. . ... : ... .. . ...
ROW 02 : ... .. . ... : ... .. . ... : ... .. . ... : ... .. . ... : ... .. . ...
ROW 03 : G-2 0B . ... : G-2 0B . ... : ... .. . ... : ... .. . ... : ... .. . ...
ROW 04 : ... .. . ... : ... .. . ... : ... .. . ... : ... .. . ... : ... .. . ...
ROW 05 : F-3 0B . ... : F-3 0B . ... : --- .. . ... : ... .. . ... : ... .. . ...
ROW 06 : ... .. . ... : ... .. . ... : ... .. . ... : ... .. . ... : ... .. . ...
ROW 07 : C-3 0B . ... : A#3 0B . ... : ... .. . ... : ... .. . ... : ... .. . ...
ROW 08 : ... .. . ... : ... .. . ... : ... .. . ... : ... .. . ... : D-3 00 . ...
ROW 09 : A#3 0B . ... : G-3 0B . ... : E-3 17 . ... : A-# 1B . ... : ... .. . ...
ROW 0A : ... .. . ... : ... .. . ... : ... .. . ... : ... .. . ... : ... .. . ...
ROW 0B : G-3 0B . ... : G-2 0B . ... : ... .. . ... : ... .. . ... : ... .. . ...
ROW 0C : ... .. . ... : ... .. . ... : ... .. . ... : ... .. . ... : ... .. . ...
ROW 0D : G-2 0B . ... : F-3 0B . ... : --- .. . ... : ... .. . ... : ... .. . ...
ROW 0E : ... .. . ... : ... .. . ... : ... .. . ... : ... .. . ... : ... .. . ...
ROW 0F : F-3 0B . ... : C-3 0B . ... : ... .. . ... : ... .. . ... : ... .. . ...
ROW 10 : ... .. . ... : ... .. . ... : ... .. . ... : ... .. . ... : C-3 00 . ...
ROW 11 : C-3 0B . ... : A#3 0B . ... : E-2 17 . ... : ... .. . ... : ... .. . ...
ROW 12 : ... .. . ... : ... .. . ... : ... .. . ... : ... .. . ... : ... .. . ...
ROW 13 : A#3 0B . ... : G-3 0B . ... : ... .. . ... : ... .. . ... : ... .. . ...
ROW 14 : ... .. . ... : ... .. . ... : ... .. . ... : ... .. . ... : ... .. . ...
ROW 15 : G-3 0B . ... : G-2 0B . ... : --- .. . ... : ... .. . ... : ... .. . ...
ROW 16 : ... .. . ... : ... .. . ... : ... .. . ... : ... .. . ... : ... .. . ...
ROW 17 : G-2 0B . ... : F-3 0B . ... : ... .. . ... : ... .. . ... : ... .. . ...
ROW 18 : ... .. . ... : ... .. . ... : ... .. . ... : ... .. . ... : D-3 00 . ...
ROW 19 : F-3 0B . ... : A#3 0B . ... : E-3 17 . ... : A-# 1B . ... : ... .. . ...
ROW 1A : ... .. . ... : ... .. . ... : ... .. . ... : ... .. . ... : ... .. . ...
ROW 1B : C-3 0B . ... : G-3 0B . ... : ... .. . ... : ... .. . ... : ... .. . ...
ROW 1C : ... .. . ... : ... .. . ... : ... .. . ... : ... .. . ... : ... .. . ...
ROW 1D : A#3 0B . ... : G-2 0B . ... : --- .. . ... : ... .. . ... : ... .. . ...
ROW 1E : ... .. . ... : ... .. . ... : ... .. . ... : ... .. . ... : ... .. . ...
ROW 1F : G-3 0B . ... : F-3 0B . ... : ... .. . ... : ... .. . ... : ... .. . ...
ROW 20 : ... .. . ... : ... .. . ... : ... .. . ... : ... .. . ... : C-3 00 . ...
ROW 21 : G-2 0B . ... : C-3 0B . ... : E-2 17 . ... : ... .. . ... : ... .. . ...
ROW 22 : ... .. . ... : ... .. . ... : ... .. . ... : ... .. . ... : ... .. . ...
ROW 23 : F-3 0B . ... : A#3 0B . ... : ... .. . ... : ... .. . ... : ... .. . ...
ROW 24 : ... .. . ... : ... .. . ... : ... .. . ... : ... .. . ... : ... .. . ...
ROW 25 : C-3 0B . ... : G-3 0B . ... : --- .. . ... : ... .. . ... : ... .. . ...
ROW 26 : ... .. . ... : ... .. . ... : ... .. . ... : ... .. . ... : ... .. . ...
ROW 27 : A#3 0B . ... : G-2 0B . ... : ... .. . ... : ... .. . ... : ... .. . ...
ROW 28 : ... .. . ... : ... .. . ... : ... .. . ... : ... .. . ... : D-3 00 . ...
ROW 29 : G-3 0B . ... : F-3 0B . ... : E-3 17 . ... : A-# 1B . ... : ... .. . ...
ROW 2A : ... .. . ... : ... .. . ... : ... .. . ... : ... .. . ... : ... .. . ...
ROW 2B : G-2 0B . ... : A#3 0B . ... : ... .. . ... : ... .. . ... : ... .. . ...
ROW 2C : ... .. . ... : ... .. . ... : ... .. . ... : ... .. . ... : ... .. . ...
ROW 2D : F-3 0B . ... : G-3 0B . ... : --- .. . ... : ... .. . ... : ... .. . ...
ROW 2E : ... .. . ... : ... .. . ... : ... .. . ... : ... .. . ... : ... .. . ...
ROW 2F : C-3 0B . ... : G-2 0B . ... : ... .. . ... : ... .. . ... : ... .. . ...
ROW 30 : ... .. . ... : ... .. . ... : ... .. . ... : ... .. . ... : C-3 00 . ...
ROW 31 : A#3 0B . ... : F-3 0B . ... : E-2 17 . ... : ... .. . ... : ... .. . ...
ROW 32 : ... .. . ... : ... .. . ... : ... .. . ... : ... .. . ... : ... .. . ...
ROW 33 : G-3 0B . ... : C-3 0B . ... : ... .. . ... : ... .. . ... : ... .. . ...
ROW 34 : ... .. . ... : ... .. . ... : ... .. . ... : ... .. . ... : ... .. . ...
ROW 35 : G-2 0B . ... : A#3 0B . ... : --- .. . ... : ... .. . ... : ... .. . ...
ROW 36 : ... .. . ... : ... .. . ... : ... .. . ... : ... .. . ... : ... .. . ...
ROW 37 : F-3 0B . ... : G-3 0B . ... : ... .. . ... : ... .. . ... : ... .. . ...
ROW 38 : ... .. . ... : ... .. . ... : ... .. . ... : ... .. . ... : D-3 00 . ...
ROW 39 : C-3 0B . ... : G-2 0B . ... : E-3 17 . ... : A-# 1B . ... : ... .. . ...
ROW 3A : ... .. . ... : ... .. . ... : ... .. . ... : ... .. . ... : ... .. . ...
ROW 3B : A#3 0B . ... : F-3 0B . ... : ... .. . ... : ... .. . ... : ... .. . ...
ROW 3C : ... .. . ... : ... .. . ... : ... .. . ... : ... .. . ... : ... .. . ...
ROW 3D : G-3 0B . ... : A#3 0B . ... : --- .. . ... : ... .. . ... : ... .. . ...
ROW 3E : ... .. . ... : ... .. . ... : ... .. . ... : ... .. . ... : ... .. . ...
ROW 3F : G-2 0B . ... : G-3 0B . ... : ... .. . ... : ... .. . ... : ... .. . ...
ROW 40 : ... .. . ... : ... .. . ... : ... .. . ... : ... .. . ... : C-3 00 . ...
ROW 41 : F-3 0B . ... : G-2 0B . ... : E-2 17 . ... : ... .. . ... : ... .. . ...
ROW 42 : ... .. . ... : ... .. . ... : ... .. . ... : ... .. . ... : ... .. . ...
ROW 43 : C-3 0B . ... : F-3 0B . ... : ... .. . ... : ... .. . ... : ... .. . ...
ROW 44 : ... .. . ... : ... .. . ... : ... .. . ... : ... .. . ... : ... .. . ...
ROW 45 : A#3 0B . ... : C-3 0B . ... : --- .. . ... : ... .. . ... : ... .. . ...
ROW 46 : ... .. . ... : ... .. . ... : ... .. . ... : ... .. . ... : ... .. . ...
ROW 47 : G-3 0B . ... : A#3 0B . ... : ... .. . ... : ... .. . ... : ... .. . ...
ROW 48 : ... .. . ... : ... .. . ... : ... .. . ... : ... .. . ... : D-3 00 . ...
ROW 49 : G-2 0B . ... : G-3 0B . ... : E-3 17 . ... : A-# 1B . ... : ... .. . ...
ROW 4A : ... .. . ... : ... .. . ... : ... .. . ... : ... .. . ... : ... .. . ...
ROW 4B : F-3 0B . ... : G-2 0B . ... : ... .. . ... : ... .. . ... : ... .. . ...
ROW 4C : ... .. . ... : ... .. . ... : ... .. . ... : ... .. . ... : ... .. . ...
ROW 4D : C-3 0B . ... : F-3 0B . ... : --- .. . ... : ... .. . ... : ... .. . ...
ROW 4E : ... .. . ... : ... .. . ... : ... .. . ... : ... .. . ... : ... .. . ...
ROW 4F : A#3 0B . ... : A#3 0B . ... : ... .. . ... : ... .. . ... : ... .. . ...
ROW 50 : ... .. . ... : ... .. . ... : ... .. . ... : ... .. . ... : D-3 00 . ...
ROW 51 : E-3 0B . ... : E-3 0B . ... : D-3 17 . ... : A-# 1B . ... : ... .. . ...
ROW 52 : ... .. . ... : ... .. . ... : ... .. . ... : ... .. . ... : E-3 00 . W09
ROW 53 : E-2 0B . ... : E-2 0B . ... : A-2 17 . ... : ... .. . ... : ... .. . ...
ROW 54 : ... .. . ... : ... .. . ... : ... .. . ... : ... .. . ... : D-3 00 . ...
ROW 55 : D-3 0B . ... : D-3 0B . ... : E-3 17 . ... : A-# 1B . ... : ... .. . ...
ROW 56 : ... .. . ... : ... .. . ... : ... .. . ... : ... .. . ... : D-3 00 . ...
ROW 57 : A-2 0B . ... : A-2 0B . ... : E-2 17 . ... : A-# 1B . ... : ... .. . ...

PATTERN 2A
ROW 00 : ... .. . ... : ... .. . ... : ... .. . ... : ... .. . ... : C-3 00 . ...
ROW 01 : G-3 0B . ... : G-3 0B . ... : G-2 17 . ... : ... .. . ... : ... .. . ...
ROW 02 : ... .. . ... : ... .. . ... : ... .. . ... : ... .. . ... : ... .. . ...
ROW 03 : E-3 0B . ... : E-3 0B . ... : ... .. . ... : ... .. . ... : ... .. . ...
ROW 04 : ... .. . ... : ... .. . ... : ... .. . ... : ... .. . ... : ... .. . ...
ROW 05 : E-2 0B . ... : E-2 0B . ... : --- .. . ... : ... .. . ... : ... .. . ...
ROW 06 : ... .. . ... : ... .. . ... : ... .. . ... : ... .. . ... : ... .. . ...
ROW 07 : D-3 0B . ... : D-3 0B . ... : ... .. . ... : ... .. . ... : ... .. . ...
ROW 08 : ... .. . ... : ... .. . ... : ... .. . ... : ... .. . ... : D-3 00 . ...
ROW 09 : A-2 0B . ... : G-3 0B . ... : G-3 17 . ... : A-# 1B . ... : ... .. . ...
ROW 0A : ... .. . ... : ... .. . ... : ... .. . ... : ... .. . ... : ... .. . ...
ROW 0B : G-3 0B . ... : E-3 0B . ... : ... .. . ... : ... .. . ... : ... .. . ...
ROW 0C : ... .. . ... : ... .. . ... : ... .. . ... : ... .. . ... : ... .. . ...
ROW 0D : E-3 0B . ... : E-2 0B . ... : --- .. . ... : ... .. . ... : ... .. . ...
ROW 0E : ... .. . ... : ... .. . ... : ... .. . ... : ... .. . ... : ... .. . ...
ROW 0F : E-2 0B . ... : D-3 0B . ... : ... .. . ... : ... .. . ... : ... .. . ...
ROW 10 : ... .. . ... : ... .. . ... : ... .. . ... : ... .. . ... : C-3 00 . ...
ROW 11 : D-3 0B . ... : A-2 0B . ... : G-2 17 . ... : ... .. . ... : ... .. . ...
ROW 12 : ... .. . ... : ... .. . ... : ... .. . ... : ... .. . ... : ... .. . ...
ROW 13 : A-2 0B . ... : G-3 0B . ... : ... .. . ... : ... .. . ... : ... .. . ...
ROW 14 : ... .. . ... : ... .. . ... : ... .. . ... : ... .. . ... : ... .. . ...
ROW 15 : G-3 0B . ... : E-3 0B . ... : --- .. . ... : ... .. . ... : ... .. . ...
ROW 16 : ... .. . ... : ... .. . ... : ... .. . ... : ... .. . ... : ... .. . ...
ROW 17 : E-3 0B . ... : E-2 0B . ... : ... .. . ... : ... .. . ... : ... .. . ...
ROW 18 : ... .. . ... : ... .. . ... : ... .. . ... : ... .. . ... : D-3 00 . ...
ROW 19 : E-2 0B . ... : D-3 0B . ... : G-3 17 . ... : A-# 1B . ... : ... .. . ...
ROW 1A : ... .. . ... : ... .. . ... : ... .. . ... : ... .. . ... : ... .. . ...
ROW 1B : D-3 0B . ... : G-3 0B . ... : ... .. . ... : ... .. . ... : ... .. . ...
ROW 1C : ... .. . ... : ... .. . ... : ... .. . ... : ... .. . ... : ... .. . ...
ROW 1D : A-2 0B . ... : E-3 0B . ... : --- .. . ... : ... .. . ... : ... .. . ...
ROW 1E : ... .. . ... : ... .. . ... : ... .. . ... : ... .. . ... : ... .. . ...
ROW 1F : G-3 0B . ... : E-2 0B . ... : ... .. . ... : ... .. . ... : ... .. . ...
ROW 20 : ... .. . ... : ... .. . ... : ... .. . ... : ... .. . ... : C-3 00 . ...
ROW 21 : E-3 0B . ... : D-3 0B . ... : G-2 17 . ... : ... .. . ... : ... .. . ...
ROW 22 : ... .. . ... : ... .. . ... : ... .. . ... : ... .. . ... : ... .. . ...
ROW 23 : E-2 0B . ... : A-2 0B . ... : ... .. . ... : ... .. . ... : ... .. . ...
ROW 24 : ... .. . ... : ... .. . ... : ... .. . ... : ... .. . ... : ... .. . ...
ROW 25 : D-3 0B . ... : G-3 0B . ... : --- .. . ... : ... .. . ... : ... .. . ...
ROW 26 : ... .. . ... : ... .. . ... : ... .. . ... : ... .. . ... : ... .. . ...
ROW 27 : A-2 0B . ... : E-3 0B . ... : ... .. . ... : ... .. . ... : ... .. . ...
ROW 28 : ... .. . ... : ... .. . ... : ... .. . ... : ... .. . ... : D-3 00 . ...
ROW 29 : G-3 0B . ... : E-2 0B . ... : G-3 17 . ... : A-# 1B . ... : ... .. . ...
ROW 2A : ... .. . ... : ... .. . ... : ... .. . ... : ... .. . ... : ... .. . ...
ROW 2B : E-3 0B . ... : D-3 0B . ... : ... .. . ... : ... .. . ... : ... .. . ...
ROW 2C : ... .. . ... : ... .. . ... : ... .. . ... : ... .. . ... : ... .. . ...
ROW 2D : E-2 0B . ... : G-3 0B . ... : --- .. . ... : ... .. . ... : ... .. . ...
ROW 2E : ... .. . ... : ... .. . ... : ... .. . ... : ... .. . ... : ... .. . ...
ROW 2F : D-3 0B . ... : E-3 0B . ... : ... .. . ... : ... .. . ... : ... .. . ...
ROW 30 : ... .. . ... : ... .. . ... : ... .. . ... : ... .. . ... : C-3 00 . ...
ROW 31 : A-2 0B . ... : E-2 0B . ... : G-2 17 . ... : ... .. . ... : ... .. . ...
ROW 32 : ... .. . ... : ... .. . ... : ... .. . ... : ... .. . ... : ... .. . ...
ROW 33 : G-3 0B . ... : D-3 0B . ... : ... .. . ... : ... .. . ... : ... .. . ...
ROW 34 : ... .. . ... : ... .. . ... : ... .. . ... : ... .. . ... : ... .. . ...
ROW 35 : E-3 0B . ... : A-2 0B . ... : --- .. . ... : ... .. . ... : ... .. . ...
ROW 36 : ... .. . ... : ... .. . ... : ... .. . ... : ... .. . ... : ... .. . ...
ROW 37 : E-2 0B . ... : G-3 0B . ... : ... .. . ... : ... .. . ... : ... .. . ...
ROW 38 : ... .. . ... : ... .. . ... : ... .. . ... : ... .. . ... : D-3 00 . ...
ROW 39 : D-3 0B . ... : E-3 0B . ... : G-3 17 . ... : A-# 1B . ... : ... .. . ...
ROW 3A : ... .. . ... : ... .. . ... : ... .. . ... : ... .. . ... : ... .. . ...
ROW 3B : A-2 0B . ... : E-2 0B . ... : ... .. . ... : ... .. . ... : ... .. . ...
ROW 3C : ... .. . ... : ... .. . ... : ... .. . ... : ... .. . ... : ... .. . ...
ROW 3D : G-3 0B . ... : D-3 0B . ... : --- .. . ... : ... .. . ... : ... .. . ...
ROW 3E : ... .. . ... : ... .. . ... : ... .. . ... : ... .. . ... : ... .. . ...
ROW 3F : E-3 0B . ... : G-3 0B . ... : ... .. . ... : ... .. . ... : ... .. . ...
ROW 40 : ... .. . ... : ... .. . ... : ... .. . ... : ... .. . ... : C-3 00 . ...
ROW 41 : E-2 0B . ... : E-3 0B . ... : G-2 17 . ... : ... .. . ... : ... .. . ...
ROW 42 : ... .. . ... : ... .. . ... : ... .. . ... : ... .. . ... : ... .. . ...
ROW 43 : D-3 0B . ... : E-2 0B . ... : ... .. . ... : ... .. . ... : ... .. . ...
ROW 44 : ... .. . ... : ... .. . ... : ... .. . ... : ... .. . ... : ... .. . ...
ROW 45 : A-2 0B . ... : D-3 0B . ... : --- .. . ... : ... .. . ... : ... .. . ...
ROW 46 : ... .. . ... : ... .. . ... : ... .. . ... : ... .. . ... : ... .. . ...
ROW 47 : G-3 0B . ... : A-2 0B . ... : ... .. . ... : ... .. . ... : ... .. . ...
ROW 48 : ... .. . ... : ... .. . ... : ... .. . ... : ... .. . ... : D-3 00 . ...
ROW 49 : E-3 0B . ... : G-3 0B . ... : G-3 17 . ... : A-# 1B . ... : ... .. . ...
ROW 4A : ... .. . ... : ... .. . ... : ... .. . ... : ... .. . ... : ... .. . ...
ROW 4B : E-2 0B . ... : E-3 0B . ... : ... .. . ... : ... .. . ... : ... .. . ...
ROW 4C : ... .. . ... : ... .. . ... : ... .. . ... : ... .. . ... : ... .. . ...
ROW 4D : D-3 0B . ... : E-2 0B . ... : --- .. . ... : ... .. . ... : ... .. . ...
ROW 4E : ... .. . ... : ... .. . ... : ... .. . ... : ... .. . ... : ... .. . ...
ROW 4F : A-2 0B . ... : D-3 0B . ... : ... .. . ... : ... .. . ... : ... .. . ...
ROW 50 : ... .. . ... : ... .. . ... : ... .. . ... : ... .. . ... : D-3 00 . ...
ROW 51 : G-3 0B . ... : G-3 0B . ... : F-3 17 . ... : A-# 1B . ... : ... .. . ...
ROW 52 : ... .. . ... : ... .. . ... : ... .. . ... : ... .. . ... : E-3 00 . W09
ROW 53 : G-3 0B . ... : G-3 0B . ... : C-3 17 . ... : ... .. . ... : ... .. . ...
ROW 54 : ... .. . ... : ... .. . ... : ... .. . ... : ... .. . ... : D-3 00 . ...
ROW 55 : G-2 0B . ... : G-2 0B . ... : G-3 17 . ... : A-# 1B . ... : ... .. . ...
ROW 56 : ... .. . ... : ... .. . ... : ... .. . ... : ... .. . ... : D-3 00 . ...
ROW 57 : F-3 0B . ... : F-3 0B . ... : G-2 17 . ... : A-# 1B . ... : ... .. . ...

PATTERN 2B
ROW 00 : ... .. . ... : ... .. . ... : ... .. . ... : ... .. . ... : C-3 00 . ...
ROW 01 : C-3 0B . ... : C-3 0B . ... : E-2 17 . ... : ... .. . ... : ... .. . ...
ROW 02 : ... .. . ... : ... .. . ... : ... .. . ... : ... .. . ... : ... .. . ...
ROW 03 : A#3 0B . ... : A#3 0B . ... : ... .. . ... : ... .. . ... : ... .. . ...
ROW 04 : ... .. . ... : ... .. . ... : ... .. . ... : ... .. . ... : ... .. . ...
ROW 05 : G-3 0B . ... : G-3 0B . ... : --- .. . ... : ... .. . ... : ... .. . ...
ROW 06 : ... .. . ... : ... .. . ... : ... .. . ... : ... .. . ... : ... .. . ...
ROW 07 : G-2 0B . ... : G-2 0B . ... : ... .. . ... : ... .. . ... : ... .. . ...
ROW 08 : ... .. . ... : ... .. . ... : ... .. . ... : ... .. . ... : D-3 00 . ...
ROW 09 : F-3 0B . ... : F-3 0B . ... : E-3 17 . ... : A-# 1B . ... : ... .. . ...
ROW 0A : ... .. . ... : ... .. . ... : ... .. . ... : ... .. . ... : ... .. . ...
ROW 0B : C-3 0B . ... : A#3 0B . ... : ... .. . ... : ... .. . ... : ... .. . ...
ROW 0C : ... .. . ... : ... .. . ... : ... .. . ... : ... .. . ... : ... .. . ...
ROW 0D : A#3 0B . ... : G-3 0B . ... : --- .. . ... : ... .. . ... : ... .. . ...
ROW 0E : ... .. . ... : ... .. . ... : ... .. . ... : ... .. . ... : ... .. . ...
ROW 0F : G-3 0B . ... : G-2 0B . ... : ... .. . ... : ... .. . ... : ... .. . ...
ROW 10 : ... .. . ... : ... .. . ... : ... .. . ... : ... .. . ... : C-3 00 . ...
ROW 11 : G-2 0B . ... : F-3 0B . ... : E-2 17 . ... : ... .. . ... : ... .. . ...
ROW 12 : ... .. . ... : ... .. . ... : ... .. . ... : ... .. . ... : ... .. . ...
ROW 13 : F-3 0B . ... : C-3 0B . ... : ... .. . ... : ... .. . ... : ... .. . ...
ROW 14 : ... .. . ... : ... .. . ... : ... .. . ... : ... .. . ... : ... .. . ...
ROW 15 : C-3 0B . ... : A#3 0B . ... : --- .. . ... : ... .. . ... : ... .. . ...
ROW 16 : ... .. . ... : ... .. . ... : ... .. . ... : ... .. . ... : ... .. . ...
ROW 17 : A#3 0B . ... : G-3 0B . ... : ... .. . ... : ... .. . ... : ... .. . ...
ROW 18 : ... .. . ... : ... .. . ... : ... .. . ... : ... .. . ... : D-3 00 . ...
ROW 19 : G-3 0B . ... : G-2 0B . ... : E-3 17 . ... : A-# 1B . ... : ... .. . ...
ROW 1A : ... .. . ... : ... .. . ... : ... .. . ... : ... .. . ... : ... .. . ...
ROW 1B : G-2 0B . ... : F-3 0B . ... : ... .. . ... : ... .. . ... : ... .. . ...
ROW 1C : ... .. . ... : ... .. . ... : ... .. . ... : ... .. . ... : ... .. . ...
ROW 1D : F-3 0B . ... : A#3 0B . ... : --- .. . ... : ... .. . ... : ... .. . ...
ROW 1E : ... .. . ... : ... .. . ... : ... .. . ... : ... .. . ... : ... .. . ...
ROW 1F : C-3 0B . ... : G-3 0B . ... : ... .. . ... : ... .. . ... : ... .. . ...
ROW 20 : ... .. . ... : ... .. . ... : ... .. . ... : ... .. . ... : C-3 00 . ...
ROW 21 : A#3 0B . ... : G-2 0B . ... : E-2 17 . ... : ... .. . ... : ... .. . ...
ROW 22 : ... .. . ... : ... .. . ... : ... .. . ... : ... .. . ... : ... .. . ...
ROW 23 : G-3 0B . ... : F-3 0B . ... : ... .. . ... : ... .. . ... : ... .. . ...
ROW 24 : ... .. . ... : ... .. . ... : ... .. . ... : ... .. . ... : ... .. . ...
ROW 25 : G-2 0B . ... : C-3 0B . ... : --- .. . ... : ... .. . ... : ... .. . ...
ROW 26 : ... .. . ... : ... .. . ... : ... .. . ... : ... .. . ... : ... .. . ...
ROW 27 : F-3 0B . ... : A#3 0B . ... : ... .. . ... : ... .. . ... : ... .. . ...
ROW 28 : ... .. . ... : ... .. . ... : ... .. . ... : ... .. . ... : D-3 00 . ...
ROW 29 : C-3 0B . ... : G-3 0B . ... : E-3 17 . ... : A-# 1B . ... : ... .. . ...
ROW 2A : ... .. . ... : ... .. . ... : ... .. . ... : ... .. . ... : ... .. . ...
ROW 2B : A#3 0B . ... : G-2 0B . ... : ... .. . ... : ... .. . ... : ... .. . ...
ROW 2C : ... .. . ... : ... .. . ... : ... .. . ... : ... .. . ... : ... .. . ...
ROW 2D : G-3 0B . ... : F-3 0B . ... : --- .. . ... : ... .. . ... : ... .. . ...
ROW 2E : ... .. . ... : ... .. . ... : ... .. . ... : ... .. . ... : ... .. . ...
ROW 2F : G-2 0B . ... : A#3 0B . ... : ... .. . ... : ... .. . ... : ... .. . ...
ROW 30 : ... .. . ... : ... .. . ... : ... .. . ... : ... .. . ... : C-3 00 . ...
ROW 31 : F-3 0B . ... : G-3 0B . ... : E-2 17 . ... : ... .. . ... : ... .. . ...
ROW 32 : ... .. . ... : ... .. . ... : ... .. . ... : ... .. . ... : ... .. . ...
ROW 33 : C-3 0B . ... : G-2 0B . ... : ... .. . ... : ... .. . ... : ... .. . ...
ROW 34 : ... .. . ... : ... .. . ... : ... .. . ... : ... .. . ... : ... .. . ...
ROW 35 : A#3 0B . ... : F-3 0B . ... : --- .. . ... : ... .. . ... : ... .. . ...
ROW 36 : ... .. . ... : ... .. . ... : ... .. . ... : ... .. . ... : ... .. . ...
ROW 37 : G-3 0B . ... : C-3 0B . ... : ... .. . ... : ... .. . ... : ... .. . ...
ROW 38 : ... .. . ... : ... .. . ... : ... .. . ... : ... .. . ... : D-3 00 . ...
ROW 39 : G-2 0B . ... : A#3 0B . ... : E-3 17 . ... : A-# 1B . ... : ... .. . ...
ROW 3A : ... .. . ... : ... .. . ... : ... .. . ... : ... .. . ... : ... .. . ...
ROW 3B : F-3 0B . ... : G-3 0B . ... : ... .. . ... : ... .. . ... : ... .. . ...
ROW 3C : ... .. . ... : ... .. . ... : ... .. . ... : ... .. . ... : ... .. . ...
ROW 3D : C-3 0B . ... : G-2 0B . ... : --- .. . ... : ... .. . ... : ... .. . ...
ROW 3E : ... .. . ... : ... .. . ... : ... .. . ... : ... .. . ... : ... .. . ...
ROW 3F : A#3 0B . ... : F-3 0B . ... : ... .. . ... : ... .. . ... : ... .. . ...
ROW 40 : ... .. . ... : ... .. . ... : ... .. . ... : ... .. . ... : C-3 00 . ...
ROW 41 : G-3 0B . ... : A#3 0B . ... : E-2 17 . ... : ... .. . ... : ... .. . ...
ROW 42 : ... .. . ... : ... .. . ... : ... .. . ... : ... .. . ... : ... .. . ...
ROW 43 : G-2 0B . ... : G-3 0B . ... : ... .. . ... : ... .. . ... : ... .. . ...
ROW 44 : ... .. . ... : ... .. . ... : ... .. . ... : ... .. . ... : ... .. . ...
ROW 45 : F-3 0B . ... : G-2 0B . ... : --- .. . ... : ... .. . ... : ... .. . ...
ROW 46 : ... .. . ... : ... .. . ... : ... .. . ... : ... .. . ... : ... .. . ...
ROW 47 : C-3 0B . ... : F-3 0B . ... : ... .. . ... : ... .. . ... : ... .. . ...
ROW 48 : ... .. . ... : ... .. . ... : ... .. . ... : ... .. . ... : D-3 00 . ...
ROW 49 : A#3 0B . ... : C-3 0B . ... : E-3 17 . ... : A-# 1B . ... : ... .. . ...
ROW 4A : ... .. . ... : ... .. . ... : ... .. . ... : ... .. . ... : ... .. . ...
ROW 4B : G-3 0B . ... : A#3 0B . ... : ... .. . ... : ... .. . ... : ... .. . ...
ROW 4C : ... .. . ... : ... .. . ... : ... .. . ... : ... .. . ... : ... .. . ...
ROW 4D : G-2 0B . ... : G-3 0B . ... : --- .. . ... : ... .. . ... : ... .. . ...
ROW 4E : ... .. . ... : ... .. . ... : ... .. . ... : ... .. . ... : ... .. . ...
ROW 4F : F-3 0B . ... : G-2 0B . ... : ... .. . ... : ... .. . ... : ... .. . ...
ROW 50 : ... .. . ... : ... .. . ... : ... .. . ... : ... .. . ... : D-3 00 . ...
ROW 51 : C-3 0B . ... : F-3 0B . ... : D-3 17 . ... : A-# 1B . ... : ... .. . ...
ROW 52 : ... .. . ... : ... .. . ... : ... .. . ... : ... .. . ... : E-3 00 . W09
ROW 53 : A#3 0B . ... : A#3 0B . ... : A-2 17 . ... : ... .. . ... : ... .. . ...
ROW 54 : ... .. . ... : ... .. . ... : ... .. . ... : ... .. . ... : D-3 00 . ...
ROW 55 : E-3 0B . ... : E-3 0B . ... : E-3 17 . ... : A-# 1B . ... : ... .. . ...
ROW 56 : ... .. . ... : ... .. . ... : ... .. . ... : ... .. . ... : D-3 00 . ...
ROW 57 : E-2 0B . ... : E-2 0B . ... : E-2 17 . ... : A-# 1B . ... : ... .. . ...

PATTERN 2C
ROW 00 : ... .. . ... : ... .. . ... : ... .. . ... : ... .. . ... : C-3 00 . ...
ROW 01 : D-3 0B . ... : D-3 0B . ... : G-2 17 . ... : ... .. . ... : ... .. . ...
ROW 02 : ... .. . ... : ... .. . ... : ... .. . ... : ... .. . ... : ... .. . ...
ROW 03 : A-2 0B . ... : A-2 0B . ... : ... .. . ... : ... .. . ... : ... .. . ...
ROW 04 : ... .. . ... : ... .. . ... : ... .. . ... : ... .. . ... : ... .. . ...
ROW 05 : G-3 0B . ... : G-3 0B . ... : --- .. . ... : ... .. . ... : ... .. . ...
ROW 06 : ... .. . ... : ... .. . ... : ... .. . ... : ... .. . ... : ... .. . ...
ROW 07 : E-3 0B . ... : E-3 0B . ... : ... .. . ... : ... .. . ... : ... .. . ...
ROW 08 : ... .. . ... : ... .. . ... : ... .. . ... : ... .. . ... : D-3 00 . ...
ROW 09 : E-2 0B . ... : E-2 0B . ... : G-3 17 . ... : A-# 1B . ... : ... .. . ...
ROW 0A : ... .. . ... : ... .. . ... : ... .. . ... : ... .. . ... : ... .. . ...
ROW 0B : D-3 0B . ... : D-3 0B . ... : ... .. . ... : ... .. . ... : ... .. . ...
ROW 0C : ... .. . ... : ... .. . ... : ... .. . ... : ... .. . ... : ... .. . ...
ROW 0D : A-2 0B . ... : G-3 0B . ... : --- .. . ... : ... .. . ... : ... .. . ...
ROW 0E : ... .. . ... : ... .. . ... : ... .. . ... : ... .. . ... : ... .. . ...
ROW 0F : G-3 0B . ... : E-3 0B . ... : ... .. . ... : ... .. . ... : ... .. . ...
ROW 10 : ... .. . ... : ... .. . ... : ... .. . ... : ... .. . ... : C-3 00 . ...
ROW 11 : E-3 0B . ... : E-2 0B . ... : G-2 17 . ... : ... .. . ... : ... .. . ...
ROW 12 : ... .. . ... : ... .. . ... : ... .. . ... : ... .. . ... : ... .. . ...
ROW 13 : E-2 0B . ... : D-3 0B . ... : ... .. . ... : ... .. . ... : ... .. . ...
ROW 14 : ... .. . ... : ... .. . ... : ... .. . ... : ... .. . ... : ... .. . ...
ROW 15 : D-3 0B . ... : A-2 0B . ... : --- .. . ... : ... .. . ... : ... .. . ...
ROW 16 : ... .. . ... : ... .. . ... : ... .. . ... : ... .. . ... : ... .. . ...
ROW 17 : A-2 0B . ... : G-3 0B . ... : ... .. . ... : ... .. . ... : ... .. . ...
ROW 18 : ... .. . ... : ... .. . ... : ... .. . ... : ... .. . ... : D-3 00 . ...
ROW 19 : G-3 0B . ... : E-3 0B . ... : G-3 17 . ... : A-# 1B . ... : ... .. . ...
ROW 1A : ... .. . ... : ... .. . ... : ... .. . ... : ... .. . ... : ... .. . ...
ROW 1B : E-3 0B . ... : E-2 0B . ... : ... .. . ... : ... .. . ... : ... .. . ...
ROW 1C : ... .. . ... : ... .. . ... : ... .. . ... : ... .. . ... : ... .. . ...
ROW 1D : E-2 0B . ... : D-3 0B . ... : --- .. . ... : ... .. . ... : ... .. . ...
ROW 1E : ... .. . ... : ... .. . ... : ... .. . ... : ... .. . ... : ... .. . ...
ROW 1F : D-3 0B . ... : G-3 0B . ... : ... .. . ... : ... .. . ... : ... .. . ...
ROW 20 : ... .. . ... : ... .. . ... : ... .. . ... : ... .. . ... : C-3 00 . ...
ROW 21 : A-2 0B . ... : E-3 0B . ... : G-2 17 . ... : ... .. . ... : ... .. . ...
ROW 22 : ... .. . ... : ... .. . ... : ... .. . ... : ... .. . ... : ... .. . ...
ROW 23 : G-3 0B . ... : E-2 0B . ... : ... .. . ... : ... .. . ... : ... .. . ...
ROW 24 : ... .. . ... : ... .. . ... : ... .. . ... : ... .. . ... : ... .. . ...
ROW 25 : E-3 0B . ... : D-3 0B . ... : --- .. . ... : ... .. . ... : ... .. . ...
ROW 26 : ... .. . ... : ... .. . ... : ... .. . ... : ... .. . ... : ... .. . ...
ROW 27 : E-2 0B . ... : A-2 0B . ... : ... .. . ... : ... .. . ... : ... .. . ...
ROW 28 : ... .. . ... : ... .. . ... : ... .. . ... : ... .. . ... : D-3 00 . ...
ROW 29 : D-3 0B . ... : G-3 0B . ... : G-3 17 . ... : A-# 1B . ... : ... .. . ...
ROW 2A : ... .. . ... : ... .. . ... : ... .. . ... : ... .. . ... : ... .. . ...
ROW 2B : A-2 0B . ... : E-3 0B . ... : ... .. . ... : ... .. . ... : ... .. . ...
ROW 2C : ... .. . ... : ... .. . ... : ... .. . ... : ... .. . ... : ... .. . ...
ROW 2D : G-3 0B . ... : E-2 0B . ... : --- .. . ... : ... .. . ... : ... .. . ...
ROW 2E : ... .. . ... : ... .. . ... : ... .. . ... : ... .. . ... : ... .. . ...
ROW 2F : E-3 0B . ... : D-3 0B . ... : ... .. . ... : ... .. . ... : ... .. . ...
ROW 30 : ... .. . ... : ... .. . ... : ... .. . ... : ... .. . ... : C-3 00 . ...
ROW 31 : E-2 0B . ... : G-3 0B . ... : G-2 17 . ... : ... .. . ... : ... .. . ...
ROW 32 : ... .. . ... : ... .. . ... : ... .. . ... : ... .. . ... : ... .. . ...
ROW 33 : D-3 0B . ... : E-3 0B . ... : ... .. . ... : ... .. . ... : ... .. . ...
ROW 34 : ... .. . ... : ... .. . ... : ... .. . ... : ... .. . ... : ... .. . ...
ROW 35 : A-2 0B . ... : E-2 0B . ... : --- .. . ... : ... .. . ... : ... .. . ...
ROW 36 : ... .. . ... : ... .. . ... : ... .. . ... : ... .. . ... : ... .. . ...
ROW 37 : G-3 0B . ... : D-3 0B . ... : ... .. . ... : ... .. . ... : ... .. . ...
ROW 38 : ... .. . ... : ... .. . ... : ... .. . ... : ... .. . ... : D-3 00 . ...
ROW 39 : E-3 0B . ... : A-2 0B . ... : G-3 17 . ... : A-# 1B . ... : ... .. . ...
ROW 3A : ... .. . ... : ... .. . ... : ... .. . ... : ... .. . ... : ... .. . ...
ROW 3B : E-2 0B . ... : G-3 0B . ... : ... .. . ... : ... .. . ... : ... .. . ...
ROW 3C : ... .. . ... : ... .. . ... : ... .. . ... : ... .. . ... : ... .. . ...
ROW 3D : D-3 0B . ... : E-3 0B . ... : --- .. . ... : ... .. . ... : ... .. . ...
ROW 3E : ... .. . ... : ... .. . ... : ... .. . ... : ... .. . ... : ... .. . ...
ROW 3F : A-2 0B . ... : E-2 0B . ... : ... .. . ... : ... .. . ... : ... .. . ...
ROW 40 : ... .. . ... : ... .. . ... : ... .. . ... : ... .. . ... : C-3 00 . ...
ROW 41 : G-3 0B . ... : D-3 0B . ... : G-2 17 . ... : ... .. . ... : ... .. . ...
ROW 42 : ... .. . ... : ... .. . ... : ... .. . ... : ... .. . ... : ... .. . ...
ROW 43 : E-3 0B . ... : G-3 0B . ... : ... .. . ... : ... .. . ... : ... .. . ...
ROW 44 : ... .. . ... : ... .. . ... : ... .. . ... : ... .. . ... : ... .. . ...
ROW 45 : E-2 0B . ... : E-3 0B . ... : --- .. . ... : ... .. . ... : ... .. . ...
ROW 46 : ... .. . ... : ... .. . ... : ... .. . ... : ... .. . ... : ... .. . ...
ROW 47 : D-3 0B . ... : E-2 0B . ... : ... .. . ... : ... .. . ... : ... .. . ...
ROW 48 : ... .. . ... : ... .. . ... : ... .. . ... : ... .. . ... : D-3 00 . ...
ROW 49 : A-2 0B . ... : D-3 0B . ... : G-3 17 . ... : A-# 1B . ... : ... .. . ...
ROW 4A : ... .. . ... : ... .. . ... : ... .. . ... : ... .. . ... : ... .. . ...
ROW 4B : G-3 0B . ... : A-2 0B . ... : ... .. . ... : ... .. . ... : ... .. . ...
ROW 4C : ... .. . ... : ... .. . ... : ... .. . ... : ... .. . ... : ... .. . ...
ROW 4D : E-3 0B . ... : G-3 0B . ... : --- .. . ... : ... .. . ... : ... .. . ...
ROW 4E : ... .. . ... : ... .. . ... : ... .. . ... : ... .. . ... : ... .. . ...
ROW 4F : E-2 0B . ... : E-3 0B . ... : ... .. . ... : ... .. . ... : ... .. . ...
ROW 50 : ... .. . ... : ... .. . ... : ... .. . ... : ... .. . ... : D-3 00 . ...
ROW 51 : D-3 0B . ... : E-2 0B . ... : F-3 17 . ... : A-# 1B . ... : ... .. . ...
ROW 52 : ... .. . ... : ... .. . ... : ... .. . ... : ... .. . ... : E-3 00 . W09
ROW 53 : A-2 0B . ... : D-3 0B . ... : C-3 17 . ... : ... .. . ... : ... .. . ...
ROW 54 : ... .. . ... : ... .. . ... : ... .. . ... : ... .. . ... : D-3 00 . ...
ROW 55 : G-3 0B . ... : G-3 0B . ... : G-3 17 . ... : A-# 1B . ... : ... .. . ...
ROW 56 : ... .. . ... : ... .. . ... : ... .. . ... : ... .. . ... : D-3 00 . ...
ROW 57 : G-3 0B . ... : G-3 0B . ... : G-2 17 . ... : A-# 1B . ... : ... .. . ...

PATTERN 2D
ROW 00 : ... .. . ... : ... .. . ... : ... .. . ... : ... .. . ... : C-3 00 . ...
ROW 01 : G-2 0B . ... : G-2 0B . ... : E-2 17 . ... : ... .. . ... : ... .. . ...
ROW 02 : ... .. . ... : ... .. . ... : ... .. . ... : ... .. . ... : ... .. . ...
ROW 03 : F-3 0B . ... : F-3 0B . ... : ... .. . ... : ... .. . ... : ... .. . ...
ROW 04 : ... .. . ... : ... .. . ... : ... .. . ... : ... .. . ... : ... .. . ...
ROW 05 : C-3 0B . ... : C-3 0B . ... : --- .. . ... : ... .. . ... : ... .. . ...
ROW 06 : ... .. . ... : ... .. . ... : ... .. . ... : ... .. . ... : ... .. . ...
ROW 07 : A#3 0B . ... : A#3 0B . ... : ... .. . ... : ... .. . ... : ... .. . ...
ROW 08 : ... .. . ... : ... .. . ... : ... .. . ... : ... .. . ... : D-3 00 . ...
ROW 09 : G-3 0B . ... : G-3 0B . ... : E-3 17 . ... : A-# 1B . ... : ... .. . ...
ROW 0A : ... .. . ... : ... .. . ... : ... .. . ... : ... .. . ... : ... .. . ...
ROW 0B : G-2 0B . ... : G-2 0B . ... : ... .. . ... : ... .. . ... : ... .. . ...
ROW 0C : ... .. . ... : ... .. . ... : ... .. . ... : ... .. . ... : ... .. . ...
ROW 0D : F-3 0B . ... : F-3 0B . ... : --- .. . ... : ... .. . ... : ... .. . ...
ROW 0E : ... .. . ... : ... .. . ... : ... .. . ... : ... .. . ... : ... .. . ...
ROW 0F : C-3 0B . ... : A#3 0B . ... : ... .. . ... : ... .. . ... : ... .. . ...
ROW 10 : ... .. . ... : ... .. . ... : ... .. . ... : ... .. . ... : C-3 00 . ...
ROW 11 : A#3 0B . ... : G-3 0B . ... : E-2 17 . ... : ... .. . ... : ... .. . ...
ROW 12 : ... .. . ... : ... .. . ... : ... .. . ... : ... .. . ... : ... .. . ...
ROW 13 : G-3 0B . ... : G-2 0B . ... : ... .. . ... : ... .. . ... : ... .. . ...
ROW 14 : ... .. . ... : ... .. . ... : ... .. . ... : ... .. . ... : ... .. . ...
ROW 15 : G-2 0B . ... : F-3 0B . ... : --- .. . ... : ... .. . ... : ... .. . ...
ROW 16 : ... .. . ... : ... .. . ... : ... .. . ... : ... .. . ... : ... .. . ...
ROW 17 : F-3 0B . ... : C-3 0B . ... : ... .. . ... : ... .. . ... : ... .. . ...
ROW 18 : ... .. . ... : ... .. . ... : ... .. . ... : ... .. . ... : D-3 00 . ...
ROW 19 : C-3 0B . ... : A#3 0B . ... : E-3 17 . ... : A-# 1B . ... : ... .. . ...
ROW 1A : ... .. . ... : ... .. . ... : ... .. . ... : ... .. . ... : ... .. . ...
ROW 1B : A#3 0B . ... : G-3 0B . ... : ... .. . ... : ... .. . ... : ... .. . ...
ROW 1C : ... .. . ... : ... .. . ... : ... .. . ... : ... .. . ... : ... .. . ...
ROW 1D : G-3 0B . ... : G-2 0B . ... : --- .. . ... : ... .. . ... : ... .. . ...
ROW 1E : ... .. . ... : ... .. . ... : ... .. . ... : ... .. . ... : ... .. . ...
ROW 1F : G-2 0B . ... : F-3 0B . ... : ... .. . ... : ... .. . ... : ... .. . ...
ROW 20 : ... .. . ... : ... .. . ... : ... .. . ... : ... .. . ... : C-3 00 . ...
ROW 21 : F-3 0B . ... : A#3 0B . ... : E-2 17 . ... : ... .. . ... : ... .. . ...
ROW 22 : ... .. . ... : ... .. . ... : ... .. . ... : ... .. . ... : ... .. . ...
ROW 23 : C-3 0B . ... : G-3 0B . ... : ... .. . ... : ... .. . ... : ... .. . ...
ROW 24 : ... .. . ... : ... .. . ... : ... .. . ... : ... .. . ... : ... .. . ...
ROW 25 : A#3 0B . ... : G-2 0B . ... : --- .. . ... : ... .. . ... : ... .. . ...
ROW 26 : ... .. . ... : ... .. . ... : ... .. . ... : ... .. . ... : ... .. . ...
ROW 27 : G-3 0B . ... : F-3 0B . ... : ... .. . ... : ... .. . ... : ... .. . ...
ROW 28 : ... .. . ... : ... .. . ... : ... .. . ... : ... .. . ... : D-3 00 . ...
ROW 29 : G-2 0B . ... : C-3 0B . ... : E-3 17 . ... : A-# 1B . ... : ... .. . ...
ROW 2A : ... .. . ... : ... .. . ... : ... .. . ... : ... .. . ... : ... .. . ...
ROW 2B : F-3 0B . ... : A#3 0B . ... : ... .. . ... : ... .. . ... : ... .. . ...
ROW 2C : ... .. . ... : ... .. . ... : ... .. . ... : ... .. . ... : ... .. . ...
ROW 2D : C-3 0B . ... : G-3 0B . ... : --- .. . ... : ... .. . ... : ... .. . ...
ROW 2E : ... .. . ... : ... .. . ... : ... .. . ... : ... .. . ... : ... .. . ...
ROW 2F : A#3 0B . ... : G-2 0B . ... : ... .. . ... : ... .. . ... : ... .. . ...
ROW 30 : ... .. . ... : ... .. . ... : ... .. . ... : ... .. . ... : C-3 00 . ...
ROW 31 : G-3 0B . ... : F-3 0B . ... : E-2 17 . ... : ... .. . ... : ... .. . ...
ROW 32 : ... .. . ... : ... .. . ... : ... .. . ... : ... .. . ... : ... .. . ...
ROW 33 : G-2 0B . ... : A#3 0B . ... : ... .. . ... : ... .. . ... : ... .. . ...
ROW 34 : ... .. . ... : ... .. . ... : ... .. . ... : ... .. . ... : ... .. . ...
ROW 35 : F-3 0B . ... : G-3 0B . ... : --- .. . ... : ... .. . ... : ... .. . ...
ROW 36 : ... .. . ... : ... .. . ... : ... .. . ... : ... .. . ... : ... .. . ...
ROW 37 : C-3 0B . ... : G-2 0B . ... : ... .. . ... : ... .. . ... : ... .. . ...
ROW 38 : ... .. . ... : ... .. . ... : ... .. . ... : ... .. . ... : D-3 00 . ...
ROW 39 : A#3 0B . ... : F-3 0B . ... : E-3 17 . ... : A-# 1B . ... : ... .. . ...
ROW 3A : ... .. . ... : ... .. . ... : ... .. . ... : ... .. . ... : ... .. . ...
ROW 3B : G-3 0B . ... : C-3 0B . ... : ... .. . ... : ... .. . ... : ... .. . ...
ROW 3C : ... .. . ... : ... .. . ... : ... .. . ... : ... .. . ... : ... .. . ...
ROW 3D : G-2 0B . ... : A#3 0B . ... : --- .. . ... : ... .. . ... : ... .. . ...
ROW 3E : ... .. . ... : ... .. . ... : ... .. . ... : ... .. . ... : ... .. . ...
ROW 3F : F-3 0B . ... : G-3 0B . ... : ... .. . ... : ... .. . ... : ... .. . ...
ROW 40 : ... .. . ... : ... .. . ... : ... .. . ... : ... .. . ... : C-3 00 . ...
ROW 41 : C-3 0B . ... : G-2 0B . ... : E-2 17 . ... : ... .. . ... : ... .. . ...
ROW 42 : ... .. . ... : ... .. . ... : ... .. . ... : ... .. . ... : ... .. . ...
ROW 43 : A#3 0B . ... : F-3 0B . ... : ... .. . ... : ... .. . ... : ... .. . ...
ROW 44 : ... .. . ... : ... .. . ... : ... .. . ... : ... .. . ... : ... .. . ...
ROW 45 : G-3 0B . ... : A#3 0B . ... : --- .. . ... : ... .. . ... : ... .. . ...
ROW 46 : ... .. . ... : ... .. . ... : ... .. . ... : ... .. . ... : ... .. . ...
ROW 47 : G-2 0B . ... : G-3 0B . ... : ... .. . ... : ... .. . ... : ... .. . ...
ROW 48 : ... .. . ... : ... .. . ... : ... .. . ... : ... .. . ... : D-3 00 . ...
ROW 49 : F-3 0B . ... : G-2 0B . ... : E-3 17 . ... : A-# 1B . ... : ... .. . ...
ROW 4A : ... .. . ... : ... .. . ... : ... .. . ... : ... .. . ... : ... .. . ...
ROW 4B : C-3 0B . ... : F-3 0B . ... : ... .. . ... : ... .. . ... : ... .. . ...
ROW 4C : ... .. . ... : ... .. . ... : ... .. . ... : ... .. . ... : ... .. . ...
ROW 4D : A#3 0B . ... : C-3 0B . ... : --- .. . ... : ... .. . ... : ... .. . ...
ROW 4E : ... .. . ... : ... .. . ... : ... .. . ... : ... .. . ... : ... .. . ...
ROW 4F : G-3 0B . ... : A#3 0B . ... : ... .. . ... : ... .. . ... : ... .. . ...
ROW 50 : ... .. . ... : ... .. . ... : ... .. . ... : ... .. . ... : D-3 00 . ...
ROW 51 : G-2 0B . ... : G-3 0B . ... : D-3 17 . ... : A-# 1B . ... : ... .. . ...
ROW 52 : ... .. . ... : ... .. . ... : ... .. . ... : ... .. . ... : E-3 00 . W09
ROW 53 : F-3 0B . ... : G-2 0B . ... : A-2 17 . ... : ... .. . ... : ... .. . ...
ROW 54 : ... .. . ... : ... .. . ... : ... .. . ... : ... .. . ... : D-3 00 . ...
ROW 55 : C-3 0B . ... : F-3 0B . ... : E-3 17 . ... : A-# 1B . ... : ... .. . ...
ROW 56 : ... .. . ... : ... .. . ... : ... .. . ... : ... .. . ... : D-3 00 . ...
ROW 57 : A#3 0B . ... : A#3 0B . ... : E-2 17 . ... : A-# 1B . ... : ... .. . ...

PATTERN 2E
ROW 00 : ... .. . ... : ... .. . ... : ... .. . ... : ... .. . ... : C-3 00 . ...
ROW 01 : E-3 0B . ... : E-3 0B . ... : G-2 17 . ... : ... .. . ... : ... .. . ...
ROW 02 : ... .. . ... : ... .. . ... : ... .. . ... : ... .. . ... : ... .. . ...
ROW 03 : E-2 0B . ... : E-2 0B . ... : ... .. . ... : ... .. . ... : ... .. . ...
ROW 04 : ... .. . ... : ... .. . ... : ... .. . ... : ... .. . ... : ... .. . ...
ROW 05 : D-3 0B . ... : D-3 0B . ... : --- .. . ... : ... .. . ... : ... .. . ...
ROW 06 : ... .. . ... : ... .. . ... : ... .. . ... : ... .. . ... : ... .. . ...
ROW 07 : A-2 0B . ... : A-2 0B . ... : ... .. . ... : ... .. . ... : ... .. . ...
ROW 08 : ... .. . ... : ... .. . ... : ... .. . ... : ... .. . ... : D-3 00 . ...
ROW 09 : G-3 0B . ... : G-3 0B . ... : G-3 17 . ... : A-# 1B . ... : ... .. . ...
ROW 0A : ... .. . ... : ... .. . ... : ... .. . ... : ... .. . ... : ... .. . ...
ROW 0B : E-3 0B . ... : E-3 0B . ... : ... .. . ... : ... .. . ... : ... .. . ...
ROW 0C : ... .. . ... : ... .. . ... : ... .. . ... : ... .. . ... : ... .. . ...
ROW 0D : E-2 0B . ... : E-2 0B . ... : --- .. . ... : ... .. . ... : ... .. . ...
ROW 0E : ... .. . ... : ... .. . ... : ... .. . ... : ... .. . ... : ... .. . ...
ROW 0F : D-3 0B . ... : D-3 0B . ... : ... .. . ... : ... .. . ... : ... .. . ...
ROW 10 : ... .. . ... : ... .. . ... : ... .. . ... : ... .. . ... : C-3 00 . ...
ROW 11 : A-2 0B . ... : G-3 0B . ... : G-2 17 . ... : ... .. . ... : ... .. . ...
ROW 12 : ... .. . ... : ... .. . ... : ... .. . ... : ... .. . ... : ... .. . ...
ROW 13 : G-3 0B . ... : E-3 0B . ... : ... .. . ... : ... .. . ... : ... .. . ...
ROW 14 : ... .. . ... : ... .. . ... : ... .. . ... : ... .. . ... : ... .. . ...
ROW 15 : E-3 0B . ... : E-2 0B . ... : --- .. . ... : ... .. . ... : ... .. . ...
ROW 16 : ... .. . ... : ... .. . ... : ... .. . ... : ... .. . ... : ... .. . ...
ROW 17 : E-2 0B . ... : D-3 0B . ... : ... .. . ... : ... .. . ... : ... .. . ...
ROW 18 : ... .. . ... : ... .. . ... : ... .. . ... : ... .. . ... : D-3 00 . ...
ROW 19 : D-3 0B . ... : A-2 0B . ... : G-3 17 . ... : A-# 1B . ... : ... .. . ...
ROW 1A : ... .. . ... : ... .. . ... : ... .. . ... : ... .. . ... : ... .. . ...
ROW 1B : A-2 0B . ... : G-3 0B . ... : ... .. . ... : ... .. . ... : ... .. . ...
ROW 1C : ... .. . ... : ... .. . ... : ... .. . ... : ... .. . ... : ... .. . ...
ROW 1D : G-3 0B . ... : E-3 0B . ... : --- .. . ... : ... .. . ... : ... .. . ...
ROW 1E : ... .. . ... : ... .. . ... : ... .. . ... : ... .. . ... : ... .. . ...
ROW 1F : E-3 0B . ... : E-2 0B . ... : ... .. . ... : ... .. . ... : ... .. . ...
ROW 20 : ... .. . ... : ... .. . ... : ... .. . ... : ... .. . ... : C-3 00 . ...
ROW 21 : E-2 0B . ... : D-3 0B . ... : G-2 17 . ... : ... .. . ... : ... .. . ...
ROW 22 : ... .. . ... : ... .. . ... : ... .. . ... : ... .. . ... : ... .. . ...
ROW 23 : D-3 0B . ... : G-3 0B . ... : ... .. . ... : ... .. . ... : ... .. . ...
ROW 24 : ... .. . ... : ... .. . ... : ... .. . ... : ... .. . ... : ... .. . ...
ROW 25 : A-2 0B . ... : E-3 0B . ... : --- .. . ... : ... .. . ... : ... .. . ...
ROW 26 : ... .. . ... : ... .. . ... : ... .. . ... : ... .. . ... : ... .. . ...
ROW 27 : G-3 0B . ... : E-2 0B . ... : ... .. . ... : ... .. . ... : ... .. . ...
ROW 28 : ... .. . ... : ... .. . ... : ... .. . ... : ... .. . ... : D-3 00 . ...
ROW 29 : E-3 0B . ... : D-3 0B . ... : G-3 17 . ... : A-# 1B . ... : ... .. . ...
ROW 2A : ... .. . ... : ... .. . ... : ... .. . ... : ... .. . ... : ... .. . ...
ROW 2B : E-2 0B . ... : A-2 0B . ... : ... .. . ... : ... .. . ... : ... .. . ...
ROW 2C : ... .. . ... : ... .. . ... : ... .. . ... : ... .. . ... : ... .. . ...
ROW 2D : D-3 0B . ... : G-3 0B . ... : --- .. . ... : ... .. . ... : ... .. . ...
ROW 2E : ... .. . ... : ... .. . ... : ... .. . ... : ... .. . ... : ... .. . ...
ROW 2F : A-2 0B . ... : E-3 0B . ... : ... .. . ... : ... .. . ... : ... .. . ...
ROW 30 : ... .. . ... : ... .. . ... : ... .. . ... : ... .. . ... : C-3 00 . ...
ROW 31 : G-3 0B . ... : E-2 0B . ... : G-2 17 . ... : ... .. . ... : ... .. . ...
ROW 32 : ... .. . ... : ... .. . ... : ... .. . ... : ... .. . ... : ... .. . ...
ROW 33 : E-3 0B . ... : D-3 0B . ... : ... .. . ... : ... .. . ... : ... .. . ...
ROW 34 : ... .. . ... : ... .. . ... : ... .. . ... : ... .. . ... : ... .. . ...
ROW 35 : E-2 0B . ... : G-3 0B . ... : --- .. . ... : ... .. . ... : ... .. . ...
ROW 36 : ... .. . ... : ... .. . ... : ... .. . ... : ... .. . ... : ... .. . ...
ROW 37 : D-3 0B . ... : E-3 0B . ... : ... .. . ... : ... .. . ... : ... .. . ...
ROW 38 : ... .. . ... : ... .. . ... : ... .. . ... : ... .. . ... : D-3 00 . ...
ROW 39 : A-2 0B . ... : E-2 0B . ... : G-3 17 . ... : A-# 1B . ... : ... .. . ...
ROW 3A : ... .. . ... : ... .. . ... : ... .. . ... : ... .. . ... : ... .. . ...
ROW 3B : G-3 0B . ... : D-3 0B . ... : ... .. . ... : ... .. . ... : ... .. . ...
ROW 3C : ... .. . ... : ... .. . ... : ... .. . ... : ... .. . ... : ... .. . ...
ROW 3D : E-3 0B . ... : A-2 0B . ... : --- .. . ... : ... .. . ... : ... .. . ...
ROW 3E : ... .. . ... : ... .. . ... : ... .. . ... : ... .. . ... : ... .. . ...
ROW 3F : E-2 0B . ... : G-3 0B . ... : ... .. . ... : ... .. . ... : ... .. . ...
ROW 40 : ... .. . ... : ... .. . ... : ... .. . ... : ... .. . ... : C-3 00 . ...
ROW 41 : D-3 0B . ... : E-3 0B . ... : G-2 17 . ... : ... .. . ... : ... .. . ...
ROW 42 : ... .. . ... : ... .. . ... : ... .. . ... : ... .. . ... : ... .. . ...
ROW 43 : A-2 0B . ... : E-2 0B . ... : ... .. . ... : ... .. . ... : ... .. . ...
ROW 44 : ... .. . ... : ... .. . ... : ... .. . ... : ... .. . ... : ... .. . ...
ROW 45 : G-3 0B . ... : D-3 0B . ... : --- .. . ... : ... .. . ... : ... .. . ...
ROW 46 : ... .. . ... : ... .. . ... : ... .. . ... : ... .. . ... : ... .. . ...
ROW 47 : E-3 0B . ... : G-3 0B . ... : ... .. . ... : ... .. . ... : ... .. . ...
ROW 48 : ... .. . ... : ... .. . ... : ... .. . ... : ... .. . ... : D-3 00 . ...
ROW 49 : E-2 0B . ... : E-3 0B . ... : G-3 17 . ... : A-# 1B . ... : ... .. . ...
ROW 4A : ... .. . ... : ... .. . ... : ... .. . ... : ... .. . ... : ... .. . ...
ROW 4B : D-3 0B . ... : E-2 0B . ... : ... .. . ... : ... .. . ... : ... .. . ...
ROW 4C : ... .. . ... : ... .. . ... : ... .. . ... : ... .. . ... : ... .. . ...
ROW 4D : A-2 0B . ... : D-3 0B . ... : --- .. . ... : ... .. . ... : ... .. . ...
ROW 4E : ... .. . ... : ... .. . ... : ... .. . ... : ... .. . ... : ... .. . ...
ROW 4F : G-3 0B . ... : A-2 0B . ... : ... .. . ... : ... .. . ... : ... .. . ...
ROW 50 : ... .. . ... : ... .. . ... : ... .. . ... : ... .. . ... : D-3 00 . ...
ROW 51 : E-3 0B . ... : G-3 0B . ... : F-3 17 . ... : A-# 1B . ... : ... .. . ...
ROW 52 : ... .. . ... : ... .. . ... : ... .. . ... : ... .. . ... : E-3 00 . W09
ROW 53 : E-2 0B . ... : E-3 0B . ... : C-3 17 . ... : ... .. . ... : ... .. . ...
ROW 54 : ... .. . ... : ... .. . ... : ... .. . ... : ... .. . ... : D-3 00 . ...
ROW 55 : D-3 0B . ... : E-2 0B . ... : G-3 17 . ... : A-# 1B . ... : ... .. . ...
ROW 56 : ... .. . ... : ... .. . ... : ... .. . ... : ... .. . ... : D-3 00 . ...
ROW 57 : A-2 0B . ... : D-3 0B . ... : G-2 17 . ... : A-# 1B . ... : ... .. . ...

PATTERN 2F
ROW 00 : ... .. . ... : ... .. . ... : ... .. . ... : ... .. . ... : C-3 00 . ...
ROW 01 : G-3 0B . ... : G-3 0B . ... : E-2 17 . ... : ... .. . ... : ... .. . ...
ROW 02 : ... .. . ... : ... .. . ... : ... .. . ... : ... .. . ... : ... .. . ...
ROW 03 : G-3 0B . ... : G-3 0B . ... : ... .. . ... : ... .. . ... : ... .. . ...
ROW 04 : ... .. . ... : ... .. . ... : ... .. . ... : ... .. . ... : ... .. . ...
ROW 05 : G-2 0B . ... : G-2 0B . ... : --- .. . ... : ... .. . ... : ... .. . ...
ROW 06 : ... .. . ... : ... .. . ... : ... .. . ... : ... .. . ... : ... .. . ...
ROW 07 : F-3 0B . ... : F-3 0B . ... : ... .. . ... : ... .. . ... : ... .. . ...
ROW 08 : ... .. . ... : ... .. . ... : ... .. . ... : ... .. . ... : D-3 00 . ...
ROW 09 : C-3 0B . ... : C-3 0B . ... : E-3 17 . ... : A-# 1B . ... : ... .. . ...
ROW 0A : ... .. . ... : ... .. . ... : ... .. . ... : ... .. . ... : ... .. . ...
ROW 0B : A#3 0B . ... : A#3 0B . ... : ... .. . ... : ... .. . ... : ... .. . ...
ROW 0C : ... .. . ... : ... .. . ... : ... .. . ... : ... .. . ... : ... .. . ...
ROW 0D : G-3 0B . ... : G-3 0B . ... : --- .. . ... : ... .. . ... : ... .. . ...
ROW 0E : ... .. . ... : ... .. . ... : ... .. . ... : ... .. . ... : ... .. . ...
ROW 0F : G-2 0B . ... : G-2 0B . ... : ... .. . ... : ... .. . ... : ... .. . ...
ROW 10 : ... .. . ... : ... .. . ... : ... .. . ... : ... .. . ... : C-3 00 . ...
ROW 11 : F-3 0B . ... : F-3 0B . ... : E-2 17 . ... : ... .. . ... : ... .. . ...
ROW 12 : ... .. . ... : ... .. . ... : ... .. . ... : ... .. . ... : ... .. . ...
ROW 13 : C-3 0B . ... : A#3 0B . ... : ... .. . ... : ... .. . ... : ... .. . ...
ROW 14 : ... .. . ... : ... .. . ... : ... .. . ... : ... .. . ... : ... .. . ...
ROW 15 : A#3 0B . ... : G-3 0B . ... : --- .. . ... : ... .. . ... : ... .. . ...
ROW 16 : ... .. . ... : ... .. . ... : ... .. . ... : ... .. . ... : ... .. . ...
ROW 17 : G-3 0B . ... : G-2 0B . ... : ... .. . ... : ... .. . ... : ... .. . ...
ROW 18 : ... .. . ... : ... .. . ... : ... .. . ... : ... .. . ... : D-3 00 . ...
ROW 19 : G-2 0B . ... : F-3 0B . ... : E-3 17 . ... : A-# 1B . ... : ... .. . ...
ROW 1A : ... .. . ... : ... .. . ... : ... .. . ... : ... .. . ... : ... .. . ...
ROW 1B : F-3 0B . ... : C-3 0B . ... : ... .. . ... : ... .. . ... : ... .. . ...
ROW 1C : ... .. . ... : ... .. . ... : ... .. . ... : ... .. . ... : ... .. . ...
ROW 1D : C-3 0B . ... : A#3 0B . ... : --- .. . ... : ... .. . ... : ... .. . ...
ROW 1E : ... .. . ... : ... .. . ... : ... .. . ... : ... .. . ... : ... .. . ...
ROW 1F : A#3 0B . ... : G-3 0B . ... : ... .. . ... : ... .. . ... : ... .. . ...
ROW 20 : ... .. . ... : ... .. . ... : ... .. . ... : ... .. . ... : C-3 00 . ...
ROW 21 : G-3 0B . ... : G-2 0B . ... : E-2 17 . ... : ... .. . ... : ... .. . ...
ROW 22 : ... .. . ... : ... .. . ... : ... .. . ... : ... .. . ... : ... .. . ...
ROW 23 : G-2 0B . ... : F-3 0B . ... : ... .. . ... : ... .. . ... : ... .. . ...
ROW 24 : ... .. . ... : ... .. . ... : ... .. . ... : ... .. . ... : ... .. . ...
ROW 25 : F-3 0B . ... : A#3 0B . ... : --- .. . ... : ... .. . ... : ... .. . ...
ROW 26 : ... .. . ... : ... .. . ... : ... .. . ... : ... .. . ... : ... .. . ...
ROW 27 : C-3 0B . ... : G-3 0B . ... : ... .. . ... : ... .. . ... : ... .. . ...
ROW 28 : ... .. . ... : ... .. . ... : ... .. . ... : ... .. . ... : D-3 00 . ...
ROW 29 : A#3 0B . ... : G-2 0B . ... : E-3 17 . ... : A-# 1B . ... : ... .. . ...
ROW 2A : ... .. . ... : ... .. . ... : ... .. . ... : ... .. . ... : ... .. . ...
ROW 2B : G-3 0B . ... : F-3 0B . ... : ... .. . ... : ... .. . ... : ... .. . ...
ROW 2C : ... .. . ... : ... .. . ... : ... .. . ... : ... .. . ... : ... .. . ...
ROW 2D : G-2 0B . ... : C-3 0B . ... : --- .. . ... : ... .. . ... : ... .. . ...
ROW 2E : ... .. . ... : ... .. . ... : ... .. . ... : ... .. . ... : ... .. . ...
ROW 2F : F-3 0B . ... : A#3 0B . ... : ... .. . ... : ... .. . ... : ... .. . ...
ROW 30 : ... .. . ... : ... .. . ... : ... .. . ... : ... .. . ... : C-3 00 . ...
ROW 31 : C-3 0B . ... : G-3 0B . ... : E-2 17 . ... : ... .. . ... : ... .. . ...
ROW 32 : ... .. . ... : ... .. . ... : ... .. . ... : ... .. . ... : ... .. . ...
ROW 33 : A#3 0B . ... : G-2 0B . ... : ... .. . ... : ... .. . ... : ... .. . ...
ROW 34 : ... .. . ... : ... .. . ... : ... .. . ... : ... .. . ... : ... .. . ...
ROW 35 : G-3 0B . ... : F-3 0B . ... : --- .. . ... : ... .. . ... : ... .. . ...
ROW 36 : ... .. . ... : ... .. . ... : ... .. . ... : ... .. . ... : ... .. . ...
ROW 37 : G-2 0B . ... : A#3 0B . ... : ... .. . ... : ... .. . ... : ... .. . ...
ROW 38 : ... .. . ... : ... .. . ... : ... .. . ... : ... .. . ... : D-3 00 . ...
ROW 39 : F-3 0B . ... : G-3 0B . ... : E-3 17 . ... : A-# 1B . ... : ... .. . ...
ROW 3A : ... .. . ... : ... .. . ... : ... .. . ... : ... .. . ... : ... .. . ...
ROW 3B : C-3 0B . ... : G-2 0B . ... : ... .. . ... : ... .. . ... : ... .. . ...
ROW 3C : ... .. . ... : ... .. . ... : ... .. . ... : ... .. . ... : ... .. . ...
ROW 3D : A#3 0B . ... : F-3 0B . ... : --- .. . ... : ... .. . ... : ... .. . ...
ROW 3E : ... .. . ... : ... .. . ... : ... .. . ... : ... .. . ... : ... .. . ...
ROW 3F : G-3 0B . ... : C-3 0B . ... : ... .. . ... : ... .. . ... : ... .. . ...
ROW 40 : ... .. . ... : ... .. . ... : ... .. . ... : ... .. . ... : C-3 00 . ...
ROW 41 : G-2 0B . ... : A#3 0B . ... : E-2 17 . ... : ... .. . ... : ... .. . ...
ROW 42 : ... .. . ... : ... .. . ... : ... .. . ... : ... .. . ... : ... .. . ...
ROW 43 : F-3 0B . ... : G-3 0B . ... : ... .. . ... : ... .. . ... : ... .. . ...
ROW 44 : ... .. . ... : ... .. . ... : ... .. . ... : ... .. . ... : ... .. . ...
ROW 45 : C-3 0B . ... : G-2 0B . ... : --- .. . ... : ... .. . ... : ... .. . ...
ROW 46 : ... .. . ... : ... .. . ... : ... .. . ... : ... .. . ... : ... .. . ...
ROW 47 : A#3 0B . ... : F-3 0B . ... : ... .. . ... : ... .. . ... : ... .. . ...
ROW 48 : ... .. . ... : ... .. . ... : ... .. . ... : ... .. . ... : D-3 00 . ...
ROW 49 : G-3 0B . ... : A#3 0B . ... : E-3 17 . ... : A-# 1B . ... : ... .. . ...
ROW 4A : ... .. . ... : ... .. . ... : ... .. . ... : ... .. . ... : ... .. . ...
ROW 4B : G-2 0B . ... : G-3 0B . ... : ... .. . ... : ... .. . ... : ... .. . ...
ROW 4C : ... .. . ... : ... .. . ... : ... .. . ... : ... .. . ... : ... .. . ...
ROW 4D : F-3 0B . ... : G-2 0B . ... : --- .. . ... : ... .. . ... : ... .. . ...
ROW 4E : ... .. . ... : ... .. . ... : ... .. . ... : ... .. . ... : ... .. . ...
ROW 4F : C-3 0B . ... : F-3 0B . ... : ... .. . ... : ... .. . ... : ... .. . ...
ROW 50 : ... .. . ... : ... .. . ... : ... .. . ... : ... .. . ... : D-3 00 . ...
ROW 51 : A#3 0B . ... : C-3 0B . ... : D-3 17 . ... : A-# 1B . ... : ... .. . ...
ROW 52 : ... .. . ... : ... .. . ... : ... .. . ... : ... .. . ... : E-3 00 . W09
ROW 53 : G-3 0B . ... : A#3 0B . ... : A-2 17 . ... : ... .. . ... : ... .. . ...
ROW 54 : ... .. . ... : ... .. . ... : ... .. . ... : ... .. . ... : D-3 00 . ...
ROW 55 : G-2 0B . ... : G-3 0B . ... : E-3 17 . ... : A-# 1B . ... : ... .. . ...
ROW 56 : ... .. . ... : ... .. . ... : ... .. . ... : ... .. . ... : D-3 00 . ...
ROW 57 : F-3 0B . ... : G-2 0B . ... : E-2 17 . ... : A-# 1B . ... : ... .. . ...

PATTERN 30
ROW 00 : ... .. . ... : ... .. . ... : ... .. . ... : ... .. . ... : C-3 00 . ...
ROW 01 : C-3 0B . ... : F-3 0B . ... : G-2 17 . ... : ... .. . ... : ... .. . ...
ROW 02 : ... .. . ... : ... .. . ... : ... .. . ... : ... .. . ... : ... .. . ...
ROW 03 : A#3 0B . ... : A#3 0B . ... : ... .. . ... : ... .. . ... : ... .. . ...
ROW 04 : ... .. . ... : ... .. . ... : ... .. . ... : ... .. . ... : ... .. . ...
ROW 05 : E-3 0B . ... : E-3 0B . ... : --- .. . ... : ... .. . ... : ... .. . ...
ROW 06 : ... .. . ... : ... .. . ... : ... .. . ... : ... .. . ... : ... .. . ...
ROW 07 : E-2 0B . ... : E-2 0B . ... : ... .. . ... : ... .. . ... : ... .. . ...
ROW 08 : ... .. . ... : ... .. . ... : ... .. . ... : ... .. . ... : D-3 00 . ...
ROW 09 : D-3 0B . ... : D-3 0B . ... : G-3 17 . ... : A-# 1B . ... : ... .. . ...
ROW 0A : ... .. . ... : ... .. . ... : ... .. . ... : ... .. . ... : ... .. . ...
ROW 0B : A-2 0B . ... : A-2 0B . ... : ... .. . ... : ... .. . ... : ... .. . ...
ROW 0C : ... .. . ... : ... .. . ... : ... .. . ... : ... .. . ... : ... .. . ...
ROW 0D : G-3 0B . ... : G-3 0B . ... : --- .. . ... : ... .. . ... : ... .. . ...
ROW 0E : ... .. . ... : ... .. . ... : ... .. . ... : ... .. . ... : ... .. . ...
ROW 0F : E-3 0B . ... : E-3 0B . ... : ... .. . ... : ... .. . ... : ... .. . ...
ROW 10 : ... .. . ... : ... .. . ... : ... .. . ... : ... .. . ... : C-3 00 . ...
ROW 11 : E-2 0B . ... : E-2 0B . ... : G-2 17 . ... : ... .. . ... : ... .. . ...
ROW 12 : ... .. . ... : ... .. . ... : ... .. . ... : ... .. . ... : ... .. . ...
ROW 13 : D-3 0B . ... : D-3 0B . ... : ... .. . ... : ... .. . ... : ... .. . ...
ROW 14 : ... .. . ... : ... .. . ... : ... .. . ... : ... .. . ... : ... .. . ...
ROW 15 : A-2 0B . ... : G-3 0B . ... : --- .. . ... : ... .. . ... : ... .. . ...
ROW 16 : ... .. . ... : ... .. . ... : ... .. . ... : ... .. . ... : ... .. . ...
ROW 17 : G-3 0B . ... : E-3 0B . ... : ... .. . ... : ... .. . ... : ... .. . ...
ROW 18 : ... .. . ... : ... .. . ... : ... .. . ... : ... .. . ... : D-3 00 . ...
ROW 19 : E-3 0B . ... : E-2 0B . ... : G-3 17 . ... : A-# 1B . ... : ... .. . ...
ROW 1A : ... .. . ... : ... .. . ... : ... .. . ... : ... .. . ... : ... .. . ...
ROW 1B : E-2 0B . ... : D-3 0B . ... : ... .. . ... : ... .. . ... : ... .. . ...
ROW 1C : ... .. . ... : ... .. . ... : ... .. . ... : ... .. . ... : ... .. . ...
ROW 1D : D-3 0B . ... : A-2 0B . ... : --- .. . ... : ... .. . ... : ... .. . ...
ROW 1E : ... .. . ... : ... .. . ... : ... .. . ... : ... .. . ... : ... .. . ...
ROW 1F : A-2 0B . ... : G-3 0B . ... : ... .. . ... : ... .. . ... : ... .. . ...
ROW 20 : ... .. . ... : ... .. . ... : ... .. . ... : ... .. . ... : C-3 00 . ...
ROW 21 : G-3 0B . ... : E-3 0B . ... : G-2 17 . ... : ... .. . ... : ... .. . ...
ROW 22 : ... .. . ... : ... .. . ... : ... .. . ... : ... .. . ... : ... .. . ...
ROW 23 : E-3 0B . ... : E-2 0B . ... : ... .. . ... : ... .. . ... : ... .. . ...
ROW 24 : ... .. . ... : ... .. . ... : ... .. . ... : ... .. . ... : ... .. . ...
ROW 25 : E-2 0B . ... : D-3 0B . ... : --- .. . ... : ... .. . ... : ... .. . ...
ROW 26 : ... .. . ... : ... .. . ... : ... .. . ... : ... .. . ... : ... .. . ...
ROW 27 : D-3 0B . ... : G-3 0B . ... : ... .. . ... : ... .. . ... : ... .. . ...
ROW 28 : ... .. . ... : ... .. . ... : ... .. . ... : ... .. . ... : D-3 00 . ...
ROW 29 : A-2 0B . ... : E-3 0B . ... : G-3 17 . ... : A-# 1B . ... : ... .. . ...
ROW 2A : ... .. . ... : ... .. . ... : ... .. . ... : ... .. . ... : ... .. . ...
ROW 2B : G-3 0B . ... : E-2 0B . ... : ... .. . ... : ... .. . ... : ... .. . ...
ROW 2C : ... .. . ... : ... .. . ... : ... .. . ... : ... .. . ... : ... .. . ...
ROW 2D : E-3 0B . ... : D-3 0B . ... : --- .. . ... : ... .. . ... : ... .. . ...
ROW 2E : ... .. . ... : ... .. . ... : ... .. . ... : ... .. . ... : ... .. . ...
ROW 2F : E-2 0B . ... : A-2 0B . ... : ... .. . ... : ... .. . ... : ... .. . ...
ROW 30 : ... .. . ... : ... .. . ... : ... .. . ... : ... .. . ... : C-3 00 . ...
ROW 31 : D-3 0B . ... : G-3 0B . ... : G-2 17 . ... : ... .. . ... : ... .. . ...
ROW 32 : ... .. . ... : ... .. . ... : ... .. . ... : ... .. . ... : ... .. . ...
ROW 33 : A-2 0B . ... : E-3 0B . ... : ... .. . ... : ... .. . ... : ... .. . ...
ROW 34 : ... .. . ... : ... .. . ... : ... .. . ... : ... .. . ... : ... .. . ...
ROW 35 : G-3 0B . ... : E-2 0B . ... : --- .. . ... : ... .. . ... : ... .. . ...
ROW 36 : ... .. . ... : ... .. . ... : ... .. . ... : ... .. . ... : ... .. . ...
ROW 37 : E-3 0B . ... : D-3 0B . ... : ... .. . ... : ... .. . ... : ... .. . ...
ROW 38 : ... .. . ... : ... .. . ... : ... .. . ... : ... .. . ... : D-3 00 . ...
ROW 39 : E-2 0B . ... : G-3 0B . ... : G-3 17 . ... : A-# 1B . ... : ... .. . ...
ROW 3A : ... .. . ... : ... .. . ... : ... .. . ... : ... .. . ... : ... .. . ...
ROW 3B : D-3 0B . ... : E-3 0B . ... : ... .. . ... : ... .. . ... : ... .. . ...
ROW 3C : ... .. . ... : ... .. . ... : ... .. . ... : ... .. . ... : ... .. . ...
ROW 3D : A-2 0B . ... : E-2 0B . ... : --- .. . ... : ... .. . ... : ... .. . ...
ROW 3E : ... .. . ... : ... .. . ... : ... .. . ... : ... .. . ... : ... .. . ...
ROW 3F : G-3 0B . ... : D-3 0B . ... : ... .. . ... : ... .. . ... : ... .. . ...
ROW 40 : ... .. . ... : ... .. . ... : ... .. . ... : ... .. . ... : C-3 00 . ...
ROW 41 : E-3 0B . ... : A-2 0B . ... : G-2 17 . ... : ... .. . ... : ... .. . ...
ROW 42 : ... .. . ... : ... .. . ... : ... .. . ... : ... .. . ... : ... .. . ...
ROW 43 : E-2 0B . ... : G-3 0B . ... : ... .. . ... : ... .. . ... : ... .. . ...
ROW 44 : ... .. . ... : ... .. . ... : ... .. . ... : ... .. . ... : ... .. . ...
ROW 45 : D-3 0B . ... : E-3 0B . ... : --- .. . ... : ... .. . ... : ... .. . ...
ROW 46 : ... .. . ... : ... .. . ... : ... .. . ... : ... .. . ... : ... .. . ...
ROW 47 : A-2 0B . ... : E-2 0B . ... : ... .. . ... : ... .. . ... : ... .. . ...
ROW 48 : ... .. . ... : ... .. . ... : ... .. . ... : ... .. . ... : D-3 00 . ...
ROW 49 : G-3 0B . ... : D-3 0B . ... : G-3 17 . ... : A-# 1B . ... : ... .. . ...
ROW 4A : ... .. . ... : ... .. . ... : ... .. . ... : ... .. . ... : ... .. . ...
ROW 4B : E-3 0B . ... : G-3 0B . ... : ... .. . ... : ... .. . ... : ... .. . ...
ROW 4C : ... .. . ... : ... .. . ... : ... .. . ... : ... .. . ... : ... .. . ...
ROW 4D : E-2 0B . ... : E-3 0B . ... : --- .. . ... : ... .. . ... : ... .. . ...
ROW 4E : ... .. . ... : ... .. . ... : ... .. . ... : ... .. . ... : ... .. . ...
ROW 4F : D-3 0B . ... : E-2 0B . ... : ... .. . ... : ... .. . ... : ... .. . ...
ROW 50 : ... .. . ... : ... .. . ... : ... .. . ... : ... .. . ... : D-3 00 . ...
ROW 51 : A-2 0B . ... : D-3 0B . ... : F-3 17 . ... : A-# 1B . ... : ... .. . ...
ROW 52 : ... .. . ... : ... .. . ... : ... .. . ... : ... .. . ... : E-3 00 . W09
ROW 53 : G-3 0B . ... : A-2 0B . ... : C-3 17 . ... : ... .. . ... : ... .. . ...
ROW 54 : ... .. . ... : ... .. . ... : ... .. . ... : ... .. . ... : D-3 00 . ...
ROW 55 : E-3 0B . ... : G-3 0B . ... : G-3 17 . ... : A-# 1B . ... : ... .. . ...
ROW 56 : ... .. . ... : ... .. . ... : ... .. . ... : ... .. . ... : D-3 00 . ...
ROW 57 : E-2 0B . ... : E-3 0B . ... : G-2 17 . ... : A-# 1B . ... : ... .. . ...

PATTERN 31
ROW 00 : ... .. . ... : ... .. . ... : ... .. . ... : ... .. . ... : C-3 00 . ...
ROW 01 : D-3 0B . ... : E-2 0B . ... : E-2 17 . ... : ... .. . ... : ... .. . ...
ROW 02 : ... .. . ... : ... .. . ... : ... .. . ... : ... .. . ... : ... .. . ...
ROW 03 : A-2 0B . ... : D-3 0B . ... : ... .. . ... : ... .. . ... : ... .. . ...
ROW 04 : ... .. . ... : ... .. . ... : ... .. . ... : ... .. . ... : ... .. . ...
ROW 05 : G-3 0B . ... : G-3 0B . ... : --- .. . ... : ... .. . ... : ... .. . ...
ROW 06 : ... .. . ... : ... .. . ... : ... .. . ... : ... .. . ... : ... .. . ...
ROW 07 : G-3 0B . ... : G-3 0B . ... : ... .. . ... : ... .. . ... : ... .. . ...
ROW 08 : ... .. . ... : ... .. . ... : ... .. . ... : ... .. . ... : D-3 00 . ...
ROW 09 : G-2 0B . ... : G-2 0B . ... : E-3 17 . ... : A-# 1B . ... : ... .. . ...
ROW 0A : ... .. . ... : ... .. . ... : ... .. . ... : ... .. . ... : ... .. . ...
ROW 0B : F-3 0B . ... : F-3 0B . ... : ... .. . ... : ... .. . ... : ... .. . ...
ROW 0C : ... .. . ... : ... .. . ... : ... .. . ... : ... .. . ... : ... .. . ...
ROW 0D : C-3 0B . ... : C-3 0B . ... : --- .. . ... : ... .. . ... : ... .. . ...
ROW 0E : ... .. . ... : ... .. . ... : ... .. . ... : ... .. . ... : ... .. . ...
ROW 0F : A#3 0B . ... : A#3 0B . ... : ... .. . ... : ... .. . ... : ... .. . ...
ROW 10 : ... .. . ... : ... .. . ... : ... .. . ... : ... .. . ... : C-3 00 . ...
ROW 11 : G-3 0B . ... : G-3 0B . ... : E-2 17 . ... : ... .. . ... : ... .. . ...
ROW 12 : ... .. . ... : ... .. . ... : ... .. . ... : ... .. . ... : ... .. . ...
ROW 13 : G-2 0B . ... : G-2 0B . ... : ... .. . ... : ... .. . ... : ... .. . ...
ROW 14 : ... .. . ... : ... .. . ... : ... .. . ... : ... .. . ... : ... .. . ...
ROW 15 : F-3 0B . ... : F-3 0B . ... : --- .. . ... : ... .. . ... : ... .. . ...
ROW 16 : ... .. . ... : ... .. . ... : ... .. . ... : ... .. . ... : ... .. . ...
ROW 17 : C-3 0B . ... : A#3 0B . ... : ... .. . ... : ... .. . ... : ... .. . ...
ROW 18 : ... .. . ... : ... .. . ... : ... .. . ... : ... .. . ... : D-3 00 . ...
ROW 19 : A#3 0B . ... : G-3 0B . ... : E-3 17 . ... : A-# 1B . ... : ... .. . ...
ROW 1A : ... .. . ... : ... .. . ... : ... .. . ... : ... .. . ... : ... .. . ...
ROW 1B : G-3 0B . ... : G-2 0B . ... : ... .. . ... : ... .. . ... : ... .. . ...
ROW 1C : ... .. . ... : ... .. . ... : ... .. . ... : ... .. . ... : ... .. . ...
ROW 1D : G-2 0B . ... : F-3 0B . ... : --- .. . ... : ... .. . ... : ... .. . ...
ROW 1E : ... .. . ... : ... .. . ... : ... .. . ... : ... .. . ... : ... .. . ...
ROW 1F : F-3 0B . ... : C-3 0B . ... : ... .. . ... : ... .. . ... : ... .. . ...
ROW 20 : ... .. . ... : ... .. . ... : ... .. . ... : ... .. . ... : C-3 00 . ...
ROW 21 : C-3 0B . ... : A#3 0B . ... : E-2 17 . ... : ... .. . ... : ... .. . ...
ROW 22 : ... .. . ... : ... .. . ... : ... .. . ... : ... .. . ... : ... .. . ...
ROW 23 : A#3 0B . ... : G-3 0B . ... : ... .. . ... : ... .. . ... : ... .. . ...
ROW 24 : ... .. . ... : ... .. . ... : ... .. . ... : ... .. . ... : ... .. . ...
ROW 25 : G-3 0B . ... : G-2 0B . ... : --- .. . ... : ... .. . ... : ... .. . ...
ROW 26 : ... .. . ... : ... .. . ... : ... .. . ... : ... .. . ... : ... .. . ...
ROW 27 : G-2 0B . ... : F-3 0B . ... : ... .. . ... : ... .. . ... : ... .. . ...
ROW 28 : ... .. . ... : ... .. . ... : ... .. . ... : ... .. . ... : D-3 00 . ...
ROW 29 : F-3 0B . ... : A#3 0B . ... : E-3 17 . ... : A-# 1B . ... : ... .. . ...
ROW 2A : ... .. . ... : ... .. . ... : ... .. . ... : ... .. . ... : ... .. . ...
ROW 2B : C-3 0B . ... : G-3 0B . ... : ... .. . ... : ... .. . ... : ... .. . ...
ROW 2C : ... .. . ... : ... .. . ... : ... .. . ... : ... .. . ... : ... .. . ...
ROW 2D : A#3 0B . ... : G-2 0B . ... : --- .. . ... : ... .. . ... : ... .. . ...
ROW 2E : ... .. . ... : ... .. . ... : ... .. . ... : ... .. . ... : ... .. . ...
ROW 2F : G-3 0B . ... : F-3 0B . ... : ... .. . ... : ... .. . ... : ... .. . ...
ROW 30 : ... .. . ... : ... .. . ... : ... .. . ... : ... .. . ... : C-3 00 . ...
ROW 31 : G-2 0B . ... : C-3 0B . ... : E-2 17 . ... : ... .. . ... : ... .. . ...
ROW 32 : ... .. . ... : ... .. . ... : ... .. . ... : ... .. . ... : ... .. . ...
ROW 33 : F-3 0B . ... : A#3 0B . ... : ... .. . ... : ... .. . ... : ... .. . ...
ROW 34 : ... .. . ... : ... .. . ... : ... .. . ... : ... .. . ... : ... .. . ...
ROW 35 : C-3 0B . ... : G-3 0B . ... : --- .. . ... : ... .. . ... : ... .. . ...
ROW 36 : ... .. . ... : ... .. . ... : ... .. . ... : ... .. . ... : ... .. . ...
ROW 37 : A#3 0B . ... : G-2 0B . ... : ... .. . ... : ... .. . ... : ... .. . ...
ROW 38 : ... .. . ... : ... .. . ... : ... .. . ... : ... .. . ... : D-3 00 . ...
ROW 39 : G-3 0B . ... : F-3 0B . ... : E-3 17 . ... : A-# 1B . ... : ... .. . ...
ROW 3A : ... .. . ... : ... .. . ... : ... .. . ... : ... .. . ... : ... .. . ...
ROW 3B : G-2 0B . ... : A#3 0B . ... : ... .. . ... : ... .. . ... : ... .. . ...
ROW 3C : ... .. . ... : ... .. . ... : ... .. . ... : ... .. . ... : ... .. . ...
ROW 3D : F-3 0B . ... : G-3 0B . ... : --- .. . ... : ... .. . ... : ... .. . ...
ROW 3E : ... .. . ... : ... .. . ... : ... .. . ... : ... .. . ... : ... .. . ...
ROW 3F : C-3 0B . ... : G-2 0B . ... : ... .. . ... : ... .. . ... : ... .. . ...
ROW 40 : ... .. . ... : ... .. . ... : ... .. . ... : ... .. . ... : C-3 00 . ...
ROW 41 : A#3 0B . ... : F-3 0B . ... : E-2 17 . ... : ... .. . ... : ... .. . ...
ROW 42 : ... .. . ... : ... .. . ... : ... .. . ... : ... .. . ... : ... .. . ...
ROW 43 : G-3 0B . ... : C-3 0B . ... : ... .. . ... : ... .. . ... : ... .. . ...
ROW 44 : ... .. . ... : ... .. . ... : ... .. . ... : ... .. . ... : ... .. . ...
ROW 45 : G-2 0B . ... : A#3 0B . ... : --- .. . ... : ... .. . ... : ... .. . ...
ROW 46 : ... .. . ... : ... .. . ... : ... .. . ... : ... .. . ... : ... .. . ...
ROW 47 : F-3 0B . ... : G-3 0B . ... : ... .. . ... : ... .. . ... : ... .. . ...
ROW 48 : ... .. . ... : ... .. . ... : ... .. . ... : ... .. . ... : D-3 00 . ...
ROW 49 : C-3 0B . ... : G-2 0B . ... : E-3 17 . ... : A-# 1B . ... : ... .. . ...
ROW 4A : ... .. . ... : ... .. . ... : ... .. . ... : ... .. . ... : ... .. . ...
ROW 4B : A#3 0B . ... : F-3 0B . ... : ... .. . ... : ... .. . ... : ... .. . ...
ROW 4C : ... .. . ... : ... .. . ... : ... .. . ... : ... .. . ... : ... .. . ...
ROW 4D : G-3 0B . ... : A#3 0B . ... : --- .. . ... : ... .. . ... : ... .. . ...
ROW 4E : ... .. . ... : ... .. . ... : ... .. . ... : ... .. . ... : ... .. . ...
ROW 4F : G-2 0B . ... : G-3 0B . ... : ... .. . ... : ... .. . ... : ... .. . ...
ROW 50 : ... .. . ... : ... .. . ... : ... .. . ... : ... .. . ... : D-3 00 . ...
ROW 51 : F-3 0B . ... : G-2 0B . ... : D-3 17 . ... : A-# 1B . ... : ... .. . ...
ROW 52 : ... .. . ... : ... .. . ... : ... .. . ... : ... .. . ... : E-3 00 . W09
ROW 53 : C-3 0B . ... : F-3 0B . ... : A-2 17 . ... : ... .. . ... : ... .. . ...
ROW 54 : ... .. . ... : ... .. . ... : ... .. . ... : ... .. . ... : D-3 00 . ...
ROW 55 : A#3 0B . ... : C-3 0B . ... : E-3 17 . ... : A-# 1B . ... : ... .. . ...
ROW 56 : ... .. . ... : ... .. . ... : ... .. . ... : ... .. . ... : D-3 00 . ...
ROW 57 : G-3 0B . ... : A#3 0B . ... : E-2 17 . ... : A-# 1B . ... : ... .. . ...

PATTERN 32
ROW 00 : ... .. . ... : ... .. . ... : ... .. . ... : ... .. . ... : C-3 00 . ...
ROW 01 : G-2 0B . ... : G-3 0B . ... : G-2 17 . ... : ... .. . ... : ... .. . ...
ROW 02 : ... .. . ... : ... .. . ... : ... .. . ... : ... .. . ... : ... .. . ...
ROW 03 : F-3 0B . ... : G-2 0B . ... : ... .. . ... : ... .. . ... : ... .. . ...
ROW 04 : ... .. . ... : ... .. . ... : ... .. . ... : ... .. . ... : ... .. . ...
ROW 05 : C-3 0B . ... : F-3 0B . ... : --- .. . ... : ... .. . ... : ... .. . ...
ROW 06 : ... .. . ... : ... .. . ... : ... .. . ... : ... .. . ... : ... .. . ...
ROW 07 : A#3 0B . ... : A#3 0B . ... : ... .. . ... : ... .. . ... : ... .. . ...
ROW 08 : ... .. . ... : ... .. . ... : ... .. . ... : ... .. . ... : D-3 00 . ...
ROW 09 : E-3 0B . ... : E-3 0B . ... : G-3 17 . ... : A-# 1B . ... : ... .. . ...
ROW 0A : ... .. . ... : ... .. . ... : ... .. . ... : ... .. . ... : ... .. . ...
ROW 0B : E-2 0B . ... : E-2 0B . ... : ... .. . ... : ... .. . ... : ... .. . ...
ROW 0C : ... .. . ... : ... .. . ... : ... .. . ... : ... .. . ... : ... .. . ...
ROW 0D : D-3 0B . ... : D-3 0B . ... : --- .. . ... : ... .. . ... : ... .. . ...
ROW 0E : ... .. . ... : ... .. . ... : ... .. . ... : ... .. . ... : ... .. . ...
ROW 0F : A-2 0B . ... : A-2 0B . ... : ... .. . ... : ... .. . ... : ... .. . ...
ROW 10 : ... .. . ... : ... .. . ... : ... .. . ... : ... .. . ... : C-3 00 . ...
ROW 11 : G-3 0B . ... : G-3 0B . ... : G-2 17 . ... : ... .. . ... : ... .. . ...
ROW 12 : ... .. . ... : ... .. . ... : ... .. . ... : ... .. . ... : ... .. . ...
ROW 13 : E-3 0B . ... : E-3 0B . ... : ... .. . ... : ... .. . ... : ... .. . ...
ROW 14 : ... .. . ... : ... .. . ... : ... .. . ... : ... .. . ... : ... .. . ...
ROW 15 : E-2 0B . ... : E-2 0B . ... : --- .. . ... : ... .. . ... : ... .. . ...
ROW 16 : ... .. . ... : ... .. . ... : ... .. . ... : ... .. . ... : ... .. . ...
ROW 17 : D-3 0B . ... : D-3 0B . ... : ... .. . ... : ... .. . ... : ... .. . ...
ROW 18 : ... .. . ... : ... .. . ... : ... .. . ... : ... .. . ... : D-3 00 . ...
ROW 19 : A-2 0B . ... : G-3 0B . ... : G-3 17 . ... : A-# 1B . ... : ... .. . ...
ROW 1A : ... .. . ... : ... .. . ... : ... .. . ... : ... .. . ... : ... .. . ...
ROW 1B : G-3 0B . ... : E-3 0B . ... : ... .. . ... : ... .. . ... : ... .. . ...
ROW 1C : ... .. . ... : ... .. . ... : ... .. . ... : ... .. . ... : ... .. . ...
ROW 1D : E-3 0B . ... : E-2 0B . ... : --- .. . ... : ... .. . ... : ... .. . ...
ROW 1E : ... .. . ... : ... .. . ... : ... .. . ... : ... .. . ... : ... .. . ...
ROW 1F : E-2 0B . ... : D-3 0B . ... : ... .. . ... : ... .. . ... : ... .. . ...
ROW 20 : ... .. . ... : ... .. . ... : ... .. . ... : ... .. . ... : C-3 00 . ...
ROW 21 : D-3 0B . ... : A-2 0B . ... : G-2 17 . ... : ... .. . ... : ... .. . ...
ROW 22 : ... .. . ... : ... .. . ... : ... .. . ... : ... .. . ... : ... .. . ...
ROW 23 : A-2 0B . ... : G-3 0B . ... : ... .. . ... : ... .. . ... : ... .. . ...
ROW 24 : ... .. . ... : ... .. . ... : ... .. . ... : ... .. . ... : ... .. . ...
ROW 25 : G-3 0B . ... : E-3 0B . ... : --- .. . ... : ... .. . ... : ... .. . ...
ROW 26 : ... .. . ... : ... .. . ... : ... .. . ... : ... .. . ... : ... .. . ...
ROW 27 : E-3 0B . ... : E-2 0B . ... : ... .. . ... : ... .. . ... : ... .. . ...
ROW 28 : ... .. . ... : ... .. . ... : ... .. . ... : ... .. . ... : D-3 00 . ...
ROW 29 : E-2 0B . ... : D-3 0B . ... : G-3 17 . ... : A-# 1B . ... : ... .. . ...
ROW 2A : ... .. . ... : ... .. . ... : ... .. . ... : ... .. . ... : ... .. . ...
ROW 2B : D-3 0B . ... : G-3 0B . ... : ... .. . ... : ... .. . ... : ... .. . ...
ROW 2C : ... .. . ... : ... .. . ... : ... .. . ... : ... .. . ... : ... .. . ...
ROW 2D : A-2 0B . ... : E-3 0B . ... : --- .. . ... : ... .. . ... : ... .. . ...
ROW 2E : ... .. . ... : ... .. . ... : ... .. . ... : ... .. . ... : ... .. . ...
ROW 2F : G-3 0B . ... : E-2 0B . ... : ... .. . ... : ... .. . ... : ... .. . ...
ROW 30 : ... .. . ... : ... .. . ... : ... .. . ... : ... .. . ... : C-3 00 . ...
ROW 31 : E-3 0B . ... : D-3 0B . ... : G-2 17 . ... : ... .. . ... : ... .. . ...
ROW 32 : ... .. . ... : ... .. . ... : ... .. . ... : ... .. . ... : ... .. . ...
ROW 33 : E-2 0B . ... : A-2 0B . ... : ... .. . ... : ... .. . ... : ... .. . ...
ROW 34 : ... .. . ... : ... .. . ... : ... .. . ... : ... .. . ... : ... .. . ...
ROW 35 : D-3 0B . ... : G-3 0B . ... : --- .. . ... : ... .. . ... : ... .. . ...
ROW 36 : ... .. . ... : ... .. . ... : ... .. . ... : ... .. . ... : ... .. . ...
ROW 37 : A-2 0B . ... : E-3 0B . ... : ... .. . ... : ... .. . ... : ... .. . ...
ROW 38 : ... .. . ... : ... .. . ... : ... .. . ... : ... .. . ... : D-3 00 . ...
ROW 39 : G-3 0B . ... : E-2 0B . ... : G-3 17 . ... : A-# 1B . ... : ... .. . ...
ROW 3A : ... .. . ... : ... .. . ... : ... .. . ... : ... .. . ... : ... .. . ...
ROW 3B : E-3 0B . ... : D-3 0B . ... : ... .. . ... : ... .. . ... : ... .. . ...
ROW 3C : ... .. . ... : ... .. . ... : ... .. . ... : ... .. . ... : ... .. . ...
ROW 3D : E-2 0B . ... : G-3 0B . ... : --- .. . ... : ... .. . ... : ... .. . ...
ROW 3E : ... .. . ... : ... .. . ... : ... .. . ... : ... .. . ... : ... .. . ...
ROW 3F : D-3 0B . ... : E-3 0B . ... : ... .. . ... : ... .. . ... : ... .. . ...
ROW 40 : ... .. . ... : ... .. . ... : ... .. . ... : ... .. . ... : C-3 00 . ...
ROW 41 : A-2 0B . ... : E-2 0B . ... : G-2 17 . ... : ... .. . ... : ... .. . ...
ROW 42 : ... .. . ... : ... .. . ... : ... .. . ... : ... .. . ... : ... .. . ...
ROW 43 : G-3 0B . ... : D-3 0B . ... : ... .. . ... : ... .. . ... : ... .. . ...
ROW 44 : ... .. . ... : ... .. . ... : ... .. . ... : ... .. . ... : ... .. . ...
ROW 45 : E-3 0B . ... : A-2 0B . ... : --- .. . ... : ... .. . ... : ... .. . ...
ROW 46 : ... .. . ... : ... .. . ... : ... .. . ... : ... .. . ... : ... .. . ...
ROW 47 : E-2 0B . ... : G-3 0B . ... : ... .. . ... : ... .. . ... : ... .. . ...
ROW 48 : ... .. . ... : ... .. . ... : ... .. . ... : ... .. . ... : D-3 00 . ...
ROW 49 : D-3 0B . ... : E-3 0B . ... : G-3 17 . ... : A-# 1B . ... : ... .. . ...
ROW 4A : ... .. . ... : ... .. . ... : ... .. . ... : ... .. . ... : ... .. . ...
ROW 4B : A-2 0B . ... : E-2 0B . ... : ... .. . ... : ... .. . ... : ... .. . ...
ROW 4C : ... .. . ... : ... .. . ... : ... .. . ... : ... .. . ... : ... .. . ...
ROW 4D : G-3 0B . ... : D-3 0B . ... : --- .. . ... : ... .. . ... : ... .. . ...
ROW 4E : ... .. . ... : ... .. . ... : ... .. . ... : ... .. . ... : ... .. . ...
ROW 4F : E-3 0B . ... : G-3 0B . ... : ... .. . ... : ... .. . ... : ... .. . ...
ROW 50 : ... .. . ... : ... .. . ... : ... .. . ... : ... .. . ... : D-3 00 . ...
ROW 51 : E-2 0B . ... : E-3 0B . ... : F-3 17 . ... : A-# 1B . ... : ... .. . ...
ROW 52 : ... .. . ... : ... .. . ... : ... .. . ... : ... .. . ... : E-3 00 . W09
ROW 53 : D-3 0B . ... : E-2 0B . ... : C-3 17 . ... : ... .. . ... : ... .. . ...
ROW 54 : ... .. . ... : ... .. . ... : ... .. . ... : ... .. . ... : D-3 00 . ...
ROW 55 : A-2 0B . ... : D-3 0B . ... : G-3 17 . ... : A-# 1B . ... : ... .. . ...
ROW 56 : ... .. . ... : ... .. . ... : ... .. . ... : ... .. . ... : D-3 00 . ...
ROW 57 : G-3 0B . ... : A-2 0B . ... : G-2 17 . ... : A-# 1B . ... : ... .. . ...

PATTERN 33
ROW 00 : ... .. . ... : ... .. . ... : ... .. . ... : ... .. . ... : C-3 00 . ...
ROW 01 : E-3 0B . ... : G-3 0B . ... : E-2 17 . ... : ... .. . ... : ... .. . ...
ROW 02 : ... .. . ... : ... .. . ... : ... .. . ... : ... .. . ... : ... .. . ...
ROW 03 : E-2 0B . ... : E-3 0B . ... : ... .. . ... : ... .. . ... : ... .. . ...
ROW 04 : ... .. . ... : ... .. . ... : ... .. . ... : ... .. . ... : ... .. . ...
ROW 05 : D-3 0B . ... : E-2 0B . ... : --- .. . ... : ... .. . ... : ... .. . ...
ROW 06 : ... .. . ... : ... .. . ... : ... .. . ... : ... .. . ... : ... .. . ...
ROW 07 : A-2 0B . ... : D-3 0B . ... : ... .. . ... : ... .. . ... : ... .. . ...
ROW 08 : ... .. . ... : ... .. . ... : ... .. . ... : ... .. . ... : D-3 00 . ...
ROW 09 : G-3 0B . ... : G-3 0B . ... : E-3 17 . ... : A-# 1B . ... : ... .. . ...
ROW 0A : ... .. . ... : ... .. . ... : ... .. . ... : ... .. . ... : ... .. . ...
ROW 0B : G-3 0B . ... : G-3 0B . ... : ... .. . ... : ... .. . ... : ... .. . ...
ROW 0C : ... .. . ... : ... .. . ... : ... .. . ... : ... .. . ... : ... .. . ...
ROW 0D : G-2 0B . ... : G-2 0B . ... : --- .. . ... : ... .. . ... : ... .. . ...
ROW 0E : ... .. . ... : ... .. . ... : ... .. . ... : ... .. . ... : ... .. . ...
ROW 0F : F-3 0B . ... : F-3 0B . ... : ... .. . ... : ... .. . ... : ... .. . ...
ROW 10 : ... .. . ... : ... .. . ... : ... .. . ... : ... .. . ... : C-3 00 . ...
ROW 11 : C-3 0B . ... : C-3 0B . ... : E-2 17 . ... : ... .. . ... : ... .. . ...
ROW 12 : ... .. . ... : ... .. . ... : ... .. . ... : ... .. . ... : ... .. . ...
ROW 13 : A#3 0B . ... : A#3 0B . ... : ... .. . ... : ... .. . ... : ... .. . ...
ROW 14 : ... .. . ... : ... .. . ... : ... .. . ... : ... .. . ... : ... .. . ...
ROW 15 : G-3 0B . ... : G-3 0B . ... : --- .. . ... : ... .. . ... : ... .. . ...
ROW 16 : ... .. . ... : ... .. . ... : ... .. . ... : ... .. . ... : ... .. . ...
ROW 17 : G-2 0B . ... : G-2 0B . ... : ... .. . ... : ... .. . ... : ... .. . ...
ROW 18 : ... .. . ... : ... .. . ... : ... .. . ... : ... .. . ... : D-3 00 . ...
ROW 19 : F-3 0B . ... : F-3 0B . ... : E-3 17 . ... : A-# 1B . ... : ... .. . ...
ROW 1A : ... .. . ... : ... .. . ... : ... .. . ... : ... .. . ... : ... .. . ...
ROW 1B : C-3 0B . ... : A#3 0B . ... : ... .. . ... : ... .. . ... : ... .. . ...
ROW 1C : ... .. . ... : ... .. . ... : ... .. . ... : ... .. . ... : ... .. . ...
ROW 1D : A#3 0B . ... : G-3 0B . ... : --- .. . ... : ... .. . ... : ... .. . ...
ROW 1E : ... .. . ... : ... .. . ... : ... .. . ... : ... .. . ... : ... .. . ...
ROW 1F : G-3 0B . ... : G-2 0B . ... : ... .. . ... : ... .. . ... : ... .. . ...
ROW 20 : ... .. . ... : ... .. . ... : ... .. . ... : ... .. . ... : C-3 00 . ...
ROW 21 : G-2 0B . ... : F-3 0B . ... : E-2 17 . ... : ... .. . ... : ... .. . ...
ROW 22 : ... .. . ... : ... .. . ... : ... .. . ... : ... .. . ... : ... .. . ...
ROW 23 : F-3 0B . ... : C-3 0B . ... : ... .. . ... : ... .. . ... : ... .. . ...
ROW 24 : ... .. . ... : ... .. . ... : ... .. . ... : ... .. . ... : ... .. . ...
ROW 25 : C-3 0B . ... : A#3 0B . ... : --- .. . ... : ... .. . ... : ... .. . ...
ROW 26 : ... .. . ... : ... .. . ... : ... .. . ... : ... .. . ... : ... .. . ...
ROW 27 : A#3 0B . ... : G-3 0B . ... : ... .. . ... : ... .. . ... : ... .. . ...
ROW 28 : ... .. . ... : ... .. . ... : ... .. . ... : ... .. . ... : D-3 00 . ...
ROW 29 : G-3 0B . ... : G-2 0B . ... : E-3 17 . ... : A-# 1B . ... : ... .. . ...
ROW 2A : ... .. . ... : ... .. . ... : ... .. . ... : ... .. . ... : ... .. . ...
ROW 2B : G-2 0B . ... : F-3 0B . ... : ... .. . ... : ... .. . ... : ... .. . ...
ROW 2C : ... .. . ... : ... .. . ... : ... .. . ... : ... .. . ... : ... .. . ...
ROW 2D : F-3 0B . ... : A#3 0B . ... : --- .. . ... : ... .. . ... : ... .. . ...
ROW 2E : ... .. . ... : ... .. . ... : ... .. . ... : ... .. . ... : ... .. . ...
ROW 2F : C-3 0B . ... : G-3 0B . ... : ... .. . ... : ... .. . ... : ... .. . ...
ROW 30 : ... .. . ... : ... .. . ... : ... .. . ... : ... .. . ... : C-3 00 . ...
ROW 31 : A#3 0B . ... : G-2 0B . ... : E-2 17 . ... : ... .. . ... : ... .. . ...
ROW 32 : ... .. . ... : ... .. . ... : ... .. . ... : ... .. . ... : ... .. . ...
ROW 33 : G-3 0B . ... : F-3 0B . ... : ... .. . ... : ... .. . ... : ... .. . ...
ROW 34 : ... .. . ... : ... .. . ... : ... .. . ... : ... .. . ... : ... .. . ...
ROW 35 : G-2 0B . ... : C-3 0B . ... : --- .. . ... : ... .. . ... : ... .. . ...
ROW 36 : ... .. . ... : ... .. . ... : ... .. . ... : ... .. . ... : ... .. . ...
ROW 37 : F-3 0B . ... : A#3 0B . ... : ... .. . ... : ... .. . ... : ... .. . ...
ROW 38 : ... .. . ... : ... .. . ... : ... .. . ... : ... .. . ... : D-3 00 . ...
ROW 39 : C-3 0B . ... : G-3 0B . ... : E-3 17 . ... : A-# 1B . ... : ... .. . ...
ROW 3A : ... .. . ... : ... .. . ... : ... .. . ... : ... .. . ... : ... .. . ...
ROW 3B : A#3 0B . ... : G-2 0B . ... : ... .. . ... : ... .. . ... : ... .. . ...
ROW 3C : ... .. . ... : ... .. . ... : ... .. . ... : ... .. . ... : ... .. . ...
ROW 3D : G-3 0B . ... : F-3 0B . ... : --- .. . ... : ... .. . ... : ... .. . ...
ROW 3E : ... .. . ... : ... .. . ... : ... .. . ... : ... .. . ... : ... .. . ...
ROW 3F : G-2 0B . ... : A#3 0B . ... : ... .. . ... : ... .. . ... : ... .. . ...
ROW 40 : ... .. . ... : ... .. . ... : ... .. . ... : ... .. . ... : C-3 00 . ...
ROW 41 : F-3 0B . ... : G-3 0B . ... : E-2 17 . ... : ... .. . ... : ... .. . ...
ROW 42 : ... .. . ... : ... .. . ... : ... .. . ... : ... .. . ... : ... .. . ...
ROW 43 : C-3 0B . ... : G-2 0B . ... : ... .. . ... : ... .. . ... : ... .. . ...
ROW 44 : ... .. . ... : ... .. . ... : ... .. . ... : ... .. . ... : ... .. . ...
ROW 45 : A#3 0B . ... : F-3 0B . ... : --- .. . ... : ... .. . ... : ... .. . ...
ROW 46 : ... .. . ... : ... .. . ... : ... .. . ... : ... .. . ... : ... .. . ...
ROW 47 : G-3 0B . ... : C-3 0B . ... : ... .. . ... : ... .. . ... : ... .. . ...
ROW 48 : ... .. . ... : ... .. . ... : ... .. . ... : ... .. . ... : D-3 00 . ...
ROW 49 : G-2 0B . ... : A#3 0B . ... : E-3 17 . ... : A-# 1B . ... : ... .. . ...
ROW 4A : ... .. . ... : ... .. . ... : ... .. . ... : ... .. . ... : ... .. . ...
ROW 4B : F-3 0B . ... : G-3 0B . ... : ... .. . ... : ... .. . ... : ... .. . ...
ROW 4C : ... .. . ... : ... .. . ... : ... .. . ... : ... .. . ... : ... .. . ...
ROW 4D : C-3 0B . ... : G-2 0B . ... : --- .. . ... : ... .. . ... : ... .. . ...
ROW 4E : ... .. . ... : ... .. . ... : ... .. . ... : ... .. . ... : ... .. . ...
ROW 4F : A#3 0B . ... : F-3 0B . ... : ... .. . ... : ... .. . ... : ... .. . ...
ROW 50 : ... .. . ... : ... .. . ... : ... .. . ... : ... .. . ... : D-3 00 . ...
ROW 51 : G-3 0B . ... : A#3 0B . ... : D-3 17 . ... : A-# 1B . ... : ... .. . ...
ROW 52 : ... .. . ... : ... .. . ... : ... .. . ... : ... .. . ... : E-3 00 . W09
ROW 53 : G-2 0B . ... : G-3 0B . ... : A-2 17 . ... : ... .. . ... : ... .. . ...
ROW 54 : ... .. . ... : ... .. . ... : ... .. . ... : ... .. . ... : D-3 00 . ...
ROW 55 : F-3 0B . ... : G-2 0B . ... : E-3 17 . ... : A-# 1B . ... : ... .. . ...
ROW 56 : ... .. . ... : ... .. . ... : ... .. . ... : ... .. . ... : D-3 00 . ...
ROW 57 : C-3 0B . ... : F-3 0B . ... : E-2 17 . ... : A-# 1B . ... : ... .. . ...

PATTERN 34
ROW 00 : ... .. . ... : ... .. . ... : ... .. . ... : ... .. . ... : C-3 00 . ...
ROW 01 : A#3 0B . ... : C-3 0B . ... : G-2 17 . ... : ... .. . ... : ... .. . ...
ROW 02 : ... .. . ... : ... .. . ... : ... .. . ... : ... .. . ... : ... .. . ...
ROW 03 : G-3 0B . ... : A#3 0B . ... : ... .. . ... : ... .. . ... : ... .. . ...
ROW 04 : ... .. . ... : ... .. . ... : ... .. . ... : ... .. . ... : ... .. . ...
ROW 05 : G-2 0B . ... : G-3 0B . ... : --- .. . ... : ... .. . ... : ... .. . ...
ROW 06 : ... .. . ... : ... .. . ... : ... .. . ... : ... .. . ... : ... .. . ...
ROW 07 : F-3 0B . ... : G-2 0B . ... : ... .. . ... : ... .. . ... : ... .. . ...
ROW 08 : ... .. . ... : ... .. . ... : ... .. . ... : ... .. . ... : D-3 00 . ...
ROW 09 : C-3 0B . ... : F-3 0B . ... : G-3 17 . ... : A-# 1B . ... : ... .. . ...
ROW 0A : ... .. . ... : ... .. . ... : ... .. . ... : ... .. . ... : ... .. . ...
ROW 0B : A#3 0B . ... : A#3 0B . ... : ... .. . ... : ... .. . ... : ... .. . ...
ROW 0C : ... .. . ... : ... .. . ... : ... .. . ... : ... .. . ... : ... .. . ...
ROW 0D : E-3 0B . ... : E-3 0B . ... : --- .. . ... : ... .. . ... : ... .. . ...
ROW 0E : ... .. . ... : ... .. . ... : ... .. . ... : ... .. . ... : ... .. . ...
ROW 0F : E-2 0B . ... : E-2 0B . ... : ... .. . ... : ... .. . ... : ... .. . ...
ROW 10 : ... .. . ... : ... .. . ... : ... .. . ... : ... .. . ... : C-3 00 . ...
ROW 11 : D-3 0B . ... : D-3 0B . ... : G-2 17 . ... : ... .. . ... : ... .. . ...
ROW 12 : ... .. . ... : ... .. . ... : ... .. . ... : ... .. . ... : ... .. . ...
ROW 13 : A-2 0B . ... : A-2 0B . ... : ... .. . ... : ... .. . ... : ... .. . ...
ROW 14 : ... .. . ... : ... .. . ... : ... .. . ... : ... .. . ... : ... .. . ...
ROW 15 : G-3 0B . ... : G-3 0B . ... : --- .. . ... : ... .. . ... : ... .. . ...
ROW 16 : ... .. . ... : ... .. . ... : ... .. . ... : ... .. . ... : ... .. . ...
ROW 17 : E-3 0B . ... : E-3 0B . ... : ... .. . ... : ... .. . ... : ... .. . ...
ROW 18 : ... .. . ... : ... .. . ... : ... .. . ... : ... .. . ... : D-3 00 . ...
ROW 19 : E-2 0B . ... : E-2 0B . ... : G-3 17 . ... : A-# 1B . ... : ... .. . ...
ROW 1A : ... .. . ... : ... .. . ... : ... .. . ... : ... .. . ... : ... .. . ...
ROW 1B : D-3 0B . ... : D-3 0B . ... : ... .. . ... : ... .. . ... : ... .. . ...
ROW 1C : ... .. . ... : ... .. . ... : ... .. . ... : ... .. . ... : ... .. . ...
ROW 1D : A-2 0B . ... : G-3 0B . ... : --- .. . ... : ... .. . ... : ... .. . ...
ROW 1E : ... .. . ... : ... .. . ... : ... .. . ... : ... .. . ... : ... .. . ...
ROW 1F : G-3 0B . ... : E-3 0B . ... : ... .. . ... : ... .. . ... : ... .. . ...
ROW 20 : ... .. . ... : ... .. . ... : ... .. . ... : ... .. . ... : C-3 00 . ...
ROW 21 : E-3 0B . ... : E-2 0B . ... : G-2 17 . ... : ... .. . ... : ... .. . ...
ROW 22 : ... .. . ... : ... .. . ... : ... .. . ... : ... .. . ... : ... .. . ...
ROW 23 : E-2 0B . ... : D-3 0B . ... : ... .. . ... : ... .. . ... : ... .. . ...
ROW 24 : ... .. . ... : ... .. . ... : ... .. . ... : ... .. . ... : ... .. . ...
ROW 25 : D-3 0B . ... : A-2 0B . ... : --- .. . ... : ... .. . ... : ... .. . ...
ROW 26 : ... .. . ... : ... .. . ... : ... .. . ... : ... .. . ... : ... .. . ...
ROW 27 : A-2 0B . ... : G-3 0B . ... : ... .. . ... : ... .. . ... : ... .. . ...
ROW 28 : ... .. . ... : ... .. . ... : ... .. . ... : ... .. . ... : D-3 00 . ...
ROW 29 : G-3 0B . ... : E-3 0B . ... : G-3 17 . ... : A-# 1B . ... : ... .. . ...
ROW 2A : ... .. . ... : ... .. . ... : ... .. . ... : ... .. . ... : ... .. . ...
ROW 2B : E-3 0B . ... : E-2 0B . ... : ... .. . ... : ... .. . ... : ... .. . ...
ROW 2C : ... .. . ... : ... .. . ... : ... .. . ... : ... .. . ... : ... .. . ...
ROW 2D : E-2 0B . ... : D-3 0B . ... : --- .. . ... : ... .. . ... : ... .. . ...
ROW 2E : ... .. . ... : ... .. . ... : ... .. . ... : ... .. . ... : ... .. . ...
ROW 2F : D-3 0B . ... : G-3 0B . ... : ... .. . ... : ... .. . ... : ... .. . ...
ROW 30 : ... .. . ... : ... .. . ... : ... .. . ... : ... .. . ... : C-3 00 . ...
ROW 31 : A-2 0B . ... : E-3 0B . ... : G-2 17 . ... : ... .. . ... : ... .. . ...
ROW 32 : ... .. . ... : ... .. . ... : ... .. . ... : ... .. . ... : ... .. . ...
ROW 33 : G-3 0B . ... : E-2 0B . ... : ... .. . ... : ... .. . ... : ... .. . ...
ROW 34 : ... .. . ... : ... .. . ... : ... .. . ... : ... .. . ... : ... .. . ...
ROW 35 : E-3 0B . ... : D-3 0B . ... : --- .. . ... : ... .. . ... : ... .. . ...
ROW 36 : ... .. . ... : ... .. . ... : ... .. . ... : ... .. . ... : ... .. . ...
ROW 37 : E-2 0B . ... : A-2 0B . ... : ... .. . ... : ... .. . ... : ... .. . ...
ROW 38 : ... .. . ... : ... .. . ... : ... .. . ... : ... .. . ... : D-3 00 . ...
ROW 39 : D-3 0B . ... : G-3 0B . ... : G-3 17 . ... : A-# 1B . ... : ... .. . ...
ROW 3A : ... .. . ... : ... .. . ... : ... .. . ... : ... .. . ... : ... .. . ...
ROW 3B : A-2 0B . ... : E-3 0B . ... : ... .. . ... : ... .. . ... : ... .. . ...
ROW 3C : ... .. . ... : ... .. . ... : ... .. . ... : ... .. . ... : ... .. . ...
ROW 3D : G-3 0B . ... : E-2 0B . ... : --- .. . ... : ... .. . ... : ... .. . ...
ROW 3E : ... .. . ... : ... .. . ... : ... .. . ... : ... .. . ... : ... .. . ...
ROW 3F : E-3 0B . ... : D-3 0B . ... : ... .. . ... : ... .. . ... : ... .. . ...
ROW 40 : ... .. . ... : ... .. . ... : ... .. . ... : ... .. . ... : C-3 00 . ...
ROW 41 : E-2 0B . ... : G-3 0B . ... : G-2 17 . ... : ... .. . ... : ... .. . ...
ROW 42 : ... .. . ... : ... .. . ... : ... .. . ... : ... .. . ... : ... .. . ...
ROW 43 : D-3 0B . ... : E-3 0B . ... : ... .. . ... : ... .. . ... : ... .. . ...
ROW 44 : ... .. . ... : ... .. . ... : ... .. . ... : ... .. . ... : ... .. . ...
ROW 45 : A-2 0B . ... : E-2 0B . ... : --- .. . ... : ... .. . ... : ... .. . ...
ROW 46 : ... .. . ... : ... .. . ... : ... .. . ... : ... .. . ... : ... .. . ...
ROW 47 : G-3 0B . ... : D-3 0B . ... : ... .. . ... : ... .. . ... : ... .. . ...
ROW 48 : ... .. . ... : ... .. . ... : ... .. . ... : ... .. . ... : D-3 00 . ...
ROW 49 : E-3 0B . ... : A-2 0B . ... : G-3 17 . ... : A-# 1B . ... : ... .. . ...
ROW 4A : ... .. . ... : ... .. . ... : ... .. . ... : ... .. . ... : ... .. . ...
ROW 4B : E-2 0B . ... : G-3 0B . ... : ... .. . ... : ... .. . ... : ... .. . ...
ROW 4C : ... .. . ... : ... .. . ... : ... .. . ... : ... .. . ... : ... .. . ...
ROW 4D : D-3 0B . ... : E-3 0B . ... : --- .. . ... : ... .. . ... : ... .. . ...
ROW 4E : ... .. . ... : ... .. . ... : ... .. . ... : ... .. . ... : ... .. . ...
ROW 4F : A-2 0B . ... : E-2 0B . ... : ... .. . ... : ... .. . ... : ... .. . ...
ROW 50 : ... .. . ... : ... .. . ... : ... .. . ... : ... .. . ... : D-3 00 . ...
ROW 51 : G-3 0B . ... : D-3 0B . ... : F-3 17 . ... : A-# 1B . ... : ... .. . ...
ROW 52 : ... .. . ... : ... .. . ... : ... .. . ... : ... .. . ... : E-3 00 . W09
ROW 53 : E-3 0B . ... : G-3 0B . ... : C-3 17 . ... : ... .. . ... : ... .. . ...
ROW 54 : ... .. . ... : ... .. . ... : ... .. . ... : ... .. . ... : D-3 00 . ...
ROW 55 : E-2 0B . ... : E-3 0B . ... : G-3 17 . ... : A-# 1B . ... : ... .. . ...
ROW 56 : ... .. . ... : ... .. . ... : ... .. . ... : ... .. . ... : D-3 00 . ...
ROW 57 : D-3 0B . ... : E-2 0B . ... : G-2 17 . ... : A-# 1B . ... : ... .. . ...

PATTERN 35
ROW 00 : ... .. . ... : ... .. . ... : ... .. . ... : ... .. . ... : C-3 00 . ...
ROW 01 : A-2 0B . ... : D-3 0B . ... : E-2 17 . ... : ... .. . ... : ... .. . ...
ROW 02 : ... .. . ... : ... .. . ... : ... .. . ... : ... .. . ... : ... .. . ...
ROW 03 : G-3 0B . ... : A-2 0B . ... : ... .. . ... : ... .. . ... : ... .. . ...
ROW 04 : ... .. . ... : ... .. . ... : ... .. . ... : ... .. . ... : ... .. . ...
ROW 05 : E-3 0B . ... : G-3 0B . ... : --- .. . ... : ... .. . ... : ... .. . ...
ROW 06 : ... .. . ... : ... .. . ... : ... .. . ... : ... .. . ... : ... .. . ...
ROW 07 : E-2 0B . ... : E-3 0B . ... : ... .. . ... : ... .. . ... : ... .. . ...
ROW 08 : ... .. . ... : ... .. . ... : ... .. . ... : ... .. . ... : D-3 00 . ...
ROW 09 : D-3 0B . ... : E-2 0B . ... : E-3 17 . ... : A-# 1B . ... : ... .. . ...
ROW 0A : ... .. . ... : ... .. . ... : ... .. . ... : ... .. . ... : ... .. . ...
ROW 0B : A-2 0B . ... : D-3 0B . ... : ... .. . ... : ... .. . ... : ... .. . ...
ROW 0C : ... .. . ... : ... .. . ... : ... .. . ... : ... .. . ... : ... .. . ...
ROW 0D : G-3 0B . ... : G-3 0B . ... : --- .. . ... : ... .. . ... : ... .. . ...
ROW 0E : ... .. . ... : ... .. . ... : ... .. . ... : ... .. . ... : ... .. . ...
ROW 0F : G-3 0B . ... : G-3 0B . ... : ... .. . ... : ... .. . ... : ... .. . ...
ROW 10 : ... .. . ... : ... .. . ... : ... .. . ... : ... .. . ... : C-3 00 . ...
ROW 11 : G-2 0B . ... : G-2 0B . ... : E-2 17 . ... : ... .. . ... : ... .. . ...
ROW 12 : ... .. . ... : ... .. . ... : ... .. . ... : ... .. . ... : ... .. . ...
ROW 13 : F-3 0B . ... : F-3 0B . ... : ... .. . ... : ... .. . ... : ... .. . ...
ROW 14 : ... .. . ... : ... .. . ... : ... .. . ... : ... .. . ... : ... .. . ...
ROW 15 : C-3 0B . ... : C-3 0B . ... : --- .. . ... : ... .. . ... : ... .. . ...
ROW 16 : ... .. . ... : ... .. . ... : ... .. . ... : ... .. . ... : ... .. . ...
ROW 17 : A#3 0B . ... : A#3 0B . ... : ... .. . ... : ... .. . ... : ... .. . ...
ROW 18 : ... .. . ... : ... .. . ... : ... .. . ... : ... .. . ... : D-3 00 . ...
ROW 19 : G-3 0B . ... : G-3 0B . ... : E-3 17 . ... : A-# 1B . ... : ... .. . ...
ROW 1A : ... .. . ... : ... .. . ... : ... .. . ... : ... .. . ... : ... .. . ...
ROW 1B : G-2 0B . ... : G-2 0B . ... : ... .. . ... : ... .. . ... : ... .. . ...
ROW 1C : ... .. . ... : ... .. . ... : ... .. . ... : ... .. . ... : ... .. . ...
ROW 1D : F-3 0B . ... : F-3 0B . ... : --- .. . ... : ... .. . ... : ... .. . ...
ROW 1E : ... .. . ... : ... .. . ... : ... .. . ... : ... .. . ... : ... .. . ...
ROW 1F : C-3 0B . ... : A#3 0B . ... : ... .. . ... : ... .. . ... : ... .. . ...
ROW 20 : ... .. . ... : ... .. . ... : ... .. . ... : ... .. . ... : C-3 00 . ...
ROW 21 : A#3 0B . ... : G-3 0B . ... : E-2 17 . ... : ... .. . ... : ... .. . ...
ROW 22 : ... .. . ... : ... .. . ... : ... .. . ... : ... .. . ... : ... .. . ...
ROW 23 : G-3 0B . ... : G-2 0B . ... : ... .. . ... : ... .. . ... : ... .. . ...
ROW 24 : ... .. . ... : ... .. . ... : ... .. . ... : ... .. . ... : ... .. . ...
ROW 25 : G-2 0B . ... : F-3 0B . ... : --- .. . ... : ... .. . ... : ... .. . ...
ROW 26 : ... .. . ... : ... .. . ... : ... .. . ... : ... .. . ... : ... .. . ...
ROW 27 : F-3 0B . ... : C-3 0B . ... : ... .. . ... : ... .. . ... : ... .. . ...
ROW 28 : ... .. . ... : ... .. . ... : ... .. . ... : ... .. . ... : D-3 00 . ...
ROW 29 : C-3 0B . ... : A#3 0B . ... : E-3 17 . ... : A-# 1B . ... : ... .. . ...
ROW 2A : ... .. . ... : ... .. . ... : ... .. . ... : ... .. . ... : ... .. . ...
ROW 2B : A#3 0B . ... : G-3 0B . ... : ... .. . ... : ... .. . ... : ... .. . ...
ROW 2C : ... .. . ... : ... .. . ... : ... .. . ... : ... .. . ... : ... .. . ...
ROW 2D : G-3 0B . ... : G-2 0B . ... : --- .. . ... : ... .. . ... : ... .. . ...
ROW 2E : ... .. . ... : ... .. . ... : ... .. . ... : ... .. . ... : ... .. . ...
ROW 2F : G-2 0B . ... : F-3 0B . ... : ... .. . ... : ... .. . ... : ... .. . ...
ROW 30 : ... .. . ... : ... .. . ... : ... .. . ... : ... .. . ... : C-3 00 . ...
ROW 31 : F-3 0B . ... : A#3 0B . ... : E-2 17 . ... : ... .. . ... : ... .. . ...
ROW 32 : ... .. . ... : ... .. . ... : ... .. . ... : ... .. . ... : ... .. . ...
ROW 33 : C-3 0B . ... : G-3 0B . ... : ... .. . ... : ... .. . ... : ... .. . ...
ROW 34 : ... .. . ... : ... .. . ... : ... .. . ... : ... .. . ... : ... .. . ...
ROW 35 : A#3 0B . ... : G-2 0B . ... : --- .. . ... : ... .. . ... : ... .. . ...
ROW 36 : ... .. . ... : ... .. . ... : ... .. . ... : ... .. . ... : ... .. . ...
ROW 37 : G-3 0B . ... : F-3 0B . ... : ... .. . ... : ... .. . ... : ... .. . ...
ROW 38 : ... .. . ... : ... .. . ... : ... .. . ... : ... .. . ... : D-3 00 . ...
ROW 39 : G-2 0B . ... : C-3 0B . ... : E-3 17 . ... : A-# 1B . ... : ... .. . ...
ROW 3A : ... .. . ... : ... .. . ... : ... .. . ... : ... .. . ... : ... .. . ...
ROW 3B : F-3 0B . ... : A#3 0B . ... : ... .. . ... : ... .. . ... : ... .. . ...
ROW 3C : ... .. . ... : ... .. . ... : ... .. . ... : ... .. . ... : ... .. . ...
ROW 3D : C-3 0B . ... : G-3 0B . ... : --- .. . ... : ... .. . ... : ... .. . ...
ROW 3E : ... .. . ... : ... .. . ... : ... .. . ... : ... .. . ... : ... .. . ...
ROW 3F : A#3 0B . ... : G-2 0B . ... : ... .. . ... : ... .. . ... : ... .. . ...
ROW 40 : ... .. . ... : ... .. . ... : ... .. . ... : ... .. . ... : C-3 00 . ...
ROW 41 : G-3 0B . ... : F-3 0B . ... : E-2 17 . ... : ... .. . ... : ... .. . ...
ROW 42 : ... .. . ... : ... .. . ... : ... .. . ... : ... .. . ... : ... .. . ...
ROW 43 : G-2 0B . ... : A#3 0B . ... : ... .. . ... : ... .. . ... : ... .. . ...
ROW 44 : ... .. . ... : ... .. . ... : ... .. . ... : ... .. . ... : ... .. . ...
ROW 45 : F-3 0B . ... : G-3 0B . ... : --- .. . ... : ... .. . ... : ... .. . ...
ROW 46 : ... .. . ... : ... .. . ... : ... .. . ... : ... .. . ... : ... .. . ...
ROW 47 : C-3 0B . ... : G-2 0B . ... : ... .. . ... : ... .. . ... : ... .. . ...
ROW 48 : ... .. . ... : ... .. . ... : ... .. . ... : ... .. . ... : D-3 00 . ...
ROW 49 : A#3 0B . ... : F-3 0B . ... : E-3 17 . ... : A-# 1B . ... : ... .. . ...
ROW 4A : ... .. . ... : ... .. . ... : ... .. . ... : ... .. . ... : ... .. . ...
ROW 4B : G-3 0B . ... : C-3 0B . ... : ... .. . ... : ... .. . ... : ... .. . ...
ROW 4C : ... .. . ... : ... .. . ... : ... .. . ... : ... .. . ... : ... .. . ...
ROW 4D : G-2 0B . ... : A#3 0B . ... : --- .. . ... : ... .. . ... : ... .. . ...
ROW 4E : ... .. . ... : ... .. . ... : ... .. . ... : ... .. . ... : ... .. . ...
ROW 4F : F-3 0B . ... : G-3 0B . ... : ... .. . ... : ... .. . ... : ... .. . ...
ROW 50 : ... .. . ... : ... .. . ... : ... .. . ... : ... .. . ... : D-3 00 . ...
ROW 51 : C-3 0B . ... : G-2 0B . ... : D-3 17 . ... : A-# 1B . ... : ... .. . ...
ROW 52 : ... .. . ... : ... .. . ... : ... .. . ... : ... .. . ... : E-3 00 . W09
ROW 53 : A#3 0B . ... : F-3 0B . ... : A-2 17 . ... : ... .. . ... : ... .. . ...
ROW 54 : ... .. . ... : ... .. . ... : ... .. . ... : ... .. . ... : D-3 00 . ...
ROW 55 : G-3 0B . ... : A#3 0B . ... : E-3 17 . ... : A-# 1B . ... : ... .. . ...
ROW 56 : ... .. . ... : ... .. . ... : ... .. . ... : ... .. . ... : D-3 00 . ...
ROW 57 : G-2 0B . ... : G-3 0B . ... : E-2 17 . ... : A-# 1B . ... : ... .. . ...

PATTERN 36
ROW 00 : ... .. . ... : ... .. . ... : ... .. . ... : ... .. . ... : C-3 00 . ...
ROW 01 : F-3 0B . ... : G-2 0B . ... : G-2 17 . ... : ... .. . ... : ... .. . ...
ROW 02 : ... .. . ... : ... .. . ... : ... .. . ... : ... .. . ... : ... .. . ...
ROW 03 : C-3 0B . ... : F-3 0B . ... : ... .. . ... : ... .. . ... : ... .. . ...
ROW 04 : ... .. . ... : ... .. . ... : ... .. . ... : ... .. . ... : ... .. . ...
ROW 05 : A#3 0B . ... : C-3 0B . ... : --- .. . ... : ... .. . ... : ... .. . ...
ROW 06 : ... .. . ... : ... .. . ... : ... .. . ... : ... .. . ... : ... .. . ...
ROW 07 : G-3 0B . ... : A#3 0B . ... : ... .. . ... : ... .. . ... : ... .. . ...
ROW 08 : ... .. . ... : ... .. . ... : ... .. . ... : ... .. . ... : D-3 00 . ...
ROW 09 : G-2 0B . ... : G-3 0B . ... : G-3 17 . ... : A-# 1B . ... : ... .. . ...
ROW 0A : ... .. . ... : ... .. . ... : ... .. . ... : ... .. . ... : ... .. . ...
ROW 0B : F-3 0B . ... : G-2 0B . ... : ... .. . ... : ... .. . ... : ... .. . ...
ROW 0C : ... .. . ... : ... .. . ... : ... .. . ... : ... .. . ... : ... .. . ...
ROW 0D : C-3 0B . ... : F-3 0B . ... : --- .. . ... : ... .. . ... : ... .. . ...
ROW 0E : ... .. . ... : ... .. . ... : ... .. . ... : ... .. . ... : ... .. . ...
ROW 0F : A#3 0B . ... : A#3 0B . ... : ... .. . ... : ... .. . ... : ... .. . ...
ROW 10 : ... .. . ... : ... .. . ... : ... .. . ... : ... .. . ... : C-3 00 . ...
ROW 11 : E-3 0B . ... : E-3 0B . ... : G-2 17 . ... : ... .. . ... : ... .. . ...
ROW 12 : ... .. . ... : ... .. . ... : ... .. . ... : ... .. . ... : ... .. . ...
ROW 13 : E-2 0B . ... : E-2 0B . ... : ... .. . ... : ... .. . ... : ... .. . ...
ROW 14 : ... .. . ... : ... .. . ... : ... .. . ... : ... .. . ... : ... .. . ...
ROW 15 : D-3 0B . ... : D-3 0B . ... : --- .. . ... : ... .. . ... : ... .. . ...
ROW 16 : ... .. . ... : ... .. . ... : ... .. . ... : ... .. . ... : ... .. . ...
ROW 17 : A-2 0B . ... : A-2 0B . ... : ... .. . ... : ... .. . ... : ... .. . ...
ROW 18 : ... .. . ... : ... .. . ... : ... .. . ... : ... .. . ... : D-3 00 . ...
ROW 19 : G-3 0B . ... : G-3 0B . ... : G-3 17 . ... : A-# 1B . ... : ... .. . ...
ROW 1A : ... .. . ... : ... .. . ... : ... .. . ... : ... .. . ... : ... .. . ...
ROW 1B : E-3 0B . ... : E-3 0B . ... : ... .. . ... : ... .. . ... : ... .. . ...
ROW 1C : ... .. . ... : ... .. . ... : ... .. . ... : ... .. . ... : ... .. . ...
ROW 1D : E-2 0B . ... : E-2 0B . ... : --- .. . ... : ... .. . ... : ... .. . ...
ROW 1E : ... .. . ... : ... .. . ... : ... .. . ... : ... .. . ... : ... .. . ...
ROW 1F : D-3 0B . ... : D-3 0B . ... : ... .. . ... : ... .. . ... : ... .. . ...
ROW 20 : ... .. . ... : ... .. . ... : ... .. . ... : ... .. . ... : C-3 00 . ...
ROW 21 : A-2 0B . ... : G-3 0B . ... : G-2 17 . ... : ... .. . ... : ... .. . ...
ROW 22 : ... .. . ... : ... .. . ... : ... .. . ... : ... .. . ... : ... .. . ...
ROW 23 : G-3 0B . ... : E-3 0B . ... : ... .. . ... : ... .. . ... : ... .. . ...
ROW 24 : ... .. . ... : ... .. . ... : ... .. . ... : ... .. . ... : ... .. . ...
ROW 25 : E-3 0B . ... : E-2 0B . ... : --- .. . ... : ... .. . ... : ... .. . ...
ROW 26 : ... .. . ... : ... .. . ... : ... .. . ... : ... .. . ... : ... .. . ...
ROW 27 : E-2 0B . ... : D-3 0B . ... : ... .. . ... : ... .. . ... : ... .. . ...
ROW 28 : ... .. . ... : ... .. . ... : ... .. . ... : ... .. . ... : D-3 00 . ...
ROW 29 : D-3 0B . ... : A-2 0B . ... : G-3 17 . ... : A-# 1B . ... : ... .. . ...
ROW 2A : ... .. . ... : ... .. . ... : ... .. . ... : ... .. . ... : ... .. . ...
ROW 2B : A-2 0B . ... : G-3 0B . ... : ... .. . ... : ... .. . ... : ... .. . ...
ROW 2C : ... .. . ... : ... .. . ... : ... .. . ... : ... .. . ... : ... .. . ...
ROW 2D : G-3 0B . ... : E-3 0B . ... : --- .. . ... : ... .. . ... : ... .. . ...
ROW 2E : ... .. . ... : ... .. . ... : ... .. . ... : ... .. . ... : ... .. . ...
ROW 2F : E-3 0B . ... : E-2 0B . ... : ... .. . ... : ... .. . ... : ... .. . ...
ROW 30 : ... .. . ... : ... .. . ... : ... .. . ... : ... .. . ... : C-3 00 . ...
ROW 31 : E-2 0B . ... : D-3 0B . ... : G-2 17 . ... : ... .. . ... : ... .. . ...
ROW 32 : ... .. . ... : ... .. . ... : ... .. . ... : ... .. . ... : ... .. . ...
ROW 33 : D-3 0B . ... : G-3 0B . ... : ... .. . ... : ... .. . ... : ... .. . ...
ROW 34 : ... .. . ... : ... .. . ... : ... .. . ... : ... .. . ... : ... .. . ...
ROW 35 : A-2 0B . ... : E-3 0B . ... : --- .. . ... : ... .. . ... : ... .. . ...
ROW 36 : ... .. . ... : ... .. . ... : ... .. . ... : ... .. . ... : ... .. . ...
ROW 37 : G-3 0B . ... : E-2 0B . ... : ... .. . ... : ... .. . ... : ... .. . ...
ROW 38 : ... .. . ... : ... .. . ... : ... .. . ... : ... .. . ... : D-3 00 . ...
ROW 39 : E-3 0B . ... : D-3 0B . ... : G-3 17 . ... : A-# 1B . ... : ... .. . ...
ROW 3A : ... .. . ... : ... .. . ... : ... .. . ... : ... .. . ... : ... .. . ...
ROW 3B : E-2 0B . ... : A-2 0B . ... : ... .. . ... : ... .. . ... : ... .. . ...
ROW 3C : ... .. . ... : ... .. . ... : ... .. . ... : ... .. . ... : ... .. . ...
ROW 3D : D-3 0B . ... : G-3 0B . ... : --- .. . ... : ... .. . ... : ... .. . ...
ROW 3E : ... .. . ... : ... .. . ... : ... .. . ... : ... .. . ... : ... .. . ...
ROW 3F : A-2 0B . ... : E-3 0B . ... : ... .. . ... : ... .. . ... : ... .. . ...
ROW 40 : ... .. . ... : ... .. . ... : ... .. . ... : ... .. . ... : C-3 00 . ...
ROW 41 : G-3 0B . ... : E-2 0B . ... : G-2 17 . ... : ... .. . ... : ... .. . ...
ROW 42 : ... .. . ... : ... .. . ... : ... .. . ... : ... .. . ... : ... .. . ...
ROW 43 : E-3 0B . ... : D-3 0B . ... : ... .. . ... : ... .. . ... : ... .. . ...
ROW 44 : ... .. . ... : ... .. . ... : ... .. . ... : ... .. . ... : ... .. . ...
ROW 45 : E-2 0B . ... : G-3 0B . ... : --- .. . ... : ... .. . ... : ... .. . ...
ROW 46 : ... .. . ... : ... .. . ... : ... .. . ... : ... .. . ... : ... .. . ...
ROW 47 : D-3 0B . ... : E-3 0B . ... : ... .. . ... : ... .. . ... : ... .. . ...
ROW 48 : ... .. . ... : ... .. . ... : ... .. . ... : ... .. . ... : D-3 00 . ...
ROW 49 : A-2 0B . ... : E-2 0B . ... : G-3 17 . ... : A-# 1B . ... : ... .. . ...
ROW 4A : ... .. . ... : ... .. . ... : ... .. . ... : ... .. . ... : ... .. . ...
ROW 4B : G-3 0B . ... : D-3 0B . ... : ... .. . ... : ... .. . ... : ... .. . ...
ROW 4C : ... .. . ... : ... .. . ... : ... .. . ... : ... .. . ... : ... .. . ...
ROW 4D : E-3 0B . ... : A-2 0B . ... : --- .. . ... : ... .. . ... : ... .. . ...
ROW 4E : ... .. . ... : ... .. . ... : ... .. . ... : ... .. . ... : ... .. . ...
ROW 4F : E-2 0B . ... : G-3 0B . ... : ... .. . ... : ... .. . ... : ... .. . ...
ROW 50 : ... .. . ... : ... .. . ... : ... .. . ... : ... .. . ... : D-3 00 . ...
ROW 51 : D-3 0B . ... : E-3 0B . ... : F-3 17 . ... : A-# 1B . ... : ... .. . ...
ROW 52 : ... .. . ... : ... .. . ... : ... .. . ... : ... .. . ... : E-3 00 . W09
ROW 53 : A-2 0B . ... : E-2 0B . ... : C-3 17 . ... : ... .. . ... : ... .. . ...
ROW 54 : ... .. . ... : ... .. . ... : ... .. . ... : ... .. . ... : D-3 00 . ...
ROW 55 : G-3 0B . ... : D-3 0B . ... : G-3 17 . ... : A-# 1B . ... : ... .. . ...
ROW 56 : ... .. . ... : ... .. . ... : ... .. . ... : ... .. . ... : D-3 00 . ...
ROW 57 : E-3 0B . ... : G-3 0B . ... : G-2 17 . ... : A-# 1B . ... : ... .. . ...

PATTERN 37
ROW 00 : ... .. . ... : ... .. . ... : ... .. . ... : ... .. . ... : C-3 00 . ...
ROW 01 : E-2 0B . ... : E-3 0B . ... : E-2 17 . ... : ... .. . ... : ... .. . ...
ROW 02 : ... .. . ... : ... .. . ... : ... .. . ... : ... .. . ... : ... .. . ...
ROW 03 : D-3 0B . ... : E-2 0B . ... : ... .. . ... : ... .. . ... : ... .. . ...
ROW 04 : ... .. . ... : ... .. . ... : ... .. . ... : ... .. . ... : ... .. . ...
ROW 05 : A-2 0B . ... : D-3 0B . ... : --- .. . ... : ... .. . ... : ... .. . ...
ROW 06 : ... .. . ... : ... .. . ... : ... .. . ... : ... .. . ... : ... .. . ...
ROW 07 : G-3 0B . ... : A-2 0B . ... : ... .. . ... : ... .. . ... : ... .. . ...
ROW 08 : ... .. . ... : ... .. . ... : ... .. . ... : ... .. . ... : D-3 00 . ...
ROW 09 : E-3 0B . ... : G-3 0B . ... : E-3 17 . ... : A-# 1B . ... : ... .. . ...
ROW 0A : ... .. . ... : ... .. . ... : ... .. . ... : ... .. . ... : ... .. . ...
ROW 0B : E-2 0B . ... : E-3 0B . ... : ... .. . ... : ... .. . ... : ... .. . ...
ROW 0C : ... .. . ... : ... .. . ... : ... .. . ... : ... .. . ... : ... .. . ...
ROW 0D : D-3 0B . ... : E-2 0B . ... : --- .. . ... : ... .. . ... : ... .. . ...
ROW 0E : ... .. . ... : ... .. . ... : ... .. . ... : ... .. . ... : ... .. . ...
ROW 0F : A-2 0B . ... : D-3 0B . ... : ... .. . ... : ... .. . ... : ... .. . ...
ROW 10 : ... .. . ... : ... .. . ... : ... .. . ... : ... .. . ... : C-3 00 . ...
ROW 11 : G-3 0B . ... : G-3 0B . ... : E-2 17 . ... : ... .. . ... : ... .. . ...
ROW 12 : ... .. . ... : ... .. . ... : ... .. . ... : ... .. . ... : ... .. . ...
ROW 13 : G-3 0B . ... : G-3 0B . ... : ... .. . ... : ... .. . ... : ... .. . ...
ROW 14 : ... .. . ... : ... .. . ... : ... .. . ... : ... .. . ... : ... .. . ...
ROW 15 : G-2 0B . ... : G-2 0B . ... : --- .. . ... : ... .. . ... : ... .. . ...
ROW 16 : ... .. . ... : ... .. . ... : ... .. . ... : ... .. . ... : ... .. . ...
ROW 17 : F-3 0B . ... : F-3 0B . ... : ... .. . ... : ... .. . ... : ... .. . ...
ROW 18 : ... .. . ... : ... .. . ... : ... .. . ... : ... .. . ... : D-3 00 . ...
ROW 19 : C-3 0B . ... : C-3 0B . ... : E-3 17 . ... : A-# 1B . ... : ... .. . ...
ROW 1A : ... .. . ... : ... .. . ... : ... .. . ... : ... .. . ... : ... .. . ...
ROW 1B : A#3 0B . ... : A#3 0B . ... : ... .. . ... : ... .. . ... : ... .. . ...
ROW 1C : ... .. . ... : ... .. . ... : ... .. . ... : ... .. . ... : ... .. . ...
ROW 1D : G-3 0B . ... : G-3 0B . ... : --- .. . ... : ... .. . ... : ... .. . ...
ROW 1E : ... .. . ... : ... .. . ... : ... .. . ... : ... .. . ... : ... .. . ...
ROW 1F : G-2 0B . ... : G-2 0B . ... : ... .. . ... : ... .. . ... : ... .. . ...
ROW 20 : ... .. . ... : ... .. . ... : ... .. . ... : ... .. . ... : C-3 00 . ...
ROW 21 : F-3 0B . ... : F-3 0B . ... : E-2 17 . ... : ... .. . ... : ... .. . ...
ROW 22 : ... .. . ... : ... .. . ... : ... .. . ... : ... .. . ... : ... .. . ...
ROW 23 : C-3 0B . ... : A#3 0B . ... : ... .. . ... : ... .. . ... : ... .. . ...
ROW 24 : ... .. . ... : ... .. . ... : ... .. . ... : ... .. . ... : ... .. . ...
ROW 25 : A#3 0B . ... : G-3 0B . ... : --- .. . ... : ... .. . ... : ... .. . ...
ROW 26 : ... .. . ... : ... .. . ... : ... .. . ... : ... .. . ... : ... .. . ...
ROW 27 : G-3 0B . ... : G-2 0B . ... : ... .. . ... : ... .. . ... : ... .. . ...
ROW 28 : ... .. . ... : ... .. . ... : ... .. . ... : ... .. . ... : D-3 00 . ...
ROW 29 : G-2 0B . ... : F-3 0B . ... : E-3 17 . ... : A-# 1B . ... : ... .. . ...
ROW 2A : ... .. . ... : ... .. . ... : ... .. . ... : ... .. . ... : ... .. . ...
ROW 2B : F-3 0B . ... : C-3 0B . ... : ... .. . ... : ... .. . ... : ... .. . ...
ROW 2C : ... .. . ... : ... .. . ... : ... .. . ... : ... .. . ... : ... .. . ...
ROW 2D : C-3 0B . ... : A#3 0B . ... : --- .. . ... : ... .. . ... : ... .. . ...
ROW 2E : ... .. . ... : ... .. . ... : ... .. . ... : ... .. . ... : ... .. . ...
ROW 2F : A#3 0B . ... : G-3 0B . ... : ... .. . ... : ... .. . ... : ... .. . ...
ROW 30 : ... .. . ... : ... .. . ... : ... .. . ... : ... .. . ... : C-3 00 . ...
ROW 31 : G-3 0B . ... : G-2 0B . ... : E-2 17 . ... : ... .. . ... : ... .. . ...
ROW 32 : ... .. . ... : ... .. . ... : ... .. . ... : ... .. . ... : ... .. . ...
ROW 33 : G-2 0B . ... : F-3 0B . ... : ... .. . ... : ... .. . ... : ... .. . ...
ROW 34 : ... .. . ... : ... .. . ... : ... .. . ... : ... .. . ... : ... .. . ...
ROW 35 : F-3 0B . ... : A#3 0B . ... : --- .. . ... : ... .. . ... : ... .. . ...
ROW 36 : ... .. . ... : ... .. . ... : ... .. . ... : ... .. . ... : ... .. . ...
ROW 37 : C-3 0B . ... : G-3 0B . ... : ... .. . ... : ... .. . ... : ... .. . ...
ROW 38 : ... .. . ... : ... .. . ... : ... .. . ... : ... .. . ... : D-3 00 . ...
ROW 39 : A#3 0B . ... : G-2 0B . ... : E-3 17 . ... : A-# 1B . ... : ... .. . ...
ROW 3A : ... .. . ... : ... .. . ... : ... .. . ... : ... .. . ... : ... .. . ...
ROW 3B : G-3 0B . ... : F-3 0B . ... : ... .. . ... : ... .. . ... : ... .. . ...
ROW 3C : ... .. . ... : ... .. . ... : ... .. . ... : ... .. . ... : ... .. . ...
ROW 3D : G-2 0B . ... : C-3 0B . ... : --- .. . ... : ... .. . ... : ... .. . ...
ROW 3E : ... .. . ... : ... .. . ... : ... .. . ... : ... .. . ... : ... .. . ...
ROW 3F : F-3 0B . ... : A#3 0B . ... : ... .. . ... : ... .. . ... : ... .. . ...
ROW 40 : ... .. . ... : ... .. . ... : ... .. . ... : ... .. . ... : C-3 00 . ...
ROW 41 : C-3 0B . ... : G-3 0B . ... : E-2 17 . ... : ... .. . ... : ... .. . ...
ROW 42 : ... .. . ... : ... .. . ... : ... .. . ... : ... .. . ... : ... .. . ...
ROW 43 : A#3 0B . ... : G-2 0B . ... : ... .. . ... : ... .. . ... : ... .. . ...
ROW 44 : ... .. . ... : ... .. . ... : ... .. . ... : ... .. . ... : ... .. . ...
ROW 45 : G-3 0B . ... : F-3 0B . ... : --- .. . ... : ... .. . ... : ... .. . ...
ROW 46 : ... .. . ... : ... .. . ... : ... .. . ... : ... .. . ... : ... .. . ...
ROW 47 : G-2 0B . ... : A#3 0B . ... : ... .. . ... : ... .. . ... : ... .. . ...
ROW 48 : ... .. . ... : ... .. . ... : ... .. . ... : ... .. . ... : D-3 00 . ...
ROW 49 : F-3 0B . ... : G-3 0B . ... : E-3 17 . ... : A-# 1B . ... : ... .. . ...
ROW 4A : ... .. . ... : ... .. . ... : ... .. . ... : ... .. . ... : ... .. . ...
ROW 4B : C-3 0B . ... : G-2 0B . ... : ... .. . ... : ... .. . ... : ... .. . ...
ROW 4C : ... .. . ... : ... .. . ... : ... .. . ... : ... .. . ... : ... .. . ...
ROW 4D : A#3 0B . ... : F-3 0B . ... : --- .. . ... : ... .. . ... : ... .. . ...
ROW 4E : ... .. . ... : ... .. . ... : ... .. . ... : ... .. . ... : ... .. . ...
ROW 4F : G-3 0B . ... : C-3 0B . ... : ... .. . ... : ... .. . ... : ... .. . ...
ROW 50 : ... .. . ... : ... .. . ... : ... .. . ... : ... .. . ... : D-3 00 . ...
ROW 51 : G-2 0B . ... : A#3 0B . ... : D-3 17 . ... : A-# 1B . ... : ... .. . ...
ROW 52 : ... .. . ... : ... .. . ... : ... .. . ... : ... .. . ... : E-3 00 . W09
ROW 53 : F-3 0B . ... : G-3 0B . ... : A-2 17 . ... : ... .. . ... : ... .. . ...
ROW 54 : ... .. . ... : ... .. . ... : ... .. . ... : ... .. . ... : D-3 00 . ...
ROW 55 : C-3 0B . ... : G-2 0B . ... : E-3 17 . ... : A-# 1B . ... : ... .. . ...
ROW 56 : ... .. . ... : ... .. . ... : ... .. . ... : ... .. . ... : D-3 00 . ...
ROW 57 : A#3 0B . ... : F-3 0B . ... : E-2 17 . ... : A-# 1B . ... : ... .. . ...

PATTERN 38
ROW 00 : ... .. . ... : ... .. . ... : ... .. . ... : ... .. . ... : C-3 00 . ...
ROW 01 : G-3 0B . ... : A#3 0B . ... : G-2 17 . ... : ... .. . ... : ... .. . ...
ROW 02 : ... .. . ... : ... .. . ... : ... .. . ... : ... .. . ... : ... .. . ...
ROW 03 : G-2 0B . ... : G-3 0B . ... : ... .. . ... : ... .. . ... : ... .. . ...
ROW 04 : ... .. . ... : ... .. . ... : ... .. . ... : ... .. . ... : ... .. . ...
ROW 05 : F-3 0B . ... : G-2 0B . ... : --- .. . ... : ... .. . ... : ... .. . ...
ROW 06 : ... .. . ... : ... .. . ... : ... .. . ... : ... .. . ... : ... .. . ...
ROW 07 : C-3 0B . ... : F-3 0B . ... : ... .. . ... : ... .. . ... : ... .. . ...
ROW 08 : ... .. . ... : ... .. . ... : ... .. . ... : ... .. . ... : D-3 00 . ...
ROW 09 : A#3 0B . ... : C-3 0B . ... : G-3 17 . ... : A-# 1B . ... : ... .. . ...
ROW 0A : ... .. . ... : ... .. . ... : ... .. . ... : ... .. . ... : ... .. . ...
ROW 0B : G-3 0B . ... : A#3 0B . ... : ... .. . ... : ... .. . ... : ... .. . ...
ROW 0C : ... .. . ... : ... .. . ... : ... .. . ... : ... .. . ... : ... .. . ...
ROW 0D : G-2 0B . ... : G-3 0B . ... : --- .. . ... : ... .. . ... : ... .. . ...
ROW 0E : ... .. . ... : ... .. . ... : ... .. . ... : ... .. . ... : ... .. . ...
ROW 0F : F-3 0B . ... : G-2 0B . ... : ... .. . ... : ... .. . ... : ... .. . ...
ROW 10 : ... .. . ... : ... .. . ... : ... .. . ... : ... .. . ... : C-3 00 . ...
ROW 11 : C-3 0B . ... : F-3 0B . ... : G-2 17 . ... : ... .. . ... : ... .. . ...
ROW 12 : ... .. . ... : ... .. . ... : ... .. . ... : ... .. . ... : ... .. . ...
ROW 13 : A#3 0B . ... : A#3 0B . ... : ... .. . ... : ... .. . ... : ... .. . ...
ROW 14 : ... .. . ... : ... .. . ... : ... .. . ... : ... .. . ... : ... .. . ...
ROW 15 : E-3 0B . ... : E-3 0B . ... : --- .. . ... : ... .. . ... : ... .. . ...
ROW 16 : ... .. . ... : ... .. . ... : ... .. . ... : ... .. . ... : ... .. . ...
ROW 17 : E-2 0B . ... : E-2 0B . ... : ... .. . ... : ... .. . ... : ... .. . ...
ROW 18 : ... .. . ... : ... .. . ... : ... .. . ... : ... .. . ... : D-3 00 . ...
ROW 19 : D-3 0B . ... : D-3 0B . ... : G-3 17 . ... : A-# 1B . ... : ... .. . ...
ROW 1A : ... .. . ... : ... .. . ... : ... .. . ... : ... .. . ... : ... .. . ...
ROW 1B : A-2 0B . ... : A-2 0B . ... : ... .. . ... : ... .. . ... : ... .. . ...
ROW 1C : ... .. . ... : ... .. . ... : ... .. . ... : ... .. . ... : ... .. . ...
ROW 1D : G-3 0B . ... : G-3 0B . ... : --- .. . ... : ... .. . ... : ... .. . ...
ROW 1E : ... .. . ... : ... .. . ... : ... .. . ... : ... .. . ... : ... .. . ...
ROW 1F : E-3 0B . ... : E-3 0B . ... : ... .. . ... : ... .. . ... : ... .. . ...
ROW 20 : ... .. . ... : ... .. . ... : ... .. . ... : ... .. . ... : C-3 00 . ...
ROW 21 : E-2 0B . ... : E-2 0B . ... : G-2 17 . ... : ... .. . ... : ... .. . ...
ROW 22 : ... .. . ... : ... .. . ... : ... .. . ... : ... .. . ... : ... .. . ...
ROW 23 : D-3 0B . ... : D-3 0B . ... : ... .. . ... : ... .. . ... : ... .. . ...
ROW 24 : ... .. . ... : ... .. . ... : ... .. . ... : ... .. . ... : ... .. . ...
ROW 25 : A-2 0B . ... : G-3 0B . ... : --- .. . ... : ... .. . ... : ... .. . ...
ROW 26 : ... .. . ... : ... .. . ... : ... .. . ... : ... .. . ... : ... .. . ...
ROW 27 : G-3 0B . ... : E-3 0B . ... : ... .. . ... : ... .. . ... : ... .. . ...
ROW 28 : ... .. . ... : ... .. . ... : ... .. . ... : ... .. . ... : D-3 00 . ...
ROW 29 : E-3 0B . ... : E-2 0B . ... : G-3 17 . ... : A-# 1B . ... : ... .. . ...
ROW 2A : ... .. . ... : ... .. . ... : ... .. . ... : ... .. . ... : ... .. . ...
ROW 2B : E-2 0B . ... : D-3 0B . ... : ... .. . ... : ... .. . ... : ... .. . ...
ROW 2C : ... .. . ... : ... .. . ... : ... .. . ... : ... .. . ... : ... .. . ...
ROW 2D : D-3 0B . ... : A-2 0B . ... : --- .. . ... : ... .. . ... : ... .. . ...
ROW 2E : ... .. . ... : ... .. . ... : ... .. . ... : ... .. . ... : ... .. . ...
ROW 2F : A-2 0B . ... : G-3 0B . ... : ... .. . ... : ... .. . ... : ... .. . ...
ROW 30 : ... .. . ... : ... .. . ... : ... .. . ... : ... .. . ... : C-3 00 . ...
ROW 31 : G-3 0B . ... : E-3 0B . ... : G-2 17 . ... : ... .. . ... : ... .. . ...
ROW 32 : ... .. . ... : ... .. . ... : ... .. . ... : ... .. . ... : ... .. . ...
ROW 33 : E-3 0B . ... : E-2 0B . ... : ... .. . ... : ... .. . ... : ... .. . ...
ROW 34 : ... .. . ... : ... .. . ... : ... .. . ... : ... .. . ... : ... .. . ...
ROW 35 : E-2 0B . ... : D-3 0B . ... : --- .. . ... : ... .. . ... : ... .. . ...
ROW 36 : ... .. . ... : ... .. . ... : ... .. . ... : ... .. . ... : ... .. . ...
ROW 37 : D-3 0B . ... : G-3 0B . ... : ... .. . ... : ... .. . ... : ... .. . ...
ROW 38 : ... .. . ... : ... .. . ... : ... .. . ... : ... .. . ... : D-3 00 . ...
ROW 39 : A-2 0B . ... : E-3 0B . ... : G-3 17 . ... : A-# 1B . ... : ... .. . ...
ROW 3A : ... .. . ... : ... .. . ... : ... .. . ... : ... .. . ... : ... .. . ...
ROW 3B : G-3 0B . ... : E-2 0B . ... : ... .. . ... : ... .. . ... : ... .. . ...
ROW 3C : ... .. . ... : ... .. . ... : ... .. . ... : ... .. . ... : ... .. . ...
ROW 3D : E-3 0B . ... : D-3 0B . ... : --- .. . ... : ... .. . ... : ... .. . ...
ROW 3E : ... .. . ... : ... .. . ... : ... .. . ... : ... .. . ... : ... .. . ...
ROW 3F : E-2 0B . ... : A-2 0B . ... : ... .. . ... : ... .. . ... : ... .. . ...
ROW 40 : ... .. . ... : ... .. . ... : ... .. . ... : ... .. . ... : C-3 00 . ...
ROW 41 : D-3 0B . ... : G-3 0B . ... : G-2 17 . ... : ... .. . ... : ... .. . ...
ROW 42 : ... .. . ... : ... .. . ... : ... .. . ... : ... .. . ... : ... .. . ...
ROW 43 : A-2 0B . ... : E-3 0B . ... : ... .. . ... : ... .. . ... : ... .. . ...
ROW 44 : ... .. . ... : ... .. . ... : ... .. . ... : ... .. . ... : ... .. . ...
ROW 45 : G-3 0B . ... : E-2 0B . ... : --- .. . ... : ... .. . ... : ... .. . ...
ROW 46 : ... .. . ... : ... .. . ... : ... .. . ... : ... .. . ... : ... .. . ...
ROW 47 : E-3 0B . ... : D-3 0B . ... : ... .. . ... : ... .. . ... : ... .. . ...
ROW 48 : ... .. . ... : ... .. . ... : ... .. . ... : ... .. . ... : D-3 00 . ...
ROW 49 : E-2 0B . ... : G-3 0B . ... : G-3 17 . ... : A-# 1B . ... : ... .. . ...
ROW 4A : ... .. . ... : ... .. . ... : ... .. . ... : ... .. . ... : ... .. . ...
ROW 4B : D-3 0B . ... : E-3 0B . ... : ... .. . ... : ... .. . ... : ... .. . ...
ROW 4C : ... .. . ... : ... .. . ... : ... .. . ... : ... .. . ... : ... .. . ...
ROW 4D : A-2 0B . ... : E-2 0B . ... : --- .. . ... : ... .. . ... : ... .. . ...
ROW 4E : ... .. . ... : ... .. . ... : ... .. . ... : ... .. . ... : ... .. . ...
ROW 4F : G-3 0B . ... : D-3 0B . ... : ... .. . ... : ... .. . ... : ... .. . ...
ROW 50 : ... .. . ... : ... .. . ... : ... .. . ... : ... .. . ... : D-3 00 . ...
ROW 51 : E-3 0B . ... : A-2 0B . ... : F-3 17 . ... : A-# 1B . ... : ... .. . ...
ROW 52 : ... .. . ... : ... .. . ... : ... .. . ... : ... .. . ... : E-3 00 . W09
ROW 53 : E-2 0B . ... : G-3 0B . ... : C-3 17 . ... : ... .. . ... : ... .. . ...
ROW 54 : ... .. . ... : ... .. . ... : ... .. . ... : ... .. . ... : D-3 00 . ...
ROW 55 : D-3 0B . ... : E-3 0B . ... : G-3 17 . ... : A-# 1B . ... : ... .. . ...
ROW 56 : ... .. . ... : ... .. . ... : ... .. . ... : ... .. . ... : D-3 00 . ...
ROW 57 : A-2 0B . ... : E-2 0B . ... : G-2 17 . ... : A-# 1B . ... : ... .. . ...

PATTERN 39
ROW 00 : ... .. . ... : ... .. . ... : ... .. . ... : ... .. . ... : C-3 00 . ...
ROW 01 : G-3 0B . ... : D-3 0B . ... : E-2 17 . ... : ... .. . ... : ... .. . ...
ROW 02 : ... .. . ... : ... .. . ... : ... .. . ... : ... .. . ... : ... .. . ...
ROW 03 : E-3 0B . ... : G-3 0B . ... : ... .. . ... : ... .. . ... : ... .. . ...
ROW 04 : ... .. . ... : ... .. . ... : ... .. . ... : ... .. . ... : ... .. . ...
ROW 05 : E-2 0B . ... : E-3 0B . ... : --- .. . ... : ... .. . ... : ... .. . ...
ROW 06 : ... .. . ... : ... .. . ... : ... .. . ... : ... .. . ... : ... .. . ...
ROW 07 : D-3 0B . ... : E-2 0B . ... : ... .. . ... : ... .. . ... : ... .. . ...
ROW 08 : ... .. . ... : ... .. . ... : ... .. . ... : ... .. . ... : D-3 00 . ...
ROW 09 : A-2 0B . ... : D-3 0B . ... : E-3 17 . ... : A-# 1B . ... : ... .. . ...
ROW 0A : ... .. . ... : ... .. . ... : ... .. . ... : ... .. . ... : ... .. . ...
ROW 0B : G-3 0B . ... : A-2 0B . ... : ... .. . ... : ... .. . ... : ... .. . ...
ROW 0C : ... .. . ... : ... .. . ... : ... .. . ... : ... .. . ... : ... .. . ...
ROW 0D : E-3 0B . ... : G-3 0B . ... : --- .. . ... : ... .. . ... : ... .. . ...
ROW 0E : ... .. . ... : ... .. . ... : ... .. . ... : ... .. . ... : ... .. . ...
ROW 0F : E-2 0B . ... : E-3 0B . ... : ... .. . ... : ... .. . ... : ... .. . ...
ROW 10 : ... .. . ... : ... .. . ... : ... .. . ... : ... .. . ... : C-3 00 . ...
ROW 11 : D-3 0B . ... : E-2 0B . ... : E-2 17 . ... : ... .. . ... : ... .. . ...
ROW 12 : ... .. . ... : ... .. . ... : ... .. . ... : ... .. . ... : ... .. . ...
ROW 13 : A-2 0B . ... : D-3 0B . ... : ... .. . ... : ... .. . ... : ... .. . ...
ROW 14 : ... .. . ... : ... .. . ... : ... .. . ... : ... .. . ... : ... .. . ...
ROW 15 : G-3 0B . ... : G-3 0B . ... : --- .. . ... : ... .. . ... : ... .. . ...
ROW 16 : ... .. . ... : ... .. . ... : ... .. . ... : ... .. . ... : ... .. . ...
ROW 17 : G-3 0B . ... : G-3 0B . ... : ... .. . ... : ... .. . ... : ... .. . ...
ROW 18 : ... .. . ... : ... .. . ... : ... .. . ... : ... .. . ... : D-3 00 . ...
ROW 19 : G-2 0B . ... : G-2 0B . ... : E-3 17 . ... : A-# 1B . ... : ... .. . ...
ROW 1A : ... .. . ... : ... .. . ... : ... .. . ... : ... .. . ... : ... .. . ...
ROW 1B : F-3 0B . ... : F-3 0B . ... : ... .. . ... : ... .. . ... : ... .. . ...
ROW 1C : ... .. . ... : ... .. . ... : ... .. . ... : ... .. . ... : ... .. . ...
ROW 1D : C-3 0B . ... : C-3 0B . ... : --- .. . ... : ... .. . ... : ... .. . ...
ROW 1E : ... .. . ... : ... .. . ... : ... .. . ... : ... .. . ... : ... .. . ...
ROW 1F : A#3 0B . ... : A#3 0B . ... : ... .. . ... : ... .. . ... : ... .. . ...
ROW 20 : ... .. . ... : ... .. . ... : ... .. . ... : ... .. . ... : C-3 00 . ...
ROW 21 : G-3 0B . ... : G-3 0B . ... : E-2 17 . ... : ... .. . ... : ... .. . ...
ROW 22 : ... .. . ... : ... .. . ... : ... .. . ... : ... .. . ... : ... .. . ...
ROW 23 : G-2 0B . ... : G-2 0B . ... : ... .. . ... : ... .. . ... : ... .. . ...
ROW 24 : ... .. . ... : ... .. . ... : ... .. . ... : ... .. . ... : ... .. . ...
ROW 25 : F-3 0B . ... : F-3 0B . ... : --- .. . ... : ... .. . ... : ... .. . ...
ROW 26 : ... .. . ... : ... .. . ... : ... .. . ... : ... .. . ... : ... .. . ...
ROW 27 : C-3 0B . ... : A#3 0B . ... : ... .. . ... : ... .. . ... : ... .. . ...
ROW 28 : ... .. . ... : ... .. . ... : ... .. . ... : ... .. . ... : D-3 00 . ...
ROW 29 : A#3 0B . ... : G-3 0B . ... : E-3 17 . ... : A-# 1B . ... : ... .. . ...
ROW 2A : ... .. . ... : ... .. . ... : ... .. . ... : ... .. . ... : ... .. . ...
ROW 2B : G-3 0B . ... : G-2 0B . ... : ... .. . ... : ... .. . ... : ... .. . ...
ROW 2C : ... .. . ... : ... .. . ... : ... .. . ... : ... .. . ... : ... .. . ...
ROW 2D : G-2 0B . ... : F-3 0B . ... : --- .. . ... : ... .. . ... : ... .. . ...
ROW 2E : ... .. . ... : ... .. . ... : ... .. . ... : ... .. . ... : ... .. . ...
ROW 2F : F-3 0B . ... : C-3 0B . ... : ... .. . ... : ... .. . ... : ... .. . ...
ROW 30 : ... .. . ... : ... .. . ... : ... .. . ... : ... .. . ... : C-3 00 . ...
ROW 31 : C-3 0B . ... : A#3 0B . ... : E-2 17 . ... : ... .. . ... : ... .. . ...
ROW 32 : ... .. . ... : ... .. . ... : ... .. . ... : ... .. . ... : ... .. . ...
ROW 33 : A#3 0B . ... : G-3 0B . ... : ... .. . ... : ... .. . ... : ... .. . ...
ROW 34 : ... .. . ... : ... .. . ... : ... .. . ... : ... .. . ... : ... .. . ...
ROW 35 : G-3 0B . ... : G-2 0B . ... : --- .. . ... : ... .. . ... : ... .. . ...
ROW 36 : ... .. . ... : ... .. . ... : ... .. . ... : ... .. . ... : ... .. . ...
ROW 37 : G-2 0B . ... : F-3 0B . ... : ... .. . ... : ... .. . ... : ... .. . ...
ROW 38 : ... .. . ... : ... .. . ... : ... .. . ... : ... .. . ... : D-3 00 . ...
ROW 39 : F-3 0B . ... : A#3 0B . ... : E-3 17 . ... : A-# 1B . ... : ... .. . ...
ROW 3A : ... .. . ... : ... .. . ... : ... .. . ... : ... .. . ... : ... .. . ...
ROW 3B : C-3 0B . ... : G-3 0B . ... : ... .. . ... : ... .. . ... : ... .. . ...
ROW 3C : ... .. . ... : ... .. . ... : ... .. . ... : ... .. . ... : ... .. . ...
ROW 3D : A#3 0B . ... : G-2 0B . ... : --- .. . ... : ... .. . ... : ... .. . ...
ROW 3E : ... .. . ... : ... .. . ... : ... .. . ... : ... .. . ... : ... .. . ...
ROW 3F : G-3 0B . ... : F-3 0B . ... : ... .. . ... : ... .. . ... : ... .. . ...
ROW 40 : ... .. . ... : ... .. . ... : ... .. . ... : ... .. . ... : C-3 00 . ...
ROW 41 : G-2 0B . ... : C-3 0B . ... : E-2 17 . ... : ... .. . ... : ... .. . ...
ROW 42 : ... .. . ... : ... .. . ... : ... .. . ... : ... .. . ... : ... .. . ...
ROW 43 : F-3 0B . ... : A#3 0B . ... : ... .. . ... : ... .. . ... : ... .. . ...
ROW 44 : ... .. . ... : ... .. . ... : ... .. . ... : ... .. . ... : ... .. . ...
ROW 45 : C-3 0B . ... : G-3 0B . ... : --- .. . ... : ... .. . ... : ... .. . ...
ROW 46 : ... .. . ... : ... .. . ... : ... .. . ... : ... .. . ... : ... .. . ...
ROW 47 : A#3 0B . ... : G-2 0B . ... : ... .. . ... : ... .. . ... : ... .. . ...
ROW 48 : ... .. . ... : ... .. . ... : ... .. . ... : ... .. . ... : D-3 00 . ...
ROW 49 : G-3 0B . ... : F-3 0B . ... : E-3 17 . ... : A-# 1B . ... : ... .. . ...
ROW 4A : ... .. . ... : ... .. . ... : ... .. . ... : ... .. . ... : ... .. . ...
ROW 4B : G-2 0B . ... : A#3 0B . ... : ... .. . ... : ... .. . ... : ... .. . ...
ROW 4C : ... .. . ... : ... .. . ... : ... .. . ... : ... .. . ... : ... .. . ...
ROW 4D : F-3 0B . ... : G-3 0B . ... : --- .. . ... : ... .. . ... : ... .. . ...
ROW 4E : ... .. . ... : ... .. . ... : ... .. . ... : ... .. . ... : ... .. . ...
ROW 4F : C-3 0B . ... : G-2 0B . ... : ... .. . ... : ... .. . ... : ... .. . ...
ROW 50 : ... .. . ... : ... .. . ... : ... .. . ... : ... .. . ... : D-3 00 . ...
ROW 51 : A#3 0B . ... : F-3 0B . ... : D-3 17 . ... : A-# 1B . ... : ... .. . ...
ROW 52 : ... .. . ... : ... .. . ... : ... .. . ... : ... .. . ... : E-3 00 . W09
ROW 53 : G-3 0B . ... : C-3 0B . ... : A-2 17 . ... : ... .. . ... : ... .. . ...
ROW 54 : ... .. . ... : ... .. . ... : ... .. . ... : ... .. . ... : D-3 00 . ...
ROW 55 : G-2 0B . ... : A#3 0B . ... : E-3 17 . ... : A-# 1B . ... : ... .. . ...
ROW 56 : ... .. . ... : ... .. . ... : ... .. . ... : ... .. . ... : D-3 00 . ...
ROW 57 : F-3 0B . ... : G-3 0B . ... : E-2 17 . ... : A-# 1B . ... : ... .. . ...

PATTERN 3A
ROW 00 : ... .. . ... : ... .. . ... : ... .. . ... : ... .. . ... : C-3 00 . ...
ROW 01 : C-3 0B . ... : G-2 0B . ... : G-2 17 . ... : ... .. . ... : ... .. . ...
ROW 02 : ... .. . ... : ... .. . ... : ... .. . ... : ... .. . ... : ... .. . ...
ROW 03 : A#3 0B . ... : F-3 0B . ... : ... .. . ... : ... .. . ... : ... .. . ...
ROW 04 : ... .. . ... : ... .. . ... : ... .. . ... : ... .. . ... : ... .. . ...
ROW 05 : G-3 0B . ... : A#3 0B . ... : --- .. . ... : ... .. . ... : ... .. . ...
ROW 06 : ... .. . ... : ... .. . ... : ... .. . ... : ... .. . ... : ... .. . ...
ROW 07 : G-2 0B . ... : G-3 0B . ... : ... .. . ... : ... .. . ... : ... .. . ...
ROW 08 : ... .. . ... : ... .. . ... : ... .. . ... : ... .. . ... : D-3 00 . ...
ROW 09 : F-3 0B . ... : G-2 0B . ... : G-3 17 . ... : A-# 1B . ... : ... .. . ...
ROW 0A : ... .. . ... : ... .. . ... : ... .. . ... : ... .. . ... : ... .. . ...
ROW 0B : C-3 0B . ... : F-3 0B . ... : ... .. . ... : ... .. . ... : ... .. . ...
ROW 0C : ... .. . ... : ... .. . ... : ... .. . ... : ... .. . ... : ... .. . ...
ROW 0D : A#3 0B . ... : C-3 0B . ... : --- .. . ... : ... .. . ... : ... .. . ...
ROW 0E : ... .. . ... : ... .. . ... : ... .. . ... : ... .. . ... : ... .. . ...
ROW 0F : G-3 0B . ... : A#3 0B . ... : ... .. . ... : ... .. . ... : ... .. . ...
ROW 10 : ... .. . ... : ... .. . ... : ... .. . ... : ... .. . ... : C-3 00 . ...
ROW 11 : G-2 0B . ... : G-3 0B . ... : G-2 17 . ... : ... .. . ... : ... .. . ...
ROW 12 : ... .. . ... : ... .. . ... : ... .. . ... : ... .. . ... : ... .. . ...
ROW 13 : F-3 0B . ... : G-2 0B . ... : ... .. . ... : ... .. . ... : ... .. . ...
ROW 14 : ... .. . ... : ... .. . ... : ... .. . ... : ... .. . ... : ... .. . ...
ROW 15 : C-3 0B . ... : F-3 0B . ... : --- .. . ... : ... .. . ... : ... .. . ...
ROW 16 : ... .. . ... : ... .. . ... : ... .. . ... : ... .. . ... : ... .. . ...
ROW 17 : A#3 0B . ... : A#3 0B . ... : ... .. . ... : ... .. . ... : ... .. . ...
ROW 18 : ... .. . ... : ... .. . ... : ... .. . ... : ... .. . ... : D-3 00 . ...
ROW 19 : E-3 0B . ... : E-3 0B . ... : G-3 17 . ... : A-# 1B . ... : ... .. . ...
ROW 1A : ... .. . ... : ... .. . ... : ... .. . ... : ... .. . ... : ... .. . ...
ROW 1B : E-2 0B . ... : E-2 0B . ... : ... .. . ... : ... .. . ... : ... .. . ...
ROW 1C : ... .. . ... : ... .. . ... : ... .. . ... : ... .. . ... : ... .. . ...
ROW 1D : D-3 0B . ... : D-3 0B . ... : --- .. . ... : ... .. . ... : ... .. . ...
ROW 1E : ... .. . ... : ... .. . ... : ... .. . ... : ... .. . ... : ... .. . ...
ROW 1F : A-2 0B . ... : A-2 0B . ... : ... .. . ... : ... .. . ... : ... .. . ...
ROW 20 : ... .. . ... : ... .. . ... : ... .. . ... : ... .. . ... : C-3 00 . ...
ROW 21 : G-3 0B . ... : G-3 0B . ... : G-2 17 . ... : ... .. . ... : ... .. . ...
ROW 22 : ... .. . ... : ... .. . ... : ... .. . ... : ... .. . ... : ... .. . ...
ROW 23 : E-3 0B . ... : E-3 0B . ... : ... .. . ... : ... .. . ... : ... .. . ...
ROW 24 : ... .. . ... : ... .. . ... : ... .. . ... : ... .. . ... : ... .. . ...
ROW 25 : E-2 0B . ... : E-2 0B . ... : --- .. . ... : ... .. . ... : ... .. . ...
ROW 26 : ... .. . ... : ... .. . ... : ... .. . ... : ... .. . ... : ... .. . ...
ROW 27 : D-3 0B . ... : D-3 0B . ... : ... .. . ... : ... .. . ... : ... .. . ...
ROW 28 : ... .. . ... : ... .. . ... : ... .. . ... : ... .. . ... : D-3 00 . ...
ROW 29 : A-2 0B . ... : G-3 0B . ... : G-3 17 . ... : A-# 1B . ... : ... .. . ...
ROW 2A : ... .. . ... : ... .. . ... : ... .. . ... : ... .. . ... : ... .. . ...
ROW 2B : G-3 0B . ... : E-3 0B . ... : ... .. . ... : ... .. . ... : ... .. . ...
ROW 2C : ... .. . ... : ... .. . ... : ... .. . ... : ... .. . ... : ... .. . ...
ROW 2D : E-3 0B . ... : E-2 0B . ... : --- .. . ... : ... .. . ... : ... .. . ...
ROW 2E : ... .. . ... : ... .. . ... : ... .. . ... : ... .. . ... : ... .. . ...
ROW 2F : E-2 0B . ... : D-3 0B . ... : ... .. . ... : ... .. . ... : ... .. . ...
ROW 30 : ... .. . ... : ... .. . ... : ... .. . ... : ... .. . ... : C-3 00 . ...
ROW 31 : D-3 0B . ... : A-2 0B . ... : G-2 17 . ... : ... .. . ... : ... .. . ...
ROW 32 : ... .. . ... : ... .. . ... : ... .. . ... : ... .. . ... : ... .. . ...
ROW 33 : A-2 0B . ... : G-3 0B . ... : ... .. . ... : ... .. . ... : ... .. . ...
ROW 34 : ... .. . ... : ... .. . ... : ... .. . ... : ... .. . ... : ... .. . ...
ROW 35 : G-3 0B . ... : E-3 0B . ... : --- .. . ... : ... .. . ... : ... .. . ...
ROW 36 : ... .. . ... : ... .. . ... : ... .. . ... : ... .. . ... : ... .. . ...
ROW 37 : E-3 0B . ... : E-2 0B . ... : ... .. . ... : ... .. . ... : ... .. . ...
ROW 38 : ... .. . ... : ... .. . ... : ... .. . ... : ... .. . ... : D-3 00 . ...
ROW 39 : E-2 0B . ... : D-3 0B . ... : G-3 17 . ... : A-# 1B . ... : ... .. . ...
ROW 3A : ... .. . ... : ... .. . ... : ... .. . ... : ... .. . ... : ... .. . ...
ROW 3B : D-3 0B . ... : G-3 0B . ... : ... .. . ... : ... .. . ... : ... .. . ...
ROW 3C : ... .. . ... : ... .. . ... : ... .. . ... : ... .. . ... : ... .. . ...
ROW 3D : A-2 0B . ... : E-3 0B . ... : --- .. . ... : ... .. . ... : ... .. . ...
ROW 3E : ... .. . ... : ... .. . ... : ... .. . ... : ... .. . ... : ... .. . ...
ROW 3F : G-3 0B . ... : E-2 0B . ... : ... .. . ... : ... .. . ... : ... .. . ...
ROW 40 : ... .. . ... : ... .. . ... : ... .. . ... : ... .. . ... : C-3 00 . ...
ROW 41 : E-3 0B . ... : D-3 0B . ... : G-2 17 . ... : ... .. . ... : ... .. . ...
ROW 42 : ... .. . ... : ... .. . ... : ... .. . ... : ... .. . ... : ... .. . ...
ROW 43 : E-2 0B . ... : A-2 0B . ... : ... .. . ... : ... .. . ... : ... .. . ...
ROW 44 : ... .. . ... : ... .. . ... : ... .. . ... : ... .. . ... : ... .. . ...
ROW 45 : D-3 0B . ... : G-3 0B . ... : --- .. . ... : ... .. . ... : ... .. . ...
ROW 46 : ... .. . ... : ... .. . ... : ... .. . ... : ... .. . ... : ... .. . ...
ROW 47 : A-2 0B . ... : E-3 0B . ... : ... .. . ... : ... .. . ... : ... .. . ...
ROW 48 : ... .. . ... : ... .. . ... : ... .. . ... : ... .. . ... : D-3 00 . ...
ROW 49 : G-3 0B . ... : E-2 0B . ... : G-3 17 . ... : A-# 1B . ... : ... .. . ...
ROW 4A : ... .. . ... : ... .. . ... : ... .. . ... : ... .. . ... : ... .. . ...
ROW 4B : E-3 0B . ... : D-3 0B . ... : ... .. . ... : ... .. . ... : ... .. . ...
ROW 4C : ... .. . ... : ... .. . ... : ... .. . ... : ... .. . ... : ... .. . ...
ROW 4D : E-2 0B . ... : G-3 0B . ... : --- .. . ... : ... .. . ... : ... .. . ...
ROW 4E : ... .. . ... : ... .. . ... : ... .. . ... : ... .. . ... : ... .. . ...
ROW 4F : D-3 0B . ... : E-3 0B . ... : ... .. . ... : ... .. . ... : ... .. . ...
ROW 50 : ... .. . ... : ... .. . ... : ... .. . ... : ... .. . ... : D-3 00 . ...
ROW 51 : A-2 0B . ... : E-2 0B . ... : F-3 17 . ... : A-# 1B . ... : ... .. . ...
ROW 52 : ... .. . ... : ... .. . ... : ... .. . ... : ... .. . ... : E-3 00 . W09
ROW 53 : G-3 0B . ... : D-3 0B . ... : C-3 17 . ... : ... .. . ... : ... .. . ...
ROW 54 : ... .. . ... : ... .. . ... : ... .. . ... : ... .. . ... : D-3 00 . ...
ROW 55 : E-3 0B . ... : A-2 0B . ... : G-3 17 . ... : A-# 1B . ... : ... .. . ...
ROW 56 : ... .. . ... : ... .. . ... : ... .. . ... : ... .. . ... : D-3 00 . ...
ROW 57 : E-2 0B . ... : G-3 0B . ... : G-2 17 . ... : A-# 1B . ... : ... .. . ...

PATTERN 3B
ROW 00 : ... .. . ... : ... .. . ... : ... .. . ... : ... .. . ... : C-3 00 . ...
ROW 01 : D-3 0B . ... : E-3 0B . ... : E-2 17 . ... : ... .. . ... : ... .. . ...
ROW 02 : ... .. . ... : ... .. . ... : ... .. . ... : ... .. . ... : ... .. . ...
ROW 03 : A-2 0B . ... : E-2 0B . ... : ... .. . ... : ... .. . ... : ... .. . ...
ROW 04 : ... .. . ... : ... .. . ... : ... .. . ... : ... .. . ... : ... .. . ...
ROW 05 : G-3 0B . ... : D-3 0B . ... : --- .. . ... : ... .. . ... : ... .. . ...
ROW 06 : ... .. . ... : ... .. . ... : ... .. . ... : ... .. . ... : ... .. . ...
ROW 07 : E-3 0B . ... : G-3 0B . ... : ... .. . ... : ... .. . ... : ... .. . ...
ROW 08 : ... .. . ... : ... .. . ... : ... .. . ... : ... .. . ... : D-3 00 . ...
ROW 09 : E-2 0B . ... : E-3 0B . ... : E-3 17 . ... : A-# 1B . ... : ... .. . ...
ROW 0A : ... .. . ... : ... .. . ... : ... .. . ... : ... .. . ... : ... .. . ...
ROW 0B : D-3 0B . ... : E-2 0B . ... : ... .. . ... : ... .. . ... : ... .. . ...
ROW 0C : ... .. . ... : ... .. . ... : ... .. . ... : ... .. . ... : ... .. . ...
ROW 0D : A-2 0B . ... : D-3 0B . ... : --- .. . ... : ... .. . ... : ... .. . ...
ROW 0E : ... .. . ... : ... .. . ... : ... .. . ... : ... .. . ... : ... .. . ...
ROW 0F : G-3 0B . ... : A-2 0B . ... : ... .. . ... : ... .. . ... : ... .. . ...
ROW 10 : ... .. . ... : ... .. . ... : ... .. . ... : ... .. . ... : C-3 00 . ...
ROW 11 : E-3 0B . ... : G-3 0B . ... : E-2 17 . ... : ... .. . ... : ... .. . ...
ROW 12 : ... .. . ... : ... .. . ... : ... .. . ... : ... .. . ... : ... .. . ...
ROW 13 : E-2 0B . ... : E-3 0B . ... : ... .. . ... : ... .. . ... : ... .. . ...
ROW 14 : ... .. . ... : ... .. . ... : ... .. . ... : ... .. . ... : ... .. . ...
ROW 15 : D-3 0B . ... : E-2 0B . ... : --- .. . ... : ... .. . ... : ... .. . ...
ROW 16 : ... .. . ... : ... .. . ... : ... .. . ... : ... .. . ... : ... .. . ...
ROW 17 : A-2 0B . ... : D-3 0B . ... : ... .. . ... : ... .. . ... : ... .. . ...
ROW 18 : ... .. . ... : ... .. . ... : ... .. . ... : ... .. . ... : D-3 00 . ...
ROW 19 : G-3 0B . ... : G-3 0B . ... : E-3 17 . ... : A-# 1B . ... : ... .. . ...
ROW 1A : ... .. . ... : ... .. . ... : ... .. . ... : ... .. . ... : ... .. . ...
ROW 1B : G-3 0B . ... : G-3 0B . ... : ... .. . ... : ... .. . ... : ... .. . ...
ROW 1C : ... .. . ... : ... .. . ... : ... .. . ... : ... .. . ... : ... .. . ...
ROW 1D : G-2 0B . ... : G-2 0B . ... : --- .. . ... : ... .. . ... : ... .. . ...
ROW 1E : ... .. . ... : ... .. . ... : ... .. . ... : ... .. . ... : ... .. . ...
ROW 1F : F-3 0B . ... : F-3 0B . ... : ... .. . ... : ... .. . ... : ... .. . ...
ROW 20 : ... .. . ... : ... .. . ... : ... .. . ... : ... .. . ... : C-3 00 . ...
ROW 21 : C-3 0B . ... : C-3 0B . ... : E-2 17 . ... : ... .. . ... : ... .. . ...
ROW 22 : ... .. . ... : ... .. . ... : ... .. . ... : ... .. . ... : ... .. . ...
ROW 23 : A#3 0B . ... : A#3 0B . ... : ... .. . ... : ... .. . ... : ... .. . ...
ROW 24 : ... .. . ... : ... .. . ... : ... .. . ... : ... .. . ... : ... .. . ...
ROW 25 : G-3 0B . ... : G-3 0B . ... : --- .. . ... : ... .. . ... : ... .. . ...
ROW 26 : ... .. . ... : ... .. . ... : ... .. . ... : ... .. . ... : ... .. . ...
ROW 27 : G-2 0B . ... : G-2 0B . ... : ... .. . ... : ... .. . ... : ... .. . ...
ROW 28 : ... .. . ... : ... .. . ... : ... .. . ... : ... .. . ... : D-3 00 . ...
ROW 29 : F-3 0B . ... : F-3 0B . ... : E-3 17 . ... : A-# 1B . ... : ... .. . ...
ROW 2A : ... .. . ... : ... .. . ... : ... .. . ... : ... .. . ... : ... .. . ...
ROW 2B : C-3 0B . ... : A#3 0B . ... : ... .. . ... : ... .. . ... : ... .. . ...
ROW 2C : ... .. . ... : ... .. . ... : ... .. . ... : ... .. . ... : ... .. . ...
ROW 2D : A#3 0B . ... : G-3 0B . ... : --- .. . ... : ... .. . ... : ... .. . ...
ROW 2E : ... .. . ... : ... .. . ... : ... .. . ... : ... .. . ... : ... .. . ...
ROW 2F : G-3 0B . ... : G-2 0B . ... : ... .. . ... : ... .. . ... : ... .. . ...
ROW 30 : ... .. . ... : ... .. . ... : ... .. . ... : ... .. . ... : C-3 00 . ...
ROW 31 : G-2 0B . ... : F-3 0B . ... : E-2 17 . ... : ... .. . ... : ... .. . ...
ROW 32 : ... .. . ... : ... .. . ... : ... .. . ... : ... .. . ... : ... .. . ...
ROW 33 : F-3 0B . ... : C-3 0B . ... : ... .. . ... : ... .. . ... : ... .. . ...
ROW 34 : ... .. . ... : ... .. . ... : ... .. . ... : ... .. . ... : ... .. . ...
ROW 35 : C-3 0B . ... : A#3 0B . ... : --- .. . ... : ... .. . ... : ... .. . ...
ROW 36 : ... .. . ... : ... .. . ... : ... .. . ... : ... .. . ... : ... .. . ...
ROW 37 : A#3 0B . ... : G-3 0B . ... : ... .. . ... : ... .. . ... : ... .. . ...
ROW 38 : ... .. . ... : ... .. . ... : ... .. . ... : ... .. . ... : D-3 00 . ...
ROW 39 : G-3 0B . ... : G-2 0B . ... : E-3 17 . ... : A-# 1B . ... : ... .. . ...
ROW 3A : ... .. . ... : ... .. . ... : ... .. . ... : ... .. . ... : ... .. . ...
ROW 3B : G-2 0B . ... : F-3 0B . ... : ... .. . ... : ... .. . ... : ... .. . ...
ROW 3C : ... .. . ... : ... .. . ... : ... .. . ... : ... .. . ... : ... .. . ...
ROW 3D : F-3 0B . ... : A#3 0B . ... : --- .. . ... : ... .. . ... : ... .. . ...
ROW 3E : ... .. . ... : ... .. . ... : ... .. . ... : ... .. . ... : ... .. . ...
ROW 3F : C-3 0B . ... : G-3 0B . ... : ... .. . ... : ... .. . ... : ... .. . ...
ROW 40 : ... .. . ... : ... .. . ... : ... .. . ... : ... .. . ... : C-3 00 . ...
ROW 41 : A#3 0B . ... : G-2 0B . ... : E-2 17 . ... : ... .. . ... : ... .. . ...
ROW 42 : ... .. . ... : ... .. . ... : ... .. . ... : ... .. . ... : ... .. . ...
ROW 43 : G-3 0B . ... : F-3 0B . ... : ... .. . ... : ... .. . ... : ... .. . ...
ROW 44 : ... .. . ... : ... .. . ... : ... .. . ... : ... .. . ... : ... .. . ...
ROW 45 : G-2 0B . ... : C-3 0B . ... : --- .. . ... : ... .. . ... : ... .. . ...
ROW 46 : ... .. . ... : ... .. . ... : ... .. . ... : ... .. . ... : ... .. . ...
ROW 47 : F-3 0B . ... : A#3 0B . ... : ... .. . ... : ... .. . ... : ... .. . ...
ROW 48 : ... .. . ... : ... .. . ... : ... .. . ... : ... .. . ... : D-3 00 . ...
ROW 49 : C-3 0B . ... : G-3 0B . ... : E-3 17 . ... : A-# 1B . ... : ... .. . ...
ROW 4A : ... .. . ... : ... .. . ... : ... .. . ... : ... .. . ... : ... .. . ...
ROW 4B : A#3 0B . ... : G-2 0B . ... : ... .. . ... : ... .. . ... : ... .. . ...
ROW 4C : ... .. . ... : ... .. . ... : ... .. . ... : ... .. . ... : ... .. . ...
ROW 4D : G-3 0B . ... : F-3 0B . ... : --- .. . ... : ... .. . ... : ... .. . ...
ROW 4E : ... .. . ... : ... .. . ... : ... .. . ... : ... .. . ... : ... .. . ...
ROW 4F : G-2 0B . ... : A#3 0B . ... : ... .. . ... : ... .. . ... : ... .. . ...
ROW 50 : ... .. . ... : ... .. . ... : ... .. . ... : ... .. . ... : D-3 00 . ...
ROW 51 : F-3 0B . ... : G-3 0B . ... : D-3 17 . ... : A-# 1B . ... : ... .. . ...
ROW 52 : ... .. . ... : ... .. . ... : ... .. . ... : ... .. . ... : E-3 00 . W09
ROW 53 : C-3 0B . ... : G-2 0B . ... : A-2 17 . ... : ... .. . ... : ... .. . ...
ROW 54 : ... .. . ... : ... .. . ... : ... .. . ... : ... .. . ... : D-3 00 . ...
ROW 55 : A#3 0B . ... : F-3 0B . ... : E-3 17 . ... : A-# 1B . ... : ... .. . ...
ROW 56 : ... .. . ... : ... .. . ... : ... .. . ... : ... .. . ... : D-3 00 . ...
ROW 57 : G-3 0B . ... : C-3 0B . ... : E-2 17 . ... : A-# 1B . ... : ... .. . ...

PATTERN 3C
ROW 00 : ... .. . ... : ... .. . ... : ... .. . ... : ... .. . ... : C-3 00 . ...
ROW 01 : G-2 0B . ... : A#3 0B . ... : G-2 17 . ... : ... .. . ... : ... .. . ...
ROW 02 : ... .. . ... : ... .. . ... : ... .. . ... : ... .. . ... : ... .. . ...
ROW 03 : F-3 0B . ... : G-3 0B . ... : ... .. . ... : ... .. . ... : ... .. . ...
ROW 04 : ... .. . ... : ... .. . ... : ... .. . ... : ... .. . ... : ... .. . ...
ROW 05 : C-3 0B . ... : G-2 0B . ... : --- .. . ... : ... .. . ... : ... .. . ...
ROW 06 : ... .. . ... : ... .. . ... : ... .. . ... : ... .. . ... : ... .. . ...
ROW 07 : A#3 0B . ... : F-3 0B . ... : ... .. . ... : ... .. . ... : ... .. . ...
ROW 08 : ... .. . ... : ... .. . ... : ... .. . ... : ... .. . ... : D-3 00 . ...
ROW 09 : G-3 0B . ... : A#3 0B . ... : G-3 17 . ... : A-# 1B . ... : ... .. . ...
ROW 0A : ... .. . ... : ... .. . ... : ... .. . ... : ... .. . ... : ... .. . ...
ROW 0B : G-2 0B . ... : G-3 0B . ... : ... .. . ... : ... .. . ... : ... .. . ...
ROW 0C : ... .. . ... : ... .. . ... : ... .. . ... : ... .. . ... : ... .. . ...
ROW 0D : F-3 0B . ... : G-2 0B . ... : --- .. . ... : ... .. . ... : ... .. . ...
ROW 0E : ... .. . ... : ... .. . ... : ... .. . ... : ... .. . ... : ... .. . ...
ROW 0F : C-3 0B . ... : F-3 0B . ... : ... .. . ... : ... .. . ... : ... .. . ...
ROW 10 : ... .. . ... : ... .. . ... : ... .. . ... : ... .. . ... : C-3 00 . ...
ROW 11 : A#3 0B . ... : C-3 0B . ... : G-2 17 . ... : ... .. . ... : ... .. . ...
ROW 12 : ... .. . ... : ... .. . ... : ... .. . ... : ... .. . ... : ... .. . ...
ROW 13 : G-3 0B . ... : A#3 0B . ... : ... .. . ... : ... .. . ... : ... .. . ...
ROW 14 : ... .. . ... : ... .. . ... : ... .. . ... : ... .. . ... : ... .. . ...
ROW 15 : G-2 0B . ... : G-3 0B . ... : --- .. . ... : ... .. . ... : ... .. . ...
ROW 16 : ... .. . ... : ... .. . ... : ... .. . ... : ... .. . ... : ... .. . ...
ROW 17 : F-3 0B . ... : G-2 0B . ... : ... .. . ... : ... .. . ... : ... .. . ...
ROW 18 : ... .. . ... : ... .. . ... : ... .. . ... : ... .. . ... : D-3 00 . ...
ROW 19 : C-3 0B . ... : F-3 0B . ... : G-3 17 . ... : A-# 1B . ... : ... .. . ...
ROW 1A : ... .. . ... : ... .. . ... : ... .. . ... : ... .. . ... : ... .. . ...
ROW 1B : A#3 0B . ... : A#3 0B . ... : ... .. . ... : ... .. . ... : ... .. . ...
ROW 1C : ... .. . ... : ... .. . ... : ... .. . ... : ... .. . ... : ... .. . ...
ROW 1D : E-3 0B . ... : E-3 0B . ... : --- .. . ... : ... .. . ... : ... .. . ...
ROW 1E : ... .. . ... : ... .. . ... : ... .. . ... : ... .. . ... : ... .. . ...
ROW 1F : E-2 0B . ... : E-2 0B . ... : ... .. . ... : ... .. . ... : ... .. . ...
ROW 20 : ... .. . ... : ... .. . ... : ... .. . ... : ... .. . ... : C-3 00 . ...
ROW 21 : D-3 0B . ... : D-3 0B . ... : G-2 17 . ... : ... .. . ... : ... .. . ...
ROW 22 : ... .. . ... : ... .. . ... : ... .. . ... : ... .. . ... : ... .. . ...
ROW 23 : A-2 0B . ... : A-2 0B . ... : ... .. . ... : ... .. . ... : ... .. . ...
ROW 24 : ... .. . ... : ... .. . ... : ... .. . ... : ... .. . ... : ... .. . ...
ROW 25 : G-3 0B . ... : G-3 0B . ... : --- .. . ... : ... .. . ... : ... .. . ...
ROW 26 : ... .. . ... : ... .. . ... : ... .. . ... : ... .. . ... : ... .. . ...
ROW 27 : E-3 0B . ... : E-3 0B . ... : ... .. . ... : ... .. . ... : ... .. . ...
ROW 28 : ... .. . ... : ... .. . ... : ... .. . ... : ... .. . ... : D-3 00 . ...
ROW 29 : E-2 0B . ... : E-2 0B . ... : G-3 17 . ... : A-# 1B . ... : ... .. . ...
ROW 2A : ... .. . ... : ... .. . ... : ... .. . ... : ... .. . ... : ... .. . ...
ROW 2B : D-3 0B . ... : D-3 0B . ... : ... .. . ... : ... .. . ... : ... .. . ...
ROW 2C : ... .. . ... : ... .. . ... : ... .. . ... : ... .. . ... : ... .. . ...
ROW 2D : A-2 0B . ... : G-3 0B . ... : --- .. . ... : ... .. . ... : ... .. . ...
ROW 2E : ... .. . ... : ... .. . ... : ... .. . ... : ... .. . ... : ... .. . ...
ROW 2F : G-3 0B . ... : E-3 0B . ... : ... .. . ... : ... .. . ... : ... .. . ...
ROW 30 : ... .. . ... : ... .. . ... : ... .. . ... : ... .. . ... : C-3 00 . ...
ROW 31 : E-3 0B . ... : E-2 0B . ... : G-2 17 . ... : ... .. . ... : ... .. . ...
ROW 32 : ... .. . ... : ... .. . ... : ... .. . ... : ... .. . ... : ... .. . ...
ROW 33 : E-2 0B . ... : D-3 0B . ... : ... .. . ... : ... .. . ... : ... .. . ...
ROW 34 : ... .. . ... : ... .. . ... : ... .. . ... : ... .. . ... : ... .. . ...
ROW 35 : D-3 0B . ... : A-2 0B . ... : --- .. . ... : ... .. . ... : ... .. . ...
ROW 36 : ... .. . ... : ... .. . ... : ... .. . ... : ... .. . ... : ... .. . ...
ROW 37 : A-2 0B . ... : G-3 0B . ... : ... .. . ... : ... .. . ... : ... .. . ...
ROW 38 : ... .. . ... : ... .. . ... : ... .. . ... : ... .. . ... : D-3 00 . ...
ROW 39 : G-3 0B . ... : E-3 0B . ... : G-3 17 . ... : A-# 1B . ... : ... .. . ...
ROW 3A : ... .. . ... : ... .. . ... : ... .. . ... : ... .. . ... : ... .. . ...
ROW 3B : E-3 0B . ... : E-2 0B . ... : ... .. . ... : ... .. . ... : ... .. . ...
ROW 3C : ... .. . ... : ... .. . ... : ... .. . ... : ... .. . ... : ... .. . ...
ROW 3D : E-2 0B . ... : D-3 0B . ... : --- .. . ... : ... .. . ... : ... .. . ...
ROW 3E : ... .. . ... : ... .. . ... : ... .. . ... : ... .. . ... : ... .. . ...
ROW 3F : D-3 0B . ... : G-3 0B . ... : ... .. . ... : ... .. . ... : ... .. . ...
ROW 40 : ... .. . ... : ... .. . ... : ... .. . ... : ... .. . ... : C-3 00 . ...
ROW 41 : A-2 0B . ... : E-3 0B . ... : G-2 17 . ... : ... .. . ... : ... .. . ...
ROW 42 : ... .. . ... : ... .. . ... : ... .. . ... : ... .. . ... : ... .. . ...
ROW 43 : G-3 0B . ... : E-2 0B . ... : ... .. . ... : ... .. . ... : ... .. . ...
ROW 44 : ... .. . ... : ... .. . ... : ... .. . ... : ... .. . ... : ... .. . ...
ROW 45 : E-3 0B . ... : D-3 0B . ... : --- .. . ... : ... .. . ... : ... .. . ...
ROW 46 : ... .. . ... : ... .. . ... : ... .. . ... : ... .. . ... : ... .. . ...
ROW 47 : E-2 0B . ... : A-2 0B . ... : ... .. . ... : ... .. . ... : ... .. . ...
ROW 48 : ... .. . ... : ... .. . ... : ... .. . ... : ... .. . ... : D-3 00 . ...
ROW 49 : D-3 0B . ... : G-3 0B . ... : G-3 17 . ... : A-# 1B . ... : ... .. . ...
ROW 4A : ... .. . ... : ... .. . ... : ... .. . ... : ... .. . ... : ... .. . ...
ROW 4B : A-2 0B . ... : E-3 0B . ... : ... .. . ... : ... .. . ... : ... .. . ...
ROW 4C : ... .. . ... : ... .. . ... : ... .. . ... : ... .. . ... : ... .. . ...
ROW 4D : G-3 0B . ... : E-2 0B . ... : --- .. . ... : ... .. . ... : ... .. . ...
ROW 4E : ... .. . ... : ... .. . ... : ... .. . ... : ... .. . ... : ... .. . ...
ROW 4F : E-3 0B . ... : D-3 0B . ... : ... .. . ... : ... .. . ... : ... .. . ...
ROW 50 : ... .. . ... : ... .. . ... : ... .. . ... : ... .. . ... : D-3 00 . ...
ROW 51 : E-2 0B . ... : G-3 0B . ... : F-3 17 . ... : A-# 1B . ... : ... .. . ...
ROW 52 : ... .. . ... : ... .. . ... : ... .. . ... : ... .. . ... : E-3 00 . W09
ROW 53 : D-3 0B . ... : E-3 0B . ... : C-3 17 . ... : ... .. . ... : ... .. . ...
ROW 54 : ... .. . ... : ... .. . ... : ... .. . ... : ... .. . ... : D-3 00 . ...
ROW 55 : A-2 0B . ... : E-2 0B . ... : G-3 17 . ... : A-# 1B . ... : ... .. . ...
ROW 56 : ... .. . ... : ... .. . ... : ... .. . ... : ... .. . ... : D-3 00 . ...
ROW 57 : G-3 0B . ... : D-3 0B . ... : G-2 17 . ... : A-# 1B . ... : ... .. . ...

PATTERN 3D
ROW 00 : ... .. . ... : ... .. . ... : ... .. . ... : ... .. . ... : C-3 00 . ...
ROW 01 : E-3 0B . ... : A-2 0B . ... : E-2 17 . ... : ... .. . ... : ... .. . ...
ROW 02 : ... .. . ... : ... .. . ... : ... .. . ... : ... .. . ... : ... .. . ...
ROW 03 : E-2 0B . ... : G-3 0B . ... : ... .. . ... : ... .. . ... : ... .. . ...
ROW 04 : ... .. . ... : ... .. . ... : ... .. . ... : ... .. . ... : ... .. . ...
ROW 05 : D-3 0B . ... : E-3 0B . ... : --- .. . ... : ... .. . ... : ... .. . ...
ROW 06 : ... .. . ... : ... .. . ... : ... .. . ... : ... .. . ... : ... .. . ...
ROW 07 : A-2 0B . ... : E-2 0B . ... : ... .. . ... : ... .. . ... : ... .. . ...
ROW 08 : ... .. . ... : ... .. . ... : ... .. . ... : ... .. . ... : D-3 00 . ...
ROW 09 : G-3 0B . ... : D-3 0B . ... : E-3 17 . ... : A-# 1B . ... : ... .. . ...
ROW 0A : ... .. . ... : ... .. . ... : ... .. . ... : ... .. . ... : ... .. . ...
ROW 0B : E-3 0B . ... : G-3 0B . ... : ... .. . ... : ... .. . ... : ... .. . ...
ROW 0C : ... .. . ... : ... .. . ... : ... .. . ... : ... .. . ... : ... .. . ...
ROW 0D : E-2 0B . ... : E-3 0B . ... : --- .. . ... : ... .. . ... : ... .. . ...
ROW 0E : ... .. . ... : ... .. . ... : ... .. . ... : ... .. . ... : ... .. . ...
ROW 0F : D-3 0B . ... : E-2 0B . ... : ... .. . ... : ... .. . ... : ... .. . ...
ROW 10 : ... .. . ... : ... .. . ... : ... .. . ... : ... .. . ... : C-3 00 . ...
ROW 11 : A-2 0B . ... : D-3 0B . ... : E-2 17 . ... : ... .. . ... : ... .. . ...
ROW 12 : ... .. . ... : ... .. . ... : ... .. . ... : ... .. . ... : ... .. . ...
ROW 13 : G-3 0B . ... : A-2 0B . ... : ... .. . ... : ... .. . ... : ... .. . ...
ROW 14 : ... .. . ... : ... .. . ... : ... .. . ... : ... .. . ... : ... .. . ...
ROW 15 : E-3 0B . ... : G-3 0B . ... : --- .. . ... : ... .. . ... : ... .. . ...
ROW 16 : ... .. . ... : ... .. . ... : ... .. . ... : ... .. . ... : ... .. . ...
ROW 17 : E-2 0B . ... : E-3 0B . ... : ... .. . ... : ... .. . ... : ... .. . ...
ROW 18 : ... .. . ... : ... .. . ... : ... .. . ... : ... .. . ... : D-3 00 . ...
ROW 19 : D-3 0B . ... : E-2 0B . ... : E-3 17 . ... : A-# 1B . ... : ... .. . ...
ROW 1A : ... .. . ... : ... .. . ... : ... .. . ... : ... .. . ... : ... .. . ...
ROW 1B : A-2 0B . ... : D-3 0B . ... : ... .. . ... : ... .. . ... : ... .. . ...
ROW 1C : ... .. . ... : ... .. . ... : ... .. . ... : ... .. . ... : ... .. . ...
ROW 1D : G-3 0B . ... : G-3 0B . ... : --- .. . ... : ... .. . ... : ... .. . ...
ROW 1E : ... .. . ... : ... .. . ... : ... .. . ... : ... .. . ... : ... .. . ...
ROW 1F : G-3 0B . ... : G-3 0B . ... : ... .. . ... : ... .. . ... : ... .. . ...
ROW 20 : ... .. . ... : ... .. . ... : ... .. . ... : ... .. . ... : C-3 00 . ...
ROW 21 : G-2 0B . ... : G-2 0B . ... : E-2 17 . ... : ... .. . ... : ... .. . ...
ROW 22 : ... .. . ... : ... .. . ... : ... .. . ... : ... .. . ... : ... .. . ...
ROW 23 : F-3 0B . ... : F-3 0B . ... : ... .. . ... : ... .. . ... : ... .. . ...
ROW 24 : ... .. . ... : ... .. . ... : ... .. . ... : ... .. . ... : ... .. . ...
ROW 25 : C-3 0B . ... : C-3 0B . ... : --- .. . ... : ... .. . ... : ... .. . ...
ROW 26 : ... .. . ... : ... .. . ... : ... .. . ... : ... .. . ... : ... .. . ...
ROW 27 : A#3 0B . ... : A#3 0B . ... : ... .. . ... : ... .. . ... : ... .. . ...
ROW 28 : ... .. . ... : ... .. . ... : ... .. . ... : ... .. . ... : D-3 00 . ...
ROW 29 : G-3 0B . ... : G-3 0B . ... : E-3 17 . ... : A-# 1B . ... : ... .. . ...
ROW 2A : ... .. . ... : ... .. . ... : ... .. . ... : ... .. . ... : ... .. . ...
ROW 2B : G-2 0B . ... : G-2 0B . ... : ... .. . ... : ... .. . ... : ... .. . ...
ROW 2C : ... .. . ... : ... .. . ... : ... .. . ... : ... .. . ... : ... .. . ...
ROW 2D : F-3 0B . ... : F-3 0B . ... : --- .. . ... : ... .. . ... : ... .. . ...
ROW 2E : ... .. . ... : ... .. . ... : ... .. . ... : ... .. . ... : ... .. . ...
ROW 2F : C-3 0B . ... : A#3 0B . ... : ... .. . ... : ... .. . ... : ... .. . ...
ROW 30 : ... .. . ... : ... .. . ... : ... .. . ... : ... .. . ... : C-3 00 . ...
ROW 31 : A#3 0B . ... : G-3 0B . ... : E-2 17 . ... : ... .. . ... : ... .. . ...
ROW 32 : ... .. . ... : ... .. . ... : ... .. . ... : ... .. . ... : ... .. . ...
ROW 33 : G-3 0B . ... : G-2 0B . ... : ... .. . ... : ... .. . ... : ... .. . ...
ROW 34 : ... .. . ... : ... .. . ... : ... .. . ... : ... .. . ... : ... .. . ...
ROW 35 : G-2 0B . ... : F-3 0B . ... : --- .. . ... : ... .. . ... : ... .. . ...
ROW 36 : ... .. . ... : ... .. . ... : ... .. . ... : ... .. . ... : ... .. . ...
ROW 37 : F-3 0B . ... : C-3 0B . ... : ... .. . ... : ... .. . ... : ... .. . ...
ROW 38 : ... .. . ... : ... .. . ... : ... .. . ... : ... .. . ... : D-3 00 . ...
ROW 39 : C-3 0B . ... : A#3 0B . ... : E-3 17 . ... : A-# 1B . ... : ... .. . ...
ROW 3A : ... .. . ... : ... .. . ... : ... .. . ... : ... .. . ... : ... .. . ...
ROW 3B : A#3 0B . ... : G-3 0B . ... : ... .. . ... : ... .. . ... : ... .. . ...
ROW 3C : ... .. . ... : ... .. . ... : ... .. . ... : ... .. . ... : ... .. . ...
ROW 3D : G-3 0B . ... : G-2 0B . ... : --- .. . ... : ... .. . ... : ... .. . ...
ROW 3E : ... .. . ... : ... .. . ... : ... .. . ... : ... .. . ... : ... .. . ...
ROW 3F : G-2 0B . ... : F-3 0B . ... : ... .. . ... : ... .. . ... : ... .. . ...
ROW 40 : ... .. . ... : ... .. . ... : ... .. . ... : ... .. . ... : C-3 00 . ...
ROW 41 : F-3 0B . ... : A#3 0B . ... : E-2 17 . ... : ... .. . ... : ... .. . ...
ROW 42 : ... .. . ... : ... .. . ... : ... .. . ... : ... .. . ... : ... .. . ...
ROW 43 : C-3 0B . ... : G-3 0B . ... : ... .. . ... : ... .. . ... : ... .. . ...
ROW 44 : ... .. . ... : ... .. . ... : ... .. . ... : ... .. . ... : ... .. . ...
ROW 45 : A#3 0B . ... : G-2 0B . ... : --- .. . ... : ... .. . ... : ... .. . ...
ROW 46 : ... .. . ... : ... .. . ... : ... .. . ... : ... .. . ... : ... .. . ...
ROW 47 : G-3 0B . ... : F-3 0B . ... : ... .. . ... : ... .. . ... : ... .. . ...
ROW 48 : ... .. . ... : ... .. . ... : ... .. . ... : ... .. . ... : D-3 00 . ...
ROW 49 : G-2 0B . ... : C-3 0B . ... : E-3 17 . ... : A-# 1B . ... : ... .. . ...
ROW 4A : ... .. . ... : ... .. . ... : ... .. . ... : ... .. . ... : ... .. . ...
ROW 4B : F-3 0B . ... : A#3 0B . ... : ... .. . ... : ... .. . ... : ... .. . ...
ROW 4C : ... .. . ... : ... .. . ... : ... .. . ... : ... .. . ... : ... .. . ...
ROW 4D : C-3 0B . ... : G-3 0B . ... : --- .. . ... : ... .. . ... : ... .. . ...
ROW 4E : ... .. . ... : ... .. . ... : ... .. . ... : ... .. . ... : ... .. . ...
ROW 4F : A#3 0B . ... : G-2 0B . ... : ... .. . ... : ... .. . ... : ... .. . ...
ROW 50 : ... .. . ... : ... .. . ... : ... .. . ... : ... .. . ... : D-3 00 . ...
ROW 51 : G-3 0B . ... : F-3 0B . ... : D-3 17 . ... : A-# 1B . ... : ... .. . ...
ROW 52 : ... .. . ... : ... .. . ... : ... .. . ... : ... .. . ... : E-3 00 . W09
ROW 53 : G-2 0B . ... : A#3 0B . ... : A-2 17 . ... : ... .. . ... : ... .. . ...
ROW 54 : ... .. . ... : ... .. . ... : ... .. . ... : ... .. . ... : D-3 00 . ...
ROW 55 : F-3 0B . ... : G-3 0B . ... : E-3 17 . ... : A-# 1B . ... : ... .. . ...
ROW 56 : ... .. . ... : ... .. . ... : ... .. . ... : ... .. . ... : D-3 00 . ...
ROW 57 : C-3 0B . ... : G-2 0B . ... : E-2 17 . ... : A-# 1B . ... : ... .. . ...

PATTERN 3E
ROW 00 : ... .. . ... : ... .. . ... : ... .. . ... : ... .. . ... : C-3 00 . ...
ROW 01 : A#3 0B . ... : F-3 0B . ... : G-2 17 . ... : ... .. . ... : ... .. . ...
ROW 02 : ... .. . ... : ... .. . ... : ... .. . ... : ... .. . ... : ... .. . ...
ROW 03 : G-3 0B . ... : C-3 0B . ... : ... .. . ... : ... .. . ... : ... .. . ...
ROW 04 : ... .. . ... : ... .. . ... : ... .. . ... : ... .. . ... : ... .. . ...
ROW 05 : G-2 0B . ... : A#3 0B . ... : --- .. . ... : ... .. . ... : ... .. . ...
ROW 06 : ... .. . ... : ... .. . ... : ... .. . ... : ... .. . ... : ... .. . ...
ROW 07 : F-3 0B . ... : G-3 0B . ... : ... .. . ... : ... .. . ... : ... .. . ...
ROW 08 : ... .. . ... : ... .. . ... : ... .. . ... : ... .. . ... : D-3 00 . ...
ROW 09 : C-3 0B . ... : G-2 0B . ... : G-3 17 . ... : A-# 1B . ... : ... .. . ...
ROW 0A : ... .. . ... : ... .. . ... : ... .. . ... : ... .. . ... : ... .. . ...
ROW 0B : A#3 0B . ... : F-3 0B . ... : ... .. . ... : ... .. . ... : ... .. . ...
ROW 0C : ... .. . ... : ... .. . ... : ... .. . ... : ... .. . ... : ... .. . ...
ROW 0D : G-3 0B . ... : A#3 0B . ... : --- .. . ... : ... .. . ... : ... .. . ...
ROW 0E : ... .. . ... : ... .. . ... : ... .. . ... : ... .. . ... : ... .. . ...
ROW 0F : G-2 0B . ... : G-3 0B . ... : ... .. . ... : ... .. . ... : ... .. . ...
ROW 10 : ... .. . ... : ... .. . ... : ... .. . ... : ... .. . ... : C-3 00 . ...
ROW 11 : F-3 0B . ... : G-2 0B . ... : G-2 17 . ... : ... .. . ... : ... .. . ...
ROW 12 : ... .. . ... : ... .. . ... : ... .. . ... : ... .. . ... : ... .. . ...
ROW 13 : C-3 0B . ... : F-3 0B . ... : ... .. . ... : ... .. . ... : ... .. . ...
ROW 14 : ... .. . ... : ... .. . ... : ... .. . ... : ... .. . ... : ... .. . ...
ROW 15 : A#3 0B . ... : C-3 0B . ... : --- .. . ... : ... .. . ... : ... .. . ...
ROW 16 : ... .. . ... : ... .. . ... : ... .. . ... : ... .. . ... : ... .. . ...
ROW 17 : G-3 0B . ... : A#3 0B . ... : ... .. . ... : ... .. . ... : ... .. . ...
ROW 18 : ... .. . ... : ... .. . ... : ... .. . ... : ... .. . ... : D-3 00 . ...
ROW 19 : G-2 0B . ... : G-3 0B . ... : G-3 17 . ... : A-# 1B . ... : ... .. . ...
ROW 1A : ... .. . ... : ... .. . ... : ... .. . ... : ... .. . ... : ... .. . ...
ROW 1B : F-3 0B . ... : G-2 0B . ... : ... .. . ... : ... .. . ... : ... .. . ...
ROW 1C : ... .. . ... : ... .. . ... : ... .. . ... : ... .. . ... : ... .. . ...
ROW 1D : C-3 0B . ... : F-3 0B . ... : --- .. . ... : ... .. . ... : ... .. . ...
ROW 1E : ... .. . ... : ... .. . ... : ... .. . ... : ... .. . ... : ... .. . ...
ROW 1F : A#3 0B . ... : A#3 0B . ... : ... .. . ... : ... .. . ... : ... .. . ...
ROW 20 : ... .. . ... : ... .. . ... : ... .. . ... : ... .. . ... : C-3 00 . ...
ROW 21 : E-3 0B . ... : E-3 0B . ... : G-2 17 . ... : ... .. . ... : ... .. . ...
ROW 22 : ... .. . ... : ... .. . ... : ... .. . ... : ... .. . ... : ... .. . ...
ROW 23 : E-2 0B . ... : E-2 0B . ... : ... .. . ... : ... .. . ... : ... .. . ...
ROW 24 : ... .. . ... : ... .. . ... : ... .. . ... : ... .. . ... : ... .. . ...
ROW 25 : D-3 0B . ... : D-3 0B . ... : --- .. . ... : ... .. . ... : ... .. . ...
ROW 26 : ... .. . ... : ... .. . ... : ... .. . ... : ... .. . ... : ... .. . ...
ROW 27 : A-2 0B . ... : A-2 0B . ... : ... .. . ... : ... .. . ... : ... .. . ...
ROW 28 : ... .. . ... : ... .. . ... : ... .. . ... : ... .. . ... : D-3 00 . ...
ROW 29 : G-3 0B . ... : G-3 0B . ... : G-3 17 . ... : A-# 1B . ... : ... .. . ...
ROW 2A : ... .. . ... : ... .. . ... : ... .. . ... : ... .. . ... : ... .. . ...
ROW 2B : E-3 0B . ... : E-3 0B . ... : ... .. . ... : ... .. . ... : ... .. . ...
ROW 2C : ... .. . ... : ... .. . ... : ... .. . ... : ... .. . ... : ... .. . ...
ROW 2D : E-2 0B . ... : E-2 0B . ... : --- .. . ... : ... .. . ... : ... .. . ...
ROW 2E : ... .. . ... : ... .. . ... : ... .. . ... : ... .. . ... : ... .. . ...
ROW 2F : D-3 0B . ... : D-3 0B . ... : ... .. . ... : ... .. . ... : ... .. . ...
ROW 30 : ... .. . ... : ... .. . ... : ... .. . ... : ... .. . ... : C-3 00 . ...
ROW 31 : A-2 0B . ... : G-3 0B . ... : G-2 17 . ... : ... .. . ... : ... .. . ...
ROW 32 : ... .. . ... : ... .. . ... : ... .. . ... : ... .. . ... : ... .. . ...
ROW 33 : G-3 0B . ... : E-3 0B . ... : ... .. . ... : ... .. . ... : ... .. . ...
ROW 34 : ... .. . ... : ... .. . ... : ... .. . ... : ... .. . ... : ... .. . ...
ROW 35 : E-3 0B . ... : E-2 0B . ... : --- .. . ... : ... .. . ... : ... .. . ...
ROW 36 : ... .. . ... : ... .. . ... : ... .. . ... : ... .. . ... : ... .. . ...
ROW 37 : E-2 0B . ... : D-3 0B . ... : ... .. . ... : ... .. . ... : ... .. . ...
ROW 38 : ... .. . ... : ... .. . ... : ... .. . ... : ... .. . ... : D-3 00 . ...
ROW 39 : D-3 0B . ... : A-2 0B . ... : G-3 17 . ... : A-# 1B . ... : ... .. . ...
ROW 3A : ... .. . ... : ... .. . ... : ... .. . ... : ... .. . ... : ... .. . ...
ROW 3B : A-2 0B . ... : G-3 0B . ... : ... .. . ... : ... .. . ... : ... .. . ...
ROW 3C : ... .. . ... : ... .. . ... : ... .. . ... : ... .. . ... : ... .. . ...
ROW 3D : G-3 0B . ... : E-3 0B . ... : --- .. . ... : ... .. . ... : ... .. . ...
ROW 3E : ... .. . ... : ... .. . ... : ... .. . ... : ... .. . ... : ... .. . ...
ROW 3F : E-3 0B . ... : E-2 0B . ... : ... .. . ... : ... .. . ... : ... .. . ...
ROW 40 : ... .. . ... : ... .. . ... : ... .. . ... : ... .. . ... : C-3 00 . ...
ROW 41 : E-2 0B . ... : D-3 0B . ... : G-2 17 . ... : ... .. . ... : ... .. . ...
ROW 42 : ... .. . ... : ... .. . ... : ... .. . ... : ... .. . ... : ... .. . ...
ROW 43 : D-3 0B . ... : G-3 0B . ... : ... .. . ... : ... .. . ... : ... .. . ...
ROW 44 : ... .. . ... : ... .. . ... : ... .. . ... : ... .. . ... : ... .. . ...
ROW 45 : A-2 0B . ... : E-3 0B . ... : --- .. . ... : ... .. . ... : ... .. . ...
ROW 46 : ... .. . ... : ... .. . ... : ... .. . ... : ... .. . ... : ... .. . ...
ROW 47 : G-3 0B . ... : E-2 0B . ... : ... .. . ... : ... .. . ... : ... .. . ...
ROW 48 : ... .. . ... : ... .. . ... : ... .. . ... : ... .. . ... : D-3 00 . ...
ROW 49 : E-3 0B . ... : D-3 0B . ... : G-3 17 . ... : A-# 1B . ... : ... .. . ...
ROW 4A : ... .. . ... : ... .. . ... : ... .. . ... : ... .. . ... : ... .. . ...
ROW 4B : E-2 0B . ... : A-2 0B . ... : ... .. . ... : ... .. . ... : ... .. . ...
ROW 4C : ... .. . ... : ... .. . ... : ... .. . ... : ... .. . ... : ... .. . ...
ROW 4D : D-3 0B . ... : G-3 0B . ... : --- .. . ... : ... .. . ... : ... .. . ...
ROW 4E : ... .. . ... : ... .. . ... : ... .. . ... : ... .. . ... : ... .. . ...
ROW 4F : A-2 0B . ... : E-3 0B . ... : ... .. . ... : ... .. . ... : ... .. . ...
ROW 50 : ... .. . ... : ... .. . ... : ... .. . ... : ... .. . ... : D-3 00 . ...
ROW 51 : G-3 0B . ... : E-2 0B . ... : F-3 17 . ... : A-# 1B . ... : ... .. . ...
ROW 52 : ... .. . ... : ... .. . ... : ... .. . ... : ... .. . ... : E-3 00 . W09
ROW 53 : E-3 0B . ... : D-3 0B . ... : C-3 17 . ... : ... .. . ... : ... .. . ...
ROW 54 : ... .. . ... : ... .. . ... : ... .. . ... : ... .. . ... : D-3 00 . ...
ROW 55 : E-2 0B . ... : G-3 0B . ... : G-3 17 . ... : A-# 1B . ... : ... .. . ...
ROW 56 : ... .. . ... : ... .. . ... : ... .. . ... : ... .. . ... : D-3 00 . ...
ROW 57 : D-3 0B . ... : E-3 0B . ... : G-2 17 . ... : A-# 1B . ... : ... .. . ...

PATTERN 3F
ROW 00 : ... .. . ... : ... .. . ... : ... .. . ... : ... .. . ... : C-3 00 . ...
ROW 01 : A-2 0B . ... : E-2 0B . ... : E-2 17 . ... : ... .. . ... : ... .. . ...
ROW 02 : ... .. . ... : ... .. . ... : ... .. . ... : ... .. . ... : ... .. . ...
ROW 03 : G-3 0B . ... : D-3 0B . ... : ... .. . ... : ... .. . ... : ... .. . ...
ROW 04 : ... .. . ... : ... .. . ... : ... .. . ... : ... .. . ... : ... .. . ...
ROW 05 : E-3 0B . ... : A-2 0B . ... : --- .. . ... : ... .. . ... : ... .. . ...
ROW 06 : ... .. . ... : ... .. . ... : ... .. . ... : ... .. . ... : ... .. . ...
ROW 07 : E-2 0B . ... : G-3 0B . ... : ... .. . ... : ... .. . ... : ... .. . ...
ROW 08 : ... .. . ... : ... .. . ... : ... .. . ... : ... .. . ... : D-3 00 . ...
ROW 09 : D-3 0B . ... : E-3 0B . ... : E-3 17 . ... : A-# 1B . ... : ... .. . ...
ROW 0A : ... .. . ... : ... .. . ... : ... .. . ... : ... .. . ... : ... .. . ...
ROW 0B : A-2 0B . ... : E-2 0B . ... : ... .. . ... : ... .. . ... : ... .. . ...
ROW 0C : ... .. . ... : ... .. . ... : ... .. . ... : ... .. . ... : ... .. . ...
ROW 0D : G-3 0B . ... : D-3 0B . ... : --- .. . ... : ... .. . ... : ... .. . ...
ROW 0E : ... .. . ... : ... .. . ... : ... .. . ... : ... .. . ... : ... .. . ...
ROW 0F : E-3 0B . ... : G-3 0B . ... : ... .. . ... : ... .. . ... : ... .. . ...
ROW 10 : ... .. . ... : ... .. . ... : ... .. . ... : ... .. . ... : C-3 00 . ...
ROW 11 : E-2 0B . ... : E-3 0B . ... : E-2 17 . ... : ... .. . ... : ... .. . ...
ROW 12 : ... .. . ... : ... .. . ... : ... .. . ... : ... .. . ... : ... .. . ...
ROW 13 : D-3 0B . ... : E-2 0B . ... : ... .. . ... : ... .. . ... : ... .. . ...
ROW 14 : ... .. . ... : ... .. . ... : ... .. . ... : ... .. . ... : ... .. . ...
ROW 15 : A-2 0B . ... : D-3 0B . ... : --- .. . ... : ... .. . ... : ... .. . ...
ROW 16 : ... .. . ... : ... .. . ... : ... .. . ... : ... .. . ... : ... .. . ...
ROW 17 : G-3 0B . ... : A-2 0B . ... : ... .. . ... : ... .. . ... : ... .. . ...
ROW 18 : ... .. . ... : ... .. . ... : ... .. . ... : ... .. . ... : D-3 00 . ...
ROW 19 : E-3 0B . ... : G-3 0B . ... : E-3 17 . ... : A-# 1B . ... : ... .. . ...
ROW 1A : ... .. . ... : ... .. . ... : ... .. . ... : ... .. . ... : ... .. . ...
ROW 1B : E-2 0B . ... : E-3 0B . ... : ... .. . ... : ... .. . ... : ... .. . ...
ROW 1C : ... .. . ... : ... .. . ... : ... .. . ... : ... .. . ... : ... .. . ...
ROW 1D : D-3 0B . ... : E-2 0B . ... : --- .. . ... : ... .. . ... : ... .. . ...
ROW 1E : ... .. . ... : ... .. . ... : ... .. . ... : ... .. . ... : ... .. . ...
ROW 1F : A-2 0B . ... : D-3 0B . ... : ... .. . ... : ... .. . ... : ... .. . ...
ROW 20 : ... .. . ... : ... .. . ... : ... .. . ... : ... .. . ... : C-3 00 . ...
ROW 21 : G-3 0B . ... : G-3 0B . ... : E-2 17 . ... : ... .. . ... : ... .. . ...
ROW 22 : ... .. . ... : ... .. . ... : ... .. . ... : ... .. . ... : ... .. . ...
ROW 23 : G-3 0B . ... : G-3 0B . ... : ... .. . ... : ... .. . ... : ... .. . ...
ROW 24 : ... .. . ... : ... .. . ... : ... .. . ... : ... .. . ... : ... .. . ...
ROW 25 : G-2 0B . ... : G-2 0B . ... : --- .. . ... : ... .. . ... : ... .. . ...
ROW 26 : ... .. . ... : ... .. . ... : ... .. . ... : ... .. . ... : ... .. . ...
ROW 27 : F-3 0B . ... : F-3 0B . ... : ... .. . ... : ... .. . ... : ... .. . ...
ROW 28 : ... .. . ... : ... .. . ... : ... .. . ... : ... .. . ... : D-3 00 . ...
ROW 29 : C-3 0B . ... : C-3 0B . ... : E-3 17 . ... : A-# 1B . ... : ... .. . ...
ROW 2A : ... .. . ... : ... .. . ... : ... .. . ... : ... .. . ... : ... .. . ...
ROW 2B : A#3 0B . ... : A#3 0B . ... : ... .. . ... : ... .. . ... : ... .. . ...
ROW 2C : ... .. . ... : ... .. . ... : ... .. . ... : ... .. . ... : ... .. . ...
ROW 2D : G-3 0B . ... : G-3 0B . ... : --- .. . ... : ... .. . ... : ... .. . ...
ROW 2E : ... .. . ... : ... .. . ... : ... .. . ... : ... .. . ... : ... .. . ...
ROW 2F : G-2 0B . ... : G-2 0B . ... : ... .. . ... : ... .. . ... : ... .. . ...
ROW 30 : ... .. . ... : ... .. . ... : ... .. . ... : ... .. . ... : C-3 00 . ...
ROW 31 : F-3 0B . ... : F-3 0B . ... : E-2 17 . ... : ... .. . ... : ... .. . ...
ROW 32 : ... .. . ... : ... .. . ... : ... .. . ... : ... .. . ... : ... .. . ...
ROW 33 : C-3 0B . ... : A#3 0B . ... : ... .. . ... : ... .. . ... : ... .. . ...
ROW 34 : ... .. . ... : ... .. . ... : ... .. . ... : ... .. . ... : ... .. . ...
ROW 35 : A#3 0B . ... : G-3 0B . ... : --- .. . ... : ... .. . ... : ... .. . ...
ROW 36 : ... .. . ... : ... .. . ... : ... .. . ... : ... .. . ... : ... .. . ...
ROW 37 : G-3 0B . ... : G-2 0B . ... : ... .. . ... : ... .. . ... : ... .. . ...
ROW 38 : ... .. . ... : ... .. . ... : ... .. . ... : ... .. . ... : D-3 00 . ...
ROW 39 : G-2 0B . ... : F-3 0B . ... : E-3 17 . ... : A-# 1B . ... : ... .. . ...
ROW 3A : ... .. . ... : ... .. . ... : ... .. . ... : ... .. . ... : ... .. . ...
ROW 3B : F-3 0B . ... : C-3 0B . ... : ... .. . ... : ... .. . ... : ... .. . ...
ROW 3C : ... .. . ... : ... .. . ... : ... .. . ... : ... .. . ... : ... .. . ...
ROW 3D : C-3 0B . ... : A#3 0B . ... : --- .. . ... : ... .. . ... : ... .. . ...
ROW 3E : ... .. . ... : ... .. . ... : ... .. . ... : ... .. . ... : ... .. . ...
ROW 3F : A#3 0B . ... : G-3 0B . ... : ... .. . ... : ... .. . ... : ... .. . ...
ROW 40 : ... .. . ... : ... .. . ... : ... .. . ... : ... .. . ... : C-3 00 . ...
ROW 41 : G-3 0B . ... : G-2 0B . ... : E-2 17 . ... : ... .. . ... : ... .. . ...
ROW 42 : ... .. . ... : ... .. . ... : ... .. . ... : ... .. . ... : ... .. . ...
ROW 43 : G-2 0B . ... : F-3 0B . ... : ... .. . ... : ... .. . ... : ... .. . ...
ROW 44 : ... .. . ... : ... .. . ... : ... .. . ... : ... .. . ... : ... .. . ...
ROW 45 : F-3 0B . ... : A#3 0B . ... : --- .. . ... : ... .. . ... : ... .. . ...
ROW 46 : ... .. . ... : ... .. . ... : ... .. . ... : ... .. . ... : ... .. . ...
ROW 47 : C-3 0B . ... : G-3 0B . ... : ... .. . ... : ... .. . ... : ... .. . ...
ROW 48 : ... .. . ... : ... .. . ... : ... .. . ... : ... .. . ... : D-3 00 . ...
ROW 49 : A#3 0B . ... : G-2 0B . ... : E-3 17 . ... : A-# 1B . ... : ... .. . ...
ROW 4A : ... .. . ... : ... .. . ... : ... .. . ... : ... .. . ... : ... .. . ...
ROW 4B : G-3 0B . ... : F-3 0B . ... : ... .. . ... : ... .. . ... : ... .. . ...
ROW 4C : ... .. . ... : ... .. . ... : ... .. . ... : ... .. . ... : ... .. . ...
ROW 4D : G-2 0B . ... : C-3 0B . ... : --- .. . ... : ... .. . ... : ... .. . ...
ROW 4E : ... .. . ... : ... .. . ... : ... .. . ... : ... .. . ... : ... .. . ...
ROW 4F : F-3 0B . ... : A#3 0B . ... : ... .. . ... : ... .. . ... : ... .. . ...
ROW 50 : ... .. . ... : ... .. . ... : ... .. . ... : ... .. . ... : D-3 00 . ...
ROW 51 : C-3 0B . ... : G-3 0B . ... : D-3 17 . ... : A-# 1B . ... : ... .. . ...
ROW 52 : ... .. . ... : ... .. . ... : ... .. . ... : ... .. . ... : E-3 00 . W09
ROW 53 : A#3 0B . ... : G-2 0B . ... : A-2 17 . ... : ... .. . ... : ... .. . ...
ROW 54 : ... .. . ... : ... .. . ... : ... .. . ... : ... .. . ... : D-3 00 . ...
ROW 55 : G-3 0B . ... : F-3 0B . ... : E-3 17 . ... : A-# 1B . ... : ... .. . ...
ROW 56 : ... .. . ... : ... .. . ... : ... .. . ... : ... .. . ... : D-3 00 . ...
ROW 57 : G-2 0B . ... : A#3 0B . ... : E-2 17 . ... : A-# 1B . ... : ... .. . ...

PATTERN 40
ROW 00 : ... .. . ... : ... .. . ... : ... .. . ... : ... .. . ... : C-3 00 . ...
ROW 01 : F-3 0B . ... : G-3 0B . ... : G-2 17 . ... : ... .. . ... : ... .. . ...
ROW 02 : ... .. . ... : ... .. . ... : ... .. . ... : ... .. . ... : ... .. . ...
ROW 03 : C-3 0B . ... : G-2 0B . ... : ... .. . ... : ... .. . ... : ... .. . ...
ROW 04 : ... .. . ... : ... .. . ... : ... .. . ... : ... .. . ... : ... .. . ...
ROW 05 : A#3 0B . ... : F-3 0B . ... : --- .. . ... : ... .. . ... : ... .. . ...
ROW 06 : ... .. . ... : ... .. . ... : ... .. . ... : ... .. . ... : ... .. . ...
ROW 07 : G-3 0B . ... : C-3 0B . ... : ... .. . ... : ... .. . ... : ... .. . ...
ROW 08 : ... .. . ... : ... .. . ... : ... .. . ... : ... .. . ... : D-3 00 . ...
ROW 09 : G-2 0B . ... : A#3 0B . ... : G-3 17 . ... : A-# 1B . ... : ... .. . ...
ROW 0A : ... .. . ... : ... .. . ... : ... .. . ... : ... .. . ... : ... .. . ...
ROW 0B : F-3 0B . ... : G-3 0B . ... : ... .. . ... : ... .. . ... : ... .. . ...
ROW 0C : ... .. . ... : ... .. . ... : ... .. . ... : ... .. . ... : ... .. . ...
ROW 0D : C-3 0B . ... : G-2 0B . ... : --- .. . ... : ... .. . ... : ... .. . ...
ROW 0E : ... .. . ... : ... .. . ... : ... .. . ... : ... .. . ... : ... .. . ...
ROW 0F : A#3 0B . ... : F-3 0B . ... : ... .. . ... : ... .. . ... : ... .. . ...
ROW 10 : ... .. . ... : ... .. . ... : ... .. . ... : ... .. . ... : C-3 00 . ...
ROW 11 : G-3 0B . ... : A#3 0B . ... : G-2 17 . ... : ... .. . ... : ... .. . ...
ROW 12 : ... .. . ... : ... .. . ... : ... .. . ... : ... .. . ... : ... .. . ...
ROW 13 : G-2 0B . ... : G-3 0B . ... : ... .. . ... : ... .. . ... : ... .. . ...
ROW 14 : ... .. . ... : ... .. . ... : ... .. . ... : ... .. . ... : ... .. . ...
ROW 15 : F-3 0B . ... : G-2 0B . ... : --- .. . ... : ... .. . ... : ... .. . ...
ROW 16 : ... .. . ... : ... .. . ... : ... .. . ... : ... .. . ... : ... .. . ...
ROW 17 : C-3 0B . ... : F-3 0B . ... : ... .. . ... : ... .. . ... : ... .. . ...
ROW 18 : ... .. . ... : ... .. . ... : ... .. . ... : ... .. . ... : D-3 00 . ...
ROW 19 : A#3 0B . ... : C-3 0B . ... : G-3 17 . ... : A-# 1B . ... : ... .. . ...
ROW 1A : ... .. . ... : ... .. . ... : ... .. . ... : ... .. . ... : ... .. . ...
ROW 1B : G-3 0B . ... : A#3 0B . ... : ... .. . ... : ... .. . ... : ... .. . ...
ROW 1C : ... .. . ... : ... .. . ... : ... .. . ... : ... .. . ... : ... .. . ...
ROW 1D : G-2 0B . ... : G-3 0B . ... : --- .. . ... : ... .. . ... : ... .. . ...
ROW 1E : ... .. . ... : ... .. . ... : ... .. . ... : ... .. . ... : ... .. . ...
ROW 1F : F-3 0B . ... : G-2 0B . ... : ... .. . ... : ... .. . ... : ... .. . ...
ROW 20 : ... .. . ... : ... .. . ... : ... .. . ... : ... .. . ... : C-3 00 . ...
ROW 21 : C-3 0B . ... : F-3 0B . ... : G-2 17 . ... : ... .. . ... : ... .. . ...
ROW 22 : ... .. . ... : ... .. . ... : ... .. . ... : ... .. . ... : ... .. . ...
ROW 23 : A#3 0B . ... : A#3 0B . ... : ... .. . ... : ... .. . ... : ... .. . ...
ROW 24 : ... .. . ... : ... .. . ... : ... .. . ... : ... .. . ... : ... .. . ...
ROW 25 : E-3 0B . ... : E-3 0B . ... : --- .. . ... : ... .. . ... : ... .. . ...
ROW 26 : ... .. . ... : ... .. . ... : ... .. . ... : ... .. . ... : ... .. . ...
ROW 27 : E-2 0B . ... : E-2 0B . ... : ... .. . ... : ... .. . ... : ... .. . ...
ROW 28 : ... .. . ... : ... .. . ... : ... .. . ... : ... .. . ... : D-3 00 . ...
ROW 29 : D-3 0B . ... : D-3 0B . ... : G-3 17 . ... : A-# 1B . ... : ... .. . ...
ROW 2A : ... .. . ... : ... .. . ... : ... .. . ... : ... .. . ... : ... .. . ...
ROW 2B : A-2 0B . ... : A-2 0B . ... : ... .. . ... : ... .. . ... : ... .. . ...
ROW 2C : ... .. . ... : ... .. . ... : ... .. . ... : ... .. . ... : ... .. . ...
ROW 2D : G-3 0B . ... : G-3 0B . ... : --- .. . ... : ... .. . ... : ... .. . ...
ROW 2E : ... .. . ... : ... .. . ... : ... .. . ... : ... .. . ... : ... .. . ...
ROW 2F : E-3 0B . ... : E-3 0B . ... : ... .. . ... : ... .. . ... : ... .. . ...
ROW 30 : ... .. . ... : ... .. . ... : ... .. . ... : ... .. . ... : C-3 00 . ...
ROW 31 : E-2 0B . ... : E-2 0B . ... : G-2 17 . ... : ... .. . ... : ... .. . ...
ROW 32 : ... .. . ... : ... .. . ... : ... .. . ... : ... .. . ... : ... .. . ...
ROW 33 : D-3 0B . ... : D-3 0B . ... : ... .. . ... : ... .. . ... : ... .. . ...
ROW 34 : ... .. . ... : ... .. . ... : ... .. . ... : ... .. . ... : ... .. . ...
ROW 35 : A-2 0B . ... : G-3 0B . ... : --- .. . ... : ... .. . ... : ... .. . ...
ROW 36 : ... .. . ... : ... .. . ... : ... .. . ... : ... .. . ... : ... .. . ...
ROW 37 : G-3 0B . ... : E-3 0B . ... : ... .. . ... : ... .. . ... : ... .. . ...
ROW 38 : ... .. . ... : ... .. . ... : ... .. . ... : ... .. . ... : D-3 00 . ...
ROW 39 : E-3 0B . ... : E-2 0B . ... : G-3 17 . ... : A-# 1B . ... : ... .. . ...
ROW 3A : ... .. . ... : ... .. . ... : ... .. . ... : ... .. . ... : ... .. . ...
ROW 3B : E-2 0B . ... : D-3 0B . ... : ... .. . ... : ... .. . ... : ... .. . ...
ROW 3C : ... .. . ... : ... .. . ... : ... .. . ... : ... .. . ... : ... .. . ...
ROW 3D : D-3 0B . ... : A-2 0B . ... : --- .. . ... : ... .. . ... : ... .. . ...
ROW 3E : ... .. . ... : ... .. . ... : ... .. . ... : ... .. . ... : ... .. . ...
ROW 3F : A-2 0B . ... : G-3 0B . ... : ... .. . ... : ... .. . ... : ... .. . ...
ROW 40 : ... .. . ... : ... .. . ... : ... .. . ... : ... .. . ... : C-3 00 . ...
ROW 41 : G-3 0B . ... : E-3 0B . ... : G-2 17 . ... : ... .. . ... : ... .. . ...
ROW 42 : ... .. . ... : ... .. . ... : ... .. . ... : ... .. . ... : ... .. . ...
ROW 43 : E-3 0B . ... : E-2 0B . ... : ... .. . ... : ... .. . ... : ... .. . ...
ROW 44 : ... .. . ... : ... .. . ... : ... .. . ... : ... .. . ... : ... .. . ...
ROW 45 : E-2 0B . ... : D-3 0B . ... : --- .. . ... : ... .. . ... : ... .. . ...
ROW 46 : ... .. . ... : ... .. . ... : ... .. . ... : ... .. . ... : ... .. . ...
ROW 47 : D-3 0B . ... : G-3 0B . ... : ... .. . ... : ... .. . ... : ... .. . ...
ROW 48 : ... .. . ... : ... .. . ... : ... .. . ... : ... .. . ... : D-3 00 . ...
ROW 49 : A-2 0B . ... : E-3 0B . ... : G-3 17 . ... : A-# 1B . ... : ... .. . ...
ROW 4A : ... .. . ... : ... .. . ... : ... .. . ... : ... .. . ... : ... .. . ...
ROW 4B : G-3 0B . ... : E-2 0B . ... : ... .. . ... : ... .. . ... : ... .. . ...
ROW 4C : ... .. . ... : ... .. . ... : ... .. . ... : ... .. . ... : ... .. . ...
ROW 4D : E-3 0B . ... : D-3 0B . ... : --- .. . ... : ... .. . ... : ... .. . ...
ROW 4E : ... .. . ... : ... .. . ... : ... .. . ... : ... .. . ... : ... .. . ...
ROW 4F : E-2 0B . ... : A-2 0B . ... : ... .. . ... : ... .. . ... : ... .. . ...
ROW 50 : ... .. . ... : ... .. . ... : ... .. . ... : ... .. . ... : D-3 00 . ...
ROW 51 : D-3 0B . ... : G-3 0B . ... : F-3 17 . ... : A-# 1B . ... : ... .. . ...
ROW 52 : ... .. . ... : ... .. . ... : ... .. . ... : ... .. . ... : E-3 00 . W09
ROW 53 : A-2 0B . ... : E-3 0B . ... : C-3 17 . ... : ... .. . ... : ... .. . ...
ROW 54 : ... .. . ... : ... .. . ... : ... .. . ... : ... .. . ... : D-3 00 . ...
ROW 55 : G-3 0B . ... : E-2 0B . ... : G-3 17 . ... : A-# 1B . ... : ... .. . ...
ROW 56 : ... .. . ... : ... .. . ... : ... .. . ... : ... .. . ... : D-3 00 . ...
ROW 57 : E-3 0B . ... : D-3 0B . ... : G-2 17 . ... : A-# 1B . ... : ... .. . ...

PATTERN 41
ROW 00 : ... .. . ... : ... .. . ... : ... .. . ... : ... .. . ... : C-3 00 . ...
ROW 01 : E-2 0B . ... : G-3 0B . ... : E-2 17 . ... : ... .. . ... : ... .. . ...
ROW 02 : ... .. . ... : ... .. . ... : ... .. . ... : ... .. . ... : ... .. . ...
ROW 03 : D-3 0B . ... : E-3 0B . ... : ... .. . ... : ... .. . ... : ... .. . ...
ROW 04 : ... .. . ... : ... .. . ... : ... .. . ... : ... .. . ... : ... .. . ...
ROW 05 : A-2 0B . ... : E-2 0B . ... : --- .. . ... : ... .. . ... : ... .. . ...
ROW 06 : ... .. . ... : ... .. . ... : ... .. . ... : ... .. . ... : ... .. . ...
ROW 07 : G-3 0B . ... : D-3 0B . ... : ... .. . ... : ... .. . ... : ... .. . ...
ROW 08 : ... .. . ... : ... .. . ... : ... .. . ... : ... .. . ... : D-3 00 . ...
ROW 09 : E-3 0B . ... : A-2 0B . ... : E-3 17 . ... : A-# 1B . ... : ... .. . ...
ROW 0A : ... .. . ... : ... .. . ... : ... .. . ... : ... .. . ... : ... .. . ...
ROW 0B : E-2 0B . ... : G-3 0B . ... : ... .. . ... : ... .. . ... : ... .. . ...
ROW 0C : ... .. . ... : ... .. . ... : ... .. . ... : ... .. . ... : ... .. . ...
ROW 0D : D-3 0B . ... : E-3 0B . ... : --- .. . ... : ... .. . ... : ... .. . ...
ROW 0E : ... .. . ... : ... .. . ... : ... .. . ... : ... .. . ... : ... .. . ...
ROW 0F : A-2 0B . ... : E-2 0B . ... : ... .. . ... : ... .. . ... : ... .. . ...
ROW 10 : ... .. . ... : ... .. . ... : ... .. . ... : ... .. . ... : C-3 00 . ...
ROW 11 : G-3 0B . ... : D-3 0B . ... : E-2 17 . ... : ... .. . ... : ... .. . ...
ROW 12 : ... .. . ... : ... .. . ... : ... .. . ... : ... .. . ... : ... .. . ...
ROW 13 : E-3 0B . ... : G-3 0B . ... : ... .. . ... : ... .. . ... : ... .. . ...
ROW 14 : ... .. . ... : ... .. . ... : ... .. . ... : ... .. . ... : ... .. . ...
ROW 15 : E-2 0B . ... : E-3 0B . ... : --- .. . ... : ... .. . ... : ... .. . ...
ROW 16 : ... .. . ... : ... .. . ... : ... .. . ... : ... .. . ... : ... .. . ...
ROW 17 : D-3 0B . ... : E-2 0B . ... : ... .. . ... : ... .. . ... : ... .. . ...
ROW 18 : ... .. . ... : ... .. . ... : ... .. . ... : ... .. . ... : D-3 00 . ...
ROW 19 : A-2 0B . ... : D-3 0B . ... : E-3 17 . ... : A-# 1B . ... : ... .. . ...
ROW 1A : ... .. . ... : ... .. . ... : ... .. . ... : ... .. . ... : ... .. . ...
ROW 1B : G-3 0B . ... : A-2 0B . ... : ... .. . ... : ... .. . ... : ... .. . ...
ROW 1C : ... .. . ... : ... .. . ... : ... .. . ... : ... .. . ... : ... .. . ...
ROW 1D : E-3 0B . ... : G-3 0B . ... : --- .. . ... : ... .. . ... : ... .. . ...
ROW 1E : ... .. . ... : ... .. . ... : ... .. . ... : ... .. . ... : ... .. . ...
ROW 1F : E-2 0B . ... : E-3 0B . ... : ... .. . ... : ... .. . ... : ... .. . ...
ROW 20 : ... .. . ... : ... .. . ... : ... .. . ... : ... .. . ... : C-3 00 . ...
ROW 21 : D-3 0B . ... : E-2 0B . ... : E-2 17 . ... : ... .. . ... : ... .. . ...
ROW 22 : ... .. . ... : ... .. . ... : ... .. . ... : ... .. . ... : ... .. . ...
ROW 23 : A-2 0B . ... : D-3 0B . ... : ... .. . ... : ... .. . ... : ... .. . ...
ROW 24 : ... .. . ... : ... .. . ... : ... .. . ... : ... .. . ... : ... .. . ...
ROW 25 : G-3 0B . ... : G-3 0B . ... : --- .. . ... : ... .. . ... : ... .. . ...
ROW 26 : ... .. . ... : ... .. . ... : ... .. . ... : ... .. . ... : ... .. . ...
ROW 27 : G-3 0B . ... : G-3 0B . ... : ... .. . ... : ... .. . ... : ... .. . ...
ROW 28 : ... .. . ... : ... .. . ... : ... .. . ... : ... .. . ... : D-3 00 . ...
ROW 29 : G-2 0B . ... : G-2 0B . ... : E-3 17 . ... : A-# 1B . ... : ... .. . ...
ROW 2A : ... .. . ... : ... .. . ... : ... .. . ... : ... .. . ... : ... .. . ...
ROW 2B : F-3 0B . ... : F-3 0B . ... : ... .. . ... : ... .. . ... : ... .. . ...
ROW 2C : ... .. . ... : ... .. . ... : ... .. . ... : ... .. . ... : ... .. . ...
ROW 2D : C-3 0B . ... : C-3 0B . ... : --- .. . ... : ... .. . ... : ... .. . ...
ROW 2E : ... .. . ... : ... .. . ... : ... .. . ... : ... .. . ... : ... .. . ...
ROW 2F : A#3 0B . ... : A#3 0B . ... : ... .. . ... : ... .. . ... : ... .. . ...
ROW 30 : ... .. . ... : ... .. . ... : ... .. . ... : ... .. . ... : C-3 00 . ...
ROW 31 : G-3 0B . ... : G-3 0B . ... : E-2 17 . ... : ... .. . ... : ... .. . ...
ROW 32 : ... .. . ... : ... .. . ... : ... .. . ... : ... .. . ... : ... .. . ...
ROW 33 : G-2 0B . ... : G-2 0B . ... : ... .. . ... : ... .. . ... : ... .. . ...
ROW 34 : ... .. . ... : ... .. . ... : ... .. . ... : ... .. . ... : ... .. . ...
ROW 35 : F-3 0B . ... : F-3 0B . ... : --- .. . ... : ... .. . ... : ... .. . ...
ROW 36 : ... .. . ... : ... .. . ... : ... .. . ... : ... .. . ... : ... .. . ...
ROW 37 : C-3 0B . ... : A#3 0B . ... : ... .. . ... : ... .. . ... : ... .. . ...
ROW 38 : ... .. . ... : ... .. . ... : ... .. . ... : ... .. . ... : D-3 00 . ...
ROW 39 : A#3 0B . ... : G-3 0B . ... : E-3 17 . ... : A-# 1B . ... : ... .. . ...
ROW 3A : ... .. . ... : ... .. . ... : ... .. . ... : ... .. . ... : ... .. . ...
ROW 3B : G-3 0B . ... : G-2 0B . ... : ... .. . ... : ... .. . ... : ... .. . ...
ROW 3C : ... .. . ... : ... .. . ... : ... .. . ... : ... .. . ... : ... .. . ...
ROW 3D : G-2 0B . ... : F-3 0B . ... : --- .. . ... : ... .. . ... : ... .. . ...
ROW 3E : ... .. . ... : ... .. . ... : ... .. . ... : ... .. . ... : ... .. . ...
ROW 3F : F-3 0B . ... : C-3 0B . ... : ... .. . ... : ... .. . ... : ... .. . ...
ROW 40 : ... .. . ... : ... .. . ... : ... .. . ... : ... .. . ... : C-3 00 . ...
ROW 41 : C-3 0B . ... : A#3 0B . ... : E-2 17 . ... : ... .. . ... : ... .. . ...
ROW 42 : ... .. . ... : ... .. . ... : ... .. . ... : ... .. . ... : ... .. . ...
ROW 43 : A#3 0B . ... : G-3 0B . ... : ... .. . ... : ... .. . ... : ... .. . ...
ROW 44 : ... .. . ... : ... .. . ... : ... .. . ... : ... .. . ... : ... .. . ...
ROW 45 : G-3 0B . ... : G-2 0B . ... : --- .. . ... : ... .. . ... : ... .. . ...
ROW 46 : ... .. . ... : ... .. . ... : ... .. . ... : ... .. . ... : ... .. . ...
ROW 47 : G-2 0B . ... : F-3 0B . ... : ... .. . ... : ... .. . ... : ... .. . ...
ROW 48 : ... .. . ... : ... .. . ... : ... .. . ... : ... .. . ... : D-3 00 . ...
ROW 49 : F-3 0B . ... : A#3 0B . ... : E-3 17 . ... : A-# 1B . ... : ... .. . ...
ROW 4A : ... .. . ... : ... .. . ... : ... .. . ... : ... .. . ... : ... .. . ...
ROW 4B : C-3 0B . ... : G-3 0B . ... : ... .. . ... : ... .. . ... : ... .. . ...
ROW 4C : ... .. . ... : ... .. . ... : ... .. . ... : ... .. . ... : ... .. . ...
ROW 4D : A#3 0B . ... : G-2 0B . ... : --- .. . ... : ... .. . ... : ... .. . ...
ROW 4E : ... .. . ... : ... .. . ... : ... .. . ... : ... .. . ... : ... .. . ...
ROW 4F : G-3 0B . ... : F-3 0B . ... : ... .. . ... : ... .. . ... : ... .. . ...
ROW 50 : ... .. . ... : ... .. . ... : ... .. . ... : ... .. . ... : D-3 00 . ...
ROW 51 : G-2 0B . ... : C-3 0B . ... : D-3 17 . ... : A-# 1B . ... : ... .. . ...
ROW 52 : ... .. . ... : ... .. . ... : ... .. . ... : ... .. . ... : E-3 00 . W09
ROW 53 : F-3 0B . ... : A#3 0B . ... : A-2 17 . ... : ... .. . ... : ... .. . ...
ROW 54 : ... .. . ... : ... .. . ... : ... .. . ... : ... .. . ... : D-3 00 . ...
ROW 55 : C-3 0B . ... : G-3 0B . ... : E-3 17 . ... : A-# 1B . ... : ... .. . ...
ROW 56 : ... .. . ... : ... .. . ... : ... .. . ... : ... .. . ... : D-3 00 . ...
ROW 57 : A#3 0B . ... : G-2 0B . ... : E-2 17 . ... : A-# 1B . ... : ... .. . ...

PATTERN 42
ROW 00 : ... .. . ... : ... .. . ... : ... .. . ... : ... .. . ... : C-3 00 . ...
ROW 01 : G-3 0B . ... : F-3 0B . ... : G-2 17 . ... : ... .. . ... : ... .. . ...
ROW 02 : ... .. . ... : ... .. . ... : ... .. . ... : ... .. . ... : ... .. . ...
ROW 03 : G-2 0B . ... : A#3 0B . ... : ... .. . ... : ... .. . ... : ... .. . ...
ROW 04 : ... .. . ... : ... .. . ... : ... .. . ... : ... .. . ... : ... .. . ...
ROW 05 : F-3 0B . ... : G-3 0B . ... : --- .. . ... : ... .. . ... : ... .. . ...
ROW 06 : ... .. . ... : ... .. . ... : ... .. . ... : ... .. . ... : ... .. . ...
ROW 07 : C-3 0B . ... : G-2 0B . ... : ... .. . ... : ... .. . ... : ... .. . ...
ROW 08 : ... .. . ... : ... .. . ... : ... .. . ... : ... .. . ... : D-3 00 . ...
ROW 09 : A#3 0B . ... : F-3 0B . ... : G-3 17 . ... : A-# 1B . ... : ... .. . ...
ROW 0A : ... .. . ... : ... .. . ... : ... .. . ... : ... .. . ... : ... .. . ...
ROW 0B : G-3 0B . ... : C-3 0B . ... : ... .. . ... : ... .. . ... : ... .. . ...
ROW 0C : ... .. . ... : ... .. . ... : ... .. . ... : ... .. . ... : ... .. . ...
ROW 0D : G-2 0B . ... : A#3 0B . ... : --- .. . ... : ... .. . ... : ... .. . ...
ROW 0E : ... .. . ... : ... .. . ... : ... .. . ... : ... .. . ... : ... .. . ...
ROW 0F : F-3 0B . ... : G-3 0B . ... : ... .. . ... : ... .. . ... : ... .. . ...
ROW 10 : ... .. . ... : ... .. . ... : ... .. . ... : ... .. . ... : C-3 00 . ...
ROW 11 : C-3 0B . ... : G-2 0B . ... : G-2 17 . ... : ... .. . ... : ... .. . ...
ROW 12 : ... .. . ... : ... .. . ... : ... .. . ... : ... .. . ... : ... .. . ...
ROW 13 : A#3 0B . ... : F-3 0B . ... : ... .. . ... : ... .. . ... : ... .. . ...
ROW 14 : ... .. . ... : ... .. . ... : ... .. . ... : ... .. . ... : ... .. . ...
ROW 15 : G-3 0B . ... : A#3 0B . ... : --- .. . ... : ... .. . ... : ... .. . ...
ROW 16 : ... .. . ... : ... .. . ... : ... .. . ... : ... .. . ... : ... .. . ...
ROW 17 : G-2 0B . ... : G-3 0B . ... : ... .. . ... : ... .. . ... : ... .. . ...
ROW 18 : ... .. . ... : ... .. . ... : ... .. . ... : ... .. . ... : D-3 00 . ...
ROW 19 : F-3 0B . ... : G-2 0B . ... : G-3 17 . ... : A-# 1B . ... : ... .. . ...
ROW 1A : ... .. . ... : ... .. . ... : ... .. . ... : ... .. . ... : ... .. . ...
ROW 1B : C-3 0B . ... : F-3 0B . ... : ... .. . ... : ... .. . ... : ... .. . ...
ROW 1C : ... .. . ... : ... .. . ... : ... .. . ... : ... .. . ... : ... .. . ...
ROW 1D : A#3 0B . ... : C-3 0B . ... : --- .. . ... : ... .. . ... : ... .. . ...
ROW 1E : ... .. . ... : ... .. . ... : ... .. . ... : ... .. . ... : ... .. . ...
ROW 1F : G-3 0B . ... : A#3 0B . ... : ... .. . ... : ... .. . ... : ... .. . ...
ROW 20 : ... .. . ... : ... .. . ... : ... .. . ... : ... .. . ... : C-3 00 . ...
ROW 21 : G-2 0B . ... : G-3 0B . ... : G-2 17 . ... : ... .. . ... : ... .. . ...
ROW 22 : ... .. . ... : ... .. . ... : ... .. . ... : ... .. . ... : ... .. . ...
ROW 23 : F-3 0B . ... : G-2 0B . ... : ... .. . ... : ... .. . ... : ... .. . ...
ROW 24 : ... .. . ... : ... .. . ... : ... .. . ... : ... .. . ... : ... .. . ...
ROW 25 : C-3 0B . ... : F-3 0B . ... : --- .. . ... : ... .. . ... : ... .. . ...
ROW 26 : ... .. . ... : ... .. . ... : ... .. . ... : ... .. . ... : ... .. . ...
ROW 27 : A#3 0B . ... : A#3 0B . ... : ... .. . ... : ... .. . ... : ... .. . ...
ROW 28 : ... .. . ... : ... .. . ... : ... .. . ... : ... .. . ... : D-3 00 . ...
ROW 29 : E-3 0B . ... : E-3 0B . ... : G-3 17 . ... : A-# 1B . ... : ... .. . ...
ROW 2A : ... .. . ... : ... .. . ... : ... .. . ... : ... .. . ... : ... .. . ...
ROW 2B : E-2 0B . ... : E-2 0B . ... : ... .. . ... : ... .. . ... : ... .. . ...
ROW 2C : ... .. . ... : ... .. . ... : ... .. . ... : ... .. . ... : ... .. . ...
ROW 2D : D-3 0B . ... : D-3 0B . ... : --- .. . ... : ... .. . ... : ... .. . ...
ROW 2E : ... .. . ... : ... .. . ... : ... .. . ... : ... .. . ... : ... .. . ...
ROW 2F : A-2 0B . ... : A-2 0B . ... : ... .. . ... : ... .. . ... : ... .. . ...
ROW 30 : ... .. . ... : ... .. . ... : ... .. . ... : ... .. . ... : C-3 00 . ...
ROW 31 : G-3 0B . ... : G-3 0B . ... : G-2 17 . ... : ... .. . ... : ... .. . ...
ROW 32 : ... .. . ... : ... .. . ... : ... .. . ... : ... .. . ... : ... .. . ...
ROW 33 : E-3 0B . ... : E-3 0B . ... : ... .. . ... : ... .. . ... : ... .. . ...
ROW 34 : ... .. . ... : ... .. . ... : ... .. . ... : ... .. . ... : ... .. . ...
ROW 35 : E-2 0B . ... : E-2 0B . ... : --- .. . ... : ... .. . ... : ... .. . ...
ROW 36 : ... .. . ... : ... .. . ... : ... .. . ... : ... .. . ... : ... .. . ...
ROW 37 : D-3 0B . ... : D-3 0B . ... : ... .. . ... : ... .. . ... : ... .. . ...
ROW 38 : ... .. . ... : ... .. . ... : ... .. . ... : ... .. . ... : D-3 00 . ...
ROW 39 : A-2 0B . ... : G-3 0B . ... : G-3 17 . ... : A-# 1B . ... : ... .. . ...
ROW 3A : ... .. . ... : ... .. . ... : ... .. . ... : ... .. . ... : ... .. . ...
ROW 3B : G-3 0B . ... : E-3 0B . ... : ... .. . ... : ... .. . ... : ... .. . ...
ROW 3C : ... .. . ... : ... .. . ... : ... .. . ... : ... .. . ... : ... .. . ...
ROW 3D : E-3 0B . ... : E-2 0B . ... : --- .. . ... : ... .. . ... : ... .. . ...
ROW 3E : ... .. . ... : ... .. . ... : ... .. . ... : ... .. . ... : ... .. . ...
ROW 3F : E-2 0B . ... : D-3 0B . ... : ... .. . ... : ... .. . ... : ... .. . ...
ROW 40 : ... .. . ... : ... .. . ... : ... .. . ... : ... .. . ... : C-3 00 . ...
ROW 41 : D-3 0B . ... : A-2 0B . ... : G-2 17 . ... : ... .. . ... : ... .. . ...
ROW 42 : ... .. . ... : ... .. . ... : ... .. . ... : ... .. . ... : ... .. . ...
ROW 43 : A-2 0B . ... : G-3 0B . ... : ... .. . ... : ... .. . ... : ... .. . ...
ROW 44 : ... .. . ... : ... .. . ... : ... .. . ... : ... .. . ... : ... .. . ...
ROW 45 : G-3 0B . ... : E-3 0B . ... : --- .. . ... : ... .. . ... : ... .. . ...
ROW 46 : ... .. . ... : ... .. . ... : ... .. . ... : ... .. . ... : ... .. . ...
ROW 47 : E-3 0B . ... : E-2 0B . ... : ... .. . ... : ... .. . ... : ... .. . ...
ROW 48 : ... .. . ... : ... .. . ... : ... .. . ... : ... .. . ... : D-3 00 . ...
ROW 49 : E-2 0B . ... : D-3 0B . ... : G-3 17 . ... : A-# 1B . ... : ... .. . ...
ROW 4A : ... .. . ... : ... .. . ... : ... .. . ... : ... .. . ... : ... .. . ...
ROW 4B : D-3 0B . ... : G-3 0B . ... : ... .. . ... : ... .. . ... : ... .. . ...
ROW 4C : ... .. . ... : ... .. . ... : ... .. . ... : ... .. . ... : ... .. . ...
ROW 4D : A-2 0B . ... : E-3 0B . ... : --- .. . ... : ... .. . ... : ... .. . ...
ROW 4E : ... .. . ... : ... .. . ... : ... .. . ... : ... .. . ... : ... .. . ...
ROW 4F : G-3 0B . ... : E-2 0B . ... : ... .. . ... : ... .. . ... : ... .. . ...
ROW 50 : ... .. . ... : ... .. . ... : ... .. . ... : ... .. . ... : D-3 00 . ...
ROW 51 : E-3 0B . ... : D-3 0B . ... : F-3 17 . ... : A-# 1B . ... : ... .. . ...
ROW 52 : ... .. . ... : ... .. . ... : ... .. . ... : ... .. . ... : E-3 00 . W09
ROW 53 : E-2 0B . ... : A-2 0B . ... : C-3 17 . ... : ... .. . ... : ... .. . ...
ROW 54 : ... .. . ... : ... .. . ... : ... .. . ... : ... .. . ... : D-3 00 . ...
ROW 55 : D-3 0B . ... : G-3 0B . ... : G-3 17 . ... : A-# 1B . ... : ... .. . ...
ROW 56 : ... .. . ... : ... .. . ... : ... .. . ... : ... .. . ... : D-3 00 . ...
ROW 57 : A-2 0B . ... : E-3 0B . ... : G-2 17 . ... : A-# 1B . ... : ... .. . ...

PATTERN 43
ROW 00 : ... .. . ... : ... .. . ... : ... .. . ... : ... .. . ... : C-3 00 . ...
ROW 01 : G-3 0B . ... : E-2 0B . ... : E-2 17 . ... : ... .. . ... : ... .. . ...
ROW 02 : ... .. . ... : ... .. . ... : ... .. . ... : ... .. . ... : ... .. . ...
ROW 03 : E-3 0B . ... : D-3 0B . ... : ... .. . ... : ... .. . ... : ... .. . ...
ROW 04 : ... .. . ... : ... .. . ... : ... .. . ... : ... .. . ... : ... .. . ...
ROW 05 : E-2 0B . ... : G-3 0B . ... : --- .. . ... : ... .. . ... : ... .. . ...
ROW 06 : ... .. . ... : ... .. . ... : ... .. . ... : ... .. . ... : ... .. . ...
ROW 07 : D-3 0B . ... : E-3 0B . ... : ... .. . ... : ... .. . ... : ... .. . ...
ROW 08 : ... .. . ... : ... .. . ... : ... .. . ... : ... .. . ... : D-3 00 . ...
ROW 09 : A-2 0B . ... : E-2 0B . ... : E-3 17 . ... : A-# 1B . ... : ... .. . ...
ROW 0A : ... .. . ... : ... .. . ... : ... .. . ... : ... .. . ... : ... .. . ...
ROW 0B : G-3 0B . ... : D-3 0B . ... : ... .. . ... : ... .. . ... : ... .. . ...
ROW 0C : ... .. . ... : ... .. . ... : ... .. . ... : ... .. . ... : ... .. . ...
ROW 0D : E-3 0B . ... : A-2 0B . ... : --- .. . ... : ... .. . ... : ... .. . ...
ROW 0E : ... .. . ... : ... .. . ... : ... .. . ... : ... .. . ... : ... .. . ...
ROW 0F : E-2 0B . ... : G-3 0B . ... : ... .. . ... : ... .. . ... : ... .. . ...
ROW 10 : ... .. . ... : ... .. . ... : ... .. . ... : ... .. . ... : C-3 00 . ...
ROW 11 : D-3 0B . ... : E-3 0B . ... : E-2 17 . ... : ... .. . ... : ... .. . ...
ROW 12 : ... .. . ... : ... .. . ... : ... .. . ... : ... .. . ... : ... .. . ...
ROW 13 : A-2 0B . ... : E-2 0B . ... : ... .. . ... : ... .. . ... : ... .. . ...
ROW 14 : ... .. . ... : ... .. . ... : ... .. . ... : ... .. . ... : ... .. . ...
ROW 15 : G-3 0B . ... : D-3 0B . ... : --- .. . ... : ... .. . ... : ... .. . ...
ROW 16 : ... .. . ... : ... .. . ... : ... .. . ... : ... .. . ... : ... .. . ...
ROW 17 : E-3 0B . ... : G-3 0B . ... : ... .. . ... : ... .. . ... : ... .. . ...
ROW 18 : ... .. . ... : ... .. . ... : ... .. . ... : ... .. . ... : D-3 00 . ...
ROW 19 : E-2 0B . ... : E-3 0B . ... : E-3 17 . ... : A-# 1B . ... : ... .. . ...
ROW 1A : ... .. . ... : ... .. . ... : ... .. . ... : ... .. . ... : ... .. . ...
ROW 1B : D-3 0B . ... : E-2 0B . ... : ... .. . ... : ... .. . ... : ... .. . ...
ROW 1C : ... .. . ... : ... .. . ... : ... .. . ... : ... .. . ... : ... .. . ...
ROW 1D : A-2 0B . ... : D-3 0B . ... : --- .. . ... : ... .. . ... : ... .. . ...
ROW 1E : ... .. . ... : ... .. . ... : ... .. . ... : ... .. . ... : ... .. . ...
ROW 1F : G-3 0B . ... : A-2 0B . ... : ... .. . ... : ... .. . ... : ... .. . ...
ROW 20 : ... .. . ... : ... .. . ... : ... .. . ... : ... .. . ... : C-3 00 . ...
ROW 21 : E-3 0B . ... : G-3 0B . ... : E-2 17 . ... : ... .. . ... : ... .. . ...
ROW 22 : ... .. . ... : ... .. . ... : ... .. . ... : ... .. . ... : ... .. . ...
ROW 23 : E-2 0B . ... : E-3 0B . ... : ... .. . ... : ... .. . ... : ... .. . ...
ROW 24 : ... .. . ... : ... .. . ... : ... .. . ... : ... .. . ... : ... .. . ...
ROW 25 : D-3 0B . ... : E-2 0B . ... : --- .. . ... : ... .. . ... : ... .. . ...
ROW 26 : ... .. . ... : ... .. . ... : ... .. . ... : ... .. . ... : ... .. . ...
ROW 27 : A-2 0B . ... : D-3 0B . ... : ... .. . ... : ... .. . ... : ... .. . ...
ROW 28 : ... .. . ... : ... .. . ... : ... .. . ... : ... .. . ... : D-3 00 . ...
ROW 29 : G-3 0B . ... : G-3 0B . ... : E-3 17 . ... : A-# 1B . ... : ... .. . ...
ROW 2A : ... .. . ... : ... .. . ... : ... .. . ... : ... .. . ... : ... .. . ...
ROW 2B : G-3 0B . ... : G-3 0B . ... : ... .. . ... : ... .. . ... : ... .. . ...
ROW 2C : ... .. . ... : ... .. . ... : ... .. . ... : ... .. . ... : ... .. . ...
ROW 2D : G-2 0B . ... : G-2 0B . ... : --- .. . ... : ... .. . ... : ... .. . ...
ROW 2E : ... .. . ... : ... .. . ... : ... .. . ... : ... .. . ... : ... .. . ...
ROW 2F : F-3 0B . ... : F-3 0B . ... : ... .. . ... : ... .. . ... : ... .. . ...
ROW 30 : ... .. . ... : ... .. . ... : ... .. . ... : ... .. . ... : C-3 00 . ...
ROW 31 : C-3 0B . ... : C-3 0B . ... : E-2 17 . ... : ... .. . ... : ... .. . ...
ROW 32 : ... .. . ... : ... .. . ... : ... .. . ... : ... .. . ... : ... .. . ...
ROW 33 : A#3 0B . ... : A#3 0B . ... : ... .. . ... : ... .. . ... : ... .. . ...
ROW 34 : ... .. . ... : ... .. . ... : ... .. . ... : ... .. . ... : ... .. . ...
ROW 35 : G-3 0B . ... : G-3 0B . ... : --- .. . ... : ... .. . ... : ... .. . ...
ROW 36 : ... .. . ... : ... .. . ... : ... .. . ... : ... .. . ... : ... .. . ...
ROW 37 : G-2 0B . ... : G-2 0B . ... : ... .. . ... : ... .. . ... : ... .. . ...
ROW 38 : ... .. . ... : ... .. . ... : ... .. . ... : ... .. . ... : D-3 00 . ...
ROW 39 : F-3 0B . ... : F-3 0B . ... : E-3 17 . ... : A-# 1B . ... : ... .. . ...
ROW 3A : ... .. . ... : ... .. . ... : ... .. . ... : ... .. . ... : ... .. . ...
ROW 3B : C-3 0B . ... : A#3 0B . ... : ... .. . ... : ... .. . ... : ... .. . ...
ROW 3C : ... .. . ... : ... .. . ... : ... .. . ... : ... .. . ... : ... .. . ...
ROW 3D : A#3 0B . ... : G-3 0B . ... : --- .. . ... : ... .. . ... : ... .. . ...
ROW 3E : ... .. . ... : ... .. . ... : ... .. . ... : ... .. . ... : ... .. . ...
ROW 3F : G-3 0B . ... : G-2 0B . ... : ... .. . ... : ... .. . ... : ... .. . ...
ROW 40 : ... .. . ... : ... .. . ... : ... .. . ... : ... .. . ... : C-3 00 . ...
ROW 41 : G-2 0B . ... : F-3 0B . ... : E-2 17 . ... : ... .. . ... : ... .. . ...
ROW 42 : ... .. . ... : ... .. . ... : ... .. . ... : ... .. . ... : ... .. . ...
ROW 43 : F-3 0B . ... : C-3 0B . ... : ... .. . ... : ... .. . ... : ... .. . ...
ROW 44 : ... .. . ... : ... .. . ... : ... .. . ... : ... .. . ... : ... .. . ...
ROW 45 : C-3 0B . ... : A#3 0B . ... : --- .. . ... : ... .. . ... : ... .. . ...
ROW 46 : ... .. . ... : ... .. . ... : ... .. . ... : ... .. . ... : ... .. . ...
ROW 47 : A#3 0B . ... : G-3 0B . ... : ... .. . ... : ... .. . ... : ... .. . ...
ROW 48 : ... .. . ... : ... .. . ... : ... .. . ... : ... .. . ... : D-3 00 . ...
ROW 49 : G-3 0B . ... : G-2 0B . ... : E-3 17 . ... : A-# 1B . ... : ... .. . ...
ROW 4A : ... .. . ... : ... .. . ... : ... .. . ... : ... .. . ... : ... .. . ...
ROW 4B : G-2 0B . ... : F-3 0B . ... : ... .. . ... : ... .. . ... : ... .. . ...
ROW 4C : ... .. . ... : ... .. . ... : ... .. . ... : ... .. . ... : ... .. . ...
ROW 4D : F-3 0B . ... : A#3 0B . ... : --- .. . ... : ... .. . ... : ... .. . ...
ROW 4E : ... .. . ... : ... .. . ... : ... .. . ... : ... .. . ... : ... .. . ...
ROW 4F : C-3 0B . ... : G-3 0B . ... : ... .. . ... : ... .. . ... : ... .. . ...
ROW 50 : ... .. . ... : ... .. . ... : ... .. . ... : ... .. . ... : D-3 00 . ...
ROW 51 : A#3 0B . ... : G-2 0B . ... : D-3 17 . ... : A-# 1B . ... : ... .. . ...
ROW 52 : ... .. . ... : ... .. . ... : ... .. . ... : ... .. . ... : E-3 00 . W09
ROW 53 : G-3 0B . ... : F-3 0B . ... : A-2 17 . ... : ... .. . ... : ... .. . ...
ROW 54 : ... .. . ... : ... .. . ... : ... .. . ... : ... .. . ... : D-3 00 . ...
ROW 55 : G-2 0B . ... : C-3 0B . ... : E-3 17 . ... : A-# 1B . ... : ... .. . ...
ROW 56 : ... .. . ... : ... .. . ... : ... .. . ... : ... .. . ... : D-3 00 . ...
ROW 57 : F-3 0B . ... : A#3 0B . ... : E-2 17 . ... : A-# 1B . ... : ... .. . ...

PATTERN 44
ROW 00 : ... .. . ... : ... .. . ... : ... .. . ... : ... .. . ... : C-3 00 . ...
ROW 01 : C-3 0B . ... : G-3 0B . ... : G-2 17 . ... : ... .. . ... : ... .. . ...
ROW 02 : ... .. . ... : ... .. . ... : ... .. . ... : ... .. . ... : ... .. . ...
ROW 03 : A#3 0B . ... : G-2 0B . ... : ... .. . ... : ... .. . ... : ... .. . ...
ROW 04 : ... .. . ... : ... .. . ... : ... .. . ... : ... .. . ... : ... .. . ...
ROW 05 : G-3 0B . ... : F-3 0B . ... : --- .. . ... : ... .. . ... : ... .. . ...
ROW 06 : ... .. . ... : ... .. . ... : ... .. . ... : ... .. . ... : ... .. . ...
ROW 07 : G-2 0B . ... : A#3 0B . ... : ... .. . ... : ... .. . ... : ... .. . ...
ROW 08 : ... .. . ... : ... .. . ... : ... .. . ... : ... .. . ... : D-3 00 . ...
ROW 09 : F-3 0B . ... : G-3 0B . ... : G-3 17 . ... : A-# 1B . ... : ... .. . ...
ROW 0A : ... .. . ... : ... .. . ... : ... .. . ... : ... .. . ... : ... .. . ...
ROW 0B : C-3 0B . ... : G-2 0B . ... : ... .. . ... : ... .. . ... : ... .. . ...
ROW 0C : ... .. . ... : ... .. . ... : ... .. . ... : ... .. . ... : ... .. . ...
ROW 0D : A#3 0B . ... : F-3 0B . ... : --- .. . ... : ... .. . ... : ... .. . ...
ROW 0E : ... .. . ... : ... .. . ... : ... .. . ... : ... .. . ... : ... .. . ...
ROW 0F : G-3 0B . ... : C-3 0B . ... : ... .. . ... : ... .. . ... : ... .. . ...
ROW 10 : ... .. . ... : ... .. . ... : ... .. . ... : ... .. . ... : C-3 00 . ...
ROW 11 : G-2 0B . ... : A#3 0B . ... : G-2 17 . ... : ... .. . ... : ... .. . ...
ROW 12 : ... .. . ... : ... .. . ... : ... .. . ... : ... .. . ... : ... .. . ...
ROW 13 : F-3 0B . ... : G-3 0B . ... : ... .. . ... : ... .. . ... : ... .. . ...
ROW 14 : ... .. . ... : ... .. . ... : ... .. . ... : ... .. . ... : ... .. . ...
ROW 15 : C-3 0B . ... : G-2 0B . ... : --- .. . ... : ... .. . ... : ... .. . ...
ROW 16 : ... .. . ... : ... .. . ... : ... .. . ... : ... .. . ... : ... .. . ...
ROW 17 : A#3 0B . ... : F-3 0B . ... : ... .. . ... : ... .. . ... : ... .. . ...
ROW 18 : ... .. . ... : ... .. . ... : ... .. . ... : ... .. . ... : D-3 00 . ...
ROW 19 : G-3 0B . ... : A#3 0B . ... : G-3 17 . ... : A-# 1B . ... : ... .. . ...
ROW 1A : ... .. . ... : ... .. . ... : ... .. . ... : ... .. . ... : ... .. . ...
ROW 1B : G-2 0B . ... : G-3 0B . ... : ... .. . ... : ... .. . ... : ... .. . ...
ROW 1C : ... .. . ... : ... .. . ... : ... .. . ... : ... .. . ... : ... .. . ...
ROW 1D : F-3 0B . ... : G-2 0B . ... : --- .. . ... : ... .. . ... : ... .. . ...
ROW 1E : ... .. . ... : ... .. . ... : ... .. . ... : ... .. . ... : ... .. . ...
ROW 1F : C-3 0B . ... : F-3 0B . ... : ... .. . ... : ... .. . ... : ... .. . ...
ROW 20 : ... .. . ... : ... .. . ... : ... .. . ... : ... .. . ... : C-3 00 . ...
ROW 21 : A#3 0B . ... : C-3 0B . ... : G-2 17 . ... : ... .. . ... : ... .. . ...
ROW 22 : ... .. . ... : ... .. . ... : ... .. . ... : ... .. . ... : ... .. . ...
ROW 23 : G-3 0B . ... : A#3 0B . ... : ... .. . ... : ... .. . ... : ... .. . ...
ROW 24 : ... .. . ... : ... .. . ... : ... .. . ... : ... .. . ... : ... .. . ...
ROW 25 : G-2 0B . ... : G-3 0B . ... : --- .. . ... : ... .. . ... : ... .. . ...
ROW 26 : ... .. . ... : ... .. . ... : ... .. . ... : ... .. . ... : ... .. . ...
ROW 27 : F-3 0B . ... : G-2 0B . ... : ... .. . ... : ... .. . ... : ... .. . ...
ROW 28 : ... .. . ... : ... .. . ... : ... .. . ... : ... .. . ... : D-3 00 . ...
ROW 29 : C-3 0B . ... : F-3 0B . ... : G-3 17 . ... : A-# 1B . ... : ... .. . ...
ROW 2A : ... .. . ... : ... .. . ... : ... .. . ... : ... .. . ... : ... .. . ...
ROW 2B : A#3 0B . ... : A#3 0B . ... : ... .. . ... : ... .. . ... : ... .. . ...
ROW 2C : ... .. . ... : ... .. . ... : ... .. . ... : ... .. . ... : ... .. . ...
ROW 2D : E-3 0B . ... : E-3 0B . ... : --- .. . ... : ... .. . ... : ... .. . ...
ROW 2E : ... .. . ... : ... .. . ... : ... .. . ... : ... .. . ... : ... .. . ...
ROW 2F : E-2 0B . ... : E-2 0B . ... : ... .. . ... : ... .. . ... : ... .. . ...
ROW 30 : ... .. . ... : ... .. . ... : ... .. . ... : ... .. . ... : C-3 00 . ...
ROW 31 : D-3 0B . ... : D-3 0B . ... : G-2 17 . ... : ... .. . ... : ... .. . ...
ROW 32 : ... .. . ... : ... .. . ... : ... .. . ... : ... .. . ... : ... .. . ...
ROW 33 : A-2 0B . ... : A-2 0B . ... : ... .. . ... : ... .. . ... : ... .. . ...
ROW 34 : ... .. . ... : ... .. . ... : ... .. . ... : ... .. . ... : ... .. . ...
ROW 35 : G-3 0B . ... : G-3 0B . ... : --- .. . ... : ... .. . ... : ... .. . ...
ROW 36 : ... .. . ... : ... .. . ... : ... .. . ... : ... .. . ... : ... .. . ...
ROW 37 : E-3 0B . ... : E-3 0B . ... : ... .. . ... : ... .. . ... : ... .. . ...
ROW 38 : ... .. . ... : ... .. . ... : ... .. . ... : ... .. . ... : D-3 00 . ...
ROW 39 : E-2 0B . ... : E-2 0B . ... : G-3 17 . ... : A-# 1B . ... : ... .. . ...
ROW 3A : ... .. . ... : ... .. . ... : ... .. . ... : ... .. . ... : ... .. . ...
ROW 3B : D-3 0B . ... : D-3 0B . ... : ... .. . ... : ... .. . ... : ... .. . ...
ROW 3C : ... .. . ... : ... .. . ... : ... .. . ... : ... .. . ... : ... .. . ...
ROW 3D : A-2 0B . ... : G-3 0B . ... : --- .. . ... : ... .. . ... : ... .. . ...
ROW 3E : ... .. . ... : ... .. . ... : ... .. . ... : ... .. . ... : ... .. . ...
ROW 3F : G-3 0B . ... : E-3 0B . ... : ... .. . ... : ... .. . ... : ... .. . ...
ROW 40 : ... .. . ... : ... .. . ... : ... .. . ... : ... .. . ... : C-3 00 . ...
ROW 41 : E-3 0B . ... : E-2 0B . ... : G-2 17 . ... : ... .. . ... : ... .. . ...
ROW 42 : ... .. . ... : ... .. . ... : ... .. . ... : ... .. . ... : ... .. . ...
ROW 43 : E-2 0B . ... : D-3 0B . ... : ... .. . ... : ... .. . ... : ... .. . ...
ROW 44 : ... .. . ... : ... .. . ... : ... .. . ... : ... .. . ... : ... .. . ...
ROW 45 : D-3 0B . ... : A-2 0B . ... : --- .. . ... : ... .. . ... : ... .. . ...
ROW 46 : ... .. . ... : ... .. . ... : ... .. . ... : ... .. . ... : ... .. . ...
ROW 47 : A-2 0B . ... : G-3 0B . ... : ... .. . ... : ... .. . ... : ... .. . ...
ROW 48 : ... .. . ... : ... .. . ... : ... .. . ... : ... .. . ... : D-3 00 . ...
ROW 49 : G-3 0B . ... : E-3 0B . ... : G-3 17 . ... : A-# 1B . ... : ... .. . ...
ROW 4A : ... .. . ... : ... .. . ... : ... .. . ... : ... .. . ... : ... .. . ...
ROW 4B : E-3 0B . ... : E-2 0B . ... : ... .. . ... : ... .. . ... : ... .. . ...
ROW 4C : ... .. . ... : ... .. . ... : ... .. . ... : ... .. . ... : ... .. . ...
ROW 4D : E-2 0B . ... : D-3 0B . ... : --- .. . ... : ... .. . ... : ... .. . ...
ROW 4E : ... .. . ... : ... .. . ... : ... .. . ... : ... .. . ... : ... .. . ...
ROW 4F : D-3 0B . ... : G-3 0B . ... : ... .. . ... : ... .. . ... : ... .. . ...
ROW 50 : ... .. . ... : ... .. . ... : ... .. . ... : ... .. . ... : D-3 00 . ...
ROW 51 : A-2 0B . ... : E-3 0B . ... : F-3 17 . ... : A-# 1B . ... : ... .. . ...
ROW 52 : ... .. . ... : ... .. . ... : ... .. . ... : ... .. . ... : E-3 00 . W09
ROW 53 : G-3 0B . ... : E-2 0B . ... : C-3 17 . ... : ... .. . ... : ... .. . ...
ROW 54 : ... .. . ... : ... .. . ... : ... .. . ... : ... .. . ... : D-3 00 . ...
ROW 55 : E-3 0B . ... : D-3 0B . ... : G-3 17 . ... : A-# 1B . ... : ... .. . ...
ROW 56 : ... .. . ... : ... .. . ... : ... .. . ... : ... .. . ... : D-3 00 . ...
ROW 57 : E-2 0B . ... : A-2 0B . ... : G-2 17 . ... : A-# 1B . ... : ... .. . ...

PATTERN 45
ROW 00 : ... .. . ... : ... .. . ... : ... .. . ... : ... .. . ... : C-3 00 . ...
ROW 01 : D-3 0B . ... : G-3 0B . ... : E-2 17 . ... : ... .. . ... : ... .. . ...
ROW 02 : ... .. . ... : ... .. . ... : ... .. . ... : ... .. . ... : ... .. . ...
ROW 03 : A-2 0B . ... : E-3 0B . ... : ... .. . ... : ... .. . ... : ... .. . ...
ROW 04 : ... .. . ... : ... .. . ... : ... .. . ... : ... .. . ... : ... .. . ...
ROW 05 : G-3 0B . ... : E-2 0B . ... : --- .. . ... : ... .. . ... : ... .. . ...
ROW 06 : ... .. . ... : ... .. . ... : ... .. . ... : ... .. . ... : ... .. . ...
ROW 07 : E-3 0B . ... : D-3 0B . ... : ... .. . ... : ... .. . ... : ... .. . ...
ROW 08 : ... .. . ... : ... .. . ... : ... .. . ... : ... .. . ... : D-3 00 . ...
ROW 09 : E-2 0B . ... : G-3 0B . ... : E-3 17 . ... : A-# 1B . ... : ... .. . ...
ROW 0A : ... .. . ... : ... .. . ... : ... .. . ... : ... .. . ... : ... .. . ...
ROW 0B : D-3 0B . ... : E-3 0B . ... : ... .. . ... : ... .. . ... : ... .. . ...
ROW 0C : ... .. . ... : ... .. . ... : ... .. . ... : ... .. . ... : ... .. . ...
ROW 0D : A-2 0B . ... : E-2 0B . ... : --- .. . ... : ... .. . ... : ... .. . ...
ROW 0E : ... .. . ... : ... .. . ... : ... .. . ... : ... .. . ... : ... .. . ...
ROW 0F : G-3 0B . ... : D-3 0B . ... : ... .. . ... : ... .. . ... : ... .. . ...
ROW 10 : ... .. . ... : ... .. . ... : ... .. . ... : ... .. . ... : C-3 00 . ...
ROW 11 : E-3 0B . ... : A-2 0B . ... : E-2 17 . ... : ... .. . ... : ... .. . ...
ROW 12 : ... .. . ... : ... .. . ... : ... .. . ... : ... .. . ... : ... .. . ...
ROW 13 : E-2 0B . ... : G-3 0B . ... : ... .. . ... : ... .. . ... : ... .. . ...
ROW 14 : ... .. . ... : ... .. . ... : ... .. . ... : ... .. . ... : ... .. . ...
ROW 15 : D-3 0B . ... : E-3 0B . ... : --- .. . ... : ... .. . ... : ... .. . ...
ROW 16 : ... .. . ... : ... .. . ... : ... .. . ... : ... .. . ... : ... .. . ...
ROW 17 : A-2 0B . ... : E-2 0B . ... : ... .. . ... : ... .. . ... : ... .. . ...
ROW 18 : ... .. . ... : ... .. . ... : ... .. . ... : ... .. . ... : D-3 00 . ...
ROW 19 : G-3 0B . ... : D-3 0B . ... : E-3 17 . ... : A-# 1B . ... : ... .. . ...
ROW 1A : ... .. . ... : ... .. . ... : ... .. . ... : ... .. . ... : ... .. . ...
ROW 1B : E-3 0B . ... : G-3 0B . ... : ... .. . ... : ... .. . ... : ... .. . ...
ROW 1C : ... .. . ... : ... .. . ... : ... .. . ... : ... .. . ... : ... .. . ...
ROW 1D : E-2 0B . ... : E-3 0B . ... : --- .. . ... : ... .. . ... : ... .. . ...
ROW 1E : ... .. . ... : ... .. . ... : ... .. . ... : ... .. . ... : ... .. . ...
ROW 1F : D-3 0B . ... : E-2 0B . ... : ... .. . ... : ... .. . ... : ... .. . ...
ROW 20 : ... .. . ... : ... .. . ... : ... .. . ... : ... .. . ... : C-3 00 . ...
ROW 21 : A-2 0B . ... : D-3 0B . ... : E-2 17 . ... : ... .. . ... : ... .. . ...
ROW 22 : ... .. . ... : ... .. . ... : ... .. . ... : ... .. . ... : ... .. . ...
ROW 23 : G-3 0B . ... : A-2 0B . ... : ... .. . ... : ... .. . ... : ... .. . ...
ROW 24 : ... .. . ... : ... .. . ... : ... .. . ... : ... .. . ... : ... .. . ...
ROW 25 : E-3 0B . ... : G-3 0B . ... : --- .. . ... : ... .. . ... : ... .. . ...
ROW 26 : ... .. . ... : ... .. . ... : ... .. . ... : ... .. . ... : ... .. . ...
ROW 27 : E-2 0B . ... : E-3 0B . ... : ... .. . ... : ... .. . ... : ... .. . ...
ROW 28 : ... .. . ... : ... .. . ... : ... .. . ... : ... .. . ... : D-3 00 . ...
ROW 29 : D-3 0B . ... : E-2 0B . ... : E-3 17 . ... : A-# 1B . ... : ... .. . ...
ROW 2A : ... .. . ... : ... .. . ... : ... .. . ... : ... .. . ... : ... .. . ...
ROW 2B : A-2 0B . ... : D-3 0B . ... : ... .. . ... : ... .. . ... : ... .. . ...
ROW 2C : ... .. . ... : ... .. . ... : ... .. . ... : ... .. . ... : ... .. . ...
ROW 2D : G-3 0B . ... : G-3 0B . ... : --- .. . ... : ... .. . ... : ... .. . ...
ROW 2E : ... .. . ... : ... .. . ... : ... .. . ... : ... .. . ... : ... .. . ...
ROW 2F : G-3 0B . ... : G-3 0B . ... : ... .. . ... : ... .. . ... : ... .. . ...
ROW 30 : ... .. . ... : ... .. . ... : ... .. . ... : ... .. . ... : C-3 00 . ...
ROW 31 : G-2 0B . ... : G-2 0B . ... : E-2 17 . ... : ... .. . ... : ... .. . ...
ROW 32 : ... .. . ... : ... .. . ... : ... .. . ... : ... .. . ... : ... .. . ...
ROW 33 : F-3 0B . ... : F-3 0B . ... : ... .. . ... : ... .. . ... : ... .. . ...
ROW 34 : ... .. . ... : ... .. . ... : ... .. . ... : ... .. . ... : ... .. . ...
ROW 35 : C-3 0B . ... : C-3 0B . ... : --- .. . ... : ... .. . ... : ... .. . ...
ROW 36 : ... .. . ... : ... .. . ... : ... .. . ... : ... .. . ... : ... .. . ...
ROW 37 : A#3 0B . ... : A#3 0B . ... : ... .. . ... : ... .. . ... : ... .. . ...
ROW 38 : ... .. . ... : ... .. . ... : ... .. . ... : ... .. . ... : D-3 00 . ...
ROW 39 : G-3 0B . ... : G-3 0B . ... : E-3 17 . ... : A-# 1B . ... : ... .. . ...
ROW 3A : ... .. . ... : ... .. . ... : ... .. . ... : ... .. . ... : ... .. . ...
ROW 3B : G-2 0B . ... : G-2 0B . ... : ... .. . ... : ... .. . ... : ... .. . ...
ROW 3C : ... .. . ... : ... .. . ... : ... .. . ... : ... .. . ... : ... .. . ...
ROW 3D : F-3 0B . ... : F-3 0B . ... : --- .. . ... : ... .. . ... : ... .. . ...
ROW 3E : ... .. . ... : ... .. . ... : ... .. . ... : ... .. . ... : ... .. . ...
ROW 3F : C-3 0B . ... : A#3 0B . ... : ... .. . ... : ... .. . ... : ... .. . ...
ROW 40 : ... .. . ... : ... .. . ... : ... .. . ... : ... .. . ... : C-3 00 . ...
ROW 41 : A#3 0B . ... : G-3 0B . ... : E-2 17 . ... : ... .. . ... : ... .. . ...
ROW 42 : ... .. . ... : ... .. . ... : ... .. . ... : ... .. . ... : ... .. . ...
ROW 43 : G-3 0B . ... : G-2 0B . ... : ... .. . ... : ... .. . ... : ... .. . ...
ROW 44 : ... .. . ... : ... .. . ... : ... .. . ... : ... .. . ... : ... .. . ...
ROW 45 : G-2 0B . ... : F-3 0B . ... : --- .. . ... : ... .. . ... : ... .. . ...
ROW 46 : ... .. . ... : ... .. . ... : ... .. . ... : ... .. . ... : ... .. . ...
ROW 47 : F-3 0B . ... : C-3 0B . ... : ... .. . ... : ... .. . ... : ... .. . ...
ROW 48 : ... .. . ... : ... .. . ... : ... .. . ... : ... .. . ... : D-3 00 . ...
ROW 49 : C-3 0B . ... : A#3 0B . ... : E-3 17 . ... : A-# 1B . ... : ... .. . ...
ROW 4A : ... .. . ... : ... .. . ... : ... .. . ... : ... .. . ... : ... .. . ...
ROW 4B : A#3 0B . ... : G-3 0B . ... : ... .. . ... : ... .. . ... : ... .. . ...
ROW 4C : ... .. . ... : ... .. . ... : ... .. . ... : ... .. . ... : ... .. . ...
ROW 4D : G-3 0B . ... : G-2 0B . ... : --- .. . ... : ... .. . ... : ... .. . ...
ROW 4E : ... .. . ... : ... .. . ... : ... .. . ... : ... .. . ... : ... .. . ...
ROW 4F : G-2 0B . ... : F-3 0B . ... : ... .. . ... : ... .. . ... : ... .. . ...
ROW 50 : ... .. . ... : ... .. . ... : ... .. . ... : ... .. . ... : D-3 00 . ...
ROW 51 : F-3 0B . ... : A#3 0B . ... : D-3 17 . ... : A-# 1B . ... : ... .. . ...
ROW 52 : ... .. . ... : ... .. . ... : ... .. . ... : ... .. . ... : E-3 00 . W09
ROW 53 : C-3 0B . ... : G-3 0B . ... : A-2 17 . ... : ... .. . ... : ... .. . ...
ROW 54 : ... .. . ... : ... .. . ... : ... .. . ... : ... .. . ... : D-3 00 . ...
ROW 55 : A#3 0B . ... : G-2 0B . ... : E-3 17 . ... : A-# 1B . ... : ... .. . ...
ROW 56 : ... .. . ... : ... .. . ... : ... .. . ... : ... .. . ... : D-3 00 . ...
ROW 57 : G-3 0B . ... : F-3 0B . ... : E-2 17 . ... : A-# 1B . ... : ... .. . ...

PATTERN 46
ROW 00 : ... .. . ... : ... .. . ... : ... .. . ... : ... .. . ... : C-3 00 . ...
ROW 01 : G-2 0B . ... : C-3 0B . ... : G-2 17 . ... : ... .. . ... : ... .. . ...
ROW 02 : ... .. . ... : ... .. . ... : ... .. . ... : ... .. . ... : ... .. . ...
ROW 03 : F-3 0B . ... : A#3 0B . ... : ... .. . ... : ... .. . ... : ... .. . ...
ROW 04 : ... .. . ... : ... .. . ... : ... .. . ... : ... .. . ... : ... .. . ...
ROW 05 : C-3 0B . ... : G-3 0B . ... : --- .. . ... : ... .. . ... : ... .. . ...
ROW 06 : ... .. . ... : ... .. . ... : ... .. . ... : ... .. . ... : ... .. . ...
ROW 07 : A#3 0B . ... : G-2 0B . ... : ... .. . ... : ... .. . ... : ... .. . ...
ROW 08 : ... .. . ... : ... .. . ... : ... .. . ... : ... .. . ... : D-3 00 . ...
ROW 09 : G-3 0B . ... : F-3 0B . ... : G-3 17 . ... : A-# 1B . ... : ... .. . ...
ROW 0A : ... .. . ... : ... .. . ... : ... .. . ... : ... .. . ... : ... .. . ...
ROW 0B : G-2 0B . ... : A#3 0B . ... : ... .. . ... : ... .. . ... : ... .. . ...
ROW 0C : ... .. . ... : ... .. . ... : ... .. . ... : ... .. . ... : ... .. . ...
ROW 0D : F-3 0B . ... : G-3 0B . ... : --- .. . ... : ... .. . ... : ... .. . ...
ROW 0E : ... .. . ... : ... .. . ... : ... .. . ... : ... .. . ... : ... .. . ...
ROW 0F : C-3 0B . ... : G-2 0B . ... : ... .. . ... : ... .. . ... : ... .. . ...
ROW 10 : ... .. . ... : ... .. . ... : ... .. . ... : ... .. . ... : C-3 00 . ...
ROW 11 : A#3 0B . ... : F-3 0B . ... : G-2 17 . ... : ... .. . ... : ... .. . ...
ROW 12 : ... .. . ... : ... .. . ... : ... .. . ... : ... .. . ... : ... .. . ...
ROW 13 : G-3 0B . ... : C-3 0B . ... : ... .. . ... : ... .. . ... : ... .. . ...
ROW 14 : ... .. . ... : ... .. . ... : ... .. . ... : ... .. . ... : ... .. . ...
ROW 15 : G-2 0B . ... : A#3 0B . ... : --- .. . ... : ... .. . ... : ... .. . ...
ROW 16 : ... .. . ... : ... .. . ... : ... .. . ... : ... .. . ... : ... .. . ...
ROW 17 : F-3 0B . ... : G-3 0B . ... : ... .. . ... : ... .. . ... : ... .. . ...
ROW 18 : ... .. . ... : ... .. . ... : ... .. . ... : ... .. . ... : D-3 00 . ...
ROW 19 : C-3 0B . ... : G-2 0B . ... : G-3 17 . ... : A-# 1B . ... : ... .. . ...
ROW 1A : ... .. . ... : ... .. . ... : ... .. . ... : ... .. . ... : ... .. . ...
ROW 1B : A#3 0B . ... : F-3 0B . ... : ... .. . ... : ... .. . ... : ... .. . ...
ROW 1C : ... .. . ... : ... .. . ... : ... .. . ... : ... .. . ... : ... .. . ...
ROW 1D : G-3 0B . ... : A#3 0B . ... : --- .. . ... : ... .. . ... : ... .. . ...
ROW 1E : ... .. . ... : ... .. . ... : ... .. . ... : ... .. . ... : ... .. . ...
ROW 1F : G-2 0B . ... : G-3 0B . ... : ... .. . ... : ... .. . ... : ... .. . ...
ROW 20 : ... .. . ... : ... .. . ... : ... .. . ... : ... .. . ... : C-3 00 . ...
ROW 21 : F-3 0B . ... : G-2 0B . ... : G-2 17 . ... : ... .. . ... : ... .. . ...
ROW 22 : ... .. . ... : ... .. . ... : ... .. . ... : ... .. . ... : ... .. . ...
ROW 23 : C-3 0B . ... : F-3 0B . ... : ... .. . ... : ... .. . ... : ... .. . ...
ROW 24 : ... .. . ... : ... .. . ... : ... .. . ... : ... .. . ... : ... .. . ...
ROW 25 : A#3 0B . ... : C-3 0B . ... : --- .. . ... : ... .. . ... : ... .. . ...
ROW 26 : ... .. . ... : ... .. . ... : ... .. . ... : ... .. . ... : ... .. . ...
ROW 27 : G-3 0B . ... : A#3 0B . ... : ... .. . ... : ... .. . ... : ... .. . ...
ROW 28 : ... .. . ... : ... .. . ... : ... .. . ... : ... .. . ... : D-3 00 . ...
ROW 29 : G-2 0B . ... : G-3 0B . ... : G-3 17 . ... : A-# 1B . ... : ... .. . ...
ROW 2A : ... .. . ... : ... .. . ... : ... .. . ... : ... .. . ... : ... .. . ...
ROW 2B : F-3 0B . ... : G-2 0B . ... : ... .. . ... : ... .. . ... : ... .. . ...
ROW 2C : ... .. . ... : ... .. . ... : ... .. . ... : ... .. . ... : ... .. . ...
ROW 2D : C-3 0B . ... : F-3 0B . ... : --- .. . ... : ... .. . ... : ... .. . ...
ROW 2E : ... .. . ... : ... .. . ... : ... .. . ... : ... .. . ... : ... .. . ...
ROW 2F : A#3 0B . ... : A#3 0B . ... : ... .. . ... : ... .. . ... : ... .. . ...
ROW 30 : ... .. . ... : ... .. . ... : ... .. . ... : ... .. . ... : C-3 00 . ...
ROW 31 : E-3 0B . ... : E-3 0B . ... : G-2 17 . ... : ... .. . ... : ... .. . ...
ROW 32 : ... .. . ... : ... .. . ... : ... .. . ... : ... .. . ... : ... .. . ...
ROW 33 : E-2 0B . ... : E-2 0B . ... : ... .. . ... : ... .. . ... : ... .. . ...
ROW 34 : ... .. . ... : ... .. . ... : ... .. . ... : ... .. . ... : ... .. . ...
ROW 35 : D-3 0B . ... : D-3 0B . ... : --- .. . ... : ... .. . ... : ... .. . ...
ROW 36 : ... .. . ... : ... .. . ... : ... .. . ... : ... .. . ... : ... .. . ...
ROW 37 : A-2 0B . ... : A-2 0B . ... : ... .. . ... : ... .. . ... : ... .. . ...
ROW 38 : ... .. . ... : ... .. . ... : ... .. . ... : ... .. . ... : D-3 00 . ...
ROW 39 : G-3 0B . ... : G-3 0B . ... : G-3 17 . ... : A-# 1B . ... : ... .. . ...
ROW 3A : ... .. . ... : ... .. . ... : ... .. . ... : ... .. . ... : ... .. . ...
ROW 3B : E-3 0B . ... : E-3 0B . ... : ... .. . ... : ... .. . ... : ... .. . ...
ROW 3C : ... .. . ... : ... .. . ... : ... .. . ... : ... .. . ... : ... .. . ...
ROW 3D : E-2 0B . ... : E-2 0B . ... : --- .. . ... : ... .. . ... : ... .. . ...
ROW 3E : ... .. . ... : ... .. . ... : ... .. . ... : ... .. . ... : ... .. . ...
ROW 3F : D-3 0B . ... : D-3 0B . ... : ... .. . ... : ... .. . ... : ... .. . ...
ROW 40 : ... .. . ... : ... .. . ... : ... .. . ... : ... .. . ... : C-3 00 . ...
ROW 41 : A-2 0B . ... : G-3 0B . ... : G-2 17 . ... : ... .. . ... : ... .. . ...
ROW 42 : ... .. . ... : ... .. . ... : ... .. . ... : ... .. . ... : ... .. . ...
ROW 43 : G-3 0B . ... : E-3 0B . ... : ... .. . ... : ... .. . ... : ... .. . ...
ROW 44 : ... .. . ... : ... .. . ... : ... .. . ... : ... .. . ... : ... .. . ...
ROW 45 : E-3 0B . ... : E-2 0B . ... : --- .. . ... : ... .. . ... : ... .. . ...
ROW 46 : ... .. . ... : ... .. . ... : ... .. . ... : ... .. . ... : ... .. . ...
ROW 47 : E-2 0B . ... : D-3 0B . ... : ... .. . ... : ... .. . ... : ... .. . ...
ROW 48 : ... .. . ... : ... .. . ... : ... .. . ... : ... .. . ... : D-3 00 . ...
ROW 49 : D-3 0B . ... : A-2 0B . ... : G-3 17 . ... : A-# 1B . ... : ... .. . ...
ROW 4A : ... .. . ... : ... .. . ... : ... .. . ... : ... .. . ... : ... .. . ...
ROW 4B : A-2 0B . ... : G-3 0B . ... : ... .. . ... : ... .. . ... : ... .. . ...
ROW 4C : ... .. . ... : ... .. . ... : ... .. . ... : ... .. . ... : ... .. . ...
ROW 4D : G-3 0B . ... : E-3 0B . ... : --- .. . ... : ... .. . ... : ... .. . ...
ROW 4E : ... .. . ... : ... .. . ... : ... .. . ... : ... .. . ... : ... .. . ...
ROW 4F : E-3 0B . ... : E-2 0B . ... : ... .. . ... : ... .. . ... : ... .. . ...
ROW 50 : ... .. . ... : ... .. . ... : ... .. . ... : ... .. . ... : D-3 00 . ...
ROW 51 : E-2 0B . ... : D-3 0B . ... : F-3 17 . ... : A-# 1B . ... : ... .. . ...
ROW 52 : ... .. . ... : ... .. . ... : ... .. . ... : ... .. . ... : E-3 00 . W09
ROW 53 : D-3 0B . ... : G-3 0B . ... : C-3 17 . ... : ... .. . ... : ... .. . ...
ROW 54 : ... .. . ... : ... .. . ... : ... .. . ... : ... .. . ... : D-3 00 . ...
ROW 55 : A-2 0B . ... : E-3 0B . ... : G-3 17 . ... : A-# 1B . ... : ... .. . ...
ROW 56 : ... .. . ... : ... .. . ... : ... .. . ... : ... .. . ... : D-3 00 . ...
ROW 57 : G-3 0B . ... : E-2 0B . ... : G-2 17 . ... : A-# 1B . ... : ... .. . ...

PATTERN 47
ROW 00 : ... .. . ... : ... .. . ... : ... .. . ... : ... .. . ... : C-3 00 . ...
ROW 01 : E-3 0B . ... : D-3 0B . ... : E-2 17 . ... : ... .. . ... : ... .. . ...
ROW 02 : ... .. . ... : ... .. . ... : ... .. . ... : ... .. . ... : ... .. . ...
ROW 03 : E-2 0B . ... : A-2 0B . ... : ... .. . ... : ... .. . ... : ... .. . ...
ROW 04 : ... .. . ... : ... .. . ... : ... .. . ... : ... .. . ... : ... .. . ...
ROW 05 : D-3 0B . ... : G-3 0B . ... : --- .. . ... : ... .. . ... : ... .. . ...
ROW 06 : ... .. . ... : ... .. . ... : ... .. . ... : ... .. . ... : ... .. . ...
ROW 07 : A-2 0B . ... : E-3 0B . ... : ... .. . ... : ... .. . ... : ... .. . ...
ROW 08 : ... .. . ... : ... .. . ... : ... .. . ... : ... .. . ... : D-3 00 . ...
ROW 09 : G-3 0B . ... : E-2 0B . ... : E-3 17 . ... : A-# 1B . ... : ... .. . ...
ROW 0A : ... .. . ... : ... .. . ... : ... .. . ... : ... .. . ... : ... .. . ...
ROW 0B : E-3 0B . ... : D-3 0B . ... : ... .. . ... : ... .. . ... : ... .. . ...
ROW 0C : ... .. . ... : ... .. . ... : ... .. . ... : ... .. . ... : ... .. . ...
ROW 0D : E-2 0B . ... : G-3 0B . ... : --- .. . ... : ... .. . ... : ... .. . ...
ROW 0E : ... .. . ... : ... .. . ... : ... .. . ... : ... .. . ... : ... .. . ...
ROW 0F : D-3 0B . ... : E-3 0B . ... : ... .. . ... : ... .. . ... : ... .. . ...
ROW 10 : ... .. . ... : ... .. . ... : ... .. . ... : ... .. . ... : C-3 00 . ...
ROW 11 : A-2 0B . ... : E-2 0B . ... : E-2 17 . ... : ... .. . ... : ... .. . ...
ROW 12 : ... .. . ... : ... .. . ... : ... .. . ... : ... .. . ... : ... .. . ...
ROW 13 : G-3 0B . ... : D-3 0B . ... : ... .. . ... : ... .. . ... : ... .. . ...
ROW 14 : ... .. . ... : ... .. . ... : ... .. . ... : ... .. . ... : ... .. . ...
ROW 15 : E-3 0B . ... : A-2 0B . ... : --- .. . ... : ... .. . ... : ... .. . ...
ROW 16 : ... .. . ... : ... .. . ... : ... .. . ... : ... .. . ... : ... .. . ...
ROW 17 : E-2 0B . ... : G-3 0B . ... : ... .. . ... : ... .. . ... : ... .. . ...
ROW 18 : ... .. . ... : ... .. . ... : ... .. . ... : ... .. . ... : D-3 00 . ...
ROW 19 : D-3 0B . ... : E-3 0B . ... : E-3 17 . ... : A-# 1B . ... : ... .. . ...
ROW 1A : ... .. . ... : ... .. . ... : ... .. . ... : ... .. . ... : ... .. . ...
ROW 1B : A-2 0B . ... : E-2 0B . ... : ... .. . ... : ... .. . ... : ... .. . ...
ROW 1C : ... .. . ... : ... .. . ... : ... .. . ... : ... .. . ... : ... .. . ...
ROW 1D : G-3 0B . ... : D-3 0B . ... : --- .. . ... : ... .. . ... : ... .. . ...
ROW 1E : ... .. . ... : ... .. . ... : ... .. . ... : ... .. . ... : ... .. . ...
ROW 1F : E-3 0B . ... : G-3 0B . ... : ... .. . ... : ... .. . ... : ... .. . ...
ROW 20 : ... .. . ... : ... .. . ... : ... .. . ... : ... .. . ... : C-3 00 . ...
ROW 21 : E-2 0B . ... : E-3 0B . ... : E-2 17 . ... : ... .. . ... : ... .. . ...
ROW 22 : ... .. . ... : ... .. . ... : ... .. . ... : ... .. . ... : ... .. . ...
ROW 23 : D-3 0B . ... : E-2 0B . ... : ... .. . ... : ... .. . ... : ... .. . ...
ROW 24 : ... .. . ... : ... .. . ... : ... .. . ... : ... .. . ... : ... .. . ...
ROW 25 : A-2 0B . ... : D-3 0B . ... : --- .. . ... : ... .. . ... : ... .. . ...
ROW 26 : ... .. . ... : ... .. . ... : ... .. . ... : ... .. . ... : ... .. . ...
ROW 27 : G-3 0B . ... : A-2 0B . ... : ... .. . ... : ... .. . ... : ... .. . ...
ROW 28 : ... .. . ... : ... .. . ... : ... .. . ... : ... .. . ... : D-3 00 . ...
ROW 29 : E-3 0B . ... : G-3 0B . ... : E-3 17 . ... : A-# 1B . ... : ... .. . ...
ROW 2A : ... .. . ... : ... .. . ... : ... .. . ... : ... .. . ... : ... .. . ...
ROW 2B : E-2 0B . ... : E-3 0B . ... : ... .. . ... : ... .. . ... : ... .. . ...
ROW 2C : ... .. . ... : ... .. . ... : ... .. . ... : ... .. . ... : ... .. . ...
ROW 2D : D-3 0B . ... : E-2 0B . ... : --- .. . ... : ... .. . ... : ... .. . ...
ROW 2E : ... .. . ... : ... .. . ... : ... .. . ... : ... .. . ... : ... .. . ...
ROW 2F : A-2 0B . ... : D-3 0B . ... : ... .. . ... : ... .. . ... : ... .. . ...
ROW 30 : ... .. . ... : ... .. . ... : ... .. . ... : ... .. . ... : C-3 00 . ...
ROW 31 : G-3 0B . ... : G-3 0B . ... : E-2 17 . ... : ... .. . ... : ... .. . ...
ROW 32 : ... .. . ... : ... .. . ... : ... .. . ... : ... .. . ... : ... .. . ...
ROW 33 : G-3 0B . ... : G-3 0B . ... : ... .. . ... : ... .. . ... : ... .. . ...
ROW 34 : ... .. . ... : ... .. . ... : ... .. . ... : ... .. . ... : ... .. . ...
ROW 35 : G-2 0B . ... : G-2 0B . ... : --- .. . ... : ... .. . ... : ... .. . ...
ROW 36 : ... .. . ... : ... .. . ... : ... .. . ... : ... .. . ... : ... .. . ...
ROW 37 : F-3 0B . ... : F-3 0B . ... : ... .. . ... : ... .. . ... : ... .. . ...
ROW 38 : ... .. . ... : ... .. . ... : ... .. . ... : ... .. . ... : D-3 00 . ...
ROW 39 : C-3 0B . ... : C-3 0B . ... : E-3 17 . ... : A-# 1B . ... : ... .. . ...
ROW 3A : ... .. . ... : ... .. . ... : ... .. . ... : ... .. . ... : ... .. . ...
ROW 3B : A#3 0B . ... : A#3 0B . ... : ... .. . ... : ... .. . ... : ... .. . ...
ROW 3C : ... .. . ... : ... .. . ... : ... .. . ... : ... .. . ... : ... .. . ...
ROW 3D : G-3 0B . ... : G-3 0B . ... : --- .. . ... : ... .. . ... : ... .. . ...
ROW 3E : ... .. . ... : ... .. . ... : ... .. . ... : ... .. . ... : ... .. . ...
ROW 3F : G-2 0B . ... : G-2 0B . ... : ... .. . ... : ... .. . ... : ... .. . ...
ROW 40 : ... .. . ... : ... .. . ... : ... .. . ... : ... .. . ... : C-3 00 . ...
ROW 41 : F-3 0B . ... : F-3 0B . ... : E-2 17 . ... : ... .. . ... : ... .. . ...
ROW 42 : ... .. . ... : ... .. . ... : ... .. . ... : ... .. . ... : ... .. . ...
ROW 43 : C-3 0B . ... : A#3 0B . ... : ... .. . ... : ... .. . ... : ... .. . ...
ROW 44 : ... .. . ... : ... .. . ... : ... .. . ... : ... .. . ... : ... .. . ...
ROW 45 : A#3 0B . ... : G-3 0B . ... : --- .. . ... : ... .. . ... : ... .. . ...
ROW 46 : ... .. . ... : ... .. . ... : ... .. . ... : ... .. . ... : ... .. . ...
ROW 47 : G-3 0B . ... : G-2 0B . ... : ... .. . ... : ... .. . ... : ... .. . ...
ROW 48 : ... .. . ... : ... .. . ... : ... .. . ... : ... .. . ... : D-3 00 . ...
ROW 49 : G-2 0B . ... : F-3 0B . ... : E-3 17 . ... : A-# 1B . ... : ... .. . ...
ROW 4A : ... .. . ... : ... .. . ... : ... .. . ... : ... .. . ... : ... .. . ...
ROW 4B : F-3 0B . ... : C-3 0B . ... : ... .. . ... : ... .. . ... : ... .. . ...
ROW 4C : ... .. . ... : ... .. . ... : ... .. . ... : ... .. . ... : ... .. . ...
ROW 4D : C-3 0B . ... : A#3 0B . ... : --- .. . ... : ... .. . ... : ... .. . ...
ROW 4E : ... .. . ... : ... .. . ... : ... .. . ... : ... .. . ... : ... .. . ...
ROW 4F : A#3 0B . ... : G-3 0B . ... : ... .. . ... : ... .. . ... : ... .. . ...
ROW 50 : ... .. . ... : ... .. . ... : ... .. . ... : ... .. . ... : D-3 00 . ...
ROW 51 : G-3 0B . ... : G-2 0B . ... : D-3 17 . ... : A-# 1B . ... : ... .. . ...
ROW 52 : ... .. . ... : ... .. . ... : ... .. . ... : ... .. . ... : E-3 00 . W09
ROW 53 : G-2 0B . ... : F-3 0B . ... : A-2 17 . ... : ... .. . ... : ... .. . ...
ROW 54 : ... .. . ... : ... .. . ... : ... .. . ... : ... .. . ... : D-3 00 . ...
ROW 55 : F-3 0B . ... : A#3 0B . ... : E-3 17 . ... : A-# 1B . ... : ... .. . ...
ROW 56 : ... .. . ... : ... .. . ... : ... .. . ... : ... .. . ... : D-3 00 . ...
ROW 57 : C-3 0B . ... : G-3 0B . ... : E-2 17 . ... : A-# 1B . ... : ... .. . ...

PATTERN 48
ROW 00 : ... .. . ... : ... .. . ... : ... .. . ... : ... .. . ... : C-3 00 . ...
ROW 01 : A#3 0B . ... : G-2 0B . ... : G-2 17 . ... : ... .. . ... : ... .. . ...
ROW 02 : ... .. . ... : ... .. . ... : ... .. . ... : ... .. . ... : ... .. . ...
ROW 03 : G-3 0B . ... : F-3 0B . ... : ... .. . ... : ... .. . ... : ... .. . ...
ROW 04 : ... .. . ... : ... .. . ... : ... .. . ... : ... .. . ... : ... .. . ...
ROW 05 : G-2 0B . ... : C-3 0B . ... : --- .. . ... : ... .. . ... : ... .. . ...
ROW 06 : ... .. . ... : ... .. . ... : ... .. . ... : ... .. . ... : ... .. . ...
ROW 07 : F-3 0B . ... : A#3 0B . ... : ... .. . ... : ... .. . ... : ... .. . ...
ROW 08 : ... .. . ... : ... .. . ... : ... .. . ... : ... .. . ... : D-3 00 . ...
ROW 09 : C-3 0B . ... : G-3 0B . ... : G-3 17 . ... : A-# 1B . ... : ... .. . ...
ROW 0A : ... .. . ... : ... .. . ... : ... .. . ... : ... .. . ... : ... .. . ...
ROW 0B : A#3 0B . ... : G-2 0B . ... : ... .. . ... : ... .. . ... : ... .. . ...
ROW 0C : ... .. . ... : ... .. . ... : ... .. . ... : ... .. . ... : ... .. . ...
ROW 0D : G-3 0B . ... : F-3 0B . ... : --- .. . ... : ... .. . ... : ... .. . ...
ROW 0E : ... .. . ... : ... .. . ... : ... .. . ... : ... .. . ... : ... .. . ...
ROW 0F : G-2 0B . ... : A#3 0B . ... : ... .. . ... : ... .. . ... : ... .. . ...
ROW 10 : ... .. . ... : ... .. . ... : ... .. . ... : ... .. . ... : C-3 00 . ...
ROW 11 : F-3 0B . ... : G-3 0B . ... : G-2 17 . ... : ... .. . ... : ... .. . ...
ROW 12 : ... .. . ... : ... .. . ... : ... .. . ... : ... .. . ... : ... .. . ...
ROW 13 : C-3 0B . ... : G-2 0B . ... : ... .. . ... : ... .. . ... : ... .. . ...
ROW 14 : ... .. . ... : ... .. . ... : ... .. . ... : ... .. . ... : ... .. . ...
ROW 15 : A#3 0B . ... : F-3 0B . ... : --- .. . ... : ... .. . ... : ... .. . ...
ROW 16 : ... .. . ... : ... .. . ... : ... .. . ... : ... .. . ... : ... .. . ...
ROW 17 : G-3 0B . ... : C-3 0B . ... : ... .. . ... : ... .. . ... : ... .. . ...
ROW 18 : ... .. . ... : ... .. . ... : ... .. . ... : ... .. . ... : D-3 00 . ...
ROW 19 : G-2 0B . ... : A#3 0B . ... : G-3 17 . ... : A-# 1B . ... : ... .. . ...
ROW 1A : ... .. . ... : ... .. . ... : ... .. . ... : ... .. . ... : ... .. . ...
ROW 1B : F-3 0B . ... : G-3 0B . ... : ... .. . ... : ... .. . ... : ... .. . ...
ROW 1C : ... .. . ... : ... .. . ... : ... .. . ... : ... .. . ... : ... .. . ...
ROW 1D : C-3 0B . ... : G-2 0B . ... : --- .. . ... : ... .. . ... : ... .. . ...
ROW 1E : ... .. . ... : ... .. . ... : ... .. . ... : ... .. . ... : ... .. . ...
ROW 1F : A#3 0B . ... : F-3 0B . ... : ... .. . ... : ... .. . ... : ... .. . ...
ROW 20 : ... .. . ... : ... .. . ... : ... .. . ... : ... .. . ... : C-3 00 . ...
ROW 21 : G-3 0B . ... : A#3 0B . ... : G-2 17 . ... : ... .. . ... : ... .. . ...
ROW 22 : ... .. . ... : ... .. . ... : ... .. . ... : ... .. . ... : ... .. . ...
ROW 23 : G-2 0B . ... : G-3 0B . ... : ... .. . ... : ... .. . ... : ... .. . ...
ROW 24 : ... .. . ... : ... .. . ... : ... .. . ... : ... .. . ... : ... .. . ...
ROW 25 : F-3 0B . ... : G-2 0B . ... : --- .. . ... : ... .. . ... : ... .. . ...
ROW 26 : ... .. . ... : ... .. . ... : ... .. . ... : ... .. . ... : ... .. . ...
ROW 27 : C-3 0B . ... : F-3 0B . ... : ... .. . ... : ... .. . ... : ... .. . ...
ROW 28 : ... .. . ... : ... .. . ... : ... .. . ... : ... .. . ... : D-3 00 . ...
ROW 29 : A#3 0B . ... : C-3 0B . ... : G-3 17 . ... : A-# 1B . ... : ... .. . ...
ROW 2A : ... .. . ... : ... .. . ... : ... .. . ... : ... .. . ... : ... .. . ...
ROW 2B : G-3 0B . ... : A#3 0B . ... : ... .. . ... : ... .. . ... : ... .. . ...
ROW 2C : ... .. . ... : ... .. . ... : ... .. . ... : ... .. . ... : ... .. . ...
ROW 2D : G-2 0B . ... : G-3 0B . ... : --- .. . ... : ... .. . ... : ... .. . ...
ROW 2E : ... .. . ... : ... .. . ... : ... .. . ... : ... .. . ... : ... .. . ...
ROW 2F : F-3 0B . ... : G-2 0B . ... : ... .. . ... : ... .. . ... : ... .. . ...
ROW 30 : ... .. . ... : ... .. . ... : ... .. . ... : ... .. . ... : C-3 00 . ...
ROW 31 : C-3 0B . ... : F-3 0B . ... : G-2 17 . ... : ... .. . ... : ... .. . ...
ROW 32 : ... .. . ... : ... .. . ... : ... .. . ... : ... .. . ... : ... .. . ...
ROW 33 : A#3 0B . ... : A#3 0B . ... : ... .. . ... : ... .. . ... : ... .. . ...
ROW 34 : ... .. . ... : ... .. . ... : ... .. . ... : ... .. . ... : ... .. . ...
ROW 35 : E-3 0B . ... : E-3 0B . ... : --- .. . ... : ... .. . ... : ... .. . ...
ROW 36 : ... .. . ... : ... .. . ... : ... .. . ... : ... .. . ... : ... .. . ...
ROW 37 : E-2 0B . ... : E-2 0B . ... : ... .. . ... : ... .. . ... : ... .. . ...
ROW 38 : ... .. . ... : ... .. . ... : ... .. . ... : ... .. . ... : D-3 00 . ...
ROW 39 : D-3 0B . ... : D-3 0B . ... : G-3 17 . ... : A-# 1B . ... : ... .. . ...
ROW 3A : ... .. . ... : ... .. . ... : ... .. . ... : ... .. . ... : ... .. . ...
ROW 3B : A-2 0B . ... : A-2 0B . ... : ... .. . ... : ... .. . ... : ... .. . ...
ROW 3C : ... .. . ... : ... .. . ... : ... .. . ... : ... .. . ... : ... .. . ...
ROW 3D : G-3 0B . ... : G-3 0B . ... : --- .. . ... : ... .. . ... : ... .. . ...
ROW 3E : ... .. . ... : ... .. . ... : ... .. . ... : ... .. . ... : ... .. . ...
ROW 3F : E-3 0B . ... : E-3 0B . ... : ... .. . ... : ... .. . ... : ... .. . ...
ROW 40 : ... .. . ... : ... .. . ... : ... .. . ... : ... .. . ... : C-3 00 . ...
ROW 41 : E-2 0B . ... : E-2 0B . ... : G-2 17 . ... : ... .. . ... : ... .. . ...
ROW 42 : ... .. . ... : ... .. . ... : ... .. . ... : ... .. . ... : ... .. . ...
ROW 43 : D-3 0B . ... : D-3 0B . ... : ... .. . ... : ... .. . ... : ... .. . ...
ROW 44 : ... .. . ... : ... .. . ... : ... .. . ... : ... .. . ... : ... .. . ...
ROW 45 : A-2 0B . ... : G-3 0B . ... : --- .. . ... : ... .. . ... : ... .. . ...
ROW 46 : ... .. . ... : ... .. . ... : ... .. . ... : ... .. . ... : ... .. . ...
ROW 47 : G-3 0B . ... : E-3 0B . ... : ... .. . ... : ... .. . ... : ... .. . ...
ROW 48 : ... .. . ... : ... .. . ... : ... .. . ... : ... .. . ... : D-3 00 . ...
ROW 49 : E-3 0B . ... : E-2 0B . ... : G-3 17 . ... : A-# 1B . ... : ... .. . ...
ROW 4A : ... .. . ... : ... .. . ... : ... .. . ... : ... .. . ... : ... .. . ...
ROW 4B : E-2 0B . ... : D-3 0B . ... : ... .. . ... : ... .. . ... : ... .. . ...
ROW 4C : ... .. . ... : ... .. . ... : ... .. . ... : ... .. . ... : ... .. . ...
ROW 4D : D-3 0B . ... : A-2 0B . ... : --- .. . ... : ... .. . ... : ... .. . ...
ROW 4E : ... .. . ... : ... .. . ... : ... .. . ... : ... .. . ... : ... .. . ...
ROW 4F : A-2 0B . ... : G-3 0B . ... : ... .. . ... : ... .. . ... : ... .. . ...
ROW 50 : ... .. . ... : ... .. . ... : ... .. . ... : ... .. . ... : D-3 00 . ...
ROW 51 : G-3 0B . ... : E-3 0B . ... : F-3 17 . ... : A-# 1B . ... : ... .. . ...
ROW 52 : ... .. . ... : ... .. . ... : ... .. . ... : ... .. . ... : E-3 00 . W09
ROW 53 : E-3 0B . ... : E-2 0B . ... : C-3 17 . ... : ... .. . ... : ... .. . ...
ROW 54 : ... .. . ... : ... .. . ... : ... .. . ... : ... .. . ... : D-3 00 . ...
ROW 55 : E-2 0B . ... : D-3 0B . ... : G-3 17 . ... : A-# 1B . ... : ... .. . ...
ROW 56 : ... .. . ... : ... .. . ... : ... .. . ... : ... .. . ... : D-3 00 . ...
ROW 57 : D-3 0B . ... : G-3 0B . ... : G-2 17 . ... : A-# 1B . ... : ... .. . ...

PATTERN 49
ROW 00 : ... .. . ... : ... .. . ... : ... .. . ... : ... .. . ... : C-3 00 . ...
ROW 01 : A-2 0B . ... : E-3 0B . ... : E-2 17 . ... : ... .. . ... : ... .. . ...
ROW 02 : ... .. . ... : ... .. . ... : ... .. . ... : ... .. . ... : ... .. . ...
ROW 03 : G-3 0B . ... : E-2 0B . ... : ... .. . ... : ... .. . ... : ... .. . ...
ROW 04 : ... .. . ... : ... .. . ... : ... .. . ... : ... .. . ... : ... .. . ...
ROW 05 : E-3 0B . ... : D-3 0B . ... : --- .. . ... : ... .. . ... : ... .. . ...
ROW 06 : ... .. . ... : ... .. . ... : ... .. . ... : ... .. . ... : ... .. . ...
ROW 07 : E-2 0B . ... : A-2 0B . ... : ... .. . ... : ... .. . ... : ... .. . ...
ROW 08 : ... .. . ... : ... .. . ... : ... .. . ... : ... .. . ... : D-3 00 . ...
ROW 09 : D-3 0B . ... : G-3 0B . ... : E-3 17 . ... : A-# 1B . ... : ... .. . ...
ROW 0A : ... .. . ... : ... .. . ... : ... .. . ... : ... .. . ... : ... .. . ...
ROW 0B : A-2 0B . ... : E-3 0B . ... : ... .. . ... : ... .. . ... : ... .. . ...
ROW 0C : ... .. . ... : ... .. . ... : ... .. . ... : ... .. . ... : ... .. . ...
ROW 0D : G-3 0B . ... : E-2 0B . ... : --- .. . ... : ... .. . ... : ... .. . ...
ROW 0E : ... .. . ... : ... .. . ... : ... .. . ... : ... .. . ... : ... .. . ...
ROW 0F : E-3 0B . ... : D-3 0B . ... : ... .. . ... : ... .. . ... : ... .. . ...
ROW 10 : ... .. . ... : ... .. . ... : ... .. . ... : ... .. . ... : C-3 00 . ...
ROW 11 : E-2 0B . ... : G-3 0B . ... : E-2 17 . ... : ... .. . ... : ... .. . ...
ROW 12 : ... .. . ... : ... .. . ... : ... .. . ... : ... .. . ... : ... .. . ...
ROW 13 : D-3 0B . ... : E-3 0B . ... : ... .. . ... : ... .. . ... : ... .. . ...
ROW 14 : ... .. . ... : ... .. . ... : ... .. . ... : ... .. . ... : ... .. . ...
ROW 15 : A-2 0B . ... : E-2 0B . ... : --- .. . ... : ... .. . ... : ... .. . ...
ROW 16 : ... .. . ... : ... .. . ... : ... .. . ... : ... .. . ... : ... .. . ...
ROW 17 : G-3 0B . ... : D-3 0B . ... : ... .. . ... : ... .. . ... : ... .. . ...
ROW 18 : ... .. . ... : ... .. . ... : ... .. . ... : ... .. . ... : D-3 00 . ...
ROW 19 : E-3 0B . ... : A-2 0B . ... : E-3 17 . ... : A-# 1B . ... : ... .. . ...
ROW 1A : ... .. . ... : ... .. . ... : ... .. . ... : ... .. . ... : ... .. . ...
ROW 1B : E-2 0B . ... : G-3 0B . ... : ... .. . ... : ... .. . ... : ... .. . ...
ROW 1C : ... .. . ... : ... .. . ... : ... .. . ... : ... .. . ... : ... .. . ...
ROW 1D : D-3 0B . ... : E-3 0B . ... : --- .. . ... : ... .. . ... : ... .. . ...
ROW 1E : ... .. . ... : ... .. . ... : ... .. . ... : ... .. . ... : ... .. . ...
ROW 1F : A-2 0B . ... : E-2 0B . ... : ... .. . ... : ... .. . ... : ... .. . ...
ROW 20 : ... .. . ... : ... .. . ... : ... .. . ... : ... .. . ... : C-3 00 . ...
ROW 21 : G-3 0B . ... : D-3 0B . ... : E-2 17 . ... : ... .. . ... : ... .. . ...
ROW 22 : ... .. . ... : ... .. . ... : ... .. . ... : ... .. . ... : ... .. . ...
ROW 23 : E-3 0B . ... : G-3 0B . ... : ... .. . ... : ... .. . ... : ... .. . ...
ROW 24 : ... .. . ... : ... .. . ... : ... .. . ... : ... .. . ... : ... .. . ...
ROW 25 : E-2 0B . ... : E-3 0B . ... : --- .. . ... : ... .. . ... : ... .. . ...
ROW 26 : ... .. . ... : ... .. . ... : ... .. . ... : ... .. . ... : ... .. . ...
ROW 27 : D-3 0B . ... : E-2 0B . ... : ... .. . ... : ... .. . ... : ... .. . ...
ROW 28 : ... .. . ... : ... .. . ... : ... .. . ... : ... .. . ... : D-3 00 . ...
ROW 29 : A-2 0B . ... : D-3 0B . ... : E-3 17 . ... : A-# 1B . ... : ... .. . ...
ROW 2A : ... .. . ... : ... .. . ... : ... .. . ... : ... .. . ... : ... .. . ...
ROW 2B : G-3 0B . ... : A-2 0B . ... : ... .. . ... : ... .. . ... : ... .. . ...
ROW 2C : ... .. . ... : ... .. . ... : ... .. . ... : ... .. . ... : ... .. . ...
ROW 2D : E-3 0B . ... : G-3 0B . ... : --- .. . ... : ... .. . ... : ... .. . ...
ROW 2E : ... .. . ... : ... .. . ... : ... .. . ... : ... .. . ... : ... .. . ...
ROW 2F : E-2 0B . ... : E-3 0B . ... : ... .. . ... : ... .. . ... : ... .. . ...
ROW 30 : ... .. . ... : ... .. . ... : ... .. . ... : ... .. . ... : C-3 00 . ...
ROW 31 : D-3 0B . ... : E-2 0B . ... : E-2 17 . ... : ... .. . ... : ... .. . ...
ROW 32 : ... .. . ... : ... .. . ... : ... .. . ... : ... .. . ... : ... .. . ...
ROW 33 : A-2 0B . ... : D-3 0B . ... : ... .. . ... : ... .. . ... : ... .. . ...
ROW 34 : ... .. . ... : ... .. . ... : ... .. . ... : ... .. . ... : ... .. . ...
ROW 35 : G-3 0B . ... : G-3 0B . ... : --- .. . ... : ... .. . ... : ... .. . ...
ROW 36 : ... .. . ... : ... .. . ... : ... .. . ... : ... .. . ... : ... .. . ...
ROW 37 : G-3 0B . ... : G-3 0B . ... : ... .. . ... : ... .. . ... : ... .. . ...
ROW 38 : ... .. . ... : ... .. . ... : ... .. . ... : ... .. . ... : D-3 00 . ...
ROW 39 : G-2 0B . ... : G-2 0B . ... : E-3 17 . ... : A-# 1B . ... : ... .. . ...
ROW 3A : ... .. . ... : ... .. . ... : ... .. . ... : ... .. . ... : ... .. . ...
ROW 3B : F-3 0B . ... : F-3 0B . ... : ... .. . ... : ... .. . ... : ... .. . ...
ROW 3C : ... .. . ... : ... .. . ... : ... .. . ... : ... .. . ... : ... .. . ...
ROW 3D : C-3 0B . ... : C-3 0B . ... : --- .. . ... : ... .. . ... : ... .. . ...
ROW 3E : ... .. . ... : ... .. . ... : ... .. . ... : ... .. . ... : ... .. . ...
ROW 3F : A#3 0B . ... : A#3 0B . ... : ... .. . ... : ... .. . ... : ... .. . ...
ROW 40 : ... .. . ... : ... .. . ... : ... .. . ... : ... .. . ... : C-3 00 . ...
ROW 41 : G-3 0B . ... : G-3 0B . ... : E-2 17 . ... : ... .. . ... : ... .. . ...
ROW 42 : ... .. . ... : ... .. . ... : ... .. . ... : ... .. . ... : ... .. . ...
ROW 43 : G-2 0B . ... : G-2 0B . ... : ... .. . ... : ... .. . ... : ... .. . ...
ROW 44 : ... .. . ... : ... .. . ... : ... .. . ... : ... .. . ... : ... .. . ...
ROW 45 : F-3 0B . ... : F-3 0B . ... : --- .. . ... : ... .. . ... : ... .. . ...
ROW 46 : ... .. . ... : ... .. . ... : ... .. . ... : ... .. . ... : ... .. . ...
ROW 47 : C-3 0B . ... : A#3 0B . ... : ... .. . ... : ... .. . ... : ... .. . ...
ROW 48 : ... .. . ... : ... .. . ... : ... .. . ... : ... .. . ... : D-3 00 . ...
ROW 49 : A#3 0B . ... : G-3 0B . ... : E-3 17 . ... : A-# 1B . ... : ... .. . ...
ROW 4A : ... .. . ... : ... .. . ... : ... .. . ... : ... .. . ... : ... .. . ...
ROW 4B : G-3 0B . ... : G-2 0B . ... : ... .. . ... : ... .. . ... : ... .. . ...
ROW 4C : ... .. . ... : ... .. . ... : ... .. . ... : ... .. . ... : ... .. . ...
ROW 4D : G-2 0B . ... : F-3 0B . ... : --- .. . ... : ... .. . ... : ... .. . ...
ROW 4E : ... .. . ... : ... .. . ... : ... .. . ... : ... .. . ... : ... .. . ...
ROW 4F : F-3 0B . ... : C-3 0B . ... : ... .. . ... : ... .. . ... : ... .. . ...
ROW 50 : ... .. . ... : ... .. . ... : ... .. . ... : ... .. . ... : D-3 00 . ...
ROW 51 : C-3 0B . ... : A#3 0B . ... : D-3 17 . ... : A-# 1B . ... : ... .. . ...
ROW 52 : ... .. . ... : ... .. . ... : ... .. . ... : ... .. . ... : E-3 00 . W09
ROW 53 : A#3 0B . ... : G-3 0B . ... : A-2 17 . ... : ... .. . ... : ... .. . ...
ROW 54 : ... .. . ... : ... .. . ... : ... .. . ... : ... .. . ... : D-3 00 . ...
ROW 55 : G-3 0B . ... : G-2 0B . ... : E-3 17 . ... : A-# 1B . ... : ... .. . ...
ROW 56 : ... .. . ... : ... .. . ... : ... .. . ... : ... .. . ... : D-3 00 . ...
ROW 57 : G-2 0B . ... : F-3 0B . ... : E-2 17 . ... : A-# 1B . ... : ... .. . ...

PATTERN 4A
ROW 00 : ... .. . ... : ... .. . ... : ... .. . ... : ... .. . ... : C-3 00 . ...
ROW 01 : F-3 0B . ... : A#3 0B . ... : G-2 17 . ... : ... .. . ... : ... .. . ...
ROW 02 : ... .. . ... : ... .. . ... : ... .. . ... : ... .. . ... : ... .. . ...
ROW 03 : C-3 0B . ... : G-3 0B . ... : ... .. . ... : ... .. . ... : ... .. . ...
ROW 04 : ... .. . ... : ... .. . ... : ... .. . ... : ... .. . ... : ... .. . ...
ROW 05 : A#3 0B . ... : G-2 0B . ... : --- .. . ... : ... .. . ... : ... .. . ...
ROW 06 : ... .. . ... : ... .. . ... : ... .. . ... : ... .. . ... : ... .. . ...
ROW 07 : G-3 0B . ... : F-3 0B . ... : ... .. . ... : ... .. . ... : ... .. . ...
ROW 08 : ... .. . ... : ... .. . ... : ... .. . ... : ... .. . ... : D-3 00 . ...
ROW 09 : G-2 0B . ... : C-3 0B . ... : G-3 17 . ... : A-# 1B . ... : ... .. . ...
ROW 0A : ... .. . ... : ... .. . ... : ... .. . ... : ... .. . ... : ... .. . ...
ROW 0B : F-3 0B . ... : A#3 0B . ... : ... .. . ... : ... .. . ... : ... .. . ...
ROW 0C : ... .. . ... : ... .. . ... : ... .. . ... : ... .. . ... : ... .. . ...
ROW 0D : C-3 0B . ... : G-3 0B . ... : --- .. . ... : ... .. . ... : ... .. . ...
ROW 0E : ... .. . ... : ... .. . ... : ... .. . ... : ... .. . ... : ... .. . ...
ROW 0F : A#3 0B . ... : G-2 0B . ... : ... .. . ... : ... .. . ... : ... .. . ...
ROW 10 : ... .. . ... : ... .. . ... : ... .. . ... : ... .. . ... : C-3 00 . ...
ROW 11 : G-3 0B . ... : F-3 0B . ... : G-2 17 . ... : ... .. . ... : ... .. . ...
ROW 12 : ... .. . ... : ... .. . ... : ... .. . ... : ... .. . ... : ... .. . ...
ROW 13 : G-2 0B . ... : A#3 0B . ... : ... .. . ... : ... .. . ... : ... .. . ...
ROW 14 : ... .. . ... : ... .. . ... : ... .. . ... : ... .. . ... : ... .. . ...
ROW 15 : F-3 0B . ... : G-3 0B . ... : --- .. . ... : ... .. . ... : ... .. . ...
ROW 16 : ... .. . ... : ... .. . ... : ... .. . ... : ... .. . ... : ... .. . ...
ROW 17 : C-3 0B . ... : G-2 0B . ... : ... .. . ... : ... .. . ... : ... .. . ...
ROW 18 : ... .. . ... : ... .. . ... : ... .. . ... : ... .. . ... : D-3 00 . ...
ROW 19 : A#3 0B . ... : F-3 0B . ... : G-3 17 . ... : A-# 1B . ... : ... .. . ...
ROW 1A : ... .. . ... : ... .. . ... : ... .. . ... : ... .. . ... : ... .. . ...
ROW 1B : G-3 0B . ... : C-3 0B . ... : ... .. . ... : ... .. . ... : ... .. . ...
ROW 1C : ... .. . ... : ... .. . ... : ... .. . ... : ... .. . ... : ... .. . ...
ROW 1D : G-2 0B . ... : A#3 0B . ... : --- .. . ... : ... .. . ... : ... .. . ...
ROW 1E : ... .. . ... : ... .. . ... : ... .. . ... : ... .. . ... : ... .. . ...
ROW 1F : F-3 0B . ... : G-3 0B . ... : ... .. . ... : ... .. . ... : ... .. . ...
ROW 20 : ... .. . ... : ... .. . ... : ... .. . ... : ... .. . ... : C-3 00 . ...
ROW 21 : C-3 0B . ... : G-2 0B . ... : G-2 17 . ... : ... .. . ... : ... .. . ...
ROW 22 : ... .. . ... : ... .. . ... : ... .. . ... : ... .. . ... : ... .. . ...
ROW 23 : A#3 0B . ... : F-3 0B . ... : ... .. . ... : ... .. . ... : ... .. . ...
ROW 24 : ... .. . ... : ... .. . ... : ... .. . ... : ... .. . ... : ... .. . ...
ROW 25 : G-3 0B . ... : A#3 0B . ... : --- .. . ... : ... .. . ... : ... .. . ...
ROW 26 : ... .. . ... : ... .. . ... : ... .. . ... : ... .. . ... : ... .. . ...
ROW 27 : G-2 0B . ... : G-3 0B . ... : ... .. . ... : ... .. . ... : ... .. . ...
ROW 28 : ... .. . ... : ... .. . ... : ... .. . ... : ... .. . ... : D-3 00 . ...
ROW 29 : F-3 0B . ... : G-2 0B . ... : G-3 17 . ... : A-# 1B . ... : ... .. . ...
ROW 2A : ... .. . ... : ... .. . ... : ... .. . ... : ... .. . ... : ... .. . ...
ROW 2B : C-3 0B . ... : F-3 0B . ... : ... .. . ... : ... .. . ... : ... .. . ...
ROW 2C : ... .. . ... : ... .. . ... : ... .. . ... : ... .. . ... : ... .. . ...
ROW 2D : A#3 0B . ... : C-3 0B . ... : --- .. . ... : ... .. . ... : ... .. . ...
ROW 2E : ... .. . ... : ... .. . ... : ... .. . ... : ... .. . ... : ... .. . ...
ROW 2F : G-3 0B . ... : A#3 0B . ... : ... .. . ... : ... .. . ... : ... .. . ...
ROW 30 : ... .. . ... : ... .. . ... : ... .. . ... : ... .. . ... : C-3 00 . ...
ROW 31 : G-2 0B . ... : G-3 0B . ... : G-2 17 . ... : ... .. . ... : ... .. . ...
ROW 32 : ... .. . ... : ... .. . ... : ... .. . ... : ... .. . ... : ... .. . ...
ROW 33 : F-3 0B . ... : G-2 0B . ... : ... .. . ... : ... .. . ... : ... .. . ...
ROW 34 : ... .. . ... : ... .. . ... : ... .. . ... : ... .. . ... : ... .. . ...
ROW 35 : C-3 0B . ... : F-3 0B . ... : --- .. . ... : ... .. . ... : ... .. . ...
ROW 36 : ... .. . ... : ... .. . ... : ... .. . ... : ... .. . ... : ... .. . ...
ROW 37 : A#3 0B . ... : A#3 0B . ... : ... .. . ... : ... .. . ... : ... .. . ...
ROW 38 : ... .. . ... : ... .. . ... : ... .. . ... : ... .. . ... : D-3 00 . ...
ROW 39 : E-3 0B . ... : E-3 0B . ... : G-3 17 . ... : A-# 1B . ... : ... .. . ...
ROW 3A : ... .. . ... : ... .. . ... : ... .. . ... : ... .. . ... : ... .. . ...
ROW 3B : E-2 0B . ... : E-2 0B . ... : ... .. . ... : ... .. . ... : ... .. . ...
ROW 3C : ... .. . ... : ... .. . ... : ... .. . ... : ... .. . ... : ... .. . ...
ROW 3D : D-3 0B . ... : D-3 0B . ... : --- .. . ... : ... .. . ... : ... .. . ...
ROW 3E : ... .. . ... : ... .. . ... : ... .. . ... : ... .. . ... : ... .. . ...
ROW 3F : A-2 0B . ... : A-2 0B . ... : ... .. . ... : ... .. . ... : ... .. . ...
ROW 40 : ... .. . ... : ... .. . ... : ... .. . ... : ... .. . ... : C-3 00 . ...
ROW 41 : G-3 0B . ... : G-3 0B . ... : G-2 17 . ... : ... .. . ... : ... .. . ...
ROW 42 : ... .. . ... : ... .. . ... : ... .. . ... : ... .. . ... : ... .. . ...
ROW 43 : E-3 0B . ... : E-3 0B . ... : ... .. . ... : ... .. . ... : ... .. . ...
ROW 44 : ... .. . ... : ... .. . ... : ... .. . ... : ... .. . ... : ... .. . ...
ROW 45 : E-2 0B . ... : E-2 0B . ... : --- .. . ... : ... .. . ... : ... .. . ...
ROW 46 : ... .. . ... : ... .. . ... : ... .. . ... : ... .. . ... : ... .. . ...
ROW 47 : D-3 0B . ... : D-3 0B . ... : ... .. . ... : ... .. . ... : ... .. . ...
ROW 48 : ... .. . ... : ... .. . ... : ... .. . ... : ... .. . ... : D-3 00 . ...
ROW 49 : A-2 0B . ... : G-3 0B . ... : G-3 17 . ... : A-# 1B . ... : ... .. . ...
ROW 4A : ... .. . ... : ... .. . ... : ... .. . ... : ... .. . ... : ... .. . ...
ROW 4B : G-3 0B . ... : E-3 0B . ... : ... .. . ... : ... .. . ... : ... .. . ...
ROW 4C : ... .. . ... : ... .. . ... : ... .. . ... : ... .. . ... : ... .. . ...
ROW 4D : E-3 0B . ... : E-2 0B . ... : --- .. . ... : ... .. . ... : ... .. . ...
ROW 4E : ... .. . ... : ... .. . ... : ... .. . ... : ... .. . ... : ... .. . ...
ROW 4F : E-2 0B . ... : D-3 0B . ... : ... .. . ... : ... .. . ... : ... .. . ...
ROW 50 : ... .. . ... : ... .. . ... : ... .. . ... : ... .. . ... : D-3 00 . ...
ROW 51 : D-3 0B . ... : A-2 0B . ... : F-3 17 . ... : A-# 1B . ... : ... .. . ...
ROW 52 : ... .. . ... : ... .. . ... : ... .. . ... : ... .. . ... : E-3 00 . W09
ROW 53 : A-2 0B . ... : G-3 0B . ... : C-3 17 . ... : ... .. . ... : ... .. . ...
ROW 54 : ... .. . ... : ... .. . ... : ... .. . ... : ... .. . ... : D-3 00 . ...
ROW 55 : G-3 0B . ... : E-3 0B . ... : G-3 17 . ... : A-# 1B . ... : ... .. . ...
ROW 56 : ... .. . ... : ... .. . ... : ... .. . ... : ... .. . ... : D-3 00 . ...
ROW 57 : E-3 0B . ... : E-2 0B . ... : G-2 17 . ... : A-# 1B . ... : ... .. . ...

PATTERN 4B
ROW 00 : ... .. . ... : ... .. . ... : ... .. . ... : ... .. . ... : C-3 00 . ...
ROW 01 : E-2 0B . ... : D-3 0B . ... : E-2 17 . ... : ... .. . ... : ... .. . ...
ROW 02 : ... .. . ... : ... .. . ... : ... .. . ... : ... .. . ... : ... .. . ...
ROW 03 : D-3 0B . ... : G-3 0B . ... : ... .. . ... : ... .. . ... : ... .. . ...
ROW 04 : ... .. . ... : ... .. . ... : ... .. . ... : ... .. . ... : ... .. . ...
ROW 05 : A-2 0B . ... : E-3 0B . ... : --- .. . ... : ... .. . ... : ... .. . ...
ROW 06 : ... .. . ... : ... .. . ... : ... .. . ... : ... .. . ... : ... .. . ...
ROW 07 : G-3 0B . ... : E-2 0B . ... : ... .. . ... : ... .. . ... : ... .. . ...
ROW 08 : ... .. . ... : ... .. . ... : ... .. . ... : ... .. . ... : D-3 00 . ...
ROW 09 : E-3 0B . ... : D-3 0B . ... : E-3 17 . ... : A-# 1B . ... : ... .. . ...
ROW 0A : ... .. . ... : ... .. . ... : ... .. . ... : ... .. . ... : ... .. . ...
ROW 0B : E-2 0B . ... : A-2 0B . ... : ... .. . ... : ... .. . ... : ... .. . ...
ROW 0C : ... .. . ... : ... .. . ... : ... .. . ... : ... .. . ... : ... .. . ...
ROW 0D : D-3 0B . ... : G-3 0B . ... : --- .. . ... : ... .. . ... : ... .. . ...
ROW 0E : ... .. . ... : ... .. . ... : ... .. . ... : ... .. . ... : ... .. . ...
ROW 0F : A-2 0B . ... : E-3 0B . ... : ... .. . ... : ... .. . ... : ... .. . ...
ROW 10 : ... .. . ... : ... .. . ... : ... .. . ... : ... .. . ... : C-3 00 . ...
ROW 11 : G-3 0B . ... : E-2 0B . ... : E-2 17 . ... : ... .. . ... : ... .. . ...
ROW 12 : ... .. . ... : ... .. . ... : ... .. . ... : ... .. . ... : ... .. . ...
ROW 13 : E-3 0B . ... : D-3 0B . ... : ... .. . ... : ... .. . ... : ... .. . ...
ROW 14 : ... .. . ... : ... .. . ... : ... .. . ... : ... .. . ... : ... .. . ...
ROW 15 : E-2 0B . ... : G-3 0B . ... : --- .. . ... : ... .. . ... : ... .. . ...
ROW 16 : ... .. . ... : ... .. . ... : ... .. . ... : ... .. . ... : ... .. . ...
ROW 17 : D-3 0B . ... : E-3 0B . ... : ... .. . ... : ... .. . ... : ... .. . ...
ROW 18 : ... .. . ... : ... .. . ... : ... .. . ... : ... .. . ... : D-3 00 . ...
ROW 19 : A-2 0B . ... : E-2 0B . ... : E-3 17 . ... : A-# 1B . ... : ... .. . ...
ROW 1A : ... .. . ... : ... .. . ... : ... .. . ... : ... .. . ... : ... .. . ...
ROW 1B : G-3 0B . ... : D-3 0B . ... : ... .. . ... : ... .. . ... : ... .. . ...
ROW 1C : ... .. . ... : ... .. . ... : ... .. . ... : ... .. . ... : ... .. . ...
ROW 1D : E-3 0B . ... : A-2 0B . ... : --- .. . ... : ... .. . ... : ... .. . ...
ROW 1E : ... .. . ... : ... .. . ... : ... .. . ... : ... .. . ... : ... .. . ...
ROW 1F : E-2 0B . ... : G-3 0B . ... : ... .. . ... : ... .. . ... : ... .. . ...
ROW 20 : ... .. . ... : ... .. . ... : ... .. . ... : ... .. . ... : C-3 00 . ...
ROW 21 : D-3 0B . ... : E-3 0B . ... : E-2 17 . ... : ... .. . ... : ... .. . ...
ROW 22 : ... .. . ... : ... .. . ... : ... .. . ... : ... .. . ... : ... .. . ...
ROW 23 : A-2 0B . ... : E-2 0B . ... : ... .. . ... : ... .. . ... : ... .. . ...
ROW 24 : ... .. . ... : ... .. . ... : ... .. . ... : ... .. . ... : ... .. . ...
ROW 25 : G-3 0B . ... : D-3 0B . ... : --- .. . ... : ... .. . ... : ... .. . ...
ROW 26 : ... .. . ... : ... .. . ... : ... .. . ... : ... .. . ... : ... .. . ...
ROW 27 : E-3 0B . ... : G-3 0B . ... : ... .. . ... : ... .. . ... : ... .. . ...
ROW 28 : ... .. . ... : ... .. . ... : ... .. . ... : ... .. . ... : D-3 00 . ...
ROW 29 : E-2 0B . ... : E-3 0B . ... : E-3 17 . ... : A-# 1B . ... : ... .. . ...
ROW 2A : ... .. . ... : ... .. . ... : ... .. . ... : ... .. . ... : ... .. . ...
ROW 2B : D-3 0B . ... : E-2 0B . ... : ... .. . ... : ... .. . ... : ... .. . ...
ROW 2C : ... .. . ... : ... .. . ... : ... .. . ... : ... .. . ... : ... .. . ...
ROW 2D : A-2 0B . ... : D-3 0B . ... : --- .. . ... : ... .. . ... : ... .. . ...
ROW 2E : ... .. . ... : ... .. . ... : ... .. . ... : ... .. . ... : ... .. . ...
ROW 2F : G-3 0B . ... : A-2 0B . ... : ... .. . ... : ... .. . ... : ... .. . ...
ROW 30 : ... .. . ... : ... .. . ... : ... .. . ... : ... .. . ... : C-3 00 . ...
ROW 31 : E-3 0B . ... : G-3 0B . ... : E-2 17 . ... : ... .. . ... : ... .. . ...
ROW 32 : ... .. . ... : ... .. . ... : ... .. . ... : ... .. . ... : ... .. . ...
ROW 33 : E-2 0B . ... : E-3 0B . ... : ... .. . ... : ... .. . ... : ... .. . ...
ROW 34 : ... .. . ... : ... .. . ... : ... .. . ... : ... .. . ... : ... .. . ...
ROW 35 : D-3 0B . ... : E-2 0B . ... : --- .. . ... : ... .. . ... : ... .. . ...
ROW 36 : ... .. . ... : ... .. . ... : ... .. . ... : ... .. . ... : ... .. . ...
ROW 37 : A-2 0B . ... : D-3 0B . ... : ... .. . ... : ... .. . ... : ... .. . ...
ROW 38 : ... .. . ... : ... .. . ... : ... .. . ... : ... .. . ... : D-3 00 . ...
ROW 39 : G-3 0B . ... : G-3 0B . ... : E-3 17 . ... : A-# 1B . ... : ... .. . ...
ROW 3A : ... .. . ... : ... .. . ... : ... .. . ... : ... .. . ... : ... .. . ...
ROW 3B : G-3 0B . ... : G-3 0B . ... : ... .. . ... : ... .. . ... : ... .. . ...
ROW 3C : ... .. . ... : ... .. . ... : ... .. . ... : ... .. . ... : ... .. . ...
ROW 3D : G-2 0B . ... : G-2 0B . ... : --- .. . ... : ... .. . ... : ... .. . ...
ROW 3E : ... .. . ... : ... .. . ... : ... .. . ... : ... .. . ... : ... .. . ...
ROW 3F : F-3 0B . ... : F-3 0B . ... : ... .. . ... : ... .. . ... : ... .. . ...
ROW 40 : ... .. . ... : ... .. . ... : ... .. . ... : ... .. . ... : C-3 00 . ...
ROW 41 : C-3 0B . ... : C-3 0B . ... : E-2 17 . ... : ... .. . ... : ... .. . ...
ROW 42 : ... .. . ... : ... .. . ... : ... .. . ... : ... .. . ... : ... .. . ...
ROW 43 : A#3 0B . ... : A#3 0B . ... : ... .. . ... : ... .. . ... : ... .. . ...
ROW 44 : ... .. . ... : ... .. . ... : ... .. . ... : ... .. . ... : ... .. . ...
ROW 45 : G-3 0B . ... : G-3 0B . ... : --- .. . ... : ... .. . ... : ... .. . ...
ROW 46 : ... .. . ... : ... .. . ... : ... .. . ... : ... .. . ... : ... .. . ...
ROW 47 : G-2 0B . ... : G-2 0B . ... : ... .. . ... : ... .. . ... : ... .. . ...
ROW 48 : ... .. . ... : ... .. . ... : ... .. . ... : ... .. . ... : D-3 00 . ...
ROW 49 : F-3 0B . ... : F-3 0B . ... : E-3 17 . ... : A-# 1B . ... : ... .. . ...
ROW 4A : ... .. . ... : ... .. . ... : ... .. . ... : ... .. . ... : ... .. . ...
ROW 4B : C-3 0B . ... : A#3 0B . ... : ... .. . ... : ... .. . ... : ... .. . ...
ROW 4C : ... .. . ... : ... .. . ... : ... .. . ... : ... .. . ... : ... .. . ...
ROW 4D : A#3 0B . ... : G-3 0B . ... : --- .. . ... : ... .. . ... : ... .. . ...
ROW 4E : ... .. . ... : ... .. . ... : ... .. . ... : ... .. . ... : ... .. . ...
ROW 4F : G-3 0B . ... : G-2 0B . ... : ... .. . ... : ... .. . ... : ... .. . ...
ROW 50 : ... .. . ... : ... .. . ... : ... .. . ... : ... .. . ... : D-3 00 . ...
ROW 51 : G-2 0B . ... : F-3 0B . ... : D-3 17 . ... : A-# 1B . ... : ... .. . ...
ROW 52 : ... .. . ... : ... .. . ... : ... .. . ... : ... .. . ... : E-3 00 . W09
ROW 53 : F-3 0B . ... : C-3 0B . ... : A-2 17 . ... : ... .. . ... : ... .. . ...
ROW 54 : ... .. . ... : ... .. . ... : ... .. . ... : ... .. . ... : D-3 00 . ...
ROW 55 : C-3 0B . ... : A#3 0B . ... : E-3 17 . ... : A-# 1B . ... : ... .. . ...
ROW 56 : ... .. . ... : ... .. . ... : ... .. . ... : ... .. . ... : D-3 00 . ...
ROW 57 : A#3 0B . ... : G-3 0B . ... : E-2 17 . ... : A-# 1B . ... : ... .. . ...

PATTERN 4C
ROW 00 : ... .. . ... : ... .. . ... : ... .. . ... : ... .. . ... : C-3 00 . ...
ROW 01 : G-3 0B . ... : G-2 0B . ... : G-2 17 . ... : ... .. . ... : ... .. . ...
ROW 02 : ... .. . ... : ... .. . ... : ... .. . ... : ... .. . ... : ... .. . ...
ROW 03 : G-2 0B . ... : F-3 0B . ... : ... .. . ... : ... .. . ... : ... .. . ...
ROW 04 : ... .. . ... : ... .. . ... : ... .. . ... : ... .. . ... : ... .. . ...
ROW 05 : F-3 0B . ... : A#3 0B . ... : --- .. . ... : ... .. . ... : ... .. . ...
ROW 06 : ... .. . ... : ... .. . ... : ... .. . ... : ... .. . ... : ... .. . ...
ROW 07 : C-3 0B . ... : G-3 0B . ... : ... .. . ... : ... .. . ... : ... .. . ...
ROW 08 : ... .. . ... : ... .. . ... : ... .. . ... : ... .. . ... : D-3 00 . ...
ROW 09 : A#3 0B . ... : G-2 0B . ... : G-3 17 . ... : A-# 1B . ... : ... .. . ...
ROW 0A : ... .. . ... : ... .. . ... : ... .. . ... : ... .. . ... : ... .. . ...
ROW 0B : G-3 0B . ... : F-3 0B . ... : ... .. . ... : ... .. . ... : ... .. . ...
ROW 0C : ... .. . ... : ... .. . ... : ... .. . ... : ... .. . ... : ... .. . ...
ROW 0D : G-2 0B . ... : C-3 0B . ... : --- .. . ... : ... .. . ... : ... .. . ...
ROW 0E : ... .. . ... : ... .. . ... : ... .. . ... : ... .. . ... : ... .. . ...
ROW 0F : F-3 0B . ... : A#3 0B . ... : ... .. . ... : ... .. . ... : ... .. . ...
ROW 10 : ... .. . ... : ... .. . ... : ... .. . ... : ... .. . ... : C-3 00 . ...
ROW 11 : C-3 0B . ... : G-3 0B . ... : G-2 17 . ... : ... .. . ... : ... .. . ...
ROW 12 : ... .. . ... : ... .. . ... : ... .. . ... : ... .. . ... : ... .. . ...
ROW 13 : A#3 0B . ... : G-2 0B . ... : ... .. . ... : ... .. . ... : ... .. . ...
ROW 14 : ... .. . ... : ... .. . ... : ... .. . ... : ... .. . ... : ... .. . ...
ROW 15 : G-3 0B . ... : F-3 0B . ... : --- .. . ... : ... .. . ... : ... .. . ...
ROW 16 : ... .. . ... : ... .. . ... : ... .. . ... : ... .. . ... : ... .. . ...
ROW 17 : G-2 0B . ... : A#3 0B . ... : ... .. . ... : ... .. . ... : ... .. . ...
ROW 18 : ... .. . ... : ... .. . ... : ... .. . ... : ... .. . ... : D-3 00 . ...
ROW 19 : F-3 0B . ... : G-3 0B . ... : G-3 17 . ... : A-# 1B . ... : ... .. . ...
ROW 1A : ... .. . ... : ... .. . ... : ... .. . ... : ... .. . ... : ... .. . ...
ROW 1B : C-3 0B . ... : G-2 0B . ... : ... .. . ... : ... .. . ... : ... .. . ...
ROW 1C : ... .. . ... : ... .. . ... : ... .. . ... : ... .. . ... : ... .. . ...
ROW 1D : A#3 0B . ... : F-3 0B . ... : --- .. . ... : ... .. . ... : ... .. . ...
ROW 1E : ... .. . ... : ... .. . ... : ... .. . ... : ... .. . ... : ... .. . ...
ROW 1F : G-3 0B . ... : C-3 0B . ... : ... .. . ... : ... .. . ... : ... .. . ...
ROW 20 : ... .. . ... : ... .. . ... : ... .. . ... : ... .. . ... : C-3 00 . ...
ROW 21 : G-2 0B . ... : A#3 0B . ... : G-2 17 . ... : ... .. . ... : ... .. . ...
ROW 22 : ... .. . ... : ... .. . ... : ... .. . ... : ... .. . ... : ... .. . ...
ROW 23 : F-3 0B . ... : G-3 0B . ... : ... .. . ... : ... .. . ... : ... .. . ...
ROW 24 : ... .. . ... : ... .. . ... : ... .. . ... : ... .. . ... : ... .. . ...
ROW 25 : C-3 0B . ... : G-2 0B . ... : --- .. . ... : ... .. . ... : ... .. . ...
ROW 26 : ... .. . ... : ... .. . ... : ... .. . ... : ... .. . ... : ... .. . ...
ROW 27 : A#3 0B . ... : F-3 0B . ... : ... .. . ... : ... .. . ... : ... .. . ...
ROW 28 : ... .. . ... : ... .. . ... : ... .. . ... : ... .. . ... : D-3 00 . ...
ROW 29 : G-3 0B . ... : A#3 0B . ... : G-3 17 . ... : A-# 1B . ... : ... .. . ...
ROW 2A : ... .. . ... : ... .. . ... : ... .. . ... : ... .. . ... : ... .. . ...
ROW 2B : G-2 0B . ... : G-3 0B . ... : ... .. . ... : ... .. . ... : ... .. . ...
ROW 2C : ... .. . ... : ... .. . ... : ... .. . ... : ... .. . ... : ... .. . ...
ROW 2D : F-3 0B . ... : G-2 0B . ... : --- .. . ... : ... .. . ... : ... .. . ...
ROW 2E : ... .. . ... : ... .. . ... : ... .. . ... : ... .. . ... : ... .. . ...
ROW 2F : C-3 0B . ... : F-3 0B . ... : ... .. . ... : ... .. . ... : ... .. . ...
ROW 30 : ... .. . ... : ... .. . ... : ... .. . ... : ... .. . ... : C-3 00 . ...
ROW 31 : A#3 0B . ... : C-3 0B . ... : G-2 17 . ... : ... .. . ... : ... .. . ...
ROW 32 : ... .. . ... : ... .. . ... : ... .. . ... : ... .. . ... : ... .. . ...
ROW 33 : G-3 0B . ... : A#3 0B . ... : ... .. . ... : ... .. . ... : ... .. . ...
ROW 34 : ... .. . ... : ... .. . ... : ... .. . ... : ... .. . ... : ... .. . ...
ROW 35 : G-2 0B . ... : G-3 0B . ... : --- .. . ... : ... .. . ... : ... .. . ...
ROW 36 : ... .. . ... : ... .. . ... : ... .. . ... : ... .. . ... : ... .. . ...
ROW 37 : F-3 0B . ... : G-2 0B . ... : ... .. . ... : ... .. . ... : ... .. . ...
ROW 38 : ... .. . ... : ... .. . ... : ... .. . ... : ... .. . ... : D-3 00 . ...
ROW 39 : C-3 0B . ... : F-3 0B . ... : G-3 17 . ... : A-# 1B . ... : ... .. . ...
ROW 3A : ... .. . ... : ... .. . ... : ... .. . ... : ... .. . ... : ... .. . ...
ROW 3B : A#3 0B . ... : A#3 0B . ... : ... .. . ... : ... .. . ... : ... .. . ...
ROW 3C : ... .. . ... : ... .. . ... : ... .. . ... : ... .. . ... : ... .. . ...
ROW 3D : E-3 0B . ... : E-3 0B . ... : --- .. . ... : ... .. . ... : ... .. . ...
ROW 3E : ... .. . ... : ... .. . ... : ... .. . ... : ... .. . ... : ... .. . ...
ROW 3F : E-2 0B . ... : E-2 0B . ... : ... .. . ... : ... .. . ... : ... .. . ...
ROW 40 : ... .. . ... : ... .. . ... : ... .. . ... : ... .. . ... : C-3 00 . ...
ROW 41 : D-3 0B . ... : D-3 0B . ... : G-2 17 . ... : ... .. . ... : ... .. . ...
ROW 42 : ... .. . ... : ... .. . ... : ... .. . ... : ... .. . ... : ... .. . ...
ROW 43 : A-2 0B . ... : A-2 0B . ... : ... .. . ... : ... .. . ... : ... .. . ...
ROW 44 : ... .. . ... : ... .. . ... : ... .. . ... : ... .. . ... : ... .. . ...
ROW 45 : G-3 0B . ... : G-3 0B . ... : --- .. . ... : ... .. . ... : ... .. . ...
ROW 46 : ... .. . ... : ... .. . ... : ... .. . ... : ... .. . ... : ... .. . ...
ROW 47 : E-3 0B . ... : E-3 0B . ... : ... .. . ... : ... .. . ... : ... .. . ...
ROW 48 : ... .. . ... : ... .. . ... : ... .. . ... : ... .. . ... : D-3 00 . ...
ROW 49 : E-2 0B . ... : E-2 0B . ... : G-3 17 . ... : A-# 1B . ... : ... .. . ...
ROW 4A : ... .. . ... : ... .. . ... : ... .. . ... : ... .. . ... : ... .. . ...
ROW 4B : D-3 0B . ... : D-3 0B . ... : ... .. . ... : ... .. . ... : ... .. . ...
ROW 4C : ... .. . ... : ... .. . ... : ... .. . ... : ... .. . ... : ... .. . ...
ROW 4D : A-2 0B . ... : G-3 0B . ... : --- .. . ... : ... .. . ... : ... .. . ...
ROW 4E : ... .. . ... : ... .. . ... : ... .. . ... : ... .. . ... : ... .. . ...
ROW 4F : G-3 0B . ... : E-3 0B . ... : ... .. . ... : ... .. . ... : ... .. . ...
ROW 50 : ... .. . ... : ... .. . ... : ... .. . ... : ... .. . ... : D-3 00 . ...
ROW 51 : E-3 0B . ... : E-2 0B . ... : F-3 17 . ... : A-# 1B . ... : ... .. . ...
ROW 52 : ... .. . ... : ... .. . ... : ... .. . ... : ... .. . ... : E-3 00 . W09
ROW 53 : E-2 0B . ... : D-3 0B . ... : C-3 17 . ... : ... .. . ... : ... .. . ...
ROW 54 : ... .. . ... : ... .. . ... : ... .. . ... : ... .. . ... : D-3 00 . ...
ROW 55 : D-3 0B . ... : A-2 0B . ... : G-3 17 . ... : A-# 1B . ... : ... .. . ...
ROW 56 : ... .. . ... : ... .. . ... : ... .. . ... : ... .. . ... : D-3 00 . ...
ROW 57 : A-2 0B . ... : G-3 0B . ... : G-2 17 . ... : A-# 1B . ... : ... .. . ...

PATTERN 4D
ROW 00 : ... .. . ... : ... .. . ... : ... .. . ... : ... .. . ... : C-3 00 . ...
ROW 01 : G-3 0B . ... : E-3 0B . ... : E-2 17 . ... : ... .. . ... : ... .. . ...
ROW 02 : ... .. . ... : ... .. . ... : ... .. . ... : ... .. . ... : ... .. . ...
ROW 03 : E-3 0B . ... : E-2 0B . ... : ... .. . ... : ... .. . ... : ... .. . ...
ROW 04 : ... .. . ... : ... .. . ... : ... .. . ... : ... .. . ... : ... .. . ...
ROW 05 : E-2 0B . ... : D-3 0B . ... : --- .. . ... : ... .. . ... : ... .. . ...
ROW 06 : ... .. . ... : ... .. . ... : ... .. . ... : ... .. . ... : ... .. . ...
ROW 07 : D-3 0B . ... : G-3 0B . ... : ... .. . ... : ... .. . ... : ... .. . ...
ROW 08 : ... .. . ... : ... .. . ... : ... .. . ... : ... .. . ... : D-3 00 . ...
ROW 09 : A-2 0B . ... : E-3 0B . ... : E-3 17 . ... : A-# 1B . ... : ... .. . ...
ROW 0A : ... .. . ... : ... .. . ... : ... .. . ... : ... .. . ... : ... .. . ...
ROW 0B : G-3 0B . ... : E-2 0B . ... : ... .. . ... : ... .. . ... : ... .. . ...
ROW 0C : ... .. . ... : ... .. . ... : ... .. . ... : ... .. . ... : ... .. . ...
ROW 0D : E-3 0B . ... : D-3 0B . ... : --- .. . ... : ... .. . ... : ... .. . ...
ROW 0E : ... .. . ... : ... .. . ... : ... .. . ... : ... .. . ... : ... .. . ...
ROW 0F : E-2 0B . ... : A-2 0B . ... : ... .. . ... : ... .. . ... : ... .. . ...
ROW 10 : ... .. . ... : ... .. . ... : ... .. . ... : ... .. . ... : C-3 00 . ...
ROW 11 : D-3 0B . ... : G-3 0B . ... : E-2 17 . ... : ... .. . ... : ... .. . ...
ROW 12 : ... .. . ... : ... .. . ... : ... .. . ... : ... .. . ... : ... .. . ...
ROW 13 : A-2 0B . ... : E-3 0B . ... : ... .. . ... : ... .. . ... : ... .. . ...
ROW 14 : ... .. . ... : ... .. . ... : ... .. . ... : ... .. . ... : ... .. . ...
ROW 15 : G-3 0B . ... : E-2 0B . ... : --- .. . ... : ... .. . ... : ... .. . ...
ROW 16 : ... .. . ... : ... .. . ... : ... .. . ... : ... .. . ... : ... .. . ...
ROW 17 : E-3 0B . ... : D-3 0B . ... : ... .. . ... : ... .. . ... : ... .. . ...
ROW 18 : ... .. . ... : ... .. . ... : ... .. . ... : ... .. . ... : D-3 00 . ...
ROW 19 : E-2 0B . ... : G-3 0B . ... : E-3 17 . ... : A-# 1B . ... : ... .. . ...
ROW 1A : ... .. . ... : ... .. . ... : ... .. . ... : ... .. . ... : ... .. . ...
ROW 1B : D-3 0B . ... : E-3 0B . ... : ... .. . ... : ... .. . ... : ... .. . ...
ROW 1C : ... .. . ... : ... .. . ... : ... .. . ... : ... .. . ... : ... .. . ...
ROW 1D : A-2 0B . ... : E-2 0B . ... : --- .. . ... : ... .. . ... : ... .. . ...
ROW 1E : ... .. . ... : ... .. . ... : ... .. . ... : ... .. . ... : ... .. . ...
ROW 1F : G-3 0B . ... : D-3 0B . ... : ... .. . ... : ... .. . ... : ... .. . ...
ROW 20 : ... .. . ... : ... .. . ... : ... .. . ... : ... .. . ... : C-3 00 . ...
ROW 21 : E-3 0B . ... : A-2 0B . ... : E-2 17 . ... : ... .. . ... : ... .. . ...
ROW 22 : ... .. . ... : ... .. . ... : ... .. . ... : ... .. . ... : ... .. . ...
ROW 23 : E-2 0B . ... : G-3 0B . ... : ... .. . ... : ... .. . ... : ... .. . ...
ROW 24 : ... .. . ... : ... .. . ... : ... .. . ... : ... .. . ... : ... .. . ...
ROW 25 : D-3 0B . ... : E-3 0B . ... : --- .. . ... : ... .. . ... : ... .. . ...
ROW 26 : ... .. . ... : ... .. . ... : ... .. . ... : ... .. . ... : ... .. . ...
ROW 27 : A-2 0B . ... : E-2 0B . ... : ... .. . ... : ... .. . ... : ... .. . ...
ROW 28 : ... .. . ... : ... .. . ... : ... .. . ... : ... .. . ... : D-3 00 . ...
ROW 29 : G-3 0B . ... : D-3 0B . ... : E-3 17 . ... : A-# 1B . ... : ... .. . ...
ROW 2A : ... .. . ... : ... .. . ... : ... .. . ... : ... .. . ... : ... .. . ...
ROW 2B : E-3 0B . ... : G-3 0B . ... : ... .. . ... : ... .. . ... : ... .. . ...
ROW 2C : ... .. . ... : ... .. . ... : ... .. . ... : ... .. . ... : ... .. . ...
ROW 2D : E-2 0B . ... : E-3 0B . ... : --- .. . ... : ... .. . ... : ... .. . ...
ROW 2E : ... .. . ... : ... .. . ... : ... .. . ... : ... .. . ... : ... .. . ...
ROW 2F : D-3 0B . ... : E-2 0B . ... : ... .. . ... : ... .. . ... : ... .. . ...
ROW 30 : ... .. . ... : ... .. . ... : ... .. . ... : ... .. . ... : C-3 00 . ...
ROW 31 : A-2 0B . ... : D-3 0B . ... : E-2 17 . ... : ... .. . ... : ... .. . ...
ROW 32 : ... .. . ... : ... .. . ... : ... .. . ... : ... .. . ... : ... .. . ...
ROW 33 : G-3 0B . ... : A-2 0B . ... : ... .. . ... : ... .. . ... : ... .. . ...
ROW 34 : ... .. . ... : ... .. . ... : ... .. . ... : ... .. . ... : ... .. . ...
ROW 35 : E-3 0B . ... : G-3 0B . ... : --- .. . ... : ... .. . ... : ... .. . ...
ROW 36 : ... .. . ... : ... .. . ... : ... .. . ... : ... .. . ... : ... .. . ...
ROW 37 : E-2 0B . ... : E-3 0B . ... : ... .. . ... : ... .. . ... : ... .. . ...
ROW 38 : ... .. . ... : ... .. . ... : ... .. . ... : ... .. . ... : D-3 00 . ...
ROW 39 : D-3 0B . ... : E-2 0B . ... : E-3 17 . ... : A-# 1B . ... : ... .. . ...
ROW 3A : ... .. . ... : ... .. . ... : ... .. . ... : ... .. . ... : ... .. . ...
ROW 3B : A-2 0B . ... : D-3 0B . ... : ... .. . ... : ... .. . ... : ... .. . ...
ROW 3C : ... .. . ... : ... .. . ... : ... .. . ... : ... .. . ... : ... .. . ...
ROW 3D : G-3 0B . ... : G-3 0B . ... : --- .. . ... : ... .. . ... : ... .. . ...
ROW 3E : ... .. . ... : ... .. . ... : ... .. . ... : ... .. . ... : ... .. . ...
ROW 3F : G-3 0B . ... : G-3 0B . ... : ... .. . ... : ... .. . ... : ... .. . ...
ROW 40 : ... .. . ... : ... .. . ... : ... .. . ... : ... .. . ... : C-3 00 . ...
ROW 41 : G-2 0B . ... : G-2 0B . ... : E-2 17 . ... : ... .. . ... : ... .. . ...
ROW 42 : ... .. . ... : ... .. . ... : ... .. . ... : ... .. . ... : ... .. . ...
ROW 43 : F-3 0B . ... : F-3 0B . ... : ... .. . ... : ... .. . ... : ... .. . ...
ROW 44 : ... .. . ... : ... .. . ... : ... .. . ... : ... .. . ... : ... .. . ...
ROW 45 : C-3 0B . ... : C-3 0B . ... : --- .. . ... : ... .. . ... : ... .. . ...
ROW 46 : ... .. . ... : ... .. . ... : ... .. . ... : ... .. . ... : ... .. . ...
ROW 47 : A#3 0B . ... : A#3 0B . ... : ... .. . ... : ... .. . ... : ... .. . ...
ROW 48 : ... .. . ... : ... .. . ... : ... .. . ... : ... .. . ... : D-3 00 . ...
ROW 49 : G-3 0B . ... : G-3 0B . ... : E-3 17 . ... : A-# 1B . ... : ... .. . ...
ROW 4A : ... .. . ... : ... .. . ... : ... .. . ... : ... .. . ... : ... .. . ...
ROW 4B : G-2 0B . ... : G-2 0B . ... : ... .. . ... : ... .. . ... : ... .. . ...
ROW 4C : ... .. . ... : ... .. . ... : ... .. . ... : ... .. . ... : ... .. . ...
ROW 4D : F-3 0B . ... : F-3 0B . ... : --- .. . ... : ... .. . ... : ... .. . ...
ROW 4E : ... .. . ... : ... .. . ... : ... .. . ... : ... .. . ... : ... .. . ...
ROW 4F : C-3 0B . ... : A#3 0B . ... : ... .. . ... : ... .. . ... : ... .. . ...
ROW 50 : ... .. . ... : ... .. . ... : ... .. . ... : ... .. . ... : D-3 00 . ...
ROW 51 : A#3 0B . ... : G-3 0B . ... : D-3 17 . ... : A-# 1B . ... : ... .. . ...
ROW 52 : ... .. . ... : ... .. . ... : ... .. . ... : ... .. . ... : E-3 00 . W09
ROW 53 : G-3 0B . ... : G-2 0B . ... : A-2 17 . ... : ... .. . ... : ... .. . ...
ROW 54 : ... .. . ... : ... .. . ... : ... .. . ... : ... .. . ... : D-3 00 . ...
ROW 55 : G-2 0B . ... : F-3 0B . ... : E-3 17 . ... : A-# 1B . ... : ... .. . ...
ROW 56 : ... .. . ... : ... .. . ... : ... .. . ... : ... .. . ... : D-3 00 . ...
ROW 57 : F-3 0B . ... : C-3 0B . ... : E-2 17 . ... : A-# 1B . ... : ... .. . ...

PATTERN 4E
ROW 00 : ... .. . ... : ... .. . ... : ... .. . ... : ... .. . ... : C-3 00 . ...
ROW 01 : C-3 0B . ... : A#3 0B . ... : G-2 17 . ... : ... .. . ... : ... .. . ...
ROW 02 : ... .. . ... : ... .. . ... : ... .. . ... : ... .. . ... : ... .. . ...
ROW 03 : A#3 0B . ... : G-3 0B . ... : ... .. . ... : ... .. . ... : ... .. . ...
ROW 04 : ... .. . ... : ... .. . ... : ... .. . ... : ... .. . ... : ... .. . ...
ROW 05 : G-3 0B . ... : G-2 0B . ... : --- .. . ... : ... .. . ... : ... .. . ...
ROW 06 : ... .. . ... : ... .. . ... : ... .. . ... : ... .. . ... : ... .. . ...
ROW 07 : G-2 0B . ... : F-3 0B . ... : ... .. . ... : ... .. . ... : ... .. . ...
ROW 08 : ... .. . ... : ... .. . ... : ... .. . ... : ... .. . ... : D-3 00 . ...
ROW 09 : F-3 0B . ... : A#3 0B . ... : G-3 17 . ... : A-# 1B . ... : ... .. . ...
ROW 0A : ... .. . ... : ... .. . ... : ... .. . ... : ... .. . ... : ... .. . ...
ROW 0B : C-3 0B . ... : G-3 0B . ... : ... .. . ... : ... .. . ... : ... .. . ...
ROW 0C : ... .. . ... : ... .. . ... : ... .. . ... : ... .. . ... : ... .. . ...
ROW 0D : A#3 0B . ... : G-2 0B . ... : --- .. . ... : ... .. . ... : ... .. . ...
ROW 0E : ... .. . ... : ... .. . ... : ... .. . ... : ... .. . ... : ... .. . ...
ROW 0F : G-3 0B . ... : F-3 0B . ... : ... .. . ... : ... .. . ... : ... .. . ...
ROW 10 : ... .. . ... : ... .. . ... : ... .. . ... : ... .. . ... : C-3 00 . ...
ROW 11 : G-2 0B . ... : C-3 0B . ... : G-2 17 . ... : ... .. . ... : ... .. . ...
ROW 12 : ... .. . ... : ... .. . ... : ... .. . ... : ... .. . ... : ... .. . ...
ROW 13 : F-3 0B . ... : A#3 0B . ... : ... .. . ... : ... .. . ... : ... .. . ...
ROW 14 : ... .. . ... : ... .. . ... : ... .. . ... : ... .. . ... : ... .. . ...
ROW 15 : C-3 0B . ... : G-3 0B . ... : --- .. . ... : ... .. . ... : ... .. . ...
ROW 16 : ... .. . ... : ... .. . ... : ... .. . ... : ... .. . ... : ... .. . ...
ROW 17 : A#3 0B . ... : G-2 0B . ... : ... .. . ... : ... .. . ... : ... .. . ...
ROW 18 : ... .. . ... : ... .. . ... : ... .. . ... : ... .. . ... : D-3 00 . ...
ROW 19 : G-3 0B . ... : F-3 0B . ... : G-3 17 . ... : A-# 1B . ... : ... .. . ...
ROW 1A : ... .. . ... : ... .. . ... : ... .. . ... : ... .. . ... : ... .. . ...
ROW 1B : G-2 0B . ... : A#3 0B . ... : ... .. . ... : ... .. . ... : ... .. . ...
ROW 1C : ... .. . ... : ... .. . ... : ... .. . ... : ... .. . ... : ... .. . ...
ROW 1D : F-3 0B . ... : G-3 0B . ... : --- .. . ... : ... .. . ... : ... .. . ...
ROW 1E : ... .. . ... : ... .. . ... : ... .. . ... : ... .. . ... : ... .. . ...
ROW 1F : C-3 0B . ... : G-2 0B . ... : ... .. . ... : ... .. . ... : ... .. . ...
ROW 20 : ... .. . ... : ... .. . ... : ... .. . ... : ... .. . ... : C-3 00 . ...
ROW 21 : A#3 0B . ... : F-3 0B . ... : G-2 17 . ... : ... .. . ... : ... .. . ...
ROW 22 : ... .. . ... : ... .. . ... : ... .. . ... : ... .. . ... : ... .. . ...
ROW 23 : G-3 0B . ... : C-3 0B . ... : ... .. . ... : ... .. . ... : ... .. . ...
ROW 24 : ... .. . ... : ... .. . ... : ... .. . ... : ... .. . ... : ... .. . ...
ROW 25 : G-2 0B . ... : A#3 0B . ... : --- .. . ... : ... .. . ... : ... .. . ...
ROW 26 : ... .. . ... : ... .. . ... : ... .. . ... : ... .. . ... : ... .. . ...
ROW 27 : F-3 0B . ... : G-3 0B . ... : ... .. . ... : ... .. . ... : ... .. . ...
ROW 28 : ... .. . ... : ... .. . ... : ... .. . ... : ... .. . ... : D-3 00 . ...
ROW 29 : C-3 0B . ... : G-2 0B . ... : G-3 17 . ... : A-# 1B . ... : ... .. . ...
ROW 2A : ... .. . ... : ... .. . ... : ... .. . ... : ... .. . ... : ... .. . ...
ROW 2B : A#3 0B . ... : F-3 0B . ... : ... .. . ... : ... .. . ... : ... .. . ...
ROW 2C : ... .. . ... : ... .. . ... : ... .. . ... : ... .. . ... : ... .. . ...
ROW 2D : G-3 0B . ... : A#3 0B . ... : --- .. . ... : ... .. . ... : ... .. . ...
ROW 2E : ... .. . ... : ... .. . ... : ... .. . ... : ... .. . ... : ... .. . ...
ROW 2F : G-2 0B . ... : G-3 0B . ... : ... .. . ... : ... .. . ... : ... .. . ...
ROW 30 : ... .. . ... : ... .. . ... : ... .. . ... : ... .. . ... : C-3 00 . ...
ROW 31 : F-3 0B . ... : G-2 0B . ... : G-2 17 . ... : ... .. . ... : ... .. . ...
ROW 32 : ... .. . ... : ... .. . ... : ... .. . ... : ... .. . ... : ... .. . ...
ROW 33 : C-3 0B . ... : F-3 0B . ... : ... .. . ... : ... .. . ... : ... .. . ...
ROW 34 : ... .. . ... : ... .. . ... : ... .. . ... : ... .. . ... : ... .. . ...
ROW 35 : A#3 0B . ... : C-3 0B . ... : --- .. . ... : ... .. . ... : ... .. . ...
ROW 36 : ... .. . ... : ... .. . ... : ... .. . ... : ... .. . ... : ... .. . ...
ROW 37 : G-3 0B . ... : A#3 0B . ... : ... .. . ... : ... .. . ... : ... .. . ...
ROW 38 : ... .. . ... : ... .. . ... : ... .. . ... : ... .. . ... : D-3 00 . ...
ROW 39 : G-2 0B . ... : G-3 0B . ... : G-3 17 . ... : A-# 1B . ... : ... .. . ...
ROW 3A : ... .. . ... : ... .. . ... : ... .. . ... : ... .. . ... : ... .. . ...
ROW 3B : F-3 0B . ... : G-2 0B . ... : ... .. . ... : ... .. . ... : ... .. . ...
ROW 3C : ... .. . ... : ... .. . ... : ... .. . ... : ... .. . ... : ... .. . ...
ROW 3D : C-3 0B . ... : F-3 0B . ... : --- .. . ... : ... .. . ... : ... .. . ...
ROW 3E : ... .. . ... : ... .. . ... : ... .. . ... : ... .. . ... : ... .. . ...
ROW 3F : A#3 0B . ... : A#3 0B . ... : ... .. . ... : ... .. . ... : ... .. . ...
ROW 40 : ... .. . ... : ... .. . ... : ... .. . ... : ... .. . ... : C-3 00 . ...
ROW 41 : E-3 0B . ... : E-3 0B . ... : G-2 17 . ... : ... .. . ... : ... .. . ...
ROW 42 : ... .. . ... : ... .. . ... : ... .. . ... : ... .. . ... : ... .. . ...
ROW 43 : E-2 0B . ... : E-2 0B . ... : ... .. . ... : ... .. . ... : ... .. . ...
ROW 44 : ... .. . ... : ... .. . ... : ... .. . ... : ... .. . ... : ... .. . ...
ROW 45 : D-3 0B . ... : D-3 0B . ... : --- .. . ... : ... .. . ... : ... .. . ...
ROW 46 : ... .. . ... : ... .. . ... : ... .. . ... : ... .. . ... : ... .. . ...
ROW 47 : A-2 0B . ... : A-2 0B . ... : ... .. . ... : ... .. . ... : ... .. . ...
ROW 48 : ... .. . ... : ... .. . ... : ... .. . ... : ... .. . ... : D-3 00 . ...
ROW 49 : G-3 0B . ... : G-3 0B . ... : G-3 17 . ... : A-# 1B . ... : ... .. . ...
ROW 4A : ... .. . ... : ... .. . ... : ... .. . ... : ... .. . ... : ... .. . ...
ROW 4B : E-3 0B . ... : E-3 0B . ... : ... .. . ... : ... .. . ... : ... .. . ...
ROW 4C : ... .. . ... : ... .. . ... : ... .. . ... : ... .. . ... : ... .. . ...
ROW 4D : E-2 0B . ... : E-2 0B . ... : --- .. . ... : ... .. . ... : ... .. . ...
ROW 4E : ... .. . ... : ... .. . ... : ... .. . ... : ... .. . ... : ... .. . ...
ROW 4F : D-3 0B . ... : D-3 0B . ... : ... .. . ... : ... .. . ... : ... .. . ...
ROW 50 : ... .. . ... : ... .. . ... : ... .. . ... : ... .. . ... : D-3 00 . ...
ROW 51 : A-2 0B . ... : G-3 0B . ... : F-3 17 . ... : A-# 1B . ... : ... .. . ...
ROW 52 : ... .. . ... : ... .. . ... : ... .. . ... : ... .. . ... : E-3 00 . W09
ROW 53 : G-3 0B . ... : E-3 0B . ... : C-3 17 . ... : ... .. . ... : ... .. . ...
ROW 54 : ... .. . ... : ... .. . ... : ... .. . ... : ... .. . ... : D-3 00 . ...
ROW 55 : E-3 0B . ... : E-2 0B . ... : G-3 17 . ... : A-# 1B . ... : ... .. . ...
ROW 56 : ... .. . ... : ... .. . ... : ... .. . ... : ... .. . ... : D-3 00 . ...
ROW 57 : E-2 0B . ... : D-3 0B . ... : G-2 17 . ... : A-# 1B . ... : ... .. . ...

PATTERN 4F
ROW 00 : ... .. . ... : ... .. . ... : ... .. . ... : ... .. . ... : C-3 00 . ...
ROW 01 : D-3 0B . ... : A-2 0B . ... : E-2 17 . ... : ... .. . ... : ... .. . ...
ROW 02 : ... .. . ... : ... .. . ... : ... .. . ... : ... .. . ... : ... .. . ...
ROW 03 : A-2 0B . ... : G-3 0B . ... : ... .. . ... : ... .. . ... : ... .. . ...
ROW 04 : ... .. . ... : ... .. . ... : ... .. . ... : ... .. . ... : ... .. . ...
ROW 05 : G-3 0B . ... : E-3 0B . ... : --- .. . ... : ... .. . ... : ... .. . ...
ROW 06 : ... .. . ... : ... .. . ... : ... .. . ... : ... .. . ... : ... .. . ...
ROW 07 : E-3 0B . ... : E-2 0B . ... : ... .. . ... : ... .. . ... : ... .. . ...
ROW 08 : ... .. . ... : ... .. . ... : ... .. . ... : ... .. . ... : D-3 00 . ...
ROW 09 : E-2 0B . ... : D-3 0B . ... : E-3 17 . ... : A-# 1B . ... : ... .. . ...
ROW 0A : ... .. . ... : ... .. . ... : ... .. . ... : ... .. . ... : ... .. . ...
ROW 0B : D-3 0B . ... : G-3 0B . ... : ... .. . ... : ... .. . ... : ... .. . ...
ROW 0C : ... .. . ... : ... .. . ... : ... .. . ... : ... .. . ... : ... .. . ...
ROW 0D : A-2 0B . ... : E-3 0B . ... : --- .. . ... : ... .. . ... : ... .. . ...
ROW 0E : ... .. . ... : ... .. . ... : ... .. . ... : ... .. . ... : ... .. . ...
ROW 0F : G-3 0B . ... : E-2 0B . ... : ... .. . ... : ... .. . ... : ... .. . ...
ROW 10 : ... .. . ... : ... .. . ... : ... .. . ... : ... .. . ... : C-3 00 . ...
ROW 11 : E-3 0B . ... : D-3 0B . ... : E-2 17 . ... : ... .. . ... : ... .. . ...
ROW 12 : ... .. . ... : ... .. . ... : ... .. . ... : ... .. . ... : ... .. . ...
ROW 13 : E-2 0B . ... : A-2 0B . ... : ... .. . ... : ... .. . ... : ... .. . ...
ROW 14 : ... .. . ... : ... .. . ... : ... .. . ... : ... .. . ... : ... .. . ...
ROW 15 : D-3 0B . ... : G-3 0B . ... : --- .. . ... : ... .. . ... : ... .. . ...
ROW 16 : ... .. . ... : ... .. . ... : ... .. . ... : ... .. . ... : ... .. . ...
ROW 17 : A-2 0B . ... : E-3 0B . ... : ... .. . ... : ... .. . ... : ... .. . ...
ROW 18 : ... .. . ... : ... .. . ... : ... .. . ... : ... .. . ... : D-3 00 . ...
ROW 19 : G-3 0B . ... : E-2 0B . ... : E-3 17 . ... : A-# 1B . ... : ... .. . ...
ROW 1A : ... .. . ... : ... .. . ... : ... .. . ... : ... .. . ... : ... .. . ...
ROW 1B : E-3 0B . ... : D-3 0B . ... : ... .. . ... : ... .. . ... : ... .. . ...
ROW 1C : ... .. . ... : ... .. . ... : ... .. . ... : ... .. . ... : ... .. . ...
ROW 1D : E-2 0B . ... : G-3 0B . ... : --- .. . ... : ... .. . ... : ... .. . ...
ROW 1E : ... .. . ... : ... .. . ... : ... .. . ... : ... .. . ... : ... .. . ...
ROW 1F : D-3 0B . ... : E-3 0B . ... : ... .. . ... : ... .. . ... : ... .. . ...
ROW 20 : ... .. . ... : ... .. . ... : ... .. . ... : ... .. . ... : C-3 00 . ...
ROW 21 : A-2 0B . ... : E-2 0B . ... : E-2 17 . ... : ... .. . ... : ... .. . ...
ROW 22 : ... .. . ... : ... .. . ... : ... .. . ... : ... .. . ... : ... .. . ...
ROW 23 : G-3 0B . ... : D-3 0B . ... : ... .. . ... : ... .. . ... : ... .. . ...
ROW 24 : ... .. . ... : ... .. . ... : ... .. . ... : ... .. . ... : ... .. . ...
ROW 25 : E-3 0B . ... : A-2 0B . ... : --- .. . ... : ... .. . ... : ... .. . ...
ROW 26 : ... .. . ... : ... .. . ... : ... .. . ... : ... .. . ... : ... .. . ...
ROW 27 : E-2 0B . ... : G-3 0B . ... : ... .. . ... : ... .. . ... : ... .. . ...
ROW 28 : ... .. . ... : ... .. . ... : ... .. . ... : ... .. . ... : D-3 00 . ...
ROW 29 : D-3 0B . ... : E-3 0B . ... : E-3 17 . ... : A-# 1B . ... : ... .. . ...
ROW 2A : ... .. . ... : ... .. . ... : ... .. . ... : ... .. . ... : ... .. . ...
ROW 2B : A-2 0B . ... : E-2 0B . ... : ... .. . ... : ... .. . ... : ... .. . ...
ROW 2C : ... .. . ... : ... .. . ... : ... .. . ... : ... .. . ... : ... .. . ...
ROW 2D : G-3 0B . ... : D-3 0B . ... : --- .. . ... : ... .. . ... : ... .. . ...
ROW 2E : ... .. . ... : ... .. . ... : ... .. . ... : ... .. . ... : ... .. . ...
ROW 2F : E-3 0B . ... : G-3 0B . ... : ... .. . ... : ... .. . ... : ... .. . ...
ROW 30 : ... .. . ... : ... .. . ... : ... .. . ... : ... .. . ... : C-3 00 . ...
ROW 31 : E-2 0B . ... : E-3 0B . ... : E-2 17 . ... : ... .. . ... : ... .. . ...
ROW 32 : ... .. . ... : ... .. . ... : ... .. . ... : ... .. . ... : ... .. . ...
ROW 33 : D-3 0B . ... : E-2 0B . ... : ... .. . ... : ... .. . ... : ... .. . ...
ROW 34 : ... .. . ... : ... .. . ... : ... .. . ... : ... .. . ... : ... .. . ...
ROW 35 : A-2 0B . ... : D-3 0B . ... : --- .. . ... : ... .. . ... : ... .. . ...
ROW 36 : ... .. . ... : ... .. . ... : ... .. . ... : ... .. . ... : ... .. . ...
ROW 37 : G-3 0B . ... : A-2 0B . ... : ... .. . ... : ... .. . ... : ... .. . ...
ROW 38 : ... .. . ... : ... .. . ... : ... .. . ... : ... .. . ... : D-3 00 . ...
ROW 39 : E-3 0B . ... : G-3 0B . ... : E-3 17 . ... : A-# 1B . ... : ... .. . ...
ROW 3A : ... .. . ... : ... .. . ... : ... .. . ... : ... .. . ... : ... .. . ...
ROW 3B : E-2 0B . ... : E-3 0B . ... : ... .. . ... : ... .. . ... : ... .. . ...
ROW 3C : ... .. . ... : ... .. . ... : ... .. . ... : ... .. . ... : ... .. . ...
ROW 3D : D-3 0B . ... : E-2 0B . ... : --- .. . ... : ... .. . ... : ... .. . ...
ROW 3E : ... .. . ... : ... .. . ... : ... .. . ... : ... .. . ... : ... .. . ...
ROW 3F : A-2 0B . ... : D-3 0B . ... : ... .. . ... : ... .. . ... : ... .. . ...
ROW 40 : ... .. . ... : ... .. . ... : ... .. . ... : ... .. . ... : C-3 00 . ...
ROW 41 : G-3 0B . ... : G-3 0B . ... : E-2 17 . ... : ... .. . ... : ... .. . ...
ROW 42 : ... .. . ... : ... .. . ... : ... .. . ... : ... .. . ... : ... .. . ...
ROW 43 : G-3 0B . ... : G-3 0B . ... : ... .. . ... : ... .. . ... : ... .. . ...
ROW 44 : ... .. . ... : ... .. . ... : ... .. . ... : ... .. . ... : ... .. . ...
ROW 45 : G-2 0B . ... : G-2 0B . ... : --- .. . ... : ... .. . ... : ... .. . ...
ROW 46 : ... .. . ... : ... .. . ... : ... .. . ... : ... .. . ... : ... .. . ...
ROW 47 : F-3 0B . ... : F-3 0B . ... : ... .. . ... : ... .. . ... : ... .. . ...
ROW 48 : ... .. . ... : ... .. . ... : ... .. . ... : ... .. . ... : D-3 00 . ...
ROW 49 : C-3 0B . ... : C-3 0B . ... : E-3 17 . ... : A-# 1B . ... : ... .. . ...
ROW 4A : ... .. . ... : ... .. . ... : ... .. . ... : ... .. . ... : ... .. . ...
ROW 4B : A#3 0B . ... : A#3 0B . ... : ... .. . ... : ... .. . ... : ... .. . ...
ROW 4C : ... .. . ... : ... .. . ... : ... .. . ... : ... .. . ... : ... .. . ...
ROW 4D : G-3 0B . ... : G-3 0B . ... : --- .. . ... : ... .. . ... : ... .. . ...
ROW 4E : ... .. . ... : ... .. . ... : ... .. . ... : ... .. . ... : ... .. . ...
ROW 4F : G-2 0B . ... : G-2 0B . ... : ... .. . ... : ... .. . ... : ... .. . ...
ROW 50 : ... .. . ... : ... .. . ... : ... .. . ... : ... .. . ... : D-3 00 . ...
ROW 51 : F-3 0B . ... : F-3 0B . ... : D-3 17 . ... : A-# 1B . ... : ... .. . ...
ROW 52 : ... .. . ... : ... .. . ... : ... .. . ... : ... .. . ... : E-3 00 . W09
ROW 53 : C-3 0B . ... : A#3 0B . ... : A-2 17 . ... : ... .. . ... : ... .. . ...
ROW 54 : ... .. . ... : ... .. . ... : ... .. . ... : ... .. . ... : D-3 00 . ...
ROW 55 : A#3 0B . ... : G-3 0B . ... : E-3 17 . ... : A-# 1B . ... : ... .. . ...
ROW 56 : ... .. . ... : ... .. . ... : ... .. . ... : ... .. . ... : D-3 00 . ...
ROW 57 : G-3 0B . ... : G-2 0B . ... : E-2 17 . ... : A-# 1B . ... : ... .. . ...

PATTERN 50
ROW 00 : ... .. . ... : ... .. . ... : ... .. . ... : ... .. . ... : C-3 00 . ...
ROW 01 : G-2 0B . ... : F-3 0B . ... : G-2 17 . ... : ... .. . ... : ... .. . ...
ROW 02 : ... .. . ... : ... .. . ... : ... .. . ... : ... .. . ... : ... .. . ...
ROW 03 : F-3 0B . ... : C-3 0B . ... : ... .. . ... : ... .. . ... : ... .. . ...
ROW 04 : ... .. . ... : ... .. . ... : ... .. . ... : ... .. . ... : ... .. . ...
ROW 05 : C-3 0B . ... : A#3 0B . ... : --- .. . ... : ... .. . ... : ... .. . ...
ROW 06 : ... .. . ... : ... .. . ... : ... .. . ... : ... .. . ... : ... .. . ...
ROW 07 : A#3 0B . ... : G-3 0B . ... : ... .. . ... : ... .. . ... : ... .. . ...
ROW 08 : ... .. . ... : ... .. . ... : ... .. . ... : ... .. . ... : D-3 00 . ...
ROW 09 : G-3 0B . ... : G-2 0B . ... : G-3 17 . ... : A-# 1B . ... : ... .. . ...
ROW 0A : ... .. . ... : ... .. . ... : ... .. . ... : ... .. . ... : ... .. . ...
ROW 0B : G-2 0B . ... : F-3 0B . ... : ... .. . ... : ... .. . ... : ... .. . ...
ROW 0C : ... .. . ... : ... .. . ... : ... .. . ... : ... .. . ... : ... .. . ...
ROW 0D : F-3 0B . ... : A#3 0B . ... : --- .. . ... : ... .. . ... : ... .. . ...
ROW 0E : ... .. . ... : ... .. . ... : ... .. . ... : ... .. . ... : ... .. . ...
ROW 0F : C-3 0B . ... : G-3 0B . ... : ... .. . ... : ... .. . ... : ... .. . ...
ROW 10 : ... .. . ... : ... .. . ... : ... .. . ... : ... .. . ... : C-3 00 . ...
ROW 11 : A#3 0B . ... : G-2 0B . ... : G-2 17 . ... : ... .. . ... : ... .. . ...
ROW 12 : ... .. . ... : ... .. . ... : ... .. . ... : ... .. . ... : ... .. . ...
ROW 13 : G-3 0B . ... : F-3 0B . ... : ... .. . ... : ... .. . ... : ... .. . ...
ROW 14 : ... .. . ... : ... .. . ... : ... .. . ... : ... .. . ... : ... .. . ...
ROW 15 : G-2 0B . ... : C-3 0B . ... : --- .. . ... : ... .. . ... : ... .. . ...
ROW 16 : ... .. . ... : ... .. . ... : ... .. . ... : ... .. . ... : ... .. . ...
ROW 17 : F-3 0B . ... : A#3 0B . ... : ... .. . ... : ... .. . ... : ... .. . ...
ROW 18 : ... .. . ... : ... .. . ... : ... .. . ... : ... .. . ... : D-3 00 . ...
ROW 19 : C-3 0B . ... : G-3 0B . ... : G-3 17 . ... : A-# 1B . ... : ... .. . ...
ROW 1A : ... .. . ... : ... .. . ... : ... .. . ... : ... .. . ... : ... .. . ...
ROW 1B : A#3 0B . ... : G-2 0B . ... : ... .. . ... : ... .. . ... : ... .. . ...
ROW 1C : ... .. . ... : ... .. . ... : ... .. . ... : ... .. . ... : ... .. . ...
ROW 1D : G-3 0B . ... : F-3 0B . ... : --- .. . ... : ... .. . ... : ... .. . ...
ROW 1E : ... .. . ... : ... .. . ... : ... .. . ... : ... .. . ... : ... .. . ...
ROW 1F : G-2 0B . ... : A#3 0B . ... : ... .. . ... : ... .. . ... : ... .. . ...
ROW 20 : ... .. . ... : ... .. . ... : ... .. . ... : ... .. . ... : C-3 00 . ...
ROW 21 : F-3 0B . ... : G-3 0B . ... : G-2 17 . ... : ... .. . ... : ... .. . ...
ROW 22 : ... .. . ... : ... .. . ... : ... .. . ... : ... .. . ... : ... .. . ...
ROW 23 : C-3 0B . ... : G-2 0B . ... : ... .. . ... : ... .. . ... : ... .. . ...
ROW 24 : ... .. . ... : ... .. . ... : ... .. . ... : ... .. . ... : ... .. . ...
ROW 25 : A#3 0B . ... : F-3 0B . ... : --- .. . ... : ... .. . ... : ... .. . ...
ROW 26 : ... .. . ... : ... .. . ... : ... .. . ... : ... .. . ... : ... .. . ...
ROW 27 : G-3 0B . ... : C-3 0B . ... : ... .. . ... : ... .. . ... : ... .. . ...
ROW 28 : ... .. . ... : ... .. . ... : ... .. . ... : ... .. . ... : D-3 00 . ...
ROW 29 : G-2 0B . ... : A#3 0B . ... : G-3 17 . ... : A-# 1B . ... : ... .. . ...
ROW 2A : ... .. . ... : ... .. . ... : ... .. . ... : ... .. . ... : ... .. . ...
ROW 2B : F-3 0B . ... : G-3 0B . ... : ... .. . ... : ... .. . ... : ... .. . ...
ROW 2C : ... .. . ... : ... .. . ... : ... .. . ... : ... .. . ... : ... .. . ...
ROW 2D : C-3 0B . ... : G-2 0B . ... : --- .. . ... : ... .. . ... : ... .. . ...
ROW 2E : ... .. . ... : ... .. . ... : ... .. . ... : ... .. . ... : ... .. . ...
ROW 2F : A#3 0B . ... : F-3 0B . ... : ... .. . ... : ... .. . ... : ... .. . ...
ROW 30 : ... .. . ... : ... .. . ... : ... .. . ... : ... .. . ... : C-3 00 . ...
ROW 31 : G-3 0B . ... : A#3 0B . ... : G-2 17 . ... : ... .. . ... : ... .. . ...
ROW 32 : ... .. . ... : ... .. . ... : ... .. . ... : ... .. . ... : ... .. . ...
ROW 33 : G-2 0B . ... : G-3 0B . ... : ... .. . ... : ... .. . ... : ... .. . ...
ROW 34 : ... .. . ... : ... .. . ... : ... .. . ... : ... .. . ... : ... .. . ...
ROW 35 : F-3 0B . ... : G-2 0B . ... : --- .. . ... : ... .. . ... : ... .. . ...
ROW 36 : ... .. . ... : ... .. . ... : ... .. . ... : ... .. . ... : ... .. . ...
ROW 37 : C-3 0B . ... : F-3 0B . ... : ... .. . ... : ... .. . ... : ... .. . ...
ROW 38 : ... .. . ... : ... .. . ... : ... .. . ... : ... .. . ... : D-3 00 . ...
ROW 39 : A#3 0B . ... : C-3 0B . ... : G-3 17 . ... : A-# 1B . ... : ... .. . ...
ROW 3A : ... .. . ... : ... .. . ... : ... .. . ... : ... .. . ... : ... .. . ...
ROW 3B : G-3 0B . ... : A#3 0B . ... : ... .. . ... : ... .. . ... : ... .. . ...
ROW 3C : ... .. . ... : ... .. . ... : ... .. . ... : ... .. . ... : ... .. . ...
ROW 3D : G-2 0B . ... : G-3 0B . ... : --- .. . ... : ... .. . ... : ... .. . ...
ROW 3E : ... .. . ... : ... .. . ... : ... .. . ... : ... .. . ... : ... .. . ...
ROW 3F : F-3 0B . ... : G-2 0B . ... : ... .. . ... : ... .. . ... : ... .. . ...
ROW 40 : ... .. . ... : ... .. . ... : ... .. . ... : ... .. . ... : C-3 00 . ...
ROW 41 : C-3 0B . ... : F-3 0B . ... : G-2 17 . ... : ... .. . ... : ... .. . ...
ROW 42 : ... .. . ... : ... .. . ... : ... .. . ... : ... .. . ... : ... .. . ...
ROW 43 : A#3 0B . ... : A#3 0B . ... : ... .. . ... : ... .. . ... : ... .. . ...
ROW 44 : ... .. . ... : ... .. . ... : ... .. . ... : ... .. . ... : ... .. . ...
ROW 45 : E-3 0B . ... : E-3 0B . ... : --- .. . ... : ... .. . ... : ... .. . ...
ROW 46 : ... .. . ... : ... .. . ... : ... .. . ... : ... .. . ... : ... .. . ...
ROW 47 : E-2 0B . ... : E-2 0B . ... : ... .. . ... : ... .. . ... : ... .. . ...
ROW 48 : ... .. . ... : ... .. . ... : ... .. . ... : ... .. . ... : D-3 00 . ...
ROW 49 : D-3 0B . ... : D-3 0B . ... : G-3 17 . ... : A-# 1B . ... : ... .. . ...
ROW 4A : ... .. . ... : ... .. . ... : ... .. . ... : ... .. . ... : ... .. . ...
ROW 4B : A-2 0B . ... : A-2 0B . ... : ... .. . ... : ... .. . ... : ... .. . ...
ROW 4C : ... .. . ... : ... .. . ... : ... .. . ... : ... .. . ... : ... .. . ...
ROW 4D : G-3 0B . ... : G-3 0B . ... : --- .. . ... : ... .. . ... : ... .. . ...
ROW 4E : ... .. . ... : ... .. . ... : ... .. . ... : ... .. . ... : ... .. . ...
ROW 4F : E-3 0B . ... : E-3 0B . ... : ... .. . ... : ... .. . ... : ... .. . ...
ROW 50 : ... .. . ... : ... .. . ... : ... .. . ... : ... .. . ... : D-3 00 . ...
ROW 51 : E-2 0B . ... : E-2 0B . ... : F-3 17 . ... : A-# 1B . ... : ... .. . ...
ROW 52 : ... .. . ... : ... .. . ... : ... .. . ... : ... .. . ... : E-3 00 . W09
ROW 53 : D-3 0B . ... : D-3 0B . ... : C-3 17 . ... : ... .. . ... : ... .. . ...
ROW 54 : ... .. . ... : ... .. . ... : ... .. . ... : ... .. . ... : D-3 00 . ...
ROW 55 : A-2 0B . ... : G-3 0B . ... : G-3 17 . ... : A-# 1B . ... : ... .. . ...
ROW 56 : ... .. . ... : ... .. . ... : ... .. . ... : ... .. . ... : D-3 00 . ...
ROW 57 : G-3 0B . ... : E-3 0B . ... : G-2 17 . ... : A-# 1B . ... : ... .. . ...

PATTERN 51
ROW 00 : ... .. . ... : ... .. . ... : ... .. . ... : ... .. . ... : C-3 00 . ...
ROW 01 : E-3 0B . ... : E-2 0B . ... : E-2 17 . ... : ... .. . ... : ... .. . ...
ROW 02 : ... .. . ... : ... .. . ... : ... .. . ... : ... .. . ... : ... .. . ...
ROW 03 : E-2 0B . ... : D-3 0B . ... : ... .. . ... : ... .. . ... : ... .. . ...
ROW 04 : ... .. . ... : ... .. . ... : ... .. . ... : ... .. . ... : ... .. . ...
ROW 05 : D-3 0B . ... : A-2 0B . ... : --- .. . ... : ... .. . ... : ... .. . ...
ROW 06 : ... .. . ... : ... .. . ... : ... .. . ... : ... .. . ... : ... .. . ...
ROW 07 : A-2 0B . ... : G-3 0B . ... : ... .. . ... : ... .. . ... : ... .. . ...
ROW 08 : ... .. . ... : ... .. . ... : ... .. . ... : ... .. . ... : D-3 00 . ...
ROW 09 : G-3 0B . ... : E-3 0B . ... : E-3 17 . ... : A-# 1B . ... : ... .. . ...
ROW 0A : ... .. . ... : ... .. . ... : ... .. . ... : ... .. . ... : ... .. . ...
ROW 0B : E-3 0B . ... : E-2 0B . ... : ... .. . ... : ... .. . ... : ... .. . ...
ROW 0C : ... .. . ... : ... .. . ... : ... .. . ... : ... .. . ... : ... .. . ...
ROW 0D : E-2 0B . ... : D-3 0B . ... : --- .. . ... : ... .. . ... : ... .. . ...
ROW 0E : ... .. . ... : ... .. . ... : ... .. . ... : ... .. . ... : ... .. . ...
ROW 0F : D-3 0B . ... : G-3 0B . ... : ... .. . ... : ... .. . ... : ... .. . ...
ROW 10 : ... .. . ... : ... .. . ... : ... .. . ... : ... .. . ... : C-3 00 . ...
ROW 11 : A-2 0B . ... : E-3 0B . ... : E-2 17 . ... : ... .. . ... : ... .. . ...
ROW 12 : ... .. . ... : ... .. . ... : ... .. . ... : ... .. . ... : ... .. . ...
ROW 13 : G-3 0B . ... : E-2 0B . ... : ... .. . ... : ... .. . ... : ... .. . ...
ROW 14 : ... .. . ... : ... .. . ... : ... .. . ... : ... .. . ... : ... .. . ...
ROW 15 : E-3 0B . ... : D-3 0B . ... : --- .. . ... : ... .. . ... : ... .. . ...
ROW 16 : ... .. . ... : ... .. . ... : ... .. . ... : ... .. . ... : ... .. . ...
ROW 17 : E-2 0B . ... : A-2 0B . ... : ... .. . ... : ... .. . ... : ... .. . ...
ROW 18 : ... .. . ... : ... .. . ... : ... .. . ... : ... .. . ... : D-3 00 . ...
ROW 19 : D-3 0B . ... : G-3 0B . ... : E-3 17 . ... : A-# 1B . ... : ... .. . ...
ROW 1A : ... .. . ... : ... .. . ... : ... .. . ... : ... .. . ... : ... .. . ...
ROW 1B : A-2 0B . ... : E-3 0B . ... : ... .. . ... : ... .. . ... : ... .. . ...
ROW 1C : ... .. . ... : ... .. . ... : ... .. . ... : ... .. . ... : ... .. . ...
ROW 1D : G-3 0B . ... : E-2 0B . ... : --- .. . ... : ... .. . ... : ... .. . ...
ROW 1E : ... .. . ... : ... .. . ... : ... .. . ... : ... .. . ... : ... .. . ...
ROW 1F : E-3 0B . ... : D-3 0B . ... : ... .. . ... : ... .. . ... : ... .. . ...
ROW 20 : ... .. . ... : ... .. . ... : ... .. . ... : ... .. . ... : C-3 00 . ...
ROW 21 : E-2 0B . ... : G-3 0B . ... : E-2 17 . ... : ... .. . ... : ... .. . ...
ROW 22 : ... .. . ... : ... .. . ... : ... .. . ... : ... .. . ... : ... .. . ...
ROW 23 : D-3 0B . ... : E-3 0B . ... : ... .. . ... : ... .. . ... : ... .. . ...
ROW 24 : ... .. . ... : ... .. . ... : ... .. . ... : ... .. . ... : ... .. . ...
ROW 25 : A-2 0B . ... : E-2 0B . ... : --- .. . ... : ... .. . ... : ... .. . ...
ROW 26 : ... .. . ... : ... .. . ... : ... .. . ... : ... .. . ... : ... .. . ...
ROW 27 : G-3 0B . ... : D-3 0B . ... : ... .. . ... : ... .. . ... : ... .. . ...
ROW 28 : ... .. . ... : ... .. . ... : ... .. . ... : ... .. . ... : D-3 00 . ...
ROW 29 : E-3 0B . ... : A-2 0B . ... : E-3 17 . ... : A-# 1B . ... : ... .. . ...
ROW 2A : ... .. . ... : ... .. . ... : ... .. . ... : ... .. . ... : ... .. . ...
ROW 2B : E-2 0B . ... : G-3 0B . ... : ... .. . ... : ... .. . ... : ... .. . ...
ROW 2C : ... .. . ... : ... .. . ... : ... .. . ... : ... .. . ... : ... .. . ...
ROW 2D : D-3 0B . ... : E-3 0B . ... : --- .. . ... : ... .. . ... : ... .. . ...
ROW 2E : ... .. . ... : ... .. . ... : ... .. . ... : ... .. . ... : ... .. . ...
ROW 2F : A-2 0B . ... : E-2 0B . ... : ... .. . ... : ... .. . ... : ... .. . ...
ROW 30 : ... .. . ... : ... .. . ... : ... .. . ... : ... .. . ... : C-3 00 . ...
ROW 31 : G-3 0B . ... : D-3 0B . ... : E-2 17 . ... : ... .. . ... : ... .. . ...
ROW 32 : ... .. . ... : ... .. . ... : ... .. . ... : ... .. . ... : ... .. . ...
ROW 33 : E-3 0B . ... : G-3 0B . ... : ... .. . ... : ... .. . ... : ... .. . ...
ROW 34 : ... .. . ... : ... .. . ... : ... .. . ... : ... .. . ... : ... .. . ...
ROW 35 : E-2 0B . ... : E-3 0B . ... : --- .. . ... : ... .. . ... : ... .. . ...
ROW 36 : ... .. . ... : ... .. . ... : ... .. . ... : ... .. . ... : ... .. . ...
ROW 37 : D-3 0B . ... : E-2 0B . ... : ... .. . ... : ... .. . ... : ... .. . ...
ROW 38 : ... .. . ... : ... .. . ... : ... .. . ... : ... .. . ... : D-3 00 . ...
ROW 39 : A-2 0B . ... : D-3 0B . ... : E-3 17 . ... : A-# 1B . ... : ... .. . ...
ROW 3A : ... .. . ... : ... .. . ... : ... .. . ... : ... .. . ... : ... .. . ...
ROW 3B : G-3 0B . ... : A-2 0B . ... : ... .. . ... : ... .. . ... : ... .. . ...
ROW 3C : ... .. . ... : ... .. . ... : ... .. . ... : ... .. . ... : ... .. . ...
ROW 3D : E-3 0B . ... : G-3 0B . ... : --- .. . ... : ... .. . ... : ... .. . ...
ROW 3E : ... .. . ... : ... .. . ... : ... .. . ... : ... .. . ... : ... .. . ...
ROW 3F : E-2 0B . ... : E-3 0B . ... : ... .. . ... : ... .. . ... : ... .. . ...
ROW 40 : ... .. . ... : ... .. . ... : ... .. . ... : ... .. . ... : C-3 00 . ...
ROW 41 : D-3 0B . ... : E-2 0B . ... : E-2 17 . ... : ... .. . ... : ... .. . ...
ROW 42 : ... .. . ... : ... .. . ... : ... .. . ... : ... .. . ... : ... .. . ...
ROW 43 : A-2 0B . ... : D-3 0B . ... : ... .. . ... : ... .. . ... : ... .. . ...
ROW 44 : ... .. . ... : ... .. . ... : ... .. . ... : ... .. . ... : ... .. . ...
ROW 45 : G-3 0B . ... : G-3 0B . ... : --- .. . ... : ... .. . ... : ... .. . ...
ROW 46 : ... .. . ... : ... .. . ... : ... .. . ... : ... .. . ... : ... .. . ...
ROW 47 : G-3 0B . ... : G-3 0B . ... : ... .. . ... : ... .. . ... : ... .. . ...
ROW 48 : ... .. . ... : ... .. . ... : ... .. . ... : ... .. . ... : D-3 00 . ...
ROW 49 : G-2 0B . ... : G-2 0B . ... : E-3 17 . ... : A-# 1B . ... : ... .. . ...
ROW 4A : ... .. . ... : ... .. . ... : ... .. . ... : ... .. . ... : ... .. . ...
ROW 4B : F-3 0B . ... : F-3 0B . ... : ... .. . ... : ... .. . ... : ... .. . ...
ROW 4C : ... .. . ... : ... .. . ... : ... .. . ... : ... .. . ... : ... .. . ...
ROW 4D : C-3 0B . ... : C-3 0B . ... : --- .. . ... : ... .. . ... : ... .. . ...
ROW 4E : ... .. . ... : ... .. . ... : ... .. . ... : ... .. . ... : ... .. . ...
ROW 4F : A#3 0B . ... : A#3 0B . ... : ... .. . ... : ... .. . ... : ... .. . ...
ROW 50 : ... .. . ... : ... .. . ... : ... .. . ... : ... .. . ... : D-3 00 . ...
ROW 51 : G-3 0B . ... : G-3 0B . ... : D-3 17 . ... : A-# 1B . ... : ... .. . ...
ROW 52 : ... .. . ... : ... .. . ... : ... .. . ... : ... .. . ... : E-3 00 . W09
ROW 53 : G-2 0B . ... : G-2 0B . ... : A-2 17 . ... : ... .. . ... : ... .. . ...
ROW 54 : ... .. . ... : ... .. . ... : ... .. . ... : ... .. . ... : D-3 00 . ...
ROW 55 : F-3 0B . ... : F-3 0B . ... : E-3 17 . ... : A-# 1B . ... : ... .. . ...
ROW 56 : ... .. . ... : ... .. . ... : ... .. . ... : ... .. . ... : D-3 00 . ...
ROW 57 : C-3 0B . ... : A#3 0B . ... : E-2 17 . ... : A-# 1B . ... : ... .. . ...

PATTERN 52
ROW 00 : ... .. . ... : ... .. . ... : ... .. . ... : ... .. . ... : C-3 00 . ...
ROW 01 : A#3 0B . ... : G-3 0B . ... : G-2 17 . ... : ... .. . ... : ... .. . ...
ROW 02 : ... .. . ... : ... .. . ... : ... .. . ... : ... .. . ... : ... .. . ...
ROW 03 : G-3 0B . ... : G-2 0B . ... : ... .. . ... : ... .. . ... : ... .. . ...
ROW 04 : ... .. . ... : ... .. . ... : ... .. . ... : ... .. . ... : ... .. . ...
ROW 05 : G-2 0B . ... : F-3 0B . ... : --- .. . ... : ... .. . ... : ... .. . ...
ROW 06 : ... .. . ... : ... .. . ... : ... .. . ... : ... .. . ... : ... .. . ...
ROW 07 : F-3 0B . ... : C-3 0B . ... : ... .. . ... : ... .. . ... : ... .. . ...
ROW 08 : ... .. . ... : ... .. . ... : ... .. . ... : ... .. . ... : D-3 00 . ...
ROW 09 : C-3 0B . ... : A#3 0B . ... : G-3 17 . ... : A-# 1B . ... : ... .. . ...
ROW 0A : ... .. . ... : ... .. . ... : ... .. . ... : ... .. . ... : ... .. . ...
ROW 0B : A#3 0B . ... : G-3 0B . ... : ... .. . ... : ... .. . ... : ... .. . ...
ROW 0C : ... .. . ... : ... .. . ... : ... .. . ... : ... .. . ... : ... .. . ...
ROW 0D : G-3 0B . ... : G-2 0B . ... : --- .. . ... : ... .. . ... : ... .. . ...
ROW 0E : ... .. . ... : ... .. . ... : ... .. . ... : ... .. . ... : ... .. . ...
ROW 0F : G-2 0B . ... : F-3 0B . ... : ... .. . ... : ... .. . ... : ... .. . ...
ROW 10 : ... .. . ... : ... .. . ... : ... .. . ... : ... .. . ... : C-3 00 . ...
ROW 11 : F-3 0B . ... : A#3 0B . ... : G-2 17 . ... : ... .. . ... : ... .. . ...
ROW 12 : ... .. . ... : ... .. . ... : ... .. . ... : ... .. . ... : ... .. . ...
ROW 13 : C-3 0B . ... : G-3 0B . ... : ... .. . ... : ... .. . ... : ... .. . ...
ROW 14 : ... .. . ... : ... .. . ... : ... .. . ... : ... .. . ... : ... .. . ...
ROW 15 : A#3 0B . ... : G-2 0B . ... : --- .. . ... : ... .. . ... : ... .. . ...
ROW 16 : ... .. . ... : ... .. . ... : ... .. . ... : ... .. . ... : ... .. . ...
ROW 17 : G-3 0B . ... : F-3 0B . ... : ... .. . ... : ... .. . ... : ... .. . ...
ROW 18 : ... .. . ... : ... .. . ... : ... .. . ... : ... .. . ... : D-3 00 . ...
ROW 19 : G-2 0B . ... : C-3 0B . ... : G-3 17 . ... : A-# 1B . ... : ... .. . ...
ROW 1A : ... .. . ... : ... .. . ... : ... .. . ... : ... .. . ... : ... .. . ...
ROW 1B : F-3 0B . ... : A#3 0B . ... : ... .. . ... : ... .. . ... : ... .. . ...
ROW 1C : ... .. . ... : ... .. . ... : ... .. . ... : ... .. . ... : ... .. . ...
ROW 1D : C-3 0B . ... : G-3 0B . ... : --- .. . ... : ... .. . ... : ... .. . ...
ROW 1E : ... .. . ... : ... .. . ... : ... .. . ... : ... .. . ... : ... .. . ...
ROW 1F : A#3 0B . ... : G-2 0B . ... : ... .. . ... : ... .. . ... : ... .. . ...
ROW 20 : ... .. . ... : ... .. . ... : ... .. . ... : ... .. . ... : C-3 00 . ...
ROW 21 : G-3 0B . ... : F-3 0B . ... : G-2 17 . ... : ... .. . ... : ... .. . ...
ROW 22 : ... .. . ... : ... .. . ... : ... .. . ... : ... .. . ... : ... .. . ...
ROW 23 : G-2 0B . ... : A#3 0B . ... : ... .. . ... : ... .. . ... : ... .. . ...
ROW 24 : ... .. . ... : ... .. . ... : ... .. . ... : ... .. . ... : ... .. . ...
ROW 25 : F-3 0B . ... : G-3 0B . ... : --- .. . ... : ... .. . ... : ... .. . ...
ROW 26 : ... .. . ... : ... .. . ... : ... .. . ... : ... .. . ... : ... .. . ...
ROW 27 : C-3 0B . ... : G-2 0B . ... : ... .. . ... : ... .. . ... : ... .. . ...
ROW 28 : ... .. . ... : ... .. . ... : ... .. . ... : ... .. . ... : D-3 00 . ...
ROW 29 : A#3 0B . ... : F-3 0B . ... : G-3 17 . ... : A-# 1B . ... : ... .. . ...
ROW 2A : ... .. . ... : ... .. . ... : ... .. . ... : ... .. . ... : ... .. . ...
ROW 2B : G-3 0B . ... : C-3 0B . ... : ... .. . ... : ... .. . ... : ... .. . ...
ROW 2C : ... .. . ... : ... .. . ... : ... .. . ... : ... .. . ... : ... .. . ...
ROW 2D : G-2 0B . ... : A#3 0B . ... : --- .. . ... : ... .. . ... : ... .. . ...
ROW 2E : ... .. . ... : ... .. . ... : ... .. . ... : ... .. . ... : ... .. . ...
ROW 2F : F-3 0B . ... : G-3 0B . ... : ... .. . ... : ... .. . ... : ... .. . ...
ROW 30 : ... .. . ... : ... .. . ... : ... .. . ... : ... .. . ... : C-3 00 . ...
ROW 31 : C-3 0B . ... : G-2 0B . ... : G-2 17 . ... : ... .. . ... : ... .. . ...
ROW 32 : ... .. . ... : ... .. . ... : ... .. . ... : ... .. . ... : ... .. . ...
ROW 33 : A#3 0B . ... : F-3 0B . ... : ... .. . ... : ... .. . ... : ... .. . ...
ROW 34 : ... .. . ... : ... .. . ... : ... .. . ... : ... .. . ... : ... .. . ...
ROW 35 : G-3 0B . ... : A#3 0B . ... : --- .. . ... : ... .. . ... : ... .. . ...
ROW 36 : ... .. . ... : ... .. . ... : ... .. . ... : ... .. . ... : ... .. . ...
ROW 37 : G-2 0B . ... : G-3 0B . ... : ... .. . ... : ... .. . ... : ... .. . ...
ROW 38 : ... .. . ... : ... .. . ... : ... .. . ... : ... .. . ... : D-3 00 . ...
ROW 39 : F-3 0B . ... : G-2 0B . ... : G-3 17 . ... : A-# 1B . ... : ... .. . ...
ROW 3A : ... .. . ... : ... .. . ... : ... .. . ... : ... .. . ... : ... .. . ...
ROW 3B : C-3 0B . ... : F-3 0B . ... : ... .. . ... : ... .. . ... : ... .. . ...
ROW 3C : ... .. . ... : ... .. . ... : ... .. . ... : ... .. . ... : ... .. . ...
ROW 3D : A#3 0B . ... : C-3 0B . ... : --- .. . ... : ... .. . ... : ... .. . ...
ROW 3E : ... .. . ... : ... .. . ... : ... .. . ... : ... .. . ... : ... .. . ...
ROW 3F : G-3 0B . ... : A#3 0B . ... : ... .. . ... : ... .. . ... : ... .. . ...
ROW 40 : ... .. . ... : ... .. . ... : ... .. . ... : ... .. . ... : C-3 00 . ...
ROW 41 : G-2 0B . ... : G-3 0B . ... : G-2 17 . ... : ... .. . ... : ... .. . ...
ROW 42 : ... .. . ... : ... .. . ... : ... .. . ... : ... .. . ... : ... .. . ...
ROW 43 : F-3 0B . ... : G-2 0B . ... : ... .. . ... : ... .. . ... : ... .. . ...
ROW 44 : ... .. . ... : ... .. . ... : ... .. . ... : ... .. . ... : ... .. . ...
ROW 45 : C-3 0B . ... : F-3 0B . ... : --- .. . ... : ... .. . ... : ... .. . ...
ROW 46 : ... .. . ... : ... .. . ... : ... .. . ... : ... .. . ... : ... .. . ...
ROW 47 : A#3 0B . ... : A#3 0B . ... : ... .. . ... : ... .. . ... : ... .. . ...
ROW 48 : ... .. . ... : ... .. . ... : ... .. . ... : ... .. . ... : D-3 00 . ...
ROW 49 : E-3 0B . ... : E-3 0B . ... : G-3 17 . ... : A-# 1B . ... : ... .. . ...
ROW 4A : ... .. . ... : ... .. . ... : ... .. . ... : ... .. . ... : ... .. . ...
ROW 4B : E-2 0B . ... : E-2 0B . ... : ... .. . ... : ... .. . ... : ... .. . ...
ROW 4C : ... .. . ... : ... .. . ... : ... .. . ... : ... .. . ... : ... .. . ...
ROW 4D : D-3 0B . ... : D-3 0B . ... : --- .. . ... : ... .. . ... : ... .. . ...
ROW 4E : ... .. . ... : ... .. . ... : ... .. . ... : ... .. . ... : ... .. . ...
ROW 4F : A-2 0B . ... : A-2 0B . ... : ... .. . ... : ... .. . ... : ... .. . ...
ROW 50 : ... .. . ... : ... .. . ... : ... .. . ... : ... .. . ... : D-3 00 . ...
ROW 51 : G-3 0B . ... : G-3 0B . ... : F-3 17 . ... : A-# 1B . ... : ... .. . ...
ROW 52 : ... .. . ... : ... .. . ... : ... .. . ... : ... .. . ... : E-3 00 . W09
ROW 53 : E-3 0B . ... : E-3 0B . ... : C-3 17 . ... : ... .. . ... : ... .. . ...
ROW 54 : ... .. . ... : ... .. . ... : ... .. . ... : ... .. . ... : D-3 00 . ...
ROW 55 : E-2 0B . ... : E-2 0B . ... : G-3 17 . ... : A-# 1B . ... : ... .. . ...
ROW 56 : ... .. . ... : ... .. . ... : ... .. . ... : ... .. . ... : D-3 00 . ...
ROW 57 : D-3 0B . ... : D-3 0B . ... : G-2 17 . ... : A-# 1B . ... : ... .. . ...

PATTERN 53
ROW 00 : ... .. . ... : ... .. . ... : ... .. . ... : ... .. . ... : C-3 00 . ...
ROW 01 : A-2 0B . ... : G-3 0B . ... : E-2 17 . ... : ... .. . ... : ... .. . ...
ROW 02 : ... .. . ... : ... .. . ... : ... .. . ... : ... .. . ... : ... .. . ...
ROW 03 : G-3 0B . ... : E-3 0B . ... : ... .. . ... : ... .. . ... : ... .. . ...
ROW 04 : ... .. . ... : ... .. . ... : ... .. . ... : ... .. . ... : ... .. . ...
ROW 05 : E-3 0B . ... : E-2 0B . ... : --- .. . ... : ... .. . ... : ... .. . ...
ROW 06 : ... .. . ... : ... .. . ... : ... .. . ... : ... .. . ... : ... .. . ...
ROW 07 : E-2 0B . ... : D-3 0B . ... : ... .. . ... : ... .. . ... : ... .. . ...
ROW 08 : ... .. . ... : ... .. . ... : ... .. . ... : ... .. . ... : D-3 00 . ...
ROW 09 : D-3 0B . ... : A-2 0B . ... : E-3 17 . ... : A-# 1B . ... : ... .. . ...
ROW 0A : ... .. . ... : ... .. . ... : ... .. . ... : ... .. . ... : ... .. . ...
ROW 0B : A-2 0B . ... : G-3 0B . ... : ... .. . ... : ... .. . ... : ... .. . ...
ROW 0C : ... .. . ... : ... .. . ... : ... .. . ... : ... .. . ... : ... .. . ...
ROW 0D : G-3 0B . ... : E-3 0B . ... : --- .. . ... : ... .. . ... : ... .. . ...
ROW 0E : ... .. . ... : ... .. . ... : ... .. . ... : ... .. . ... : ... .. . ...
ROW 0F : E-3 0B . ... : E-2 0B . ... : ... .. . ... : ... .. . ... : ... .. . ...
ROW 10 : ... .. . ... : ... .. . ... : ... .. . ... : ... .. . ... : C-3 00 . ...
ROW 11 : E-2 0B . ... : D-3 0B . ... : E-2 17 . ... : ... .. . ... : ... .. . ...
ROW 12 : ... .. . ... : ... .. . ... : ... .. . ... : ... .. . ... : ... .. . ...
ROW 13 : D-3 0B . ... : G-3 0B . ... : ... .. . ... : ... .. . ... : ... .. . ...
ROW 14 : ... .. . ... : ... .. . ... : ... .. . ... : ... .. . ... : ... .. . ...
ROW 15 : A-2 0B . ... : E-3 0B . ... : --- .. . ... : ... .. . ... : ... .. . ...
ROW 16 : ... .. . ... : ... .. . ... : ... .. . ... : ... .. . ... : ... .. . ...
ROW 17 : G-3 0B . ... : E-2 0B . ... : ... .. . ... : ... .. . ... : ... .. . ...
ROW 18 : ... .. . ... : ... .. . ... : ... .. . ... : ... .. . ... : D-3 00 . ...
ROW 19 : E-3 0B . ... : D-3 0B . ... : E-3 17 . ... : A-# 1B . ... : ... .. . ...
ROW 1A : ... .. . ... : ... .. . ... : ... .. . ... : ... .. . ... : ... .. . ...
ROW 1B : E-2 0B . ... : A-2 0B . ... : ... .. . ... : ... .. . ... : ... .. . ...
ROW 1C : ... .. . ... : ... .. . ... : ... .. . ... : ... .. . ... : ... .. . ...
ROW 1D : D-3 0B . ... : G-3 0B . ... : --- .. . ... : ... .. . ... : ... .. . ...
ROW 1E : ... .. . ... : ... .. . ... : ... .. . ... : ... .. . ... : ... .. . ...
ROW 1F : A-2 0B . ... : E-3 0B . ... : ... .. . ... : ... .. . ... : ... .. . ...
ROW 20 : ... .. . ... : ... .. . ... : ... .. . ... : ... .. . ... : C-3 00 . ...
ROW 21 : G-3 0B . ... : E-2 0B . ... : E-2 17 . ... : ... .. . ... : ... .. . ...
ROW 22 : ... .. . ... : ... .. . ... : ... .. . ... : ... .. . ... : ... .. . ...
ROW 23 : E-3 0B . ... : D-3 0B . ... : ... .. . ... : ... .. . ... : ... .. . ...
ROW 24 : ... .. . ... : ... .. . ... : ... .. . ... : ... .. . ... : ... .. . ...
ROW 25 : E-2 0B . ... : G-3 0B . ... : --- .. . ... : ... .. . ... : ... .. . ...
ROW 26 : ... .. . ... : ... .. . ... : ... .. . ... : ... .. . ... : ... .. . ...
ROW 27 : D-3 0B . ... : E-3 0B . ... : ... .. . ... : ... .. . ... : ... .. . ...
ROW 28 : ... .. . ... : ... .. . ... : ... .. . ... : ... .. . ... : D-3 00 . ...
ROW 29 : A-2 0B . ... : E-2 0B . ... : E-3 17 . ... : A-# 1B . ... : ... .. . ...
ROW 2A : ... .. . ... : ... .. . ... : ... .. . ... : ... .. . ... : ... .. . ...
ROW 2B : G-3 0B . ... : D-3 0B . ... : ... .. . ... : ... .. . ... : ... .. . ...
ROW 2C : ... .. . ... : ... .. . ... : ... .. . ... : ... .. . ... : ... .. . ...
ROW 2D : E-3 0B . ... : A-2 0B . ... : --- .. . ... : ... .. . ... : ... .. . ...
ROW 2E : ... .. . ... : ... .. . ... : ... .. . ... : ... .. . ... : ... .. . ...
ROW 2F : E-2 0B . ... : G-3 0B . ... : ... .. . ... : ... .. . ... : ... .. . ...
ROW 30 : ... .. . ... : ... .. . ... : ... .. . ... : ... .. . ... : C-3 00 . ...
ROW 31 : D-3 0B . ... : E-3 0B . ... : E-2 17 . ... : ... .. . ... : ... .. . ...
ROW 32 : ... .. . ... : ... .. . ... : ... .. . ... : ... .. . ... : ... .. . ...
ROW 33 : A-2 0B . ... : E-2 0B . ... : ... .. . ... : ... .. . ... : ... .. . ...
ROW 34 : ... .. . ... : ... .. . ... : ... .. . ... : ... .. . ... : ... .. . ...
ROW 35 : G-3 0B . ... : D-3 0B . ... : --- .. . ... : ... .. . ... : ... .. . ...
ROW 36 : ... .. . ... : ... .. . ... : ... .. . ... : ... .. . ... : ... .. . ...
ROW 37 : E-3 0B . ... : G-3 0B . ... : ... .. . ... : ... .. . ... : ... .. . ...
ROW 38 : ... .. . ... : ... .. . ... : ... .. . ... : ... .. . ... : D-3 00 . ...
ROW 39 : E-2 0B . ... : E-3 0B . ... : E-3 17 . ... : A-# 1B . ... : ... .. . ...
ROW 3A : ... .. . ... : ... .. . ... : ... .. . ... : ... .. . ... : ... .. . ...
ROW 3B : D-3 0B . ... : E-2 0B . ... : ... .. . ... : ... .. . ... : ... .. . ...
ROW 3C : ... .. . ... : ... .. . ... : ... .. . ... : ... .. . ... : ... .. . ...
ROW 3D : A-2 0B . ... : D-3 0B . ... : --- .. . ... : ... .. . ... : ... .. . ...
ROW 3E : ... .. . ... : ... .. . ... : ... .. . ... : ... .. . ... : ... .. . ...
ROW 3F : G-3 0B . ... : A-2 0B . ... : ... .. . ... : ... .. . ... : ... .. . ...
ROW 40 : ... .. . ... : ... .. . ... : ... .. . ... : ... .. . ... : C-3 00 . ...
ROW 41 : E-3 0B . ... : G-3 0B . ... : E-2 17 . ... : ... .. . ... : ... .. . ...
ROW 42 : ... .. . ... : ... .. . ... : ... .. . ... : ... .. . ... : ... .. . ...
ROW 43 : E-2 0B . ... : E-3 0B . ... : ... .. . ... : ... .. . ... : ... .. . ...
ROW 44 : ... .. . ... : ... .. . ... : ... .. . ... : ... .. . ... : ... .. . ...
ROW 45 : D-3 0B . ... : E-2 0B . ... : --- .. . ... : ... .. . ... : ... .. . ...
ROW 46 : ... .. . ... : ... .. . ... : ... .. . ... : ... .. . ... : ... .. . ...
ROW 47 : A-2 0B . ... : D-3 0B . ... : ... .. . ... : ... .. . ... : ... .. . ...
ROW 48 : ... .. . ... : ... .. . ... : ... .. . ... : ... .. . ... : D-3 00 . ...
ROW 49 : G-3 0B . ... : G-3 0B . ... : E-3 17 . ... : A-# 1B . ... : ... .. . ...
ROW 4A : ... .. . ... : ... .. . ... : ... .. . ... : ... .. . ... : ... .. . ...
ROW 4B : G-3 0B . ... : G-3 0B . ... : ... .. . ... : ... .. . ... : ... .. . ...
ROW 4C : ... .. . ... : ... .. . ... : ... .. . ... : ... .. . ... : ... .. . ...
ROW 4D : G-2 0B . ... : G-2 0B . ... : --- .. . ... : ... .. . ... : ... .. . ...
ROW 4E : ... .. . ... : ... .. . ... : ... .. . ... : ... .. . ... : ... .. . ...
ROW 4F : F-3 0B . ... : F-3 0B . ... : ... .. . ... : ... .. . ... : ... .. . ...
ROW 50 : ... .. . ... : ... .. . ... : ... .. . ... : ... .. . ... : D-3 00 . ...
ROW 51 : C-3 0B . ... : C-3 0B . ... : D-3 17 . ... : A-# 1B . ... : ... .. . ...
ROW 52 : ... .. . ... : ... .. . ... : ... .. . ... : ... .. . ... : E-3 00 . W09
ROW 53 : A#3 0B . ... : A#3 0B . ... : A-2 17 . ... : ... .. . ... : ... .. . ...
ROW 54 : ... .. . ... : ... .. . ... : ... .. . ... : ... .. . ... : D-3 00 . ...
ROW 55 : G-3 0B . ... : G-3 0B . ... : E-3 17 . ... : A-# 1B . ... : ... .. . ...
ROW 56 : ... .. . ... : ... .. . ... : ... .. . ... : ... .. . ... : D-3 00 . ...
ROW 57 : G-2 0B . ... : G-2 0B . ... : E-2 17 . ... : A-# 1B . ... : ... .. . ...

PATTERN 54
ROW 00 : ... .. . ... : ... .. . ... : ... .. . ... : ... .. . ... : C-3 00 . ...
ROW 01 : F-3 0B . ... : F-3 0B . ... : G-2 17 . ... : ... .. . ... : ... .. . ...
ROW 02 : ... .. . ... : ... .. . ... : ... .. . ... : ... .. . ... : ... .. . ...
ROW 03 : C-3 0B . ... : A#3 0B . ... : ... .. . ... : ... .. . ... : ... .. . ...
ROW 04 : ... .. . ... : ... .. . ... : ... .. . ... : ... .. . ... : ... .. . ...
ROW 05 : A#3 0B . ... : G-3 0B . ... : --- .. . ... : ... .. . ... : ... .. . ...
ROW 06 : ... .. . ... : ... .. . ... : ... .. . ... : ... .. . ... : ... .. . ...
ROW 07 : G-3 0B . ... : G-2 0B . ... : ... .. . ... : ... .. . ... : ... .. . ...
ROW 08 : ... .. . ... : ... .. . ... : ... .. . ... : ... .. . ... : D-3 00 . ...
ROW 09 : G-2 0B . ... : F-3 0B . ... : G-3 17 . ... : A-# 1B . ... : ... .. . ...
ROW 0A : ... .. . ... : ... .. . ... : ... .. . ... : ... .. . ... : ... .. . ...
ROW 0B : F-3 0B . ... : C-3 0B . ... : ... .. . ... : ... .. . ... : ... .. . ...
ROW 0C : ... .. . ... : ... .. . ... : ... .. . ... : ... .. . ... : ... .. . ...
ROW 0D : C-3 0B . ... : A#3 0B . ... : --- .. . ... : ... .. . ... : ... .. . ...
ROW 0E : ... .. . ... : ... .. . ... : ... .. . ... : ... .. . ... : ... .. . ...
ROW 0F : A#3 0B . ... : G-3 0B . ... : ... .. . ... : ... .. . ... : ... .. . ...
ROW 10 : ... .. . ... : ... .. . ... : ... .. . ... : ... .. . ... : C-3 00 . ...
ROW 11 : G-3 0B . ... : G-2 0B . ... : G-2 17 . ... : ... .. . ... : ... .. . ...
ROW 12 : ... .. . ... : ... .. . ... : ... .. . ... : ... .. . ... : ... .. . ...
ROW 13 : G-2 0B . ... : F-3 0B . ... : ... .. . ... : ... .. . ... : ... .. . ...
ROW 14 : ... .. . ... : ... .. . ... : ... .. . ... : ... .. . ... : ... .. . ...
ROW 15 : F-3 0B . ... : A#3 0B . ... : --- .. . ... : ... .. . ... : ... .. . ...
ROW 16 : ... .. . ... : ... .. . ... : ... .. . ... : ... .. . ... : ... .. . ...
ROW 17 : C-3 0B . ... : G-3 0B . ... : ... .. . ... : ... .. . ... : ... .. . ...
ROW 18 : ... .. . ... : ... .. . ... : ... .. . ... : ... .. . ... : D-3 00 . ...
ROW 19 : A#3 0B . ... : G-2 0B . ... : G-3 17 . ... : A-# 1B . ... : ... .. . ...
ROW 1A : ... .. . ... : ... .. . ... : ... .. . ... : ... .. . ... : ... .. . ...
ROW 1B : G-3 0B . ... : F-3 0B . ... : ... .. . ... : ... .. . ... : ... .. . ...
ROW 1C : ... .. . ... : ... .. . ... : ... .. . ... : ... .. . ... : ... .. . ...
ROW 1D : G-2 0B . ... : C-3 0B . ... : --- .. . ... : ... .. . ... : ... .. . ...
ROW 1E : ... .. . ... : ... .. . ... : ... .. . ... : ... .. . ... : ... .. . ...
ROW 1F : F-3 0B . ... : A#3 0B . ... : ... .. . ... : ... .. . ... : ... .. . ...
ROW 20 : ... .. . ... : ... .. . ... : ... .. . ... : ... .. . ... : C-3 00 . ...
ROW 21 : C-3 0B . ... : G-3 0B . ... : G-2 17 . ... : ... .. . ... : ... .. . ...
ROW 22 : ... .. . ... : ... .. . ... : ... .. . ... : ... .. . ... : ... .. . ...
ROW 23 : A#3 0B . ... : G-2 0B . ... : ... .. . ... : ... .. . ... : ... .. . ...
ROW 24 : ... .. . ... : ... .. . ... : ... .. . ... : ... .. . ... : ... .. . ...
ROW 25 : G-3 0B . ... : F-3 0B . ... : --- .. . ... : ... .. . ... : ... .. . ...
ROW 26 : ... .. . ... : ... .. . ... : ... .. . ... : ... .. . ... : ... .. . ...
ROW 27 : G-2 0B . ... : A#3 0B . ... : ... .. . ... : ... .. . ... : ... .. . ...
ROW 28 : ... .. . ... : ... .. . ... : ... .. . ... : ... .. . ... : D-3 00 . ...
ROW 29 : F-3 0B . ... : G-3 0B . ... : G-3 17 . ... : A-# 1B . ... : ... .. . ...
ROW 2A : ... .. . ... : ... .. . ... : ... .. . ... : ... .. . ... : ... .. . ...
ROW 2B : C-3 0B . ... : G-2 0B . ... : ... .. . ... : ... .. . ... : ... .. . ...
ROW 2C : ... .. . ... : ... .. . ... : ... .. . ... : ... .. . ... : ... .. . ...
ROW 2D : A#3 0B . ... : F-3 0B . ... : --- .. . ... : ... .. . ... : ... .. . ...
ROW 2E : ... .. . ... : ... .. . ... : ... .. . ... : ... .. . ... : ... .. . ...
ROW 2F : G-3 0B . ... : C-3 0B . ... : ... .. . ... : ... .. . ... : ... .. . ...
ROW 30 : ... .. . ... : ... .. . ... : ... .. . ... : ... .. . ... : C-3 00 . ...
ROW 31 : G-2 0B . ... : A#3 0B . ... : G-2 17 . ... : ... .. . ... : ... .. . ...
ROW 32 : ... .. . ... : ... .. . ... : ... .. . ... : ... .. . ... : ... .. . ...
ROW 33 : F-3 0B . ... : G-3 0B . ... : ... .. . ... : ... .. . ... : ... .. . ...
ROW 34 : ... .. . ... : ... .. . ... : ... .. . ... : ... .. . ... : ... .. . ...
ROW 35 : C-3 0B . ... : G-2 0B . ... : --- .. . ... : ... .. . ... : ... .. . ...
ROW 36 : ... .. . ... : ... .. . ... : ... .. . ... : ... .. . ... : ... .. . ...
ROW 37 : A#3 0B . ... : F-3 0B . ... : ... .. . ... : ... .. . ... : ... .. . ...
ROW 38 : ... .. . ... : ... .. . ... : ... .. . ... : ... .. . ... : D-3 00 . ...
ROW 39 : G-3 0B . ... : A#3 0B . ... : G-3 17 . ... : A-# 1B . ... : ... .. . ...
ROW 3A : ... .. . ... : ... .. . ... : ... .. . ... : ... .. . ... : ... .. . ...
ROW 3B : G-2 0B . ... : G-3 0B . ... : ... .. . ... : ... .. . ... : ... .. . ...
ROW 3C : ... .. . ... : ... .. . ... : ... .. . ... : ... .. . ... : ... .. . ...
ROW 3D : F-3 0B . ... : G-2 0B . ... : --- .. . ... : ... .. . ... : ... .. . ...
ROW 3E : ... .. . ... : ... .. . ... : ... .. . ... : ... .. . ... : ... .. . ...
ROW 3F : C-3 0B . ... : F-3 0B . ... : ... .. . ... : ... .. . ... : ... .. . ...
ROW 40 : ... .. . ... : ... .. . ... : ... .. . ... : ... .. . ... : C-3 00 . ...
ROW 41 : A#3 0B . ... : C-3 0B . ... : G-2 17 . ... : ... .. . ... : ... .. . ...
ROW 42 : ... .. . ... : ... .. . ... : ... .. . ... : ... .. . ... : ... .. . ...
ROW 43 : G-3 0B . ... : A#3 0B . ... : ... .. . ... : ... .. . ... : ... .. . ...
ROW 44 : ... .. . ... : ... .. . ... : ... .. . ... : ... .. . ... : ... .. . ...
ROW 45 : G-2 0B . ... : G-3 0B . ... : --- .. . ... : ... .. . ... : ... .. . ...
ROW 46 : ... .. . ... : ... .. . ... : ... .. . ... : ... .. . ... : ... .. . ...
ROW 47 : F-3 0B . ... : G-2 0B . ... : ... .. . ... : ... .. . ... : ... .. . ...
ROW 48 : ... .. . ... : ... .. . ... : ... .. . ... : ... .. . ... : D-3 00 . ...
ROW 49 : C-3 0B . ... : F-3 0B . ... : G-3 17 . ... : A-# 1B . ... : ... .. . ...
ROW 4A : ... .. . ... : ... .. . ... : ... .. . ... : ... .. . ... : ... .. . ...
ROW 4B : A#3 0B . ... : A#3 0B . ... : ... .. . ... : ... .. . ... : ... .. . ...
ROW 4C : ... .. . ... : ... .. . ... : ... .. . ... : ... .. . ... : ... .. . ...
ROW 4D : E-3 0B . ... : E-3 0B . ... : --- .. . ... : ... .. . ... : ... .. . ...
ROW 4E : ... .. . ... : ... .. . ... : ... .. . ... : ... .. . ... : ... .. . ...
ROW 4F : E-2 0B . ... : E-2 0B . ... : ... .. . ... : ... .. . ... : ... .. . ...
ROW 50 : ... .. . ... : ... .. . ... : ... .. . ... : ... .. . ... : D-3 00 . ...
ROW 51 : D-3 0B . ... : D-3 0B . ... : F-3 17 . ... : A-# 1B . ... : ... .. . ...
ROW 52 : ... .. . ... : ... .. . ... : ... .. . ... : ... .. . ... : E-3 00 . W09
ROW 53 : A-2 0B . ... : A-2 0B . ... : C-3 17 . ... : ... .. . ... : ... .. . ...
ROW 54 : ... .. . ... : ... .. . ... : ... .. . ... : ... .. . ... : D-3 00 . ...
ROW 55 : G-3 0B . ... : G-3 0B . ... : G-3 17 . ... : A-# 1B . ... : ... .. . ...
ROW 56 : ... .. . ... : ... .. . ... : ... .. . ... : ... .. . ... : D-3 00 . ...
ROW 57 : E-3 0B . ... : E-3 0B . ... : G-2 17 . ... : A-# 1B . ... : ... .. . ...

PATTERN 55
ROW 00 : ... .. . ... : ... .. . ... : ... .. . ... : ... .. . ... : C-3 00 . ...
ROW 01 : E-2 0B . ... : E-2 0B . ... : E-2 17 . ... : ... .. . ... : ... .. . ...
ROW 02 : ... .. . ... : ... .. . ... : ... .. . ... : ... .. . ... : ... .. . ...
ROW 03 : D-3 0B . ... : D-3 0B . ... : ... .. . ... : ... .. . ... : ... .. . ...
ROW 04 : ... .. . ... : ... .. . ... : ... .. . ... : ... .. . ... : ... .. . ...
ROW 05 : A-2 0B . ... : G-3 0B . ... : --- .. . ... : ... .. . ... : ... .. . ...
ROW 06 : ... .. . ... : ... .. . ... : ... .. . ... : ... .. . ... : ... .. . ...
ROW 07 : G-3 0B . ... : E-3 0B . ... : ... .. . ... : ... .. . ... : ... .. . ...
ROW 08 : ... .. . ... : ... .. . ... : ... .. . ... : ... .. . ... : D-3 00 . ...
ROW 09 : E-3 0B . ... : E-2 0B . ... : E-3 17 . ... : A-# 1B . ... : ... .. . ...
ROW 0A : ... .. . ... : ... .. . ... : ... .. . ... : ... .. . ... : ... .. . ...
ROW 0B : E-2 0B . ... : D-3 0B . ... : ... .. . ... : ... .. . ... : ... .. . ...
ROW 0C : ... .. . ... : ... .. . ... : ... .. . ... : ... .. . ... : ... .. . ...
ROW 0D : D-3 0B . ... : A-2 0B . ... : --- .. . ... : ... .. . ... : ... .. . ...
ROW 0E : ... .. . ... : ... .. . ... : ... .. . ... : ... .. . ... : ... .. . ...
ROW 0F : A-2 0B . ... : G-3 0B . ... : ... .. . ... : ... .. . ... : ... .. . ...
ROW 10 : ... .. . ... : ... .. . ... : ... .. . ... : ... .. . ... : C-3 00 . ...
ROW 11 : G-3 0B . ... : E-3 0B . ... : E-2 17 . ... : ... .. . ... : ... .. . ...
ROW 12 : ... .. . ... : ... .. . ... : ... .. . ... : ... .. . ... : ... .. . ...
ROW 13 : E-3 0B . ... : E-2 0B . ... : ... .. . ... : ... .. . ... : ... .. . ...
ROW 14 : ... .. . ... : ... .. . ... : ... .. . ... : ... .. . ... : ... .. . ...
ROW 15 : E-2 0B . ... : D-3 0B . ... : --- .. . ... : ... .. . ... : ... .. . ...
ROW 16 : ... .. . ... : ... .. . ... : ... .. . ... : ... .. . ... : ... .. . ...
ROW 17 : D-3 0B . ... : G-3 0B . ... : ... .. . ... : ... .. . ... : ... .. . ...
ROW 18 : ... .. . ... : ... .. . ... : ... .. . ... : ... .. . ... : D-3 00 . ...
ROW 19 : A-2 0B . ... : E-3 0B . ... : E-3 17 . ... : A-# 1B . ... : ... .. . ...
ROW 1A : ... .. . ... : ... .. . ... : ... .. . ... : ... .. . ... : ... .. . ...
ROW 1B : G-3 0B . ... : E-2 0B . ... : ... .. . ... : ... .. . ... : ... .. . ...
ROW 1C : ... .. . ... : ... .. . ... : ... .. . ... : ... .. . ... : ... .. . ...
ROW 1D : E-3 0B . ... : D-3 0B . ... : --- .. . ... : ... .. . ... : ... .. . ...
ROW 1E : ... .. . ... : ... .. . ... : ... .. . ... : ... .. . ... : ... .. . ...
ROW 1F : E-2 0B . ... : A-2 0B . ... : ... .. . ... : ... .. . ... : ... .. . ...
ROW 20 : ... .. . ... : ... .. . ... : ... .. . ... : ... .. . ... : C-3 00 . ...
ROW 21 : D-3 0B . ... : G-3 0B . ... : E-2 17 . ... : ... .. . ... : ... .. . ...
ROW 22 : ... .. . ... : ... .. . ... : ... .. . ... : ... .. . ... : ... .. . ...
ROW 23 : A-2 0B . ... : E-3 0B . ... : ... .. . ... : ... .. . ... : ... .. . ...
ROW 24 : ... .. . ... : ... .. . ... : ... .. . ... : ... .. . ... : ... .. . ...
ROW 25 : G-3 0B . ... : E-2 0B . ... : --- .. . ... : ... .. . ... : ... .. . ...
ROW 26 : ... .. . ... : ... .. . ... : ... .. . ... : ... .. . ... : ... .. . ...
ROW 27 : E-3 0B . ... : D-3 0B . ... : ... .. . ... : ... .. . ... : ... .. . ...
ROW 28 : ... .. . ... : ... .. . ... : ... .. . ... : ... .. . ... : D-3 00 . ...
ROW 29 : E-2 0B . ... : G-3 0B . ... : E-3 17 . ... : A-# 1B . ... : ... .. . ...
ROW 2A : ... .. . ... : ... .. . ... : ... .. . ... : ... .. . ... : ... .. . ...
ROW 2B : D-3 0B . ... : E-3 0B . ... : ... .. . ... : ... .. . ... : ... .. . ...
ROW 2C : ... .. . ... : ... .. . ... : ... .. . ... : ... .. . ... : ... .. . ...
ROW 2D : A-2 0B . ... : E-2 0B . ... : --- .. . ... : ... .. . ... : ... .. . ...
ROW 2E : ... .. . ... : ... .. . ... : ... .. . ... : ... .. . ... : ... .. . ...
ROW 2F : G-3 0B . ... : D-3 0B . ... : ... .. . ... : ... .. . ... : ... .. . ...
ROW 30 : ... .. . ... : ... .. . ... : ... .. . ... : ... .. . ... : C-3 00 . ...
ROW 31 : E-3 0B . ... : A-2 0B . ... : E-2 17 . ... : ... .. . ... : ... .. . ...
ROW 32 : ... .. . ... : ... .. . ... : ... .. . ... : ... .. . ... : ... .. . ...
ROW 33 : E-2 0B . ... : G-3 0B . ... : ... .. . ... : ... .. . ... : ... .. . ...
ROW 34 : ... .. . ... : ... .. . ... : ... .. . ... : ... .. . ... : ... .. . ...
ROW 35 : D-3 0B . ... : E-3 0B . ... : --- .. . ... : ... .. . ... : ... .. . ...
ROW 36 : ... .. . ... : ... .. . ... : ... .. . ... : ... .. . ... : ... .. . ...
ROW 37 : A-2 0B . ... : E-2 0B . ... : ... .. . ... : ... .. . ... : ... .. . ...
ROW 38 : ... .. . ... : ... .. . ... : ... .. . ... : ... .. . ... : D-3 00 . ...
ROW 39 : G-3 0B . ... : D-3 0B . ... : E-3 17 . ... : A-# 1B . ... : ... .. . ...
ROW 3A : ... .. . ... : ... .. . ... : ... .. . ... : ... .. . ... : ... .. . ...
ROW 3B : E-3 0B . ... : G-3 0B . ... : ... .. . ... : ... .. . ... : ... .. . ...
ROW 3C : ... .. . ... : ... .. . ... : ... .. . ... : ... .. . ... : ... .. . ...
ROW 3D : E-2 0B . ... : E-3 0B . ... : --- .. . ... : ... .. . ... : ... .. . ...
ROW 3E : ... .. . ... : ... .. . ... : ... .. . ... : ... .. . ... : ... .. . ...
ROW 3F : D-3 0B . ... : E-2 0B . ... : ... .. . ... : ... .. . ... : ... .. . ...
ROW 40 : ... .. . ... : ... .. . ... : ... .. . ... : ... .. . ... : C-3 00 . ...
ROW 41 : A-2 0B . ... : D-3 0B . ... : E-2 17 . ... : ... .. . ... : ... .. . ...
ROW 42 : ... .. . ... : ... .. . ... : ... .. . ... : ... .. . ... : ... .. . ...
ROW 43 : G-3 0B . ... : A-2 0B . ... : ... .. . ... : ... .. . ... : ... .. . ...
ROW 44 : ... .. . ... : ... .. . ... : ... .. . ... : ... .. . ... : ... .. . ...
ROW 45 : E-3 0B . ... : G-3 0B . ... : --- .. . ... : ... .. . ... : ... .. . ...
ROW 46 : ... .. . ... : ... .. . ... : ... .. . ... : ... .. . ... : ... .. . ...
ROW 47 : E-2 0B . ... : E-3 0B . ... : ... .. . ... : ... .. . ... : ... .. . ...
ROW 48 : ... .. . ... : ... .. . ... : ... .. . ... : ... .. . ... : D-3 00 . ...
ROW 49 : D-3 0B . ... : E-2 0B . ... : E-3 17 . ... : A-# 1B . ... : ... .. . ...
ROW 4A : ... .. . ... : ... .. . ... : ... .. . ... : ... .. . ... : ... .. . ...
ROW 4B : A-2 0B . ... : D-3 0B . ... : ... .. . ... : ... .. . ... : ... .. . ...
ROW 4C : ... .. . ... : ... .. . ... : ... .. . ... : ... .. . ... : ... .. . ...
ROW 4D : G-3 0B . ... : G-3 0B . ... : --- .. . ... : ... .. . ... : ... .. . ...
ROW 4E : ... .. . ... : ... .. . ... : ... .. . ... : ... .. . ... : ... .. . ...
ROW 4F : G-3 0B . ... : G-3 0B . ... : ... .. . ... : ... .. . ... : ... .. . ...
ROW 50 : ... .. . ... : ... .. . ... : ... .. . ... : ... .. . ... : D-3 00 . ...
ROW 51 : G-2 0B . ... : G-2 0B . ... : D-3 17 . ... : A-# 1B . ... : ... .. . ...
ROW 52 : ... .. . ... : ... .. . ... : ... .. . ... : ... .. . ... : E-3 00 . W09
ROW 53 : F-3 0B . ... : F-3 0B . ... : A-2 17 . ... : ... .. . ... : ... .. . ...
ROW 54 : ... .. . ... : ... .. . ... : ... .. . ... : ... .. . ... : D-3 00 . ...
ROW 55 : C-3 0B . ... : C-3 0B . ... : E-3 17 . ... : A-# 1B . ... : ... .. . ...
ROW 56 : ... .. . ... : ... .. . ... : ... .. . ... : ... .. . ... : D-3 00 . ...
ROW 57 : A#3 0B . ... : A#3 0B . ... : E-2 17 . ... : A-# 1B . ... : ... .. . ...

PATTERN 56
ROW 00 : ... .. . ... : ... .. . ... : ... .. . ... : ... .. . ... : C-3 00 . ...
ROW 01 : G-3 0B . ... : G-3 0B . ... : G-2 17 . ... : ... .. . ... : ... .. . ...
ROW 02 : ... .. . ... : ... .. . ... : ... .. . ... : ... .. . ... : ... .. . ...
ROW 03 : G-2 0B . ... : G-2 0B . ... : ... .. . ... : ... .. . ... : ... .. . ...
ROW 04 : ... .. . ... : ... .. . ... : ... .. . ... : ... .. . ... : ... .. . ...
ROW 05 : F-3 0B . ... : F-3 0B . ... : --- .. . ... : ... .. . ... : ... .. . ...
ROW 06 : ... .. . ... : ... .. . ... : ... .. . ... : ... .. . ... : ... .. . ...
ROW 07 : C-3 0B . ... : A#3 0B . ... : ... .. . ... : ... .. . ... : ... .. . ...
ROW 08 : ... .. . ... : ... .. . ... : ... .. . ... : ... .. . ... : D-3 00 . ...
ROW 09 : A#3 0B . ... : G-3 0B . ... : G-3 17 . ... : A-# 1B . ... : ... .. . ...
ROW 0A : ... .. . ... : ... .. . ... : ... .. . ... : ... .. . ... : ... .. . ...
ROW 0B : G-3 0B . ... : G-2 0B . ... : ... .. . ... : ... .. . ... : ... .. . ...
ROW 0C : ... .. . ... : ... .. . ... : ... .. . ... : ... .. . ... : ... .. . ...
ROW 0D : G-2 0B . ... : F-3 0B . ... : --- .. . ... : ... .. . ... : ... .. . ...
ROW 0E : ... .. . ... : ... .. . ... : ... .. . ... : ... .. . ... : ... .. . ...
ROW 0F : F-3 0B . ... : C-3 0B . ... : ... .. . ... : ... .. . ... : ... .. . ...
ROW 10 : ... .. . ... : ... .. . ... : ... .. . ... : ... .. . ... : C-3 00 . ...
ROW 11 : C-3 0B . ... : A#3 0B . ... : G-2 17 . ... : ... .. . ... : ... .. . ...
ROW 12 : ... .. . ... : ... .. . ... : ... .. . ... : ... .. . ... : ... .. . ...
ROW 13 : A#3 0B . ... : G-3 0B . ... : ... .. . ... : ... .. . ... : ... .. . ...
ROW 14 : ... .. . ... : ... .. . ... : ... .. . ... : ... .. . ... : ... .. . ...
ROW 15 : G-3 0B . ... : G-2 0B . ... : --- .. . ... : ... .. . ... : ... .. . ...
ROW 16 : ... .. . ... : ... .. . ... : ... .. . ... : ... .. . ... : ... .. . ...
ROW 17 : G-2 0B . ... : F-3 0B . ... : ... .. . ... : ... .. . ... : ... .. . ...
ROW 18 : ... .. . ... : ... .. . ... : ... .. . ... : ... .. . ... : D-3 00 . ...
ROW 19 : F-3 0B . ... : A#3 0B . ... : G-3 17 . ... : A-# 1B . ... : ... .. . ...
ROW 1A : ... .. . ... : ... .. . ... : ... .. . ... : ... .. . ... : ... .. . ...
ROW 1B : C-3 0B . ... : G-3 0B . ... : ... .. . ... : ... .. . ... : ... .. . ...
ROW 1C : ... .. . ... : ... .. . ... : ... .. . ... : ... .. . ... : ... .. . ...
ROW 1D : A#3 0B . ... : G-2 0B . ... : --- .. . ... : ... .. . ... : ... .. . ...
ROW 1E : ... .. . ... : ... .. . ... : ... .. . ... : ... .. . ... : ... .. . ...
ROW 1F : G-3 0B . ... : F-3 0B . ... : ... .. . ... : ... .. . ... : ... .. . ...
ROW 20 : ... .. . ... : ... .. . ... : ... .. . ... : ... .. . ... : C-3 00 . ...
ROW 21 : G-2 0B . ... : C-3 0B . ... : G-2 17 . ... : ... .. . ... : ... .. . ...
ROW 22 : ... .. . ... : ... .. . ... : ... .. . ... : ... .. . ... : ... .. . ...
ROW 23 : F-3 0B . ... : A#3 0B . ... : ... .. . ... : ... .. . ... : ... .. . ...
ROW 24 : ... .. . ... : ... .. . ... : ... .. . ... : ... .. . ... : ... .. . ...
ROW 25 : C-3 0B . ... : G-3 0B . ... : --- .. . ... : ... .. . ... : ... .. . ...
ROW 26 : ... .. . ... : ... .. . ... : ... .. . ... : ... .. . ... : ... .. . ...
ROW 27 : A#3 0B . ... : G-2 0B . ... : ... .. . ... : ... .. . ... : ... .. . ...
ROW 28 : ... .. . ... : ... .. . ... : ... .. . ... : ... .. . ... : D-3 00 . ...
ROW 29 : G-3 0B . ... : F-3 0B . ... : G-3 17 . ... : A-# 1B . ... : ... .. . ...
ROW 2A : ... .. . ... : ... .. . ... : ... .. . ... : ... .. . ... : ... .. . ...
ROW 2B : G-2 0B . ... : A#3 0B . ... : ... .. . ... : ... .. . ... : ... .. . ...
ROW 2C : ... .. . ... : ... .. . ... : ... .. . ... : ... .. . ... : ... .. . ...
ROW 2D : F-3 0B . ... : G-3 0B . ... : --- .. . ... : ... .. . ... : ... .. . ...
ROW 2E : ... .. . ... : ... .. . ... : ... .. . ... : ... .. . ... : ... .. . ...
ROW 2F : C-3 0B . ... : G-2 0B . ... : ... .. . ... : ... .. . ... : ... .. . ...
ROW 30 : ... .. . ... : ... .. . ... : ... .. . ... : ... .. . ... : C-3 00 . ...
ROW 31 : A#3 0B . ... : F-3 0B . ... : G-2 17 . ... : ... .. . ... : ... .. . ...
ROW 32 : ... .. . ... : ... .. . ... : ... .. . ... : ... .. . ... : ... .. . ...
ROW 33 : G-3 0B . ... : C-3 0B . ... : ... .. . ... : ... .. . ... : ... .. . ...
ROW 34 : ... .. . ... : ... .. . ... : ... .. . ... : ... .. . ... : ... .. . ...
ROW 35 : G-2 0B . ... : A#3 0B . ... : --- .. . ... : ... .. . ... : ... .. . ...
ROW 36 : ... .. . ... : ... .. . ... : ... .. . ... : ... .. . ... : ... .. . ...
ROW 37 : F-3 0B . ... : G-3 0B . ... : ... .. . ... : ... .. . ... : ... .. . ...
ROW 38 : ... .. . ... : ... .. . ... : ... .. . ... : ... .. . ... : D-3 00 . ...
ROW 39 : C-3 0B . ... : G-2 0B . ... : G-3 17 . ... : A-# 1B . ... : ... .. . ...
ROW 3A : ... .. . ... : ... .. . ... : ... .. . ... : ... .. . ... : ... .. . ...
ROW 3B : A#3 0B . ... : F-3 0B . ... : ... .. . ... : ... .. . ... : ... .. . ...
ROW 3C : ... .. . ... : ... .. . ... : ... .. . ... : ... .. . ... : ... .. . ...
ROW 3D : G-3 0B . ... : A#3 0B . ... : --- .. . ... : ... .. . ... : ... .. . ...
ROW 3E : ... .. . ... : ... .. . ... : ... .. . ... : ... .. . ... : ... .. . ...
ROW 3F : G-2 0B . ... : G-3 0B . ... : ... .. . ... : ... .. . ... : ... .. . ...
ROW 40 : ... .. . ... : ... .. . ... : ... .. . ... : ... .. . ... : C-3 00 . ...
ROW 41 : F-3 0B . ... : G-2 0B . ... : G-2 17 . ... : ... .. . ... : ... .. . ...
ROW 42 : ... .. . ... : ... .. . ... : ... .. . ... : ... .. . ... : ... .. . ...
ROW 43 : C-3 0B . ... : F-3 0B . ... : ... .. . ... : ... .. . ... : ... .. . ...
ROW 44 : ... .. . ... : ... .. . ... : ... .. . ... : ... .. . ... : ... .. . ...
ROW 45 : A#3 0B . ... : C-3 0B . ... : --- .. . ... : ... .. . ... : ... .. . ...
ROW 46 : ... .. . ... : ... .. . ... : ... .. . ... : ... .. . ... : ... .. . ...
ROW 47 : G-3 0B . ... : A#3 0B . ... : ... .. . ... : ... .. . ... : ... .. . ...
ROW 48 : ... .. . ... : ... .. . ... : ... .. . ... : ... .. . ... : D-3 00 . ...
ROW 49 : G-2 0B . ... : G-3 0B . ... : G-3 17 . ... : A-# 1B . ... : ... .. . ...
ROW 4A : ... .. . ... : ... .. . ... : ... .. . ... : ... .. . ... : ... .. . ...
ROW 4B : F-3 0B . ... : G-2 0B . ... : ... .. . ... : ... .. . ... : ... .. . ...
ROW 4C : ... .. . ... : ... .. . ... : ... .. . ... : ... .. . ... : ... .. . ...
ROW 4D : C-3 0B . ... : F-3 0B . ... : --- .. . ... : ... .. . ... : ... .. . ...
ROW 4E : ... .. . ... : ... .. . ... : ... .. . ... : ... .. . ... : ... .. . ...
ROW 4F : A#3 0B . ... : A#3 0B . ... : ... .. . ... : ... .. . ... : ... .. . ...
ROW 50 : ... .. . ... : ... .. . ... : ... .. . ... : ... .. . ... : D-3 00 . ...
ROW 51 : E-3 0B . ... : E-3 0B . ... : F-3 17 . ... : A-# 1B . ... : ... .. . ...
ROW 52 : ... .. . ... : ... .. . ... : ... .. . ... : ... .. . ... : E-3 00 . W09
ROW 53 : E-2 0B . ... : E-2 0B . ... : C-3 17 . ... : ... .. . ... : ... .. . ...
ROW 54 : ... .. . ... : ... .. . ... : ... .. . ... : ... .. . ... : D-3 00 . ...
ROW 55 : D-3 0B . ... : D-3 0B . ... : G-3 17 . ... : A-# 1B . ... : ... .. . ...
ROW 56 : ... .. . ... : ... .. . ... : ... .. . ... : ... .. . ... : D-3 00 . ...
ROW 57 : A-2 0B . ... : A-2 0B . ... : G-2 17 . ... : A-# 1B . ... : ... .. . ...

PATTERN 57
ROW 00 : ... .. . ... : ... .. . ... : ... .. . ... : ... .. . ... : C-3 00 . ...
ROW 01 : G-3 0B . ... : G-3 0B . ... : E-2 17 . ... : ... .. . ... : ... .. . ...
ROW 02 : ... .. . ... : ... .. . ... : ... .. . ... : ... .. . ... : ... .. . ...
ROW 03 : E-3 0B . ... : E-3 0B . ... : ... .. . ... : ... .. . ... : ... .. . ...
ROW 04 : ... .. . ... : ... .. . ... : ... .. . ... : ... .. . ... : ... .. . ...
ROW 05 : E-2 0B . ... : E-2 0B . ... : --- .. . ... : ... .. . ... : ... .. . ...
ROW 06 : ... .. . ... : ... .. . ... : ... .. . ... : ... .. . ... : ... .. . ...
ROW 07 : D-3 0B . ... : D-3 0B . ... : ... .. . ... : ... .. . ... : ... .. . ...
ROW 08 : ... .. . ... : ... .. . ... : ... .. . ... : ... .. . ... : D-3 00 . ...
ROW 09 : A-2 0B . ... : G-3 0B . ... : E-3 17 . ... : A-# 1B . ... : ... .. . ...
ROW 0A : ... .. . ... : ... .. . ... : ... .. . ... : ... .. . ... : ... .. . ...
ROW 0B : G-3 0B . ... : E-3 0B . ... : ... .. . ... : ... .. . ... : ... .. . ...
ROW 0C : ... .. . ... : ... .. . ... : ... .. . ... : ... .. . ... : ... .. . ...
ROW 0D : E-3 0B . ... : E-2 0B . ... : --- .. . ... : ... .. . ... : ... .. . ...
ROW 0E : ... .. . ... : ... .. . ... : ... .. . ... : ... .. . ... : ... .. . ...
ROW 0F : E-2 0B . ... : D-3 0B . ... : ... .. . ... : ... .. . ... : ... .. . ...
ROW 10 : ... .. . ... : ... .. . ... : ... .. . ... : ... .. . ... : C-3 00 . ...
ROW 11 : D-3 0B . ... : A-2 0B . ... : E-2 17 . ... : ... .. . ... : ... .. . ...
ROW 12 : ... .. . ... : ... .. . ... : ... .. . ... : ... .. . ... : ... .. . ...
ROW 13 : A-2 0B . ... : G-3 0B . ... : ... .. . ... : ... .. . ... : ... .. . ...
ROW 14 : ... .. . ... : ... .. . ... : ... .. . ... : ... .. . ... : ... .. . ...
ROW 15 : G-3 0B . ... : E-3 0B . ... : --- .. . ... : ... .. . ... : ... .. . ...
ROW 16 : ... .. . ... : ... .. . ... : ... .. . ... : ... .. . ... : ... .. . ...
ROW 17 : E-3 0B . ... : E-2 0B . ... : ... .. . ... : ... .. . ... : ... .. . ...
ROW 18 : ... .. . ... : ... .. . ... : ... .. . ... : ... .. . ... : D-3 00 . ...
ROW 19 : E-2 0B . ... : D-3 0B . ... : E-3 17 . ... : A-# 1B . ... : ... .. . ...
ROW 1A : ... .. . ... : ... .. . ... : ... .. . ... : ... .. . ... : ... .. . ...
ROW 1B : D-3 0B . ... : G-3 0B . ... : ... .. . ... : ... .. . ... : ... .. . ...
ROW 1C : ... .. . ... : ... .. . ... : ... .. . ... : ... .. . ... : ... .. . ...
ROW 1D : A-2 0B . ... : E-3 0B . ... : --- .. . ... : ... .. . ... : ... .. . ...
ROW 1E : ... .. . ... : ... .. . ... : ... .. . ... : ... .. . ... : ... .. . ...
ROW 1F : G-3 0B . ... : E-2 0B . ... : ... .. . ... : ... .. . ... : ... .. . ...
ROW 20 : ... .. . ... : ... .. . ... : ... .. . ... : ... .. . ... : C-3 00 . ...
ROW 21 : E-3 0B . ... : D-3 0B . ... : E-2 17 . ... : ... .. . ... : ... .. . ...
ROW 22 : ... .. . ... : ... .. . ... : ... .. . ... : ... .. . ... : ... .. . ...
ROW 23 : E-2 0B . ... : A-2 0B . ... : ... .. . ... : ... .. . ... : ... .. . ...
ROW 24 : ... .. . ... : ... .. . ... : ... .. . ... : ... .. . ... : ... .. . ...
ROW 25 : D-3 0B . ... : G-3 0B . ... : --- .. . ... : ... .. . ... : ... .. . ...
ROW 26 : ... .. . ... : ... .. . ... : ... .. . ... : ... .. . ... : ... .. . ...
ROW 27 : A-2 0B . ... : E-3 0B . ... : ... .. . ... : ... .. . ... : ... .. . ...
ROW 28 : ... .. . ... : ... .. . ... : ... .. . ... : ... .. . ... : D-3 00 . ...
ROW 29 : G-3 0B . ... : E-2 0B . ... : E-3 17 . ... : A-# 1B . ... : ... .. . ...
ROW 2A : ... .. . ... : ... .. . ... : ... .. . ... : ... .. . ... : ... .. . ...
ROW 2B : E-3 0B . ... : D-3 0B . ... : ... .. . ... : ... .. . ... : ... .. . ...
ROW 2C : ... .. . ... : ... .. . ... : ... .. . ... : ... .. . ... : ... .. . ...
ROW 2D : E-2 0B . ... : G-3 0B . ... : --- .. . ... : ... .. . ... : ... .. . ...
ROW 2E : ... .. . ... : ... .. . ... : ... .. . ... : ... .. . ... : ... .. . ...
ROW 2F : D-3 0B . ... : E-3 0B . ... : ... .. . ... : ... .. . ... : ... .. . ...
ROW 30 : ... .. . ... : ... .. . ... : ... .. . ... : ... .. . ... : C-3 00 . ...
ROW 31 : A-2 0B . ... : E-2 0B . ... : E-2 17 . ... : ... .. . ... : ... .. . ...
ROW 32 : ... .. . ... : ... .. . ... : ... .. . ... : ... .. . ... : ... .. . ...
ROW 33 : G-3 0B . ... : D-3 0B . ... : ... .. . ... : ... .. . ... : ... .. . ...
ROW 34 : ... .. . ... : ... .. . ... : ... .. . ... : ... .. . ... : ... .. . ...
ROW 35 : E-3 0B . ... : A-2 0B . ... : --- .. . ... : ... .. . ... : ... .. . ...
ROW 36 : ... .. . ... : ... .. . ... : ... .. . ... : ... .. . ... : ... .. . ...
ROW 37 : E-2 0B . ... : G-3 0B . ... : ... .. . ... : ... .. . ... : ... .. . ...
ROW 38 : ... .. . ... : ... .. . ... : ... .. . ... : ... .. . ... : D-3 00 . ...
ROW 39 : D-3 0B . ... : E-3 0B . ... : E-3 17 . ... : A-# 1B . ... : ... .. . ...
ROW 3A : ... .. . ... : ... .. . ... : ... .. . ... : ... .. . ... : ... .. . ...
ROW 3B : A-2 0B . ... : E-2 0B . ... : ... .. . ... : ... .. . ... : ... .. . ...
ROW 3C : ... .. . ... : ... .. . ... : ... .. . ... : ... .. . ... : ... .. . ...
ROW 3D : G-3 0B . ... : D-3 0B . ... : --- .. . ... : ... .. . ... : ... .. . ...
ROW 3E : ... .. . ... : ... .. . ... : ... .. . ... : ... .. . ... : ... .. . ...
ROW 3F : E-3 0B . ... : G-3 0B . ... : ... .. . ... : ... .. . ... : ... .. . ...
ROW 40 : ... .. . ... : ... .. . ... : ... .. . ... : ... .. . ... : C-3 00 . ...
ROW 41 : E-2 0B . ... : E-3 0B . ... : E-2 17 . ... : ... .. . ... : ... .. . ...
ROW 42 : ... .. . ... : ... .. . ... : ... .. . ... : ... .. . ... : ... .. . ...
ROW 43 : D-3 0B . ... : E-2 0B . ... : ... .. . ... : ... .. . ... : ... .. . ...
ROW 44 : ... .. . ... : ... .. . ... : ... .. . ... : ... .. . ... : ... .. . ...
ROW 45 : A-2 0B . ... : D-3 0B . ... : --- .. . ... : ... .. . ... : ... .. . ...
ROW 46 : ... .. . ... : ... .. . ... : ... .. . ... : ... .. . ... : ... .. . ...
ROW 47 : G-3 0B . ... : A-2 0B . ... : ... .. . ... : ... .. . ... : ... .. . ...
ROW 48 : ... .. . ... : ... .. . ... : ... .. . ... : ... .. . ... : D-3 00 . ...
ROW 49 : E-3 0B . ... : G-3 0B . ... : E-3 17 . ... : A-# 1B . ... : ... .. . ...
ROW 4A : ... .. . ... : ... .. . ... : ... .. . ... : ... .. . ... : ... .. . ...
ROW 4B : E-2 0B . ... : E-3 0B . ... : ... .. . ... : ... .. . ... : ... .. . ...
ROW 4C : ... .. . ... : ... .. . ... : ... .. . ... : ... .. . ... : ... .. . ...
ROW 4D : D-3 0B . ... : E-2 0B . ... : --- .. . ... : ... .. . ... : ... .. . ...
ROW 4E : ... .. . ... : ... .. . ... : ... .. . ... : ... .. . ... : ... .. . ...
ROW 4F : A-2 0B . ... : D-3 0B . ... : ... .. . ... : ... .. . ... : ... .. . ...
ROW 50 : ... .. . ... : ... .. . ... : ... .. . ... : ... .. . ... : D-3 00 . ...
ROW 51 : G-3 0B . ... : G-3 0B . ... : D-3 17 . ... : A-# 1B . ... : ... .. . ...
ROW 52 : ... .. . ... : ... .. . ... : ... .. . ... : ... .. . ... : E-3 00 . W09
ROW 53 : G-3 0B . ... : G-3 0B . ... : A-2 17 . ... : ... .. . ... : ... .. . ...
ROW 54 : ... .. . ... : ... .. . ... : ... .. . ... : ... .. . ... : D-3 00 . ...
ROW 55 : G-2 0B . ... : G-2 0B . ... : E-3 17 . ... : A-# 1B . ... : ... .. . ...
ROW 56 : ... .. . ... : ... .. . ... : ... .. . ... : ... .. . ... : D-3 00 . ...
ROW 57 : F-3 0B . ... : F-3 0B . ... : E-2 17 . ... : A-# 1B . ... : ... .. . ...

PATTERN 58
ROW 00 : ... .. . ... : ... .. . ... : ... .. . ... : ... .. . ... : C-3 00 . ...
ROW 01 : C-3 0B . ... : C-3 0B . ... : G-2 17 . ... : ... .. . ... : ... .. . ...
ROW 02 : ... .. . ... : ... .. . ... : ... .. . ... : ... .. . ... : ... .. . ...
ROW 03 : A#3 0B . ... : A#3 0B . ... : ... .. . ... : ... .. . ... : ... .. . ...
ROW 04 : ... .. . ... : ... .. . ... : ... .. . ... : ... .. . ... : ... .. . ...
ROW 05 : G-3 0B . ... : G-3 0B . ... : --- .. . ... : ... .. . ... : ... .. . ...
ROW 06 : ... .. . ... : ... .. . ... : ... .. . ... : ... .. . ... : ... .. . ...
ROW 07 : G-2 0B . ... : G-2 0B . ... : ... .. . ... : ... .. . ... : ... .. . ...
ROW 08 : ... .. . ... : ... .. . ... : ... .. . ... : ... .. . ... : D-3 00 . ...
ROW 09 : F-3 0B . ... : F-3 0B . ... : G-3 17 . ... : A-# 1B . ... : ... .. . ...
ROW 0A : ... .. . ... : ... .. . ... : ... .. . ... : ... .. . ... : ... .. . ...
ROW 0B : C-3 0B . ... : A#3 0B . ... : ... .. . ... : ... .. . ... : ... .. . ...
ROW 0C : ... .. . ... : ... .. . ... : ... .. . ... : ... .. . ... : ... .. . ...
ROW 0D : A#3 0B . ... : G-3 0B . ... : --- .. . ... : ... .. . ... : ... .. . ...
ROW 0E : ... .. . ... : ... .. . ... : ... .. . ... : ... .. . ... : ... .. . ...
ROW 0F : G-3 0B . ... : G-2 0B . ... : ... .. . ... : ... .. . ... : ... .. . ...
ROW 10 : ... .. . ... : ... .. . ... : ... .. . ... : ... .. . ... : C-3 00 . ...
ROW 11 : G-2 0B . ... : F-3 0B . ... : G-2 17 . ... : ... .. . ... : ... .. . ...
ROW 12 : ... .. . ... : ... .. . ... : ... .. . ... : ... .. . ... : ... .. . ...
ROW 13 : F-3 0B . ... : C-3 0B . ... : ... .. . ... : ... .. . ... : ... .. . ...
ROW 14 : ... .. . ... : ... .. . ... : ... .. . ... : ... .. . ... : ... .. . ...
ROW 15 : C-3 0B . ... : A#3 0B . ... : --- .. . ... : ... .. . ... : ... .. . ...
ROW 16 : ... .. . ... : ... .. . ... : ... .. . ... : ... .. . ... : ... .. . ...
ROW 17 : A#3 0B . ... : G-3 0B . ... : ... .. . ... : ... .. . ... : ... .. . ...
ROW 18 : ... .. . ... : ... .. . ... : ... .. . ... : ... .. . ... : D-3 00 . ...
ROW 19 : G-3 0B . ... : G-2 0B . ... : G-3 17 . ... : A-# 1B . ... : ... .. . ...
ROW 1A : ... .. . ... : ... .. . ... : ... .. . ... : ... .. . ... : ... .. . ...
ROW 1B : G-2 0B . ... : F-3 0B . ... : ... .. . ... : ... .. . ... : ... .. . ...
ROW 1C : ... .. . ... : ... .. . ... : ... .. . ... : ... .. . ... : ... .. . ...
ROW 1D : F-3 0B . ... : A#3 0B . ... : --- .. . ... : ... .. . ... : ... .. . ...
ROW 1E : ... .. . ... : ... .. . ... : ... .. . ... : ... .. . ... : ... .. . ...
ROW 1F : C-3 0B . ... : G-3 0B . ... : ... .. . ... : ... .. . ... : ... .. . ...
ROW 20 : ... .. . ... : ... .. . ... : ... .. . ... : ... .. . ... : C-3 00 . ...
ROW 21 : A#3 0B . ... : G-2 0B . ... : G-2 17 . ... : ... .. . ... : ... .. . ...
ROW 22 : ... .. . ... : ... .. . ... : ... .. . ... : ... .. . ... : ... .. . ...
ROW 23 : G-3 0B . ... : F-3 0B . ... : ... .. . ... : ... .. . ... : ... .. . ...
ROW 24 : ... .. . ... : ... .. . ... : ... .. . ... : ... .. . ... : ... .. . ...
ROW 25 : G-2 0B . ... : C-3 0B . ... : --- .. . ... : ... .. . ... : ... .. . ...
ROW 26 : ... .. . ... : ... .. . ... : ... .. . ... : ... .. . ... : ... .. . ...
ROW 27 : F-3 0B . ... : A#3 0B . ... : ... .. . ... : ... .. . ... : ... .. . ...
ROW 28 : ... .. . ... : ... .. . ... : ... .. . ... : ... .. . ... : D-3 00 . ...
ROW 29 : C-3 0B . ... : G-3 0B . ... : G-3 17 . ... : A-# 1B . ... : ... .. . ...
ROW 2A : ... .. . ... : ... .. . ... : ... .. . ... : ... .. . ... : ... .. . ...
ROW 2B : A#3 0B . ... : G-2 0B . ... : ... .. . ... : ... .. . ... : ... .. . ...
ROW 2C : ... .. . ... : ... .. . ... : ... .. . ... : ... .. . ... : ... .. . ...
ROW 2D : G-3 0B . ... : F-3 0B . ... : --- .. . ... : ... .. . ... : ... .. . ...
ROW 2E : ... .. . ... : ... .. . ... : ... .. . ... : ... .. . ... : ... .. . ...
ROW 2F : G-2 0B . ... : A#3 0B . ... : ... .. . ... : ... .. . ... : ... .. . ...
ROW 30 : ... .. . ... : ... .. . ... : ... .. . ... : ... .. . ... : C-3 00 . ...
ROW 31 : F-3 0B . ... : G-3 0B . ... : G-2 17 . ... : ... .. . ... : ... .. . ...
ROW 32 : ... .. . ... : ... .. . ... : ... .. . ... : ... .. . ... : ... .. . ...
ROW 33 : C-3 0B . ... : G-2 0B . ... : ... .. . ... : ... .. . ... : ... .. . ...
ROW 34 : ... .. . ... : ... .. . ... : ... .. . ... : ... .. . ... : ... .. . ...
ROW 35 : A#3 0B . ... : F-3 0B . ... : --- .. . ... : ... .. . ... : ... .. . ...
ROW 36 : ... .. . ... : ... .. . ... : ... .. . ... : ... .. . ... : ... .. . ...
ROW 37 : G-3 0B . ... : C-3 0B . ... : ... .. . ... : ... .. . ... : ... .. . ...
ROW 38 : ... .. . ... : ... .. . ... : ... .. . ... : ... .. . ... : D-3 00 . ...
ROW 39 : G-2 0B . ... : A#3 0B . ... : G-3 17 . ... : A-# 1B . ... : ... .. . ...
ROW 3A : ... .. . ... : ... .. . ... : ... .. . ... : ... .. . ... : ... .. . ...
ROW 3B : F-3 0B . ... : G-3 0B . ... : ... .. . ... : ... .. . ... : ... .. . ...
ROW 3C : ... .. . ... : ... .. . ... : ... .. . ... : ... .. . ... : ... .. . ...
ROW 3D : C-3 0B . ... : G-2 0B . ... : --- .. . ... : ... .. . ... : ... .. . ...
ROW 3E : ... .. . ... : ... .. . ... : ... .. . ... : ... .. . ... : ... .. . ...
ROW 3F : A#3 0B . ... : F-3 0B . ... : ... .. . ... : ... .. . ... : ... .. . ...
ROW 40 : ... .. . ... : ... .. . ... : ... .. . ... : ... .. . ... : C-3 00 . ...
ROW 41 : G-3 0B . ... : A#3 0B . ... : G-2 17 . ... : ... .. . ... : ... .. . ...
ROW 42 : ... .. . ... : ... .. . ... : ... .. . ... : ... .. . ... : ... .. . ...
ROW 43 : G-2 0B . ... : G-3 0B . ... : ... .. . ... : ... .. . ... : ... .. . ...
ROW 44 : ... .. . ... : ... .. . ... : ... .. . ... : ... .. . ... : ... .. . ...
ROW 45 : F-3 0B . ... : G-2 0B . ... : --- .. . ... : ... .. . ... : ... .. . ...
ROW 46 : ... .. . ... : ... .. . ... : ... .. . ... : ... .. . ... : ... .. . ...
ROW 47 : C-3 0B . ... : F-3 0B . ... : ... .. . ... : ... .. . ... : ... .. . ...
ROW 48 : ... .. . ... : ... .. . ... : ... .. . ... : ... .. . ... : D-3 00 . ...
ROW 49 : A#3 0B . ... : C-3 0B . ... : G-3 17 . ... : A-# 1B . ... : ... .. . ...
ROW 4A : ... .. . ... : ... .. . ... : ... .. . ... : ... .. . ... : ... .. . ...
ROW 4B : G-3 0B . ... : A#3 0B . ... : ... .. . ... : ... .. . ... : ... .. . ...
ROW 4C : ... .. . ... : ... .. . ... : ... .. . ... : ... .. . ... : ... .. . ...
ROW 4D : G-2 0B . ... : G-3 0B . ... : --- .. . ... : ... .. . ... : ... .. . ...
ROW 4E : ... .. . ... : ... .. . ... : ... .. . ... : ... .. . ... : ... .. . ...
ROW 4F : F-3 0B . ... : G-2 0B . ... : ... .. . ... : ... .. . ... : ... .. . ...
ROW 50 : ... .. . ... : ... .. . ... : ... .. . ... : ... .. . ... : D-3 00 . ...
ROW 51 : C-3 0B . ... : F-3 0B . ... : F-3 17 . ... : A-# 1B . ... : ... .. . ...
ROW 52 : ... .. . ... : ... .. . ... : ... .. . ... : ... .. . ... : E-3 00 . W09
ROW 53 : A#3 0B . ... : A#3 0B . ... : C-3 17 . ... : ... .. . ... : ... .. . ...
ROW 54 : ... .. . ... : ... .. . ... : ... .. . ... : ... .. . ... : D-3 00 . ...
ROW 55 : E-3 0B . ... : E-3 0B . ... : G-3 17 . ... : A-# 1B . ... : ... .. . ...
ROW 56 : ... .. . ... : ... .. . ... : ... .. . ... : ... .. . ... : D-3 00 . ...
ROW 57 : E-2 0B . ... : E-2 0B . ... : G-2 17 . ... : A-# 1B . ... : ... .. . ...

PATTERN 59
ROW 00 : ... .. . ... : ... .. . ... : ... .. . ... : ... .. . ... : C-3 00 . ...
ROW 01 : D-3 0B . ... : D-3 0B . ... : E-2 17 . ... : ... .. . ... : ... .. . ...
ROW 02 : ... .. . ... : ... .. . ... : ... .. . ... : ... .. . ... : ... .. . ...
ROW 03 : A-2 0B . ... : A-2 0B . ... : ... .. . ... : ... .. . ... : ... .. . ...
ROW 04 : ... .. . ... : ... .. . ... : ... .. . ... : ... .. . ... : ... .. . ...
ROW 05 : G-3 0B . ... : G-3 0B . ... : --- .. . ... : ... .. . ... : ... .. . ...
ROW 06 : ... .. . ... : ... .. . ... : ... .. . ... : ... .. . ... : ... .. . ...
ROW 07 : E-3 0B . ... : E-3 0B . ... : ... .. . ... : ... .. . ... : ... .. . ...
ROW 08 : ... .. . ... : ... .. . ... : ... .. . ... : ... .. . ... : D-3 00 . ...
ROW 09 : E-2 0B . ... : E-2 0B . ... : E-3 17 . ... : A-# 1B . ... : ... .. . ...
ROW 0A : ... .. . ... : ... .. . ... : ... .. . ... : ... .. . ... : ... .. . ...
ROW 0B : D-3 0B . ... : D-3 0B . ... : ... .. . ... : ... .. . ... : ... .. . ...
ROW 0C : ... .. . ... : ... .. . ... : ... .. . ... : ... .. . ... : ... .. . ...
ROW 0D : A-2 0B . ... : G-3 0B . ... : --- .. . ... : ... .. . ... : ... .. . ...
ROW 0E : ... .. . ... : ... .. . ... : ... .. . ... : ... .. . ... : ... .. . ...
ROW 0F : G-3 0B . ... : E-3 0B . ... : ... .. . ... : ... .. . ... : ... .. . ...
ROW 10 : ... .. . ... : ... .. . ... : ... .. . ... : ... .. . ... : C-3 00 . ...
ROW 11 : E-3 0B . ... : E-2 0B . ... : E-2 17 . ... : ... .. . ... : ... .. . ...
ROW 12 : ... .. . ... : ... .. . ... : ... .. . ... : ... .. . ... : ... .. . ...
ROW 13 : E-2 0B . ... : D-3 0B . ... : ... .. . ... : ... .. . ... : ... .. . ...
ROW 14 : ... .. . ... : ... .. . ... : ... .. . ... : ... .. . ... : ... .. . ...
ROW 15 : D-3 0B . ... : A-2 0B . ... : --- .. . ... : ... .. . ... : ... .. . ...
ROW 16 : ... .. . ... : ... .. . ... : ... .. . ... : ... .. . ... : ... .. . ...
ROW 17 : A-2 0B . ... : G-3 0B . ... : ... .. . ... : ... .. . ... : ... .. . ...
ROW 18 : ... .. . ... : ... .. . ... : ... .. . ... : ... .. . ... : D-3 00 . ...
ROW 19 : G-3 0B . ... : E-3 0B . ... : E-3 17 . ... : A-# 1B . ... : ... .. . ...
ROW 1A : ... .. . ... : ... .. . ... : ... .. . ... : ... .. . ... : ... .. . ...
ROW 1B : E-3 0B . ... : E-2 0B . ... : ... .. . ... : ... .. . ... : ... .. . ...
ROW 1C : ... .. . ... : ... .. . ... : ... .. . ... : ... .. . ... : ... .. . ...
ROW 1D : E-2 0B . ... : D-3 0B . ... : --- .. . ... : ... .. . ... : ... .. . ...
ROW 1E : ... .. . ... : ... .. . ... : ... .. . ... : ... .. . ... : ... .. . ...
ROW 1F : D-3 0B . ... : G-3 0B . ... : ... .. . ... : ... .. . ... : ... .. . ...
ROW 20 : ... .. . ... : ... .. . ... : ... .. . ... : ... .. . ... : C-3 00 . ...
ROW 21 : A-2 0B . ... : E-3 0B . ... : E-2 17 . ... : ... .. . ... : ... .. . ...
ROW 22 : ... .. . ... : ... .. . ... : ... .. . ... : ... .. . ... : ... .. . ...
ROW 23 : G-3 0B . ... : E-2 0B . ... : ... .. . ... : ... .. . ... : ... .. . ...
ROW 24 : ... .. . ... : ... .. . ... : ... .. . ... : ... .. . ... : ... .. . ...
ROW 25 : E-3 0B . ... : D-3 0B . ... : --- .. . ... : ... .. . ... : ... .. . ...
ROW 26 : ... .. . ... : ... .. . ... : ... .. . ... : ... .. . ... : ... .. . ...
ROW 27 : E-2 0B . ... : A-2 0B . ... : ... .. . ... : ... .. . ... : ... .. . ...
ROW 28 : ... .. . ... : ... .. . ... : ... .. . ... : ... .. . ... : D-3 00 . ...
ROW 29 : D-3 0B . ... : G-3 0B . ... : E-3 17 . ... : A-# 1B . ... : ... .. . ...
ROW 2A : ... .. . ... : ... .. . ... : ... .. . ... : ... .. . ... : ... .. . ...
ROW 2B : A-2 0B . ... : E-3 0B . ... : ... .. . ... : ... .. . ... : ... .. . ...
ROW 2C : ... .. . ... : ... .. . ... : ... .. . ... : ... .. . ... : ... .. . ...
ROW 2D : G-3 0B . ... : E-2 0B . ... : --- .. . ... : ... .. . ... : ... .. . ...
ROW 2E : ... .. . ... : ... .. . ... : ... .. . ... : ... .. . ... : ... .. . ...
ROW 2F : E-3 0B . ... : D-3 0B . ... : ... .. . ... : ... .. . ... : ... .. . ...
ROW 30 : ... .. . ... : ... .. . ... : ... .. . ... : ... .. . ... : C-3 00 . ...
ROW 31 : E-2 0B . ... : G-3 0B . ... : E-2 17 . ... : ... .. . ... : ... .. . ...
ROW 32 : ... .. . ... : ... .. . ... : ... .. . ... : ... .. . ... : ... .. . ...
ROW 33 : D-3 0B . ... : E-3 0B . ... : ... .. . ... : ... .. . ... : ... .. . ...
ROW 34 : ... .. . ... : ... .. . ... : ... .. . ... : ... .. . ... : ... .. . ...
ROW 35 : A-2 0B . ... : E-2 0B . ... : --- .. . ... : ... .. . ... : ... .. . ...
ROW 36 : ... .. . ... : ... .. . ... : ... .. . ... : ... .. . ... : ... .. . ...
ROW 37 : G-3 0B . ... : D-3 0B . ... : ... .. . ... : ... .. . ... : ... .. . ...
ROW 38 : ... .. . ... : ... .. . ... : ... .. . ... : ... .. . ... : D-3 00 . ...
ROW 39 : E-3 0B . ... : A-2 0B . ... : E-3 17 . ... : A-# 1B . ... : ... .. . ...
ROW 3A : ... .. . ... : ... .. . ... : ... .. . ... : ... .. . ... : ... .. . ...
ROW 3B : E-2 0B . ... : G-3 0B . ... : ... .. . ... : ... .. . ... : ... .. . ...
ROW 3C : ... .. . ... : ... .. . ... : ... .. . ... : ... .. . ... : ... .. . ...
ROW 3D : D-3 0B . ... : E-3 0B . ... : --- .. . ... : ... .. . ... : ... .. . ...
ROW 3E : ... .. . ... : ... .. . ... : ... .. . ... : ... .. . ... : ... .. . ...
ROW 3F : A-2 0B . ... : E-2 0B . ... : ... .. . ... : ... .. . ... : ... .. . ...
ROW 40 : ... .. . ... : ... .. . ... : ... .. . ... : ... .. . ... : C-3 00 . ...
ROW 41 : G-3 0B . ... : D-3 0B . ... : E-2 17 . ... : ... .. . ... : ... .. . ...
ROW 42 : ... .. . ... : ... .. . ... : ... .. . ... : ... .. . ... : ... .. . ...
ROW 43 : E-3 0B . ... : G-3 0B . ... : ... .. . ... : ... .. . ... : ... .. . ...
ROW 44 : ... .. . ... : ... .. . ... : ... .. . ... : ... .. . ... : ... .. . ...
ROW 45 : E-2 0B . ... : E-3 0B . ... : --- .. . ... : ... .. . ... : ... .. . ...
ROW 46 : ... .. . ... : ... .. . ... : ... .. . ... : ... .. . ... : ... .. . ...
ROW 47 : D-3 0B . ... : E-2 0B . ... : ... .. . ... : ... .. . ... : ... .. . ...
ROW 48 : ... .. . ... : ... .. . ... : ... .. . ... : ... .. . ... : D-3 00 . ...
ROW 49 : A-2 0B . ... : D-3 0B . ... : E-3 17 . ... : A-# 1B . ... : ... .. . ...
ROW 4A : ... .. . ... : ... .. . ... : ... .. . ... : ... .. . ... : ... .. . ...
ROW 4B : G-3 0B . ... : A-2 0B . ... : ... .. . ... : ... .. . ... : ... .. . ...
ROW 4C : ... .. . ... : ... .. . ... : ... .. . ... : ... .. . ... : ... .. . ...
ROW 4D : E-3 0B . ... : G-3 0B . ... : --- .. . ... : ... .. . ... : ... .. . ...
ROW 4E : ... .. . ... : ... .. . ... : ... .. . ... : ... .. . ... : ... .. . ...
ROW 4F : E-2 0B . ... : E-3 0B . ... : ... .. . ... : ... .. . ... : ... .. . ...
ROW 50 : ... .. . ... : ... .. . ... : ... .. . ... : ... .. . ... : D-3 00 . ...
ROW 51 : D-3 0B . ... : E-2 0B . ... : D-3 17 . ... : A-# 1B . ... : ... .. . ...
ROW 52 : ... .. . ... : ... .. . ... : ... .. . ... : ... .. . ... : E-3 00 . W09
ROW 53 : A-2 0B . ... : D-3 0B . ... : A-2 17 . ... : ... .. . ... : ... .. . ...
ROW 54 : ... .. . ... : ... .. . ... : ... .. . ... : ... .. . ... : D-3 00 . ...
ROW 55 : G-3 0B . ... : G-3 0B . ... : E-3 17 . ... : A-# 1B . ... : ... .. . ...
ROW 56 : ... .. . ... : ... .. . ... : ... .. . ... : ... .. . ... : D-3 00 . ...
ROW 57 : G-3 0B . ... : G-3 0B . ... : E-2 17 . ... : A-# 1B . ... : ... .. . ...

PATTERN 5A
ROW 00 : ... .. . ... : ... .. . ... : ... .. . ... : ... .. . ... : C-3 00 . ...
ROW 01 : G-2 0B . ... : G-2 0B . ... : G-2 17 . ... : ... .. . ... : ... .. . ...
ROW 02 : ... .. . ... : ... .. . ... : ... .. . ... : ... .. . ... : ... .. . ...
ROW 03 : F-3 0B . ... : F-3 0B . ... : ... .. . ... : ... .. . ... : ... .. . ...
ROW 04 : ... .. . ... : ... .. . ... : ... .. . ... : ... .. . ... : ... .. . ...
ROW 05 : C-3 0B . ... : C-3 0B . ... : --- .. . ... : ... .. . ... : ... .. . ...
ROW 06 : ... .. . ... : ... .. . ... : ... .. . ... : ... .. . ... : ... .. . ...
ROW 07 : A#3 0B . ... : A#3 0B . ... : ... .. . ... : ... .. . ... : ... .. . ...
ROW 08 : ... .. . ... : ... .. . ... : ... .. . ... : ... .. . ... : D-3 00 . ...
ROW 09 : G-3 0B . ... : G-3 0B . ... : G-3 17 . ... : A-# 1B . ... : ... .. . ...
ROW 0A : ... .. . ... : ... .. . ... : ... .. . ... : ... .. . ... : ... .. . ...
ROW 0B : G-2 0B . ... : G-2 0B . ... : ... .. . ... : ... .. . ... : ... .. . ...
ROW 0C : ... .. . ... : ... .. . ... : ... .. . ... : ... .. . ... : ... .. . ...
ROW 0D : F-3 0B . ... : F-3 0B . ... : --- .. . ... : ... .. . ... : ... .. . ...
ROW 0E : ... .. . ... : ... .. . ... : ... .. . ... : ... .. . ... : ... .. . ...
ROW 0F : C-3 0B . ... : A#3 0B . ... : ... .. . ... : ... .. . ... : ... .. . ...
ROW 10 : ... .. . ... : ... .. . ... : ... .. . ... : ... .. . ... : C-3 00 . ...
ROW 11 : A#3 0B . ... : G-3 0B . ... : G-2 17 . ... : ... .. . ... : ... .. . ...
ROW 12 : ... .. . ... : ... .. . ... : ... .. . ... : ... .. . ... : ... .. . ...
ROW 13 : G-3 0B . ... : G-2 0B . ... : ... .. . ... : ... .. . ... : ... .. . ...
ROW 14 : ... .. . ... : ... .. . ... : ... .. . ... : ... .. . ... : ... .. . ...
ROW 15 : G-2 0B . ... : F-3 0B . ... : --- .. . ... : ... .. . ... : ... .. . ...
ROW 16 : ... .. . ... : ... .. . ... : ... .. . ... : ... .. . ... : ... .. . ...
ROW 17 : F-3 0B . ... : C-3 0B . ... : ... .. . ... : ... .. . ... : ... .. . ...
ROW 18 : ... .. . ... : ... .. . ... : ... .. . ... : ... .. . ... : D-3 00 . ...
ROW 19 : C-3 0B . ... : A#3 0B . ... : G-3 17 . ... : A-# 1B . ... : ... .. . ...
ROW 1A : ... .. . ... : ... .. . ... : ... .. . ... : ... .. . ... : ... .. . ...
ROW 1B : A#3 0B . ... : G-3 0B . ... : ... .. . ... : ... .. . ... : ... .. . ...
ROW 1C : ... .. . ... : ... .. . ... : ... .. . ... : ... .. . ... : ... .. . ...
ROW 1D : G-3 0B . ... : G-2 0B . ... : --- .. . ... : ... .. . ... : ... .. . ...
ROW 1E : ... .. . ... : ... .. . ... : ... .. . ... : ... .. . ... : ... .. . ...
ROW 1F : G-2 0B . ... : F-3 0B . ... : ... .. . ... : ... .. . ... : ... .. . ...
ROW 20 : ... .. . ... : ... .. . ... : ... .. . ... : ... .. . ... : C-3 00 . ...
ROW 21 : F-3 0B . ... : A#3 0B . ... : G-2 17 . ... : ... .. . ... : ... .. . ...
ROW 22 : ... .. . ... : ... .. . ... : ... .. . ... : ... .. . ... : ... .. . ...
ROW 23 : C-3 0B . ... : G-3 0B . ... : ... .. . ... : ... .. . ... : ... .. . ...
ROW 24 : ... .. . ... : ... .. . ... : ... .. . ... : ... .. . ... : ... .. . ...
ROW 25 : A#3 0B . ... : G-2 0B . ... : --- .. . ... : ... .. . ... : ... .. . ...
ROW 26 : ... .. . ... : ... .. . ... : ... .. . ... : ... .. . ... : ... .. . ...
ROW 27 : G-3 0B . ... : F-3 0B . ... : ... .. . ... : ... .. . ... : ... .. . ...
ROW 28 : ... .. . ... : ... .. . ... : ... .. . ... : ... .. . ... : D-3 00 . ...
ROW 29 : G-2 0B . ... : C-3 0B . ... : G-3 17 . ... : A-# 1B . ... : ... .. . ...
ROW 2A : ... .. . ... : ... .. . ... : ... .. . ... : ... .. . ... : ... .. . ...
ROW 2B : F-3 0B . ... : A#3 0B . ... : ... .. . ... : ... .. . ... : ... .. . ...
ROW 2C : ... .. . ... : ... .. . ... : ... .. . ... : ... .. . ... : ... .. . ...
ROW 2D : C-3 0B . ... : G-3 0B . ... : --- .. . ... : ... .. . ... : ... .. . ...
ROW 2E : ... .. . ... : ... .. . ... : ... .. . ... : ... .. . ... : ... .. . ...
ROW 2F : A#3 0B . ... : G-2 0B . ... : ... .. . ... : ... .. . ... : ... .. . ...
ROW 30 : ... .. . ... : ... .. . ... : ... .. . ... : ... .. . ... : C-3 00 . ...
ROW 31 : G-3 0B . ... : F-3 0B . ... : G-2 17 . ... : ... .. . ... : ... .. . ...
ROW 32 : ... .. . ... : ... .. . ... : ... .. . ... : ... .. . ... : ... .. . ...
ROW 33 : G-2 0B . ... : A#3 0B . ... : ... .. . ... : ... .. . ... : ... .. . ...
ROW 34 : ... .. . ... : ... .. . ... : ... .. . ... : ... .. . ... : ... .. . ...
ROW 35 : F-3 0B . ... : G-3 0B . ... : --- .. . ... : ... .. . ... : ... .. . ...
ROW 36 : ... .. . ... : ... .. . ... : ... .. . ... : ... .. . ... : ... .. . ...
ROW 37 : C-3 0B . ... : G-2 0B . ... : ... .. . ... : ... .. . ... : ... .. . ...
ROW 38 : ... .. . ... : ... .. . ... : ... .. . ... : ... .. . ... : D-3 00 . ...
ROW 39 : A#3 0B . ... : F-3 0B . ... : G-3 17 . ... : A-# 1B . ... : ... .. . ...
ROW 3A : ... .. . ... : ... .. . ... : ... .. . ... : ... .. . ... : ... .. . ...
ROW 3B : G-3 0B . ... : C-3 0B . ... : ... .. . ... : ... .. . ... : ... .. . ...
ROW 3C : ... .. . ... : ... .. . ... : ... .. . ... : ... .. . ... : ... .. . ...
ROW 3D : G-2 0B . ... : A#3 0B . ... : --- .. . ... : ... .. . ... : ... .. . ...
ROW 3E : ... .. . ... : ... .. . ... : ... .. . ... : ... .. . ... : ... .. . ...
ROW 3F : F-3 0B . ... : G-3 0B . ... : ... .. . ... : ... .. . ... : ... .. . ...
ROW 40 : ... .. . ... : ... .. . ... : ... .. . ... : ... .. . ... : C-3 00 . ...
ROW 41 : C-3 0B . ... : G-2 0B . ... : G-2 17 . ... : ... .. . ... : ... .. . ...
ROW 42 : ... .. . ... : ... .. . ... : ... .. . ... : ... .. . ... : ... .. . ...
ROW 43 : A#3 0B . ... : F-3 0B . ... : ... .. . ... : ... .. . ... : ... .. . ...
ROW 44 : ... .. . ... : ... .. . ... : ... .. . ... : ... .. . ... : ... .. . ...
ROW 45 : G-3 0B . ... : A#3 0B . ... : --- .. . ... : ... .. . ... : ... .. . ...
ROW 46 : ... .. . ... : ... .. . ... : ... .. . ... : ... .. . ... : ... .. . ...
ROW 47 : G-2 0B . ... : G-3 0B . ... : ... .. . ... : ... .. . ... : ... .. . ...
ROW 48 : ... .. . ... : ... .. . ... : ... .. . ... : ... .. . ... : D-3 00 . ...
ROW 49 : F-3 0B . ... : G-2 0B . ... : G-3 17 . ... : A-# 1B . ... : ... .. . ...
ROW 4A : ... .. . ... : ... .. . ... : ... .. . ... : ... .. . ... : ... .. . ...
ROW 4B : C-3 0B . ... : F-3 0B . ... : ... .. . ... : ... .. . ... : ... .. . ...
ROW 4C : ... .. . ... : ... .. . ... : ... .. . ... : ... .. . ... : ... .. . ...
ROW 4D : A#3 0B . ... : C-3 0B . ... : --- .. . ... : ... .. . ... : ... .. . ...
ROW 4E : ... .. . ... : ... .. . ... : ... .. . ... : ... .. . ... : ... .. . ...
ROW 4F : G-3 0B . ... : A#3 0B . ... : ... .. . ... : ... .. . ... : ... .. . ...
ROW 50 : ... .. . ... : ... .. . ... : ... .. . ... : ... .. . ... : D-3 00 . ...
ROW 51 : G-2 0B . ... : G-3 0B . ... : F-3 17 . ... : A-# 1B . ... : ... .. . ...
ROW 52 : ... .. . ... : ... .. . ... : ... .. . ... : ... .. . ... : E-3 00 . W09
ROW 53 : F-3 0B . ... : G-2 0B . ... : C-3 17 . ... : ... .. . ... : ... .. . ...
ROW 54 : ... .. . ... : ... .. . ... : ... .. . ... : ... .. . ... : D-3 00 . ...
ROW 55 : C-3 0B . ... : F-3 0B . ... : G-3 17 . ... : A-# 1B . ... : ... .. . ...
ROW 56 : ... .. . ... : ... .. . ... : ... .. . ... : ... .. . ... : D-3 00 . ...
ROW 57 : A#3 0B . ... : A#3 0B . ... : G-2 17 . ... : A-# 1B . ... : ... .. . B01

TRACK  64   3 150 "Stage 2"
COLUMNS : 1 1 1 1 1

ORDER 00 : 00 00 00 00 00
ORDER 01 : 01 01 01 01 01
ORDER 02 : 02 02 02 02 02
ORDER 03 : 03 03 03 03 03
ORDER 04 : 04 04 04 04 04

PATTERN 00
ROW 00 : ... .. . ... : ... .. . ... : ... .. . ... : ... .. . ... : C-3 00 . ...
ROW 01 : D-2 0A . ... : D-2 09 . ... : D-3 1A . ... : ... .. . ... : ... .. . ...
ROW 02 : ... .. . ... : ... .. . ... : ... .. . ... : ... .. . ... : ... .. . ...
ROW 03 : ... .. . ... : G#2 09 . ... : D-3 1A . ... : ... .. . ... : ... .. . ...
ROW 04 : ... .. . ... : ... .. . ... : ... .. . ... : ... .. . ... : ... .. . ...
ROW 05 : ... .. . ... : A-2 09 . ... : D-3 1A . ... : ... .. . ... : ... .. . ...
ROW 06 : ... .. . ... : ... .. . ... : ... .. . ... : ... .. . ... : C-3 00 . ...
ROW 07 : ... .. . ... : D-2 09 . ... : D-3 1A . ... : ... .. . ... : ... .. . ...
ROW 08 : ... .. . ... : ... .. . ... : ... .. . ... : ... .. . ... : D-3 00 . ...
ROW 09 : D-3 0A . ... : A-2 09 . ... : F#3 1A . ... : A-# 1B . ... : ... .. . ...
ROW 0A : ... .. . ... : ... .. . ... : ... .. . ... : ... .. . ... : C-3 00 . ...
ROW 0B : ... .. . ... : A#2 09 . ... : D-3 1A . ... : ... .. . ... : ... .. . ...
ROW 0C : ... .. . ... : ... .. . ... : ... .. . ... : ... .. . ... : ... .. . ...
ROW 0D : ... .. . ... : D-2 09 . ... : D-3 1A . ... : ... .. . ... : ... .. . ...
ROW 0E : ... .. . ... : ... .. . ... : ... .. . ... : ... .. . ... : D-3 00 . ...
ROW 0F : ... .. . ... : A-2 09 . ... : D-3 1A . ... : A-# 1B . ... : ... .. . ...
ROW 10 : ... .. . ... : ... .. . ... : ... .. . ... : ... .. . ... : ... .. . ...
ROW 11 : --- .. . ... : D-2 09 . ... : C-3 1A . ... : ... .. . ... : ... .. . ...
ROW 12 : ... .. . ... : ... .. . ... : ... .. . ... : ... .. . ... : C-3 00 . ...
ROW 13 : D-3 0A . ... : G#2 09 . ... : D-3 1A . ... : ... .. . ... : ... .. . ...
ROW 14 : ... .. . ... : ... .. . ... : ... .. . ... : ... .. . ... : D-3 00 . ...
ROW 15 : A-2 0A . ... : A-2 09 . ... : D-3 1A . ... : A-# 1B . ... : ... .. . ...
ROW 16 : ... .. . ... : ... .. . ... : ... .. . ... : ... .. . ... : ... .. . ...
ROW 17 : ... .. . ... : D-2 09 . ... : D-3 1A . ... : ... .. . ... : ... .. . ...
ROW 18 : ... .. . ... : ... .. . ... : ... .. . ... : ... .. . ... : C-3 00 . ...
ROW 19 : E-3 0A . ... : A-2 09 . ... : C-3 1A . ... : ... .. . ... : ... .. . ...
ROW 1A : ... .. . ... : ... .. . ... : ... .. . ... : ... .. . ... : C-3 00 . ...
ROW 1B : D-3 0A . ... : A#2 09 . ... : D-3 1A . ... : ... .. . ... : ... .. . ...
ROW 1C : ... .. . ... : ... .. . ... : ... .. . ... : ... .. . ... : D-3 00 . ...
ROW 1D : ... .. . ... : D-2 09 . ... : D-3 1A . ... : A-# 1B . ... : ... .. . ...
ROW 1E : ... .. . ... : ... .. . ... : ... .. . ... : ... .. . ... : D-3 00 . ...
ROW 1F : A-2 0A . ... : A-2 09 . ... : D-3 1A . ... : A-# 1B . ... : ... .. . ...
ROW 20 : ... .. . ... : ... .. . ... : ... .. . ... : ... .. . ... : C-3 00 . ...
ROW 21 : D-2 0A . ... : D-2 09 . ... : D-3 1A . ... : ... .. . ... : ... .. . ...
ROW 22 : ... .. . ... : ... .. . ... : ... .. . ... : ... .. . ... : ... .. . ...
ROW 23 : ... .. . ... : G#2 09 . ... : D-3 1A . ... : ... .. . ... : ... .. . ...
ROW 24 : ... .. . ... : ... .. . ... : ... .. . ... : ... .. . ... : ... .. . ...
ROW 25 : ... .. . ... : A-2 09 . ... : D-3 1A . ... : ... .. . ... : ... .. . ...
ROW 26 : ... .. . ... : ... .. . ... : ... .. . ... : ... .. . ... : C-3 00 . ...
ROW 27 : ... .. . ... : D-2 09 . ... : D-3 1A . ... : ... .. . ... : ... .. . ...
ROW 28 : ... .. . ... : ... .. . ... : ... .. . ... : ... .. . ... : D-3 00 . ...
ROW 29 : D-3 0A . ... : A-2 09 . ... : F#3 1A . ... : A-# 1B . ... : ... .. . ...
ROW 2A : ... .. . ... : ... .. . ... : ... .. . ... : ... .. . ... : C-3 00 . ...
ROW 2B : ... .. . ... : A#2 09 . ... : D-3 1A . ... : ... .. . ... : ... .. . ...
ROW 2C : ... .. . ... : ... .. . ... : ... .. . ... : ... .. . ... : ... .. . ...
ROW 2D : ... .. . ... : D-2 09 . ... : D-3 1A . ... : ... .. . ... : ... .. . ...
ROW 2E : ... .. . ... : ... .. . ... : ... .. . ... : ... .. . ... : D-3 00 . ...
ROW 2F : ... .. . ... : A-2 09 . ... : D-3 1A . ... : A-# 1B . ... : ... .. . ...
ROW 30 : ... .. . ... : ... .. . ... : ... .. . ... : ... .. . ... : ... .. . ...
ROW 31 : --- .. . ... : D-2 09 . ... : C-3 1A . ... : ... .. . ... : ... .. . ...
ROW 32 : ... .. . ... : ... .. . ... : ... .. . ... : ... .. . ... : C-3 00 . ...
ROW 33 : D-3 0A . ... : G#2 09 . ... : D-3 1A . ... : ... .. . ... : ... .. . ...
ROW 34 : ... .. . ... : ... .. . ... : ... .. . ... : ... .. . ... : D-3 00 . ...
ROW 35 : A-2 0A . ... : A-2 09 . ... : D-3 1A . ... : A-# 1B . ... : ... .. . ...
ROW 36 : ... .. . ... : ... .. . ... : ... .. . ... : ... .. . ... : ... .. . ...
ROW 37 : ... .. . ... : D-2 09 . ... : D-3 1A . ... : ... .. . ... : ... .. . ...
ROW 38 : ... .. . ... : ... .. . ... : ... .. . ... : ... .. . ... : C-3 00 . ...
ROW 39 : E-3 0A . ... : A-2 09 . ... : C-3 1A . ... : ... .. . ... : ... .. . ...
ROW 3A : ... .. . ... : ... .. . ... : ... .. . ... : ... .. . ... : C-3 00 . ...
ROW 3B : D-3 0A . ... : A#2 09 . ... : D-3 1A . ... : ... .. . ... : ... .. . ...
ROW 3C : ... .. . ... : ... .. . ... : ... .. . ... : ... .. . ... : D-3 00 . ...
ROW 3D : ... .. . ... : D-2 09 . ... : D-3 1A . ... : A-# 1B . ... : ... .. . ...
ROW 3E : ... .. . ... : ... .. . ... : ... .. . ... : ... .. . ... : D-3 00 . ...
ROW 3F : A-2 0A . ... : A-2 09 . ... : D-3 1A . ... : A-# 1B . ... : ... .. . ...

PATTERN 01
ROW 00 : ... .. . ... : ... .. . ... : ... .. . ... : ... .. . ... : C-3 00 . ...
ROW 01 : C-2 0A . ... : C-2 09 . ... : C-3 1A . ... : ... .. . ... : ... .. . ...
ROW 02 : ... .. . ... : ... .. . ... : ... .. . ... : ... .. . ... : ... .. . ...
ROW 03 : ... .. . ... : F#2 09 . ... : C-3 1A . ... : ... .. . ... : ... .. . ...
ROW 04 : ... .. . ... : ... .. . ... : ... .. . ... : ... .. . ... : ... .. . ...
ROW 05 : ... .. . ... : G-2 09 . ... : C-3 1A . ... : ... .. . ... : ... .. . ...
ROW 06 : ... .. . ... : ... .. . ... : ... .. . ... : ... .. . ... : C-3 00 . ...
ROW 07 : ... .. . ... : C-2 09 . ... : C-3 1A . ... : ... .. . ... : ... .. . ...
ROW 08 : ... .. . ... : ... .. . ... : ... .. . ... : ... .. . ... : D-3 00 . ...
ROW 09 : C-3 0A . ... : G-2 09 . ... : E-3 1A . ... : A-# 1B . ... : ... .. . ...
ROW 0A : ... .. . ... : ... .. . ... : ... .. . ... : ... .. . ... : C-3 00 . ...
ROW 0B : ... .. . ... : A-2 09 . ... : C-3 1A . ... : ... .. . ... : ... .. . ...
ROW 0C : ... .. . ... : ... .. . ... : ... .. . ... : ... .. . ... : ... .. . ...
ROW 0D : ... .. . ... : C-2 09 . ... : C-3 1A . ... : ... .. . ... : ... .. . ...
ROW 0E : ... .. . ... : ... .. . ... : ... .. . ... : ... .. . ... : D-3 00 . ...
ROW 0F : ... .. . ... : G-2 09 . ... : C-3 1A . ... : A-# 1B . ... : ... .. . ...
ROW 10 : ... .. . ... : ... .. . ... : ... .. . ... : ... .. . ... : ... .. . ...
ROW 11 : --- .. . ... : C-2 09 . ... : A#2 1A . ... : ... .. . ... : ... .. . ...
ROW 12 : ... .. . ... : ... .. . ... : ... .. . ... : ... .. . ... : C-3 00 . ...
ROW 13 : C-3 0A . ... : F#2 09 . ... : C-3 1A . ... : ... .. . ... : ... .. . ...
ROW 14 : ... .. . ... : ... .. . ... : ... .. . ... : ... .. . ... : D-3 00 . ...
ROW 15 : G-2 0A . ... : G-2 09 . ... : C-3 1A . ... : A-# 1B . ... : ... .. . ...
ROW 16 : ... .. . ... : ... .. . ... : ... .. . ... : ... .. . ... : ... .. . ...
ROW 17 : ... .. . ... : C-2 09 . ... : C-3 1A . ... : ... .. . ... : ... .. . ...
ROW 18 : ... .. . ... : ... .. . ... : ... .. . ... : ... .. . ... : C-3 00 . ...
ROW 19 : D-3 0A . ... : G-2 09 . ... : A#2 1A . ... : ... .. . ... : ... .. . ...
ROW 1A : ... .. . ... : ... .. . ... : ... .. . ... : ... .. . ... : C-3 00 . ...
ROW 1B : C-3 0A . ... : A-2 09 . ... : C-3 1A . ... : ... .. . ... : ... .. . ...
ROW 1C : ... .. . ... : ... .. . ... : ... .. . ... : ... .. . ... : D-3 00 . ...
ROW 1D : ... .. . ... : C-2 09 . ... : C-3 1A . ... : A-# 1B . ... : ... .. . ...
ROW 1E : ... .. . ... : ... .. . ... : ... .. . ... : ... .. . ... : D-3 00 . ...
ROW 1F : G-2 0A . ... : G-2 09 . ... : C-3 1A . ... : A-# 1B . ... : ... .. . ...
ROW 20 : ... .. . ... : ... .. . ... : ... .. . ... : ... .. . ... : C-3 00 . ...
ROW 21 : C-2 0A . ... : C-2 09 . ... : C-3 1A . ... : ... .. . ... : ... .. . ...
ROW 22 : ... .. . ... : ... .. . ... : ... .. . ... : ... .. . ... : ... .. . ...
ROW 23 : ... .. . ... : F#2 09 . ... : C-3 1A . ... : ... .. . ... : ... .. . ...
ROW 24 : ... .. . ... : ... .. . ... : ... .. . ... : ... .. . ... : ... .. . ...
ROW 25 : ... .. . ... : G-2 09 . ... : C-3 1A . ... : ... .. . ... : ... .. . ...
ROW 26 : ... .. . ... : ... .. . ... : ... .. . ... : ... .. . ... : C-3 00 . ...
ROW 27 : ... .. . ... : C-2 09 . ... : C-3 1A . ... : ... .. . ... : ... .. . ...
ROW 28 : ... .. . ... : ... .. . ... : ... .. . ... : ... .. . ... : D-3 00 . ...
ROW 29 : C-3 0A . ... : G-2 09 . ... : E-3 1A . ... : A-# 1B . ... : ... .. . ...
ROW 2A : ... .. . ... : ... .. . ... : ... .. . ... : ... .. . ... : C-3 00 . ...
ROW 2B : ... .. . ... : A-2 09 . ... : C-3 1A . ... : ... .. . ... : ... .. . ...
ROW 2C : ... .. . ... : ... .. . ... : ... .. . ... : ... .. . ... : ... .. . ...
ROW 2D : ... .. . ... : C-2 09 . ... : C-3 1A . ... : ... .. . ... : ... .. . ...
ROW 2E : ... .. . ... : ... .. . ... : ... .. . ... : ... .. . ... : D-3 00 . ...
ROW 2F : ... .. . ... : G-2 09 . ... : C-3 1A . ... : A-# 1B . ... : ... .. . ...
ROW 30 : ... .. . ... : ... .. . ... : ... .. . ... : ... .. . ... : ... .. . ...
ROW 31 : --- .. . ... : C-2 09 . ... : A#2 1A . ... : ... .. . ... : ... .. . ...
ROW 32 : ... .. . ... : ... .. . ... : ... .. . ... : ... .. . ... : C-3 00 . ...
ROW 33 : C-3 0A . ... : F#2 09 . ... : C-3 1A . ... : ... .. . ... : ... .. . ...
ROW 34 : ... .. . ... : ... .. . ... : ... .. . ... : ... .. . ... : D-3 00 . ...
ROW 35 : G-2 0A . ... : G-2 09 . ... : C-3 1A . ... : A-# 1B . ... : ... .. . ...
ROW 36 : ... .. . ... : ... .. . ... : ... .. . ... : ... .. . ... : ... .. . ...
ROW 37 : ... .. . ... : C-2 09 . ... : C-3 1A . ... : ... .. . ... : ... .. . ...
ROW 38 : ... .. . ... : ... .. . ... : ... .. . ... : ... .. . ... : C-3 00 . ...
ROW 39 : D-3 0A . ... : G-2 09 . ... : A#2 1A . ... : ... .. . ... : ... .. . ...
ROW 3A : ... .. . ... : ... .. . ... : ... .. . ... : ... .. . ... : C-3 00 . ...
ROW 3B : C-3 0A . ... : A-2 09 . ... : C-3 1A . ... : ... .. . ... : ... .. . ...
ROW 3C : ... .. . ... : ... .. . ... : ... .. . ... : ... .. . ... : D-3 00 . ...
ROW 3D : ... .. . ... : C-2 09 . ... : C-3 1A . ... : A-# 1B . ... : ... .. . ...
ROW 3E : ... .. . ... : ... .. . ... : ... .. . ... : ... .. . ... : D-3 00 . ...
ROW 3F : G-2 0A . ... : G-2 09 . ... : C-3 1A . ... : A-# 1B . ... : ... .. . ...

PATTERN 02
ROW 00 : ... .. . ... : ... .. . ... : ... .. . ... : ... .. . ... : C-3 00 . ...
ROW 01 : D-2 0A . ... : D-2 09 . ... : D-3 1A . ... : ... .. . ... : ... .. . ...
ROW 02 : ... .. . ... : ... .. . ... : ... .. . ... : ... .. . ... : ... .. . ...
ROW 03 : ... .. . ... : G#2 09 . ... : D-3 1A . ... : ... .. . ... : ... .. . ...
ROW 04 : ... .. . ... : ... .. . ... : ... .. . ... : ... .. . ... : ... .. . ...
ROW 05 : ... .. . ... : A-2 09 . ... : D-3 1A . ... : ... .. . ... : ... .. . ...
ROW 06 : ... .. . ... : ... .. . ... : ... .. . ... : ... .. . ... : C-3 00 . ...
ROW 07 : ... .. . ... : D-2 09 . ... : D-3 1A . ... : ... .. . ... : ... .. . ...
ROW 08 : ... .. . ... : ... .. . ... : ... .. . ... : ... .. . ... : D-3 00 . ...
ROW 09 : D-3 0A . ... : A-2 09 . ... : F#3 1A . ... : A-# 1B . ... : ... .. . ...
ROW 0A : ... .. . ... : ... .. . ... : ... .. . ... : ... .. . ... : C-3 00 . ...
ROW 0B : ... .. . ... : A#2 09 . ... : D-3 1A . ... : ... .. . ... : ... .. . ...
ROW 0C : ... .. . ... : ... .. . ... : ... .. . ... : ... .. . ... : ... .. . ...
ROW 0D : ... .. . ... : D-2 09 . ... : D-3 1A . ... : ... .. . ... : ... .. . ...
ROW 0E : ... .. . ... : ... .. . ... : ... .. . ... : ... .. . ... : D-3 00 . ...
ROW 0F : ... .. . ... : A-2 09 . ... : D-3 1A . ... : A-# 1B . ... : ... .. . ...
ROW 10 : ... .. . ... : ... .. . ... : ... .. . ... : ... .. . ... : ... .. . ...
ROW 11 : --- .. . ... : D-2 09 . ... : C-3 1A . ... : ... .. . ... : ... .. . ...
ROW 12 : ... .. . ... : ... .. . ... : ... .. . ... : ... .. . ... : C-3 00 . ...
ROW 13 : D-3 0A . ... : G#2 09 . ... : D-3 1A . ... : ... .. . ... : ... .. . ...
ROW 14 : ... .. . ... : ... .. . ... : ... .. . ... : ... .. . ... : D-3 00 . ...
ROW 15 : A-2 0A . ... : A-2 09 . ... : D-3 1A . ... : A-# 1B . ... : ... .. . ...
ROW 16 : ... .. . ... : ... .. . ... : ... .. . ... : ... .. . ... : ... .. . ...
ROW 17 : ... .. . ... : D-2 09 . ... : D-3 1A . ... : ... .. . ... : ... .. . ...
ROW 18 : ... .. . ... : ... .. . ... : ... .. . ... : ... .. . ... : C-3 00 . ...
ROW 19 : E-3 0A . ... : A-2 09 . ... : C-3 1A . ... : ... .. . ... : ... .. . ...
ROW 1A : ... .. . ... : ... .. . ... : ... .. . ... : ... .. . ... : C-3 00 . ...
ROW 1B : D-3 0A . ... : A#2 09 . ... : D-3 1A . ... : ... .. . ... : ... .. . ...
ROW 1C : ... .. . ... : ... .. . ... : ... .. . ... : ... .. . ... : D-3 00 . ...
ROW 1D : ... .. . ... : D-2 09 . ... : D-3 1A . ... : A-# 1B . ... : ... .. . ...
ROW 1E : ... .. . ... : ... .. . ... : ... .. . ... : ... .. . ... : D-3 00 . ...
ROW 1F : A-2 0A . ... : A-2 09 . ... : D-3 1A . ... : A-# 1B . ... : ... .. . ...
ROW 20 : ... .. . ... : ... .. . ... : ... .. . ... : ... .. . ... : C-3 00 . ...
ROW 21 : D-2 0A . ... : D-2 09 . ... : D-3 1A . ... : ... .. . ... : ... .. . ...
ROW 22 : ... .. . ... : ... .. . ... : ... .. . ... : ... .. . ... : ... .. . ...
ROW 23 : ... .. . ... : G#2 09 . ... : D-3 1A . ... : ... .. . ... : ... .. . ...
ROW 24 : ... .. . ... : ... .. . ... : ... .. . ... : ... .. . ... : ... .. . ...
ROW 25 : ... .. . ... : A-2 09 . ... : D-3 1A . ... : ... .. . ... : ... .. . ...
ROW 26 : ... .. . ... : ... .. . ... : ... .. . ... : ... .. . ... : C-3 00 . ...
ROW 27 : ... .. . ... : D-2 09 . ... : D-3 1A . ... : ... .. . ... : ... .. . ...
ROW 28 : ... .. . ... : ... .. . ... : ... .. . ... : ... .. . ... : D-3 00 . ...
ROW 29 : D-3 0A . ... : A-2 09 . ... : F#3 1A . ... : A-# 1B . ... : ... .. . ...
ROW 2A : ... .. . ... : ... .. . ... : ... .. . ... : ... .. . ... : C-3 00 . ...
ROW 2B : ... .. . ... : A#2 09 . ... : D-3 1A . ... : ... .. . ... : ... .. . ...
ROW 2C : ... .. . ... : ... .. . ... : ... .. . ... : ... .. . ... : ... .. . ...
ROW 2D : ... .. . ... : D-2 09 . ... : D-3 1A . ... : ... .. . ... : ... .. . ...
ROW 2E : ... .. . ... : ... .. . ... : ... .. . ... : ... .. . ... : D-3 00 . ...
ROW 2F : ... .. . ... : A-2 09 . ... : D-3 1A . ... : A-# 1B . ... : ... .. . ...
ROW 30 : ... .. . ... : ... .. . ... : ... .. . ... : ... .. . ... : ... .. . ...
ROW 31 : --- .. . ... : D-2 09 . ... : C-3 1A . ... : ... .. . ... : ... .. . ...
ROW 32 : ... .. . ... : ... .. . ... : ... .. . ... : ... .. . ... : C-3 00 . ...
ROW 33 : D-3 0A . ... : G#2 09 . ... : D-3 1A . ... : ... .. . ... : ... .. . ...
ROW 34 : ... .. . ... : ... .. . ... : ... .. . ... : ... .. . ... : D-3 00 . ...
ROW 35 : A-2 0A . ... : A-2 09 . ... : D-3 1A . ... : A-# 1B . ... : ... .. . ...
ROW 36 : ... .. . ... : ... .. . ... : ... .. . ... : ... .. . ... : ... .. . ...
ROW 37 : ... .. . ... : D-2 09 . ... : D-3 1A . ... : ... .. . ... : ... .. . ...
ROW 38 : ... .. . ... : ... .. . ... : ... .. . ... : ... .. . ... : C-3 00 . ...
ROW 39 : E-3 0A . ... : A-2 09 . ... : C-3 1A . ... : ... .. . ... : ... .. . ...
ROW 3A : ... .. . ... : ... .. . ... : ... .. . ... : ... .. . ... : C-3 00 . ...
ROW 3B : D-3 0A . ... : A#2 09 . ... : D-3 1A . ... : ... .. . ... : ... .. . ...
ROW 3C : ... .. . ... : ... .. . ... : ... .. . ... : ... .. . ... : D-3 00 . ...
ROW 3D : ... .. . ... : D-2 09 . ... : D-3 1A . ... : A-# 1B . ... : ... .. . ...
ROW 3E : ... .. . ... : ... .. . ... : ... .. . ... : ... .. . ... : D-3 00 . ...
ROW 3F : A-2 0A . ... : A-2 09 . ... : D-3 1A . ... : A-# 1B . ... : ... .. . ...

PATTERN 03
ROW 00 : ... .. . ... : ... .. . ... : ... .. . ... : ... .. . ... : C-3 00 . ...
ROW 01 : C-2 0A . ... : C-2 09 . ... : C-3 1A . ... : ... .. . ... : ... .. . ...
ROW 02 : ... .. . ... : ... .. . ... : ... .. . ... : ... .. . ... : ... .. . ...
ROW 03 : ... .. . ... : F#2 09 . ... : C-3 1A . ... : ... .. . ... : ... .. . ...
ROW 04 : ... .. . ... : ... .. . ... : ... .. . ... : ... .. . ... : ... .. . ...
ROW 05 : ... .. . ... : G-2 09 . ... : C-3 1A . ... : ... .. . ... : ... .. . ...
ROW 06 : ... .. . ... : ... .. . ... : ... .. . ... : ... .. . ... : C-3 00 . ...
ROW 07 : ... .. . ... : C-2 09 . ... : C-3 1A . ... : ... .. . ... : ... .. . ...
ROW 08 : ... .. . ... : ... .. . ... : ... .. . ... : ... .. . ... : D-3 00 . ...
ROW 09 : C-3 0A . ... : G-2 09 . ... : E-3 1A . ... : A-# 1B . ... : ... .. . ...
ROW 0A : ... .. . ... : ... .. . ... : ... .. . ... : ... .. . ... : C-3 00 . ...
ROW 0B : ... .. . ... : A-2 09 . ... : C-3 1A . ... : ... .. . ... : ... .. . ...
ROW 0C : ... .. . ... : ... .. . ... : ... .. . ... : ... .. . ... : ... .. . ...
ROW 0D : ... .. . ... : C-2 09 . ... : C-3 1A . ... : ... .. . ... : ... .. . ...
ROW 0E : ... .. . ... : ... .. . ... : ... .. . ... : ... .. . ... : D-3 00 . ...
ROW 0F : ... .. . ... : G-2 09 . ... : C-3 1A . ... : A-# 1B . ... : ... .. . ...
ROW 10 : ... .. . ... : ... .. . ... : ... .. . ... : ... .. . ... : ... .. . ...
ROW 11 : --- .. . ... : C-2 09 . ... : A#2 1A . ... : ... .. . ... : ... .. . ...
ROW 12 : ... .. . ... : ... .. . ... : ... .. . ... : ... .. . ... : C-3 00 . ...
ROW 13 : C-3 0A . ... : F#2 09 . ... : C-3 1A . ... : ... .. . ... : ... .. . ...
ROW 14 : ... .. . ... : ... .. . ... : ... .. . ... : ... .. . ... : D-3 00 . ...
ROW 15 : G-2 0A . ... : G-2 09 . ... : C-3 1A . ... : A-# 1B . ... : ... .. . ...
ROW 16 : ... .. . ... : ... .. . ... : ... .. . ... : ... .. . ... : ... .. . ...
ROW 17 : ... .. . ... : C-2 09 . ... : C-3 1A . ... : ... .. . ... : ... .. . ...
ROW 18 : ... .. . ... : ... .. . ... : ... .. . ... : ... .. . ... : C-3 00 . ...
ROW 19 : D-3 0A . ... : G-2 09 . ... : A#2 1A . ... : ... .. . ... : ... .. . ...
ROW 1A : ... .. . ... : ... .. . ... : ... .. . ... : ... .. . ... : C-3 00 . ...
ROW 1B : C-3 0A . ... : A-2 09 . ... : C-3 1A . ... : ... .. . ... : ... .. . ...
ROW 1C : ... .. . ... : ... .. . ... : ... .. . ... : ... .. . ... : D-3 00 . ...
ROW 1D : ... .. . ... : C-2 09 . ... : C-3 1A . ... : A-# 1B . ... : ... .. . ...
ROW 1E : ... .. . ... : ... .. . ... : ... .. . ... : ... .. . ... : D-3 00 . ...
ROW 1F : G-2 0A . ... : G-2 09 . ... : C-3 1A . ... : A-# 1B . ... : ... .. . ...
ROW 20 : ... .. . ... : ... .. . ... : ... .. . ... : ... .. . ... : C-3 00 . ...
ROW 21 : C-2 0A . ... : C-2 09 . ... : C-3 1A . ... : ... .. . ... : ... .. . ...
ROW 22 : ... .. . ... : ... .. . ... : ... .. . ... : ... .. . ... : ... .. . ...
ROW 23 : ... .. . ... : F#2 09 . ... : C-3 1A . ... : ... .. . ... : ... .. . ...
ROW 24 : ... .. . ... : ... .. . ... : ... .. . ... : ... .. . ... : ... .. . ...
ROW 25 : ... .. . ... : G-2 09 . ... : C-3 1A . ... : ... .. . ... : ... .. . ...
ROW 26 : ... .. . ... : ... .. . ... : ... .. . ... : ... .. . ... : C-3 00 . ...
ROW 27 : ... .. . ... : C-2 09 . ... : C-3 1A . ... : ... .. . ... : ... .. . ...
ROW 28 : ... .. . ... : ... .. . ... : ... .. . ... : ... .. . ... : D-3 00 . ...
ROW 29 : C-3 0A . ... : G-2 09 . ... : E-3 1A . ... : A-# 1B . ... : ... .. . ...
ROW 2A : ... .. . ... : ... .. . ... : ... .. . ... : ... .. . ... : C-3 00 . ...
ROW 2B : ... .. . ... : A-2 09 . ... : C-3 1A . ... : ... .. . ... : ... .. . ...
ROW 2C : ... .. . ... : ... .. . ... : ... .. . ... : ... .. . ... : ... .. . ...
ROW 2D : ... .. . ... : C-2 09 . ... : C-3 1A . ... : ... .. . ... : ... .. . ...
ROW 2E : ... .. . ... : ... .. . ... : ... .. . ... : ... .. . ... : D-3 00 . ...
ROW 2F : ... .. . ... : G-2 09 . ... : C-3 1A . ... : A-# 1B . ... : ... .. . ...
ROW 30 : ... .. . ... : ... .. . ... : ... .. . ... : ... .. . ... : ... .. . ...
ROW 31 : --- .. . ... : C-2 09 . ... : A#2 1A . ... : ... .. . ... : ... .. . ...
ROW 32 : ... .. . ... : ... .. . ... : ... .. . ... : ... .. . ... : C-3 00 . ...
ROW 33 : C-3 0A . ... : F#2 09 . ... : C-3 1A . ... : ... .. . ... : ... .. . ...
ROW 34 : ... .. . ... : ... .. . ... : ... .. . ... : ... .. . ... : D-3 00 . ...
ROW 35 : G-2 0A . ... : G-2 09 . ... : C-3 1A . ... : A-# 1B . ... : ... .. . ...
ROW 36 : ... .. . ... : ... .. . ... : ... .. . ... : ... .. . ... : ... .. . ...
ROW 37 : ... .. . ... : C-2 09 . ... : C-3 1A . ... : ... .. . ... : ... .. . ...
ROW 38 : ... .. . ... : ... .. . ... : ... .. . ... : ... .. . ... : C-3 00 . ...
ROW 39 : D-3 0A . ... : G-2 09 . ... : A#2 1A . ... : ... .. . ... : ... .. . ...
ROW 3A : ... .. . ... : ... .. . ... : ... .. . ... : ... .. . ... : C-3 00 . ...
ROW 3B : C-3 0A . ... : A-2 09 . ... : C-3 1A . ... : ... .. . ... : ... .. . ...
ROW 3C : ... .. . ... : ... .. . ... : ... .. . ... : ... .. . ... : D-3 00 . ...
ROW 3D : ... .. . ... : C-2 09 . ... : C-3 1A . ... : A-# 1B . ... : ... .. . ...
ROW 3E : ... .. . ... : ... .. . ... : ... .. . ... : ... .. . ... : D-3 00 . ...
ROW 3F : G-2 0A . ... : G-2 09 . ... : C-3 1A . ... : A-# 1B . ... : ... .. . ...

PATTERN 04
ROW 00 : ... .. . ... : ... .. . ... : ... .. . ... : ... .. . ... : C-3 00 . ...
ROW 01 : F-3 0A . ... : A#2 09 . ... : D-3 1A . ... : ... .. . ... : ... .. . ...
ROW 02 : ... .. . ... : ... .. . ... : ... .. . ... : ... .. . ... : ... .. . ...
ROW 03 : E-3 0A . ... : A-2 09 . ... : D-3 1A . ... : ... .. . ... : ... .. . ...
ROW 04 : ... .. . ... : ... .. . ... : ... .. . ... : ... .. . ... : ... .. . ...
ROW 05 : D-3 0A . ... : G-2 09 . ... : C-3 1A . ... : ... .. . ... : ... .. . ...
ROW 06 : ... .. . ... : ... .. . ... : ... .. . ... : ... .. . ... : C-3 00 . ...
ROW 07 : C-3 0A . ... : F-2 09 . ... : D-3 1A . ... : ... .. . ... : ... .. . ...
ROW 08 : ... .. . ... : ... .. . ... : ... .. . ... : ... .. . ... : D-3 00 . ...
ROW 09 : D-3 0A . ... : G-2 09 . ... : D-3 1A . ... : A-# 1B . ... : ... .. . ...
ROW 0A : ... .. . ... : ... .. . ... : ... .. . ... : ... .. . ... : C-3 00 . ...
ROW 0B : E-3 0A . ... : A-2 09 . ... : D-3 1A . ... : ... .. . ... : ... .. . ...
ROW 0C : ... .. . ... : ... .. . ... : ... .. . ... : ... .. . ... : ... .. . ...
ROW 0D : F-3 0A . ... : A#2 09 . ... : C-3 1A . ... : ... .. . ... : ... .. . ...
ROW 0E : ... .. . ... : ... .. . ... : ... .. . ... : ... .. . ... : D-3 00 . ...
ROW 0F : E-3 0A . ... : A-2 09 . ... : D-3 1A . ... : A-# 1B . ... : ... .. . ...
ROW 10 : ... .. . ... : ... .. . ... : ... .. . ... : ... .. . ... : ... .. . ...
ROW 11 : D-3 0A . ... : G-2 09 . ... : D-3 1A . ... : ... .. . ... : ... .. . ...
ROW 12 : ... .. . ... : ... .. . ... : ... .. . ... : ... .. . ... : C-3 00 . ...
ROW 13 : C-3 0A . ... : F-2 09 . ... : D-3 1A . ... : ... .. . ... : ... .. . ...
ROW 14 : ... .. . ... : ... .. . ... : ... .. . ... : ... .. . ... : D-3 00 . ...
ROW 15 : D-3 0A . ... : G-2 09 . ... : C-3 1A . ... : A-# 1B . ... : ... .. . ...
ROW 16 : ... .. . ... : ... .. . ... : ... .. . ... : ... .. . ... : ... .. . ...
ROW 17 : E-3 0A . ... : A-2 09 . ... : D-3 1A . ... : ... .. . ... : ... .. . ...
ROW 18 : ... .. . ... : ... .. . ... : ... .. . ... : ... .. . ... : C-3 00 . ...
ROW 19 : F-3 0A . ... : A#2 09 . ... : D-3 1A . ... : ... .. . ... : ... .. . ...
ROW 1A : ... .. . ... : ... .. . ... : ... .. . ... : ... .. . ... : C-3 00 . ...
ROW 1B : E-3 0A . ... : A-2 09 . ... : D-3 1A . ... : ... .. . ... : ... .. . ...
ROW 1C : ... .. . ... : ... .. . ... : ... .. . ... : ... .. . ... : D-3 00 . ...
ROW 1D : D-3 0A . ... : G-2 09 . ... : C-3 1A . ... : A-# 1B . ... : ... .. . ...
ROW 1E : ... .. . ... : ... .. . ... : ... .. . ... : ... .. . ... : D-3 00 . ...
ROW 1F : C-3 0A . ... : F-2 09 . ... : D-3 1A . ... : A-# 1B . ... : ... .. . ...
ROW 20 : ... .. . ... : ... .. . ... : ... .. . ... : ... .. . ... : C-3 00 . ...
ROW 21 : G-3 0A . ... : C-3 09 . ... : E-3 1A . ... : ... .. . ... : ... .. . ...
ROW 22 : ... .. . ... : ... .. . ... : ... .. . ... : ... .. . ... : ... .. . ...
ROW 23 : F-3 0A . ... : A#2 09 . ... : E-3 1A . ... : ... .. . ... : ... .. . ...
ROW 24 : ... .. . ... : ... .. . ... : ... .. . ... : ... .. . ... : ... .. . ...
ROW 25 : E-3 0A . ... : A-2 09 . ... : D-3 1A . ... : ... .. . ... : ... .. . ...
ROW 26 : ... .. . ... : ... .. . ... : ... .. . ... : ... .. . ... : C-3 00 . ...
ROW 27 : D-3 0A . ... : G-2 09 . ... : E-3 1A . ... : ... .. . ... : ... .. . ...
ROW 28 : ... .. . ... : ... .. . ... : ... .. . ... : ... .. . ... : D-3 00 . ...
ROW 29 : E-3 0A . ... : A-2 09 . ... : E-3 1A . ... : A-# 1B . ... : ... .. . ...
ROW 2A : ... .. . ... : ... .. . ... : ... .. . ... : ... .. . ... : C-3 00 . ...
ROW 2B : F-3 0A . ... : A#2 09 . ... : E-3 1A . ... : ... .. . ... : ... .. . ...
ROW 2C : ... .. . ... : ... .. . ... : ... .. . ... : ... .. . ... : ... .. . ...
ROW 2D : G-3 0A . ... : C-3 09 . ... : D-3 1A . ... : ... .. . ... : ... .. . ...
ROW 2E : ... .. . ... : ... .. . ... : ... .. . ... : ... .. . ... : D-3 00 . ...
ROW 2F : F-3 0A . ... : A#2 09 . ... : E-3 1A . ... : A-# 1B . ... : ... .. . ...
ROW 30 : ... .. . ... : ... .. . ... : ... .. . ... : ... .. . ... : C-3 00 . ...
ROW 31 : E-3 0A . ... : A-2 09 . ... : E-3 1A . ... : ... .. . ... : ... .. . ...
ROW 32 : ... .. . ... : ... .. . ... : ... .. . ... : ... .. . ... : C-3 00 . ...
ROW 33 : D-3 0A . ... : G-2 09 . ... : E-3 1A . ... : ... .. . ... : ... .. . ...
ROW 34 : ... .. . ... : ... .. . ... : ... .. . ... : ... .. . ... : D-3 00 . ...
ROW 35 : E-3 0A . ... : A-2 09 . ... : D-3 1A . ... : A-# 1B . ... : ... .. . ...
ROW 36 : ... .. . ... : ... .. . ... : ... .. . ... : ... .. . ... : C-3 00 . ...
ROW 37 : F-3 0A . ... : A#2 09 . ... : E-3 1A . ... : ... .. . ... : ... .. . ...
ROW 38 : ... .. . ... : ... .. . ... : ... .. . ... : ... .. . ... : C-3 00 . ...
ROW 39 : E-3 0A . ... : C-3 09 . ... : G-3 1A . ... : ... .. . ... : ... .. . ...
ROW 3A : ... .. . ... : ... .. . ... : ... .. . ... : ... .. . ... : C-3 00 . ...
ROW 3B : F-3 0A . ... : C-3 09 . ... : G-3 1A . ... : ... .. . ... : ... .. . ...
ROW 3C : ... .. . ... : ... .. . ... : ... .. . ... : ... .. . ... : D-3 00 . ...
ROW 3D : G-3 0A . ... : D-3 09 . ... : A-3 1A . ... : A-# 1B . ... : ... .. . ...
ROW 3E : ... .. . ... : ... .. . ... : ... .. . ... : ... .. . ... : D-3 00 . ...
ROW 3F : F-3 0A . ... : C-3 09 . ... : G-3 1A . ... : A-# 1B . ... : ... .. . ...

TRACK  32   1 150 "Stage 3"
COLUMNS : 1 1 1 1 1

ORDER 00 : 00 00 00 00 00
ORDER 01 : 01 01 01 01 01
ORDER 02 : 02 02 02 02 02
ORDER 03 : 03 03 03 03 03
ORDER 04 : 04 04 04 04 04
ORDER 05 : 05 05 05 05 05
ORDER 06 : 06 06 06 06 06

PATTERN 00
ROW 00 : ... .. . ... : ... .. 0 ... : ... .. . ... : ... .. . ... : ... .. . D00
ROW 01 : ... .. . ... : ... .. . ... : ... .. . ... : ... .. . ... : ... .. . ...
ROW 02 : ... .. . ... : ... .. . ... : ... .. . ... : ... .. . ... : ... .. . ...
ROW 03 : ... .. . ... : ... .. . ... : ... .. . ... : ... .. . ... : ... .. . ...
ROW 04 : ... .. . ... : ... .. . ... : ... .. . ... : ... .. . ... : ... .. . ...
ROW 05 : ... .. . ... : ... .. . ... : ... .. . ... : ... .. . ... : ... .. . ...
ROW 06 : ... .. . ... : ... .. . ... : ... .. . ... : ... .. . ... : ... .. . ...
ROW 07 : ... .. . ... : ... .. . ... : ... .. . ... : ... .. . ... : ... .. . ...
ROW 08 : ... .. . ... : ... .. . ... : ... .. . ... : ... .. . ... : ... .. . ...
ROW 09 : ... .. . ... : ... .. . ... : ... .. . ... : ... .. . ... : ... .. . ...
ROW 0A : ... .. . ... : ... .. . ... : ... .. . ... : ... .. . ... : ... .. . ...
ROW 0B : ... .. . ... : ... .. . ... : ... .. . ... : ... .. . ... : ... .. . ...
ROW 0C : ... .. . ... : ... .. . ... : ... .. . ... : ... .. . ... : ... .. . ...
ROW 0D : ... .. . ... : ... .. . ... : ... .. . ... : ... .. . ... : ... .. . ...
ROW 0E : ... .. . ... : ... .. . ... : ... .. . ... : ... .. . ... : ... .. . ...
ROW 0F : ... .. . ... : ... .. . ... : ... .. . ... : ... .. . ... : ... .. . ...
ROW 10 : ... .. . ... : ... .. . ... : ... .. . ... : ... .. . ... : ... .. . ...
ROW 11 : ... .. . ... : ... .. . ... : ... .. . ... : ... .. . ... : ... .. . ...
ROW 12 : ... .. . ... : ... .. . ... : ... .. . ... : ... .. . ... : ... .. . ...
ROW 13 : ... .. . ... : ... .. . ... : ... .. . ... : ... .. . ... : ... .. . ...
ROW 14 : ... .. . ... : ... .. . ... : ... .. . ... : ... .. . ... : ... .. . ...
ROW 15 : ... .. . ... : ... .. . ... : ... .. . ... : ... .. . ... : ... .. . ...
ROW 16 : ... .. . ... : ... .. . ... : ... .. . ... : ... .. . ... : ... .. . ...
ROW 17 : ... .. . ... : ... .. . ... : ... .. . ... : ... .. . ... : ... .. . ...
ROW 18 : ... .. . ... : ... .. . ... : ... .. . ... : ... .. . ... : ... .. . ...
ROW 19 : ... .. . ... : ... .. . ... : ... .. . ... : ... .. . ... : ... .. . ...
ROW 1A : ... .. . ... : ... .. . ... : ... .. . ... : ... .. . ... : ... .. . ...
ROW 1B : ... .. . ... : ... .. . ... : ... .. . ... : ... .. . ... : ... .. . ...
ROW 1C : ... .. . ... : ... .. . ... : ... .. . ... : ... .. . ... : ... .. . ...
ROW 1D : ... .. . ... : ... .. . ... : ... .. . ... : ... .. . ... : ... .. . ...
ROW 1E : ... .. . ... : ... .. . ... : ... .. . ... : ... .. . ... : ... .. . ...
ROW 1F : ... .. . ... : ... .. . ... : ... .. . ... : ... .. . ... : ... .. . ...

PATTERN 01
ROW 00 : F-3 0C . ... : D-4 0C . ... : B-3 15 . ... : ... .. . ... : ... .. . F09
ROW 01 : D-3 0C . ... : F-3 0C F ... : ... .. . ... : ... .. . ... : ... .. . ...
ROW 02 : B-2 0C . ... : D-3 0C . ... : ... .. . ... : ... .. . ... : ... .. . ...
ROW 03 : G#2 0C . ... : B-2 0C . ... : ... .. . ... : ... .. . ... : ... .. . ...
ROW 04 : B-2 0C . ... : G#2 0C . ... : ... .. . ... : ... .. . ... : ... .. . ...
ROW 05 : D-3 0C . ... : B-2 0C . ... : ... .. . ... : ... .. . ... : ... .. . ...
ROW 06 : B-3 0C . ... : D-3 0C . ... : ... .. . ... : ... .. . ... : ... .. . ...
ROW 07 : G#3 0C . ... : B-3 0C . ... : ... .. . ... : ... .. . ... : ... .. . ...
ROW 08 : F-3 0C . ... : G#3 0C . ... : ... .. . ... : ... .. . ... : ... .. . ...
ROW 09 : D-3 0C . ... : F-3 0C . ... : ... .. . ... : ... .. . ... : ... .. . ...
ROW 0A : B-2 0C . ... : D-3 0C . ... : ... .. . ... : ... .. . ... : ... .. . ...
ROW 0B : G#2 0C . ... : B-2 0C . ... : ... .. . ... : ... .. . ... : ... .. . ...
ROW 0C : B-2 0C . ... : G#2 0C . ... : ... .. . ... : ... .. . ... : ... .. . ...
ROW 0D : D-3 0C . ... : B-2 0C . ... : ... .. . ... : ... .. . ... : ... .. . ...
ROW 0E : B-3 0C . ... : D-3 0C . ... : ... .. . ... : ... .. . ... : ... .. . ...
ROW 0F : G#3 0C . ... : B-3 0C . ... : ... .. . ... : ... .. . ... : ... .. . ...
ROW 10 : F-3 0C . ... : G#3 0C . ... : A#3 15 . ... : ... .. . ... : ... .. . ...
ROW 11 : D-3 0C . ... : F-3 0C . ... : ... .. . ... : ... .. . ... : ... .. . ...
ROW 12 : B-2 0C . ... : D-3 0C . ... : ... .. . ... : ... .. . ... : ... .. . ...
ROW 13 : G#2 0C . ... : B-2 0C . ... : ... .. . ... : ... .. . ... : ... .. . ...
ROW 14 : B-2 0C . ... : G#2 0C . ... : ... .. . ... : ... .. . ... : ... .. . ...
ROW 15 : D-3 0C . ... : B-2 0C . ... : ... .. . ... : ... .. . ... : ... .. . ...
ROW 16 : B-3 0C . ... : D-3 0C . ... : ... .. . ... : ... .. . ... : ... .. . ...
ROW 17 : G#3 0C . ... : B-3 0C . ... : ... .. . ... : ... .. . ... : ... .. . ...
ROW 18 : F-3 0C . ... : G#3 0C . ... : ... .. . ... : ... .. . ... : ... .. . ...
ROW 19 : D-3 0C . ... : F-3 0C . ... : ... .. . ... : ... .. . ... : ... .. . ...
ROW 1A : B-2 0C . ... : D-3 0C . ... : ... .. . ... : ... .. . ... : ... .. . ...
ROW 1B : G#2 0C . ... : B-2 0C . ... : ... .. . ... : ... .. . ... : ... .. . ...
ROW 1C : B-2 0C . ... : G#2 0C . ... : F-3 15 . ... : ... .. . ... : ... .. . ...
ROW 1D : D-3 0C . ... : B-2 0C . ... : ... .. . ... : ... .. . ... : ... .. . ...
ROW 1E : B-3 0C . ... : D-3 0C . ... : ... .. . ... : ... .. . ... : ... .. . ...
ROW 1F : G#3 0C . ... : B-3 0C . ... : ... .. . ... : ... .. . ... : ... .. . ...

PATTERN 02
ROW 00 : E-3 0C . ... : G#3 0C . ... : E-3 15 . ... : ... .. . ... : ... .. . ...
ROW 01 : C#3 0C . ... : E-3 0C . ... : ... .. . ... : ... .. . ... : ... .. . ...
ROW 02 : A#2 0C . ... : C#3 0C . ... : ... .. . ... : ... .. . ... : ... .. . ...
ROW 03 : G-2 0C . ... : A#2 0C . ... : ... .. . ... : ... .. . ... : ... .. . ...
ROW 04 : A#2 0C . ... : G-2 0C . ... : ... .. . ... : ... .. . ... : ... .. . ...
ROW 05 : C#3 0C . ... : A#2 0C . ... : ... .. . ... : ... .. . ... : ... .. . ...
ROW 06 : A#3 0C . ... : C#3 0C . ... : ... .. . ... : ... .. . ... : ... .. . ...
ROW 07 : G-3 0C . ... : A#3 0C . ... : ... .. . ... : ... .. . ... : ... .. . ...
ROW 08 : E-3 0C . ... : G-3 0C . ... : A-3 15 . ... : ... .. . ... : ... .. . ...
ROW 09 : C#3 0C . ... : E-3 0C . ... : ... .. . ... : ... .. . ... : ... .. . ...
ROW 0A : A#2 0C . ... : C#3 0C . ... : ... .. . ... : ... .. . ... : ... .. . ...
ROW 0B : G-2 0C . ... : A#2 0C . ... : ... .. . ... : ... .. . ... : ... .. . ...
ROW 0C : A#2 0C . ... : G-2 0C . ... : ... .. . ... : ... .. . ... : ... .. . ...
ROW 0D : C#3 0C . ... : A#2 0C . ... : ... .. . ... : ... .. . ... : ... .. . ...
ROW 0E : A#3 0C . ... : C#3 0C . ... : ... .. . ... : ... .. . ... : ... .. . ...
ROW 0F : G-3 0C . ... : A#3 0C . ... : ... .. . ... : ... .. . ... : ... .. . ...
ROW 10 : E-3 0C . ... : G-3 0C . ... : G#3 15 . ... : ... .. . ... : ... .. . ...
ROW 11 : C#3 0C . ... : E-3 0C . ... : ... .. . ... : ... .. . ... : ... .. . ...
ROW 12 : A#2 0C . ... : C#3 0C . ... : ... .. . ... : ... .. . ... : ... .. . ...
ROW 13 : G-2 0C . ... : A#2 0C . ... : ... .. . ... : ... .. . ... : ... .. . ...
ROW 14 : A#2 0C . ... : G-2 0C . ... : ... .. . ... : ... .. . ... : ... .. . ...
ROW 15 : C#3 0C . ... : A#2 0C . ... : ... .. . ... : ... .. . ... : ... .. . ...
ROW 16 : A#3 0C . ... : C#3 0C . ... : ... .. . ... : ... .. . ... : ... .. . ...
ROW 17 : G-3 0C . ... : A#3 0C . ... : ... .. . ... : ... .. . ... : ... .. . ...
ROW 18 : E-3 0C . ... : G-3 0C . ... : C-4 15 . ... : ... .. . ... : ... .. . ...
ROW 19 : C#3 0C . ... : E-3 0C . ... : ... .. . ... : ... .. . ... : ... .. . ...
ROW 1A : A#2 0C . ... : C#3 0C . ... : ... .. . ... : ... .. . ... : ... .. . ...
ROW 1B : G-2 0C . ... : A#2 0C . ... : ... .. . ... : ... .. . ... : ... .. . ...
ROW 1C : A#2 0C . ... : G-2 0C . ... : ... .. . ... : ... .. . ... : ... .. . ...
ROW 1D : C#3 0C . ... : A#2 0C . ... : ... .. . ... : ... .. . ... : ... .. . ...
ROW 1E : A#3 0C . ... : C#3 0C . ... : ... .. . ... : ... .. . ... : ... .. . ...
ROW 1F : G-3 0C . ... : A#3 0C . ... : ... .. . ... : ... .. . ... : ... .. . ...

PATTERN 03
ROW 00 : D#3 0C . ... : G-3 0C . ... : D-4 15 . ... : ... .. . ... : ... .. . ...
ROW 01 : C-3 0C . ... : D#3 0C . ... : ... .. . ... : ... .. . ... : ... .. . ...
ROW 02 : A-2 0C . ... : C-3 0C . ... : ... .. . ... : ... .. . ... : ... .. . ...
ROW 03 : F#2 0C . ... : A-2 0C . ... : ... .. . ... : ... .. . ... : ... .. . ...
ROW 04 : A-2 0C . ... : F#2 0C . ... : ... .. . ... : ... .. . ... : ... .. . ...
ROW 05 : C-3 0C . ... : A-2 0C . ... : ... .. . ... : ... .. . ... : ... .. . ...
ROW 06 : A-3 0C . ... : C-3 0C . ... : ... .. . ... : ... .. . ... : ... .. . ...
ROW 07 : F#3 0C . ... : A-3 0C . ... : ... .. . ... : ... .. . ... : ... .. . ...
ROW 08 : D#3 0C . ... : F#3 0C . ... : ... .. . ... : ... .. . ... : ... .. . ...
ROW 09 : C-3 0C . ... : D#3 0C . ... : ... .. . ... : ... .. . ... : ... .. . ...
ROW 0A : A-2 0C . ... : C-3 0C . ... : ... .. . ... : ... .. . ... : ... .. . ...
ROW 0B : F#2 0C . ... : A-2 0C . ... : ... .. . ... : ... .. . ... : ... .. . ...
ROW 0C : A-2 0C . ... : F#2 0C . ... : ... .. . ... : ... .. . ... : ... .. . ...
ROW 0D : C-3 0C . ... : A-2 0C . ... : ... .. . ... : ... .. . ... : ... .. . ...
ROW 0E : A-3 0C . ... : C-3 0C . ... : ... .. . ... : ... .. . ... : ... .. . ...
ROW 0F : F#3 0C . ... : A-3 0C . ... : ... .. . ... : ... .. . ... : ... .. . ...
ROW 10 : D#3 0C . ... : F#3 0C . ... : C#4 15 . ... : ... .. . ... : ... .. . ...
ROW 11 : C-3 0C . ... : D#3 0C . ... : ... .. . ... : ... .. . ... : ... .. . ...
ROW 12 : A-2 0C . ... : C-3 0C . ... : ... .. . ... : ... .. . ... : ... .. . ...
ROW 13 : F#2 0C . ... : A-2 0C . ... : ... .. . ... : ... .. . ... : ... .. . ...
ROW 14 : A-2 0C . ... : F#2 0C . ... : ... .. . ... : ... .. . ... : ... .. . ...
ROW 15 : C-3 0C . ... : A-2 0C . ... : ... .. . ... : ... .. . ... : ... .. . ...
ROW 16 : A-3 0C . ... : C-3 0C . ... : ... .. . ... : ... .. . ... : ... .. . ...
ROW 17 : F#3 0C . ... : A-3 0C . ... : ... .. . ... : ... .. . ... : ... .. . ...
ROW 18 : D#3 0C . ... : F#3 0C . ... : ... .. . ... : ... .. . ... : ... .. . ...
ROW 19 : C-3 0C . ... : D#3 0C . ... : ... .. . ... : ... .. . ... : ... .. . ...
ROW 1A : A-2 0C . ... : C-3 0C . ... : ... .. . ... : ... .. . ... : ... .. . ...
ROW 1B : F#2 0C . ... : A-2 0C . ... : ... .. . ... : ... .. . ... : ... .. . ...
ROW 1C : A-2 0C . ... : F#2 0C . ... : G#3 15 . ... : ... .. . ... : ... .. . ...
ROW 1D : C-3 0C . ... : A-2 0C . ... : ... .. . ... : ... .. . ... : ... .. . ...
ROW 1E : A-3 0C . ... : C-3 0C . ... : ... .. . ... : ... .. . ... : ... .. . ...
ROW 1F : F#3 0C . ... : A-3 0C . ... : ... .. . ... : ... .. . ... : ... .. . ...

PATTERN 04
ROW 00 : D-3 0C . ... : F#3 0C . ... : G-3 15 . ... : ... .. . ... : ... .. . ...
ROW 01 : B-2 0C . ... : D-3 0C . ... : ... .. . ... : ... .. . ... : ... .. . ...
ROW 02 : G#2 0C . ... : B-2 0C . ... : ... .. . ... : ... .. . ... : ... .. . ...
ROW 03 : F-2 0C . ... : G#2 0C . ... : ... .. . ... : ... .. . ... : ... .. . ...
ROW 04 : G#2 0C . ... : F-2 0C . ... : ... .. . ... : ... .. . ... : ... .. . ...
ROW 05 : B-2 0C . ... : G#2 0C . ... : ... .. . ... : ... .. . ... : ... .. . ...
ROW 06 : G#3 0C . ... : B-2 0C . ... : ... .. . ... : ... .. . ... : ... .. . ...
ROW 07 : F-3 0C . ... : G#3 0C . ... : ... .. . ... : ... .. . ... : ... .. . ...
ROW 08 : D-3 0C . ... : F-3 0C . ... : C-4 15 . ... : ... .. . ... : ... .. . ...
ROW 09 : B-2 0C . ... : D-3 0C . ... : ... .. . ... : ... .. . ... : ... .. . ...
ROW 0A : G#2 0C . ... : B-2 0C . ... : ... .. . ... : ... .. . ... : ... .. . ...
ROW 0B : F-2 0C . ... : G#2 0C . ... : ... .. . ... : ... .. . ... : ... .. . ...
ROW 0C : G#2 0C . ... : F-2 0C . ... : ... .. . ... : ... .. . ... : ... .. . ...
ROW 0D : B-2 0C . ... : G#2 0C . ... : ... .. . ... : ... .. . ... : ... .. . ...
ROW 0E : G#3 0C . ... : B-2 0C . ... : ... .. . ... : ... .. . ... : ... .. . ...
ROW 0F : F-3 0C . ... : G#3 0C . ... : ... .. . ... : ... .. . ... : ... .. . ...
ROW 10 : D-3 0C . ... : F-3 0C . ... : B-3 15 . ... : ... .. . ... : ... .. . ...
ROW 11 : B-2 0C . ... : D-3 0C . ... : ... .. . ... : ... .. . ... : ... .. . ...
ROW 12 : G#2 0C . ... : B-2 0C . ... : ... .. . ... : ... .. . ... : ... .. . ...
ROW 13 : F-2 0C . ... : G#2 0C . ... : ... .. . ... : ... .. . ... : ... .. . ...
ROW 14 : G#2 0C . ... : F-2 0C . ... : ... .. . ... : ... .. . ... : ... .. . ...
ROW 15 : B-2 0C . ... : G#2 0C . ... : ... .. . ... : ... .. . ... : ... .. . ...
ROW 16 : G#3 0C . ... : B-2 0C . ... : ... .. . ... : ... .. . ... : ... .. . ...
ROW 17 : F-3 0C . ... : G#3 0C . ... : ... .. . ... : ... .. . ... : ... .. . ...
ROW 18 : D-3 0C . ... : F-3 0C . ... : D#4 15 . ... : ... .. . ... : ... .. . ...
ROW 19 : B-2 0C . ... : D-3 0C . ... : ... .. . ... : ... .. . ... : ... .. . ...
ROW 1A : G#2 0C . ... : B-2 0C . ... : ... .. . ... : ... .. . ... : ... .. . ...
ROW 1B : F-2 0C . ... : G#2 0C . ... : ... .. . ... : ... .. . ... : ... .. . ...
ROW 1C : G#2 0C . ... : F-2 0C . ... : ... .. . ... : ... .. . ... : ... .. . ...
ROW 1D : B-2 0C . ... : G#2 0C . ... : ... .. . ... : ... .. . ... : ... .. . ...
ROW 1E : G#3 0C . ... : B-2 0C . ... : ... .. . ... : ... .. . ... : ... .. . ...
ROW 1F : F-3 0C . ... : G#3 0C . ... : ... .. . ... : ... .. . ... : ... .. . ...

PATTERN 05
ROW 00 : E-1 0C . ... : F-3 0C . ... : E-4 15 . ... : ... .. . ... : ... .. . ...
ROW 01 : E-2 0C . ... : E-1 0C . ... : ... .. . ... : ... .. . ... : ... .. . ...
ROW 02 : F-2 0C . ... : E-2 0C . ... : ... .. . ... : ... .. . ... : ... .. . ...
ROW 03 : E-3 0C . ... : F-2 0C . ... : ... .. . ... : ... .. . ... : ... .. . ...
ROW 04 : G#2 0C . ... : E-3 0C . ... : ... .. . ... : ... .. . ... : ... .. . ...
ROW 05 : A#2 0C . ... : G#2 0C . ... : ... .. . ... : ... .. . ... : ... .. . ...
ROW 06 : D-2 0C . ... : A#2 0C . ... : ... .. . ... : ... .. . ... : ... .. . ...
ROW 07 : B-2 0C . ... : D-2 0C . ... : ... .. . ... : ... .. . ... : ... .. . ...
ROW 08 : E-2 0C . ... : B-2 0C . ... : ... .. . ... : ... .. . ... : ... .. . ...
ROW 09 : E-3 0C . ... : E-2 0C . ... : ... .. . ... : ... .. . ... : ... .. . ...
ROW 0A : F-3 0C . ... : E-3 0C . ... : ... .. . ... : ... .. . ... : ... .. . ...
ROW 0B : E-4 0C . ... : F-3 0C . ... : ... .. . ... : ... .. . ... : ... .. . ...
ROW 0C : G#3 0C . ... : E-4 0C . ... : ... .. . ... : ... .. . ... : ... .. . ...
ROW 0D : A#3 0C . ... : G#3 0C . ... : ... .. . ... : ... .. . ... : ... .. . ...
ROW 0E : A#4 0C . ... : A#3 0C . ... : ... .. . ... : ... .. . ... : ... .. . ...
ROW 0F : D-4 0C . ... : A#4 0C . ... : ... .. . ... : ... .. . ... : ... .. . ...
ROW 10 : E-1 0C . ... : D-4 0C . ... : ... .. . ... : ... .. . ... : ... .. . ...
ROW 11 : E-2 0C . ... : E-1 0C . ... : ... .. . ... : ... .. . ... : ... .. . ...
ROW 12 : F-2 0C . ... : E-2 0C . ... : ... .. . ... : ... .. . ... : ... .. . ...
ROW 13 : E-3 0C . ... : F-2 0C . ... : ... .. . ... : ... .. . ... : ... .. . ...
ROW 14 : G#2 0C . ... : E-3 0C . ... : ... .. . ... : ... .. . ... : ... .. . ...
ROW 15 : A#2 0C . ... : G#2 0C . ... : ... .. . ... : ... .. . ... : ... .. . ...
ROW 16 : D-2 0C . ... : A#2 0C . ... : ... .. . ... : ... .. . ... : ... .. . ...
ROW 17 : B-2 0C . ... : D-2 0C . ... : ... .. . ... : ... .. . ... : ... .. . ...
ROW 18 : E-2 0C . ... : B-2 0C . ... : ... .. . ... : ... .. . ... : ... .. . ...
ROW 19 : E-3 0C . ... : E-2 0C . ... : ... .. . ... : ... .. . ... : ... .. . ...
ROW 1A : F-3 0C . ... : E-3 0C . ... : ... .. . ... : ... .. . ... : ... .. . ...
ROW 1B : E-4 0C . ... : F-3 0C . ... : ... .. . ... : ... .. . ... : ... .. . ...
ROW 1C : G#3 0C . ... : E-4 0C . ... : ... .. . ... : ... .. . ... : ... .. . ...
ROW 1D : A#3 0C . ... : G#3 0C . ... : ... .. . ... : ... .. . ... : ... .. . ...
ROW 1E : A#4 0C . ... : A#3 0C . ... : ... .. . ... : ... .. . ... : ... .. . ...
ROW 1F : D-4 0C . ... : A#4 0C . ... : ... .. . ... : ... .. . ... : ... .. . ...

PATTERN 06
ROW 00 : E-1 0C . ... : D-4 0C . ... : ... .. . ... : ... .. . ... : ... .. . ...
ROW 01 : E-2 0C . ... : E-1 0C . ... : ... .. . ... : ... .. . ... : ... .. . ...
ROW 02 : F-2 0C . ... : E-2 0C . ... : ... .. . ... : ... .. . ... : ... .. . ...
ROW 03 : E-3 0C . ... : F-2 0C . ... : ... .. . ... : ... .. . ... : ... .. . ...
ROW 04 : G#2 0C . ... : E-3 0C . ... : ... .. . ... : ... .. . ... : ... .. . ...
ROW 05 : A#2 0C . ... : G#2 0C . ... : ... .. . ... : ... .. . ... : ... .. . ...
ROW 06 : D-2 0C . ... : A#2 0C . ... : ... .. . ... : ... .. . ... : ... .. . ...
ROW 07 : B-2 0C . ... : D-2 0C . ... : ... .. . ... : ... .. . ... : ... .. . ...
ROW 08 : E-2 0C . ... : B-2 0C . ... : ... .. . ... : ... .. . ... : ... .. . ...
ROW 09 : E-3 0C . ... : E-2 0C . ... : ... .. . ... : ... .. . ... : ... .. . ...
ROW 0A : F-3 0C . ... : E-3 0C . ... : ... .. . ... : ... .. . ... : ... .. . ...
ROW 0B : E-4 0C . ... : F-3 0C . ... : ... .. . ... : ... .. . ... : ... .. . ...
ROW 0C : G#3 0C . ... : E-4 0C . ... : ... .. . ... : ... .. . ... : ... .. . ...
ROW 0D : A#3 0C . ... : G#3 0C . ... : ... .. . ... : ... .. . ... : ... .. . ...
ROW 0E : A#4 0C . ... : A#3 0C . ... : ... .. . ... : ... .. . ... : ... .. . ...
ROW 0F : D-4 0C . ... : A#4 0C . ... : ... .. . ... : ... .. . ... : ... .. . ...
ROW 10 : E-1 0C . ... : D-4 0C . ... : E-3 15 . ... : ... .. . ... : ... .. . ...
ROW 11 : E-2 0C . ... : E-1 0C . ... : ... .. . ... : ... .. . ... : ... .. . ...
ROW 12 : F-2 0C . ... : E-2 0C . ... : ... .. . ... : ... .. . ... : ... .. . ...
ROW 13 : E-3 0C . ... : F-2 0C . ... : ... .. . ... : ... .. . ... : ... .. . ...
ROW 14 : G#2 0C . ... : E-3 0C . ... : ... .. . ... : ... .. . ... : ... .. . ...
ROW 15 : A#2 0C . ... : G#2 0C . ... : ... .. . ... : ... .. . ... : ... .. . ...
ROW 16 : D-2 0C . ... : A#2 0C . ... : ... .. . ... : ... .. . ... : ... .. . ...
ROW 17 : B-2 0C . ... : D-2 0C . ... : ... .. . ... : ... .. . ... : ... .. . ...
ROW 18 : E-2 0C . ... : B-2 0C . ... : ... .. . ... : ... .. . ... : ... .. . ...
ROW 19 : E-3 0C . ... : E-2 0C . ... : ... .. . ... : ... .. . ... : ... .. . ...
ROW 1A : F-3 0C . ... : E-3 0C . ... : ... .. . ... : ... .. . ... : ... .. . ...
ROW 1B : E-4 0C . ... : F-3 0C . ... : ... .. . ... : ... .. . ... : ... .. . ...
ROW 1C : G#3 0C . ... : E-4 0C . ... : ... .. . ... : ... .. . ... : ... .. . ...
ROW 1D : A#3 0C . ... : G#3 0C . ... : ... .. . ... : ... .. . ... : ... .. . ...
ROW 1E : A#4 0C . ... : A#3 0C . ... : ... .. . ... : ... .. . ... : ... .. . ...
ROW 1F : D-4 0C . ... : A#4 0C . ... : ... .. . ... : ... .. . ... : ... .. . B01

TRACK 128   0 150 "Stage 4"
COLUMNS : 1 1 1 1 1

ORDER 00 : 00 00 00 00 00
ORDER 01 : 01 01 01 01 01
ORDER 02 : 02 02 02 02 02
ORDER 03 : 03 03 03 03 03
ORDER 04 : 04 04 04 04 04

PATTERN 00
ROW 00 : ... .. . ... : ... .. 0 ... : ... .. . ... : ... .. . ... : ... .. . ...
ROW 01 : ... .. . ... : ... .. . ... : C-2 17 . ... : ... .. . ... : ... .. . ...
ROW 02 : ... .. . ... : ... .. . ... : ... .. . ... : ... .. . ... : ... .. . ...
ROW 03 : ... .. . ... : ... .. . ... : ... .. . ... : ... .. . ... : ... .. . ...
ROW 04 : ... .. . ... : ... .. . ... : ... .. . ... : ... .. . ... : ... .. . ...
ROW 05 : ... .. . ... : ... .. . ... : G-2 17 . ... : ... .. . ... : ... .. . ...
ROW 06 : ... .. . ... : ... .. . ... : ... .. . ... : ... .. . ... : ... .. . ...
ROW 07 : ... .. . ... : ... .. . ... : ... .. . ... : ... .. . ... : ... .. . ...
ROW 08 : ... .. . ... : ... .. . ... : ... .. . ... : ... .. . ... : ... .. . ...
ROW 09 : ... .. . ... : ... .. . ... : A#2 17 . ... : ... .. . ... : ... .. . ...
ROW 0A : ... .. . ... : ... .. . ... : ... .. . ... : ... .. . ... : ... .. . ...
ROW 0B : ... .. . ... : ... .. . ... : ... .. . ... : ... .. . ... : ... .. . ...
ROW 0C : ... .. . ... : ... .. . ... : ... .. . ... : ... .. . ... : ... .. . ...
ROW 0D : ... .. . ... : ... .. . ... : F-2 17 . ... : ... .. . ... : ... .. . ...
ROW 0E : ... .. . ... : ... .. . ... : ... .. . ... : ... .. . ... : ... .. . ...
ROW 0F : ... .. . ... : ... .. . ... : ... .. . ... : ... .. . ... : ... .. . ...
ROW 10 : ... .. . ... : ... .. . ... : ... .. . ... : ... .. . ... : ... .. . ...
ROW 11 : ... .. . ... : ... .. . ... : D-3 17 . ... : ... .. . ... : ... .. . ...
ROW 12 : ... .. . ... : ... .. . ... : ... .. . ... : ... .. . ... : ... .. . ...
ROW 13 : ... .. . ... : ... .. . ... : ... .. . ... : ... .. . ... : ... .. . ...
ROW 14 : ... .. . ... : ... .. . ... : ... .. . ... : ... .. . ... : ... .. . ...
ROW 15 : ... .. . ... : ... .. . ... : C-3 17 . ... : ... .. . ... : ... .. . ...
ROW 16 : ... .. . ... : ... .. . ... : ... .. . ... : ... .. . ... : ... .. . ...
ROW 17 : ... .. . ... : ... .. . ... : ... .. . ... : ... .. . ... : ... .. . ...
ROW 18 : ... .. . ... : ... .. . ... : ... .. . ... : ... .. . ... : ... .. . ...
ROW 19 : ... .. . ... : ... .. . ... : F-2 17 . ... : ... .. . ... : ... .. . ...
ROW 1A : ... .. . ... : ... .. . ... : ... .. . ... : ... .. . ... : ... .. . ...
ROW 1B : ... .. . ... : ... .. . ... : ... .. . ... : ... .. . ... : ... .. . ...
ROW 1C : ... .. . ... : ... .. . ... : ... .. . ... : ... .. . ... : ... .. . ...
ROW 1D : ... .. . ... : ... .. . ... : G-2 17 . ... : ... .. . ... : ... .. . ...
ROW 1E : ... .. . ... : ... .. . ... : ... .. . ... : ... .. . ... : ... .. . ...
ROW 1F : ... .. . ... : ... .. . ... : ... .. . ... : ... .. . ... : ... .. . ...
ROW 20 : ... .. . ... : ... .. . ... : ... .. . ... : ... .. . ... : ... .. . ...
ROW 21 : ... .. . ... : ... .. . ... : C-2 17 . ... : ... .. . ... : ... .. . ...
ROW 22 : ... .. . ... : ... .. . ... : ... .. . ... : ... .. . ... : ... .. . ...
ROW 23 : ... .. . ... : ... .. . ... : ... .. . ... : ... .. . ... : ... .. . ...
ROW 24 : ... .. . ... : ... .. . ... : ... .. . ... : ... .. . ... : ... .. . ...
ROW 25 : ... .. . ... : ... .. . ... : G-2 17 . ... : ... .. . ... : ... .. . ...
ROW 26 : ... .. . ... : ... .. . ... : ... .. . ... : ... .. . ... : ... .. . ...
ROW 27 : ... .. . ... : ... .. . ... : ... .. . ... : ... .. . ... : ... .. . ...
ROW 28 : ... .. . ... : ... .. . ... : ... .. . ... : ... .. . ... : ... .. . ...
ROW 29 : ... .. . ... : ... .. . ... : A#2 17 . ... : ... .. . ... : ... .. . ...
ROW 2A : ... .. . ... : ... .. . ... : ... .. . ... : ... .. . ... : ... .. . ...
ROW 2B : ... .. . ... : ... .. . ... : ... .. . ... : ... .. . ... : ... .. . ...
ROW 2C : ... .. . ... : ... .. . ... : ... .. . ... : ... .. . ... : ... .. . ...
ROW 2D : ... .. . ... : ... .. . ... : F-2 17 . ... : ... .. . ... : ... .. . ...
ROW 2E : ... .. . ... : ... .. . ... : ... .. . ... : ... .. . ... : ... .. . ...
ROW 2F : ... .. . ... : ... .. . ... : ... .. . ... : ... .. . ... : ... .. . ...
ROW 30 : ... .. . ... : ... .. . ... : ... .. . ... : ... .. . ... : ... .. . ...
ROW 31 : ... .. . ... : ... .. . ... : D-3 17 . ... : ... .. . ... : ... .. . ...
ROW 32 : ... .. . ... : ... .. . ... : ... .. . ... : ... .. . ... : ... .. . ...
ROW 33 : ... .. . ... : ... .. . ... : ... .. . ... : ... .. . ... : ... .. . ...
ROW 34 : ... .. . ... : ... .. . ... : ... .. . ... : ... .. . ... : ... .. . ...
ROW 35 : ... .. . ... : ... .. . ... : C-3 17 . ... : ... .. . ... : ... .. . ...
ROW 36 : ... .. . ... : ... .. . ... : ... .. . ... : ... .. . ... : ... .. . ...
ROW 37 : ... .. . ... : ... .. . ... : ... .. . ... : ... .. . ... : ... .. . ...
ROW 38 : ... .. . ... : ... .. . ... : ... .. . ... : ... .. . ... : ... .. . ...
ROW 39 : ... .. . ... : ... .. . ... : F-2 17 . ... : ... .. . ... : ... .. . ...
ROW 3A : ... .. . ... : ... .. . ... : ... .. . ... : ... .. . ... : ... .. . ...
ROW 3B : ... .. . ... : ... .. . ... : ... .. . ... : ... .. . ... : ... .. . ...
ROW 3C : ... .. . ... : ... .. . ... : ... .. . ... : ... .. . ... : ... .. . ...
ROW 3D : ... .. . ... : ... .. . ... : G-2 17 . ... : ... .. . ... : ... .. . ...
ROW 3E : ... .. . ... : ... .. . ... : ... .. . ... : ... .. . ... : ... .. . ...
ROW 3F : ... .. . ... : ... .. . ... : ... .. . ... : ... .. . ... : ... .. . ...
ROW 40 : ... .. . ... : ... .. . ... : ... .. . ... : ... .. . ... : D-3 00 . ...
ROW 41 : ... .. . ... : ... .. . ... : C-2 17 . ... : A-# 1B . ... : ... .. . ...
ROW 42 : ... .. . ... : ... .. . ... : ... .. . ... : ... .. . ... : ... .. . ...
ROW 43 : ... .. . ... : ... .. . ... : ... .. . ... : ... .. . ... : ... .. . ...
ROW 44 : ... .. . ... : ... .. . ... : ... .. . ... : ... .. . ... : ... .. . ...
ROW 45 : ... .. . ... : ... .. . ... : G-2 17 . ... : ... .. . ... : ... .. . ...
ROW 46 : ... .. . ... : ... .. . ... : ... .. . ... : ... .. . ... : ... .. . ...
ROW 47 : ... .. . ... : ... .. . ... : ... .. . ... : ... .. . ... : ... .. . ...
ROW 48 : ... .. . ... : ... .. . ... : ... .. . ... : ... .. . ... : D-3 00 . ...
ROW 49 : ... .. . ... : ... .. . ... : A#2 17 . ... : A-# 1B . ... : ... .. . ...
ROW 4A : ... .. . ... : ... .. . ... : ... .. . ... : ... .. . ... : ... .. . ...
ROW 4B : ... .. . ... : ... .. . ... : ... .. . ... : ... .. . ... : ... .. . ...
ROW 4C : ... .. . ... : ... .. . ... : ... .. . ... : ... .. . ... : ... .. . ...
ROW 4D : ... .. . ... : ... .. . ... : F-2 17 . ... : ... .. . ... : ... .. . ...
ROW 4E : ... .. . ... : ... .. . ... : ... .. . ... : ... .. . ... : ... .. . ...
ROW 4F : ... .. . ... : ... .. . ... : ... .. . ... : ... .. . ... : ... .. . ...
ROW 50 : ... .. . ... : ... .. . ... : ... .. . ... : ... .. . ... : D-3 00 . ...
ROW 51 : ... .. . ... : ... .. . ... : D-3 17 . ... : A-# 1B . ... : ... .. . ...
ROW 52 : ... .. . ... : ... .. . ... : ... .. . ... : ... .. . ... : ... .. . ...
ROW 53 : ... .. . ... : ... .. . ... : ... .. . ... : ... .. . ... : ... .. . ...
ROW 54 : ... .. . ... : ... .. . ... : ... .. . ... : ... .. . ... : ... .. . ...
ROW 55 : ... .. . ... : ... .. . ... : C-3 17 . ... : ... .. . ... : ... .. . ...
ROW 56 : ... .. . ... : ... .. . ... : ... .. . ... : ... .. . ... : ... .. . ...
ROW 57 : ... .. . ... : ... .. . ... : ... .. . ... : ... .. . ... : ... .. . ...
ROW 58 : ... .. . ... : ... .. . ... : ... .. . ... : ... .. . ... : D-3 00 . ...
ROW 59 : ... .. . ... : ... .. . ... : F-2 17 . ... : A-# 1B . ... : ... .. . ...
ROW 5A : ... .. . ... : ... .. . ... : ... .. . ... : ... .. . ... : ... .. . ...
ROW 5B : ... .. . ... : ... .. . ... : ... .. . ... : ... .. . ... : ... .. . ...
ROW 5C : ... .. . ... : ... .. . ... : ... .. . ... : ... .. . ... : ... .. . ...
ROW 5D : ... .. . ... : ... .. . ... : G-2 17 . ... : ... .. . ... : ... .. . ...
ROW 5E : ... .. . ... : ... .. . ... : ... .. . ... : ... .. . ... : ... .. . ...
ROW 5F : ... .. . ... : ... .. . ... : ... .. . ... : ... .. . ... : ... .. . ...
ROW 60 : ... .. . ... : ... .. . ... : ... .. . ... : ... .. . ... : D-3 00 . ...
ROW 61 : ... .. . ... : ... .. . ... : C-2 17 . ... : A-# 1B . ... : ... .. . ...
ROW 62 : ... .. . ... : ... .. . ... : ... .. . ... : ... .. . ... : ... .. . ...
ROW 63 : ... .. . ... : ... .. . ... : ... .. . ... : ... .. . ... : ... .. . ...
ROW 64 : ... .. . ... : ... .. . ... : ... .. . ... : ... .. . ... : ... .. . ...
ROW 65 : ... .. . ... : ... .. . ... : G-2 17 . ... : ... .. . ... : ... .. . ...
ROW 66 : ... .. . ... : ... .. . ... : ... .. . ... : ... .. . ... : ... .. . ...
ROW 67 : ... .. . ... : ... .. . ... : ... .. . ... : ... .. . ... : ... .. . ...
ROW 68 : ... .. . ... : ... .. . ... : ... .. . ... : ... .. . ... : D-3 00 . ...
ROW 69 : ... .. . ... : ... .. . ... : A#2 17 . ... : A-# 1B . ... : ... .. . ...
ROW 6A : ... .. . ... : ... .. . ... : ... .. . ... : ... .. . ... : ... .. . ...
ROW 6B : ... .. . ... : ... .. . ... : ... .. . ... : ... .. . ... : ... .. . ...
ROW 6C : ... .. . ... : ... .. . ... : ... .. . ... : ... .. . ... : ... .. . ...
ROW 6D : ... .. . ... : ... .. . ... : F-2 17 . ... : ... .. . ... : ... .. . ...
ROW 6E : ... .. . ... : ... .. . ... : ... .. . ... : ... .. . ... : ... .. . ...
ROW 6F : ... .. . ... : ... .. . ... : ... .. . ... : ... .. . ... : ... .. . ...
ROW 70 : ... .. . ... : ... .. . ... : ... .. . ... : ... .. . ... : D-3 00 . ...
ROW 71 : ... .. . ... : ... .. . ... : D-3 17 . ... : A-# 1B . ... : ... .. . ...
ROW 72 : ... .. . ... : ... .. . ... : ... .. . ... : ... .. . ... : ... .. . ...
ROW 73 : ... .. . ... : ... .. . ... : ... .. . ... : ... .. . ... : ... .. . ...
ROW 74 : ... .. . ... : ... .. . ... : ... .. . ... : ... .. . ... : ... .. . ...
ROW 75 : ... .. . ... : ... .. . ... : C-3 17 . ... : ... .. . ... : ... .. . ...
ROW 76 : ... .. . ... : ... .. . ... : ... .. . ... : ... .. . ... : ... .. . ...
ROW 77 : ... .. . ... : ... .. . ... : ... .. . ... : ... .. . ... : ... .. . ...
ROW 78 : ... .. . ... : ... .. . ... : ... .. . ... : ... .. . ... : D-3 00 . ...
ROW 79 : ... .. . ... : ... .. . ... : F-2 17 . ... : A-# 1B . ... : ... .. . ...
ROW 7A : ... .. . ... : ... .. . ... : ... .. . ... : ... .. . ... : D-3 00 . ...
ROW 7B : ... .. . ... : ... .. . ... : ... .. . ... : A-# 1B . ... : ... .. . ...
ROW 7C : ... .. . ... : ... .. . ... : ... .. . ... : ... .. . ... : D-3 00 . ...
ROW 7D : ... .. . ... : ... .. . ... : G-2 17 . ... : A-# 1B . ... : ... .. . ...
ROW 7E : ... .. . ... : ... .. . ... : ... .. . ... : ... .. . ... : D-3 00 . ...
ROW 7F : ... .. . ... : ... .. . ... : ... .. . ... : A-# 1B . ... : ... .. . ...

PATTERN 01
ROW 00 : ... .. . ... : ... .. . ... : ... .. . ... : ... .. . ... : D-3 00 . ...
ROW 01 : C-2 01 . ... : A#4 01 . ... : C-2 17 . ... : A-# 1B . ... : ... .. . ...
ROW 02 : ... .. . ... : ... .. . ... : ... .. . ... : ... .. . ... : ... .. . ...
ROW 03 : C-3 01 . ... : F-5 01 . ... : ... .. . ... : ... .. . ... : ... .. . ...
ROW 04 : ... .. . ... : ... .. . ... : ... .. . ... : ... .. . ... : ... .. . ...
ROW 05 : G-3 01 . ... : C-2 01 F ... : G-2 17 . ... : ... .. . ... : ... .. . ...
ROW 06 : ... .. . ... : ... .. . ... : ... .. . ... : ... .. . ... : ... .. . ...
ROW 07 : C-4 01 . ... : C-3 01 . ... : ... .. . ... : ... .. . ... : ... .. . ...
ROW 08 : ... .. . ... : ... .. . ... : ... .. . ... : ... .. . ... : D-3 00 . ...
ROW 09 : B-3 01 . ... : G-3 01 . ... : A#2 17 . ... : A-# 1B . ... : ... .. . ...
ROW 0A : ... .. . ... : ... .. . ... : ... .. . ... : ... .. . ... : ... .. . ...
ROW 0B : G-3 01 . ... : C-4 01 . ... : ... .. . ... : ... .. . ... : ... .. . ...
ROW 0C : ... .. . ... : ... .. . ... : ... .. . ... : ... .. . ... : ... .. . ...
ROW 0D : B-3 01 . ... : B-3 01 . ... : F-2 17 . ... : ... .. . ... : ... .. . ...
ROW 0E : ... .. . ... : ... .. . ... : ... .. . ... : ... .. . ... : ... .. . ...
ROW 0F : A#3 01 . ... : G-3 01 . ... : ... .. . ... : ... .. . ... : ... .. . ...
ROW 10 : ... .. . ... : ... .. . ... : ... .. . ... : ... .. . ... : D-3 00 . ...
ROW 11 : A#3 01 . ... : B-3 01 . ... : D-3 17 . ... : A-# 1B . ... : ... .. . ...
ROW 12 : ... .. . ... : ... .. . ... : ... .. . ... : ... .. . ... : ... .. . ...
ROW 13 : G-3 01 . ... : A#3 01 . ... : ... .. . ... : ... .. . ... : ... .. . ...
ROW 14 : ... .. . ... : ... .. . ... : ... .. . ... : ... .. . ... : ... .. . ...
ROW 15 : A#3 01 . ... : A#3 01 . ... : C-3 17 . ... : ... .. . ... : ... .. . ...
ROW 16 : ... .. . ... : ... .. . ... : ... .. . ... : ... .. . ... : ... .. . ...
ROW 17 : A-3 01 . ... : G-3 01 . ... : ... .. . ... : ... .. . ... : ... .. . ...
ROW 18 : ... .. . ... : ... .. . ... : ... .. . ... : ... .. . ... : D-3 00 . ...
ROW 19 : A-3 01 . ... : A#3 01 . ... : F-2 17 . ... : A-# 1B . ... : ... .. . ...
ROW 1A : ... .. . ... : ... .. . ... : ... .. . ... : ... .. . ... : ... .. . ...
ROW 1B : F-3 01 . ... : A-3 01 . ... : ... .. . ... : ... .. . ... : ... .. . ...
ROW 1C : ... .. . ... : ... .. . ... : ... .. . ... : ... .. . ... : ... .. . ...
ROW 1D : G-3 01 . ... : A-3 01 . ... : G-2 17 . ... : ... .. . ... : ... .. . ...
ROW 1E : ... .. . ... : ... .. . ... : ... .. . ... : ... .. . ... : ... .. . ...
ROW 1F : C-4 01 . ... : F-3 01 . ... : ... .. . ... : ... .. . ... : ... .. . ...
ROW 20 : ... .. . ... : ... .. . ... : ... .. . ... : ... .. . ... : D-3 00 . ...
ROW 21 : C-2 01 . ... : G-3 01 . ... : C-2 17 . ... : A-# 1B . ... : ... .. . ...
ROW 22 : ... .. . ... : ... .. . ... : ... .. . ... : ... .. . ... : ... .. . ...
ROW 23 : C-3 01 . ... : C-4 01 . ... : ... .. . ... : ... .. . ... : ... .. . ...
ROW 24 : ... .. . ... : ... .. . ... : ... .. . ... : ... .. . ... : ... .. . ...
ROW 25 : G-3 01 . ... : C-2 01 . ... : G-2 17 . ... : ... .. . ... : ... .. . ...
ROW 26 : ... .. . ... : ... .. . ... : ... .. . ... : ... .. . ... : ... .. . ...
ROW 27 : C-4 01 . ... : C-3 01 . ... : ... .. . ... : ... .. . ... : ... .. . ...
ROW 28 : ... .. . ... : ... .. . ... : ... .. . ... : ... .. . ... : D-3 00 . ...
ROW 29 : B-3 01 . ... : G-3 01 . ... : A#2 17 . ... : A-# 1B . ... : ... .. . ...
ROW 2A : ... .. . ... : ... .. . ... : ... .. . ... : ... .. . ... : ... .. . ...
ROW 2B : G-3 01 . ... : C-4 01 . ... : ... .. . ... : ... .. . ... : ... .. . ...
ROW 2C : ... .. . ... : ... .. . ... : ... .. . ... : ... .. . ... : ... .. . ...
ROW 2D : B-3 01 . ... : B-3 01 . ... : F-2 17 . ... : ... .. . ... : ... .. . ...
ROW 2E : ... .. . ... : ... .. . ... : ... .. . ... : ... .. . ... : ... .. . ...
ROW 2F : A#3 01 . ... : G-3 01 . ... : ... .. . ... : ... .. . ... : ... .. . ...
ROW 30 : ... .. . ... : ... .. . ... : ... .. . ... : ... .. . ... : D-3 00 . ...
ROW 31 : A#3 01 . ... : B-3 01 . ... : D-3 17 . ... : A-# 1B . ... : ... .. . ...
ROW 32 : ... .. . ... : ... .. . ... : ... .. . ... : ... .. . ... : ... .. . ...
ROW 33 : G-3 01 . ... : A#3 01 . ... : ... .. . ... : ... .. . ... : ... .. . ...
ROW 34 : ... .. . ... : ... .. . ... : ... .. . ... : ... .. . ... : ... .. . ...
ROW 35 : A#3 01 . ... : A#3 01 . ... : C-3 17 . ... : ... .. . ... : ... .. . ...
ROW 36 : ... .. . ... : ... .. . ... : ... .. . ... : ... .. . ... : ... .. . ...
ROW 37 : A-3 01 . ... : G-3 01 . ... : ... .. . ... : ... .. . ... : ... .. . ...
ROW 38 : ... .. . ... : ... .. . ... : ... .. . ... : ... .. . ... : D-3 00 . ...
ROW 39 : A-3 01 . ... : A#3 01 . ... : F-2 17 . ... : A-# 1B . ... : ... .. . ...
ROW 3A : ... .. . ... : ... .. . ... : ... .. . ... : ... .. . ... : ... .. . ...
ROW 3B : F-3 01 . ... : A-3 01 . ... : ... .. . ... : ... .. . ... : ... .. . ...
ROW 3C : ... .. . ... : ... .. . ... : ... .. . ... : ... .. . ... : ... .. . ...
ROW 3D : G-3 01 . ... : A-3 01 . ... : G-2 17 . ... : ... .. . ... : ... .. . ...
ROW 3E : ... .. . ... : ... .. . ... : ... .. . ... : ... .. . ... : ... .. . ...
ROW 3F : C-4 01 . ... : F-3 01 . ... : ... .. . ... : ... .. . ... : ... .. . ...
ROW 40 : ... .. . ... : ... .. . ... : ... .. . ... : ... .. . ... : D-3 00 . ...
ROW 41 : C-2 01 . ... : G-3 01 . ... : C-2 17 . ... : A-# 1B . ... : ... .. . ...
ROW 42 : ... .. . ... : ... .. . ... : ... .. . ... : ... .. . ... : ... .. . ...
ROW 43 : C-3 01 . ... : C-4 01 . ... : ... .. . ... : ... .. . ... : ... .. . ...
ROW 44 : ... .. . ... : ... .. . ... : ... .. . ... : ... .. . ... : ... .. . ...
ROW 45 : G-3 01 . ... : C-2 01 . ... : G-2 17 . ... : ... .. . ... : ... .. . ...
ROW 46 : ... .. . ... : ... .. . ... : ... .. . ... : ... .. . ... : ... .. . ...
ROW 47 : C-4 01 . ... : C-3 01 . ... : ... .. . ... : ... .. . ... : ... .. . ...
ROW 48 : ... .. . ... : ... .. . ... : ... .. . ... : ... .. . ... : D-3 00 . ...
ROW 49 : B-3 01 . ... : G-3 01 . ... : A#2 17 . ... : A-# 1B . ... : ... .. . ...
ROW 4A : ... .. . ... : ... .. . ... : ... .. . ... : ... .. . ... : ... .. . ...
ROW 4B : G-3 01 . ... : C-4 01 . ... : ... .. . ... : ... .. . ... : ... .. . ...
ROW 4C : ... .. . ... : ... .. . ... : ... .. . ... : ... .. . ... : ... .. . ...
ROW 4D : B-3 01 . ... : B-3 01 . ... : F-2 17 . ... : ... .. . ... : ... .. . ...
ROW 4E : ... .. . ... : ... .. . ... : ... .. . ... : ... .. . ... : ... .. . ...
ROW 4F : A#3 01 . ... : G-3 01 . ... : ... .. . ... : ... .. . ... : ... .. . ...
ROW 50 : ... .. . ... : ... .. . ... : ... .. . ... : ... .. . ... : D-3 00 . ...
ROW 51 : A#3 01 . ... : B-3 01 . ... : D-3 17 . ... : A-# 1B . ... : ... .. . ...
ROW 52 : ... .. . ... : ... .. . ... : ... .. . ... : ... .. . ... : ... .. . ...
ROW 53 : G-3 01 . ... : A#3 01 . ... : ... .. . ... : ... .. . ... : ... .. . ...
ROW 54 : ... .. . ... : ... .. . ... : ... .. . ... : ... .. . ... : ... .. . ...
ROW 55 : A#3 01 . ... : A#3 01 . ... : C-3 17 . ... : ... .. . ... : ... .. . ...
ROW 56 : ... .. . ... : ... .. . ... : ... .. . ... : ... .. . ... : ... .. . ...
ROW 57 : A-3 01 . ... : G-3 01 . ... : ... .. . ... : ... .. . ... : ... .. . ...
ROW 58 : ... .. . ... : ... .. . ... : ... .. . ... : ... .. . ... : D-3 00 . ...
ROW 59 : A-3 01 . ... : A#3 01 . ... : F-2 17 . ... : A-# 1B . ... : ... .. . ...
ROW 5A : ... .. . ... : ... .. . ... : ... .. . ... : ... .. . ... : ... .. . ...
ROW 5B : F-3 01 . ... : A-3 01 . ... : ... .. . ... : ... .. . ... : ... .. . ...
ROW 5C : ... .. . ... : ... .. . ... : ... .. . ... : ... .. . ... : ... .. . ...
ROW 5D : G-3 01 . ... : A-3 01 . ... : G-2 17 . ... : ... .. . ... : ... .. . ...
ROW 5E : ... .. . ... : ... .. . ... : ... .. . ... : ... .. . ... : ... .. . ...
ROW 5F : C-4 01 . ... : F-3 01 . ... : ... .. . ... : ... .. . ... : ... .. . ...
ROW 60 : ... .. . ... : ... .. . ... : ... .. . ... : ... .. . ... : D-3 00 . ...
ROW 61 : C-2 01 . ... : G-3 01 . ... : C-2 17 . ... : A-# 1B . ... : ... .. . ...
ROW 62 : ... .. . ... : ... .. . ... : ... .. . ... : ... .. . ... : ... .. . ...
ROW 63 : C-3 01 . ... : C-4 01 . ... : ... .. . ... : ... .. . ... : ... .. . ...
ROW 64 : ... .. . ... : ... .. . ... : ... .. . ... : ... .. . ... : ... .. . ...
ROW 65 : G-3 01 . ... : C-2 01 . ... : G-2 17 . ... : ... .. . ... : ... .. . ...
ROW 66 : ... .. . ... : ... .. . ... : ... .. . ... : ... .. . ... : ... .. . ...
ROW 67 : C-4 01 . ... : C-3 01 . ... : ... .. . ... : ... .. . ... : ... .. . ...
ROW 68 : ... .. . ... : ... .. . ... : ... .. . ... : ... .. . ... : D-3 00 . ...
ROW 69 : B-3 01 . ... : G-3 01 . ... : A#2 17 . ... : A-# 1B . ... : ... .. . ...
ROW 6A : ... .. . ... : ... .. . ... : ... .. . ... : ... .. . ... : ... .. . ...
ROW 6B : G-3 01 . ... : C-4 01 . ... : ... .. . ... : ... .. . ... : ... .. . ...
ROW 6C : ... .. . ... : ... .. . ... : ... .. . ... : ... .. . ... : ... .. . ...
ROW 6D : B-3 01 . ... : B-3 01 . ... : F-2 17 . ... : ... .. . ... : ... .. . ...
ROW 6E : ... .. . ... : ... .. . ... : ... .. . ... : ... .. . ... : ... .. . ...
ROW 6F : A#3 01 . ... : G-3 01 . ... : ... .. . ... : ... .. . ... : ... .. . ...
ROW 70 : ... .. . ... : ... .. . ... : ... .. . ... : ... .. . ... : D-3 00 . ...
ROW 71 : A#3 01 . ... : B-3 01 . ... : D-3 17 . ... : A-# 1B . ... : ... .. . ...
ROW 72 : ... .. . ... : ... .. . ... : ... .. . ... : ... .. . ... : ... .. . ...
ROW 73 : G-3 01 . ... : A#3 01 . ... : ... .. . ... : ... .. . ... : ... .. . ...
ROW 74 : ... .. . ... : ... .. . ... : ... .. . ... : ... .. . ... : ... .. . ...
ROW 75 : A#3 01 . ... : A#3 01 . ... : C-3 17 . ... : ... .. . ... : ... .. . ...
ROW 76 : ... .. . ... : ... .. . ... : ... .. . ... : ... .. . ... : ... .. . ...
ROW 77 : A-3 01 . ... : G-3 01 . ... : ... .. . ... : ... .. . ... : ... .. . ...
ROW 78 : ... .. . ... : ... .. . ... : ... .. . ... : ... .. . ... : D-3 00 . ...
ROW 79 : A-3 01 . ... : A#3 01 . ... : F-2 17 . ... : A-# 1B . ... : ... .. . ...
ROW 7A : ... .. . ... : ... .. . ... : ... .. . ... : ... .. . ... : ... .. . ...
ROW 7B : F-3 01 . ... : A-3 01 . ... : ... .. . ... : ... .. . ... : ... .. . ...
ROW 7C : ... .. . ... : ... .. . ... : ... .. . ... : ... .. . ... : ... .. . ...
ROW 7D : G-3 01 . ... : A-3 01 . ... : G-2 17 . ... : ... .. . ... : ... .. . ...
ROW 7E : ... .. . ... : ... .. . ... : ... .. . ... : ... .. . ... : ... .. . ...
ROW 7F : C-4 01 . ... : F-3 01 . ... : ... .. . ... : ... .. . ... : ... .. . ...

PATTERN 02
ROW 00 : ... .. . ... : ... .. . ... : ... .. . ... : ... .. . ... : D-3 00 . ...
ROW 01 : C-2 01 . ... : G-3 01 . ... : C-2 17 . ... : A-# 1B . ... : ... .. . ...
ROW 02 : ... .. . ... : ... .. . ... : ... .. . ... : ... .. . ... : ... .. . ...
ROW 03 : C-3 01 . ... : C-4 01 . ... : ... .. . ... : ... .. . ... : ... .. . ...
ROW 04 : ... .. . ... : ... .. . ... : ... .. . ... : ... .. . ... : ... .. . ...
ROW 05 : G-3 01 . ... : C-2 01 . ... : G-2 17 . ... : ... .. . ... : ... .. . ...
ROW 06 : ... .. . ... : ... .. . ... : ... .. . ... : ... .. . ... : ... .. . ...
ROW 07 : C-4 01 . ... : C-3 01 . ... : ... .. . ... : ... .. . ... : ... .. . ...
ROW 08 : ... .. . ... : ... .. . ... : ... .. . ... : ... .. . ... : D-3 00 . ...
ROW 09 : B-3 01 . ... : G-3 01 . ... : A#2 17 . ... : A-# 1B . ... : ... .. . ...
ROW 0A : ... .. . ... : ... .. . ... : ... .. . ... : ... .. . ... : ... .. . ...
ROW 0B : G-3 01 . ... : C-4 01 . ... : ... .. . ... : ... .. . ... : ... .. . ...
ROW 0C : ... .. . ... : ... .. . ... : ... .. . ... : ... .. . ... : ... .. . ...
ROW 0D : B-3 01 . ... : B-3 01 . ... : F-2 17 . ... : ... .. . ... : ... .. . ...
ROW 0E : ... .. . ... : ... .. . ... : ... .. . ... : ... .. . ... : ... .. . ...
ROW 0F : A#3 01 . ... : G-3 01 . ... : ... .. . ... : ... .. . ... : ... .. . ...
ROW 10 : ... .. . ... : ... .. . ... : ... .. . ... : ... .. . ... : D-3 00 . ...
ROW 11 : A#3 01 . ... : B-3 01 . ... : D-3 17 . ... : A-# 1B . ... : ... .. . ...
ROW 12 : ... .. . ... : ... .. . ... : ... .. . ... : ... .. . ... : ... .. . ...
ROW 13 : G-3 01 . ... : A#3 01 . ... : ... .. . ... : ... .. . ... : ... .. . ...
ROW 14 : ... .. . ... : ... .. . ... : ... .. . ... : ... .. . ... : ... .. . ...
ROW 15 : A#3 01 . ... : A#3 01 . ... : C-3 17 . ... : ... .. . ... : ... .. . ...
ROW 16 : ... .. . ... : ... .. . ... : ... .. . ... : ... .. . ... : ... .. . ...
ROW 17 : A-3 01 . ... : G-3 01 . ... : ... .. . ... : ... .. . ... : ... .. . ...
ROW 18 : ... .. . ... : ... .. . ... : ... .. . ... : ... .. . ... : D-3 00 . ...
ROW 19 : A-3 01 . ... : A#3 01 . ... : F-2 17 . ... : A-# 1B . ... : ... .. . ...
ROW 1A : ... .. . ... : ... .. . ... : ... .. . ... : ... .. . ... : ... .. . ...
ROW 1B : F-3 01 . ... : A-3 01 . ... : ... .. . ... : ... .. . ... : ... .. . ...
ROW 1C : ... .. . ... : ... .. . ... : ... .. . ... : ... .. . ... : ... .. . ...
ROW 1D : G-3 01 . ... : A-3 01 . ... : G-2 17 . ... : ... .. . ... : ... .. . ...
ROW 1E : ... .. . ... : ... .. . ... : ... .. . ... : ... .. . ... : ... .. . ...
ROW 1F : C-4 01 . ... : F-3 01 . ... : ... .. . ... : ... .. . ... : ... .. . ...
ROW 20 : ... .. . ... : ... .. . ... : ... .. . ... : ... .. . ... : D-3 00 . ...
ROW 21 : C-2 01 . ... : G-3 01 . ... : C-2 17 . ... : A-# 1B . ... : ... .. . ...
ROW 22 : ... .. . ... : ... .. . ... : ... .. . ... : ... .. . ... : ... .. . ...
ROW 23 : C-3 01 . ... : C-4 01 . ... : ... .. . ... : ... .. . ... : ... .. . ...
ROW 24 : ... .. . ... : ... .. . ... : ... .. . ... : ... .. . ... : ... .. . ...
ROW 25 : G-3 01 . ... : C-2 01 . ... : G-2 17 . ... : ... .. . ... : ... .. . ...
ROW 26 : ... .. . ... : ... .. . ... : ... .. . ... : ... .. . ... : ... .. . ...
ROW 27 : C-4 01 . ... : C-3 01 . ... : ... .. . ... : ... .. . ... : ... .. . ...
ROW 28 : ... .. . ... : ... .. . ... : ... .. . ... : ... .. . ... : D-3 00 . ...
ROW 29 : B-3 01 . ... : G-3 01 . ... : A#2 17 . ... : A-# 1B . ... : ... .. . ...
ROW 2A : ... .. . ... : ... .. . ... : ... .. . ... : ... .. . ... : ... .. . ...
ROW 2B : G-3 01 . ... : C-4 01 . ... : ... .. . ... : ... .. . ... : ... .. . ...
ROW 2C : ... .. . ... : ... .. . ... : ... .. . ... : ... .. . ... : ... .. . ...
ROW 2D : B-3 01 . ... : B-3 01 . ... : F-2 17 . ... : ... .. . ... : ... .. . ...
ROW 2E : ... .. . ... : ... .. . ... : ... .. . ... : ... .. . ... : ... .. . ...
ROW 2F : A#3 01 . ... : G-3 01 . ... : ... .. . ... : ... .. . ... : ... .. . ...
ROW 30 : ... .. . ... : ... .. . ... : ... .. . ... : ... .. . ... : D-3 00 . ...
ROW 31 : A#3 01 . ... : B-3 01 . ... : D-3 17 . ... : A-# 1B . ... : ... .. . ...
ROW 32 : ... .. . ... : ... .. . ... : ... .. . ... : ... .. . ... : ... .. . ...
ROW 33 : G-3 01 . ... : A#3 01 . ... : ... .. . ... : ... .. . ... : ... .. . ...
ROW 34 : ... .. . ... : ... .. . ... : ... .. . ... : ... .. . ... : ... .. . ...
ROW 35 : A#3 01 . ... : A#3 01 . ... : C-3 17 . ... : ... .. . ... : ... .. . ...
ROW 36 : ... .. . ... : ... .. . ... : ... .. . ... : ... .. . ... : ... .. . ...
ROW 37 : A-3 01 . ... : G-3 01 . ... : ... .. . ... : ... .. . ... : ... .. . ...
ROW 38 : ... .. . ... : ... .. . ... : ... .. . ... : ... .. . ... : D-3 00 . ...
ROW 39 : A-3 01 . ... : A#3 01 . ... : F-2 17 . ... : A-# 1B . ... : ... .. . ...
ROW 3A : ... .. . ... : ... .. . ... : ... .. . ... : ... .. . ... : ... .. . ...
ROW 3B : F-3 01 . ... : A-3 01 . ... : ... .. . ... : ... .. . ... : ... .. . ...
ROW 3C : ... .. . ... : ... .. . ... : ... .. . ... : ... .. . ... : ... .. . ...
ROW 3D : G-3 01 . ... : A-3 01 . ... : G-2 17 . ... : ... .. . ... : ... .. . ...
ROW 3E : ... .. . ... : ... .. . ... : ... .. . ... : ... .. . ... : ... .. . ...
ROW 3F : C-4 01 . ... : F-3 01 . ... : ... .. . ... : ... .. . ... : ... .. . ...
ROW 40 : ... .. . ... : ... .. . ... : ... .. . ... : ... .. . ... : D-3 00 . ...
ROW 41 : C-2 01 . ... : G-3 01 . ... : C-2 17 . ... : A-# 1B . ... : ... .. . ...
ROW 42 : ... .. . ... : ... .. . ... : ... .. . ... : ... .. . ... : ... .. . ...
ROW 43 : C-3 01 . ... : C-4 01 . ... : ... .. . ... : ... .. . ... : ... .. . ...
ROW 44 : ... .. . ... : ... .. . ... : ... .. . ... : ... .. . ... : ... .. . ...
ROW 45 : G-3 01 . ... : C-2 01 . ... : G-2 17 . ... : ... .. . ... : ... .. . ...
ROW 46 : ... .. . ... : ... .. . ... : ... .. . ... : ... .. . ... : ... .. . ...
ROW 47 : C-4 01 . ... : C-3 01 . ... : ... .. . ... : ... .. . ... : ... .. . ...
ROW 48 : ... .. . ... : ... .. . ... : ... .. . ... : ... .. . ... : D-3 00 . ...
ROW 49 : B-3 01 . ... : G-3 01 . ... : A#2 17 . ... : A-# 1B . ... : ... .. . ...
ROW 4A : ... .. . ... : ... .. . ... : ... .. . ... : ... .. . ... : ... .. . ...
ROW 4B : G-3 01 . ... : C-4 01 . ... : ... .. . ... : ... .. . ... : ... .. . ...
ROW 4C : ... .. . ... : ... .. . ... : ... .. . ... : ... .. . ... : ... .. . ...
ROW 4D : B-3 01 . ... : B-3 01 . ... : F-2 17 . ... : ... .. . ... : ... .. . ...
ROW 4E : ... .. . ... : ... .. . ... : ... .. . ... : ... .. . ... : ... .. . ...
ROW 4F : A#3 01 . ... : G-3 01 . ... : ... .. . ... : ... .. . ... : ... .. . ...
ROW 50 : ... .. . ... : ... .. . ... : ... .. . ... : ... .. . ... : D-3 00 . ...
ROW 51 : A#3 01 . ... : B-3 01 . ... : D-3 17 . ... : A-# 1B . ... : ... .. . ...
ROW 52 : ... .. . ... : ... .. . ... : ... .. . ... : ... .. . ... : ... .. . ...
ROW 53 : G-3 01 . ... : A#3 01 . ... : ... .. . ... : ... .. . ... : ... .. . ...
ROW 54 : ... .. . ... : ... .. . ... : ... .. . ... : ... .. . ... : ... .. . ...
ROW 55 : A#3 01 . ... : A#3 01 . ... : C-3 17 . ... : ... .. . ... : ... .. . ...
ROW 56 : ... .. . ... : ... .. . ... : ... .. . ... : ... .. . ... : ... .. . ...
ROW 57 : A-3 01 . ... : G-3 01 . ... : ... .. . ... : ... .. . ... : ... .. . ...
ROW 58 : ... .. . ... : ... .. . ... : ... .. . ... : ... .. . ... : D-3 00 . ...
ROW 59 : A-3 01 . ... : A#3 01 . ... : F-2 17 . ... : A-# 1B . ... : ... .. . ...
ROW 5A : ... .. . ... : ... .. . ... : ... .. . ... : ... .. . ... : ... .. . ...
ROW 5B : F-3 01 . ... : A-3 01 . ... : ... .. . ... : ... .. . ... : ... .. . ...
ROW 5C : ... .. . ... : ... .. . ... : ... .. . ... : ... .. . ... : ... .. . ...
ROW 5D : G-3 01 . ... : A-3 01 . ... : G-2 17 . ... : ... .. . ... : ... .. . ...
ROW 5E : ... .. . ... : ... .. . ... : ... .. . ... : ... .. . ... : ... .. . ...
ROW 5F : C-4 01 . ... : F-3 01 . ... : ... .. . ... : ... .. . ... : ... .. . ...
ROW 60 : ... .. . ... : ... .. . ... : ... .. . ... : ... .. . ... : D-3 00 . ...
ROW 61 : C-2 01 . ... : G-3 01 . ... : C-2 17 . ... : A-# 1B . ... : ... .. . ...
ROW 62 : ... .. . ... : ... .. . ... : ... .. . ... : ... .. . ... : ... .. . ...
ROW 63 : C-3 01 . ... : C-4 01 . ... : ... .. . ... : ... .. . ... : ... .. . ...
ROW 64 : ... .. . ... : ... .. . ... : ... .. . ... : ... .. . ... : ... .. . ...
ROW 65 : G-3 01 . ... : C-2 01 . ... : G-2 17 . ... : ... .. . ... : ... .. . ...
ROW 66 : ... .. . ... : ... .. . ... : ... .. . ... : ... .. . ... : ... .. . ...
ROW 67 : C-4 01 . ... : C-3 01 . ... : ... .. . ... : ... .. . ... : ... .. . ...
ROW 68 : ... .. . ... : ... .. . ... : ... .. . ... : ... .. . ... : D-3 00 . ...
ROW 69 : B-3 01 . ... : G-3 01 . ... : A#2 17 . ... : A-# 1B . ... : ... .. . ...
ROW 6A : ... .. . ... : ... .. . ... : ... .. . ... : ... .. . ... : ... .. . ...
ROW 6B : G-3 01 . ... : C-4 01 . ... : ... .. . ... : ... .. . ... : ... .. . ...
ROW 6C : ... .. . ... : ... .. . ... : ... .. . ... : ... .. . ... : ... .. . ...
ROW 6D : B-3 01 . ... : B-3 01 . ... : F-2 17 . ... : ... .. . ... : ... .. . ...
ROW 6E : ... .. . ... : ... .. . ... : ... .. . ... : ... .. . ... : ... .. . ...
ROW 6F : A#3 01 . ... : G-3 01 . ... : ... .. . ... : ... .. . ... : ... .. . ...
ROW 70 : ... .. . ... : ... .. . ... : ... .. . ... : ... .. . ... : D-3 00 . ...
ROW 71 : A#3 01 . ... : B-3 01 . ... : D-3 17 . ... : A-# 1B . ... : ... .. . ...
ROW 72 : ... .. . ... : ... .. . ... : ... .. . ... : ... .. . ... : ... .. . ...
ROW 73 : G-3 01 . ... : A#3 01 . ... : ... .. . ... : ... .. . ... : ... .. . ...
ROW 74 : ... .. . ... : ... .. . ... : ... .. . ... : ... .. . ... : ... .. . ...
ROW 75 : A#3 01 . ... : A#3 01 . ... : C-3 17 . ... : ... .. . ... : ... .. . ...
ROW 76 : ... .. . ... : ... .. . ... : ... .. . ... : ... .. . ... : ... .. . ...
ROW 77 : A-3 01 . ... : G-3 01 . ... : ... .. . ... : ... .. . ... : ... .. . ...
ROW 78 : ... .. . ... : ... .. . ... : ... .. . ... : ... .. . ... : D-3 00 . ...
ROW 79 : A-3 01 . ... : A#3 01 . ... : F-2 17 . ... : A-# 1B . ... : ... .. . ...
ROW 7A : ... .. . ... : ... .. . ... : ... .. . ... : ... .. . ... : ... .. . ...
ROW 7B : F-3 01 . ... : A-3 01 . ... : ... .. . ... : ... .. . ... : ... .. . ...
ROW 7C : ... .. . ... : ... .. . ... : ... .. . ... : ... .. . ... : ... .. . ...
ROW 7D : G-3 01 . ... : A-3 01 . ... : G-2 17 . ... : ... .. . ... : ... .. . ...
ROW 7E : ... .. . ... : ... .. . ... : ... .. . ... : ... .. . ... : ... .. . ...
ROW 7F : C-4 01 . ... : F-3 01 . ... : ... .. . ... : ... .. . ... : ... .. . ...

PATTERN 03
ROW 00 : ... .. . ... : ... .. . ... : ... .. . ... : ... .. . ... : D-3 00 . ...
ROW 01 : C-3 01 . ... : G-3 01 . ... : C-2 17 . ... : A-# 1B . ... : ... .. . ...
ROW 02 : ... .. . ... : ... .. . ... : ... .. . ... : ... .. . ... : ... .. . ...
ROW 03 : ... .. . ... : C-4 01 . ... : ... .. . ... : ... .. . ... : ... .. . ...
ROW 04 : ... .. . ... : ... .. . ... : ... .. . ... : ... .. . ... : ... .. . ...
ROW 05 : G-3 01 . ... : C-3 01 . ... : G-2 17 . ... : ... .. . ... : ... .. . ...
ROW 06 : ... .. . ... : ... .. . ... : ... .. . ... : ... .. . ... : ... .. . ...
ROW 07 : ... .. . ... : ... .. . ... : ... .. . ... : ... .. . ... : ... .. . ...
ROW 08 : ... .. . ... : ... .. . ... : ... .. . ... : ... .. . ... : D-3 00 . ...
ROW 09 : D-4 01 . ... : G-3 01 . ... : A#2 17 . ... : A-# 1B . ... : ... .. . ...
ROW 0A : ... .. . ... : ... .. . ... : ... .. . ... : ... .. . ... : ... .. . ...
ROW 0B : ... .. . ... : ... .. . ... : ... .. . ... : ... .. . ... : ... .. . ...
ROW 0C : ... .. . ... : ... .. . ... : ... .. . ... : ... .. . ... : ... .. . ...
ROW 0D : D#4 01 . ... : D-4 01 . ... : F-2 17 . ... : ... .. . ... : ... .. . ...
ROW 0E : ... .. . ... : ... .. . ... : ... .. . ... : ... .. . ... : ... .. . ...
ROW 0F : ... .. . ... : ... .. . ... : ... .. . ... : ... .. . ... : ... .. . ...
ROW 10 : ... .. . ... : ... .. . ... : ... .. . ... : ... .. . ... : D-3 00 . ...
ROW 11 : C-2 01 . ... : D#4 01 . ... : D-3 17 . ... : A-# 1B . ... : ... .. . ...
ROW 12 : ... .. . ... : ... .. . ... : ... .. . ... : ... .. . ... : ... .. . ...
ROW 13 : C-3 01 . ... : ... .. . ... : ... .. . ... : ... .. . ... : ... .. . ...
ROW 14 : ... .. . ... : ... .. . ... : ... .. . ... : ... .. . ... : ... .. . ...
ROW 15 : D#4 01 . ... : C-2 01 . ... : C-3 17 . ... : ... .. . ... : ... .. . ...
ROW 16 : ... .. . ... : ... .. . ... : ... .. . ... : ... .. . ... : ... .. . ...
ROW 17 : ... .. . ... : C-3 01 . ... : ... .. . ... : ... .. . ... : ... .. . ...
ROW 18 : ... .. . ... : ... .. . ... : ... .. . ... : ... .. . ... : D-3 00 . ...
ROW 19 : G-3 01 . ... : D#4 01 . ... : F-2 17 . ... : A-# 1B . ... : ... .. . ...
ROW 1A : ... .. . ... : ... .. . ... : ... .. . ... : ... .. . ... : ... .. . ...
ROW 1B : ... .. . ... : ... .. . ... : ... .. . ... : ... .. . ... : ... .. . ...
ROW 1C : ... .. . ... : ... .. . ... : ... .. . ... : ... .. . ... : ... .. . ...
ROW 1D : F-4 01 . ... : G-3 01 . ... : G-2 17 . ... : ... .. . ... : ... .. . ...
ROW 1E : ... .. . ... : ... .. . ... : ... .. . ... : ... .. . ... : ... .. . ...
ROW 1F : ... .. . ... : ... .. . ... : ... .. . ... : ... .. . ... : ... .. . ...
ROW 20 : ... .. . ... : ... .. . ... : ... .. . ... : ... .. . ... : D-3 00 . ...
ROW 21 : D#4 01 . ... : F-4 01 . ... : C-2 17 . ... : A-# 1B . ... : ... .. . ...
ROW 22 : ... .. . ... : ... .. . ... : ... .. . ... : ... .. . ... : ... .. . ...
ROW 23 : ... .. . ... : ... .. . ... : ... .. . ... : ... .. . ... : ... .. . ...
ROW 24 : ... .. . ... : ... .. . ... : ... .. . ... : ... .. . ... : ... .. . ...
ROW 25 : D-4 01 . ... : D#4 01 . ... : G-2 17 . ... : ... .. . ... : ... .. . ...
ROW 26 : ... .. . ... : ... .. . ... : ... .. . ... : ... .. . ... : ... .. . ...
ROW 27 : ... .. . ... : ... .. . ... : ... .. . ... : ... .. . ... : ... .. . ...
ROW 28 : ... .. . ... : ... .. . ... : ... .. . ... : ... .. . ... : D-3 00 . ...
ROW 29 : C-4 01 . ... : D-4 01 . ... : A#2 17 . ... : A-# 1B . ... : ... .. . ...
ROW 2A : ... .. . ... : ... .. . ... : ... .. . ... : ... .. . ... : ... .. . ...
ROW 2B : ... .. . ... : ... .. . ... : ... .. . ... : ... .. . ... : ... .. . ...
ROW 2C : ... .. . ... : ... .. . ... : ... .. . ... : ... .. . ... : ... .. . ...
ROW 2D : A#3 01 . ... : C-4 01 . ... : F-2 17 . ... : ... .. . ... : ... .. . ...
ROW 2E : ... .. . ... : ... .. . ... : ... .. . ... : ... .. . ... : ... .. . ...
ROW 2F : ... .. . ... : ... .. . ... : ... .. . ... : ... .. . ... : ... .. . ...
ROW 30 : ... .. . ... : ... .. . ... : ... .. . ... : ... .. . ... : D-3 00 . ...
ROW 31 : C-2 01 . ... : A#3 01 . ... : D-3 17 . ... : A-# 1B . ... : ... .. . ...
ROW 32 : ... .. . ... : ... .. . ... : ... .. . ... : ... .. . ... : ... .. . ...
ROW 33 : C-3 01 . ... : ... .. . ... : ... .. . ... : ... .. . ... : ... .. . ...
ROW 34 : ... .. . ... : ... .. . ... : ... .. . ... : ... .. . ... : ... .. . ...
ROW 35 : C-4 01 . ... : C-2 01 . ... : C-3 17 . ... : ... .. . ... : ... .. . ...
ROW 36 : ... .. . ... : ... .. . ... : ... .. . ... : ... .. . ... : ... .. . ...
ROW 37 : ... .. . ... : C-3 01 . ... : ... .. . ... : ... .. . ... : ... .. . ...
ROW 38 : ... .. . ... : ... .. . ... : ... .. . ... : ... .. . ... : D-3 00 . ...
ROW 39 : G-3 01 . ... : C-4 01 . ... : F-2 17 . ... : A-# 1B . ... : ... .. . ...
ROW 3A : ... .. . ... : ... .. . ... : ... .. . ... : ... .. . ... : ... .. . ...
ROW 3B : ... .. . ... : ... .. . ... : ... .. . ... : ... .. . ... : ... .. . ...
ROW 3C : ... .. . ... : ... .. . ... : ... .. . ... : ... .. . ... : ... .. . ...
ROW 3D : F-3 01 . ... : G-3 01 . ... : G-2 17 . ... : ... .. . ... : ... .. . ...
ROW 3E : ... .. . ... : ... .. . ... : ... .. . ... : ... .. . ... : ... .. . ...
ROW 3F : ... .. . ... : ... .. . ... : ... .. . ... : ... .. . ... : ... .. . ...
ROW 40 : ... .. . ... : ... .. . ... : ... .. . ... : ... .. . ... : D-3 00 . ...
ROW 41 : D#3 01 . ... : F-3 01 . ... : G#2 17 . ... : A-# 1B . ... : ... .. . ...
ROW 42 : ... .. . ... : ... .. . ... : ... .. . ... : ... .. . ... : ... .. . ...
ROW 43 : ... .. . ... : ... .. . ... : ... .. . ... : ... .. . ... : ... .. . ...
ROW 44 : ... .. . ... : ... .. . ... : ... .. . ... : ... .. . ... : ... .. . ...
ROW 45 : ... .. . ... : D#3 01 . ... : D#3 17 . ... : ... .. . ... : ... .. . ...
ROW 46 : ... .. . ... : ... .. . ... : ... .. . ... : ... .. . ... : ... .. . ...
ROW 47 : ... .. . ... : ... .. . ... : ... .. . ... : ... .. . ... : ... .. . ...
ROW 48 : ... .. . ... : ... .. . ... : ... .. . ... : ... .. . ... : D-3 00 . ...
ROW 49 : C-2 01 . ... : ... .. . ... : F#3 17 . ... : A-# 1B . ... : ... .. . ...
ROW 4A : ... .. . ... : ... .. . ... : ... .. . ... : ... .. . ... : ... .. . ...
ROW 4B : ... .. . ... : ... .. . ... : ... .. . ... : ... .. . ... : ... .. . ...
ROW 4C : ... .. . ... : ... .. . ... : ... .. . ... : ... .. . ... : ... .. . ...
ROW 4D : D#2 01 . ... : C-2 01 . ... : D-3 17 . ... : ... .. . ... : ... .. . ...
ROW 4E : ... .. . ... : ... .. . ... : ... .. . ... : ... .. . ... : ... .. . ...
ROW 4F : ... .. . ... : ... .. . ... : ... .. . ... : ... .. . ... : ... .. . ...
ROW 50 : ... .. . ... : ... .. . ... : ... .. . ... : ... .. . ... : D-3 00 . ...
ROW 51 : G-2 01 . ... : D#2 01 . ... : A#3 17 . ... : A-# 1B . ... : ... .. . ...
ROW 52 : ... .. . ... : ... .. . ... : ... .. . ... : ... .. . ... : ... .. . ...
ROW 53 : ... .. . ... : ... .. . ... : ... .. . ... : ... .. . ... : ... .. . ...
ROW 54 : ... .. . ... : ... .. . ... : ... .. . ... : ... .. . ... : ... .. . ...
ROW 55 : C-3 01 . ... : G-2 01 . ... : G#3 17 . ... : ... .. . ... : ... .. . ...
ROW 56 : ... .. . ... : ... .. . ... : ... .. . ... : ... .. . ... : ... .. . ...
ROW 57 : ... .. . ... : ... .. . ... : ... .. . ... : ... .. . ... : ... .. . ...
ROW 58 : ... .. . ... : ... .. . ... : ... .. . ... : ... .. . ... : D-3 00 . ...
ROW 59 : D#3 01 . ... : C-3 01 . ... : D-3 17 . ... : A-# 1B . ... : ... .. . ...
ROW 5A : ... .. . ... : ... .. . ... : ... .. . ... : ... .. . ... : ... .. . ...
ROW 5B : ... .. . ... : ... .. . ... : ... .. . ... : ... .. . ... : ... .. . ...
ROW 5C : ... .. . ... : ... .. . ... : ... .. . ... : ... .. . ... : ... .. . ...
ROW 5D : C-3 01 . ... : D#3 01 . ... : G#3 17 . ... : ... .. . ... : ... .. . ...
ROW 5E : ... .. . ... : ... .. . ... : ... .. . ... : ... .. . ... : ... .. . ...
ROW 5F : ... .. . ... : ... .. . ... : ... .. . ... : ... .. . ... : ... .. . ...
ROW 60 : ... .. . ... : ... .. . ... : ... .. . ... : ... .. . ... : D-3 00 . ...
ROW 61 : G#3 01 . ... : C-3 01 . ... : G-2 17 . ... : A-# 1B . ... : ... .. . ...
ROW 62 : ... .. . ... : ... .. . ... : ... .. . ... : ... .. . ... : ... .. . ...
ROW 63 : ... .. . ... : ... .. . ... : ... .. . ... : ... .. . ... : ... .. . ...
ROW 64 : ... .. . ... : ... .. . ... : ... .. . ... : ... .. . ... : ... .. . ...
ROW 65 : ... .. . ... : G#3 01 . ... : D-3 17 . ... : ... .. . ... : ... .. . ...
ROW 66 : ... .. . ... : ... .. . ... : ... .. . ... : ... .. . ... : ... .. . ...
ROW 67 : ... .. . ... : ... .. . ... : ... .. . ... : ... .. . ... : ... .. . ...
ROW 68 : ... .. . ... : ... .. . ... : ... .. . ... : ... .. . ... : D-3 00 . ...
ROW 69 : B-2 01 . ... : ... .. . ... : G-3 17 . ... : A-# 1B . ... : ... .. . ...
ROW 6A : ... .. . ... : ... .. . ... : ... .. . ... : ... .. . ... : ... .. . ...
ROW 6B : ... .. . ... : ... .. . ... : ... .. . ... : ... .. . ... : ... .. . ...
ROW 6C : ... .. . ... : ... .. . ... : ... .. . ... : ... .. . ... : ... .. . ...
ROW 6D : ... .. . ... : B-2 01 . ... : C#3 17 . ... : ... .. . ... : ... .. . ...
ROW 6E : ... .. . ... : ... .. . ... : ... .. . ... : ... .. . ... : ... .. . ...
ROW 6F : ... .. . ... : ... .. . ... : ... .. . ... : ... .. . ... : ... .. . ...
ROW 70 : ... .. . ... : ... .. . ... : ... .. . ... : ... .. . ... : D-3 00 . ...
ROW 71 : D-3 01 . ... : ... .. . ... : F-3 17 . ... : A-# 1B . ... : ... .. . ...
ROW 72 : ... .. . ... : ... .. . ... : ... .. . ... : ... .. . ... : ... .. . ...
ROW 73 : ... .. . ... : ... .. . ... : ... .. . ... : ... .. . ... : ... .. . ...
ROW 74 : ... .. . ... : ... .. . ... : ... .. . ... : ... .. . ... : ... .. . ...
ROW 75 : ... .. . ... : D-3 01 . ... : G-2 17 . ... : ... .. . ... : ... .. . ...
ROW 76 : ... .. . ... : ... .. . ... : ... .. . ... : ... .. . ... : ... .. . ...
ROW 77 : ... .. . ... : ... .. . ... : ... .. . ... : ... .. . ... : ... .. . ...
ROW 78 : ... .. . ... : ... .. . ... : ... .. . ... : ... .. . ... : D-3 00 . ...
ROW 79 : G#2 01 . ... : ... .. . ... : G-3 17 . ... : A-# 1B . ... : ... .. . ...
ROW 7A : ... .. . ... : ... .. . ... : ... .. . ... : ... .. . ... : ... .. . ...
ROW 7B : ... .. . ... : ... .. . ... : ... .. . ... : ... .. . ... : ... .. . ...
ROW 7C : ... .. . ... : ... .. . ... : ... .. . ... : ... .. . ... : ... .. . ...
ROW 7D : ... .. . ... : G#2 01 . ... : G-2 17 . ... : ... .. . ... : ... .. . ...
ROW 7E : ... .. . ... : ... .. . ... : ... .. . ... : ... .. . ... : ... .. . ...
ROW 7F : ... .. . ... : ... .. . ... : ... .. . ... : ... .. . ... : ... .. . ...

PATTERN 04
ROW 00 : ... .. . ... : ... .. . ... : ... .. . ... : ... .. . ... : D-3 00 . ...
ROW 01 : C-3 01 . ... : ... .. . ... : C-2 17 . ... : A-# 1B . ... : ... .. . ...
ROW 02 : ... .. . ... : ... .. . ... : ... .. . ... : ... .. . ... : ... .. . ...
ROW 03 : ... .. . ... : ... .. . ... : ... .. . ... : ... .. . ... : ... .. . ...
ROW 04 : ... .. . ... : ... .. . ... : ... .. . ... : ... .. . ... : ... .. . ...
ROW 05 : G-3 01 . ... : C-3 01 . ... : G-2 17 . ... : ... .. . ... : ... .. . ...
ROW 06 : ... .. . ... : ... .. . ... : ... .. . ... : ... .. . ... : ... .. . ...
ROW 07 : ... .. . ... : ... .. . ... : ... .. . ... : ... .. . ... : ... .. . ...
ROW 08 : ... .. . ... : ... .. . ... : ... .. . ... : ... .. . ... : D-3 00 . ...
ROW 09 : D-4 01 . ... : G-3 01 . ... : A#2 17 . ... : A-# 1B . ... : ... .. . ...
ROW 0A : ... .. . ... : ... .. . ... : ... .. . ... : ... .. . ... : ... .. . ...
ROW 0B : ... .. . ... : ... .. . ... : ... .. . ... : ... .. . ... : ... .. . ...
ROW 0C : ... .. . ... : ... .. . ... : ... .. . ... : ... .. . ... : ... .. . ...
ROW 0D : D#4 01 . ... : D-4 01 . ... : F-2 17 . ... : ... .. . ... : ... .. . ...
ROW 0E : ... .. . ... : ... .. . ... : ... .. . ... : ... .. . ... : ... .. . ...
ROW 0F : ... .. . ... : ... .. . ... : ... .. . ... : ... .. . ... : ... .. . ...
ROW 10 : ... .. . ... : ... .. . ... : ... .. . ... : ... .. . ... : D-3 00 . ...
ROW 11 : C-2 01 . ... : D#4 01 . ... : D-3 17 . ... : A-# 1B . ... : ... .. . ...
ROW 12 : ... .. . ... : ... .. . ... : ... .. . ... : ... .. . ... : ... .. . ...
ROW 13 : C-3 01 . ... : ... .. . ... : ... .. . ... : ... .. . ... : ... .. . ...
ROW 14 : ... .. . ... : ... .. . ... : ... .. . ... : ... .. . ... : ... .. . ...
ROW 15 : D#4 01 . ... : C-2 01 . ... : C-3 17 . ... : ... .. . ... : ... .. . ...
ROW 16 : ... .. . ... : ... .. . ... : ... .. . ... : ... .. . ... : ... .. . ...
ROW 17 : ... .. . ... : C-3 01 . ... : ... .. . ... : ... .. . ... : ... .. . ...
ROW 18 : ... .. . ... : ... .. . ... : ... .. . ... : ... .. . ... : D-3 00 . ...
ROW 19 : G-3 01 . ... : D#4 01 . ... : F-2 17 . ... : A-# 1B . ... : ... .. . ...
ROW 1A : ... .. . ... : ... .. . ... : ... .. . ... : ... .. . ... : ... .. . ...
ROW 1B : ... .. . ... : ... .. . ... : ... .. . ... : ... .. . ... : ... .. . ...
ROW 1C : ... .. . ... : ... .. . ... : ... .. . ... : ... .. . ... : ... .. . ...
ROW 1D : F-4 01 . ... : G-3 01 . ... : G-2 17 . ... : ... .. . ... : ... .. . ...
ROW 1E : ... .. . ... : ... .. . ... : ... .. . ... : ... .. . ... : ... .. . ...
ROW 1F : ... .. . ... : ... .. . ... : ... .. . ... : ... .. . ... : ... .. . ...
ROW 20 : ... .. . ... : ... .. . ... : ... .. . ... : ... .. . ... : D-3 00 . ...
ROW 21 : D#4 01 . ... : F-4 01 . ... : C-2 17 . ... : A-# 1B . ... : ... .. . ...
ROW 22 : ... .. . ... : ... .. . ... : ... .. . ... : ... .. . ... : ... .. . ...
ROW 23 : ... .. . ... : ... .. . ... : ... .. . ... : ... .. . ... : ... .. . ...
ROW 24 : ... .. . ... : ... .. . ... : ... .. . ... : ... .. . ... : ... .. . ...
ROW 25 : D-4 01 . ... : D#4 01 . ... : G-2 17 . ... : ... .. . ... : ... .. . ...
ROW 26 : ... .. . ... : ... .. . ... : ... .. . ... : ... .. . ... : ... .. . ...
ROW 27 : ... .. . ... : ... .. . ... : ... .. . ... : ... .. . ... : ... .. . ...
ROW 28 : ... .. . ... : ... .. . ... : ... .. . ... : ... .. . ... : D-3 00 . ...
ROW 29 : C-4 01 . ... : D-4 01 . ... : A#2 17 . ... : A-# 1B . ... : ... .. . ...
ROW 2A : ... .. . ... : ... .. . ... : ... .. . ... : ... .. . ... : ... .. . ...
ROW 2B : ... .. . ... : ... .. . ... : ... .. . ... : ... .. . ... : ... .. . ...
ROW 2C : ... .. . ... : ... .. . ... : ... .. . ... : ... .. . ... : ... .. . ...
ROW 2D : A#3 01 . ... : C-4 01 . ... : F-2 17 . ... : ... .. . ... : ... .. . ...
ROW 2E : ... .. . ... : ... .. . ... : ... .. . ... : ... .. . ... : ... .. . ...
ROW 2F : ... .. . ... : ... .. . ... : ... .. . ... : ... .. . ... : ... .. . ...
ROW 30 : ... .. . ... : ... .. . ... : ... .. . ... : ... .. . ... : D-3 00 . ...
ROW 31 : C-2 01 . ... : A#3 01 . ... : D-3 17 . ... : A-# 1B . ... : ... .. . ...
ROW 32 : ... .. . ... : ... .. . ... : ... .. . ... : ... .. . ... : ... .. . ...
ROW 33 : C-3 01 . ... : ... .. . ... : ... .. . ... : ... .. . ... : ... .. . ...
ROW 34 : ... .. . ... : ... .. . ... : ... .. . ... : ... .. . ... : ... .. . ...
ROW 35 : C-4 01 . ... : C-2 01 . ... : C-3 17 . ... : ... .. . ... : ... .. . ...
ROW 36 : ... .. . ... : ... .. . ... : ... .. . ... : ... .. . ... : ... .. . ...
ROW 37 : ... .. . ... : C-3 01 . ... : ... .. . ... : ... .. . ... : ... .. . ...
ROW 38 : ... .. . ... : ... .. . ... : ... .. . ... : ... .. . ... : D-3 00 . ...
ROW 39 : G-3 01 . ... : C-4 01 . ... : F-2 17 . ... : A-# 1B . ... : ... .. . ...
ROW 3A : ... .. . ... : ... .. . ... : ... .. . ... : ... .. . ... : ... .. . ...
ROW 3B : ... .. . ... : ... .. . ... : ... .. . ... : ... .. . ... : ... .. . ...
ROW 3C : ... .. . ... : ... .. . ... : ... .. . ... : ... .. . ... : ... .. . ...
ROW 3D : F-3 01 . ... : G-3 01 . ... : G-2 17 . ... : ... .. . ... : ... .. . ...
ROW 3E : ... .. . ... : ... .. . ... : ... .. . ... : ... .. . ... : ... .. . ...
ROW 3F : ... .. . ... : ... .. . ... : ... .. . ... : ... .. . ... : ... .. . ...
ROW 40 : ... .. . ... : ... .. . ... : ... .. . ... : ... .. . ... : D-3 00 . ...
ROW 41 : D#3 01 . ... : F-3 01 . ... : G#2 17 . ... : A-# 1B . ... : ... .. . ...
ROW 42 : ... .. . ... : ... .. . ... : ... .. . ... : ... .. . ... : ... .. . ...
ROW 43 : ... .. . ... : ... .. . ... : ... .. . ... : ... .. . ... : ... .. . ...
ROW 44 : ... .. . ... : ... .. . ... : ... .. . ... : ... .. . ... : ... .. . ...
ROW 45 : ... .. . ... : D#3 01 . ... : D#3 17 . ... : ... .. . ... : ... .. . ...
ROW 46 : ... .. . ... : ... .. . ... : ... .. . ... : ... .. . ... : ... .. . ...
ROW 47 : ... .. . ... : ... .. . ... : ... .. . ... : ... .. . ... : ... .. . ...
ROW 48 : ... .. . ... : ... .. . ... : ... .. . ... : ... .. . ... : D-3 00 . ...
ROW 49 : C-2 01 . ... : ... .. . ... : F#3 17 . ... : A-# 1B . ... : ... .. . ...
ROW 4A : ... .. . ... : ... .. . ... : ... .. . ... : ... .. . ... : ... .. . ...
ROW 4B : ... .. . ... : ... .. . ... : ... .. . ... : ... .. . ... : ... .. . ...
ROW 4C : ... .. . ... : ... .. . ... : ... .. . ... : ... .. . ... : ... .. . ...
ROW 4D : D#2 01 . ... : C-2 01 . ... : D-3 17 . ... : ... .. . ... : ... .. . ...
ROW 4E : ... .. . ... : ... .. . ... : ... .. . ... : ... .. . ... : ... .. . ...
ROW 4F : ... .. . ... : ... .. . ... : ... .. . ... : ... .. . ... : ... .. . ...
ROW 50 : ... .. . ... : ... .. . ... : ... .. . ... : ... .. . ... : D-3 00 . ...
ROW 51 : G-2 01 . ... : D#2 01 . ... : A#3 17 . ... : A-# 1B . ... : ... .. . ...
ROW 52 : ... .. . ... : ... .. . ... : ... .. . ... : ... .. . ... : ... .. . ...
ROW 53 : ... .. . ... : ... .. . ... : ... .. . ... : ... .. . ... : ... .. . ...
ROW 54 : ... .. . ... : ... .. . ... : ... .. . ... : ... .. . ... : ... .. . ...
ROW 55 : C-3 01 . ... : G-2 01 . ... : G#3 17 . ... : ... .. . ... : ... .. . ...
ROW 56 : ... .. . ... : ... .. . ... : ... .. . ... : ... .. . ... : ... .. . ...
ROW 57 : ... .. . ... : ... .. . ... : ... .. . ... : ... .. . ... : ... .. . ...
ROW 58 : ... .. . ... : ... .. . ... : ... .. . ... : ... .. . ... : D-3 00 . ...
ROW 59 : D#3 01 . ... : C-3 01 . ... : D-3 17 . ... : A-# 1B . ... : ... .. . ...
ROW 5A : ... .. . ... : ... .. . ... : ... .. . ... : ... .. . ... : ... .. . ...
ROW 5B : ... .. . ... : ... .. . ... : ... .. . ... : ... .. . ... : ... .. . ...
ROW 5C : ... .. . ... : ... .. . ... : ... .. . ... : ... .. . ... : ... .. . ...
ROW 5D : C-3 01 . ... : D#3 01 . ... : G#3 17 . ... : ... .. . ... : ... .. . ...
ROW 5E : ... .. . ... : ... .. . ... : ... .. . ... : ... .. . ... : ... .. . ...
ROW 5F : ... .. . ... : ... .. . ... : ... .. . ... : ... .. . ... : ... .. . ...
ROW 60 : ... .. . ... : ... .. . ... : ... .. . ... : ... .. . ... : D-3 00 . ...
ROW 61 : G#3 01 . ... : C-3 01 . ... : G-2 17 . ... : A-# 1B . ... : ... .. . ...
ROW 62 : ... .. . ... : ... .. . ... : ... .. . ... : ... .. . ... : D-3 00 . ...
ROW 63 : ... .. . ... : ... .. . ... : ... .. . ... : A-# 1B . ... : ... .. . ...
ROW 64 : ... .. . ... : ... .. . ... : ... .. . ... : ... .. . ... : C-3 00 . ...
ROW 65 : ... .. . ... : G#3 01 . ... : D-3 17 . ... : ... .. . ... : ... .. . ...
ROW 66 : ... .. . ... : ... .. . ... : ... .. . ... : ... .. . ... : C-3 00 . ...
ROW 67 : ... .. . ... : ... .. . ... : ... .. . ... : ... .. . ... : ... .. . ...
ROW 68 : ... .. . ... : ... .. . ... : ... .. . ... : ... .. . ... : D-3 00 . ...
ROW 69 : ... .. . ... : ... .. . ... : G-3 17 . ... : A-# 1B . ... : ... .. . ...
ROW 6A : ... .. . ... : ... .. . ... : ... .. . ... : ... .. . ... : D-3 00 . ...
ROW 6B : ... .. . ... : ... .. . ... : ... .. . ... : A-# 1B . ... : ... .. . ...
ROW 6C : ... .. . ... : ... .. . ... : ... .. . ... : ... .. . ... : C-3 00 . ...
ROW 6D : ... .. . ... : ... .. . ... : C#3 17 . ... : ... .. . ... : ... .. . ...
ROW 6E : ... .. . ... : ... .. . ... : ... .. . ... : ... .. . ... : C-3 00 . ...
ROW 6F : ... .. . ... : ... .. . ... : ... .. . ... : ... .. . ... : ... .. . ...
ROW 70 : ... .. . ... : ... .. . ... : ... .. . ... : ... .. . ... : D-3 00 . ...
ROW 71 : A#3 01 . ... : ... .. . ... : F-3 17 . ... : A-# 1B . ... : ... .. . ...
ROW 72 : ... .. . ... : ... .. . ... : ... .. . ... : ... .. . ... : D-3 00 . ...
ROW 73 : F-4 01 . ... : ... .. . ... : ... .. . ... : A-# 1B . ... : ... .. . ...
ROW 74 : ... .. . ... : ... .. . ... : ... .. . ... : ... .. . ... : C-3 00 . ...
ROW 75 : A#4 01 . ... : A#3 01 . ... : G-2 17 . ... : ... .. . ... : ... .. . ...
ROW 76 : ... .. . ... : ... .. . ... : ... .. . ... : ... .. . ... : C-3 00 . ...
ROW 77 : F-5 01 . ... : F-4 01 . ... : ... .. . ... : ... .. . ... : ... .. . ...
ROW 78 : ... .. . ... : ... .. . ... : ... .. . ... : ... .. . ... : D-3 00 . ...
ROW 79 : A#3 01 . ... : A#4 01 . ... : G-3 17 . ... : A-# 1B . ... : ... .. . ...
ROW 7A : ... .. . ... : ... .. . ... : ... .. . ... : ... .. . ... : D-3 00 . ...
ROW 7B : F-4 01 . ... : F-5 01 . ... : ... .. . ... : A-# 1B . ... : ... .. . ...
ROW 7C : ... .. . ... : ... .. . ... : ... .. . ... : ... .. . ... : D-3 00 . ...
ROW 7D : A#4 01 . ... : A#3 01 . ... : G-2 17 . ... : A-# 1B . ... : ... .. . ...
ROW 7E : ... .. . ... : ... .. . ... : ... .. . ... : ... .. . ... : D-3 00 . ...
ROW 7F : F-5 01 . ... : F-4 01 . ... : ... .. . ... : A-# 1B . ... : ... .. . B01

TRACK  64   1 150 "Stage 5"
COLUMNS : 1 1 1 1 1

ORDER 00 : 00 00 00 00 00
ORDER 01 : 01 01 01 01 01
ORDER 02 : 02 02 02 02 02
ORDER 03 : 03 03 03 03 03
ORDER 04 : 04 04 04 04 04
ORDER 05 : 05 05 05 05 05
ORDER 06 : 06 06 06 06 06
ORDER 07 : 07 07 07 07 07

PATTERN 00
ROW 00 : ... .. . ... : ... .. . ... : ... .. . ... : ... .. . ... : C-3 00 . ...
ROW 01 : A-3 0D . ... : F#3 0D . ... : D-3 07 . ... : ... .. . ... : ... .. . ...
ROW 02 : ... .. . ... : ... .. . ... : ... .. . ... : ... .. . ... : ... .. . ...
ROW 03 : ... .. . ... : ... .. . ... : --- .. . ... : ... .. . ... : ... .. . ...
ROW 04 : ... .. . ... : ... .. . ... : ... .. . ... : ... .. . ... : ... .. . ...
ROW 05 : E-3 0D . ... : C-3 0D . ... : A-2 07 . ... : ... .. . ... : ... .. . ...
ROW 06 : ... .. . ... : ... .. . ... : ... .. . ... : ... .. . ... : ... .. . ...
ROW 07 : ... .. . ... : ... .. . ... : --- .. . ... : ... .. . ... : ... .. . ...
ROW 08 : ... .. . ... : ... .. . ... : ... .. . ... : ... .. . ... : ... .. . ...
ROW 09 : G-3 0D . ... : E-3 0D . ... : D-3 07 . ... : ... .. . ... : ... .. . ...
ROW 0A : ... .. . ... : ... .. . ... : ... .. . ... : ... .. . ... : ... .. . ...
ROW 0B : ... .. . ... : ... .. . ... : --- .. . ... : ... .. . ... : ... .. . ...
ROW 0C : ... .. . ... : ... .. . ... : ... .. . ... : ... .. . ... : C-3 00 . ...
ROW 0D : F#3 0D . ... : D-3 0D . ... : A-2 07 . ... : ... .. . ... : ... .. . ...
ROW 0E : ... .. . ... : ... .. . ... : ... .. . ... : ... .. . ... : ... .. . ...
ROW 0F : ... .. . ... : ... .. . ... : --- .. . ... : ... .. . ... : ... .. . ...
ROW 10 : ... .. . ... : ... .. . ... : ... .. . ... : ... .. . ... : D-3 00 . ...
ROW 11 : D-1 0D . ... : D-1 0D . ... : D-3 07 . ... : A-# 1B . ... : ... .. . ...
ROW 12 : ... .. . ... : ... .. . ... : ... .. . ... : ... .. . ... : ... .. . ...
ROW 13 : ... .. . ... : ... .. . ... : --- .. . ... : ... .. . ... : ... .. . ...
ROW 14 : ... .. . ... : ... .. . ... : ... .. . ... : ... .. . ... : D-3 00 . ...
ROW 15 : G-2 0D . ... : ... .. . ... : A-2 07 . ... : A-# 1B . ... : ... .. . ...
ROW 16 : ... .. . ... : ... .. . ... : ... .. . ... : ... .. . ... : ... .. . ...
ROW 17 : ... .. . ... : G-2 0D . ... : --- .. . ... : ... .. . ... : ... .. . ...
ROW 18 : ... .. . ... : ... .. . ... : ... .. . ... : ... .. . ... : ... .. . ...
ROW 19 : F#2 0D . ... : ... .. . ... : D-3 07 . ... : ... .. . ... : ... .. . ...
ROW 1A : ... .. . ... : ... .. . ... : ... .. . ... : ... .. . ... : ... .. . ...
ROW 1B : ... .. . ... : F#2 0D . ... : --- .. . ... : ... .. . ... : ... .. . ...
ROW 1C : ... .. . ... : ... .. . ... : ... .. . ... : ... .. . ... : C-3 00 . ...
ROW 1D : D-2 0D . ... : ... .. . ... : A-2 07 . ... : ... .. . ... : ... .. . ...
ROW 1E : ... .. . ... : ... .. . ... : ... .. . ... : ... .. . ... : ... .. . ...
ROW 1F : ... .. . ... : D-2 0D . ... : --- .. . ... : ... .. . ... : ... .. . ...
ROW 20 : ... .. . ... : ... .. . ... : ... .. . ... : ... .. . ... : ... .. . ...
ROW 21 : C-2 0D . ... : ... .. . ... : D-3 07 . ... : ... .. . ... : ... .. . ...
ROW 22 : ... .. . ... : ... .. . ... : ... .. . ... : ... .. . ... : ... .. . ...
ROW 23 : ... .. . ... : C-2 0D . ... : --- .. . ... : ... .. . ... : ... .. . ...
ROW 24 : ... .. . ... : ... .. . ... : ... .. . ... : ... .. . ... : C-3 00 . ...
ROW 25 : D-1 0D . ... : ... .. . ... : A-2 07 . ... : ... .. . ... : ... .. . ...
ROW 26 : ... .. . ... : ... .. . ... : ... .. . ... : ... .. . ... : ... .. . ...
ROW 27 : ... .. . ... : D-1 0D . ... : --- .. . ... : ... .. . ... : ... .. . ...
ROW 28 : ... .. . ... : ... .. . ... : ... .. . ... : ... .. . ... : ... .. . ...
ROW 29 : D-2 0D . ... : ... .. . ... : D-3 07 . ... : ... .. . ... : ... .. . ...
ROW 2A : ... .. . ... : ... .. . ... : ... .. . ... : ... .. . ... : ... .. . ...
ROW 2B : ... .. . ... : D-2 0D . ... : --- .. . ... : ... .. . ... : ... .. . ...
ROW 2C : ... .. . ... : ... .. . ... : ... .. . ... : ... .. . ... : C-3 00 . ...
ROW 2D : D-1 0D . ... : ... .. . ... : A-2 07 . ... : ... .. . ... : ... .. . ...
ROW 2E : ... .. . ... : ... .. . ... : ... .. . ... : ... .. . ... : C-3 00 . ...
ROW 2F : ... .. . ... : D-1 0D . ... : --- .. . ... : ... .. . ... : ... .. . ...
ROW 30 : ... .. . ... : ... .. . ... : ... .. . ... : ... .. . ... : D-3 00 . ...
ROW 31 : G-1 0D . ... : ... .. . ... : D-3 07 . ... : A-# 1B . ... : ... .. . ...
ROW 32 : ... .. . ... : ... .. . ... : ... .. . ... : ... .. . ... : ... .. . ...
ROW 33 : ... .. . ... : G-1 0D . ... : --- .. . ... : ... .. . ... : ... .. . ...
ROW 34 : ... .. . ... : ... .. . ... : ... .. . ... : ... .. . ... : D-3 00 . ...
ROW 35 : A-1 0D . ... : ... .. . ... : A-2 07 . ... : A-# 1B . ... : ... .. . ...
ROW 36 : ... .. . ... : ... .. . ... : ... .. . ... : ... .. . ... : ... .. . ...
ROW 37 : ... .. . ... : A-1 0D . ... : --- .. . ... : ... .. . ... : ... .. . ...
ROW 38 : ... .. . ... : ... .. . ... : ... .. . ... : ... .. . ... : C-3 00 . ...
ROW 39 : D-1 0D . ... : ... .. . ... : D-3 07 . ... : ... .. . ... : ... .. . ...
ROW 3A : ... .. . ... : ... .. . ... : ... .. . ... : ... .. . ... : ... .. . ...
ROW 3B : ... .. . ... : D-1 0D . ... : --- .. . ... : ... .. . ... : ... .. . ...
ROW 3C : ... .. . ... : ... .. . ... : ... .. . ... : ... .. . ... : D-3 00 . ...
ROW 3D : D-2 0D . ... : ... .. . ... : A-2 07 . ... : A-# 1B . ... : ... .. . ...
ROW 3E : ... .. . ... : ... .. . ... : ... .. . ... : ... .. . ... : ... .. . ...
ROW 3F : ... .. . ... : D-2 0D . ... : --- .. . ... : ... .. . ... : ... .. . ...

PATTERN 01
ROW 00 : ... .. . ... : ... .. . ... : ... .. . ... : ... .. . ... : C-3 00 . ...
ROW 01 : A-3 0D . ... : F#3 0D . ... : D-3 07 . ... : ... .. . ... : ... .. . ...
ROW 02 : ... .. . ... : ... .. . ... : ... .. . ... : ... .. . ... : ... .. . ...
ROW 03 : ... .. . ... : ... .. . ... : --- .. . ... : ... .. . ... : ... .. . ...
ROW 04 : ... .. . ... : ... .. . ... : ... .. . ... : ... .. . ... : ... .. . ...
ROW 05 : E-3 0D . ... : C-3 0D . ... : A-2 07 . ... : ... .. . ... : ... .. . ...
ROW 06 : ... .. . ... : ... .. . ... : ... .. . ... : ... .. . ... : ... .. . ...
ROW 07 : ... .. . ... : ... .. . ... : --- .. . ... : ... .. . ... : ... .. . ...
ROW 08 : ... .. . ... : ... .. . ... : ... .. . ... : ... .. . ... : ... .. . ...
ROW 09 : G-3 0D . ... : E-3 0D . ... : D-3 07 . ... : ... .. . ... : ... .. . ...
ROW 0A : ... .. . ... : ... .. . ... : ... .. . ... : ... .. . ... : ... .. . ...
ROW 0B : ... .. . ... : ... .. . ... : --- .. . ... : ... .. . ... : ... .. . ...
ROW 0C : ... .. . ... : ... .. . ... : ... .. . ... : ... .. . ... : C-3 00 . ...
ROW 0D : F#3 0D . ... : D-3 0D . ... : A-2 07 . ... : ... .. . ... : ... .. . ...
ROW 0E : ... .. . ... : ... .. . ... : ... .. . ... : ... .. . ... : ... .. . ...
ROW 0F : ... .. . ... : ... .. . ... : --- .. . ... : ... .. . ... : ... .. . ...
ROW 10 : ... .. . ... : ... .. . ... : ... .. . ... : ... .. . ... : D-3 00 . ...
ROW 11 : D-1 0D . ... : D-1 0D . ... : D-3 07 . ... : A-# 1B . ... : ... .. . ...
ROW 12 : ... .. . ... : ... .. . ... : ... .. . ... : ... .. . ... : ... .. . ...
ROW 13 : ... .. . ... : ... .. . ... : --- .. . ... : ... .. . ... : ... .. . ...
ROW 14 : ... .. . ... : ... .. . ... : ... .. . ... : ... .. . ... : D-3 00 . ...
ROW 15 : G-2 0D . ... : ... .. . ... : A-2 07 . ... : A-# 1B . ... : ... .. . ...
ROW 16 : ... .. . ... : ... .. . ... : ... .. . ... : ... .. . ... : ... .. . ...
ROW 17 : ... .. . ... : G-2 0D . ... : --- .. . ... : ... .. . ... : ... .. . ...
ROW 18 : ... .. . ... : ... .. . ... : ... .. . ... : ... .. . ... : ... .. . ...
ROW 19 : F#2 0D . ... : ... .. . ... : D-3 07 . ... : ... .. . ... : ... .. . ...
ROW 1A : ... .. . ... : ... .. . ... : ... .. . ... : ... .. . ... : ... .. . ...
ROW 1B : ... .. . ... : F#2 0D . ... : --- .. . ... : ... .. . ... : ... .. . ...
ROW 1C : ... .. . ... : ... .. . ... : ... .. . ... : ... .. . ... : C-3 00 . ...
ROW 1D : D-2 0D . ... : ... .. . ... : A-2 07 . ... : ... .. . ... : ... .. . ...
ROW 1E : ... .. . ... : ... .. . ... : ... .. . ... : ... .. . ... : ... .. . ...
ROW 1F : ... .. . ... : D-2 0D . ... : --- .. . ... : ... .. . ... : ... .. . ...
ROW 20 : ... .. . ... : ... .. . ... : ... .. . ... : ... .. . ... : ... .. . ...
ROW 21 : C-2 0D . ... : ... .. . ... : D-3 07 . ... : ... .. . ... : ... .. . ...
ROW 22 : ... .. . ... : ... .. . ... : ... .. . ... : ... .. . ... : ... .. . ...
ROW 23 : ... .. . ... : C-2 0D . ... : --- .. . ... : ... .. . ... : ... .. . ...
ROW 24 : ... .. . ... : ... .. . ... : ... .. . ... : ... .. . ... : C-3 00 . ...
ROW 25 : D-1 0D . ... : ... .. . ... : A-2 07 . ... : ... .. . ... : ... .. . ...
ROW 26 : ... .. . ... : ... .. . ... : ... .. . ... : ... .. . ... : ... .. . ...
ROW 27 : ... .. . ... : D-1 0D . ... : --- .. . ... : ... .. . ... : ... .. . ...
ROW 28 : ... .. . ... : ... .. . ... : ... .. . ... : ... .. . ... : ... .. . ...
ROW 29 : D-2 0D . ... : ... .. . ... : D-3 07 . ... : ... .. . ... : ... .. . ...
ROW 2A : ... .. . ... : ... .. . ... : ... .. . ... : ... .. . ... : ... .. . ...
ROW 2B : ... .. . ... : D-2 0D . ... : --- .. . ... : ... .. . ... : ... .. . ...
ROW 2C : ... .. . ... : ... .. . ... : ... .. . ... : ... .. . ... : C-3 00 . ...
ROW 2D : D-1 0D . ... : ... .. . ... : A-2 07 . ... : ... .. . ... : ... .. . ...
ROW 2E : ... .. . ... : ... .. . ... : ... .. . ... : ... .. . ... : C-3 00 . ...
ROW 2F : ... .. . ... : D-1 0D . ... : --- .. . ... : ... .. . ... : ... .. . ...
ROW 30 : ... .. . ... : ... .. . ... : ... .. . ... : ... .. . ... : D-3 00 . ...
ROW 31 : G-1 0D . ... : ... .. . ... : D-3 07 . ... : A-# 1B . ... : ... .. . ...
ROW 32 : ... .. . ... : ... .. . ... : ... .. . ... : ... .. . ... : ... .. . ...
ROW 33 : ... .. . ... : G-1 0D . ... : --- .. . ... : ... .. . ... : ... .. . ...
ROW 34 : ... .. . ... : ... .. . ... : ... .. . ... : ... .. . ... : D-3 00 . ...
ROW 35 : A-1 0D . ... : ... .. . ... : A-2 07 . ... : A-# 1B . ... : ... .. . ...
ROW 36 : ... .. . ... : ... .. . ... : ... .. . ... : ... .. . ... : ... .. . ...
ROW 37 : ... .. . ... : A-1 0D . ... : --- .. . ... : ... .. . ... : ... .. . ...
ROW 38 : ... .. . ... : ... .. . ... : ... .. . ... : ... .. . ... : C-3 00 . ...
ROW 39 : D-1 0D . ... : ... .. . ... : D-3 07 . ... : ... .. . ... : ... .. . ...
ROW 3A : ... .. . ... : ... .. . ... : ... .. . ... : ... .. . ... : ... .. . ...
ROW 3B : ... .. . ... : D-1 0D . ... : --- .. . ... : ... .. . ... : ... .. . ...
ROW 3C : ... .. . ... : ... .. . ... : ... .. . ... : ... .. . ... : D-3 00 . ...
ROW 3D : D-2 0D . ... : ... .. . ... : A-2 07 . ... : A-# 1B . ... : ... .. . ...
ROW 3E : ... .. . ... : ... .. . ... : ... .. . ... : ... .. . ... : ... .. . ...
ROW 3F : ... .. . ... : D-2 0D . ... : --- .. . ... : ... .. . ... : ... .. . ...

PATTERN 02
ROW 00 : ... .. . ... : ... .. . ... : ... .. . ... : ... .. . ... : C-3 00 . ...
ROW 01 : A-3 0D . ... : F#3 0D . ... : D-3 07 . ... : ... .. . ... : ... .. . ...
ROW 02 : ... .. . ... : ... .. . ... : ... .. . ... : ... .. . ... : ... .. . ...
ROW 03 : ... .. . ... : ... .. . ... : --- .. . ... : ... .. . ... : ... .. . ...
ROW 04 : ... .. . ... : ... .. . ... : ... .. . ... : ... .. . ... : ... .. . ...
ROW 05 : E-3 0D . ... : C-3 0D . ... : A-2 07 . ... : ... .. . ... : ... .. . ...
ROW 06 : ... .. . ... : ... .. . ... : ... .. . ... : ... .. . ... : ... .. . ...
ROW 07 : ... .. . ... : ... .. . ... : --- .. . ... : ... .. . ... : ... .. . ...
ROW 08 : ... .. . ... : ... .. . ... : ... .. . ... : ... .. . ... : ... .. . ...
ROW 09 : G-3 0D . ... : E-3 0D . ... : D-3 07 . ... : ... .. . ... : ... .. . ...
ROW 0A : ... .. . ... : ... .. . ... : ... .. . ... : ... .. . ... : ... .. . ...
ROW 0B : ... .. . ... : ... .. . ... : --- .. . ... : ... .. . ... : ... .. . ...
ROW 0C : ... .. . ... : ... .. . ... : ... .. . ... : ... .. . ... : C-3 00 . ...
ROW 0D : F#3 0D . ... : D-3 0D . ... : A-2 07 . ... : ... .. . ... : ... .. . ...
ROW 0E : ... .. . ... : ... .. . ... : ... .. . ... : ... .. . ... : ... .. . ...
ROW 0F : ... .. . ... : ... .. . ... : --- .. . ... : ... .. . ... : ... .. . ...
ROW 10 : ... .. . ... : ... .. . ... : ... .. . ... : ... .. . ... : D-3 00 . ...
ROW 11 : D-1 0D . ... : D-1 0D . ... : D-3 07 . ... : A-# 1B . ... : ... .. . ...
ROW 12 : ... .. . ... : ... .. . ... : ... .. . ... : ... .. . ... : ... .. . ...
ROW 13 : ... .. . ... : ... .. . ... : --- .. . ... : ... .. . ... : ... .. . ...
ROW 14 : ... .. . ... : ... .. . ... : ... .. . ... : ... .. . ... : D-3 00 . ...
ROW 15 : G-2 0D . ... : ... .. . ... : A-2 07 . ... : A-# 1B . ... : ... .. . ...
ROW 16 : ... .. . ... : ... .. . ... : ... .. . ... : ... .. . ... : ... .. . ...
ROW 17 : ... .. . ... : G-2 0D . ... : --- .. . ... : ... .. . ... : ... .. . ...
ROW 18 : ... .. . ... : ... .. . ... : ... .. . ... : ... .. . ... : ... .. . ...
ROW 19 : F#2 0D . ... : ... .. . ... : D-3 07 . ... : ... .. . ... : ... .. . ...
ROW 1A : ... .. . ... : ... .. . ... : ... .. . ... : ... .. . ... : ... .. . ...
ROW 1B : ... .. . ... : F#2 0D . ... : --- .. . ... : ... .. . ... : ... .. . ...
ROW 1C : ... .. . ... : ... .. . ... : ... .. . ... : ... .. . ... : C-3 00 . ...
ROW 1D : D-2 0D . ... : ... .. . ... : A-2 07 . ... : ... .. . ... : ... .. . ...
ROW 1E : ... .. . ... : ... .. . ... : ... .. . ... : ... .. . ... : ... .. . ...
ROW 1F : ... .. . ... : D-2 0D . ... : --- .. . ... : ... .. . ... : ... .. . ...
ROW 20 : ... .. . ... : ... .. . ... : ... .. . ... : ... .. . ... : ... .. . ...
ROW 21 : C-2 0D . ... : ... .. . ... : D-3 07 . ... : ... .. . ... : ... .. . ...
ROW 22 : ... .. . ... : ... .. . ... : ... .. . ... : ... .. . ... : ... .. . ...
ROW 23 : ... .. . ... : C-2 0D . ... : --- .. . ... : ... .. . ... : ... .. . ...
ROW 24 : ... .. . ... : ... .. . ... : ... .. . ... : ... .. . ... : C-3 00 . ...
ROW 25 : D-1 0D . ... : ... .. . ... : A-2 07 . ... : ... .. . ... : ... .. . ...
ROW 26 : ... .. . ... : ... .. . ... : ... .. . ... : ... .. . ... : ... .. . ...
ROW 27 : ... .. . ... : D-1 0D . ... : --- .. . ... : ... .. . ... : ... .. . ...
ROW 28 : ... .. . ... : ... .. . ... : ... .. . ... : ... .. . ... : ... .. . ...
ROW 29 : D-2 0D . ... : ... .. . ... : D-3 07 . ... : ... .. . ... : ... .. . ...
ROW 2A : ... .. . ... : ... .. . ... : ... .. . ... : ... .. . ... : ... .. . ...
ROW 2B : ... .. . ... : D-2 0D . ... : --- .. . ... : ... .. . ... : ... .. . ...
ROW 2C : ... .. . ... : ... .. . ... : ... .. . ... : ... .. . ... : C-3 00 . ...
ROW 2D : D-1 0D . ... : ... .. . ... : A-2 07 . ... : ... .. . ... : ... .. . ...
ROW 2E : ... .. . ... : ... .. . ... : ... .. . ... : ... .. . ... : C-3 00 . ...
ROW 2F : ... .. . ... : D-1 0D . ... : --- .. . ... : ... .. . ... : ... .. . ...
ROW 30 : ... .. . ... : ... .. . ... : ... .. . ... : ... .. . ... : D-3 00 . ...
ROW 31 : G-1 0D . ... : ... .. . ... : D-3 07 . ... : A-# 1B . ... : ... .. . ...
ROW 32 : ... .. . ... : ... .. . ... : ... .. . ... : ... .. . ... : ... .. . ...
ROW 33 : ... .. . ... : G-1 0D . ... : --- .. . ... : ... .. . ... : ... .. . ...
ROW 34 : ... .. . ... : ... .. . ... : ... .. . ... : ... .. . ... : D-3 00 . ...
ROW 35 : A-1 0D . ... : ... .. . ... : A-2 07 . ... : A-# 1B . ... : ... .. . ...
ROW 36 : ... .. . ... : ... .. . ... : ... .. . ... : ... .. . ... : ... .. . ...
ROW 37 : ... .. . ... : A-1 0D . ... : --- .. . ... : ... .. . ... : ... .. . ...
ROW 38 : ... .. . ... : ... .. . ... : ... .. . ... : ... .. . ... : C-3 00 . ...
ROW 39 : D-1 0D . ... : ... .. . ... : D-3 07 . ... : ... .. . ... : ... .. . ...
ROW 3A : ... .. . ... : ... .. . ... : ... .. . ... : ... .. . ... : ... .. . ...
ROW 3B : ... .. . ... : D-1 0D . ... : --- .. . ... : ... .. . ... : ... .. . ...
ROW 3C : ... .. . ... : ... .. . ... : ... .. . ... : ... .. . ... : D-3 00 . ...
ROW 3D : D-2 0D . ... : ... .. . ... : A-2 07 . ... : A-# 1B . ... : ... .. . ...
ROW 3E : ... .. . ... : ... .. . ... : ... .. . ... : ... .. . ... : ... .. . ...
ROW 3F : ... .. . ... : D-2 0D . ... : --- .. . ... : ... .. . ... : ... .. . ...

PATTERN 03
ROW 00 : ... .. . ... : ... .. . ... : ... .. . ... : ... .. . ... : C-3 00 . ...
ROW 01 : A-3 0D . ... : F#3 0D . ... : D-3 07 . ... : ... .. . ... : ... .. . ...
ROW 02 : ... .. . ... : ... .. . ... : ... .. . ... : ... .. . ... : ... .. . ...
ROW 03 : ... .. . ... : ... .. . ... : --- .. . ... : ... .. . ... : ... .. . ...
ROW 04 : ... .. . ... : ... .. . ... : ... .. . ... : ... .. . ... : ... .. . ...
ROW 05 : E-3 0D . ... : C-3 0D . ... : A-2 07 . ... : ... .. . ... : ... .. . ...
ROW 06 : ... .. . ... : ... .. . ... : ... .. . ... : ... .. . ... : ... .. . ...
ROW 07 : ... .. . ... : ... .. . ... : --- .. . ... : ... .. . ... : ... .. . ...
ROW 08 : ... .. . ... : ... .. . ... : ... .. . ... : ... .. . ... : ... .. . ...
ROW 09 : G-3 0D . ... : E-3 0D . ... : D-3 07 . ... : ... .. . ... : ... .. . ...
ROW 0A : ... .. . ... : ... .. . ... : ... .. . ... : ... .. . ... : ... .. . ...
ROW 0B : ... .. . ... : ... .. . ... : --- .. . ... : ... .. . ... : ... .. . ...
ROW 0C : ... .. . ... : ... .. . ... : ... .. . ... : ... .. . ... : C-3 00 . ...
ROW 0D : F#3 0D . ... : D-3 0D . ... : A-2 07 . ... : ... .. . ... : ... .. . ...
ROW 0E : ... .. . ... : ... .. . ... : ... .. . ... : ... .. . ... : ... .. . ...
ROW 0F : ... .. . ... : ... .. . ... : --- .. . ... : ... .. . ... : ... .. . ...
ROW 10 : ... .. . ... : ... .. . ... : ... .. . ... : ... .. . ... : D-3 00 . ...
ROW 11 : D-1 0D . ... : D-1 0D . ... : D-3 07 . ... : A-# 1B . ... : ... .. . ...
ROW 12 : ... .. . ... : ... .. . ... : ... .. . ... : ... .. . ... : ... .. . ...
ROW 13 : ... .. . ... : ... .. . ... : --- .. . ... : ... .. . ... : ... .. . ...
ROW 14 : ... .. . ... : ... .. . ... : ... .. . ... : ... .. . ... : D-3 00 . ...
ROW 15 : G-2 0D . ... : ... .. . ... : A-2 07 . ... : A-# 1B . ... : ... .. . ...
ROW 16 : ... .. . ... : ... .. . ... : ... .. . ... : ... .. . ... : ... .. . ...
ROW 17 : ... .. . ... : G-2 0D . ... : --- .. . ... : ... .. . ... : ... .. . ...
ROW 18 : ... .. . ... : ... .. . ... : ... .. . ... : ... .. . ... : ... .. . ...
ROW 19 : F#2 0D . ... : ... .. . ... : D-3 07 . ... : ... .. . ... : ... .. . ...
ROW 1A : ... .. . ... : ... .. . ... : ... .. . ... : ... .. . ... : ... .. . ...
ROW 1B : ... .. . ... : F#2 0D . ... : --- .. . ... : ... .. . ... : ... .. . ...
ROW 1C : ... .. . ... : ... .. . ... : ... .. . ... : ... .. . ... : C-3 00 . ...
ROW 1D : D-2 0D . ... : ... .. . ... : A-2 07 . ... : ... .. . ... : ... .. . ...
ROW 1E : ... .. . ... : ... .. . ... : ... .. . ... : ... .. . ... : ... .. . ...
ROW 1F : ... .. . ... : D-2 0D . ... : --- .. . ... : ... .. . ... : ... .. . ...
ROW 20 : ... .. . ... : ... .. . ... : ... .. . ... : ... .. . ... : ... .. . ...
ROW 21 : C-2 0D . ... : ... .. . ... : D-3 07 . ... : ... .. . ... : ... .. . ...
ROW 22 : ... .. . ... : ... .. . ... : ... .. . ... : ... .. . ... : ... .. . ...
ROW 23 : ... .. . ... : C-2 0D . ... : --- .. . ... : ... .. . ... : ... .. . ...
ROW 24 : ... .. . ... : ... .. . ... : ... .. . ... : ... .. . ... : C-3 00 . ...
ROW 25 : D-1 0D . ... : ... .. . ... : A-2 07 . ... : ... .. . ... : ... .. . ...
ROW 26 : ... .. . ... : ... .. . ... : ... .. . ... : ... .. . ... : ... .. . ...
ROW 27 : ... .. . ... : D-1 0D . ... : --- .. . ... : ... .. . ... : ... .. . ...
ROW 28 : ... .. . ... : ... .. . ... : ... .. . ... : ... .. . ... : ... .. . ...
ROW 29 : D-2 0D . ... : ... .. . ... : D-3 07 . ... : ... .. . ... : ... .. . ...
ROW 2A : ... .. . ... : ... .. . ... : ... .. . ... : ... .. . ... : ... .. . ...
ROW 2B : ... .. . ... : D-2 0D . ... : --- .. . ... : ... .. . ... : ... .. . ...
ROW 2C : ... .. . ... : ... .. . ... : ... .. . ... : ... .. . ... : C-3 00 . ...
ROW 2D : D-1 0D . ... : ... .. . ... : A-2 07 . ... : ... .. . ... : ... .. . ...
ROW 2E : ... .. . ... : ... .. . ... : ... .. . ... : ... .. . ... : C-3 00 . ...
ROW 2F : ... .. . ... : D-1 0D . ... : --- .. . ... : ... .. . ... : ... .. . ...
ROW 30 : ... .. . ... : ... .. . ... : ... .. . ... : ... .. . ... : D-3 00 . ...
ROW 31 : G-1 0D . ... : ... .. . ... : D-3 07 . ... : A-# 1B . ... : ... .. . ...
ROW 32 : ... .. . ... : ... .. . ... : ... .. . ... : ... .. . ... : ... .. . ...
ROW 33 : ... .. . ... : G-1 0D . ... : --- .. . ... : ... .. . ... : ... .. . ...
ROW 34 : ... .. . ... : ... .. . ... : ... .. . ... : ... .. . ... : D-3 00 . ...
ROW 35 : A-1 0D . ... : ... .. . ... : A-2 07 . ... : A-# 1B . ... : ... .. . ...
ROW 36 : ... .. . ... : ... .. . ... : ... .. . ... : ... .. . ... : ... .. . ...
ROW 37 : ... .. . ... : A-1 0D . ... : --- .. . ... : ... .. . ... : ... .. . ...
ROW 38 : ... .. . ... : ... .. . ... : ... .. . ... : ... .. . ... : C-3 00 . ...
ROW 39 : D-1 0D . ... : ... .. . ... : D-3 07 . ... : ... .. . ... : ... .. . ...
ROW 3A : ... .. . ... : ... .. . ... : ... .. . ... : ... .. . ... : ... .. . ...
ROW 3B : ... .. . ... : D-1 0D . ... : --- .. . ... : ... .. . ... : ... .. . ...
ROW 3C : ... .. . ... : ... .. . ... : ... .. . ... : ... .. . ... : D-3 00 . ...
ROW 3D : D-2 0D . ... : ... .. . ... : A-2 07 . ... : A-# 1B . ... : ... .. . ...
ROW 3E : ... .. . ... : ... .. . ... : ... .. . ... : ... .. . ... : ... .. . ...
ROW 3F : ... .. . ... : D-2 0D . ... : --- .. . ... : ... .. . ... : ... .. . ...

PATTERN 04
ROW 00 : ... .. . ... : ... .. . ... : ... .. . ... : ... .. . ... : C-3 00 . ...
ROW 01 : G-2 0D . ... : E-2 0D . ... : C-3 07 . ... : ... .. . ... : ... .. . ...
ROW 02 : ... .. . ... : ... .. . ... : ... .. . ... : ... .. . ... : ... .. . ...
ROW 03 : ... .. . ... : ... .. . ... : --- .. . ... : ... .. . ... : ... .. . ...
ROW 04 : ... .. . ... : ... .. . ... : ... .. . ... : ... .. . ... : ... .. . ...
ROW 05 : D-3 0D . ... : G-2 0D . ... : G-2 07 . ... : ... .. . ... : ... .. . ...
ROW 06 : ... .. . ... : ... .. . ... : ... .. . ... : ... .. . ... : ... .. . ...
ROW 07 : ... .. . ... : ... .. . ... : --- .. . ... : ... .. . ... : ... .. . ...
ROW 08 : ... .. . ... : ... .. . ... : ... .. . ... : ... .. . ... : ... .. . ...
ROW 09 : F-3 0D . ... : A-2 0D . ... : C-3 07 . ... : ... .. . ... : ... .. . ...
ROW 0A : ... .. . ... : ... .. . ... : ... .. . ... : ... .. . ... : ... .. . ...
ROW 0B : ... .. . ... : ... .. . ... : --- .. . ... : ... .. . ... : ... .. . ...
ROW 0C : ... .. . ... : ... .. . ... : ... .. . ... : ... .. . ... : C-3 00 . ...
ROW 0D : G-3 0D . ... : D-3 0D . ... : G-2 07 . ... : ... .. . ... : ... .. . ...
ROW 0E : ... .. . ... : ... .. . ... : ... .. . ... : ... .. . ... : ... .. . ...
ROW 0F : ... .. . ... : ... .. . ... : --- .. . ... : ... .. . ... : ... .. . ...
ROW 10 : ... .. . ... : ... .. . ... : ... .. . ... : ... .. . ... : D-3 00 . ...
ROW 11 : C-1 0D . ... : C-1 0D . ... : C-3 07 . ... : A-# 1B . ... : ... .. . ...
ROW 12 : ... .. . ... : ... .. . ... : ... .. . ... : ... .. . ... : ... .. . ...
ROW 13 : ... .. . ... : ... .. . ... : --- .. . ... : ... .. . ... : ... .. . ...
ROW 14 : ... .. . ... : ... .. . ... : ... .. . ... : ... .. . ... : D-3 00 . ...
ROW 15 : F-2 0D . ... : ... .. . ... : G-2 07 . ... : A-# 1B . ... : ... .. . ...
ROW 16 : ... .. . ... : ... .. . ... : ... .. . ... : ... .. . ... : ... .. . ...
ROW 17 : ... .. . ... : F-2 0D . ... : --- .. . ... : ... .. . ... : ... .. . ...
ROW 18 : ... .. . ... : ... .. . ... : ... .. . ... : ... .. . ... : ... .. . ...
ROW 19 : E-2 0D . ... : ... .. . ... : C-3 07 . ... : ... .. . ... : ... .. . ...
ROW 1A : ... .. . ... : ... .. . ... : ... .. . ... : ... .. . ... : ... .. . ...
ROW 1B : ... .. . ... : E-2 0D . ... : --- .. . ... : ... .. . ... : ... .. . ...
ROW 1C : ... .. . ... : ... .. . ... : ... .. . ... : ... .. . ... : C-3 00 . ...
ROW 1D : C-2 0D . ... : ... .. . ... : G-2 07 . ... : ... .. . ... : ... .. . ...
ROW 1E : ... .. . ... : ... .. . ... : ... .. . ... : ... .. . ... : ... .. . ...
ROW 1F : ... .. . ... : C-2 0D . ... : --- .. . ... : ... .. . ... : ... .. . ...
ROW 20 : ... .. . ... : ... .. . ... : ... .. . ... : ... .. . ... : ... .. . ...
ROW 21 : A#1 0D . ... : ... .. . ... : C-3 07 . ... : ... .. . ... : ... .. . ...
ROW 22 : ... .. . ... : ... .. . ... : ... .. . ... : ... .. . ... : ... .. . ...
ROW 23 : ... .. . ... : A#1 0D . ... : --- .. . ... : ... .. . ... : ... .. . ...
ROW 24 : ... .. . ... : ... .. . ... : ... .. . ... : ... .. . ... : C-3 00 . ...
ROW 25 : C-1 0D . ... : ... .. . ... : G-2 07 . ... : ... .. . ... : ... .. . ...
ROW 26 : ... .. . ... : ... .. . ... : ... .. . ... : ... .. . ... : ... .. . ...
ROW 27 : ... .. . ... : C-1 0D . ... : --- .. . ... : ... .. . ... : ... .. . ...
ROW 28 : ... .. . ... : ... .. . ... : ... .. . ... : ... .. . ... : ... .. . ...
ROW 29 : C-2 0D . ... : ... .. . ... : C-3 07 . ... : ... .. . ... : ... .. . ...
ROW 2A : ... .. . ... : ... .. . ... : ... .. . ... : ... .. . ... : ... .. . ...
ROW 2B : ... .. . ... : C-2 0D . ... : --- .. . ... : ... .. . ... : ... .. . ...
ROW 2C : ... .. . ... : ... .. . ... : ... .. . ... : ... .. . ... : C-3 00 . ...
ROW 2D : C-1 0D . ... : ... .. . ... : G-2 07 . ... : ... .. . ... : ... .. . ...
ROW 2E : ... .. . ... : ... .. . ... : ... .. . ... : ... .. . ... : C-3 00 . ...
ROW 2F : ... .. . ... : C-1 0D . ... : --- .. . ... : ... .. . ... : ... .. . ...
ROW 30 : ... .. . ... : ... .. . ... : ... .. . ... : ... .. . ... : D-3 00 . ...
ROW 31 : F-2 0D . ... : ... .. . ... : C-3 07 . ... : A-# 1B . ... : ... .. . ...
ROW 32 : ... .. . ... : ... .. . ... : ... .. . ... : ... .. . ... : ... .. . ...
ROW 33 : ... .. . ... : F-2 0D . ... : --- .. . ... : ... .. . ... : ... .. . ...
ROW 34 : ... .. . ... : ... .. . ... : ... .. . ... : ... .. . ... : D-3 00 . ...
ROW 35 : E-2 0D . ... : ... .. . ... : G-2 07 . ... : A-# 1B . ... : ... .. . ...
ROW 36 : ... .. . ... : ... .. . ... : ... .. . ... : ... .. . ... : ... .. . ...
ROW 37 : ... .. . ... : E-2 0D . ... : --- .. . ... : ... .. . ... : ... .. . ...
ROW 38 : ... .. . ... : ... .. . ... : ... .. . ... : ... .. . ... : C-3 00 . ...
ROW 39 : C-1 0D . ... : ... .. . ... : C-3 07 . ... : ... .. . ... : ... .. . ...
ROW 3A : ... .. . ... : ... .. . ... : ... .. . ... : ... .. . ... : ... .. . ...
ROW 3B : ... .. . ... : C-1 0D . ... : --- .. . ... : ... .. . ... : ... .. . ...
ROW 3C : ... .. . ... : ... .. . ... : ... .. . ... : ... .. . ... : D-3 00 . ...
ROW 3D : C-2 0D . ... : ... .. . ... : G-2 07 . ... : A-# 1B . ... : ... .. . ...
ROW 3E : ... .. . ... : ... .. . ... : ... .. . ... : ... .. . ... : ... .. . ...
ROW 3F : ... .. . ... : C-2 0D . ... : --- .. . ... : ... .. . ... : ... .. . ...

PATTERN 05
ROW 00 : ... .. . ... : ... .. . ... : ... .. . ... : ... .. . ... : C-3 00 . ...
ROW 01 : G-2 0D . ... : E-2 0D . ... : C-3 07 . ... : ... .. . ... : ... .. . ...
ROW 02 : ... .. . ... : ... .. . ... : ... .. . ... : ... .. . ... : ... .. . ...
ROW 03 : ... .. . ... : ... .. . ... : --- .. . ... : ... .. . ... : ... .. . ...
ROW 04 : ... .. . ... : ... .. . ... : ... .. . ... : ... .. . ... : ... .. . ...
ROW 05 : D-3 0D . ... : G-2 0D . ... : G-2 07 . ... : ... .. . ... : ... .. . ...
ROW 06 : ... .. . ... : ... .. . ... : ... .. . ... : ... .. . ... : ... .. . ...
ROW 07 : ... .. . ... : ... .. . ... : --- .. . ... : ... .. . ... : ... .. . ...
ROW 08 : ... .. . ... : ... .. . ... : ... .. . ... : ... .. . ... : ... .. . ...
ROW 09 : F-3 0D . ... : A-2 0D . ... : C-3 07 . ... : ... .. . ... : ... .. . ...
ROW 0A : ... .. . ... : ... .. . ... : ... .. . ... : ... .. . ... : ... .. . ...
ROW 0B : ... .. . ... : ... .. . ... : --- .. . ... : ... .. . ... : ... .. . ...
ROW 0C : ... .. . ... : ... .. . ... : ... .. . ... : ... .. . ... : C-3 00 . ...
ROW 0D : G-3 0D . ... : D-3 0D . ... : G-2 07 . ... : ... .. . ... : ... .. . ...
ROW 0E : ... .. . ... : ... .. . ... : ... .. . ... : ... .. . ... : ... .. . ...
ROW 0F : ... .. . ... : ... .. . ... : --- .. . ... : ... .. . ... : ... .. . ...
ROW 10 : ... .. . ... : ... .. . ... : ... .. . ... : ... .. . ... : D-3 00 . ...
ROW 11 : C-1 0D . ... : C-1 0D . ... : C-3 07 . ... : A-# 1B . ... : ... .. . ...
ROW 12 : ... .. . ... : ... .. . ... : ... .. . ... : ... .. . ... : ... .. . ...
ROW 13 : ... .. . ... : ... .. . ... : --- .. . ... : ... .. . ... : ... .. . ...
ROW 14 : ... .. . ... : ... .. . ... : ... .. . ... : ... .. . ... : D-3 00 . ...
ROW 15 : F-2 0D . ... : ... .. . ... : G-2 07 . ... : A-# 1B . ... : ... .. . ...
ROW 16 : ... .. . ... : ... .. . ... : ... .. . ... : ... .. . ... : ... .. . ...
ROW 17 : ... .. . ... : F-2 0D . ... : --- .. . ... : ... .. . ... : ... .. . ...
ROW 18 : ... .. . ... : ... .. . ... : ... .. . ... : ... .. . ... : ... .. . ...
ROW 19 : E-2 0D . ... : ... .. . ... : C-3 07 . ... : ... .. . ... : ... .. . ...
ROW 1A : ... .. . ... : ... .. . ... : ... .. . ... : ... .. . ... : ... .. . ...
ROW 1B : ... .. . ... : E-2 0D . ... : --- .. . ... : ... .. . ... : ... .. . ...
ROW 1C : ... .. . ... : ... .. . ... : ... .. . ... : ... .. . ... : C-3 00 . ...
ROW 1D : C-2 0D . ... : ... .. . ... : G-2 07 . ... : ... .. . ... : ... .. . ...
ROW 1E : ... .. . ... : ... .. . ... : ... .. . ... : ... .. . ... : ... .. . ...
ROW 1F : ... .. . ... : C-2 0D . ... : --- .. . ... : ... .. . ... : ... .. . ...
ROW 20 : ... .. . ... : ... .. . ... : ... .. . ... : ... .. . ... : ... .. . ...
ROW 21 : A#1 0D . ... : ... .. . ... : C-3 07 . ... : ... .. . ... : ... .. . ...
ROW 22 : ... .. . ... : ... .. . ... : ... .. . ... : ... .. . ... : ... .. . ...
ROW 23 : ... .. . ... : A#1 0D . ... : --- .. . ... : ... .. . ... : ... .. . ...
ROW 24 : ... .. . ... : ... .. . ... : ... .. . ... : ... .. . ... : C-3 00 . ...
ROW 25 : C-1 0D . ... : ... .. . ... : G-2 07 . ... : ... .. . ... : ... .. . ...
ROW 26 : ... .. . ... : ... .. . ... : ... .. . ... : ... .. . ... : ... .. . ...
ROW 27 : ... .. . ... : C-1 0D . ... : --- .. . ... : ... .. . ... : ... .. . ...
ROW 28 : ... .. . ... : ... .. . ... : ... .. . ... : ... .. . ... : ... .. . ...
ROW 29 : C-2 0D . ... : ... .. . ... : C-3 07 . ... : ... .. . ... : ... .. . ...
ROW 2A : ... .. . ... : ... .. . ... : ... .. . ... : ... .. . ... : ... .. . ...
ROW 2B : ... .. . ... : C-2 0D . ... : --- .. . ... : ... .. . ... : ... .. . ...
ROW 2C : ... .. . ... : ... .. . ... : ... .. . ... : ... .. . ... : C-3 00 . ...
ROW 2D : C-1 0D . ... : ... .. . ... : G-2 07 . ... : ... .. . ... : ... .. . ...
ROW 2E : ... .. . ... : ... .. . ... : ... .. . ... : ... .. . ... : C-3 00 . ...
ROW 2F : ... .. . ... : C-1 0D . ... : --- .. . ... : ... .. . ... : ... .. . ...
ROW 30 : ... .. . ... : ... .. . ... : ... .. . ... : ... .. . ... : D-3 00 . ...
ROW 31 : F-2 0D . ... : ... .. . ... : C-3 07 . ... : A-# 1B . ... : ... .. . ...
ROW 32 : ... .. . ... : ... .. . ... : ... .. . ... : ... .. . ... : ... .. . ...
ROW 33 : ... .. . ... : F-2 0D . ... : --- .. . ... : ... .. . ... : ... .. . ...
ROW 34 : ... .. . ... : ... .. . ... : ... .. . ... : ... .. . ... : D-3 00 . ...
ROW 35 : E-2 0D . ... : ... .. . ... : G-2 07 . ... : A-# 1B . ... : ... .. . ...
ROW 36 : ... .. . ... : ... .. . ... : ... .. . ... : ... .. . ... : ... .. . ...
ROW 37 : ... .. . ... : E-2 0D . ... : --- .. . ... : ... .. . ... : ... .. . ...
ROW 38 : ... .. . ... : ... .. . ... : ... .. . ... : ... .. . ... : C-3 00 . ...
ROW 39 : C-1 0D . ... : ... .. . ... : C-3 07 . ... : ... .. . ... : ... .. . ...
ROW 3A : ... .. . ... : ... .. . ... : ... .. . ... : ... .. . ... : ... .. . ...
ROW 3B : ... .. . ... : C-1 0D . ... : --- .. . ... : ... .. . ... : ... .. . ...
ROW 3C : ... .. . ... : ... .. . ... : ... .. . ... : ... .. . ... : D-3 00 . ...
ROW 3D : C-2 0D . ... : ... .. . ... : G-2 07 . ... : A-# 1B . ... : ... .. . ...
ROW 3E : ... .. . ... : ... .. . ... : ... .. . ... : ... .. . ... : ... .. . ...
ROW 3F : ... .. . ... : C-2 0D . ... : --- .. . ... : ... .. . ... : ... .. . ...

PATTERN 06
ROW 00 : ... .. . ... : ... .. . ... : ... .. . ... : ... .. . ... : C-3 00 . ...
ROW 01 : G-2 0D . ... : E-2 0D . ... : C-3 07 . ... : ... .. . ... : ... .. . ...
ROW 02 : ... .. . ... : ... .. . ... : ... .. . ... : ... .. . ... : ... .. . ...
ROW 03 : ... .. . ... : ... .. . ... : --- .. . ... : ... .. . ... : ... .. . ...
ROW 04 : ... .. . ... : ... .. . ... : ... .. . ... : ... .. . ... : ... .. . ...
ROW 05 : D-3 0D . ... : G-2 0D . ... : G-2 07 . ... : ... .. . ... : ... .. . ...
ROW 06 : ... .. . ... : ... .. . ... : ... .. . ... : ... .. . ... : ... .. . ...
ROW 07 : ... .. . ... : ... .. . ... : --- .. . ... : ... .. . ... : ... .. . ...
ROW 08 : ... .. . ... : ... .. . ... : ... .. . ... : ... .. . ... : ... .. . ...
ROW 09 : F-3 0D . ... : A-2 0D . ... : C-3 07 . ... : ... .. . ... : ... .. . ...
ROW 0A : ... .. . ... : ... .. . ... : ... .. . ... : ... .. . ... : ... .. . ...
ROW 0B : ... .. . ... : ... .. . ... : --- .. . ... : ... .. . ... : ... .. . ...
ROW 0C : ... .. . ... : ... .. . ... : ... .. . ... : ... .. . ... : C-3 00 . ...
ROW 0D : G-3 0D . ... : D-3 0D . ... : G-2 07 . ... : ... .. . ... : ... .. . ...
ROW 0E : ... .. . ... : ... .. . ... : ... .. . ... : ... .. . ... : ... .. . ...
ROW 0F : ... .. . ... : ... .. . ... : --- .. . ... : ... .. . ... : ... .. . ...
ROW 10 : ... .. . ... : ... .. . ... : ... .. . ... : ... .. . ... : D-3 00 . ...
ROW 11 : C-1 0D . ... : C-1 0D . ... : C-3 07 . ... : A-# 1B . ... : ... .. . ...
ROW 12 : ... .. . ... : ... .. . ... : ... .. . ... : ... .. . ... : ... .. . ...
ROW 13 : ... .. . ... : ... .. . ... : --- .. . ... : ... .. . ... : ... .. . ...
ROW 14 : ... .. . ... : ... .. . ... : ... .. . ... : ... .. . ... : D-3 00 . ...
ROW 15 : F-2 0D . ... : ... .. . ... : G-2 07 . ... : A-# 1B . ... : ... .. . ...
ROW 16 : ... .. . ... : ... .. . ... : ... .. . ... : ... .. . ... : ... .. . ...
ROW 17 : ... .. . ... : F-2 0D . ... : --- .. . ... : ... .. . ... : ... .. . ...
ROW 18 : ... .. . ... : ... .. . ... : ... .. . ... : ... .. . ... : ... .. . ...
ROW 19 : E-2 0D . ... : ... .. . ... : C-3 07 . ... : ... .. . ... : ... .. . ...
ROW 1A : ... .. . ... : ... .. . ... : ... .. . ... : ... .. . ... : ... .. . ...
ROW 1B : ... .. . ... : E-2 0D . ... : --- .. . ... : ... .. . ... : ... .. . ...
ROW 1C : ... .. . ... : ... .. . ... : ... .. . ... : ... .. . ... : C-3 00 . ...
ROW 1D : C-2 0D . ... : ... .. . ... : G-2 07 . ... : ... .. . ... : ... .. . ...
ROW 1E : ... .. . ... : ... .. . ... : ... .. . ... : ... .. . ... : ... .. . ...
ROW 1F : ... .. . ... : C-2 0D . ... : --- .. . ... : ... .. . ... : ... .. . ...
ROW 20 : ... .. . ... : ... .. . ... : ... .. . ... : ... .. . ... : ... .. . ...
ROW 21 : A#1 0D . ... : ... .. . ... : C-3 07 . ... : ... .. . ... : ... .. . ...
ROW 22 : ... .. . ... : ... .. . ... : ... .. . ... : ... .. . ... : ... .. . ...
ROW 23 : ... .. . ... : A#1 0D . ... : --- .. . ... : ... .. . ... : ... .. . ...
ROW 24 : ... .. . ... : ... .. . ... : ... .. . ... : ... .. . ... : C-3 00 . ...
ROW 25 : C-1 0D . ... : ... .. . ... : G-2 07 . ... : ... .. . ... : ... .. . ...
ROW 26 : ... .. . ... : ... .. . ... : ... .. . ... : ... .. . ... : ... .. . ...
ROW 27 : ... .. . ... : C-1 0D . ... : --- .. . ... : ... .. . ... : ... .. . ...
ROW 28 : ... .. . ... : ... .. . ... : ... .. . ... : ... .. . ... : ... .. . ...
ROW 29 : C-2 0D . ... : ... .. . ... : C-3 07 . ... : ... .. . ... : ... .. . ...
ROW 2A : ... .. . ... : ... .. . ... : ... .. . ... : ... .. . ... : ... .. . ...
ROW 2B : ... .. . ... : C-2 0D . ... : --- .. . ... : ... .. . ... : ... .. . ...
ROW 2C : ... .. . ... : ... .. . ... : ... .. . ... : ... .. . ... : C-3 00 . ...
ROW 2D : C-1 0D . ... : ... .. . ... : G-2 07 . ... : ... .. . ... : ... .. . ...
ROW 2E : ... .. . ... : ... .. . ... : ... .. . ... : ... .. . ... : C-3 00 . ...
ROW 2F : ... .. . ... : C-1 0D . ... : --- .. . ... : ... .. . ... : ... .. . ...
ROW 30 : ... .. . ... : ... .. . ... : ... .. . ... : ... .. . ... : D-3 00 . ...
ROW 31 : F-2 0D . ... : ... .. . ... : C-3 07 . ... : A-# 1B . ... : ... .. . ...
ROW 32 : ... .. . ... : ... .. . ... : ... .. . ... : ... .. . ... : ... .. . ...
ROW 33 : ... .. . ... : F-2 0D . ... : --- .. . ... : ... .. . ... : ... .. . ...
ROW 34 : ... .. . ... : ... .. . ... : ... .. . ... : ... .. . ... : D-3 00 . ...
ROW 35 : E-2 0D . ... : ... .. . ... : G-2 07 . ... : A-# 1B . ... : ... .. . ...
ROW 36 : ... .. . ... : ... .. . ... : ... .. . ... : ... .. . ... : ... .. . ...
ROW 37 : ... .. . ... : E-2 0D . ... : --- .. . ... : ... .. . ... : ... .. . ...
ROW 38 : ... .. . ... : ... .. . ... : ... .. . ... : ... .. . ... : C-3 00 . ...
ROW 39 : C-1 0D . ... : ... .. . ... : C-3 07 . ... : ... .. . ... : ... .. . ...
ROW 3A : ... .. . ... : ... .. . ... : ... .. . ... : ... .. . ... : ... .. . ...
ROW 3B : ... .. . ... : C-1 0D . ... : --- .. . ... : ... .. . ... : ... .. . ...
ROW 3C : ... .. . ... : ... .. . ... : ... .. . ... : ... .. . ... : D-3 00 . ...
ROW 3D : C-2 0D . ... : ... .. . ... : G-2 07 . ... : A-# 1B . ... : ... .. . ...
ROW 3E : ... .. . ... : ... .. . ... : ... .. . ... : ... .. . ... : ... .. . ...
ROW 3F : ... .. . ... : C-2 0D . ... : --- .. . ... : ... .. . ... : ... .. . ...

PATTERN 07
ROW 00 : ... .. . ... : ... .. . ... : ... .. . ... : ... .. . ... : C-3 00 . ...
ROW 01 : G-2 0D . ... : E-2 0D . ... : C-3 07 . ... : ... .. . ... : ... .. . ...
ROW 02 : ... .. . ... : ... .. . ... : ... .. . ... : ... .. . ... : ... .. . ...
ROW 03 : ... .. . ... : ... .. . ... : --- .. . ... : ... .. . ... : ... .. . ...
ROW 04 : ... .. . ... : ... .. . ... : ... .. . ... : ... .. . ... : ... .. . ...
ROW 05 : D-3 0D . ... : G-2 0D . ... : G-2 07 . ... : ... .. . ... : ... .. . ...
ROW 06 : ... .. . ... : ... .. . ... : ... .. . ... : ... .. . ... : ... .. . ...
ROW 07 : ... .. . ... : ... .. . ... : --- .. . ... : ... .. . ... : ... .. . ...
ROW 08 : ... .. . ... : ... .. . ... : ... .. . ... : ... .. . ... : ... .. . ...
ROW 09 : F-3 0D . ... : A-2 0D . ... : C-3 07 . ... : ... .. . ... : ... .. . ...
ROW 0A : ... .. . ... : ... .. . ... : ... .. . ... : ... .. . ... : ... .. . ...
ROW 0B : ... .. . ... : ... .. . ... : --- .. . ... : ... .. . ... : ... .. . ...
ROW 0C : ... .. . ... : ... .. . ... : ... .. . ... : ... .. . ... : C-3 00 . ...
ROW 0D : G-3 0D . ... : D-3 0D . ... : G-2 07 . ... : ... .. . ... : ... .. . ...
ROW 0E : ... .. . ... : ... .. . ... : ... .. . ... : ... .. . ... : ... .. . ...
ROW 0F : ... .. . ... : ... .. . ... : --- .. . ... : ... .. . ... : ... .. . ...
ROW 10 : ... .. . ... : ... .. . ... : ... .. . ... : ... .. . ... : D-3 00 . ...
ROW 11 : C-1 0D . ... : C-1 0D . ... : C-3 07 . ... : A-# 1B . ... : ... .. . ...
ROW 12 : ... .. . ... : ... .. . ... : ... .. . ... : ... .. . ... : ... .. . ...
ROW 13 : ... .. . ... : ... .. . ... : --- .. . ... : ... .. . ... : ... .. . ...
ROW 14 : ... .. . ... : ... .. . ... : ... .. . ... : ... .. . ... : D-3 00 . ...
ROW 15 : F-2 0D . ... : ... .. . ... : G-2 07 . ... : A-# 1B . ... : ... .. . ...
ROW 16 : ... .. . ... : ... .. . ... : ... .. . ... : ... .. . ... : ... .. . ...
ROW 17 : ... .. . ... : F-2 0D . ... : --- .. . ... : ... .. . ... : ... .. . ...
ROW 18 : ... .. . ... : ... .. . ... : ... .. . ... : ... .. . ... : ... .. . ...
ROW 19 : E-2 0D . ... : ... .. . ... : C-3 07 . ... : ... .. . ... : ... .. . ...
ROW 1A : ... .. . ... : ... .. . ... : ... .. . ... : ... .. . ... : ... .. . ...
ROW 1B : ... .. . ... : E-2 0D . ... : --- .. . ... : ... .. . ... : ... .. . ...
ROW 1C : ... .. . ... : ... .. . ... : ... .. . ... : ... .. . ... : C-3 00 . ...
ROW 1D : C-2 0D . ... : ... .. . ... : G-2 07 . ... : ... .. . ... : ... .. . ...
ROW 1E : ... .. . ... : ... .. . ... : ... .. . ... : ... .. . ... : ... .. . ...
ROW 1F : ... .. . ... : C-2 0D . ... : --- .. . ... : ... .. . ... : ... .. . ...
ROW 20 : ... .. . ... : ... .. . ... : ... .. . ... : ... .. . ... : ... .. . ...
ROW 21 : A#1 0D . ... : ... .. . ... : C-3 07 . ... : ... .. . ... : ... .. . ...
ROW 22 : ... .. . ... : ... .. . ... : ... .. . ... : ... .. . ... : ... .. . ...
ROW 23 : ... .. . ... : A#1 0D . ... : --- .. . ... : ... .. . ... : ... .. . ...
ROW 24 : ... .. . ... : ... .. . ... : ... .. . ... : ... .. . ... : C-3 00 . ...
ROW 25 : C-1 0D . ... : ... .. . ... : G-2 07 . ... : ... .. . ... : ... .. . ...
ROW 26 : ... .. . ... : ... .. . ... : ... .. . ... : ... .. . ... : ... .. . ...
ROW 27 : ... .. . ... : C-1 0D . ... : --- .. . ... : ... .. . ... : ... .. . ...
ROW 28 : ... .. . ... : ... .. . ... : ... .. . ... : ... .. . ... : ... .. . ...
ROW 29 : C-2 0D . ... : ... .. . ... : C-3 07 . ... : ... .. . ... : ... .. . ...
ROW 2A : ... .. . ... : ... .. . ... : ... .. . ... : ... .. . ... : ... .. . ...
ROW 2B : ... .. . ... : C-2 0D . ... : --- .. . ... : ... .. . ... : ... .. . ...
ROW 2C : ... .. . ... : ... .. . ... : ... .. . ... : ... .. . ... : C-3 00 . ...
ROW 2D : C-1 0D . ... : ... .. . ... : G-2 07 . ... : ... .. . ... : ... .. . ...
ROW 2E : ... .. . ... : ... .. . ... : ... .. . ... : ... .. . ... : C-3 00 . ...
ROW 2F : ... .. . ... : C-1 0D . ... : --- .. . ... : ... .. . ... : ... .. . ...
ROW 30 : ... .. . ... : ... .. . ... : ... .. . ... : ... .. . ... : D-3 00 . ...
ROW 31 : F-2 0D . ... : ... .. . ... : C-3 07 . ... : A-# 1B . ... : ... .. . ...
ROW 32 : ... .. . ... : ... .. . ... : ... .. . ... : ... .. . ... : ... .. . ...
ROW 33 : ... .. . ... : F-2 0D . ... : --- .. . ... : ... .. . ... : ... .. . ...
ROW 34 : ... .. . ... : ... .. . ... : ... .. . ... : ... .. . ... : D-3 00 . ...
ROW 35 : E-2 0D . ... : ... .. . ... : G-2 07 . ... : A-# 1B . ... : ... .. . ...
ROW 36 : ... .. . ... : ... .. . ... : ... .. . ... : ... .. . ... : ... .. . ...
ROW 37 : ... .. . ... : E-2 0D . ... : --- .. . ... : ... .. . ... : ... .. . ...
ROW 38 : ... .. . ... : ... .. . ... : ... .. . ... : ... .. . ... : C-3 00 . ...
ROW 39 : C-1 0D . ... : ... .. . ... : C-3 07 . ... : ... .. . ... : ... .. . ...
ROW 3A : ... .. . ... : ... .. . ... : ... .. . ... : ... .. . ... : ... .. . ...
ROW 3B : ... .. . ... : C-1 0D . ... : --- .. . ... : ... .. . ... : ... .. . ...
ROW 3C : ... .. . ... : ... .. . ... : ... .. . ... : ... .. . ... : D-3 00 . ...
ROW 3D : C-2 0D . ... : ... .. . ... : G-2 07 . ... : A-# 1B . ... : ... .. . ...
ROW 3E : ... .. . ... : ... .. . ... : ... .. . ... : ... .. . ... : ... .. . ...
ROW 3F : ... .. . ... : C-2 0D . ... : --- .. . ... : ... .. . ... : ... .. . ...

TRACK  64   6 150 "Stage 6"
COLUMNS : 1 1 1 1 1

ORDER 00 : 00 00 00 00 00
ORDER 01 : 01 01 01 01 01
ORDER 02 : 02 02 02 02 02
ORDER 03 : 03 03 03 03 03
ORDER 04 : 04 04 04 04 04
ORDER 05 : 05 05 05 05 05
ORDER 06 : 06 06 06 06 06
ORDER 07 : 07 07 07 07 07
ORDER 08 : 08 08 08 08 08
ORDER 09 : 09 09 09 09 09
ORDER 0A : 0A 0A 0A 0A 0A
ORDER 0B : 0B 0B 0B 0B 0B

PATTERN 00
ROW 00 : ... .. . ... : ... .. . ... : ... .. . ... : ... .. . ... : D-3 00 . ...
ROW 01 : F-1 0E . ... : ... .. . ... : F-2 15 . ... : A-# 1B . ... : ... .. . ...
ROW 02 : ... .. . ... : ... .. . ... : ... .. . ... : ... .. . ... : ... .. . ...
ROW 03 : ... .. . ... : F-1 0E . ... : ... .. . ... : ... .. . ... : ... .. . ...
ROW 04 : ... .. . ... : ... .. . ... : ... .. . ... : ... .. . ... : ... .. . ...
ROW 05 : B-1 0E . ... : ... .. . ... : ... .. . ... : ... .. . ... : ... .. . ...
ROW 06 : ... .. . ... : ... .. . ... : ... .. . ... : ... .. . ... : ... .. . ...
ROW 07 : ... .. . ... : B-1 0E . ... : ... .. . ... : ... .. . ... : ... .. . ...
ROW 08 : ... .. . ... : ... .. . ... : ... .. . ... : ... .. . ... : D-3 00 . ...
ROW 09 : A-1 0E . ... : ... .. . ... : ... .. . ... : A-# 1B . ... : ... .. . ...
ROW 0A : ... .. . ... : ... .. . ... : ... .. . ... : ... .. . ... : ... .. . ...
ROW 0B : ... .. . ... : A-1 0E . ... : ... .. . ... : ... .. . ... : ... .. . ...
ROW 0C : ... .. . ... : ... .. . ... : ... .. . ... : ... .. . ... : ... .. . ...
ROW 0D : F-2 0E . ... : ... .. . ... : ... .. . ... : ... .. . ... : ... .. . ...
ROW 0E : ... .. . ... : ... .. . ... : ... .. . ... : ... .. . ... : ... .. . ...
ROW 0F : ... .. . ... : F-2 0E . ... : ... .. . ... : ... .. . ... : ... .. . ...
ROW 10 : ... .. . ... : ... .. . ... : ... .. . ... : ... .. . ... : D-3 00 . ...
ROW 11 : B-2 0E . ... : ... .. . ... : ... .. . ... : A-# 1B . ... : ... .. . ...
ROW 12 : ... .. . ... : ... .. . ... : ... .. . ... : ... .. . ... : ... .. . ...
ROW 13 : ... .. . ... : B-2 0E . ... : ... .. . ... : ... .. . ... : ... .. . ...
ROW 14 : ... .. . ... : ... .. . ... : ... .. . ... : ... .. . ... : E-3 00 . W09
ROW 15 : A-2 0E . ... : ... .. . ... : F-1 15 . ... : ... .. . ... : ... .. . ...
ROW 16 : ... .. . ... : ... .. . ... : ... .. . ... : ... .. . ... : ... .. . ...
ROW 17 : ... .. . ... : A-2 0E . ... : ... .. . ... : ... .. . ... : ... .. . ...
ROW 18 : ... .. . ... : ... .. . ... : ... .. . ... : ... .. . ... : ... .. . ...
ROW 19 : F-3 0E . ... : ... .. . ... : --- .. . ... : ... .. . ... : ... .. . ...
ROW 1A : ... .. . ... : ... .. . ... : ... .. . ... : ... .. . ... : ... .. . ...
ROW 1B : ... .. . ... : F-3 0E . ... : ... .. . ... : ... .. . ... : ... .. . ...
ROW 1C : ... .. . ... : ... .. . ... : ... .. . ... : ... .. . ... : D-3 00 . ...
ROW 1D : B-3 0E . ... : ... .. . ... : F-2 15 . ... : A-# 1B . ... : ... .. . ...
ROW 1E : ... .. . ... : ... .. . ... : ... .. . ... : ... .. . ... : ... .. . ...
ROW 1F : ... .. . ... : B-3 0E . ... : ... .. . ... : ... .. . ... : ... .. . ...
ROW 20 : ... .. . ... : ... .. . ... : ... .. . ... : ... .. . ... : E-3 00 . W09
ROW 21 : A-3 0E . ... : ... .. . ... : F-1 15 . ... : ... .. . ... : ... .. . ...
ROW 22 : ... .. . ... : ... .. . ... : ... .. . ... : ... .. . ... : ... .. . ...
ROW 23 : ... .. . ... : A-3 0E . ... : ... .. . ... : ... .. . ... : ... .. . ...
ROW 24 : ... .. . ... : ... .. . ... : ... .. . ... : ... .. . ... : ... .. . ...
ROW 25 : F-4 0E . ... : ... .. . ... : ... .. . ... : ... .. . ... : ... .. . ...
ROW 26 : ... .. . ... : ... .. . ... : ... .. . ... : ... .. . ... : ... .. . ...
ROW 27 : ... .. . ... : F-4 0E . ... : ... .. . ... : ... .. . ... : ... .. . ...
ROW 28 : ... .. . ... : ... .. . ... : ... .. . ... : ... .. . ... : D-3 00 . ...
ROW 29 : B-4 0E . ... : ... .. . ... : F-2 15 . ... : A-# 1B . ... : ... .. . ...
ROW 2A : ... .. . ... : ... .. . ... : ... .. . ... : ... .. . ... : ... .. . ...
ROW 2B : ... .. . ... : B-4 0E . ... : ... .. . ... : ... .. . ... : ... .. . ...
ROW 2C : ... .. . ... : ... .. . ... : ... .. . ... : ... .. . ... : ... .. . ...
ROW 2D : A-4 0E . ... : ... .. . ... : ... .. . ... : ... .. . ... : ... .. . ...
ROW 2E : ... .. . ... : ... .. . ... : ... .. . ... : ... .. . ... : ... .. . ...
ROW 2F : ... .. . ... : A-4 0E . ... : ... .. . ... : ... .. . ... : ... .. . ...
ROW 30 : ... .. . ... : ... .. . ... : ... .. . ... : ... .. . ... : D-3 00 . ...
ROW 31 : F-5 0E . ... : ... .. . ... : ... .. . ... : A-# 1B . ... : ... .. . ...
ROW 32 : ... .. . ... : ... .. . ... : ... .. . ... : ... .. . ... : ... .. . ...
ROW 33 : ... .. . ... : F-5 0E . ... : ... .. . ... : ... .. . ... : ... .. . ...
ROW 34 : ... .. . ... : ... .. . ... : ... .. . ... : ... .. . ... : E-3 00 . W09
ROW 35 : B-5 0E . ... : ... .. . ... : F-1 15 . ... : ... .. . ... : ... .. . ...
ROW 36 : ... .. . ... : ... .. . ... : ... .. . ... : ... .. . ... : ... .. . ...
ROW 37 : ... .. . ... : B-5 0E . ... : ... .. . ... : ... .. . ... : ... .. . ...
ROW 38 : ... .. . ... : ... .. . ... : ... .. . ... : ... .. . ... : ... .. . ...
ROW 39 : A-5 0E . ... : ... .. . ... : --- .. . ... : ... .. . ... : ... .. . ...
ROW 3A : ... .. . ... : ... .. . ... : ... .. . ... : ... .. . ... : ... .. . ...
ROW 3B : ... .. . ... : A-5 0E . ... : ... .. . ... : ... .. . ... : ... .. . ...
ROW 3C : ... .. . ... : ... .. . ... : ... .. . ... : ... .. . ... : D-3 00 . ...
ROW 3D : F-6 0E . ... : ... .. . ... : F-2 15 . ... : A-# 1B . ... : ... .. . ...
ROW 3E : ... .. . ... : ... .. . ... : ... .. . ... : ... .. . ... : E-3 00 . W09
ROW 3F : ... .. . ... : F-6 0E . ... : F-1 15 . ... : ... .. . ... : ... .. . ...

PATTERN 01
ROW 00 : ... .. . ... : ... .. . ... : ... .. . ... : ... .. . ... : D-3 00 . ...
ROW 01 : F-1 0E . ... : ... .. . ... : F-2 15 . ... : A-# 1B . ... : ... .. . ...
ROW 02 : ... .. . ... : ... .. . ... : ... .. . ... : ... .. . ... : ... .. . ...
ROW 03 : ... .. . ... : F-1 0E . ... : ... .. . ... : ... .. . ... : ... .. . ...
ROW 04 : ... .. . ... : ... .. . ... : ... .. . ... : ... .. . ... : ... .. . ...
ROW 05 : B-1 0E . ... : ... .. . ... : ... .. . ... : ... .. . ... : ... .. . ...
ROW 06 : ... .. . ... : ... .. . ... : ... .. . ... : ... .. . ... : ... .. . ...
ROW 07 : ... .. . ... : B-1 0E . ... : ... .. . ... : ... .. . ... : ... .. . ...
ROW 08 : ... .. . ... : ... .. . ... : ... .. . ... : ... .. . ... : D-3 00 . ...
ROW 09 : A-1 0E . ... : ... .. . ... : ... .. . ... : A-# 1B . ... : ... .. . ...
ROW 0A : ... .. . ... : ... .. . ... : ... .. . ... : ... .. . ... : ... .. . ...
ROW 0B : ... .. . ... : A-1 0E . ... : ... .. . ... : ... .. . ... : ... .. . ...
ROW 0C : ... .. . ... : ... .. . ... : ... .. . ... : ... .. . ... : ... .. . ...
ROW 0D : F-2 0E . ... : ... .. . ... : ... .. . ... : ... .. . ... : ... .. . ...
ROW 0E : ... .. . ... : ... .. . ... : ... .. . ... : ... .. . ... : ... .. . ...
ROW 0F : ... .. . ... : F-2 0E . ... : ... .. . ... : ... .. . ... : ... .. . ...
ROW 10 : ... .. . ... : ... .. . ... : ... .. . ... : ... .. . ... : D-3 00 . ...
ROW 11 : B-2 0E . ... : ... .. . ... : ... .. . ... : A-# 1B . ... : ... .. . ...
ROW 12 : ... .. . ... : ... .. . ... : ... .. . ... : ... .. . ... : ... .. . ...
ROW 13 : ... .. . ... : B-2 0E . ... : ... .. . ... : ... .. . ... : ... .. . ...
ROW 14 : ... .. . ... : ... .. . ... : ... .. . ... : ... .. . ... : E-3 00 . W09
ROW 15 : A-2 0E . ... : ... .. . ... : F-1 15 . ... : ... .. . ... : ... .. . ...
ROW 16 : ... .. . ... : ... .. . ... : ... .. . ... : ... .. . ... : ... .. . ...
ROW 17 : ... .. . ... : A-2 0E . ... : ... .. . ... : ... .. . ... : ... .. . ...
ROW 18 : ... .. . ... : ... .. . ... : ... .. . ... : ... .. . ... : ... .. . ...
ROW 19 : F-3 0E . ... : ... .. . ... : --- .. . ... : ... .. . ... : ... .. . ...
ROW 1A : ... .. . ... : ... .. . ... : ... .. . ... : ... .. . ... : ... .. . ...
ROW 1B : ... .. . ... : F-3 0E . ... : ... .. . ... : ... .. . ... : ... .. . ...
ROW 1C : ... .. . ... : ... .. . ... : ... .. . ... : ... .. . ... : D-3 00 . ...
ROW 1D : B-3 0E . ... : ... .. . ... : F-2 15 . ... : A-# 1B . ... : ... .. . ...
ROW 1E : ... .. . ... : ... .. . ... : ... .. . ... : ... .. . ... : ... .. . ...
ROW 1F : ... .. . ... : B-3 0E . ... : ... .. . ... : ... .. . ... : ... .. . ...
ROW 20 : ... .. . ... : ... .. . ... : ... .. . ... : ... .. . ... : E-3 00 . W09
ROW 21 : A-3 0E . ... : ... .. . ... : F-1 15 . ... : ... .. . ... : ... .. . ...
ROW 22 : ... .. . ... : ... .. . ... : ... .. . ... : ... .. . ... : ... .. . ...
ROW 23 : ... .. . ... : A-3 0E . ... : ... .. . ... : ... .. . ... : ... .. . ...
ROW 24 : ... .. . ... : ... .. . ... : ... .. . ... : ... .. . ... : ... .. . ...
ROW 25 : F-4 0E . ... : ... .. . ... : ... .. . ... : ... .. . ... : ... .. . ...
ROW 26 : ... .. . ... : ... .. . ... : ... .. . ... : ... .. . ... : ... .. . ...
ROW 27 : ... .. . ... : F-4 0E . ... : ... .. . ... : ... .. . ... : ... .. . ...
ROW 28 : ... .. . ... : ... .. . ... : ... .. . ... : ... .. . ... : D-3 00 . ...
ROW 29 : B-4 0E . ... : ... .. . ... : F-2 15 . ... : A-# 1B . ... : ... .. . ...
ROW 2A : ... .. . ... : ... .. . ... : ... .. . ... : ... .. . ... : ... .. . ...
ROW 2B : ... .. . ... : B-4 0E . ... : ... .. . ... : ... .. . ... : ... .. . ...
ROW 2C : ... .. . ... : ... .. . ... : ... .. . ... : ... .. . ... : ... .. . ...
ROW 2D : A-4 0E . ... : ... .. . ... : ... .. . ... : ... .. . ... : ... .. . ...
ROW 2E : ... .. . ... : ... .. . ... : ... .. . ... : ... .. . ... : ... .. . ...
ROW 2F : ... .. . ... : A-4 0E . ... : ... .. . ... : ... .. . ... : ... .. . ...
ROW 30 : ... .. . ... : ... .. . ... : ... .. . ... : ... .. . ... : D-3 00 . ...
ROW 31 : F-5 0E . ... : ... .. . ... : ... .. . ... : A-# 1B . ... : ... .. . ...
ROW 32 : ... .. . ... : ... .. . ... : ... .. . ... : ... .. . ... : ... .. . ...
ROW 33 : ... .. . ... : F-5 0E . ... : ... .. . ... : ... .. . ... : ... .. . ...
ROW 34 : ... .. . ... : ... .. . ... : ... .. . ... : ... .. . ... : E-3 00 . W09
ROW 35 : B-5 0E . ... : ... .. . ... : F-1 15 . ... : ... .. . ... : ... .. . ...
ROW 36 : ... .. . ... : ... .. . ... : ... .. . ... : ... .. . ... : ... .. . ...
ROW 37 : ... .. . ... : B-5 0E . ... : ... .. . ... : ... .. . ... : ... .. . ...
ROW 38 : ... .. . ... : ... .. . ... : ... .. . ... : ... .. . ... : ... .. . ...
ROW 39 : A-5 0E . ... : ... .. . ... : --- .. . ... : ... .. . ... : ... .. . ...
ROW 3A : ... .. . ... : ... .. . ... : ... .. . ... : ... .. . ... : ... .. . ...
ROW 3B : ... .. . ... : A-5 0E . ... : ... .. . ... : ... .. . ... : ... .. . ...
ROW 3C : ... .. . ... : ... .. . ... : ... .. . ... : ... .. . ... : D-3 00 . ...
ROW 3D : F-6 0E . ... : ... .. . ... : F-2 15 . ... : A-# 1B . ... : ... .. . ...
ROW 3E : ... .. . ... : ... .. . ... : ... .. . ... : ... .. . ... : E-3 00 . W09
ROW 3F : ... .. . ... : F-6 0E . ... : F-1 15 . ... : ... .. . ... : ... .. . ...

PATTERN 02
ROW 00 : ... .. . ... : ... .. . ... : ... .. . ... : ... .. . ... : D-3 00 . ...
ROW 01 : F-1 0E . ... : ... .. . ... : F-2 15 . ... : A-# 1B . ... : ... .. . ...
ROW 02 : ... .. . ... : ... .. . ... : ... .. . ... : ... .. . ... : ... .. . ...
ROW 03 : ... .. . ... : F-1 0E . ... : ... .. . ... : ... .. . ... : ... .. . ...
ROW 04 : ... .. . ... : ... .. . ... : ... .. . ... : ... .. . ... : ... .. . ...
ROW 05 : B-1 0E . ... : ... .. . ... : ... .. . ... : ... .. . ... : ... .. . ...
ROW 06 : ... .. . ... : ... .. . ... : ... .. . ... : ... .. . ... : ... .. . ...
ROW 07 : ... .. . ... : B-1 0E . ... : ... .. . ... : ... .. . ... : ... .. . ...
ROW 08 : ... .. . ... : ... .. . ... : ... .. . ... : ... .. . ... : D-3 00 . ...
ROW 09 : A-1 0E . ... : ... .. . ... : ... .. . ... : A-# 1B . ... : ... .. . ...
ROW 0A : ... .. . ... : ... .. . ... : ... .. . ... : ... .. . ... : ... .. . ...
ROW 0B : ... .. . ... : A-1 0E . ... : ... .. . ... : ... .. . ... : ... .. . ...
ROW 0C : ... .. . ... : ... .. . ... : ... .. . ... : ... .. . ... : ... .. . ...
ROW 0D : F-2 0E . ... : ... .. . ... : ... .. . ... : ... .. . ... : ... .. . ...
ROW 0E : ... .. . ... : ... .. . ... : ... .. . ... : ... .. . ... : ... .. . ...
ROW 0F : ... .. . ... : F-2 0E . ... : ... .. . ... : ... .. . ... : ... .. . ...
ROW 10 : ... .. . ... : ... .. . ... : ... .. . ... : ... .. . ... : D-3 00 . ...
ROW 11 : B-2 0E . ... : ... .. . ... : ... .. . ... : A-# 1B . ... : ... .. . ...
ROW 12 : ... .. . ... : ... .. . ... : ... .. . ... : ... .. . ... : ... .. . ...
ROW 13 : ... .. . ... : B-2 0E . ... : ... .. . ... : ... .. . ... : ... .. . ...
ROW 14 : ... .. . ... : ... .. . ... : ... .. . ... : ... .. . ... : E-3 00 . W09
ROW 15 : A-2 0E . ... : ... .. . ... : F-1 15 . ... : ... .. . ... : ... .. . ...
ROW 16 : ... .. . ... : ... .. . ... : ... .. . ... : ... .. . ... : ... .. . ...
ROW 17 : ... .. . ... : A-2 0E . ... : ... .. . ... : ... .. . ... : ... .. . ...
ROW 18 : ... .. . ... : ... .. . ... : ... .. . ... : ... .. . ... : ... .. . ...
ROW 19 : F-3 0E . ... : ... .. . ... : --- .. . ... : ... .. . ... : ... .. . ...
ROW 1A : ... .. . ... : ... .. . ... : ... .. . ... : ... .. . ... : ... .. . ...
ROW 1B : ... .. . ... : F-3 0E . ... : ... .. . ... : ... .. . ... : ... .. . ...
ROW 1C : ... .. . ... : ... .. . ... : ... .. . ... : ... .. . ... : D-3 00 . ...
ROW 1D : B-3 0E . ... : ... .. . ... : F-2 15 . ... : A-# 1B . ... : ... .. . ...
ROW 1E : ... .. . ... : ... .. . ... : ... .. . ... : ... .. . ... : ... .. . ...
ROW 1F : ... .. . ... : B-3 0E . ... : ... .. . ... : ... .. . ... : ... .. . ...
ROW 20 : ... .. . ... : ... .. . ... : ... .. . ... : ... .. . ... : E-3 00 . W09
ROW 21 : A-3 0E . ... : ... .. . ... : F-1 15 . ... : ... .. . ... : ... .. . ...
ROW 22 : ... .. . ... : ... .. . ... : ... .. . ... : ... .. . ... : ... .. . ...
ROW 23 : ... .. . ... : A-3 0E . ... : ... .. . ... : ... .. . ... : ... .. . ...
ROW 24 : ... .. . ... : ... .. . ... : ... .. . ... : ... .. . ... : ... .. . ...
ROW 25 : F-4 0E . ... : ... .. . ... : ... .. . ... : ... .. . ... : ... .. . ...
ROW 26 : ... .. . ... : ... .. . ... : ... .. . ... : ... .. . ... : ... .. . ...
ROW 27 : ... .. . ... : F-4 0E . ... : ... .. . ... : ... .. . ... : ... .. . ...
ROW 28 : ... .. . ... : ... .. . ... : ... .. . ... : ... .. . ... : D-3 00 . ...
ROW 29 : B-4 0E . ... : ... .. . ... : F-2 15 . ... : A-# 1B . ... : ... .. . ...
ROW 2A : ... .. . ... : ... .. . ... : ... .. . ... : ... .. . ... : ... .. . ...
ROW 2B : ... .. . ... : B-4 0E . ... : ... .. . ... : ... .. . ... : ... .. . ...
ROW 2C : ... .. . ... : ... .. . ... : ... .. . ... : ... .. . ... : ... .. . ...
ROW 2D : A-4 0E . ... : ... .. . ... : ... .. . ... : ... .. . ... : ... .. . ...
ROW 2E : ... .. . ... : ... .. . ... : ... .. . ... : ... .. . ... : ... .. . ...
ROW 2F : ... .. . ... : A-4 0E . ... : ... .. . ... : ... .. . ... : ... .. . ...
ROW 30 : ... .. . ... : ... .. . ... : ... .. . ... : ... .. . ... : D-3 00 . ...
ROW 31 : F-5 0E . ... : ... .. . ... : ... .. . ... : A-# 1B . ... : ... .. . ...
ROW 32 : ... .. . ... : ... .. . ... : ... .. . ... : ... .. . ... : ... .. . ...
ROW 33 : ... .. . ... : F-5 0E . ... : ... .. . ... : ... .. . ... : ... .. . ...
ROW 34 : ... .. . ... : ... .. . ... : ... .. . ... : ... .. . ... : E-3 00 . W09
ROW 35 : B-5 0E . ... : ... .. . ... : F-1 15 . ... : ... .. . ... : ... .. . ...
ROW 36 : ... .. . ... : ... .. . ... : ... .. . ... : ... .. . ... : ... .. . ...
ROW 37 : ... .. . ... : B-5 0E . ... : ... .. . ... : ... .. . ... : ... .. . ...
ROW 38 : ... .. . ... : ... .. . ... : ... .. . ... : ... .. . ... : ... .. . ...
ROW 39 : A-5 0E . ... : ... .. . ... : --- .. . ... : ... .. . ... : ... .. . ...
ROW 3A : ... .. . ... : ... .. . ... : ... .. . ... : ... .. . ... : ... .. . ...
ROW 3B : ... .. . ... : A-5 0E . ... : ... .. . ... : ... .. . ... : ... .. . ...
ROW 3C : ... .. . ... : ... .. . ... : ... .. . ... : ... .. . ... : D-3 00 . ...
ROW 3D : F-6 0E . ... : ... .. . ... : F-2 15 . ... : A-# 1B . ... : ... .. . ...
ROW 3E : ... .. . ... : ... .. . ... : ... .. . ... : ... .. . ... : E-3 00 . W09
ROW 3F : ... .. . ... : F-6 0E . ... : F-1 15 . ... : ... .. . ... : ... .. . ...

PATTERN 03
ROW 00 : ... .. . ... : ... .. . ... : ... .. . ... : ... .. . ... : D-3 00 . ...
ROW 01 : B-5 0E . ... : ... .. . ... : F-2 15 . ... : A-# 1B . ... : ... .. . ...
ROW 02 : ... .. . ... : ... .. . ... : ... .. . ... : ... .. . ... : ... .. . ...
ROW 03 : G#5 0E . ... : B-5 0E . ... : ... .. . ... : ... .. . ... : ... .. . ...
ROW 04 : ... .. . ... : ... .. . ... : ... .. . ... : ... .. . ... : ... .. . ...
ROW 05 : F-5 0E . ... : G#5 0E . ... : ... .. . ... : ... .. . ... : ... .. . ...
ROW 06 : ... .. . ... : ... .. . ... : ... .. . ... : ... .. . ... : ... .. . ...
ROW 07 : D-5 0E . ... : F-5 0E . ... : ... .. . ... : ... .. . ... : ... .. . ...
ROW 08 : ... .. . ... : ... .. . ... : ... .. . ... : ... .. . ... : D-3 00 . ...
ROW 09 : B-4 0E . ... : D-5 0E . ... : ... .. . ... : A-# 1B . ... : ... .. . ...
ROW 0A : ... .. . ... : ... .. . ... : ... .. . ... : ... .. . ... : ... .. . ...
ROW 0B : G#5 0E . ... : B-4 0E . ... : ... .. . ... : ... .. . ... : ... .. . ...
ROW 0C : ... .. . ... : ... .. . ... : ... .. . ... : ... .. . ... : ... .. . ...
ROW 0D : F-5 0E . ... : G#5 0E . ... : ... .. . ... : ... .. . ... : ... .. . ...
ROW 0E : ... .. . ... : ... .. . ... : ... .. . ... : ... .. . ... : ... .. . ...
ROW 0F : D-5 0E . ... : F-5 0E . ... : ... .. . ... : ... .. . ... : ... .. . ...
ROW 10 : ... .. . ... : ... .. . ... : ... .. . ... : ... .. . ... : D-3 00 . ...
ROW 11 : B-4 0E . ... : D-5 0E . ... : ... .. . ... : A-# 1B . ... : ... .. . ...
ROW 12 : ... .. . ... : ... .. . ... : ... .. . ... : ... .. . ... : ... .. . ...
ROW 13 : G#4 0E . ... : B-4 0E . ... : ... .. . ... : ... .. . ... : ... .. . ...
ROW 14 : ... .. . ... : ... .. . ... : ... .. . ... : ... .. . ... : E-3 00 . W09
ROW 15 : F-5 0E . ... : G#4 0E . ... : F-1 15 . ... : ... .. . ... : ... .. . ...
ROW 16 : ... .. . ... : ... .. . ... : ... .. . ... : ... .. . ... : ... .. . ...
ROW 17 : D-5 0E . ... : F-5 0E . ... : ... .. . ... : ... .. . ... : ... .. . ...
ROW 18 : ... .. . ... : ... .. . ... : ... .. . ... : ... .. . ... : ... .. . ...
ROW 19 : B-4 0E . ... : D-5 0E . ... : --- .. . ... : ... .. . ... : ... .. . ...
ROW 1A : ... .. . ... : ... .. . ... : ... .. . ... : ... .. . ... : ... .. . ...
ROW 1B : G#4 0E . ... : B-4 0E . ... : ... .. . ... : ... .. . ... : ... .. . ...
ROW 1C : ... .. . ... : ... .. . ... : ... .. . ... : ... .. . ... : D-3 00 . ...
ROW 1D : F-4 0E . ... : G#4 0E . ... : F-2 15 . ... : A-# 1B . ... : ... .. . ...
ROW 1E : ... .. . ... : ... .. . ... : ... .. . ... : ... .. . ... : ... .. . ...
ROW 1F : D-5 0E . ... : F-4 0E . ... : ... .. . ... : ... .. . ... : ... .. . ...
ROW 20 : ... .. . ... : ... .. . ... : ... .. . ... : ... .. . ... : E-3 00 . W09
ROW 21 : B-3 0E . ... : D-5 0E . ... : F-1 15 . ... : ... .. . ... : ... .. . ...
ROW 22 : ... .. . ... : ... .. . ... : ... .. . ... : ... .. . ... : ... .. . ...
ROW 23 : ... .. . ... : B-3 0E . ... : ... .. . ... : ... .. . ... : ... .. . ...
ROW 24 : ... .. . ... : ... .. . ... : ... .. . ... : ... .. . ... : ... .. . ...
ROW 25 : ... .. . ... : ... .. . ... : ... .. . ... : ... .. . ... : ... .. . ...
ROW 26 : ... .. . ... : ... .. . ... : ... .. . ... : ... .. . ... : ... .. . ...
ROW 27 : ... .. . ... : ... .. . ... : ... .. . ... : ... .. . ... : ... .. . ...
ROW 28 : ... .. . ... : ... .. . ... : ... .. . ... : ... .. . ... : D-3 00 . ...
ROW 29 : F-4 0E . ... : ... .. . ... : F-2 15 . ... : A-# 1B . ... : ... .. . ...
ROW 2A : ... .. . ... : ... .. . ... : ... .. . ... : ... .. . ... : ... .. . ...
ROW 2B : ... .. . ... : F-4 0E . ... : ... .. . ... : ... .. . ... : ... .. . ...
ROW 2C : ... .. . ... : ... .. . ... : ... .. . ... : ... .. . ... : ... .. . ...
ROW 2D : ... .. . ... : ... .. . ... : ... .. . ... : ... .. . ... : ... .. . ...
ROW 2E : ... .. . ... : ... .. . ... : ... .. . ... : ... .. . ... : ... .. . ...
ROW 2F : ... .. . ... : ... .. . ... : ... .. . ... : ... .. . ... : ... .. . ...
ROW 30 : ... .. . ... : ... .. . ... : ... .. . ... : ... .. . ... : D-3 00 . ...
ROW 31 : B-4 0E . ... : ... .. . ... : ... .. . ... : A-# 1B . ... : ... .. . ...
ROW 32 : ... .. . ... : ... .. . ... : ... .. . ... : ... .. . ... : ... .. . ...
ROW 33 : ... .. . ... : B-4 0E . ... : ... .. . ... : ... .. . ... : ... .. . ...
ROW 34 : ... .. . ... : ... .. . ... : ... .. . ... : ... .. . ... : E-3 00 . W09
ROW 35 : ... .. . ... : ... .. . ... : F-1 15 . ... : ... .. . ... : ... .. . ...
ROW 36 : ... .. . ... : ... .. . ... : ... .. . ... : ... .. . ... : ... .. . ...
ROW 37 : ... .. . ... : ... .. . ... : ... .. . ... : ... .. . ... : ... .. . ...
ROW 38 : ... .. . ... : ... .. . ... : ... .. . ... : ... .. . ... : ... .. . ...
ROW 39 : ... .. . ... : ... .. . ... : --- .. . ... : ... .. . ... : ... .. . ...
ROW 3A : ... .. . ... : ... .. . ... : ... .. . ... : ... .. . ... : ... .. . ...
ROW 3B : ... .. . ... : ... .. . ... : ... .. . ... : ... .. . ... : ... .. . ...
ROW 3C : ... .. . ... : ... .. . ... : ... .. . ... : ... .. . ... : D-3 00 . ...
ROW 3D : ... .. . ... : ... .. . ... : F-2 15 . ... : A-# 1B . ... : ... .. . ...
ROW 3E : ... .. . ... : ... .. . ... : ... .. . ... : ... .. . ... : E-3 00 . W09
ROW 3F : ... .. . ... : ... .. . ... : F-1 15 . ... : ... .. . ... : ... .. . ...

PATTERN 04
ROW 00 : ... .. . ... : ... .. . ... : ... .. . ... : ... .. . ... : D-3 00 . ...
ROW 01 : G#1 0E . ... : ... .. . ... : G#2 15 . ... : A-# 1B . ... : ... .. . ...
ROW 02 : ... .. . ... : ... .. . ... : ... .. . ... : ... .. . ... : ... .. . ...
ROW 03 : ... .. . ... : G#1 0E . ... : ... .. . ... : ... .. . ... : ... .. . ...
ROW 04 : ... .. . ... : ... .. . ... : ... .. . ... : ... .. . ... : ... .. . ...
ROW 05 : D-2 0E . ... : ... .. . ... : ... .. . ... : ... .. . ... : ... .. . ...
ROW 06 : ... .. . ... : ... .. . ... : ... .. . ... : ... .. . ... : ... .. . ...
ROW 07 : ... .. . ... : D-2 0E . ... : ... .. . ... : ... .. . ... : ... .. . ...
ROW 08 : ... .. . ... : ... .. . ... : ... .. . ... : ... .. . ... : D-3 00 . ...
ROW 09 : C-2 0E . ... : ... .. . ... : ... .. . ... : A-# 1B . ... : ... .. . ...
ROW 0A : ... .. . ... : ... .. . ... : ... .. . ... : ... .. . ... : ... .. . ...
ROW 0B : ... .. . ... : C-2 0E . ... : ... .. . ... : ... .. . ... : ... .. . ...
ROW 0C : ... .. . ... : ... .. . ... : ... .. . ... : ... .. . ... : ... .. . ...
ROW 0D : G#2 0E . ... : ... .. . ... : ... .. . ... : ... .. . ... : ... .. . ...
ROW 0E : ... .. . ... : ... .. . ... : ... .. . ... : ... .. . ... : ... .. . ...
ROW 0F : ... .. . ... : G#2 0E . ... : ... .. . ... : ... .. . ... : ... .. . ...
ROW 10 : ... .. . ... : ... .. . ... : ... .. . ... : ... .. . ... : D-3 00 . ...
ROW 11 : D-3 0E . ... : ... .. . ... : ... .. . ... : A-# 1B . ... : ... .. . ...
ROW 12 : ... .. . ... : ... .. . ... : ... .. . ... : ... .. . ... : ... .. . ...
ROW 13 : ... .. . ... : D-3 0E . ... : ... .. . ... : ... .. . ... : ... .. . ...
ROW 14 : ... .. . ... : ... .. . ... : ... .. . ... : ... .. . ... : E-3 00 . W09
ROW 15 : C-3 0E . ... : ... .. . ... : G#1 15 . ... : ... .. . ... : ... .. . ...
ROW 16 : ... .. . ... : ... .. . ... : ... .. . ... : ... .. . ... : ... .. . ...
ROW 17 : ... .. . ... : C-3 0E . ... : ... .. . ... : ... .. . ... : ... .. . ...
ROW 18 : ... .. . ... : ... .. . ... : ... .. . ... : ... .. . ... : ... .. . ...
ROW 19 : G#3 0E . ... : ... .. . ... : --- .. . ... : ... .. . ... : ... .. . ...
ROW 1A : ... .. . ... : ... .. . ... : ... .. . ... : ... .. . ... : ... .. . ...
ROW 1B : ... .. . ... : G#3 0E . ... : ... .. . ... : ... .. . ... : ... .. . ...
ROW 1C : ... .. . ... : ... .. . ... : ... .. . ... : ... .. . ... : D-3 00 . ...
ROW 1D : D-4 0E . ... : ... .. . ... : G#2 15 . ... : A-# 1B . ... : ... .. . ...
ROW 1E : ... .. . ... : ... .. . ... : ... .. . ... : ... .. . ... : ... .. . ...
ROW 1F : ... .. . ... : D-4 0E . ... : ... .. . ... : ... .. . ... : ... .. . ...
ROW 20 : ... .. . ... : ... .. . ... : ... .. . ... : ... .. . ... : E-3 00 . W09
ROW 21 : C-4 0E . ... : ... .. . ... : G#1 15 . ... : ... .. . ... : ... .. . ...
ROW 22 : ... .. . ... : ... .. . ... : ... .. . ... : ... .. . ... : ... .. . ...
ROW 23 : ... .. . ... : C-4 0E . ... : ... .. . ... : ... .. . ... : ... .. . ...
ROW 24 : ... .. . ... : ... .. . ... : ... .. . ... : ... .. . ... : ... .. . ...
ROW 25 : G#4 0E . ... : ... .. . ... : ... .. . ... : ... .. . ... : ... .. . ...
ROW 26 : ... .. . ... : ... .. . ... : ... .. . ... : ... .. . ... : ... .. . ...
ROW 27 : ... .. . ... : G#4 0E . ... : ... .. . ... : ... .. . ... : ... .. . ...
ROW 28 : ... .. . ... : ... .. . ... : ... .. . ... : ... .. . ... : D-3 00 . ...
ROW 29 : D-5 0E . ... : ... .. . ... : G#2 15 . ... : A-# 1B . ... : ... .. . ...
ROW 2A : ... .. . ... : ... .. . ... : ... .. . ... : ... .. . ... : ... .. . ...
ROW 2B : ... .. . ... : D-5 0E . ... : ... .. . ... : ... .. . ... : ... .. . ...
ROW 2C : ... .. . ... : ... .. . ... : ... .. . ... : ... .. . ... : ... .. . ...
ROW 2D : C-5 0E . ... : ... .. . ... : ... .. . ... : ... .. . ... : ... .. . ...
ROW 2E : ... .. . ... : ... .. . ... : ... .. . ... : ... .. . ... : ... .. . ...
ROW 2F : ... .. . ... : C-5 0E . ... : ... .. . ... : ... .. . ... : ... .. . ...
ROW 30 : ... .. . ... : ... .. . ... : ... .. . ... : ... .. . ... : D-3 00 . ...
ROW 31 : G#5 0E . ... : ... .. . ... : ... .. . ... : A-# 1B . ... : ... .. . ...
ROW 32 : ... .. . ... : ... .. . ... : ... .. . ... : ... .. . ... : ... .. . ...
ROW 33 : ... .. . ... : G#5 0E . ... : ... .. . ... : ... .. . ... : ... .. . ...
ROW 34 : ... .. . ... : ... .. . ... : ... .. . ... : ... .. . ... : E-3 00 . W09
ROW 35 : D-6 0E . ... : ... .. . ... : G#1 15 . ... : ... .. . ... : ... .. . ...
ROW 36 : ... .. . ... : ... .. . ... : ... .. . ... : ... .. . ... : ... .. . ...
ROW 37 : ... .. . ... : D-6 0E . ... : ... .. . ... : ... .. . ... : ... .. . ...
ROW 38 : ... .. . ... : ... .. . ... : ... .. . ... : ... .. . ... : ... .. . ...
ROW 39 : C-6 0E . ... : ... .. . ... : --- .. . ... : ... .. . ... : ... .. . ...
ROW 3A : ... .. . ... : ... .. . ... : ... .. . ... : ... .. . ... : ... .. . ...
ROW 3B : ... .. . ... : C-6 0E . ... : ... .. . ... : ... .. . ... : ... .. . ...
ROW 3C : ... .. . ... : ... .. . ... : ... .. . ... : ... .. . ... : D-3 00 . ...
ROW 3D : G#6 0E . ... : ... .. . ... : G#2 15 . ... : A-# 1B . ... : ... .. . ...
ROW 3E : ... .. . ... : ... .. . ... : ... .. . ... : ... .. . ... : E-3 00 . W09
ROW 3F : ... .. . ... : G#6 0E . ... : G#1 15 . ... : ... .. . ... : ... .. . ...

PATTERN 05
ROW 00 : ... .. . ... : ... .. . ... : ... .. . ... : ... .. . ... : D-3 00 . ...
ROW 01 : G#1 0E . ... : ... .. . ... : G#2 15 . ... : A-# 1B . ... : ... .. . ...
ROW 02 : ... .. . ... : ... .. . ... : ... .. . ... : ... .. . ... : ... .. . ...
ROW 03 : ... .. . ... : G#1 0E . ... : ... .. . ... : ... .. . ... : ... .. . ...
ROW 04 : ... .. . ... : ... .. . ... : ... .. . ... : ... .. . ... : ... .. . ...
ROW 05 : D-2 0E . ... : ... .. . ... : ... .. . ... : ... .. . ... : ... .. . ...
ROW 06 : ... .. . ... : ... .. . ... : ... .. . ... : ... .. . ... : ... .. . ...
ROW 07 : ... .. . ... : D-2 0E . ... : ... .. . ... : ... .. . ... : ... .. . ...
ROW 08 : ... .. . ... : ... .. . ... : ... .. . ... : ... .. . ... : D-3 00 . ...
ROW 09 : C-2 0E . ... : ... .. . ... : ... .. . ... : A-# 1B . ... : ... .. . ...
ROW 0A : ... .. . ... : ... .. . ... : ... .. . ... : ... .. . ... : ... .. . ...
ROW 0B : ... .. . ... : C-2 0E . ... : ... .. . ... : ... .. . ... : ... .. . ...
ROW 0C : ... .. . ... : ... .. . ... : ... .. . ... : ... .. . ... : ... .. . ...
ROW 0D : G#2 0E . ... : ... .. . ... : ... .. . ... : ... .. . ... : ... .. . ...
ROW 0E : ... .. . ... : ... .. . ... : ... .. . ... : ... .. . ... : ... .. . ...
ROW 0F : ... .. . ... : G#2 0E . ... : ... .. . ... : ... .. . ... : ... .. . ...
ROW 10 : ... .. . ... : ... .. . ... : ... .. . ... : ... .. . ... : D-3 00 . ...
ROW 11 : D-3 0E . ... : ... .. . ... : ... .. . ... : A-# 1B . ... : ... .. . ...
ROW 12 : ... .. . ... : ... .. . ... : ... .. . ... : ... .. . ... : ... .. . ...
ROW 13 : ... .. . ... : D-3 0E . ... : ... .. . ... : ... .. . ... : ... .. . ...
ROW 14 : ... .. . ... : ... .. . ... : ... .. . ... : ... .. . ... : E-3 00 . W09
ROW 15 : C-3 0E . ... : ... .. . ... : G#1 15 . ... : ... .. . ... : ... .. . ...
ROW 16 : ... .. . ... : ... .. . ... : ... .. . ... : ... .. . ... : ... .. . ...
ROW 17 : ... .. . ... : C-3 0E . ... : ... .. . ... : ... .. . ... : ... .. . ...
ROW 18 : ... .. . ... : ... .. . ... : ... .. . ... : ... .. . ... : ... .. . ...
ROW 19 : G#3 0E . ... : ... .. . ... : --- .. . ... : ... .. . ... : ... .. . ...
ROW 1A : ... .. . ... : ... .. . ... : ... .. . ... : ... .. . ... : ... .. . ...
ROW 1B : ... .. . ... : G#3 0E . ... : ... .. . ... : ... .. . ... : ... .. . ...
ROW 1C : ... .. . ... : ... .. . ... : ... .. . ... : ... .. . ... : D-3 00 . ...
ROW 1D : D-4 0E . ... : ... .. . ... : G#2 15 . ... : A-# 1B . ... : ... .. . ...
ROW 1E : ... .. . ... : ... .. . ... : ... .. . ... : ... .. . ... : ... .. . ...
ROW 1F : ... .. . ... : D-4 0E . ... : ... .. . ... : ... .. . ... : ... .. . ...
ROW 20 : ... .. . ... : ... .. . ... : ... .. . ... : ... .. . ... : E-3 00 . W09
ROW 21 : C-4 0E . ... : ... .. . ... : G#1 15 . ... : ... .. . ... : ... .. . ...
ROW 22 : ... .. . ... : ... .. . ... : ... .. . ... : ... .. . ... : ... .. . ...
ROW 23 : ... .. . ... : C-4 0E . ... : ... .. . ... : ... .. . ... : ... .. . ...
ROW 24 : ... .. . ... : ... .. . ... : ... .. . ... : ... .. . ... : ... .. . ...
ROW 25 : G#4 0E . ... : ... .. . ... : ... .. . ... : ... .. . ... : ... .. . ...
ROW 26 : ... .. . ... : ... .. . ... : ... .. . ... : ... .. . ... : ... .. . ...
ROW 27 : ... .. . ... : G#4 0E . ... : ... .. . ... : ... .. . ... : ... .. . ...
ROW 28 : ... .. . ... : ... .. . ... : ... .. . ... : ... .. . ... : D-3 00 . ...
ROW 29 : D-5 0E . ... : ... .. . ... : G#2 15 . ... : A-# 1B . ... : ... .. . ...
ROW 2A : ... .. . ... : ... .. . ... : ... .. . ... : ... .. . ... : ... .. . ...
ROW 2B : ... .. . ... : D-5 0E . ... : ... .. . ... : ... .. . ... : ... .. . ...
ROW 2C : ... .. . ... : ... .. . ... : ... .. . ... : ... .. . ... : ... .. . ...
ROW 2D : C-5 0E . ... : ... .. . ... : ... .. . ... : ... .. . ... : ... .. . ...
ROW 2E : ... .. . ... : ... .. . ... : ... .. . ... : ... .. . ... : ... .. . ...
ROW 2F : ... .. . ... : C-5 0E . ... : ... .. . ... : ... .. . ... : ... .. . ...
ROW 30 : ... .. . ... : ... .. . ... : ... .. . ... : ... .. . ... : D-3 00 . ...
ROW 31 : G#5 0E . ... : ... .. . ... : ... .. . ... : A-# 1B . ... : ... .. . ...
ROW 32 : ... .. . ... : ... .. . ... : ... .. . ... : ... .. . ... : ... .. . ...
ROW 33 : ... .. . ... : G#5 0E . ... : ... .. . ... : ... .. . ... : ... .. . ...
ROW 34 : ... .. . ... : ... .. . ... : ... .. . ... : ... .. . ... : E-3 00 . W09
ROW 35 : D-6 0E . ... : ... .. . ... : G#1 15 . ... : ... .. . ... : ... .. . ...
ROW 36 : ... .. . ... : ... .. . ... : ... .. . ... : ... .. . ... : ... .. . ...
ROW 37 : ... .. . ... : D-6 0E . ... : ... .. . ... : ... .. . ... : ... .. . ...
ROW 38 : ... .. . ... : ... .. . ... : ... .. . ... : ... .. . ... : ... .. . ...
ROW 39 : C-6 0E . ... : ... .. . ... : --- .. . ... : ... .. . ... : ... .. . ...
ROW 3A : ... .. . ... : ... .. . ... : ... .. . ... : ... .. . ... : ... .. . ...
ROW 3B : ... .. . ... : C-6 0E . ... : ... .. . ... : ... .. . ... : ... .. . ...
ROW 3C : ... .. . ... : ... .. . ... : ... .. . ... : ... .. . ... : D-3 00 . ...
ROW 3D : G#6 0E . ... : ... .. . ... : G#2 15 . ... : A-# 1B . ... : ... .. . ...
ROW 3E : ... .. . ... : ... .. . ... : ... .. . ... : ... .. . ... : E-3 00 . W09
ROW 3F : ... .. . ... : G#6 0E . ... : G#1 15 . ... : ... .. . ... : ... .. . ...

PATTERN 06
ROW 00 : ... .. . ... : ... .. . ... : ... .. . ... : ... .. . ... : D-3 00 . ...
ROW 01 : G#1 0E . ... : ... .. . ... : G#2 15 . ... : A-# 1B . ... : ... .. . ...
ROW 02 : ... .. . ... : ... .. . ... : ... .. . ... : ... .. . ... : ... .. . ...
ROW 03 : ... .. . ... : G#1 0E . ... : ... .. . ... : ... .. . ... : ... .. . ...
ROW 04 : ... .. . ... : ... .. . ... : ... .. . ... : ... .. . ... : ... .. . ...
ROW 05 : D-2 0E . ... : ... .. . ... : ... .. . ... : ... .. . ... : ... .. . ...
ROW 06 : ... .. . ... : ... .. . ... : ... .. . ... : ... .. . ... : ... .. . ...
ROW 07 : ... .. . ... : D-2 0E . ... : ... .. . ... : ... .. . ... : ... .. . ...
ROW 08 : ... .. . ... : ... .. . ... : ... .. . ... : ... .. . ... : D-3 00 . ...
ROW 09 : C-2 0E . ... : ... .. . ... : ... .. . ... : A-# 1B . ... : ... .. . ...
ROW 0A : ... .. . ... : ... .. . ... : ... .. . ... : ... .. . ... : ... .. . ...
ROW 0B : ... .. . ... : C-2 0E . ... : ... .. . ... : ... .. . ... : ... .. . ...
ROW 0C : ... .. . ... : ... .. . ... : ... .. . ... : ... .. . ... : ... .. . ...
ROW 0D : G#2 0E . ... : ... .. . ... : ... .. . ... : ... .. . ... : ... .. . ...
ROW 0E : ... .. . ... : ... .. . ... : ... .. . ... : ... .. . ... : ... .. . ...
ROW 0F : ... .. . ... : G#2 0E . ... : ... .. . ... : ... .. . ... : ... .. . ...
ROW 10 : ... .. . ... : ... .. . ... : ... .. . ... : ... .. . ... : D-3 00 . ...
ROW 11 : D-3 0E . ... : ... .. . ... : ... .. . ... : A-# 1B . ... : ... .. . ...
ROW 12 : ... .. . ... : ... .. . ... : ... .. . ... : ... .. . ... : ... .. . ...
ROW 13 : ... .. . ... : D-3 0E . ... : ... .. . ... : ... .. . ... : ... .. . ...
ROW 14 : ... .. . ... : ... .. . ... : ... .. . ... : ... .. . ... : E-3 00 . W09
ROW 15 : C-3 0E . ... : ... .. . ... : G#1 15 . ... : ... .. . ... : ... .. . ...
ROW 16 : ... .. . ... : ... .. . ... : ... .. . ... : ... .. . ... : ... .. . ...
ROW 17 : ... .. . ... : C-3 0E . ... : ... .. . ... : ... .. . ... : ... .. . ...
ROW 18 : ... .. . ... : ... .. . ... : ... .. . ... : ... .. . ... : ... .. . ...
ROW 19 : G#3 0E . ... : ... .. . ... : --- .. . ... : ... .. . ... : ... .. . ...
ROW 1A : ... .. . ... : ... .. . ... : ... .. . ... : ... .. . ... : ... .. . ...
ROW 1B : ... .. . ... : G#3 0E . ... : ... .. . ... : ... .. . ... : ... .. . ...
ROW 1C : ... .. . ... : ... .. . ... : ... .. . ... : ... .. . ... : D-3 00 . ...
ROW 1D : D-4 0E . ... : ... .. . ... : G#2 15 . ... : A-# 1B . ... : ... .. . ...
ROW 1E : ... .. . ... : ... .. . ... : ... .. . ... : ... .. . ... : ... .. . ...
ROW 1F : ... .. . ... : D-4 0E . ... : ... .. . ... : ... .. . ... : ... .. . ...
ROW 20 : ... .. . ... : ... .. . ... : ... .. . ... : ... .. . ... : E-3 00 . W09
ROW 21 : C-4 0E . ... : ... .. . ... : G#1 15 . ... : ... .. . ... : ... .. . ...
ROW 22 : ... .. . ... : ... .. . ... : ... .. . ... : ... .. . ... : ... .. . ...
ROW 23 : ... .. . ... : C-4 0E . ... : ... .. . ... : ... .. . ... : ... .. . ...
ROW 24 : ... .. . ... : ... .. . ... : ... .. . ... : ... .. . ... : ... .. . ...
ROW 25 : G#4 0E . ... : ... .. . ... : ... .. . ... : ... .. . ... : ... .. . ...
ROW 26 : ... .. . ... : ... .. . ... : ... .. . ... : ... .. . ... : ... .. . ...
ROW 27 : ... .. . ... : G#4 0E . ... : ... .. . ... : ... .. . ... : ... .. . ...
ROW 28 : ... .. . ... : ... .. . ... : ... .. . ... : ... .. . ... : D-3 00 . ...
ROW 29 : D-5 0E . ... : ... .. . ... : G#2 15 . ... : A-# 1B . ... : ... .. . ...
ROW 2A : ... .. . ... : ... .. . ... : ... .. . ... : ... .. . ... : ... .. . ...
ROW 2B : ... .. . ... : D-5 0E . ... : ... .. . ... : ... .. . ... : ... .. . ...
ROW 2C : ... .. . ... : ... .. . ... : ... .. . ... : ... .. . ... : ... .. . ...
ROW 2D : C-5 0E . ... : ... .. . ... : ... .. . ... : ... .. . ... : ... .. . ...
ROW 2E : ... .. . ... : ... .. . ... : ... .. . ... : ... .. . ... : ... .. . ...
ROW 2F : ... .. . ... : C-5 0E . ... : ... .. . ... : ... .. . ... : ... .. . ...
ROW 30 : ... .. . ... : ... .. . ... : ... .. . ... : ... .. . ... : D-3 00 . ...
ROW 31 : G#5 0E . ... : ... .. . ... : ... .. . ... : A-# 1B . ... : ... .. . ...
ROW 32 : ... .. . ... : ... .. . ... : ... .. . ... : ... .. . ... : ... .. . ...
ROW 33 : ... .. . ... : G#5 0E . ... : ... .. . ... : ... .. . ... : ... .. . ...
ROW 34 : ... .. . ... : ... .. . ... : ... .. . ... : ... .. . ... : E-3 00 . W09
ROW 35 : D-6 0E . ... : ... .. . ... : G#1 15 . ... : ... .. . ... : ... .. . ...
ROW 36 : ... .. . ... : ... .. . ... : ... .. . ... : ... .. . ... : ... .. . ...
ROW 37 : ... .. . ... : D-6 0E . ... : ... .. . ... : ... .. . ... : ... .. . ...
ROW 38 : ... .. . ... : ... .. . ... : ... .. . ... : ... .. . ... : ... .. . ...
ROW 39 : C-6 0E . ... : ... .. . ... : --- .. . ... : ... .. . ... : ... .. . ...
ROW 3A : ... .. . ... : ... .. . ... : ... .. . ... : ... .. . ... : ... .. . ...
ROW 3B : ... .. . ... : C-6 0E . ... : ... .. . ... : ... .. . ... : ... .. . ...
ROW 3C : ... .. . ... : ... .. . ... : ... .. . ... : ... .. . ... : D-3 00 . ...
ROW 3D : G#6 0E . ... : ... .. . ... : G#2 15 . ... : A-# 1B . ... : ... .. . ...
ROW 3E : ... .. . ... : ... .. . ... : ... .. . ... : ... .. . ... : E-3 00 . W09
ROW 3F : ... .. . ... : G#6 0E . ... : G#1 15 . ... : ... .. . ... : ... .. . ...

PATTERN 07
ROW 00 : ... .. . ... : ... .. . ... : ... .. . ... : ... .. . ... : D-3 00 . ...
ROW 01 : D-6 0E . ... : ... .. . ... : G#2 15 . ... : A-# 1B . ... : ... .. . ...
ROW 02 : ... .. . ... : ... .. . ... : ... .. . ... : ... .. . ... : ... .. . ...
ROW 03 : B-5 0E . ... : D-6 0E . ... : ... .. . ... : ... .. . ... : ... .. . ...
ROW 04 : ... .. . ... : ... .. . ... : ... .. . ... : ... .. . ... : ... .. . ...
ROW 05 : G#5 0E . ... : B-5 0E . ... : ... .. . ... : ... .. . ... : ... .. . ...
ROW 06 : ... .. . ... : ... .. . ... : ... .. . ... : ... .. . ... : ... .. . ...
ROW 07 : F-5 0E . ... : G#5 0E . ... : ... .. . ... : ... .. . ... : ... .. . ...
ROW 08 : ... .. . ... : ... .. . ... : ... .. . ... : ... .. . ... : D-3 00 . ...
ROW 09 : D-5 0E . ... : F-5 0E . ... : ... .. . ... : A-# 1B . ... : ... .. . ...
ROW 0A : ... .. . ... : ... .. . ... : ... .. . ... : ... .. . ... : ... .. . ...
ROW 0B : B-5 0E . ... : D-5 0E . ... : ... .. . ... : ... .. . ... : ... .. . ...
ROW 0C : ... .. . ... : ... .. . ... : ... .. . ... : ... .. . ... : ... .. . ...
ROW 0D : G#5 0E . ... : B-5 0E . ... : ... .. . ... : ... .. . ... : ... .. . ...
ROW 0E : ... .. . ... : ... .. . ... : ... .. . ... : ... .. . ... : ... .. . ...
ROW 0F : F-5 0E . ... : G#5 0E . ... : ... .. . ... : ... .. . ... : ... .. . ...
ROW 10 : ... .. . ... : ... .. . ... : ... .. . ... : ... .. . ... : D-3 00 . ...
ROW 11 : D-5 0E . ... : F-5 0E . ... : ... .. . ... : A-# 1B . ... : ... .. . ...
ROW 12 : ... .. . ... : ... .. . ... : ... .. . ... : ... .. . ... : ... .. . ...
ROW 13 : B-4 0E . ... : D-5 0E . ... : ... .. . ... : ... .. . ... : ... .. . ...
ROW 14 : ... .. . ... : ... .. . ... : ... .. . ... : ... .. . ... : E-3 00 . W09
ROW 15 : G#5 0E . ... : B-4 0E . ... : G#1 15 . ... : ... .. . ... : ... .. . ...
ROW 16 : ... .. . ... : ... .. . ... : ... .. . ... : ... .. . ... : ... .. . ...
ROW 17 : F-5 0E . ... : G#5 0E . ... : ... .. . ... : ... .. . ... : ... .. . ...
ROW 18 : ... .. . ... : ... .. . ... : ... .. . ... : ... .. . ... : ... .. . ...
ROW 19 : D-5 0E . ... : F-5 0E . ... : --- .. . ... : ... .. . ... : ... .. . ...
ROW 1A : ... .. . ... : ... .. . ... : ... .. . ... : ... .. . ... : ... .. . ...
ROW 1B : B-4 0E . ... : D-5 0E . ... : ... .. . ... : ... .. . ... : ... .. . ...
ROW 1C : ... .. . ... : ... .. . ... : ... .. . ... : ... .. . ... : D-3 00 . ...
ROW 1D : G#4 0E . ... : B-4 0E . ... : G#2 15 . ... : A-# 1B . ... : ... .. . ...
ROW 1E : ... .. . ... : ... .. . ... : ... .. . ... : ... .. . ... : ... .. . ...
ROW 1F : F-5 0E . ... : G#4 0E . ... : ... .. . ... : ... .. . ... : ... .. . ...
ROW 20 : ... .. . ... : ... .. . ... : ... .. . ... : ... .. . ... : E-3 00 . W09
ROW 21 : D-4 0E . ... : F-5 0E . ... : G#1 15 . ... : ... .. . ... : ... .. . ...
ROW 22 : ... .. . ... : ... .. . ... : ... .. . ... : ... .. . ... : ... .. . ...
ROW 23 : ... .. . ... : D-4 0E . ... : ... .. . ... : ... .. . ... : ... .. . ...
ROW 24 : ... .. . ... : ... .. . ... : ... .. . ... : ... .. . ... : ... .. . ...
ROW 25 : ... .. . ... : ... .. . ... : ... .. . ... : ... .. . ... : ... .. . ...
ROW 26 : ... .. . ... : ... .. . ... : ... .. . ... : ... .. . ... : ... .. . ...
ROW 27 : ... .. . ... : ... .. . ... : ... .. . ... : ... .. . ... : ... .. . ...
ROW 28 : ... .. . ... : ... .. . ... : ... .. . ... : ... .. . ... : D-3 00 . ...
ROW 29 : G#4 0E . ... : ... .. . ... : G#2 15 . ... : A-# 1B . ... : ... .. . ...
ROW 2A : ... .. . ... : ... .. . ... : ... .. . ... : ... .. . ... : ... .. . ...
ROW 2B : ... .. . ... : G#4 0E . ... : ... .. . ... : ... .. . ... : ... .. . ...
ROW 2C : ... .. . ... : ... .. . ... : ... .. . ... : ... .. . ... : ... .. . ...
ROW 2D : ... .. . ... : ... .. . ... : ... .. . ... : ... .. . ... : ... .. . ...
ROW 2E : ... .. . ... : ... .. . ... : ... .. . ... : ... .. . ... : ... .. . ...
ROW 2F : ... .. . ... : ... .. . ... : ... .. . ... : ... .. . ... : ... .. . ...
ROW 30 : ... .. . ... : ... .. . ... : ... .. . ... : ... .. . ... : D-3 00 . ...
ROW 31 : D-5 0E . ... : ... .. . ... : ... .. . ... : A-# 1B . ... : ... .. . ...
ROW 32 : ... .. . ... : ... .. . ... : ... .. . ... : ... .. . ... : ... .. . ...
ROW 33 : ... .. . ... : D-5 0E . ... : ... .. . ... : ... .. . ... : ... .. . ...
ROW 34 : ... .. . ... : ... .. . ... : ... .. . ... : ... .. . ... : E-3 00 . W09
ROW 35 : ... .. . ... : ... .. . ... : G#1 15 . ... : ... .. . ... : ... .. . ...
ROW 36 : ... .. . ... : ... .. . ... : ... .. . ... : ... .. . ... : ... .. . ...
ROW 37 : ... .. . ... : ... .. . ... : ... .. . ... : ... .. . ... : ... .. . ...
ROW 38 : ... .. . ... : ... .. . ... : ... .. . ... : ... .. . ... : ... .. . ...
ROW 39 : ... .. . ... : ... .. . ... : --- .. . ... : ... .. . ... : ... .. . ...
ROW 3A : ... .. . ... : ... .. . ... : ... .. . ... : ... .. . ... : ... .. . ...
ROW 3B : ... .. . ... : ... .. . ... : ... .. . ... : ... .. . ... : ... .. . ...
ROW 3C : ... .. . ... : ... .. . ... : ... .. . ... : ... .. . ... : D-3 00 . ...
ROW 3D : ... .. . ... : ... .. . ... : G#2 15 . ... : A-# 1B . ... : ... .. . ...
ROW 3E : ... .. . ... : ... .. . ... : ... .. . ... : ... .. . ... : E-3 00 . W09
ROW 3F : ... .. . ... : ... .. . ... : G#1 15 . ... : ... .. . ... : ... .. . ...

PATTERN 08
ROW 00 : ... .. . ... : ... .. . ... : ... .. . ... : ... .. . ... : D-3 00 . ...
ROW 01 : E-3 0E . ... : ... .. . ... : C#3 15 . ... : A-# 1B . ... : ... .. . ...
ROW 02 : ... .. . ... : ... .. . ... : ... .. . ... : ... .. . ... : ... .. . ...
ROW 03 : B-2 0E . ... : E-3 0E . ... : ... .. . ... : ... .. . ... : ... .. . ...
ROW 04 : ... .. . ... : ... .. . ... : ... .. . ... : ... .. . ... : ... .. . ...
ROW 05 : F#2 0E . ... : B-2 0E . ... : ... .. . ... : ... .. . ... : ... .. . ...
ROW 06 : ... .. . ... : ... .. . ... : ... .. . ... : ... .. . ... : ... .. . ...
ROW 07 : B-2 0E . ... : F#2 0E . ... : ... .. . ... : ... .. . ... : ... .. . ...
ROW 08 : ... .. . ... : ... .. . ... : ... .. . ... : ... .. . ... : D-3 00 . ...
ROW 09 : B-3 0E . ... : B-2 0E . ... : ... .. . ... : A-# 1B . ... : ... .. . ...
ROW 0A : ... .. . ... : ... .. . ... : ... .. . ... : ... .. . ... : ... .. . ...
ROW 0B : G#2 0E . ... : B-3 0E . ... : ... .. . ... : ... .. . ... : ... .. . ...
ROW 0C : ... .. . ... : ... .. . ... : ... .. . ... : ... .. . ... : ... .. . ...
ROW 0D : A-3 0E . ... : G#2 0E . ... : ... .. . ... : ... .. . ... : ... .. . ...
ROW 0E : ... .. . ... : ... .. . ... : ... .. . ... : ... .. . ... : ... .. . ...
ROW 0F : B-2 0E . ... : A-3 0E . ... : ... .. . ... : ... .. . ... : ... .. . ...
ROW 10 : ... .. . ... : ... .. . ... : ... .. . ... : ... .. . ... : D-3 00 . ...
ROW 11 : G#3 0E . ... : B-2 0E . ... : ... .. . ... : A-# 1B . ... : ... .. . ...
ROW 12 : ... .. . ... : ... .. . ... : ... .. . ... : ... .. . ... : ... .. . ...
ROW 13 : B-2 0E . ... : G#3 0E . ... : ... .. . ... : ... .. . ... : ... .. . ...
ROW 14 : ... .. . ... : ... .. . ... : ... .. . ... : ... .. . ... : E-3 00 . W09
ROW 15 : E-3 0E . ... : B-2 0E . ... : C#2 15 . ... : ... .. . ... : ... .. . ...
ROW 16 : ... .. . ... : ... .. . ... : ... .. . ... : ... .. . ... : ... .. . ...
ROW 17 : G#2 0E . ... : E-3 0E . ... : ... .. . ... : ... .. . ... : ... .. . ...
ROW 18 : ... .. . ... : ... .. . ... : ... .. . ... : ... .. . ... : ... .. . ...
ROW 19 : F#3 0E . ... : G#2 0E . ... : --- .. . ... : ... .. . ... : ... .. . ...
ROW 1A : ... .. . ... : ... .. . ... : ... .. . ... : ... .. . ... : ... .. . ...
ROW 1B : B-2 0E . ... : F#3 0E . ... : ... .. . ... : ... .. . ... : ... .. . ...
ROW 1C : ... .. . ... : ... .. . ... : ... .. . ... : ... .. . ... : D-3 00 . ...
ROW 1D : G#3 0E . ... : B-2 0E . ... : C#3 15 . ... : A-# 1B . ... : ... .. . ...
ROW 1E : ... .. . ... : ... .. . ... : ... .. . ... : ... .. . ... : ... .. . ...
ROW 1F : B-2 0E . ... : G#3 0E . ... : ... .. . ... : ... .. . ... : ... .. . ...
ROW 20 : ... .. . ... : ... .. . ... : ... .. . ... : ... .. . ... : E-3 00 . W09
ROW 21 : E-3 0E . ... : B-2 0E . ... : C#2 15 . ... : ... .. . ... : ... .. . ...
ROW 22 : ... .. . ... : ... .. . ... : ... .. . ... : ... .. . ... : ... .. . ...
ROW 23 : B-2 0E . ... : E-3 0E . ... : ... .. . ... : ... .. . ... : ... .. . ...
ROW 24 : ... .. . ... : ... .. . ... : ... .. . ... : ... .. . ... : ... .. . ...
ROW 25 : F#2 0E . ... : B-2 0E . ... : ... .. . ... : ... .. . ... : ... .. . ...
ROW 26 : ... .. . ... : ... .. . ... : ... .. . ... : ... .. . ... : ... .. . ...
ROW 27 : B-2 0E . ... : F#2 0E . ... : ... .. . ... : ... .. . ... : ... .. . ...
ROW 28 : ... .. . ... : ... .. . ... : ... .. . ... : ... .. . ... : D-3 00 . ...
ROW 29 : B-3 0E . ... : B-2 0E . ... : C#3 15 . ... : A-# 1B . ... : ... .. . ...
ROW 2A : ... .. . ... : ... .. . ... : ... .. . ... : ... .. . ... : ... .. . ...
ROW 2B : G#2 0E . ... : B-3 0E . ... : ... .. . ... : ... .. . ... : ... .. . ...
ROW 2C : ... .. . ... : ... .. . ... : ... .. . ... : ... .. . ... : ... .. . ...
ROW 2D : A-3 0E . ... : G#2 0E . ... : ... .. . ... : ... .. . ... : ... .. . ...
ROW 2E : ... .. . ... : ... .. . ... : ... .. . ... : ... .. . ... : ... .. . ...
ROW 2F : B-2 0E . ... : A-3 0E . ... : ... .. . ... : ... .. . ... : ... .. . ...
ROW 30 : ... .. . ... : ... .. . ... : ... .. . ... : ... .. . ... : D-3 00 . ...
ROW 31 : G#3 0E . ... : B-2 0E . ... : ... .. . ... : A-# 1B . ... : ... .. . ...
ROW 32 : ... .. . ... : ... .. . ... : ... .. . ... : ... .. . ... : ... .. . ...
ROW 33 : B-2 0E . ... : G#3 0E . ... : ... .. . ... : ... .. . ... : ... .. . ...
ROW 34 : ... .. . ... : ... .. . ... : ... .. . ... : ... .. . ... : E-3 00 . W09
ROW 35 : E-3 0E . ... : B-2 0E . ... : C#2 15 . ... : ... .. . ... : ... .. . ...
ROW 36 : ... .. . ... : ... .. . ... : ... .. . ... : ... .. . ... : ... .. . ...
ROW 37 : G#2 0E . ... : E-3 0E . ... : ... .. . ... : ... .. . ... : ... .. . ...
ROW 38 : ... .. . ... : ... .. . ... : ... .. . ... : ... .. . ... : ... .. . ...
ROW 39 : F#3 0E . ... : G#2 0E . ... : --- .. . ... : ... .. . ... : ... .. . ...
ROW 3A : ... .. . ... : ... .. . ... : ... .. . ... : ... .. . ... : ... .. . ...
ROW 3B : B-2 0E . ... : F#3 0E . ... : ... .. . ... : ... .. . ... : ... .. . ...
ROW 3C : ... .. . ... : ... .. . ... : ... .. . ... : ... .. . ... : D-3 00 . ...
ROW 3D : G#3 0E . ... : B-2 0E . ... : C#3 15 . ... : A-# 1B . ... : ... .. . ...
ROW 3E : ... .. . ... : ... .. . ... : ... .. . ... : ... .. . ... : E-3 00 . W09
ROW 3F : B-2 0E . ... : G#3 0E . ... : C#2 15 . ... : ... .. . ... : ... .. . ...

PATTERN 09
ROW 00 : ... .. . ... : ... .. . ... : ... .. . ... : ... .. . ... : D-3 00 . ...
ROW 01 : E-3 0E . ... : B-2 0E . ... : D-3 15 . ... : A-# 1B . ... : ... .. . ...
ROW 02 : ... .. . ... : ... .. . ... : ... .. . ... : ... .. . ... : ... .. . ...
ROW 03 : B-2 0E . ... : E-3 0E . ... : ... .. . ... : ... .. . ... : ... .. . ...
ROW 04 : ... .. . ... : ... .. . ... : ... .. . ... : ... .. . ... : ... .. . ...
ROW 05 : F#2 0E . ... : B-2 0E . ... : ... .. . ... : ... .. . ... : ... .. . ...
ROW 06 : ... .. . ... : ... .. . ... : ... .. . ... : ... .. . ... : ... .. . ...
ROW 07 : B-2 0E . ... : F#2 0E . ... : ... .. . ... : ... .. . ... : ... .. . ...
ROW 08 : ... .. . ... : ... .. . ... : ... .. . ... : ... .. . ... : D-3 00 . ...
ROW 09 : B-3 0E . ... : B-2 0E . ... : ... .. . ... : A-# 1B . ... : ... .. . ...
ROW 0A : ... .. . ... : ... .. . ... : ... .. . ... : ... .. . ... : ... .. . ...
ROW 0B : G#2 0E . ... : B-3 0E . ... : ... .. . ... : ... .. . ... : ... .. . ...
ROW 0C : ... .. . ... : ... .. . ... : ... .. . ... : ... .. . ... : ... .. . ...
ROW 0D : A-3 0E . ... : G#2 0E . ... : ... .. . ... : ... .. . ... : ... .. . ...
ROW 0E : ... .. . ... : ... .. . ... : ... .. . ... : ... .. . ... : ... .. . ...
ROW 0F : B-2 0E . ... : A-3 0E . ... : ... .. . ... : ... .. . ... : ... .. . ...
ROW 10 : ... .. . ... : ... .. . ... : ... .. . ... : ... .. . ... : D-3 00 . ...
ROW 11 : G#3 0E . ... : B-2 0E . ... : ... .. . ... : A-# 1B . ... : ... .. . ...
ROW 12 : ... .. . ... : ... .. . ... : ... .. . ... : ... .. . ... : ... .. . ...
ROW 13 : B-2 0E . ... : G#3 0E . ... : ... .. . ... : ... .. . ... : ... .. . ...
ROW 14 : ... .. . ... : ... .. . ... : ... .. . ... : ... .. . ... : E-3 00 . W09
ROW 15 : E-3 0E . ... : B-2 0E . ... : D-2 15 . ... : ... .. . ... : ... .. . ...
ROW 16 : ... .. . ... : ... .. . ... : ... .. . ... : ... .. . ... : ... .. . ...
ROW 17 : G#2 0E . ... : E-3 0E . ... : ... .. . ... : ... .. . ... : ... .. . ...
ROW 18 : ... .. . ... : ... .. . ... : ... .. . ... : ... .. . ... : ... .. . ...
ROW 19 : F#3 0E . ... : G#2 0E . ... : --- .. . ... : ... .. . ... : ... .. . ...
ROW 1A : ... .. . ... : ... .. . ... : ... .. . ... : ... .. . ... : ... .. . ...
ROW 1B : B-2 0E . ... : F#3 0E . ... : ... .. . ... : ... .. . ... : ... .. . ...
ROW 1C : ... .. . ... : ... .. . ... : ... .. . ... : ... .. . ... : D-3 00 . ...
ROW 1D : G#3 0E . ... : B-2 0E . ... : D-3 15 . ... : A-# 1B . ... : ... .. . ...
ROW 1E : ... .. . ... : ... .. . ... : ... .. . ... : ... .. . ... : ... .. . ...
ROW 1F : B-2 0E . ... : G#3 0E . ... : ... .. . ... : ... .. . ... : ... .. . ...
ROW 20 : ... .. . ... : ... .. . ... : ... .. . ... : ... .. . ... : E-3 00 . W09
ROW 21 : E-3 0E . ... : B-2 0E . ... : D-2 15 . ... : ... .. . ... : ... .. . ...
ROW 22 : ... .. . ... : ... .. . ... : ... .. . ... : ... .. . ... : ... .. . ...
ROW 23 : B-2 0E . ... : E-3 0E . ... : ... .. . ... : ... .. . ... : ... .. . ...
ROW 24 : ... .. . ... : ... .. . ... : ... .. . ... : ... .. . ... : ... .. . ...
ROW 25 : F#2 0E . ... : B-2 0E . ... : ... .. . ... : ... .. . ... : ... .. . ...
ROW 26 : ... .. . ... : ... .. . ... : ... .. . ... : ... .. . ... : ... .. . ...
ROW 27 : B-2 0E . ... : F#2 0E . ... : ... .. . ... : ... .. . ... : ... .. . ...
ROW 28 : ... .. . ... : ... .. . ... : ... .. . ... : ... .. . ... : D-3 00 . ...
ROW 29 : B-3 0E . ... : B-2 0E . ... : D-3 15 . ... : A-# 1B . ... : ... .. . ...
ROW 2A : ... .. . ... : ... .. . ... : ... .. . ... : ... .. . ... : ... .. . ...
ROW 2B : G#2 0E . ... : B-3 0E . ... : ... .. . ... : ... .. . ... : ... .. . ...
ROW 2C : ... .. . ... : ... .. . ... : ... .. . ... : ... .. . ... : ... .. . ...
ROW 2D : A-3 0E . ... : G#2 0E . ... : ... .. . ... : ... .. . ... : ... .. . ...
ROW 2E : ... .. . ... : ... .. . ... : ... .. . ... : ... .. . ... : ... .. . ...
ROW 2F : B-2 0E . ... : A-3 0E . ... : ... .. . ... : ... .. . ... : ... .. . ...
ROW 30 : ... .. . ... : ... .. . ... : ... .. . ... : ... .. . ... : D-3 00 . ...
ROW 31 : G#3 0E . ... : B-2 0E . ... : ... .. . ... : A-# 1B . ... : ... .. . ...
ROW 32 : ... .. . ... : ... .. . ... : ... .. . ... : ... .. . ... : ... .. . ...
ROW 33 : B-2 0E . ... : G#3 0E . ... : ... .. . ... : ... .. . ... : ... .. . ...
ROW 34 : ... .. . ... : ... .. . ... : ... .. . ... : ... .. . ... : E-3 00 . W09
ROW 35 : E-3 0E . ... : B-2 0E . ... : D-2 15 . ... : ... .. . ... : ... .. . ...
ROW 36 : ... .. . ... : ... .. . ... : ... .. . ... : ... .. . ... : ... .. . ...
ROW 37 : G#2 0E . ... : E-3 0E . ... : ... .. . ... : ... .. . ... : ... .. . ...
ROW 38 : ... .. . ... : ... .. . ... : ... .. . ... : ... .. . ... : ... .. . ...
ROW 39 : F#3 0E . ... : G#2 0E . ... : --- .. . ... : ... .. . ... : ... .. . ...
ROW 3A : ... .. . ... : ... .. . ... : ... .. . ... : ... .. . ... : ... .. . ...
ROW 3B : B-2 0E . ... : F#3 0E . ... : ... .. . ... : ... .. . ... : ... .. . ...
ROW 3C : ... .. . ... : ... .. . ... : ... .. . ... : ... .. . ... : D-3 00 . ...
ROW 3D : G#3 0E . ... : B-2 0E . ... : D-3 15 . ... : A-# 1B . ... : ... .. . ...
ROW 3E : ... .. . ... : ... .. . ... : ... .. . ... : ... .. . ... : E-3 00 . W09
ROW 3F : B-2 0E . ... : G#3 0E . ... : D-2 15 . ... : ... .. . ... : ... .. . ...

PATTERN 0A
ROW 00 : ... .. . ... : ... .. . ... : ... .. . ... : ... .. . ... : D-3 00 . ...
ROW 01 : E-4 0E . ... : B-2 0E . ... : C#3 15 . ... : A-# 1B . ... : ... .. . ...
ROW 02 : ... .. . ... : ... .. . ... : ... .. . ... : ... .. . ... : ... .. . ...
ROW 03 : B-3 0E . ... : E-4 0E . ... : ... .. . ... : ... .. . ... : ... .. . ...
ROW 04 : ... .. . ... : ... .. . ... : ... .. . ... : ... .. . ... : ... .. . ...
ROW 05 : F#3 0E . ... : B-3 0E . ... : ... .. . ... : ... .. . ... : ... .. . ...
ROW 06 : ... .. . ... : ... .. . ... : ... .. . ... : ... .. . ... : ... .. . ...
ROW 07 : B-3 0E . ... : F#3 0E . ... : ... .. . ... : ... .. . ... : ... .. . ...
ROW 08 : ... .. . ... : ... .. . ... : ... .. . ... : ... .. . ... : D-3 00 . ...
ROW 09 : B-4 0E . ... : B-3 0E . ... : ... .. . ... : A-# 1B . ... : ... .. . ...
ROW 0A : ... .. . ... : ... .. . ... : ... .. . ... : ... .. . ... : ... .. . ...
ROW 0B : G#3 0E . ... : B-4 0E . ... : ... .. . ... : ... .. . ... : ... .. . ...
ROW 0C : ... .. . ... : ... .. . ... : ... .. . ... : ... .. . ... : ... .. . ...
ROW 0D : A-4 0E . ... : G#3 0E . ... : ... .. . ... : ... .. . ... : ... .. . ...
ROW 0E : ... .. . ... : ... .. . ... : ... .. . ... : ... .. . ... : ... .. . ...
ROW 0F : B-3 0E . ... : A-4 0E . ... : ... .. . ... : ... .. . ... : ... .. . ...
ROW 10 : ... .. . ... : ... .. . ... : ... .. . ... : ... .. . ... : D-3 00 . ...
ROW 11 : G#4 0E . ... : B-3 0E . ... : ... .. . ... : A-# 1B . ... : ... .. . ...
ROW 12 : ... .. . ... : ... .. . ... : ... .. . ... : ... .. . ... : ... .. . ...
ROW 13 : B-3 0E . ... : G#4 0E . ... : ... .. . ... : ... .. . ... : ... .. . ...
ROW 14 : ... .. . ... : ... .. . ... : ... .. . ... : ... .. . ... : E-3 00 . W09
ROW 15 : E-4 0E . ... : B-3 0E . ... : C#2 15 . ... : ... .. . ... : ... .. . ...
ROW 16 : ... .. . ... : ... .. . ... : ... .. . ... : ... .. . ... : ... .. . ...
ROW 17 : G#3 0E . ... : E-4 0E . ... : ... .. . ... : ... .. . ... : ... .. . ...
ROW 18 : ... .. . ... : ... .. . ... : ... .. . ... : ... .. . ... : ... .. . ...
ROW 19 : F#4 0E . ... : G#3 0E . ... : --- .. . ... : ... .. . ... : ... .. . ...
ROW 1A : ... .. . ... : ... .. . ... : ... .. . ... : ... .. . ... : ... .. . ...
ROW 1B : B-3 0E . ... : F#4 0E . ... : ... .. . ... : ... .. . ... : ... .. . ...
ROW 1C : ... .. . ... : ... .. . ... : ... .. . ... : ... .. . ... : D-3 00 . ...
ROW 1D : G#4 0E . ... : B-3 0E . ... : C#3 15 . ... : A-# 1B . ... : ... .. . ...
ROW 1E : ... .. . ... : ... .. . ... : ... .. . ... : ... .. . ... : ... .. . ...
ROW 1F : B-3 0E . ... : G#4 0E . ... : ... .. . ... : ... .. . ... : ... .. . ...
ROW 20 : ... .. . ... : ... .. . ... : ... .. . ... : ... .. . ... : E-3 00 . W09
ROW 21 : E-4 0E . ... : B-3 0E . ... : C#2 15 . ... : ... .. . ... : ... .. . ...
ROW 22 : ... .. . ... : ... .. . ... : ... .. . ... : ... .. . ... : ... .. . ...
ROW 23 : B-3 0E . ... : E-4 0E . ... : ... .. . ... : ... .. . ... : ... .. . ...
ROW 24 : ... .. . ... : ... .. . ... : ... .. . ... : ... .. . ... : ... .. . ...
ROW 25 : F#3 0E . ... : B-3 0E . ... : ... .. . ... : ... .. . ... : ... .. . ...
ROW 26 : ... .. . ... : ... .. . ... : ... .. . ... : ... .. . ... : ... .. . ...
ROW 27 : B-3 0E . ... : F#3 0E . ... : ... .. . ... : ... .. . ... : ... .. . ...
ROW 28 : ... .. . ... : ... .. . ... : ... .. . ... : ... .. . ... : D-3 00 . ...
ROW 29 : B-4 0E . ... : B-3 0E . ... : C#3 15 . ... : A-# 1B . ... : ... .. . ...
ROW 2A : ... .. . ... : ... .. . ... : ... .. . ... : ... .. . ... : ... .. . ...
ROW 2B : G#3 0E . ... : B-4 0E . ... : ... .. . ... : ... .. . ... : ... .. . ...
ROW 2C : ... .. . ... : ... .. . ... : ... .. . ... : ... .. . ... : ... .. . ...
ROW 2D : A-4 0E . ... : G#3 0E . ... : ... .. . ... : ... .. . ... : ... .. . ...
ROW 2E : ... .. . ... : ... .. . ... : ... .. . ... : ... .. . ... : ... .. . ...
ROW 2F : B-3 0E . ... : A-4 0E . ... : ... .. . ... : ... .. . ... : ... .. . ...
ROW 30 : ... .. . ... : ... .. . ... : ... .. . ... : ... .. . ... : D-3 00 . ...
ROW 31 : G#4 0E . ... : B-3 0E . ... : ... .. . ... : A-# 1B . ... : ... .. . ...
ROW 32 : ... .. . ... : ... .. . ... : ... .. . ... : ... .. . ... : ... .. . ...
ROW 33 : B-3 0E . ... : G#4 0E . ... : ... .. . ... : ... .. . ... : ... .. . ...
ROW 34 : ... .. . ... : ... .. . ... : ... .. . ... : ... .. . ... : E-3 00 . W09
ROW 35 : E-4 0E . ... : B-3 0E . ... : C#2 15 . ... : ... .. . ... : ... .. . ...
ROW 36 : ... .. . ... : ... .. . ... : ... .. . ... : ... .. . ... : ... .. . ...
ROW 37 : G#3 0E . ... : E-4 0E . ... : ... .. . ... : ... .. . ... : ... .. . ...
ROW 38 : ... .. . ... : ... .. . ... : ... .. . ... : ... .. . ... : ... .. . ...
ROW 39 : F#4 0E . ... : G#3 0E . ... : --- .. . ... : ... .. . ... : ... .. . ...
ROW 3A : ... .. . ... : ... .. . ... : ... .. . ... : ... .. . ... : ... .. . ...
ROW 3B : B-3 0E . ... : F#4 0E . ... : ... .. . ... : ... .. . ... : ... .. . ...
ROW 3C : ... .. . ... : ... .. . ... : ... .. . ... : ... .. . ... : D-3 00 . ...
ROW 3D : G#4 0E . ... : B-3 0E . ... : C#3 15 . ... : A-# 1B . ... : ... .. . ...
ROW 3E : ... .. . ... : ... .. . ... : ... .. . ... : ... .. . ... : E-3 00 . W09
ROW 3F : B-3 0E . ... : G#4 0E . ... : C#2 15 . ... : ... .. . ... : ... .. . ...

PATTERN 0B
ROW 00 : ... .. . ... : ... .. . ... : ... .. . ... : ... .. . ... : D-3 00 . ...
ROW 01 : E-4 0E . ... : B-3 0E . ... : D-3 15 . ... : A-# 1B . ... : ... .. . ...
ROW 02 : ... .. . ... : ... .. . ... : ... .. . ... : ... .. . ... : ... .. . ...
ROW 03 : B-3 0E . ... : E-4 0E . ... : ... .. . ... : ... .. . ... : ... .. . ...
ROW 04 : ... .. . ... : ... .. . ... : ... .. . ... : ... .. . ... : ... .. . ...
ROW 05 : F#3 0E . ... : B-3 0E . ... : ... .. . ... : ... .. . ... : ... .. . ...
ROW 06 : ... .. . ... : ... .. . ... : ... .. . ... : ... .. . ... : ... .. . ...
ROW 07 : B-3 0E . ... : F#3 0E . ... : ... .. . ... : ... .. . ... : ... .. . ...
ROW 08 : ... .. . ... : ... .. . ... : ... .. . ... : ... .. . ... : D-3 00 . ...
ROW 09 : B-4 0E . ... : B-3 0E . ... : ... .. . ... : A-# 1B . ... : ... .. . ...
ROW 0A : ... .. . ... : ... .. . ... : ... .. . ... : ... .. . ... : ... .. . ...
ROW 0B : G#3 0E . ... : B-4 0E . ... : ... .. . ... : ... .. . ... : ... .. . ...
ROW 0C : ... .. . ... : ... .. . ... : ... .. . ... : ... .. . ... : ... .. . ...
ROW 0D : A-4 0E . ... : G#3 0E . ... : ... .. . ... : ... .. . ... : ... .. . ...
ROW 0E : ... .. . ... : ... .. . ... : ... .. . ... : ... .. . ... : ... .. . ...
ROW 0F : B-3 0E . ... : A-4 0E . ... : ... .. . ... : ... .. . ... : ... .. . ...
ROW 10 : ... .. . ... : ... .. . ... : ... .. . ... : ... .. . ... : D-3 00 . ...
ROW 11 : G#4 0E . ... : B-3 0E . ... : ... .. . ... : A-# 1B . ... : ... .. . ...
ROW 12 : ... .. . ... : ... .. . ... : ... .. . ... : ... .. . ... : ... .. . ...
ROW 13 : B-3 0E . ... : G#4 0E . ... : ... .. . ... : ... .. . ... : ... .. . ...
ROW 14 : ... .. . ... : ... .. . ... : ... .. . ... : ... .. . ... : E-3 00 . W09
ROW 15 : E-4 0E . ... : B-3 0E . ... : D-2 15 . ... : ... .. . ... : ... .. . ...
ROW 16 : ... .. . ... : ... .. . ... : ... .. . ... : ... .. . ... : ... .. . ...
ROW 17 : G#3 0E . ... : E-4 0E . ... : ... .. . ... : ... .. . ... : ... .. . ...
ROW 18 : ... .. . ... : ... .. . ... : ... .. . ... : ... .. . ... : ... .. . ...
ROW 19 : F#4 0E . ... : G#3 0E . ... : --- .. . ... : ... .. . ... : ... .. . ...
ROW 1A : ... .. . ... : ... .. . ... : ... .. . ... : ... .. . ... : ... .. . ...
ROW 1B : B-3 0E . ... : F#4 0E . ... : ... .. . ... : ... .. . ... : ... .. . ...
ROW 1C : ... .. . ... : ... .. . ... : ... .. . ... : ... .. . ... : D-3 00 . ...
ROW 1D : G#4 0E . ... : B-3 0E . ... : D-3 15 . ... : A-# 1B . ... : ... .. . ...
ROW 1E : ... .. . ... : ... .. . ... : ... .. . ... : ... .. . ... : ... .. . ...
ROW 1F : B-3 0E . ... : G#4 0E . ... : ... .. . ... : ... .. . ... : ... .. . ...
ROW 20 : ... .. . ... : ... .. . ... : ... .. . ... : ... .. . ... : E-3 00 . W09
ROW 21 : B-4 0E . ... : B-3 0E . ... : D-2 15 . ... : ... .. . ... : ... .. . ...
ROW 22 : ... .. . ... : ... .. . ... : ... .. . ... : ... .. . ... : ... .. . ...
ROW 23 : ... .. . ... : B-4 0E . ... : ... .. . ... : ... .. . ... : ... .. . ...
ROW 24 : ... .. . ... : ... .. . ... : ... .. . ... : ... .. . ... : ... .. . ...
ROW 25 : ... .. . ... : ... .. . ... : ... .. . ... : ... .. . ... : ... .. . ...
ROW 26 : ... .. . ... : ... .. . ... : ... .. . ... : ... .. . ... : ... .. . ...
ROW 27 : ... .. . ... : ... .. . ... : ... .. . ... : ... .. . ... : ... .. . ...
ROW 28 : ... .. . ... : ... .. . ... : ... .. . ... : ... .. . ... : D-3 00 . ...
ROW 29 : A#4 0E . ... : ... .. . ... : D-3 15 . ... : A-# 1B . ... : ... .. . ...
ROW 2A : ... .. . ... : ... .. . ... : ... .. . ... : ... .. . ... : ... .. . ...
ROW 2B : ... .. . ... : A#4 0E . ... : ... .. . ... : ... .. . ... : ... .. . ...
ROW 2C : ... .. . ... : ... .. . ... : ... .. . ... : ... .. . ... : ... .. . ...
ROW 2D : ... .. . ... : ... .. . ... : ... .. . ... : ... .. . ... : ... .. . ...
ROW 2E : ... .. . ... : ... .. . ... : ... .. . ... : ... .. . ... : ... .. . ...
ROW 2F : ... .. . ... : ... .. . ... : ... .. . ... : ... .. . ... : ... .. . ...
ROW 30 : ... .. . ... : ... .. . ... : ... .. . ... : ... .. . ... : D-3 00 . ...
ROW 31 : A-4 0E . ... : ... .. . ... : ... .. . ... : A-# 1B . ... : ... .. . ...
ROW 32 : ... .. . ... : ... .. . ... : ... .. . ... : ... .. . ... : ... .. . ...
ROW 33 : ... .. . ... : A-4 0E . ... : ... .. . ... : ... .. . ... : ... .. . ...
ROW 34 : ... .. . ... : ... .. . ... : ... .. . ... : ... .. . ... : E-3 00 . W09
ROW 35 : ... .. . ... : ... .. . ... : D-2 15 . ... : ... .. . ... : ... .. . ...
ROW 36 : ... .. . ... : ... .. . ... : ... .. . ... : ... .. . ... : ... .. . ...
ROW 37 : ... .. . ... : ... .. . ... : ... .. . ... : ... .. . ... : ... .. . ...
ROW 38 : ... .. . ... : ... .. . ... : ... .. . ... : ... .. . ... : ... .. . ...
ROW 39 : G#4 0E . ... : ... .. . ... : --- .. . ... : ... .. . ... : ... .. . ...
ROW 3A : ... .. . ... : ... .. . ... : ... .. . ... : ... .. . ... : ... .. . ...
ROW 3B : ... .. . ... : G#4 0E . ... : ... .. . ... : ... .. . ... : ... .. . ...
ROW 3C : ... .. . ... : ... .. . ... : ... .. . ... : ... .. . ... : D-3 00 . ...
ROW 3D : ... .. . ... : ... .. . ... : D-3 15 . ... : A-# 1B . ... : ... .. . ...
ROW 3E : ... .. . ... : ... .. . ... : ... .. . ... : ... .. . ... : E-3 00 . W09
ROW 3F : ... .. . ... : ... .. . ... : D-2 15 . ... : ... .. . ... : ... .. . ...

TRACK 128   0 150 "Stage 7"
COLUMNS : 1 1 1 1 1

ORDER 00 : 00 00 00 00 00
ORDER 01 : 01 01 01 01 01
ORDER 02 : 02 02 02 02 02
ORDER 03 : 03 03 03 03 03
ORDER 04 : 04 04 04 04 04
ORDER 05 : 05 05 05 05 05
ORDER 06 : 06 06 06 06 06

PATTERN 00
ROW 00 : ... .. . ... : ... .. . ... : ... .. . ... : ... .. . ... : C-3 00 . ...
ROW 01 : ... .. . ... : ... .. . ... : ... .. . ... : ... .. . ... : ... .. . ...
ROW 02 : ... .. . ... : ... .. . ... : ... .. . ... : ... .. . ... : C-3 00 . ...
ROW 03 : ... .. . ... : ... .. . ... : ... .. . ... : ... .. . ... : ... .. . ...
ROW 04 : ... .. . ... : ... .. . ... : ... .. . ... : ... .. . ... : E-3 00 . W0A
ROW 05 : ... .. . ... : ... .. . ... : ... .. . ... : ... .. . ... : ... .. . ...
ROW 06 : ... .. . ... : ... .. . ... : ... .. . ... : ... .. . ... : E-3 00 . W0A
ROW 07 : ... .. . ... : ... .. . ... : ... .. . ... : ... .. . ... : ... .. . ...
ROW 08 : ... .. . ... : ... .. . ... : ... .. . ... : ... .. . ... : E-3 00 . W09
ROW 09 : ... .. . ... : ... .. . ... : ... .. . ... : ... .. . ... : ... .. . ...
ROW 0A : ... .. . ... : ... .. . ... : ... .. . ... : ... .. . ... : E-3 00 . W09
ROW 0B : ... .. . ... : ... .. . ... : ... .. . ... : ... .. . ... : ... .. . ...
ROW 0C : ... .. . ... : ... .. . ... : ... .. . ... : ... .. . ... : E-3 00 . W08
ROW 0D : ... .. . ... : ... .. . ... : ... .. . ... : ... .. . ... : ... .. . ...
ROW 0E : ... .. . ... : ... .. . ... : ... .. . ... : ... .. . ... : E-3 00 . W08
ROW 0F : ... .. . ... : ... .. . ... : ... .. . ... : ... .. . ... : ... .. . ...
ROW 10 : ... .. . ... : ... .. . ... : ... .. . ... : ... .. . ... : E-3 00 . W0A
ROW 11 : ... .. . ... : ... .. . ... : ... .. . ... : ... .. . ... : ... .. . ...
ROW 12 : ... .. . ... : ... .. . ... : ... .. . ... : ... .. . ... : E-3 00 . W0A
ROW 13 : ... .. . ... : ... .. . ... : ... .. . ... : ... .. . ... : ... .. . ...
ROW 14 : ... .. . ... : ... .. . ... : ... .. . ... : ... .. . ... : E-3 00 . W09
ROW 15 : ... .. . ... : ... .. . ... : ... .. . ... : ... .. . ... : ... .. . ...
ROW 16 : ... .. . ... : ... .. . ... : ... .. . ... : ... .. . ... : E-3 00 . W09
ROW 17 : ... .. . ... : ... .. . ... : ... .. . ... : ... .. . ... : ... .. . ...
ROW 18 : ... .. . ... : ... .. . ... : ... .. . ... : ... .. . ... : E-3 00 . W08
ROW 19 : ... .. . ... : ... .. . ... : ... .. . ... : ... .. . ... : ... .. . ...
ROW 1A : ... .. . ... : ... .. . ... : ... .. . ... : ... .. . ... : E-3 00 . W08
ROW 1B : ... .. . ... : ... .. . ... : ... .. . ... : ... .. . ... : ... .. . ...
ROW 1C : ... .. . ... : ... .. . ... : ... .. . ... : ... .. . ... : D-3 00 . ...
ROW 1D : ... .. . ... : ... .. . ... : ... .. . ... : A-# 1B . ... : ... .. . ...
ROW 1E : ... .. . ... : ... .. . ... : ... .. . ... : ... .. . ... : D-3 00 . ...
ROW 1F : ... .. . ... : ... .. . ... : ... .. . ... : A-# 1B . ... : ... .. . D00
ROW 20 : ... .. . ... : ... .. . ... : ... .. . ... : ... .. . ... : ... .. . ...
ROW 21 : ... .. . ... : ... .. . ... : ... .. . ... : ... .. . ... : ... .. . ...
ROW 22 : ... .. . ... : ... .. . ... : ... .. . ... : ... .. . ... : ... .. . ...
ROW 23 : ... .. . ... : ... .. . ... : ... .. . ... : ... .. . ... : ... .. . ...
ROW 24 : ... .. . ... : ... .. . ... : ... .. . ... : ... .. . ... : ... .. . ...
ROW 25 : ... .. . ... : ... .. . ... : ... .. . ... : ... .. . ... : ... .. . ...
ROW 26 : ... .. . ... : ... .. . ... : ... .. . ... : ... .. . ... : ... .. . ...
ROW 27 : ... .. . ... : ... .. . ... : ... .. . ... : ... .. . ... : ... .. . ...
ROW 28 : ... .. . ... : ... .. . ... : ... .. . ... : ... .. . ... : ... .. . ...
ROW 29 : ... .. . ... : ... .. . ... : ... .. . ... : ... .. . ... : ... .. . ...
ROW 2A : ... .. . ... : ... .. . ... : ... .. . ... : ... .. . ... : ... .. . ...
ROW 2B : ... .. . ... : ... .. . ... : ... .. . ... : ... .. . ... : ... .. . ...
ROW 2C : ... .. . ... : ... .. . ... : ... .. . ... : ... .. . ... : ... .. . ...
ROW 2D : ... .. . ... : ... .. . ... : ... .. . ... : ... .. . ... : ... .. . ...
ROW 2E : ... .. . ... : ... .. . ... : ... .. . ... : ... .. . ... : ... .. . ...
ROW 2F : ... .. . ... : ... .. . ... : ... .. . ... : ... .. . ... : ... .. . ...
ROW 30 : ... .. . ... : ... .. . ... : ... .. . ... : ... .. . ... : ... .. . ...
ROW 31 : ... .. . ... : ... .. . ... : ... .. . ... : ... .. . ... : ... .. . ...
ROW 32 : ... .. . ... : ... .. . ... : ... .. . ... : ... .. . ... : ... .. . ...
ROW 33 : ... .. . ... : ... .. . ... : ... .. . ... : ... .. . ... : ... .. . ...
ROW 34 : ... .. . ... : ... .. . ... : ... .. . ... : ... .. . ... : ... .. . ...
ROW 35 : ... .. . ... : ... .. . ... : ... .. . ... : ... .. . ... : ... .. . ...
ROW 36 : ... .. . ... : ... .. . ... : ... .. . ... : ... .. . ... : ... .. . ...
ROW 37 : ... .. . ... : ... .. . ... : ... .. . ... : ... .. . ... : ... .. . ...
ROW 38 : ... .. . ... : ... .. . ... : ... .. . ... : ... .. . ... : ... .. . ...
ROW 39 : ... .. . ... : ... .. . ... : ... .. . ... : ... .. . ... : ... .. . ...
ROW 3A : ... .. . ... : ... .. . ... : ... .. . ... : ... .. . ... : ... .. . ...
ROW 3B : ... .. . ... : ... .. . ... : ... .. . ... : ... .. . ... : ... .. . ...
ROW 3C : ... .. . ... : ... .. . ... : ... .. . ... : ... .. . ... : ... .. . ...
ROW 3D : ... .. . ... : ... .. . ... : ... .. . ... : ... .. . ... : ... .. . ...
ROW 3E : ... .. . ... : ... .. . ... : ... .. . ... : ... .. . ... : ... .. . ...
ROW 3F : ... .. . ... : ... .. . ... : ... .. . ... : ... .. . ... : ... .. . ...
ROW 40 : ... .. . ... : ... .. . ... : ... .. . ... : ... .. . ... : ... .. . ...
ROW 41 : ... .. . ... : ... .. . ... : ... .. . ... : ... .. . ... : ... .. . ...
ROW 42 : ... .. . ... : ... .. . ... : ... .. . ... : ... .. . ... : ... .. . ...
ROW 43 : ... .. . ... : ... .. . ... : ... .. . ... : ... .. . ... : ... .. . ...
ROW 44 : ... .. . ... : ... .. . ... : ... .. . ... : ... .. . ... : ... .. . ...
ROW 45 : ... .. . ... : ... .. . ... : ... .. . ... : ... .. . ... : ... .. . ...
ROW 46 : ... .. . ... : ... .. . ... : ... .. . ... : ... .. . ... : ... .. . ...
ROW 47 : ... .. . ... : ... .. . ... : ... .. . ... : ... .. . ... : ... .. . ...
ROW 48 : ... .. . ... : ... .. . ... : ... .. . ... : ... .. . ... : ... .. . ...
ROW 49 : ... .. . ... : ... .. . ... : ... .. . ... : ... .. . ... : ... .. . ...
ROW 4A : ... .. . ... : ... .. . ... : ... .. . ... : ... .. . ... : ... .. . ...
ROW 4B : ... .. . ... : ... .. . ... : ... .. . ... : ... .. . ... : ... .. . ...
ROW 4C : ... .. . ... : ... .. . ... : ... .. . ... : ... .. . ... : ... .. . ...
ROW 4D : ... .. . ... : ... .. . ... : ... .. . ... : ... .. . ... : ... .. . ...
ROW 4E : ... .. . ... : ... .. . ... : ... .. . ... : ... .. . ... : ... .. . ...
ROW 4F : ... .. . ... : ... .. . ... : ... .. . ... : ... .. . ... : ... .. . ...
ROW 50 : ... .. . ... : ... .. . ... : ... .. . ... : ... .. . ... : ... .. . ...
ROW 51 : ... .. . ... : ... .. . ... : ... .. . ... : ... .. . ... : ... .. . ...
ROW 52 : ... .. . ... : ... .. . ... : ... .. . ... : ... .. . ... : ... .. . ...
ROW 53 : ... .. . ... : ... .. . ... : ... .. . ... : ... .. . ... : ... .. . ...
ROW 54 : ... .. . ... : ... .. . ... : ... .. . ... : ... .. . ... : ... .. . ...
ROW 55 : ... .. . ... : ... .. . ... : ... .. . ... : ... .. . ... : ... .. . ...
ROW 56 : ... .. . ... : ... .. . ... : ... .. . ... : ... .. . ... : ... .. . ...
ROW 57 : ... .. . ... : ... .. . ... : ... .. . ... : ... .. . ... : ... .. . ...
ROW 58 : ... .. . ... : ... .. . ... : ... .. . ... : ... .. . ... : ... .. . ...
ROW 59 : ... .. . ... : ... .. . ... : ... .. . ... : ... .. . ... : ... .. . ...
ROW 5A : ... .. . ... : ... .. . ... : ... .. . ... : ... .. . ... : ... .. . ...
ROW 5B : ... .. . ... : ... .. . ... : ... .. . ... : ... .. . ... : ... .. . ...
ROW 5C : ... .. . ... : ... .. . ... : ... .. . ... : ... .. . ... : ... .. . ...
ROW 5D : ... .. . ... : ... .. . ... : ... .. . ... : ... .. . ... : ... .. . ...
ROW 5E : ... .. . ... : ... .. . ... : ... .. . ... : ... .. . ... : ... .. . ...
ROW 5F : ... .. . ... : ... .. . ... : ... .. . ... : ... .. . ... : ... .. . ...
ROW 60 : ... .. . ... : ... .. . ... : ... .. . ... : ... .. . ... : ... .. . ...
ROW 61 : ... .. . ... : ... .. . ... : ... .. . ... : ... .. . ... : ... .. . ...
ROW 62 : ... .. . ... : ... .. . ... : ... .. . ... : ... .. . ... : ... .. . ...
ROW 63 : ... .. . ... : ... .. . ... : ... .. . ... : ... .. . ... : ... .. . ...
ROW 64 : ... .. . ... : ... .. . ... : ... .. . ... : ... .. . ... : ... .. . ...
ROW 65 : ... .. . ... : ... .. . ... : ... .. . ... : ... .. . ... : ... .. . ...
ROW 66 : ... .. . ... : ... .. . ... : ... .. . ... : ... .. . ... : ... .. . ...
ROW 67 : ... .. . ... : ... .. . ... : ... .. . ... : ... .. . ... : ... .. . ...
ROW 68 : ... .. . ... : ... .. . ... : ... .. . ... : ... .. . ... : ... .. . ...
ROW 69 : ... .. . ... : ... .. . ... : ... .. . ... : ... .. . ... : ... .. . ...
ROW 6A : ... .. . ... : ... .. . ... : ... .. . ... : ... .. . ... : ... .. . ...
ROW 6B : ... .. . ... : ... .. . ... : ... .. . ... : ... .. . ... : ... .. . ...
ROW 6C : ... .. . ... : ... .. . ... : ... .. . ... : ... .. . ... : ... .. . ...
ROW 6D : ... .. . ... : ... .. . ... : ... .. . ... : ... .. . ... : ... .. . ...
ROW 6E : ... .. . ... : ... .. . ... : ... .. . ... : ... .. . ... : ... .. . ...
ROW 6F : ... .. . ... : ... .. . ... : ... .. . ... : ... .. . ... : ... .. . ...
ROW 70 : ... .. . ... : ... .. . ... : ... .. . ... : ... .. . ... : ... .. . ...
ROW 71 : ... .. . ... : ... .. . ... : ... .. . ... : ... .. . ... : ... .. . ...
ROW 72 : ... .. . ... : ... .. . ... : ... .. . ... : ... .. . ... : ... .. . ...
ROW 73 : ... .. . ... : ... .. . ... : ... .. . ... : ... .. . ... : ... .. . ...
ROW 74 : ... .. . ... : ... .. . ... : ... .. . ... : ... .. . ... : ... .. . ...
ROW 75 : ... .. . ... : ... .. . ... : ... .. . ... : ... .. . ... : ... .. . ...
ROW 76 : ... .. . ... : ... .. . ... : ... .. . ... : ... .. . ... : ... .. . ...
ROW 77 : ... .. . ... : ... .. . ... : ... .. . ... : ... .. . ... : ... .. . ...
ROW 78 : ... .. . ... : ... .. . ... : ... .. . ... : ... .. . ... : ... .. . ...
ROW 79 : ... .. . ... : ... .. . ... : ... .. . ... : ... .. . ... : ... .. . ...
ROW 7A : ... .. . ... : ... .. . ... : ... .. . ... : ... .. . ... : ... .. . ...
ROW 7B : ... .. . ... : ... .. . ... : ... .. . ... : ... .. . ... : ... .. . ...
ROW 7C : ... .. . ... : ... .. . ... : ... .. . ... : ... .. . ... : ... .. . ...
ROW 7D : ... .. . ... : ... .. . ... : ... .. . ... : ... .. . ... : ... .. . ...
ROW 7E : ... .. . ... : ... .. . ... : ... .. . ... : ... .. . ... : ... .. . ...
ROW 7F : ... .. . ... : ... .. . ... : ... .. . ... : ... .. . ... : ... .. . ...

PATTERN 01
ROW 00 : ... .. . ... : ... .. . ... : ... .. . ... : ... .. . ... : C-3 00 . ...
ROW 01 : D-3 01 . ... : G-2 01 . ... : G-2 16 . ... : ... .. . ... : ... .. . ...
ROW 02 : ... .. . ... : ... .. . ... : ... .. . ... : ... .. . ... : ... .. . ...
ROW 03 : ... .. . ... : ... .. . ... : ... .. . ... : ... .. . ... : ... .. . ...
ROW 04 : ... .. . ... : ... .. . ... : ... .. . ... : ... .. . ... : D-3 00 . ...
ROW 05 : ... .. . ... : ... .. . ... : G-2 16 . ... : A-# 1B . ... : ... .. . ...
ROW 06 : ... .. . ... : ... .. . ... : ... .. . ... : ... .. . ... : ... .. . ...
ROW 07 : D-3 01 . ... : G-2 01 . ... : G-2 16 . ... : ... .. . ... : ... .. . ...
ROW 08 : ... .. . ... : ... .. . ... : ... .. . ... : ... .. . ... : C-3 00 . ...
ROW 09 : ... .. . ... : ... .. . ... : ... .. . ... : ... .. . ... : ... .. . ...
ROW 0A : ... .. . ... : ... .. . ... : ... .. . ... : ... .. . ... : C-3 00 . ...
ROW 0B : ... .. . ... : ... .. . ... : G-2 16 . ... : ... .. . ... : ... .. . ...
ROW 0C : ... .. . ... : ... .. . ... : ... .. . ... : ... .. . ... : D-3 00 . ...
ROW 0D : C-3 01 . ... : G-2 01 . ... : G-2 16 . ... : A-# 1B . ... : ... .. . ...
ROW 0E : ... .. . ... : ... .. . ... : ... .. . ... : ... .. . ... : ... .. . ...
ROW 0F : ... .. . ... : ... .. . ... : ... .. . ... : ... .. . ... : ... .. . ...
ROW 10 : ... .. . ... : ... .. . ... : ... .. . ... : ... .. . ... : C-3 00 . ...
ROW 11 : D-3 01 . ... : G-2 01 . ... : G-2 16 . ... : ... .. . ... : ... .. . ...
ROW 12 : ... .. . ... : ... .. . ... : ... .. . ... : ... .. . ... : ... .. . ...
ROW 13 : ... .. . ... : ... .. . ... : ... .. . ... : ... .. . ... : ... .. . ...
ROW 14 : ... .. . ... : ... .. . ... : ... .. . ... : ... .. . ... : D-3 00 . ...
ROW 15 : ... .. . ... : ... .. . ... : G-2 16 . ... : A-# 1B . ... : ... .. . ...
ROW 16 : ... .. . ... : ... .. . ... : ... .. . ... : ... .. . ... : C-3 00 . ...
ROW 17 : D-3 01 . ... : G-2 01 . ... : G-2 16 . ... : ... .. . ... : ... .. . ...
ROW 18 : ... .. . ... : ... .. . ... : ... .. . ... : ... .. . ... : ... .. . ...
ROW 19 : ... .. . ... : ... .. . ... : ... .. . ... : ... .. . ... : ... .. . ...
ROW 1A : ... .. . ... : ... .. . ... : ... .. . ... : ... .. . ... : C-3 00 . ...
ROW 1B : ... .. . ... : ... .. . ... : G-2 16 . ... : ... .. . ... : ... .. . ...
ROW 1C : ... .. . ... : ... .. . ... : ... .. . ... : ... .. . ... : D-3 00 . ...
ROW 1D : E-3 01 . ... : G-2 01 . ... : G-2 16 . ... : A-# 1B . ... : ... .. . ...
ROW 1E : ... .. . ... : ... .. . ... : ... .. . ... : ... .. . ... : ... .. . ...
ROW 1F : ... .. . ... : ... .. . ... : ... .. . ... : ... .. . ... : ... .. . ...
ROW 20 : ... .. . ... : ... .. . ... : ... .. . ... : ... .. . ... : C-3 00 . ...
ROW 21 : F-3 01 . ... : A#2 01 . ... : A#2 16 . ... : ... .. . ... : ... .. . ...
ROW 22 : ... .. . ... : ... .. . ... : ... .. . ... : ... .. . ... : ... .. . ...
ROW 23 : ... .. . ... : ... .. . ... : ... .. . ... : ... .. . ... : ... .. . ...
ROW 24 : ... .. . ... : ... .. . ... : ... .. . ... : ... .. . ... : D-3 00 . ...
ROW 25 : ... .. . ... : ... .. . ... : A#2 16 . ... : A-# 1B . ... : ... .. . ...
ROW 26 : ... .. . ... : ... .. . ... : ... .. . ... : ... .. . ... : ... .. . ...
ROW 27 : F-3 01 . ... : A#2 01 . ... : A#2 16 . ... : ... .. . ... : ... .. . ...
ROW 28 : ... .. . ... : ... .. . ... : ... .. . ... : ... .. . ... : C-3 00 . ...
ROW 29 : ... .. . ... : ... .. . ... : ... .. . ... : ... .. . ... : ... .. . ...
ROW 2A : ... .. . ... : ... .. . ... : ... .. . ... : ... .. . ... : C-3 00 . ...
ROW 2B : ... .. . ... : ... .. . ... : A#2 16 . ... : ... .. . ... : ... .. . ...
ROW 2C : ... .. . ... : ... .. . ... : ... .. . ... : ... .. . ... : D-3 00 . ...
ROW 2D : E-3 01 . ... : A#2 01 . ... : A#2 16 . ... : A-# 1B . ... : ... .. . ...
ROW 2E : ... .. . ... : ... .. . ... : ... .. . ... : ... .. . ... : ... .. . ...
ROW 2F : ... .. . ... : ... .. . ... : ... .. . ... : ... .. . ... : ... .. . ...
ROW 30 : ... .. . ... : ... .. . ... : ... .. . ... : ... .. . ... : C-3 00 . ...
ROW 31 : F-3 01 . ... : A#2 01 . ... : A#2 16 . ... : ... .. . ... : ... .. . ...
ROW 32 : ... .. . ... : ... .. . ... : ... .. . ... : ... .. . ... : ... .. . ...
ROW 33 : ... .. . ... : ... .. . ... : ... .. . ... : ... .. . ... : ... .. . ...
ROW 34 : ... .. . ... : ... .. . ... : ... .. . ... : ... .. . ... : D-3 00 . ...
ROW 35 : ... .. . ... : ... .. . ... : A#2 16 . ... : A-# 1B . ... : ... .. . ...
ROW 36 : ... .. . ... : ... .. . ... : ... .. . ... : ... .. . ... : C-3 00 . ...
ROW 37 : F-3 01 . ... : A#2 01 . ... : A#2 16 . ... : ... .. . ... : ... .. . ...
ROW 38 : ... .. . ... : ... .. . ... : ... .. . ... : ... .. . ... : ... .. . ...
ROW 39 : ... .. . ... : ... .. . ... : ... .. . ... : ... .. . ... : ... .. . ...
ROW 3A : ... .. . ... : ... .. . ... : ... .. . ... : ... .. . ... : C-3 00 . ...
ROW 3B : ... .. . ... : ... .. . ... : A#2 16 . ... : ... .. . ... : ... .. . ...
ROW 3C : ... .. . ... : ... .. . ... : ... .. . ... : ... .. . ... : D-3 00 . ...
ROW 3D : E-3 01 . ... : A#2 01 . ... : A#2 16 . ... : A-# 1B . ... : ... .. . ...
ROW 3E : ... .. . ... : ... .. . ... : ... .. . ... : ... .. . ... : ... .. . ...
ROW 3F : ... .. . ... : ... .. . ... : ... .. . ... : ... .. . ... : ... .. . ...
ROW 40 : ... .. . ... : ... .. . ... : ... .. . ... : ... .. . ... : C-3 00 . ...
ROW 41 : D-3 01 . ... : G-2 01 . ... : G-2 16 . ... : ... .. . ... : ... .. . ...
ROW 42 : ... .. . ... : ... .. . ... : ... .. . ... : ... .. . ... : ... .. . ...
ROW 43 : ... .. . ... : ... .. . ... : ... .. . ... : ... .. . ... : ... .. . ...
ROW 44 : ... .. . ... : ... .. . ... : ... .. . ... : ... .. . ... : D-3 00 . ...
ROW 45 : ... .. . ... : ... .. . ... : G-2 16 . ... : A-# 1B . ... : ... .. . ...
ROW 46 : ... .. . ... : ... .. . ... : ... .. . ... : ... .. . ... : ... .. . ...
ROW 47 : D-3 01 . ... : G-2 01 . ... : G-2 16 . ... : ... .. . ... : ... .. . ...
ROW 48 : ... .. . ... : ... .. . ... : ... .. . ... : ... .. . ... : C-3 00 . ...
ROW 49 : ... .. . ... : ... .. . ... : ... .. . ... : ... .. . ... : ... .. . ...
ROW 4A : ... .. . ... : ... .. . ... : ... .. . ... : ... .. . ... : C-3 00 . ...
ROW 4B : ... .. . ... : ... .. . ... : G-2 16 . ... : ... .. . ... : ... .. . ...
ROW 4C : ... .. . ... : ... .. . ... : ... .. . ... : ... .. . ... : D-3 00 . ...
ROW 4D : C-3 01 . ... : G-2 01 . ... : G-2 16 . ... : A-# 1B . ... : ... .. . ...
ROW 4E : ... .. . ... : ... .. . ... : ... .. . ... : ... .. . ... : ... .. . ...
ROW 4F : ... .. . ... : ... .. . ... : ... .. . ... : ... .. . ... : ... .. . ...
ROW 50 : ... .. . ... : ... .. . ... : ... .. . ... : ... .. . ... : C-3 00 . ...
ROW 51 : D-3 01 . ... : G-2 01 . ... : G-2 16 . ... : ... .. . ... : ... .. . ...
ROW 52 : ... .. . ... : ... .. . ... : ... .. . ... : ... .. . ... : ... .. . ...
ROW 53 : ... .. . ... : ... .. . ... : ... .. . ... : ... .. . ... : ... .. . ...
ROW 54 : ... .. . ... : ... .. . ... : ... .. . ... : ... .. . ... : D-3 00 . ...
ROW 55 : ... .. . ... : ... .. . ... : G-2 16 . ... : A-# 1B . ... : ... .. . ...
ROW 56 : ... .. . ... : ... .. . ... : ... .. . ... : ... .. . ... : C-3 00 . ...
ROW 57 : D-3 01 . ... : G-2 01 . ... : G-2 16 . ... : ... .. . ... : ... .. . ...
ROW 58 : ... .. . ... : ... .. . ... : ... .. . ... : ... .. . ... : ... .. . ...
ROW 59 : ... .. . ... : ... .. . ... : ... .. . ... : ... .. . ... : ... .. . ...
ROW 5A : ... .. . ... : ... .. . ... : ... .. . ... : ... .. . ... : C-3 00 . ...
ROW 5B : ... .. . ... : ... .. . ... : G-2 16 . ... : ... .. . ... : ... .. . ...
ROW 5C : ... .. . ... : ... .. . ... : ... .. . ... : ... .. . ... : D-3 00 . ...
ROW 5D : E-3 01 . ... : G-2 01 . ... : G-2 16 . ... : A-# 1B . ... : ... .. . ...
ROW 5E : ... .. . ... : ... .. . ... : ... .. . ... : ... .. . ... : ... .. . ...
ROW 5F : ... .. . ... : ... .. . ... : ... .. . ... : ... .. . ... : ... .. . ...
ROW 60 : ... .. . ... : ... .. . ... : ... .. . ... : ... .. . ... : C-3 00 . ...
ROW 61 : F-3 01 . ... : A#2 01 . ... : A#2 16 . ... : ... .. . ... : ... .. . ...
ROW 62 : ... .. . ... : ... .. . ... : ... .. . ... : ... .. . ... : ... .. . ...
ROW 63 : ... .. . ... : ... .. . ... : ... .. . ... : ... .. . ... : ... .. . ...
ROW 64 : ... .. . ... : ... .. . ... : ... .. . ... : ... .. . ... : D-3 00 . ...
ROW 65 : G-3 01 . ... : A#2 01 . ... : A#2 16 . ... : A-# 1B . ... : ... .. . ...
ROW 66 : ... .. . ... : ... .. . ... : ... .. . ... : ... .. . ... : ... .. . ...
ROW 67 : ... .. . ... : ... .. . ... : A#2 16 . ... : ... .. . ... : ... .. . ...
ROW 68 : ... .. . ... : ... .. . ... : ... .. . ... : ... .. . ... : C-3 00 . ...
ROW 69 : F-3 01 . ... : A#2 01 . ... : ... .. . ... : ... .. . ... : ... .. . ...
ROW 6A : ... .. . ... : ... .. . ... : ... .. . ... : ... .. . ... : C-3 00 . ...
ROW 6B : E-3 01 . ... : A#2 01 . ... : A#2 16 . ... : ... .. . ... : ... .. . ...
ROW 6C : ... .. . ... : ... .. . ... : ... .. . ... : ... .. . ... : D-3 00 . ...
ROW 6D : D-3 01 . ... : A#2 01 . ... : A#2 16 . ... : A-# 1B . ... : ... .. . ...
ROW 6E : ... .. . ... : ... .. . ... : ... .. . ... : ... .. . ... : ... .. . ...
ROW 6F : ... .. . ... : ... .. . ... : ... .. . ... : ... .. . ... : ... .. . ...
ROW 70 : ... .. . ... : ... .. . ... : ... .. . ... : ... .. . ... : C-3 00 . ...
ROW 71 : E-3 01 . ... : A#2 01 . ... : A#2 16 . ... : ... .. . ... : ... .. . ...
ROW 72 : ... .. . ... : ... .. . ... : ... .. . ... : ... .. . ... : ... .. . ...
ROW 73 : ... .. . ... : ... .. . ... : ... .. . ... : ... .. . ... : ... .. . ...
ROW 74 : ... .. . ... : ... .. . ... : ... .. . ... : ... .. . ... : D-3 00 . ...
ROW 75 : C-3 01 . ... : A#2 01 . ... : A#2 16 . ... : A-# 1B . ... : ... .. . ...
ROW 76 : ... .. . ... : ... .. . ... : ... .. . ... : ... .. . ... : C-3 00 . ...
ROW 77 : ... .. . ... : ... .. . ... : A#2 16 . ... : ... .. . ... : ... .. . ...
ROW 78 : ... .. . ... : ... .. . ... : ... .. . ... : ... .. . ... : ... .. . ...
ROW 79 : E-3 01 . ... : A#2 01 . ... : ... .. . ... : ... .. . ... : ... .. . ...
ROW 7A : ... .. . ... : ... .. . ... : ... .. . ... : ... .. . ... : C-3 00 . ...
ROW 7B : ... .. . ... : ... .. . ... : A#2 16 . ... : ... .. . ... : ... .. . ...
ROW 7C : ... .. . ... : ... .. . ... : ... .. . ... : ... .. . ... : D-3 00 . ...
ROW 7D : D-3 01 . ... : A#2 01 . ... : A#2 16 . ... : A-# 1B . ... : ... .. . ...
ROW 7E : ... .. . ... : ... .. . ... : ... .. . ... : ... .. . ... : D-3 00 . ...
ROW 7F : ... .. . ... : ... .. . ... : ... .. . ... : A-# 1B . ... : ... .. . ...

PATTERN 02
ROW 00 : ... .. . ... : ... .. . ... : ... .. . ... : ... .. . ... : C-3 00 . ...
ROW 01 : D-3 01 . ... : G-2 01 . ... : G-2 16 . ... : ... .. . ... : ... .. . ...
ROW 02 : ... .. . ... : ... .. . ... : ... .. . ... : ... .. . ... : ... .. . ...
ROW 03 : ... .. . ... : ... .. . ... : ... .. . ... : ... .. . ... : ... .. . ...
ROW 04 : ... .. . ... : ... .. . ... : ... .. . ... : ... .. . ... : D-3 00 . ...
ROW 05 : ... .. . ... : ... .. . ... : G-2 16 . ... : A-# 1B . ... : ... .. . ...
ROW 06 : ... .. . ... : ... .. . ... : ... .. . ... : ... .. . ... : ... .. . ...
ROW 07 : D-3 01 . ... : G-2 01 . ... : G-2 16 . ... : ... .. . ... : ... .. . ...
ROW 08 : ... .. . ... : ... .. . ... : ... .. . ... : ... .. . ... : C-3 00 . ...
ROW 09 : ... .. . ... : ... .. . ... : ... .. . ... : ... .. . ... : ... .. . ...
ROW 0A : ... .. . ... : ... .. . ... : ... .. . ... : ... .. . ... : C-3 00 . ...
ROW 0B : ... .. . ... : ... .. . ... : G-2 16 . ... : ... .. . ... : ... .. . ...
ROW 0C : ... .. . ... : ... .. . ... : ... .. . ... : ... .. . ... : D-3 00 . ...
ROW 0D : C-3 01 . ... : G-2 01 . ... : G-2 16 . ... : A-# 1B . ... : ... .. . ...
ROW 0E : ... .. . ... : ... .. . ... : ... .. . ... : ... .. . ... : ... .. . ...
ROW 0F : ... .. . ... : ... .. . ... : ... .. . ... : ... .. . ... : ... .. . ...
ROW 10 : ... .. . ... : ... .. . ... : ... .. . ... : ... .. . ... : C-3 00 . ...
ROW 11 : D-3 01 . ... : G-2 01 . ... : G-2 16 . ... : ... .. . ... : ... .. . ...
ROW 12 : ... .. . ... : ... .. . ... : ... .. . ... : ... .. . ... : ... .. . ...
ROW 13 : ... .. . ... : ... .. . ... : ... .. . ... : ... .. . ... : ... .. . ...
ROW 14 : ... .. . ... : ... .. . ... : ... .. . ... : ... .. . ... : D-3 00 . ...
ROW 15 : ... .. . ... : ... .. . ... : G-2 16 . ... : A-# 1B . ... : ... .. . ...
ROW 16 : ... .. . ... : ... .. . ... : ... .. . ... : ... .. . ... : C-3 00 . ...
ROW 17 : D-3 01 . ... : G-2 01 . ... : G-2 16 . ... : ... .. . ... : ... .. . ...
ROW 18 : ... .. . ... : ... .. . ... : ... .. . ... : ... .. . ... : ... .. . ...
ROW 19 : ... .. . ... : ... .. . ... : ... .. . ... : ... .. . ... : ... .. . ...
ROW 1A : ... .. . ... : ... .. . ... : ... .. . ... : ... .. . ... : C-3 00 . ...
ROW 1B : ... .. . ... : ... .. . ... : G-2 16 . ... : ... .. . ... : ... .. . ...
ROW 1C : ... .. . ... : ... .. . ... : ... .. . ... : ... .. . ... : D-3 00 . ...
ROW 1D : E-3 01 . ... : G-2 01 . ... : G-2 16 . ... : A-# 1B . ... : ... .. . ...
ROW 1E : ... .. . ... : ... .. . ... : ... .. . ... : ... .. . ... : ... .. . ...
ROW 1F : ... .. . ... : ... .. . ... : ... .. . ... : ... .. . ... : ... .. . ...
ROW 20 : ... .. . ... : ... .. . ... : ... .. . ... : ... .. . ... : C-3 00 . ...
ROW 21 : F-3 01 . ... : A#2 01 . ... : A#2 16 . ... : ... .. . ... : ... .. . ...
ROW 22 : ... .. . ... : ... .. . ... : ... .. . ... : ... .. . ... : ... .. . ...
ROW 23 : ... .. . ... : ... .. . ... : ... .. . ... : ... .. . ... : ... .. . ...
ROW 24 : ... .. . ... : ... .. . ... : ... .. . ... : ... .. . ... : D-3 00 . ...
ROW 25 : ... .. . ... : ... .. . ... : A#2 16 . ... : A-# 1B . ... : ... .. . ...
ROW 26 : ... .. . ... : ... .. . ... : ... .. . ... : ... .. . ... : ... .. . ...
ROW 27 : F-3 01 . ... : A#2 01 . ... : A#2 16 . ... : ... .. . ... : ... .. . ...
ROW 28 : ... .. . ... : ... .. . ... : ... .. . ... : ... .. . ... : C-3 00 . ...
ROW 29 : ... .. . ... : ... .. . ... : ... .. . ... : ... .. . ... : ... .. . ...
ROW 2A : ... .. . ... : ... .. . ... : ... .. . ... : ... .. . ... : C-3 00 . ...
ROW 2B : ... .. . ... : ... .. . ... : A#2 16 . ... : ... .. . ... : ... .. . ...
ROW 2C : ... .. . ... : ... .. . ... : ... .. . ... : ... .. . ... : D-3 00 . ...
ROW 2D : E-3 01 . ... : A#2 01 . ... : A#2 16 . ... : A-# 1B . ... : ... .. . ...
ROW 2E : ... .. . ... : ... .. . ... : ... .. . ... : ... .. . ... : ... .. . ...
ROW 2F : ... .. . ... : ... .. . ... : ... .. . ... : ... .. . ... : ... .. . ...
ROW 30 : ... .. . ... : ... .. . ... : ... .. . ... : ... .. . ... : C-3 00 . ...
ROW 31 : F-3 01 . ... : A#2 01 . ... : A#2 16 . ... : ... .. . ... : ... .. . ...
ROW 32 : ... .. . ... : ... .. . ... : ... .. . ... : ... .. . ... : ... .. . ...
ROW 33 : ... .. . ... : ... .. . ... : ... .. . ... : ... .. . ... : ... .. . ...
ROW 34 : ... .. . ... : ... .. . ... : ... .. . ... : ... .. . ... : D-3 00 . ...
ROW 35 : ... .. . ... : ... .. . ... : A#2 16 . ... : A-# 1B . ... : ... .. . ...
ROW 36 : ... .. . ... : ... .. . ... : ... .. . ... : ... .. . ... : C-3 00 . ...
ROW 37 : F-3 01 . ... : A#2 01 . ... : A#2 16 . ... : ... .. . ... : ... .. . ...
ROW 38 : ... .. . ... : ... .. . ... : ... .. . ... : ... .. . ... : ... .. . ...
ROW 39 : ... .. . ... : ... .. . ... : ... .. . ... : ... .. . ... : ... .. . ...
ROW 3A : ... .. . ... : ... .. . ... : ... .. . ... : ... .. . ... : C-3 00 . ...
ROW 3B : ... .. . ... : ... .. . ... : A#2 16 . ... : ... .. . ... : ... .. . ...
ROW 3C : ... .. . ... : ... .. . ... : ... .. . ... : ... .. . ... : D-3 00 . ...
ROW 3D : E-3 01 . ... : A#2 01 . ... : A#2 16 . ... : A-# 1B . ... : ... .. . ...
ROW 3E : ... .. . ... : ... .. . ... : ... .. . ... : ... .. . ... : ... .. . ...
ROW 3F : ... .. . ... : ... .. . ... : ... .. . ... : ... .. . ... : ... .. . ...
ROW 40 : ... .. . ... : ... .. . ... : ... .. . ... : ... .. . ... : C-3 00 . ...
ROW 41 : G-3 01 . ... : C-3 01 . ... : C-3 16 . ... : ... .. . ... : ... .. . ...
ROW 42 : ... .. . ... : ... .. . ... : ... .. . ... : ... .. . ... : ... .. . ...
ROW 43 : ... .. . ... : ... .. . ... : ... .. . ... : ... .. . ... : ... .. . ...
ROW 44 : ... .. . ... : ... .. . ... : ... .. . ... : ... .. . ... : D-3 00 . ...
ROW 45 : ... .. . ... : ... .. . ... : C-3 16 . ... : A-# 1B . ... : ... .. . ...
ROW 46 : ... .. . ... : ... .. . ... : ... .. . ... : ... .. . ... : ... .. . ...
ROW 47 : G-3 01 . ... : C-3 01 . ... : C-3 16 . ... : ... .. . ... : ... .. . ...
ROW 48 : ... .. . ... : ... .. . ... : ... .. . ... : ... .. . ... : C-3 00 . ...
ROW 49 : ... .. . ... : ... .. . ... : ... .. . ... : ... .. . ... : ... .. . ...
ROW 4A : ... .. . ... : ... .. . ... : ... .. . ... : ... .. . ... : C-3 00 . ...
ROW 4B : ... .. . ... : ... .. . ... : C-3 16 . ... : ... .. . ... : ... .. . ...
ROW 4C : ... .. . ... : ... .. . ... : ... .. . ... : ... .. . ... : D-3 00 . ...
ROW 4D : F-3 01 . ... : C-3 01 . ... : C-3 16 . ... : A-# 1B . ... : ... .. . ...
ROW 4E : ... .. . ... : ... .. . ... : ... .. . ... : ... .. . ... : ... .. . ...
ROW 4F : ... .. . ... : ... .. . ... : ... .. . ... : ... .. . ... : ... .. . ...
ROW 50 : ... .. . ... : ... .. . ... : ... .. . ... : ... .. . ... : C-3 00 . ...
ROW 51 : G-3 01 . ... : C-3 01 . ... : C-3 16 . ... : ... .. . ... : ... .. . ...
ROW 52 : ... .. . ... : ... .. . ... : ... .. . ... : ... .. . ... : ... .. . ...
ROW 53 : ... .. . ... : ... .. . ... : ... .. . ... : ... .. . ... : ... .. . ...
ROW 54 : ... .. . ... : ... .. . ... : ... .. . ... : ... .. . ... : D-3 00 . ...
ROW 55 : ... .. . ... : ... .. . ... : C-3 16 . ... : A-# 1B . ... : ... .. . ...
ROW 56 : ... .. . ... : ... .. . ... : ... .. . ... : ... .. . ... : C-3 00 . ...
ROW 57 : G-3 01 . ... : C-3 01 . ... : C-3 16 . ... : ... .. . ... : ... .. . ...
ROW 58 : ... .. . ... : ... .. . ... : ... .. . ... : ... .. . ... : ... .. . ...
ROW 59 : ... .. . ... : ... .. . ... : ... .. . ... : ... .. . ... : ... .. . ...
ROW 5A : ... .. . ... : ... .. . ... : ... .. . ... : ... .. . ... : C-3 00 . ...
ROW 5B : ... .. . ... : ... .. . ... : C-3 16 . ... : ... .. . ... : ... .. . ...
ROW 5C : ... .. . ... : ... .. . ... : ... .. . ... : ... .. . ... : D-3 00 . ...
ROW 5D : A-3 01 . ... : C-3 01 . ... : C-3 16 . ... : A-# 1B . ... : ... .. . ...
ROW 5E : ... .. . ... : ... .. . ... : ... .. . ... : ... .. . ... : ... .. . ...
ROW 5F : ... .. . ... : ... .. . ... : ... .. . ... : ... .. . ... : ... .. . ...
ROW 60 : ... .. . ... : ... .. . ... : ... .. . ... : ... .. . ... : E-3 00 . W0A
ROW 61 : F-3 01 . ... : A#2 01 . ... : D#3 16 . ... : ... .. . ... : ... .. . ...
ROW 62 : ... .. . ... : ... .. . ... : ... .. . ... : ... .. . ... : E-3 00 . W0A
ROW 63 : ... .. . ... : ... .. . ... : ... .. . ... : ... .. . ... : ... .. . ...
ROW 64 : ... .. . ... : ... .. . ... : ... .. . ... : ... .. . ... : E-3 00 . W09
ROW 65 : ... .. . ... : ... .. . ... : D#3 16 . ... : ... .. . ... : ... .. . ...
ROW 66 : ... .. . ... : ... .. . ... : ... .. . ... : ... .. . ... : E-3 00 . W09
ROW 67 : E-3 01 . ... : A#2 01 . ... : D#3 16 . ... : ... .. . ... : ... .. . ...
ROW 68 : ... .. . ... : ... .. . ... : ... .. . ... : ... .. . ... : E-3 00 . W08
ROW 69 : ... .. . ... : ... .. . ... : ... .. . ... : ... .. . ... : ... .. . ...
ROW 6A : ... .. . ... : ... .. . ... : ... .. . ... : ... .. . ... : E-3 00 . W08
ROW 6B : ... .. . ... : ... .. . ... : D#3 16 . ... : ... .. . ... : ... .. . ...
ROW 6C : ... .. . ... : ... .. . ... : ... .. . ... : ... .. . ... : E-3 00 . W0A
ROW 6D : F-3 01 . ... : A#2 01 . ... : D#3 16 . ... : ... .. . ... : ... .. . ...
ROW 6E : ... .. . ... : ... .. . ... : ... .. . ... : ... .. . ... : E-3 00 . W0A
ROW 6F : ... .. . ... : ... .. . ... : ... .. . ... : ... .. . ... : ... .. . ...
ROW 70 : ... .. . ... : ... .. . ... : ... .. . ... : ... .. . ... : E-3 00 . W09
ROW 71 : E-3 01 . ... : A-2 01 . ... : C-3 16 . ... : ... .. . ... : ... .. . ...
ROW 72 : ... .. . ... : ... .. . ... : ... .. . ... : ... .. . ... : E-3 00 . W09
ROW 73 : ... .. . ... : ... .. . ... : ... .. . ... : ... .. . ... : ... .. . ...
ROW 74 : ... .. . ... : ... .. . ... : ... .. . ... : ... .. . ... : E-3 00 . W08
ROW 75 : ... .. . ... : ... .. . ... : C-3 16 . ... : ... .. . ... : ... .. . ...
ROW 76 : ... .. . ... : ... .. . ... : ... .. . ... : ... .. . ... : E-3 00 . W08
ROW 77 : D-3 01 . ... : A-2 01 . ... : C-3 16 . ... : ... .. . ... : ... .. . ...
ROW 78 : ... .. . ... : ... .. . ... : ... .. . ... : ... .. . ... : C-3 00 . ...
ROW 79 : ... .. . ... : ... .. . ... : ... .. . ... : ... .. . ... : ... .. . ...
ROW 7A : ... .. . ... : ... .. . ... : ... .. . ... : ... .. . ... : C-3 00 . ...
ROW 7B : ... .. . ... : ... .. . ... : D-3 16 . ... : ... .. . ... : ... .. . ...
ROW 7C : ... .. . ... : ... .. . ... : ... .. . ... : ... .. . ... : D-3 00 . ...
ROW 7D : C-3 01 . ... : G-2 01 . ... : D-3 16 . ... : A-# 1B . ... : ... .. . ...
ROW 7E : ... .. . ... : ... .. . ... : ... .. . ... : ... .. . ... : D-3 00 . ...
ROW 7F : ... .. . ... : ... .. . ... : ... .. . ... : A-# 1B . ... : ... .. . ...

PATTERN 03
ROW 00 : ... .. . ... : ... .. . ... : ... .. . ... : ... .. . ... : C-3 00 . ...
ROW 01 : D-3 01 . ... : G-2 01 . ... : G-2 16 . ... : ... .. . ... : ... .. . ...
ROW 02 : ... .. . ... : ... .. . ... : ... .. . ... : ... .. . ... : ... .. . ...
ROW 03 : ... .. . ... : ... .. . ... : ... .. . ... : ... .. . ... : ... .. . ...
ROW 04 : ... .. . ... : ... .. . ... : ... .. . ... : ... .. . ... : D-3 00 . ...
ROW 05 : ... .. . ... : ... .. . ... : G-2 16 . ... : A-# 1B . ... : ... .. . ...
ROW 06 : ... .. . ... : ... .. . ... : ... .. . ... : ... .. . ... : ... .. . ...
ROW 07 : D-3 01 . ... : G-2 01 . ... : G-2 16 . ... : ... .. . ... : ... .. . ...
ROW 08 : ... .. . ... : ... .. . ... : ... .. . ... : ... .. . ... : C-3 00 . ...
ROW 09 : ... .. . ... : ... .. . ... : ... .. . ... : ... .. . ... : ... .. . ...
ROW 0A : ... .. . ... : ... .. . ... : ... .. . ... : ... .. . ... : C-3 00 . ...
ROW 0B : ... .. . ... : ... .. . ... : G-2 16 . ... : ... .. . ... : ... .. . ...
ROW 0C : ... .. . ... : ... .. . ... : ... .. . ... : ... .. . ... : D-3 00 . ...
ROW 0D : C-3 01 . ... : G-2 01 . ... : G-2 16 . ... : A-# 1B . ... : ... .. . ...
ROW 0E : ... .. . ... : ... .. . ... : ... .. . ... : ... .. . ... : ... .. . ...
ROW 0F : ... .. . ... : ... .. . ... : ... .. . ... : ... .. . ... : ... .. . ...
ROW 10 : ... .. . ... : ... .. . ... : ... .. . ... : ... .. . ... : C-3 00 . ...
ROW 11 : D-3 01 . ... : G-2 01 . ... : G-2 16 . ... : ... .. . ... : ... .. . ...
ROW 12 : ... .. . ... : ... .. . ... : ... .. . ... : ... .. . ... : ... .. . ...
ROW 13 : ... .. . ... : ... .. . ... : ... .. . ... : ... .. . ... : ... .. . ...
ROW 14 : ... .. . ... : ... .. . ... : ... .. . ... : ... .. . ... : D-3 00 . ...
ROW 15 : ... .. . ... : ... .. . ... : G-2 16 . ... : A-# 1B . ... : ... .. . ...
ROW 16 : ... .. . ... : ... .. . ... : ... .. . ... : ... .. . ... : C-3 00 . ...
ROW 17 : D-3 01 . ... : G-2 01 . ... : G-2 16 . ... : ... .. . ... : ... .. . ...
ROW 18 : ... .. . ... : ... .. . ... : ... .. . ... : ... .. . ... : ... .. . ...
ROW 19 : ... .. . ... : ... .. . ... : ... .. . ... : ... .. . ... : ... .. . ...
ROW 1A : ... .. . ... : ... .. . ... : ... .. . ... : ... .. . ... : C-3 00 . ...
ROW 1B : ... .. . ... : ... .. . ... : G-2 16 . ... : ... .. . ... : ... .. . ...
ROW 1C : ... .. . ... : ... .. . ... : ... .. . ... : ... .. . ... : D-3 00 . ...
ROW 1D : E-3 01 . ... : G-2 01 . ... : G-2 16 . ... : A-# 1B . ... : ... .. . ...
ROW 1E : ... .. . ... : ... .. . ... : ... .. . ... : ... .. . ... : ... .. . ...
ROW 1F : ... .. . ... : ... .. . ... : ... .. . ... : ... .. . ... : ... .. . ...
ROW 20 : ... .. . ... : ... .. . ... : ... .. . ... : ... .. . ... : C-3 00 . ...
ROW 21 : F-3 01 . ... : A#2 01 . ... : A#2 16 . ... : ... .. . ... : ... .. . ...
ROW 22 : ... .. . ... : ... .. . ... : ... .. . ... : ... .. . ... : ... .. . ...
ROW 23 : ... .. . ... : ... .. . ... : ... .. . ... : ... .. . ... : ... .. . ...
ROW 24 : ... .. . ... : ... .. . ... : ... .. . ... : ... .. . ... : D-3 00 . ...
ROW 25 : ... .. . ... : ... .. . ... : A#2 16 . ... : A-# 1B . ... : ... .. . ...
ROW 26 : ... .. . ... : ... .. . ... : ... .. . ... : ... .. . ... : ... .. . ...
ROW 27 : F-3 01 . ... : A#2 01 . ... : A#2 16 . ... : ... .. . ... : ... .. . ...
ROW 28 : ... .. . ... : ... .. . ... : ... .. . ... : ... .. . ... : C-3 00 . ...
ROW 29 : ... .. . ... : ... .. . ... : ... .. . ... : ... .. . ... : ... .. . ...
ROW 2A : ... .. . ... : ... .. . ... : ... .. . ... : ... .. . ... : C-3 00 . ...
ROW 2B : ... .. . ... : ... .. . ... : A#2 16 . ... : ... .. . ... : ... .. . ...
ROW 2C : ... .. . ... : ... .. . ... : ... .. . ... : ... .. . ... : D-3 00 . ...
ROW 2D : E-3 01 . ... : A#2 01 . ... : A#2 16 . ... : A-# 1B . ... : ... .. . ...
ROW 2E : ... .. . ... : ... .. . ... : ... .. . ... : ... .. . ... : ... .. . ...
ROW 2F : ... .. . ... : ... .. . ... : ... .. . ... : ... .. . ... : ... .. . ...
ROW 30 : ... .. . ... : ... .. . ... : ... .. . ... : ... .. . ... : C-3 00 . ...
ROW 31 : F-3 01 . ... : A#2 01 . ... : A#2 16 . ... : ... .. . ... : ... .. . ...
ROW 32 : ... .. . ... : ... .. . ... : ... .. . ... : ... .. . ... : ... .. . ...
ROW 33 : ... .. . ... : ... .. . ... : ... .. . ... : ... .. . ... : ... .. . ...
ROW 34 : ... .. . ... : ... .. . ... : ... .. . ... : ... .. . ... : D-3 00 . ...
ROW 35 : ... .. . ... : ... .. . ... : A#2 16 . ... : A-# 1B . ... : ... .. . ...
ROW 36 : ... .. . ... : ... .. . ... : ... .. . ... : ... .. . ... : C-3 00 . ...
ROW 37 : F-3 01 . ... : A#2 01 . ... : A#2 16 . ... : ... .. . ... : ... .. . ...
ROW 38 : ... .. . ... : ... .. . ... : ... .. . ... : ... .. . ... : ... .. . ...
ROW 39 : ... .. . ... : ... .. . ... : ... .. . ... : ... .. . ... : ... .. . ...
ROW 3A : ... .. . ... : ... .. . ... : ... .. . ... : ... .. . ... : C-3 00 . ...
ROW 3B : ... .. . ... : ... .. . ... : A#2 16 . ... : ... .. . ... : ... .. . ...
ROW 3C : ... .. . ... : ... .. . ... : ... .. . ... : ... .. . ... : D-3 00 . ...
ROW 3D : E-3 01 . ... : A#2 01 . ... : A#2 16 . ... : A-# 1B . ... : ... .. . ...
ROW 3E : ... .. . ... : ... .. . ... : ... .. . ... : ... .. . ... : ... .. . ...
ROW 3F : ... .. . ... : ... .. . ... : ... .. . ... : ... .. . ... : ... .. . ...
ROW 40 : ... .. . ... : ... .. . ... : ... .. . ... : ... .. . ... : C-3 00 . ...
ROW 41 : D-3 01 . ... : G-2 01 . ... : G-2 16 . ... : ... .. . ... : ... .. . ...
ROW 42 : ... .. . ... : ... .. . ... : ... .. . ... : ... .. . ... : ... .. . ...
ROW 43 : ... .. . ... : ... .. . ... : ... .. . ... : ... .. . ... : ... .. . ...
ROW 44 : ... .. . ... : ... .. . ... : ... .. . ... : ... .. . ... : D-3 00 . ...
ROW 45 : ... .. . ... : ... .. . ... : G-2 16 . ... : A-# 1B . ... : ... .. . ...
ROW 46 : ... .. . ... : ... .. . ... : ... .. . ... : ... .. . ... : ... .. . ...
ROW 47 : D-3 01 . ... : G-2 01 . ... : G-2 16 . ... : ... .. . ... : ... .. . ...
ROW 48 : ... .. . ... : ... .. . ... : ... .. . ... : ... .. . ... : C-3 00 . ...
ROW 49 : ... .. . ... : ... .. . ... : ... .. . ... : ... .. . ... : ... .. . ...
ROW 4A : ... .. . ... : ... .. . ... : ... .. . ... : ... .. . ... : C-3 00 . ...
ROW 4B : ... .. . ... : ... .. . ... : G-2 16 . ... : ... .. . ... : ... .. . ...
ROW 4C : ... .. . ... : ... .. . ... : ... .. . ... : ... .. . ... : D-3 00 . ...
ROW 4D : C-3 01 . ... : G-2 01 . ... : G-2 16 . ... : A-# 1B . ... : ... .. . ...
ROW 4E : ... .. . ... : ... .. . ... : ... .. . ... : ... .. . ... : ... .. . ...
ROW 4F : ... .. . ... : ... .. . ... : ... .. . ... : ... .. . ... : ... .. . ...
ROW 50 : ... .. . ... : ... .. . ... : ... .. . ... : ... .. . ... : C-3 00 . ...
ROW 51 : D-3 01 . ... : G-2 01 . ... : G-2 16 . ... : ... .. . ... : ... .. . ...
ROW 52 : ... .. . ... : ... .. . ... : ... .. . ... : ... .. . ... : ... .. . ...
ROW 53 : ... .. . ... : ... .. . ... : ... .. . ... : ... .. . ... : ... .. . ...
ROW 54 : ... .. . ... : ... .. . ... : ... .. . ... : ... .. . ... : D-3 00 . ...
ROW 55 : ... .. . ... : ... .. . ... : G-2 16 . ... : A-# 1B . ... : ... .. . ...
ROW 56 : ... .. . ... : ... .. . ... : ... .. . ... : ... .. . ... : C-3 00 . ...
ROW 57 : D-3 01 . ... : G-2 01 . ... : G-2 16 . ... : ... .. . ... : ... .. . ...
ROW 58 : ... .. . ... : ... .. . ... : ... .. . ... : ... .. . ... : ... .. . ...
ROW 59 : ... .. . ... : ... .. . ... : ... .. . ... : ... .. . ... : ... .. . ...
ROW 5A : ... .. . ... : ... .. . ... : ... .. . ... : ... .. . ... : C-3 00 . ...
ROW 5B : ... .. . ... : ... .. . ... : G-2 16 . ... : ... .. . ... : ... .. . ...
ROW 5C : ... .. . ... : ... .. . ... : ... .. . ... : ... .. . ... : D-3 00 . ...
ROW 5D : E-3 01 . ... : G-2 01 . ... : G-2 16 . ... : A-# 1B . ... : ... .. . ...
ROW 5E : ... .. . ... : ... .. . ... : ... .. . ... : ... .. . ... : ... .. . ...
ROW 5F : ... .. . ... : ... .. . ... : ... .. . ... : ... .. . ... : ... .. . ...
ROW 60 : ... .. . ... : ... .. . ... : ... .. . ... : ... .. . ... : C-3 00 . ...
ROW 61 : F-3 01 . ... : A#2 01 . ... : A#2 16 . ... : ... .. . ... : ... .. . ...
ROW 62 : ... .. . ... : ... .. . ... : ... .. . ... : ... .. . ... : ... .. . ...
ROW 63 : ... .. . ... : ... .. . ... : ... .. . ... : ... .. . ... : ... .. . ...
ROW 64 : ... .. . ... : ... .. . ... : ... .. . ... : ... .. . ... : D-3 00 . ...
ROW 65 : G-3 01 . ... : A#2 01 . ... : A#2 16 . ... : A-# 1B . ... : ... .. . ...
ROW 66 : ... .. . ... : ... .. . ... : ... .. . ... : ... .. . ... : ... .. . ...
ROW 67 : ... .. . ... : ... .. . ... : A#2 16 . ... : ... .. . ... : ... .. . ...
ROW 68 : ... .. . ... : ... .. . ... : ... .. . ... : ... .. . ... : C-3 00 . ...
ROW 69 : F-3 01 . ... : A#2 01 . ... : ... .. . ... : ... .. . ... : ... .. . ...
ROW 6A : ... .. . ... : ... .. . ... : ... .. . ... : ... .. . ... : C-3 00 . ...
ROW 6B : E-3 01 . ... : A#2 01 . ... : A#2 16 . ... : ... .. . ... : ... .. . ...
ROW 6C : ... .. . ... : ... .. . ... : ... .. . ... : ... .. . ... : D-3 00 . ...
ROW 6D : D-3 01 . ... : A#2 01 . ... : A#2 16 . ... : A-# 1B . ... : ... .. . ...
ROW 6E : ... .. . ... : ... .. . ... : ... .. . ... : ... .. . ... : ... .. . ...
ROW 6F : ... .. . ... : ... .. . ... : ... .. . ... : ... .. . ... : ... .. . ...
ROW 70 : ... .. . ... : ... .. . ... : ... .. . ... : ... .. . ... : C-3 00 . ...
ROW 71 : E-3 01 . ... : A#2 01 . ... : A#2 16 . ... : ... .. . ... : ... .. . ...
ROW 72 : ... .. . ... : ... .. . ... : ... .. . ... : ... .. . ... : ... .. . ...
ROW 73 : ... .. . ... : ... .. . ... : ... .. . ... : ... .. . ... : ... .. . ...
ROW 74 : ... .. . ... : ... .. . ... : ... .. . ... : ... .. . ... : D-3 00 . ...
ROW 75 : C-3 01 . ... : A#2 01 . ... : A#2 16 . ... : A-# 1B . ... : ... .. . ...
ROW 76 : ... .. . ... : ... .. . ... : ... .. . ... : ... .. . ... : C-3 00 . ...
ROW 77 : ... .. . ... : ... .. . ... : A#2 16 . ... : ... .. . ... : ... .. . ...
ROW 78 : ... .. . ... : ... .. . ... : ... .. . ... : ... .. . ... : ... .. . ...
ROW 79 : E-3 01 . ... : A#2 01 . ... : ... .. . ... : ... .. . ... : ... .. . ...
ROW 7A : ... .. . ... : ... .. . ... : ... .. . ... : ... .. . ... : C-3 00 . ...
ROW 7B : ... .. . ... : ... .. . ... : A#2 16 . ... : ... .. . ... : ... .. . ...
ROW 7C : ... .. . ... : ... .. . ... : ... .. . ... : ... .. . ... : D-3 00 . ...
ROW 7D : D-3 01 . ... : A#2 01 . ... : A#2 16 . ... : A-# 1B . ... : ... .. . ...
ROW 7E : ... .. . ... : ... .. . ... : ... .. . ... : ... .. . ... : D-3 00 . ...
ROW 7F : ... .. . ... : ... .. . ... : ... .. . ... : A-# 1B . ... : ... .. . ...

PATTERN 04
ROW 00 : ... .. . ... : ... .. . ... : ... .. . ... : ... .. . ... : C-3 00 . ...
ROW 01 : D-3 01 . ... : G-2 01 . ... : G-2 16 . ... : ... .. . ... : ... .. . ...
ROW 02 : ... .. . ... : ... .. . ... : ... .. . ... : ... .. . ... : ... .. . ...
ROW 03 : ... .. . ... : ... .. . ... : ... .. . ... : ... .. . ... : ... .. . ...
ROW 04 : ... .. . ... : ... .. . ... : ... .. . ... : ... .. . ... : D-3 00 . ...
ROW 05 : ... .. . ... : ... .. . ... : G-2 16 . ... : A-# 1B . ... : ... .. . ...
ROW 06 : ... .. . ... : ... .. . ... : ... .. . ... : ... .. . ... : ... .. . ...
ROW 07 : D-3 01 . ... : G-2 01 . ... : G-2 16 . ... : ... .. . ... : ... .. . ...
ROW 08 : ... .. . ... : ... .. . ... : ... .. . ... : ... .. . ... : C-3 00 . ...
ROW 09 : ... .. . ... : ... .. . ... : ... .. . ... : ... .. . ... : ... .. . ...
ROW 0A : ... .. . ... : ... .. . ... : ... .. . ... : ... .. . ... : C-3 00 . ...
ROW 0B : ... .. . ... : ... .. . ... : G-2 16 . ... : ... .. . ... : ... .. . ...
ROW 0C : ... .. . ... : ... .. . ... : ... .. . ... : ... .. . ... : D-3 00 . ...
ROW 0D : C-3 01 . ... : G-2 01 . ... : G-2 16 . ... : A-# 1B . ... : ... .. . ...
ROW 0E : ... .. . ... : ... .. . ... : ... .. . ... : ... .. . ... : ... .. . ...
ROW 0F : ... .. . ... : ... .. . ... : ... .. . ... : ... .. . ... : ... .. . ...
ROW 10 : ... .. . ... : ... .. . ... : ... .. . ... : ... .. . ... : C-3 00 . ...
ROW 11 : D-3 01 . ... : G-2 01 . ... : G-2 16 . ... : ... .. . ... : ... .. . ...
ROW 12 : ... .. . ... : ... .. . ... : ... .. . ... : ... .. . ... : ... .. . ...
ROW 13 : ... .. . ... : ... .. . ... : ... .. . ... : ... .. . ... : ... .. . ...
ROW 14 : ... .. . ... : ... .. . ... : ... .. . ... : ... .. . ... : D-3 00 . ...
ROW 15 : ... .. . ... : ... .. . ... : G-2 16 . ... : A-# 1B . ... : ... .. . ...
ROW 16 : ... .. . ... : ... .. . ... : ... .. . ... : ... .. . ... : C-3 00 . ...
ROW 17 : D-3 01 . ... : G-2 01 . ... : G-2 16 . ... : ... .. . ... : ... .. . ...
ROW 18 : ... .. . ... : ... .. . ... : ... .. . ... : ... .. . ... : ... .. . ...
ROW 19 : ... .. . ... : ... .. . ... : ... .. . ... : ... .. . ... : ... .. . ...
ROW 1A : ... .. . ... : ... .. . ... : ... .. . ... : ... .. . ... : C-3 00 . ...
ROW 1B : ... .. . ... : ... .. . ... : G-2 16 . ... : ... .. . ... : ... .. . ...
ROW 1C : ... .. . ... : ... .. . ... : ... .. . ... : ... .. . ... : D-3 00 . ...
ROW 1D : E-3 01 . ... : G-2 01 . ... : G-2 16 . ... : A-# 1B . ... : ... .. . ...
ROW 1E : ... .. . ... : ... .. . ... : ... .. . ... : ... .. . ... : ... .. . ...
ROW 1F : ... .. . ... : ... .. . ... : ... .. . ... : ... .. . ... : ... .. . ...
ROW 20 : ... .. . ... : ... .. . ... : ... .. . ... : ... .. . ... : C-3 00 . ...
ROW 21 : F-3 01 . ... : A#2 01 . ... : A#2 16 . ... : ... .. . ... : ... .. . ...
ROW 22 : ... .. . ... : ... .. . ... : ... .. . ... : ... .. . ... : ... .. . ...
ROW 23 : ... .. . ... : ... .. . ... : ... .. . ... : ... .. . ... : ... .. . ...
ROW 24 : ... .. . ... : ... .. . ... : ... .. . ... : ... .. . ... : D-3 00 . ...
ROW 25 : ... .. . ... : ... .. . ... : A#2 16 . ... : A-# 1B . ... : ... .. . ...
ROW 26 : ... .. . ... : ... .. . ... : ... .. . ... : ... .. . ... : ... .. . ...
ROW 27 : F-3 01 . ... : A#2 01 . ... : A#2 16 . ... : ... .. . ... : ... .. . ...
ROW 28 : ... .. . ... : ... .. . ... : ... .. . ... : ... .. . ... : C-3 00 . ...
ROW 29 : ... .. . ... : ... .. . ... : ... .. . ... : ... .. . ... : ... .. . ...
ROW 2A : ... .. . ... : ... .. . ... : ... .. . ... : ... .. . ... : C-3 00 . ...
ROW 2B : ... .. . ... : ... .. . ... : A#2 16 . ... : ... .. . ... : ... .. . ...
ROW 2C : ... .. . ... : ... .. . ... : ... .. . ... : ... .. . ... : D-3 00 . ...
ROW 2D : E-3 01 . ... : A#2 01 . ... : A#2 16 . ... : A-# 1B . ... : ... .. . ...
ROW 2E : ... .. . ... : ... .. . ... : ... .. . ... : ... .. . ... : ... .. . ...
ROW 2F : ... .. . ... : ... .. . ... : ... .. . ... : ... .. . ... : ... .. . ...
ROW 30 : ... .. . ... : ... .. . ... : ... .. . ... : ... .. . ... : C-3 00 . ...
ROW 31 : F-3 01 . ... : A#2 01 . ... : A#2 16 . ... : ... .. . ... : ... .. . ...
ROW 32 : ... .. . ... : ... .. . ... : ... .. . ... : ... .. . ... : ... .. . ...
ROW 33 : ... .. . ... : ... .. . ... : ... .. . ... : ... .. . ... : ... .. . ...
ROW 34 : ... .. . ... : ... .. . ... : ... .. . ... : ... .. . ... : D-3 00 . ...
ROW 35 : ... .. . ... : ... .. . ... : A#2 16 . ... : A-# 1B . ... : ... .. . ...
ROW 36 : ... .. . ... : ... .. . ... : ... .. . ... : ... .. . ... : C-3 00 . ...
ROW 37 : F-3 01 . ... : A#2 01 . ... : A#2 16 . ... : ... .. . ... : ... .. . ...
ROW 38 : ... .. . ... : ... .. . ... : ... .. . ... : ... .. . ... : ... .. . ...
ROW 39 : ... .. . ... : ... .. . ... : ... .. . ... : ... .. . ... : ... .. . ...
ROW 3A : ... .. . ... : ... .. . ... : ... .. . ... : ... .. . ... : C-3 00 . ...
ROW 3B : ... .. . ... : ... .. . ... : A#2 16 . ... : ... .. . ... : ... .. . ...
ROW 3C : ... .. . ... : ... .. . ... : ... .. . ... : ... .. . ... : D-3 00 . ...
ROW 3D : E-3 01 . ... : A#2 01 . ... : A#2 16 . ... : A-# 1B . ... : ... .. . ...
ROW 3E : ... .. . ... : ... .. . ... : ... .. . ... : ... .. . ... : ... .. . ...
ROW 3F : ... .. . ... : ... .. . ... : ... .. . ... : ... .. . ... : ... .. . ...
ROW 40 : ... .. . ... : ... .. . ... : ... .. . ... : ... .. . ... : C-3 00 . ...
ROW 41 : G-3 01 . ... : C-3 01 . ... : C-3 16 . ... : ... .. . ... : ... .. . ...
ROW 42 : ... .. . ... : ... .. . ... : ... .. . ... : ... .. . ... : ... .. . ...
ROW 43 : ... .. . ... : ... .. . ... : ... .. . ... : ... .. . ... : ... .. . ...
ROW 44 : ... .. . ... : ... .. . ... : ... .. . ... : ... .. . ... : D-3 00 . ...
ROW 45 : ... .. . ... : ... .. . ... : C-3 16 . ... : A-# 1B . ... : ... .. . ...
ROW 46 : ... .. . ... : ... .. . ... : ... .. . ... : ... .. . ... : ... .. . ...
ROW 47 : G-3 01 . ... : C-3 01 . ... : C-3 16 . ... : ... .. . ... : ... .. . ...
ROW 48 : ... .. . ... : ... .. . ... : ... .. . ... : ... .. . ... : C-3 00 . ...
ROW 49 : ... .. . ... : ... .. . ... : ... .. . ... : ... .. . ... : ... .. . ...
ROW 4A : ... .. . ... : ... .. . ... : ... .. . ... : ... .. . ... : C-3 00 . ...
ROW 4B : ... .. . ... : ... .. . ... : C-3 16 . ... : ... .. . ... : ... .. . ...
ROW 4C : ... .. . ... : ... .. . ... : ... .. . ... : ... .. . ... : D-3 00 . ...
ROW 4D : F-3 01 . ... : C-3 01 . ... : C-3 16 . ... : A-# 1B . ... : ... .. . ...
ROW 4E : ... .. . ... : ... .. . ... : ... .. . ... : ... .. . ... : ... .. . ...
ROW 4F : ... .. . ... : ... .. . ... : ... .. . ... : ... .. . ... : ... .. . ...
ROW 50 : ... .. . ... : ... .. . ... : ... .. . ... : ... .. . ... : C-3 00 . ...
ROW 51 : G-3 01 . ... : C-3 01 . ... : C-3 16 . ... : ... .. . ... : ... .. . ...
ROW 52 : ... .. . ... : ... .. . ... : ... .. . ... : ... .. . ... : ... .. . ...
ROW 53 : ... .. . ... : ... .. . ... : ... .. . ... : ... .. . ... : ... .. . ...
ROW 54 : ... .. . ... : ... .. . ... : ... .. . ... : ... .. . ... : D-3 00 . ...
ROW 55 : ... .. . ... : ... .. . ... : C-3 16 . ... : A-# 1B . ... : ... .. . ...
ROW 56 : ... .. . ... : ... .. . ... : ... .. . ... : ... .. . ... : C-3 00 . ...
ROW 57 : G-3 01 . ... : C-3 01 . ... : C-3 16 . ... : ... .. . ... : ... .. . ...
ROW 58 : ... .. . ... : ... .. . ... : ... .. . ... : ... .. . ... : ... .. . ...
ROW 59 : ... .. . ... : ... .. . ... : ... .. . ... : ... .. . ... : ... .. . ...
ROW 5A : ... .. . ... : ... .. . ... : ... .. . ... : ... .. . ... : C-3 00 . ...
ROW 5B : ... .. . ... : ... .. . ... : C-3 16 . ... : ... .. . ... : ... .. . ...
ROW 5C : ... .. . ... : ... .. . ... : ... .. . ... : ... .. . ... : D-3 00 . ...
ROW 5D : A-3 01 . ... : C-3 01 . ... : C-3 16 . ... : A-# 1B . ... : ... .. . ...
ROW 5E : ... .. . ... : ... .. . ... : ... .. . ... : ... .. . ... : ... .. . ...
ROW 5F : ... .. . ... : ... .. . ... : ... .. . ... : ... .. . ... : ... .. . ...
ROW 60 : ... .. . ... : ... .. . ... : ... .. . ... : ... .. . ... : E-3 00 . W0A
ROW 61 : A#3 01 . ... : F-3 01 . ... : A#2 16 . ... : ... .. . ... : ... .. . ...
ROW 62 : ... .. . ... : ... .. . ... : ... .. . ... : ... .. . ... : E-3 00 . W0A
ROW 63 : ... .. . ... : ... .. . ... : ... .. . ... : ... .. . ... : ... .. . ...
ROW 64 : ... .. . ... : ... .. . ... : ... .. . ... : ... .. . ... : E-3 00 . W09
ROW 65 : ... .. . ... : ... .. . ... : A#2 16 . ... : ... .. . ... : ... .. . ...
ROW 66 : ... .. . ... : ... .. . ... : ... .. . ... : ... .. . ... : E-3 00 . W09
ROW 67 : A-3 01 . ... : F-3 01 . ... : A#2 16 . ... : ... .. . ... : ... .. . ...
ROW 68 : ... .. . ... : ... .. . ... : ... .. . ... : ... .. . ... : E-3 00 . W08
ROW 69 : ... .. . ... : ... .. . ... : ... .. . ... : ... .. . ... : ... .. . ...
ROW 6A : ... .. . ... : ... .. . ... : ... .. . ... : ... .. . ... : ... .. . ...
ROW 6B : ... .. . ... : ... .. . ... : A#2 16 . ... : ... .. . ... : ... .. . ...
ROW 6C : ... .. . ... : ... .. . ... : ... .. . ... : ... .. . ... : E-3 00 . W0A
ROW 6D : A#3 01 . ... : F-3 01 . ... : A#2 16 . ... : ... .. . ... : ... .. . ...
ROW 6E : ... .. . ... : ... .. . ... : ... .. . ... : ... .. . ... : E-3 00 . W0A
ROW 6F : ... .. . ... : ... .. . ... : ... .. . ... : ... .. . ... : ... .. . ...
ROW 70 : ... .. . ... : ... .. . ... : ... .. . ... : ... .. . ... : E-3 00 . W09
ROW 71 : C-4 01 . ... : G-3 01 . ... : G-2 16 . ... : ... .. . ... : ... .. . ...
ROW 72 : ... .. . ... : ... .. . ... : ... .. . ... : ... .. . ... : E-3 00 . W09
ROW 73 : ... .. . ... : ... .. . ... : ... .. . ... : ... .. . ... : ... .. . ...
ROW 74 : ... .. . ... : ... .. . ... : ... .. . ... : ... .. . ... : E-3 00 . W08
ROW 75 : ... .. . ... : ... .. . ... : G-2 16 . ... : ... .. . ... : ... .. . ...
ROW 76 : ... .. . ... : ... .. . ... : ... .. . ... : ... .. . ... : ... .. . ...
ROW 77 : A#3 01 . ... : G-3 01 . ... : G-2 16 . ... : ... .. . ... : ... .. . ...
ROW 78 : ... .. . ... : ... .. . ... : ... .. . ... : ... .. . ... : C-3 00 . ...
ROW 79 : ... .. . ... : ... .. . ... : ... .. . ... : ... .. . ... : ... .. . ...
ROW 7A : ... .. . ... : ... .. . ... : ... .. . ... : ... .. . ... : C-3 00 . ...
ROW 7B : ... .. . ... : ... .. . ... : G-2 16 . ... : ... .. . ... : ... .. . ...
ROW 7C : ... .. . ... : ... .. . ... : ... .. . ... : ... .. . ... : D-3 00 . ...
ROW 7D : C-4 01 . ... : G-3 01 . ... : C-3 16 . ... : A-# 1B . ... : ... .. . ...
ROW 7E : ... .. . ... : ... .. . ... : ... .. . ... : ... .. . ... : D-3 00 . ...
ROW 7F : ... .. . ... : ... .. . ... : ... .. . ... : A-# 1B . ... : ... .. . ...

PATTERN 05
ROW 00 : ... .. . ... : ... .. . ... : ... .. . ... : ... .. . ... : C-3 00 . ...
ROW 01 : D-4 01 . ... : A-3 01 . ... : G-2 16 . ... : ... .. . ... : ... .. . ...
ROW 02 : ... .. . ... : ... .. . ... : ... .. . ... : ... .. . ... : ... .. . ...
ROW 03 : ... .. . ... : ... .. . ... : ... .. . ... : ... .. . ... : ... .. . ...
ROW 04 : ... .. . ... : ... .. . ... : ... .. . ... : ... .. . ... : D-3 00 . ...
ROW 05 : ... .. . ... : ... .. . ... : G-2 16 . ... : A-# 1B . ... : ... .. . ...
ROW 06 : ... .. . ... : ... .. . ... : ... .. . ... : ... .. . ... : ... .. . ...
ROW 07 : ... .. . ... : ... .. . ... : G-2 16 . ... : ... .. . ... : ... .. . ...
ROW 08 : ... .. . ... : ... .. . ... : ... .. . ... : ... .. . ... : C-3 00 . ...
ROW 09 : ... .. . ... : ... .. . ... : ... .. . ... : ... .. . ... : ... .. . ...
ROW 0A : ... .. . ... : ... .. . ... : ... .. . ... : ... .. . ... : C-3 00 . ...
ROW 0B : ... .. . ... : ... .. . ... : G-2 16 . ... : ... .. . ... : ... .. . ...
ROW 0C : ... .. . ... : ... .. . ... : ... .. . ... : ... .. . ... : D-3 00 . ...
ROW 0D : G-3 01 . ... : D-3 01 . ... : G-2 16 . ... : A-# 1B . ... : ... .. . ...
ROW 0E : ... .. . ... : ... .. . ... : ... .. . ... : ... .. . ... : ... .. . ...
ROW 0F : ... .. . ... : ... .. . ... : ... .. . ... : ... .. . ... : ... .. . ...
ROW 10 : ... .. . ... : ... .. . ... : ... .. . ... : ... .. . ... : C-3 00 . ...
ROW 11 : D-4 01 . ... : G-3 01 . ... : G-2 16 . ... : ... .. . ... : ... .. . ...
ROW 12 : ... .. . ... : ... .. . ... : ... .. . ... : ... .. . ... : ... .. . ...
ROW 13 : ... .. . ... : ... .. . ... : ... .. . ... : ... .. . ... : ... .. . ...
ROW 14 : ... .. . ... : ... .. . ... : ... .. . ... : ... .. . ... : D-3 00 . ...
ROW 15 : ... .. . ... : ... .. . ... : G-2 16 . ... : A-# 1B . ... : ... .. . ...
ROW 16 : ... .. . ... : ... .. . ... : ... .. . ... : ... .. . ... : C-3 00 . ...
ROW 17 : D-4 01 . ... : G-3 01 . ... : G-2 16 . ... : ... .. . ... : ... .. . ...
ROW 18 : ... .. . ... : ... .. . ... : ... .. . ... : ... .. . ... : ... .. . ...
ROW 19 : ... .. . ... : ... .. . ... : ... .. . ... : ... .. . ... : ... .. . ...
ROW 1A : ... .. . ... : ... .. . ... : ... .. . ... : ... .. . ... : C-3 00 . ...
ROW 1B : ... .. . ... : ... .. . ... : G-2 16 . ... : ... .. . ... : ... .. . ...
ROW 1C : ... .. . ... : ... .. . ... : ... .. . ... : ... .. . ... : D-3 00 . ...
ROW 1D : D-4 01 . ... : G-3 01 . ... : G-2 16 . ... : A-# 1B . ... : ... .. . ...
ROW 1E : ... .. . ... : ... .. . ... : ... .. . ... : ... .. . ... : ... .. . ...
ROW 1F : ... .. . ... : ... .. . ... : ... .. . ... : ... .. . ... : ... .. . ...
ROW 20 : ... .. . ... : ... .. . ... : ... .. . ... : ... .. . ... : C-3 00 . ...
ROW 21 : --- .. . ... : --- .. . ... : C-3 16 . ... : ... .. . ... : ... .. . ...
ROW 22 : ... .. . ... : ... .. . ... : ... .. . ... : ... .. . ... : E-3 00 . W0A
ROW 23 : F-4 01 . ... : C-4 01 . ... : F-3 16 . ... : ... .. . ... : ... .. . ...
ROW 24 : ... .. . ... : ... .. . ... : ... .. . ... : ... .. . ... : E-3 00 . W0A
ROW 25 : ... .. . ... : ... .. . ... : ... .. . ... : ... .. . ... : ... .. . ...
ROW 26 : ... .. . ... : ... .. . ... : ... .. . ... : ... .. . ... : ... .. . ...
ROW 27 : ... .. . ... : ... .. . ... : C-3 16 . ... : ... .. . ... : ... .. . ...
ROW 28 : ... .. . ... : ... .. . ... : ... .. . ... : ... .. . ... : E-3 00 . W09
ROW 29 : C-4 01 . ... : G-3 01 . ... : F-3 16 . ... : ... .. . ... : ... .. . ...
ROW 2A : ... .. . ... : ... .. . ... : ... .. . ... : ... .. . ... : E-3 00 . W09
ROW 2B : ... .. . ... : ... .. . ... : ... .. . ... : ... .. . ... : ... .. . ...
ROW 2C : ... .. . ... : ... .. . ... : ... .. . ... : ... .. . ... : ... .. . ...
ROW 2D : ... .. . ... : ... .. . ... : C-3 16 . ... : ... .. . ... : ... .. . ...
ROW 2E : ... .. . ... : ... .. . ... : ... .. . ... : ... .. . ... : E-3 00 . W0A
ROW 2F : F-4 01 . ... : C-4 01 . ... : E-3 16 . ... : ... .. . ... : ... .. . ...
ROW 30 : ... .. . ... : ... .. . ... : ... .. . ... : ... .. . ... : E-3 00 . W0A
ROW 31 : ... .. . ... : ... .. . ... : ... .. . ... : ... .. . ... : ... .. . ...
ROW 32 : ... .. . ... : ... .. . ... : ... .. . ... : ... .. . ... : ... .. . ...
ROW 33 : ... .. . ... : ... .. . ... : C-3 16 . ... : ... .. . ... : ... .. . ...
ROW 34 : ... .. . ... : ... .. . ... : ... .. . ... : ... .. . ... : E-3 00 . W09
ROW 35 : C-4 01 . ... : G-3 01 . ... : E-3 16 . ... : ... .. . ... : ... .. . ...
ROW 36 : ... .. . ... : ... .. . ... : ... .. . ... : ... .. . ... : E-3 00 . W09
ROW 37 : ... .. . ... : ... .. . ... : ... .. . ... : ... .. . ... : ... .. . ...
ROW 38 : ... .. . ... : ... .. . ... : ... .. . ... : ... .. . ... : C-3 00 . ...
ROW 39 : F-4 01 . ... : C-4 01 . ... : E-3 16 . ... : ... .. . ... : ... .. . ...
ROW 3A : ... .. . ... : ... .. . ... : ... .. . ... : ... .. . ... : C-3 00 . ...
ROW 3B : ... .. . ... : ... .. . ... : E-3 16 . ... : ... .. . ... : ... .. . ...
ROW 3C : ... .. . ... : ... .. . ... : ... .. . ... : ... .. . ... : D-3 00 . ...
ROW 3D : ... .. . ... : ... .. . ... : C-3 16 . ... : A-# 1B . ... : ... .. . ...
ROW 3E : ... .. . ... : ... .. . ... : ... .. . ... : ... .. . ... : D-3 00 . ...
ROW 3F : ... .. . ... : ... .. . ... : ... .. . ... : A-# 1B . ... : ... .. . ...
ROW 40 : ... .. . ... : ... .. . ... : ... .. . ... : ... .. . ... : C-3 00 . ...
ROW 41 : D-4 01 . ... : A-3 01 . ... : G-2 16 . ... : ... .. . ... : ... .. . ...
ROW 42 : ... .. . ... : ... .. . ... : ... .. . ... : ... .. . ... : ... .. . ...
ROW 43 : ... .. . ... : ... .. . ... : ... .. . ... : ... .. . ... : ... .. . ...
ROW 44 : ... .. . ... : ... .. . ... : ... .. . ... : ... .. . ... : D-3 00 . ...
ROW 45 : ... .. . ... : ... .. . ... : G-2 16 . ... : A-# 1B . ... : ... .. . ...
ROW 46 : ... .. . ... : ... .. . ... : ... .. . ... : ... .. . ... : ... .. . ...
ROW 47 : ... .. . ... : ... .. . ... : G-2 16 . ... : ... .. . ... : ... .. . ...
ROW 48 : ... .. . ... : ... .. . ... : ... .. . ... : ... .. . ... : C-3 00 . ...
ROW 49 : ... .. . ... : ... .. . ... : ... .. . ... : ... .. . ... : ... .. . ...
ROW 4A : ... .. . ... : ... .. . ... : ... .. . ... : ... .. . ... : C-3 00 . ...
ROW 4B : ... .. . ... : ... .. . ... : G-2 16 . ... : ... .. . ... : ... .. . ...
ROW 4C : ... .. . ... : ... .. . ... : ... .. . ... : ... .. . ... : D-3 00 . ...
ROW 4D : G-3 01 . ... : D-3 01 . ... : G-2 16 . ... : A-# 1B . ... : ... .. . ...
ROW 4E : ... .. . ... : ... .. . ... : ... .. . ... : ... .. . ... : ... .. . ...
ROW 4F : ... .. . ... : ... .. . ... : ... .. . ... : ... .. . ... : ... .. . ...
ROW 50 : ... .. . ... : ... .. . ... : ... .. . ... : ... .. . ... : C-3 00 . ...
ROW 51 : D-4 01 . ... : G-3 01 . ... : G-2 16 . ... : ... .. . ... : ... .. . ...
ROW 52 : ... .. . ... : ... .. . ... : ... .. . ... : ... .. . ... : ... .. . ...
ROW 53 : ... .. . ... : ... .. . ... : ... .. . ... : ... .. . ... : ... .. . ...
ROW 54 : ... .. . ... : ... .. . ... : ... .. . ... : ... .. . ... : D-3 00 . ...
ROW 55 : ... .. . ... : ... .. . ... : G-2 16 . ... : A-# 1B . ... : ... .. . ...
ROW 56 : ... .. . ... : ... .. . ... : ... .. . ... : ... .. . ... : C-3 00 . ...
ROW 57 : D-4 01 . ... : G-3 01 . ... : G-2 16 . ... : ... .. . ... : ... .. . ...
ROW 58 : ... .. . ... : ... .. . ... : ... .. . ... : ... .. . ... : ... .. . ...
ROW 59 : ... .. . ... : ... .. . ... : ... .. . ... : ... .. . ... : ... .. . ...
ROW 5A : ... .. . ... : ... .. . ... : ... .. . ... : ... .. . ... : C-3 00 . ...
ROW 5B : ... .. . ... : ... .. . ... : G-2 16 . ... : ... .. . ... : ... .. . ...
ROW 5C : ... .. . ... : ... .. . ... : ... .. . ... : ... .. . ... : D-3 00 . ...
ROW 5D : D-4 01 . ... : G-3 01 . ... : G-2 16 . ... : A-# 1B . ... : ... .. . ...
ROW 5E : ... .. . ... : ... .. . ... : ... .. . ... : ... .. . ... : ... .. . ...
ROW 5F : ... .. . ... : ... .. . ... : ... .. . ... : ... .. . ... : ... .. . ...
ROW 60 : ... .. . ... : ... .. . ... : ... .. . ... : ... .. . ... : C-3 00 . ...
ROW 61 : --- .. . ... : --- .. . ... : C-3 16 . ... : ... .. . ... : ... .. . ...
ROW 62 : ... .. . ... : ... .. . ... : ... .. . ... : ... .. . ... : E-3 00 . W0A
ROW 63 : A#3 01 . ... : F-3 01 . ... : F-3 16 . ... : ... .. . ... : ... .. . ...
ROW 64 : ... .. . ... : ... .. . ... : ... .. . ... : ... .. . ... : E-3 00 . W0A
ROW 65 : ... .. . ... : ... .. . ... : ... .. . ... : ... .. . ... : ... .. . ...
ROW 66 : ... .. . ... : ... .. . ... : ... .. . ... : ... .. . ... : ... .. . ...
ROW 67 : ... .. . ... : ... .. . ... : C-3 16 . ... : ... .. . ... : ... .. . ...
ROW 68 : ... .. . ... : ... .. . ... : ... .. . ... : ... .. . ... : E-3 00 . W09
ROW 69 : A-3 01 . ... : F-3 01 . ... : F-3 16 . ... : ... .. . ... : ... .. . ...
ROW 6A : ... .. . ... : ... .. . ... : ... .. . ... : ... .. . ... : E-3 00 . W09
ROW 6B : ... .. . ... : ... .. . ... : ... .. . ... : ... .. . ... : ... .. . ...
ROW 6C : ... .. . ... : ... .. . ... : ... .. . ... : ... .. . ... : ... .. . ...
ROW 6D : ... .. . ... : ... .. . ... : C-3 16 . ... : ... .. . ... : ... .. . ...
ROW 6E : ... .. . ... : ... .. . ... : ... .. . ... : ... .. . ... : E-3 00 . W0A
ROW 6F : A#3 01 . ... : F-3 01 . ... : E-3 16 . ... : ... .. . ... : ... .. . ...
ROW 70 : ... .. . ... : ... .. . ... : ... .. . ... : ... .. . ... : E-3 00 . W0A
ROW 71 : ... .. . ... : ... .. . ... : ... .. . ... : ... .. . ... : ... .. . ...
ROW 72 : ... .. . ... : ... .. . ... : ... .. . ... : ... .. . ... : ... .. . ...
ROW 73 : ... .. . ... : ... .. . ... : C-3 16 . ... : ... .. . ... : ... .. . ...
ROW 74 : ... .. . ... : ... .. . ... : ... .. . ... : ... .. . ... : E-3 00 . W09
ROW 75 : A-3 01 . ... : F-3 01 . ... : E-3 16 . ... : ... .. . ... : ... .. . ...
ROW 76 : ... .. . ... : ... .. . ... : ... .. . ... : ... .. . ... : E-3 00 . W09
ROW 77 : ... .. . ... : ... .. . ... : ... .. . ... : ... .. . ... : ... .. . ...
ROW 78 : ... .. . ... : ... .. . ... : ... .. . ... : ... .. . ... : C-3 00 . ...
ROW 79 : F-3 01 . ... : C-3 01 . ... : C-3 16 . ... : ... .. . ... : ... .. . ...
ROW 7A : ... .. . ... : ... .. . ... : ... .. . ... : ... .. . ... : C-3 00 . ...
ROW 7B : ... .. . ... : ... .. . ... : ... .. . ... : ... .. . ... : ... .. . ...
ROW 7C : ... .. . ... : ... .. . ... : ... .. . ... : ... .. . ... : D-3 00 . ...
ROW 7D : ... .. . ... : ... .. . ... : A#2 16 . ... : A-# 1B . ... : ... .. . ...
ROW 7E : ... .. . ... : ... .. . ... : ... .. . ... : ... .. . ... : D-3 00 . ...
ROW 7F : ... .. . ... : ... .. . ... : ... .. . ... : A-# 1B . ... : ... .. . ...

PATTERN 06
ROW 00 : ... .. . ... : ... .. . ... : ... .. . ... : ... .. . ... : C-3 00 . ...
ROW 01 : B-3 01 . ... : D-3 01 . ... : G-2 16 . ... : ... .. . ... : ... .. . ...
ROW 02 : ... .. . ... : ... .. . ... : ... .. . ... : ... .. . ... : ... .. . ...
ROW 03 : ... .. . ... : G-2 01 . ... : G-2 16 . ... : ... .. . ... : ... .. . ...
ROW 04 : ... .. . ... : ... .. . ... : ... .. . ... : ... .. . ... : D-3 00 . ...
ROW 05 : ... .. . ... : C-3 01 . ... : G-2 16 . ... : A-# 1B . ... : ... .. . ...
ROW 06 : ... .. . ... : ... .. . ... : ... .. . ... : ... .. . ... : ... .. . ...
ROW 07 : ... .. . ... : D-3 01 . ... : G-2 16 . ... : ... .. . ... : ... .. . ...
ROW 08 : ... .. . ... : ... .. . ... : ... .. . ... : ... .. . ... : C-3 00 . ...
ROW 09 : A-3 01 . ... : ^-3 01 . ... : G-2 16 . ... : ... .. . ... : ... .. . ...
ROW 0A : ... .. . ... : ... .. . ... : ... .. . ... : ... .. . ... : C-3 00 . ...
ROW 0B : ... .. . ... : ^-3 01 . ... : G-2 16 . ... : ... .. . ... : ... .. . ...
ROW 0C : ... .. . ... : ... .. . ... : ... .. . ... : ... .. . ... : D-3 00 . ...
ROW 0D : ... .. . ... : ^-3 01 . ... : G-2 16 . ... : A-# 1B . ... : ... .. . ...
ROW 0E : ... .. . ... : ... .. . ... : ... .. . ... : ... .. . ... : ... .. . ...
ROW 0F : ... .. . ... : ^-3 01 . ... : G-2 16 . ... : ... .. . ... : ... .. . ...
ROW 10 : ... .. . ... : ... .. . ... : ... .. . ... : ... .. . ... : C-3 00 . ...
ROW 11 : G-3 01 . ... : ^-3 01 . ... : D-3 16 . ... : ... .. . ... : ... .. . ...
ROW 12 : ... .. . ... : ... .. . ... : ... .. . ... : ... .. . ... : ... .. . ...
ROW 13 : ... .. . ... : ^-3 01 . ... : D-3 16 . ... : ... .. . ... : ... .. . ...
ROW 14 : ... .. . ... : ... .. . ... : ... .. . ... : ... .. . ... : D-3 00 . ...
ROW 15 : ... .. . ... : ^-3 01 . ... : D-3 16 . ... : A-# 1B . ... : ... .. . ...
ROW 16 : ... .. . ... : ... .. . ... : ... .. . ... : ... .. . ... : C-3 00 . ...
ROW 17 : ... .. . ... : ^-3 01 . ... : D-3 16 . ... : ... .. . ... : ... .. . ...
ROW 18 : ... .. . ... : ... .. . ... : ... .. . ... : ... .. . ... : ... .. . ...
ROW 19 : A-3 01 . ... : ^-3 01 . ... : D-3 16 . ... : ... .. . ... : ... .. . ...
ROW 1A : ... .. . ... : ... .. . ... : ... .. . ... : ... .. . ... : C-3 00 . ...
ROW 1B : ... .. . ... : ^-3 01 . ... : D-3 16 . ... : ... .. . ... : ... .. . ...
ROW 1C : ... .. . ... : ... .. . ... : ... .. . ... : ... .. . ... : D-3 00 . ...
ROW 1D : ... .. . ... : ^-3 01 . ... : D-3 16 . ... : A-# 1B . ... : ... .. . ...
ROW 1E : ... .. . ... : ... .. . ... : ... .. . ... : ... .. . ... : ... .. . ...
ROW 1F : ... .. . ... : ^-3 01 . ... : D-3 16 . ... : ... .. . ... : ... .. . ...
ROW 20 : ... .. . ... : ... .. . ... : ... .. . ... : ... .. . ... : C-3 00 . ...
ROW 21 : A#3 01 . ... : D#3 01 . ... : G#2 16 . ... : ... .. . ... : ... .. . ...
ROW 22 : ... .. . ... : ... .. . ... : ... .. . ... : ... .. . ... : ... .. . ...
ROW 23 : ... .. . ... : G#2 01 . ... : G#2 16 . ... : ... .. . ... : ... .. . ...
ROW 24 : ... .. . ... : ... .. . ... : ... .. . ... : ... .. . ... : D-3 00 . ...
ROW 25 : ... .. . ... : C#3 01 . ... : G#2 16 . ... : A-# 1B . ... : ... .. . ...
ROW 26 : ... .. . ... : ... .. . ... : ... .. . ... : ... .. . ... : ... .. . ...
ROW 27 : ... .. . ... : D#3 01 . ... : G#2 16 . ... : ... .. . ... : ... .. . ...
ROW 28 : ... .. . ... : ... .. . ... : ... .. . ... : ... .. . ... : C-3 00 . ...
ROW 29 : G#3 01 . ... : ^-3 01 . ... : G#2 16 . ... : ... .. . ... : ... .. . ...
ROW 2A : ... .. . ... : ... .. . ... : ... .. . ... : ... .. . ... : C-3 00 . ...
ROW 2B : ... .. . ... : ^-3 01 . ... : G#2 16 . ... : ... .. . ... : ... .. . ...
ROW 2C : ... .. . ... : ... .. . ... : ... .. . ... : ... .. . ... : D-3 00 . ...
ROW 2D : ... .. . ... : ^-3 01 . ... : G#2 16 . ... : A-# 1B . ... : ... .. . ...
ROW 2E : ... .. . ... : ... .. . ... : ... .. . ... : ... .. . ... : ... .. . ...
ROW 2F : ... .. . ... : ^-3 01 . ... : G#2 16 . ... : ... .. . ... : ... .. . ...
ROW 30 : ... .. . ... : ... .. . ... : ... .. . ... : ... .. . ... : C-3 00 . ...
ROW 31 : F#3 01 . ... : ^-3 01 . ... : D#3 16 . ... : ... .. . ... : ... .. . ...
ROW 32 : ... .. . ... : ... .. . ... : ... .. . ... : ... .. . ... : ... .. . ...
ROW 33 : ... .. . ... : ^-3 01 . ... : D#3 16 . ... : ... .. . ... : ... .. . ...
ROW 34 : ... .. . ... : ... .. . ... : ... .. . ... : ... .. . ... : D-3 00 . ...
ROW 35 : ... .. . ... : ^-3 01 . ... : D#3 16 . ... : A-# 1B . ... : ... .. . ...
ROW 36 : ... .. . ... : ... .. . ... : ... .. . ... : ... .. . ... : C-3 00 . ...
ROW 37 : ... .. . ... : ^-3 01 . ... : D#3 16 . ... : ... .. . ... : ... .. . ...
ROW 38 : ... .. . ... : ... .. . ... : ... .. . ... : ... .. . ... : ... .. . ...
ROW 39 : G#3 01 . ... : ^-3 01 . ... : D#3 16 . ... : ... .. . ... : ... .. . ...
ROW 3A : ... .. . ... : ... .. . ... : ... .. . ... : ... .. . ... : C-3 00 . ...
ROW 3B : ... .. . ... : ^-3 01 . ... : D#3 16 . ... : ... .. . ... : ... .. . ...
ROW 3C : ... .. . ... : ... .. . ... : ... .. . ... : ... .. . ... : D-3 00 . ...
ROW 3D : ... .. . ... : ^-3 01 . ... : D#3 16 . ... : A-# 1B . ... : ... .. . ...
ROW 3E : ... .. . ... : ... .. . ... : ... .. . ... : ... .. . ... : ... .. . ...
ROW 3F : ... .. . ... : ^-3 01 . ... : D#3 16 . ... : ... .. . ... : ... .. . ...
ROW 40 : ... .. . ... : ... .. . ... : ... .. . ... : ... .. . ... : C-3 00 . ...
ROW 41 : B-3 01 . ... : E-3 01 . ... : A-2 16 . ... : ... .. . ... : ... .. . ...
ROW 42 : ... .. . ... : ... .. . ... : ... .. . ... : ... .. . ... : ... .. . ...
ROW 43 : ... .. . ... : A-2 01 . ... : A-2 16 . ... : ... .. . ... : ... .. . ...
ROW 44 : ... .. . ... : ... .. . ... : ... .. . ... : ... .. . ... : D-3 00 . ...
ROW 45 : ... .. . ... : D-3 01 . ... : A-2 16 . ... : A-# 1B . ... : ... .. . ...
ROW 46 : ... .. . ... : ... .. . ... : ... .. . ... : ... .. . ... : ... .. . ...
ROW 47 : ... .. . ... : E-3 01 . ... : A-2 16 . ... : ... .. . ... : ... .. . ...
ROW 48 : ... .. . ... : ... .. . ... : ... .. . ... : ... .. . ... : C-3 00 . ...
ROW 49 : A-3 01 . ... : ^-3 01 . ... : A-2 16 . ... : ... .. . ... : ... .. . ...
ROW 4A : ... .. . ... : ... .. . ... : ... .. . ... : ... .. . ... : C-3 00 . ...
ROW 4B : ... .. . ... : ^-3 01 . ... : A-2 16 . ... : ... .. . ... : ... .. . ...
ROW 4C : ... .. . ... : ... .. . ... : ... .. . ... : ... .. . ... : D-3 00 . ...
ROW 4D : ... .. . ... : ^-3 01 . ... : A-2 16 . ... : A-# 1B . ... : ... .. . ...
ROW 4E : ... .. . ... : ... .. . ... : ... .. . ... : ... .. . ... : ... .. . ...
ROW 4F : ... .. . ... : ^-3 01 . ... : A-2 16 . ... : ... .. . ... : ... .. . ...
ROW 50 : ... .. . ... : ... .. . ... : ... .. . ... : ... .. . ... : C-3 00 . ...
ROW 51 : C-4 01 . ... : ^-3 01 . ... : E-3 16 . ... : ... .. . ... : ... .. . ...
ROW 52 : ... .. . ... : ... .. . ... : ... .. . ... : ... .. . ... : ... .. . ...
ROW 53 : ... .. . ... : ^-3 01 . ... : E-3 16 . ... : ... .. . ... : ... .. . ...
ROW 54 : ... .. . ... : ... .. . ... : ... .. . ... : ... .. . ... : D-3 00 . ...
ROW 55 : ... .. . ... : ^-3 01 . ... : E-3 16 . ... : A-# 1B . ... : ... .. . ...
ROW 56 : ... .. . ... : ... .. . ... : ... .. . ... : ... .. . ... : C-3 00 . ...
ROW 57 : ... .. . ... : ^-3 01 . ... : E-3 16 . ... : ... .. . ... : ... .. . ...
ROW 58 : ... .. . ... : ... .. . ... : ... .. . ... : ... .. . ... : ... .. . ...
ROW 59 : D-4 01 . ... : ^-3 01 . ... : E-3 16 . ... : ... .. . ... : ... .. . ...
ROW 5A : ... .. . ... : ... .. . ... : ... .. . ... : ... .. . ... : C-3 00 . ...
ROW 5B : ... .. . ... : ^-3 01 . ... : E-3 16 . ... : ... .. . ... : ... .. . ...
ROW 5C : ... .. . ... : ... .. . ... : ... .. . ... : ... .. . ... : D-3 00 . ...
ROW 5D : ... .. . ... : ^-3 01 . ... : E-3 16 . ... : A-# 1B . ... : ... .. . ...
ROW 5E : ... .. . ... : ... .. . ... : ... .. . ... : ... .. . ... : ... .. . ...
ROW 5F : ... .. . ... : ^-3 01 . ... : E-3 16 . ... : ... .. . ... : ... .. . ...
ROW 60 : ... .. . ... : ... .. . ... : ... .. . ... : ... .. . ... : E-3 00 . W0A
ROW 61 : D-3 01 . ... : G-2 01 . ... : D-3 16 . ... : ... .. . ... : ... .. . ...
ROW 62 : ... .. . ... : ... .. . ... : ... .. . ... : ... .. . ... : E-3 00 . W09
ROW 63 : D-4 01 . ... : G-3 01 . ... : D-3 16 . ... : ... .. . ... : ... .. . ...
ROW 64 : ... .. . ... : ... .. . ... : ... .. . ... : ... .. . ... : E-3 00 . W08
ROW 65 : ... .. . ... : ... .. . ... : C-3 16 . ... : ... .. . ... : ... .. . ...
ROW 66 : ... .. . ... : ... .. . ... : ... .. . ... : ... .. . ... : E-3 00 . W0A
ROW 67 : D-3 01 . ... : G-2 01 . ... : D-3 16 . ... : ... .. . ... : ... .. . ...
ROW 68 : ... .. . ... : ... .. . ... : ... .. . ... : ... .. . ... : E-3 00 . W09
ROW 69 : C#4 01 . ... : F#3 01 . ... : D-3 16 . ... : ... .. . ... : ... .. . ...
ROW 6A : ... .. . ... : ... .. . ... : ... .. . ... : ... .. . ... : E-3 00 . W08
ROW 6B : ... .. . ... : ... .. . ... : C-3 16 . ... : ... .. . ... : ... .. . ...
ROW 6C : ... .. . ... : ... .. . ... : ... .. . ... : ... .. . ... : E-3 00 . W0A
ROW 6D : D-3 01 . ... : G-2 01 . ... : D-3 16 . ... : ... .. . ... : ... .. . ...
ROW 6E : ... .. . ... : ... .. . ... : ... .. . ... : ... .. . ... : E-3 00 . W09
ROW 6F : D-4 01 . ... : G-3 01 . ... : D-3 16 . ... : ... .. . ... : ... .. . ...
ROW 70 : ... .. . ... : ... .. . ... : ... .. . ... : ... .. . ... : C-3 00 . ...
ROW 71 : ... .. . ... : ... .. . ... : C-3 16 . ... : ... .. . ... : ... .. . ...
ROW 72 : ... .. . ... : ... .. . ... : ... .. . ... : ... .. . ... : ... .. . ...
ROW 73 : D-3 01 . ... : G-2 01 . ... : D-3 16 . ... : ... .. . ... : ... .. . ...
ROW 74 : ... .. . ... : ... .. . ... : ... .. . ... : ... .. . ... : D-3 00 . ...
ROW 75 : C#4 01 . ... : F#3 01 . ... : D-3 16 . ... : A-# 1B . ... : ... .. . ...
ROW 76 : ... .. . ... : ... .. . ... : ... .. . ... : ... .. . ... : ... .. . ...
ROW 77 : ... .. . ... : ... .. . ... : C-3 16 . ... : ... .. . ... : ... .. . ...
ROW 78 : ... .. . ... : ... .. . ... : ... .. . ... : ... .. . ... : C-3 00 . ...
ROW 79 : A-3 01 . ... : D-4 01 . ... : D-3 16 . ... : ... .. . ... : ... .. . ...
ROW 7A : ... .. . ... : ... .. . ... : ... .. . ... : ... .. . ... : C-3 00 . ...
ROW 7B : ... .. . ... : ... .. . ... : ... .. . ... : ... .. . ... : ... .. . ...
ROW 7C : ... .. . ... : ... .. . ... : ... .. . ... : ... .. . ... : D-3 00 . ...
ROW 7D : ... .. . ... : ... .. . ... : D-3 16 . ... : A-# 1B . ... : ... .. . ...
ROW 7E : ... .. . ... : ... .. . ... : ... .. . ... : ... .. . ... : D-3 00 . ...
ROW 7F : ... .. . ... : ... .. . ... : ... .. . ... : A-# 1B . ... : ... .. . B01

TRACK  64   0 150 "Final Boss Part 1"
COLUMNS : 1 1 1 1 1

ORDER 00 : 00 00 00 00 00
ORDER 01 : 01 01 01 01 01
ORDER 02 : 02 02 02 02 02
ORDER 03 : 03 03 03 03 03
ORDER 04 : 04 04 04 04 04

PATTERN 00
ROW 00 : ... .. . ... : ... .. . ... : ... .. . P7F : ... .. . ... : E-3 00 . W0A
ROW 01 : A-3 11 . ... : E-3 11 . ... : A-3 00 . ... : ... .. . ... : ... .. . ...
ROW 02 : ... .. . ... : ... .. . ... : ... .. . ... : ... .. . ... : E-3 00 . W0A
ROW 03 : A-3 11 . ... : E-3 11 . ... : E-3 00 . ... : ... .. . ... : ... .. . ...
ROW 04 : ... .. . ... : ... .. . ... : ... .. . ... : ... .. . ... : E-3 00 . W09
ROW 05 : A-3 11 . ... : E-3 11 . ... : A-3 00 . ... : ... .. . ... : ... .. . ...
ROW 06 : ... .. . ... : ... .. . ... : ... .. . ... : ... .. . ... : E-3 00 . W09
ROW 07 : A-3 11 . ... : E-3 11 . ... : E-3 00 . ... : ... .. . ... : ... .. . ...
ROW 08 : ... .. . ... : ... .. . ... : ... .. . ... : ... .. . ... : E-3 00 . W08
ROW 09 : A-3 11 . ... : E-3 11 . ... : G-3 00 . ... : ... .. . ... : ... .. . ...
ROW 0A : ... .. . ... : ... .. . ... : ... .. . ... : ... .. . ... : ... .. . ...
ROW 0B : ... .. . ... : ... .. . ... : D#3 00 . ... : ... .. . ... : ... .. . ...
ROW 0C : ... .. . ... : ... .. . ... : ... .. . ... : ... .. . ... : C-3 00 . ...
ROW 0D : --- .. . ... : --- .. . ... : G-3 00 . ... : ... .. . ... : ... .. . ...
ROW 0E : ... .. . ... : ... .. . ... : ... .. . ... : ... .. . ... : C-3 00 . ...
ROW 0F : ... .. . ... : ... .. . ... : D#3 00 . ... : ... .. . ... : ... .. . ...
ROW 10 : ... .. . ... : ... .. . ... : ... .. . ... : ... .. . ... : D-3 00 . ...
ROW 11 : ... .. . ... : ... .. . ... : F-3 00 . ... : A-# 1B . ... : ... .. . ...
ROW 12 : ... .. . ... : ... .. . ... : ... .. . ... : ... .. . ... : ... .. . ...
ROW 13 : ... .. . ... : ... .. . ... : C-3 00 . ... : --- .. . ... : ... .. . ...
ROW 14 : ... .. . ... : ... .. . ... : ... .. . ... : ... .. . ... : E-3 00 . W0A
ROW 15 : G-3 11 . ... : D-3 11 . ... : F-3 00 . ... : ... .. . ... : ... .. . ...
ROW 16 : ... .. . ... : ... .. . ... : ... .. . ... : ... .. . ... : E-3 00 . W0A
ROW 17 : ... .. . ... : ... .. . ... : C-3 00 . ... : ... .. . ... : ... .. . ...
ROW 18 : ... .. . ... : ... .. . ... : ... .. . ... : ... .. . ... : E-3 00 . W09
ROW 19 : ... .. . ... : ... .. . ... : F-3 00 . ... : ... .. . ... : ... .. . ...
ROW 1A : ... .. . ... : ... .. . ... : ... .. . ... : ... .. . ... : E-3 00 . W09
ROW 1B : ... .. . ... : ... .. . ... : C-3 00 . ... : ... .. . ... : ... .. . ...
ROW 1C : ... .. . ... : ... .. . ... : ... .. . ... : ... .. . ... : D-3 00 . ...
ROW 1D : A#3 11 . ... : F-3 11 . ... : F-3 00 . ... : A-# 1B . ... : ... .. . ...
ROW 1E : ... .. . ... : ... .. . ... : ... .. . ... : ... .. . ... : D-3 00 . ...
ROW 1F : ... .. . ... : ... .. . ... : C-3 00 . ... : A-# 1B . ... : ... .. . ...
ROW 20 : ... .. . ... : ... .. . ... : ... .. . ... : ... .. . ... : E-3 00 . W0A
ROW 21 : A-3 11 . ... : E-3 11 . ... : A-3 00 . ... : --- .. . ... : ... .. . ...
ROW 22 : ... .. . ... : ... .. . ... : ... .. . ... : ... .. . ... : E-3 00 . W0A
ROW 23 : A-3 11 . ... : E-3 11 . ... : E-3 00 . ... : ... .. . ... : ... .. . ...
ROW 24 : ... .. . ... : ... .. . ... : ... .. . ... : ... .. . ... : E-3 00 . W09
ROW 25 : A-3 11 . ... : E-3 11 . ... : A-3 00 . ... : ... .. . ... : ... .. . ...
ROW 26 : ... .. . ... : ... .. . ... : ... .. . ... : ... .. . ... : E-3 00 . W09
ROW 27 : A-3 11 . ... : E-3 11 . ... : E-3 00 . ... : ... .. . ... : ... .. . ...
ROW 28 : ... .. . ... : ... .. . ... : ... .. . ... : ... .. . ... : E-3 00 . W08
ROW 29 : A-3 11 . ... : E-3 11 . ... : G-3 00 . ... : ... .. . ... : ... .. . ...
ROW 2A : ... .. . ... : ... .. . ... : ... .. . ... : ... .. . ... : ... .. . ...
ROW 2B : ... .. . ... : ... .. . ... : D#3 00 . ... : ... .. . ... : ... .. . ...
ROW 2C : ... .. . ... : ... .. . ... : ... .. . ... : ... .. . ... : C-3 00 . ...
ROW 2D : --- .. . ... : --- .. . ... : G-3 00 . ... : ... .. . ... : ... .. . ...
ROW 2E : ... .. . ... : ... .. . ... : ... .. . ... : ... .. . ... : C-3 00 . ...
ROW 2F : ... .. . ... : ... .. . ... : D#3 00 . ... : ... .. . ... : ... .. . ...
ROW 30 : ... .. . ... : ... .. . ... : ... .. . ... : ... .. . ... : D-3 00 . ...
ROW 31 : ... .. . ... : ... .. . ... : F-3 00 . ... : A-# 1B . ... : ... .. . ...
ROW 32 : ... .. . ... : ... .. . ... : ... .. . ... : ... .. . ... : ... .. . ...
ROW 33 : ... .. . ... : ... .. . ... : C-3 00 . ... : --- .. . ... : ... .. . ...
ROW 34 : ... .. . ... : ... .. . ... : ... .. . ... : ... .. . ... : E-3 00 . W0A
ROW 35 : ... .. . ... : ... .. . ... : F-3 00 . ... : ... .. . ... : ... .. . ...
ROW 36 : ... .. . ... : ... .. . ... : ... .. . ... : ... .. . ... : E-3 00 . W0A
ROW 37 : ... .. . ... : ... .. . ... : C-3 00 . ... : ... .. . ... : ... .. . ...
ROW 38 : ... .. . ... : ... .. . ... : ... .. . ... : ... .. . ... : E-3 00 . W09
ROW 39 : ... .. . ... : ... .. . ... : F-3 00 . ... : ... .. . ... : ... .. . ...
ROW 3A : ... .. . ... : ... .. . ... : ... .. . ... : ... .. . ... : E-3 00 . W09
ROW 3B : ... .. . ... : ... .. . ... : C-3 00 . ... : ... .. . ... : ... .. . ...
ROW 3C : ... .. . ... : ... .. . ... : ... .. . ... : ... .. . ... : D-3 00 . ...
ROW 3D : ... .. . ... : ... .. . ... : F-3 00 . ... : A-# 1B . ... : ... .. . ...
ROW 3E : ... .. . ... : ... .. . ... : ... .. . ... : ... .. . ... : D-3 00 . ...
ROW 3F : ... .. . ... : ... .. . ... : C-3 00 . ... : A-# 1B . ... : ... .. . ...

PATTERN 01
ROW 00 : ... .. . ... : ... .. . ... : ... .. . P7F : ... .. . ... : E-3 00 . W0A
ROW 01 : A-3 11 . ... : E-3 11 . ... : A-3 00 . ... : --- .. . ... : ... .. . ...
ROW 02 : ... .. . ... : ... .. . ... : ... .. . ... : ... .. . ... : E-3 00 . W0A
ROW 03 : A-3 11 . ... : E-3 11 . ... : E-3 00 . ... : ... .. . ... : ... .. . ...
ROW 04 : ... .. . ... : ... .. . ... : ... .. . ... : ... .. . ... : E-3 00 . W09
ROW 05 : A-3 11 . ... : E-3 11 . ... : A-3 00 . ... : ... .. . ... : ... .. . ...
ROW 06 : ... .. . ... : ... .. . ... : ... .. . ... : ... .. . ... : E-3 00 . W09
ROW 07 : A-3 11 . ... : E-3 11 . ... : E-3 00 . ... : ... .. . ... : ... .. . ...
ROW 08 : ... .. . ... : ... .. . ... : ... .. . ... : ... .. . ... : E-3 00 . W08
ROW 09 : A-3 11 . ... : E-3 11 . ... : G-3 00 . ... : ... .. . ... : ... .. . ...
ROW 0A : ... .. . ... : ... .. . ... : ... .. . ... : ... .. . ... : ... .. . ...
ROW 0B : ... .. . ... : ... .. . ... : D#3 00 . ... : ... .. . ... : ... .. . ...
ROW 0C : ... .. . ... : ... .. . ... : ... .. . ... : ... .. . ... : C-3 00 . ...
ROW 0D : --- .. . ... : --- .. . ... : G-3 00 . ... : ... .. . ... : ... .. . ...
ROW 0E : ... .. . ... : ... .. . ... : ... .. . ... : ... .. . ... : C-3 00 . ...
ROW 0F : ... .. . ... : ... .. . ... : D#3 00 . ... : ... .. . ... : ... .. . ...
ROW 10 : ... .. . ... : ... .. . ... : ... .. . ... : ... .. . ... : D-3 00 . ...
ROW 11 : ... .. . ... : ... .. . ... : F-3 00 . ... : A-# 1B . ... : ... .. . ...
ROW 12 : ... .. . ... : ... .. . ... : ... .. . ... : ... .. . ... : ... .. . ...
ROW 13 : ... .. . ... : ... .. . ... : C-3 00 . ... : --- .. . ... : ... .. . ...
ROW 14 : ... .. . ... : ... .. . ... : ... .. . ... : ... .. . ... : E-3 00 . W0A
ROW 15 : G-3 11 . ... : D-3 11 . ... : F-3 00 . ... : ... .. . ... : ... .. . ...
ROW 16 : ... .. . ... : ... .. . ... : ... .. . ... : ... .. . ... : E-3 00 . W0A
ROW 17 : ... .. . ... : ... .. . ... : C-3 00 . ... : ... .. . ... : ... .. . ...
ROW 18 : ... .. . ... : ... .. . ... : ... .. . ... : ... .. . ... : E-3 00 . W09
ROW 19 : ... .. . ... : ... .. . ... : F-3 00 . ... : ... .. . ... : ... .. . ...
ROW 1A : ... .. . ... : ... .. . ... : ... .. . ... : ... .. . ... : E-3 00 . W09
ROW 1B : ... .. . ... : ... .. . ... : C-3 00 . ... : ... .. . ... : ... .. . ...
ROW 1C : ... .. . ... : ... .. . ... : ... .. . ... : ... .. . ... : D-3 00 . ...
ROW 1D : A#3 11 . ... : F-3 11 . ... : F-3 00 . ... : A-# 1B . ... : ... .. . ...
ROW 1E : ... .. . ... : ... .. . ... : ... .. . ... : ... .. . ... : D-3 00 . ...
ROW 1F : ... .. . ... : ... .. . ... : C-3 00 . ... : A-# 1B . ... : ... .. . ...
ROW 20 : ... .. . ... : ... .. . ... : ... .. . ... : ... .. . ... : E-3 00 . W0A
ROW 21 : A-3 11 . ... : E-3 11 . ... : A-3 00 . ... : --- .. . ... : ... .. . ...
ROW 22 : ... .. . ... : ... .. . ... : ... .. . ... : ... .. . ... : E-3 00 . W0A
ROW 23 : A-3 11 . ... : E-3 11 . ... : E-3 00 . ... : ... .. . ... : ... .. . ...
ROW 24 : ... .. . ... : ... .. . ... : ... .. . ... : ... .. . ... : E-3 00 . W09
ROW 25 : A-3 11 . ... : E-3 11 . ... : A-3 00 . ... : ... .. . ... : ... .. . ...
ROW 26 : ... .. . ... : ... .. . ... : ... .. . ... : ... .. . ... : E-3 00 . W09
ROW 27 : A-3 11 . ... : E-3 11 . ... : E-3 00 . ... : ... .. . ... : ... .. . ...
ROW 28 : ... .. . ... : ... .. . ... : ... .. . ... : ... .. . ... : E-3 00 . W08
ROW 29 : A-3 11 . ... : E-3 11 . ... : G-3 00 . ... : ... .. . ... : ... .. . ...
ROW 2A : ... .. . ... : ... .. . ... : ... .. . ... : ... .. . ... : ... .. . ...
ROW 2B : ... .. . ... : ... .. . ... : D#3 00 . ... : ... .. . ... : ... .. . ...
ROW 2C : ... .. . ... : ... .. . ... : ... .. . ... : ... .. . ... : C-3 00 . ...
ROW 2D : --- .. . ... : --- .. . ... : G-3 00 . ... : ... .. . ... : ... .. . ...
ROW 2E : ... .. . ... : ... .. . ... : ... .. . ... : ... .. . ... : C-3 00 . ...
ROW 2F : ... .. . ... : ... .. . ... : D#3 00 . ... : ... .. . ... : ... .. . ...
ROW 30 : ... .. . ... : ... .. . ... : ... .. . ... : ... .. . ... : D-3 00 . ...
ROW 31 : ... .. . ... : ... .. . ... : F-3 00 . ... : A-# 1B . ... : ... .. . ...
ROW 32 : ... .. . ... : ... .. . ... : ... .. . ... : ... .. . ... : ... .. . ...
ROW 33 : ... .. . ... : ... .. . ... : C-3 00 . ... : --- .. . ... : ... .. . ...
ROW 34 : ... .. . ... : ... .. . ... : ... .. . ... : ... .. . ... : E-3 00 . W0A
ROW 35 : ... .. . ... : ... .. . ... : F-3 00 . ... : ... .. . ... : ... .. . ...
ROW 36 : ... .. . ... : ... .. . ... : ... .. . ... : ... .. . ... : E-3 00 . W0A
ROW 37 : ... .. . ... : ... .. . ... : C-3 00 . ... : ... .. . ... : ... .. . ...
ROW 38 : ... .. . ... : ... .. . ... : ... .. . ... : ... .. . ... : E-3 00 . W09
ROW 39 : ... .. . ... : ... .. . ... : F-3 00 . ... : ... .. . ... : ... .. . ...
ROW 3A : ... .. . ... : ... .. . ... : ... .. . ... : ... .. . ... : E-3 00 . W09
ROW 3B : ... .. . ... : ... .. . ... : C-3 00 . ... : ... .. . ... : ... .. . ...
ROW 3C : ... .. . ... : ... .. . ... : ... .. . ... : ... .. . ... : D-3 00 . ...
ROW 3D : ... .. . ... : ... .. . ... : F-3 00 . ... : A-# 1B . ... : ... .. . ...
ROW 3E : ... .. . ... : ... .. . ... : ... .. . ... : ... .. . ... : D-3 00 . ...
ROW 3F : ... .. . ... : ... .. . ... : C-3 00 . ... : A-# 1B . ... : ... .. . ...

PATTERN 02
ROW 00 : ... .. . ... : ... .. . ... : ... .. . P7F : ... .. . ... : E-3 00 . W0A
ROW 01 : C-4 11 . ... : G-3 11 . ... : C-4 00 . ... : --- .. . ... : ... .. . ...
ROW 02 : ... .. . ... : ... .. . ... : ... .. . ... : ... .. . ... : E-3 00 . W0A
ROW 03 : C-4 11 . ... : G-3 11 . ... : G-3 00 . ... : ... .. . ... : ... .. . ...
ROW 04 : ... .. . ... : ... .. . ... : ... .. . ... : ... .. . ... : E-3 00 . W09
ROW 05 : C-4 11 . ... : G-3 11 . ... : C-4 00 . ... : ... .. . ... : ... .. . ...
ROW 06 : ... .. . ... : ... .. . ... : ... .. . ... : ... .. . ... : E-3 00 . W09
ROW 07 : C-4 11 . ... : G-3 11 . ... : G-3 00 . ... : ... .. . ... : ... .. . ...
ROW 08 : ... .. . ... : ... .. . ... : ... .. . ... : ... .. . ... : E-3 00 . W08
ROW 09 : C-4 11 . ... : G-3 11 . ... : A#3 00 . ... : ... .. . ... : ... .. . ...
ROW 0A : ... .. . ... : ... .. . ... : ... .. . ... : ... .. . ... : ... .. . ...
ROW 0B : ... .. . ... : ... .. . ... : F#3 00 . ... : ... .. . ... : ... .. . ...
ROW 0C : ... .. . ... : ... .. . ... : ... .. . ... : ... .. . ... : C-3 00 . ...
ROW 0D : --- .. . ... : --- .. . ... : A#3 00 . ... : ... .. . ... : ... .. . ...
ROW 0E : ... .. . ... : ... .. . ... : ... .. . ... : ... .. . ... : C-3 00 . ...
ROW 0F : ... .. . ... : ... .. . ... : F#3 00 . ... : ... .. . ... : ... .. . ...
ROW 10 : ... .. . ... : ... .. . ... : ... .. . ... : ... .. . ... : D-3 00 . ...
ROW 11 : ... .. . ... : ... .. . ... : G#3 00 . ... : A-# 1B . ... : ... .. . ...
ROW 12 : ... .. . ... : ... .. . ... : ... .. . ... : ... .. . ... : ... .. . ...
ROW 13 : ... .. . ... : ... .. . ... : D#3 00 . ... : --- .. . ... : ... .. . ...
ROW 14 : ... .. . ... : ... .. . ... : ... .. . ... : ... .. . ... : E-3 00 . W0A
ROW 15 : A#3 11 . ... : F-3 11 . ... : G#3 00 . ... : ... .. . ... : ... .. . ...
ROW 16 : ... .. . ... : ... .. . ... : ... .. . ... : ... .. . ... : E-3 00 . W0A
ROW 17 : ... .. . ... : ... .. . ... : D#3 00 . ... : ... .. . ... : ... .. . ...
ROW 18 : ... .. . ... : ... .. . ... : ... .. . ... : ... .. . ... : E-3 00 . W09
ROW 19 : ... .. . ... : ... .. . ... : G#3 00 . ... : ... .. . ... : ... .. . ...
ROW 1A : ... .. . ... : ... .. . ... : ... .. . ... : ... .. . ... : E-3 00 . W09
ROW 1B : ... .. . ... : ... .. . ... : D#3 00 . ... : ... .. . ... : ... .. . ...
ROW 1C : ... .. . ... : ... .. . ... : ... .. . ... : ... .. . ... : D-3 00 . ...
ROW 1D : C#4 11 . ... : G#3 11 . ... : G#3 00 . ... : A-# 1B . ... : ... .. . ...
ROW 1E : ... .. . ... : ... .. . ... : ... .. . ... : ... .. . ... : D-3 00 . ...
ROW 1F : ... .. . ... : ... .. . ... : D#3 00 . ... : A-# 1B . ... : ... .. . ...
ROW 20 : ... .. . ... : ... .. . ... : ... .. . ... : ... .. . ... : E-3 00 . W0A
ROW 21 : C-4 11 . ... : G-3 11 . ... : C-4 00 . ... : --- .. . ... : ... .. . ...
ROW 22 : ... .. . ... : ... .. . ... : ... .. . ... : ... .. . ... : E-3 00 . W0A
ROW 23 : C-4 11 . ... : G-3 11 . ... : G-3 00 . ... : ... .. . ... : ... .. . ...
ROW 24 : ... .. . ... : ... .. . ... : ... .. . ... : ... .. . ... : E-3 00 . W09
ROW 25 : C-4 11 . ... : G-3 11 . ... : C-4 00 . ... : ... .. . ... : ... .. . ...
ROW 26 : ... .. . ... : ... .. . ... : ... .. . ... : ... .. . ... : E-3 00 . W09
ROW 27 : C-4 11 . ... : G-3 11 . ... : G-3 00 . ... : ... .. . ... : ... .. . ...
ROW 28 : ... .. . ... : ... .. . ... : ... .. . ... : ... .. . ... : E-3 00 . W08
ROW 29 : C-4 11 . ... : G-3 11 . ... : A#3 00 . ... : ... .. . ... : ... .. . ...
ROW 2A : ... .. . ... : ... .. . ... : ... .. . ... : ... .. . ... : ... .. . ...
ROW 2B : ... .. . ... : ... .. . ... : F#3 00 . ... : ... .. . ... : ... .. . ...
ROW 2C : ... .. . ... : ... .. . ... : ... .. . ... : ... .. . ... : C-3 00 . ...
ROW 2D : --- .. . ... : --- .. . ... : A#3 00 . ... : ... .. . ... : ... .. . ...
ROW 2E : ... .. . ... : ... .. . ... : ... .. . ... : ... .. . ... : C-3 00 . ...
ROW 2F : ... .. . ... : ... .. . ... : F#3 00 . ... : ... .. . ... : ... .. . ...
ROW 30 : ... .. . ... : ... .. . ... : ... .. . ... : ... .. . ... : D-3 00 . ...
ROW 31 : ... .. . ... : ... .. . ... : G#3 00 . ... : A-# 1B . ... : ... .. . ...
ROW 32 : ... .. . ... : ... .. . ... : ... .. . ... : ... .. . ... : ... .. . ...
ROW 33 : ... .. . ... : ... .. . ... : D#3 00 . ... : --- .. . ... : ... .. . ...
ROW 34 : ... .. . ... : ... .. . ... : ... .. . ... : ... .. . ... : E-3 00 . W0A
ROW 35 : ... .. . ... : ... .. . ... : G#3 00 . ... : ... .. . ... : ... .. . ...
ROW 36 : ... .. . ... : ... .. . ... : ... .. . ... : ... .. . ... : E-3 00 . W0A
ROW 37 : ... .. . ... : ... .. . ... : D#3 00 . ... : ... .. . ... : ... .. . ...
ROW 38 : ... .. . ... : ... .. . ... : ... .. . ... : ... .. . ... : E-3 00 . W09
ROW 39 : ... .. . ... : ... .. . ... : G#3 00 . ... : ... .. . ... : ... .. . ...
ROW 3A : ... .. . ... : ... .. . ... : ... .. . ... : ... .. . ... : E-3 00 . W09
ROW 3B : ... .. . ... : ... .. . ... : D#3 00 . ... : ... .. . ... : ... .. . ...
ROW 3C : ... .. . ... : ... .. . ... : ... .. . ... : ... .. . ... : D-3 00 . ...
ROW 3D : ... .. . ... : ... .. . ... : G#3 00 . ... : A-# 1B . ... : ... .. . ...
ROW 3E : ... .. . ... : ... .. . ... : ... .. . ... : ... .. . ... : D-3 00 . ...
ROW 3F : ... .. . ... : ... .. . ... : D#3 00 . ... : A-# 1B . ... : ... .. . ...

PATTERN 03
ROW 00 : ... .. . ... : ... .. . ... : ... .. . P7F : ... .. . ... : E-3 00 . W0A
ROW 01 : C-4 11 . ... : G-3 11 . ... : C-4 00 . ... : --- .. . ... : ... .. . ...
ROW 02 : ... .. . ... : ... .. . ... : ... .. . ... : ... .. . ... : E-3 00 . W0A
ROW 03 : C-4 11 . ... : G-3 11 . ... : G-3 00 . ... : ... .. . ... : ... .. . ...
ROW 04 : ... .. . ... : ... .. . ... : ... .. . ... : ... .. . ... : E-3 00 . W09
ROW 05 : C-4 11 . ... : G-3 11 . ... : C-4 00 . ... : ... .. . ... : ... .. . ...
ROW 06 : ... .. . ... : ... .. . ... : ... .. . ... : ... .. . ... : E-3 00 . W09
ROW 07 : C-4 11 . ... : G-3 11 . ... : G-3 00 . ... : ... .. . ... : ... .. . ...
ROW 08 : ... .. . ... : ... .. . ... : ... .. . ... : ... .. . ... : E-3 00 . W08
ROW 09 : C-4 11 . ... : G-3 11 . ... : A#3 00 . ... : ... .. . ... : ... .. . ...
ROW 0A : ... .. . ... : ... .. . ... : ... .. . ... : ... .. . ... : ... .. . ...
ROW 0B : ... .. . ... : ... .. . ... : F#3 00 . ... : ... .. . ... : ... .. . ...
ROW 0C : ... .. . ... : ... .. . ... : ... .. . ... : ... .. . ... : C-3 00 . ...
ROW 0D : --- .. . ... : --- .. . ... : A#3 00 . ... : ... .. . ... : ... .. . ...
ROW 0E : ... .. . ... : ... .. . ... : ... .. . ... : ... .. . ... : C-3 00 . ...
ROW 0F : ... .. . ... : ... .. . ... : F#3 00 . ... : ... .. . ... : ... .. . ...
ROW 10 : ... .. . ... : ... .. . ... : ... .. . ... : ... .. . ... : D-3 00 . ...
ROW 11 : ... .. . ... : ... .. . ... : G#3 00 . ... : A-# 1B . ... : ... .. . ...
ROW 12 : ... .. . ... : ... .. . ... : ... .. . ... : ... .. . ... : ... .. . ...
ROW 13 : ... .. . ... : ... .. . ... : D#3 00 . ... : --- .. . ... : ... .. . ...
ROW 14 : ... .. . ... : ... .. . ... : ... .. . ... : ... .. . ... : E-3 00 . W0A
ROW 15 : A#3 11 . ... : F-3 11 . ... : G#3 00 . ... : ... .. . ... : ... .. . ...
ROW 16 : ... .. . ... : ... .. . ... : ... .. . ... : ... .. . ... : E-3 00 . W0A
ROW 17 : ... .. . ... : ... .. . ... : D#3 00 . ... : ... .. . ... : ... .. . ...
ROW 18 : ... .. . ... : ... .. . ... : ... .. . ... : ... .. . ... : E-3 00 . W09
ROW 19 : ... .. . ... : ... .. . ... : G#3 00 . ... : ... .. . ... : ... .. . ...
ROW 1A : ... .. . ... : ... .. . ... : ... .. . ... : ... .. . ... : E-3 00 . W09
ROW 1B : ... .. . ... : ... .. . ... : D#3 00 . ... : ... .. . ... : ... .. . ...
ROW 1C : ... .. . ... : ... .. . ... : ... .. . ... : ... .. . ... : D-3 00 . ...
ROW 1D : C#4 11 . ... : G#3 11 . ... : G#3 00 . ... : A-# 1B . ... : ... .. . ...
ROW 1E : ... .. . ... : ... .. . ... : ... .. . ... : ... .. . ... : D-3 00 . ...
ROW 1F : ... .. . ... : ... .. . ... : D#3 00 . ... : A-# 1B . ... : ... .. . ...
ROW 20 : ... .. . ... : ... .. . ... : ... .. . ... : ... .. . ... : E-3 00 . W0A
ROW 21 : C-4 11 . ... : G-3 11 . ... : C-4 00 . ... : --- .. . ... : ... .. . ...
ROW 22 : ... .. . ... : ... .. . ... : ... .. . ... : ... .. . ... : E-3 00 . W0A
ROW 23 : C-4 11 . ... : G-3 11 . ... : G-3 00 . ... : ... .. . ... : ... .. . ...
ROW 24 : ... .. . ... : ... .. . ... : ... .. . ... : ... .. . ... : E-3 00 . W09
ROW 25 : C-4 11 . ... : G-3 11 . ... : C-4 00 . ... : ... .. . ... : ... .. . ...
ROW 26 : ... .. . ... : ... .. . ... : ... .. . ... : ... .. . ... : E-3 00 . W09
ROW 27 : C-4 11 . ... : G-3 11 . ... : G-3 00 . ... : ... .. . ... : ... .. . ...
ROW 28 : ... .. . ... : ... .. . ... : ... .. . ... : ... .. . ... : E-3 00 . W08
ROW 29 : C-4 11 . ... : G-3 11 . ... : A#3 00 . ... : ... .. . ... : ... .. . ...
ROW 2A : ... .. . ... : ... .. . ... : ... .. . ... : ... .. . ... : ... .. . ...
ROW 2B : ... .. . ... : ... .. . ... : F#3 00 . ... : ... .. . ... : ... .. . ...
ROW 2C : ... .. . ... : ... .. . ... : ... .. . ... : ... .. . ... : C-3 00 . ...
ROW 2D : --- .. . ... : --- .. . ... : A#3 00 . ... : ... .. . ... : ... .. . ...
ROW 2E : ... .. . ... : ... .. . ... : ... .. . ... : ... .. . ... : C-3 00 . ...
ROW 2F : ... .. . ... : ... .. . ... : F#3 00 . ... : ... .. . ... : ... .. . ...
ROW 30 : ... .. . ... : ... .. . ... : ... .. . ... : ... .. . ... : D-3 00 . ...
ROW 31 : ... .. . ... : ... .. . ... : G#3 00 . ... : A-# 1B . ... : ... .. . ...
ROW 32 : ... .. . ... : ... .. . ... : ... .. . ... : ... .. . ... : ... .. . ...
ROW 33 : ... .. . ... : ... .. . ... : D#3 00 . ... : --- .. . ... : ... .. . ...
ROW 34 : ... .. . ... : ... .. . ... : ... .. . ... : ... .. . ... : E-3 00 . W0A
ROW 35 : ... .. . ... : ... .. . ... : G#3 00 . ... : ... .. . ... : ... .. . ...
ROW 36 : ... .. . ... : ... .. . ... : ... .. . ... : ... .. . ... : E-3 00 . W0A
ROW 37 : ... .. . ... : ... .. . ... : D#3 00 . ... : ... .. . ... : ... .. . ...
ROW 38 : ... .. . ... : ... .. . ... : ... .. . ... : ... .. . ... : E-3 00 . W09
ROW 39 : ... .. . ... : ... .. . ... : G#3 00 . ... : ... .. . ... : ... .. . ...
ROW 3A : ... .. . ... : ... .. . ... : ... .. . ... : ... .. . ... : E-3 00 . W09
ROW 3B : ... .. . ... : ... .. . ... : D#3 00 . ... : ... .. . ... : ... .. . ...
ROW 3C : ... .. . ... : ... .. . ... : ... .. . ... : ... .. . ... : D-3 00 . ...
ROW 3D : ... .. . ... : ... .. . ... : G#3 00 . ... : A-# 1B . ... : ... .. . ...
ROW 3E : ... .. . ... : ... .. . ... : ... .. . ... : ... .. . ... : D-3 00 . ...
ROW 3F : ... .. . ... : ... .. . ... : D#3 00 . ... : A-# 1B . ... : ... .. . ...

PATTERN 04
ROW 00 : ... .. . ... : ... .. . ... : ... .. . P7F : ... .. . ... : D-3 00 . ...
ROW 01 : C#5 11 . ... : ... .. . ... : C#3 00 . ... : A-# 1B . ... : ... .. . ...
ROW 02 : ... .. . ... : ... .. . ... : ... .. . ... : ... .. . ... : ... .. . ...
ROW 03 : A#4 11 . ... : C#5 11 . ... : ... .. . ... : --- .. . ... : ... .. . ...
ROW 04 : ... .. . ... : ... .. . ... : ... .. . ... : ... .. . ... : ... .. . ...
ROW 05 : G-4 11 . ... : A#4 11 . ... : ... .. . ... : ... .. . ... : ... .. . ...
ROW 06 : ... .. . ... : ... .. . ... : ... .. . ... : ... .. . ... : ... .. . ...
ROW 07 : E-4 11 . ... : G-4 11 . ... : ... .. . ... : ... .. . ... : ... .. . ...
ROW 08 : ... .. . ... : ... .. . ... : ... .. . ... : ... .. . ... : ... .. . ...
ROW 09 : A#4 11 . ... : E-4 11 . ... : --- .. . ... : ... .. . ... : ... .. . ...
ROW 0A : ... .. . ... : ... .. . ... : ... .. . ... : ... .. . ... : ... .. . ...
ROW 0B : G-4 11 . ... : A#4 11 . ... : ... .. . ... : ... .. . ... : ... .. . ...
ROW 0C : ... .. . ... : ... .. . ... : ... .. . ... : ... .. . ... : ... .. . ...
ROW 0D : E-4 11 . ... : G-4 11 . ... : ... .. . ... : ... .. . ... : ... .. . ...
ROW 0E : ... .. . ... : ... .. . ... : ... .. . ... : ... .. . ... : ... .. . ...
ROW 0F : C#4 11 . ... : E-4 11 . ... : ... .. . ... : ... .. . ... : ... .. . ...
ROW 10 : ... .. . ... : ... .. . ... : ... .. . ... : ... .. . ... : ... .. . ...
ROW 11 : G-4 11 . ... : C#4 11 . ... : ... .. . ... : ... .. . ... : ... .. . ...
ROW 12 : ... .. . ... : ... .. . ... : ... .. . ... : ... .. . ... : ... .. . ...
ROW 13 : E-4 11 . ... : G-4 11 . ... : ... .. . ... : ... .. . ... : ... .. . ...
ROW 14 : ... .. . ... : ... .. . ... : ... .. . ... : ... .. . ... : ... .. . ...
ROW 15 : C#4 11 . ... : E-4 11 . ... : ... .. . ... : ... .. . ... : ... .. . ...
ROW 16 : ... .. . ... : ... .. . ... : ... .. . ... : ... .. . ... : ... .. . ...
ROW 17 : A#3 11 . ... : C#4 11 . ... : ... .. . ... : ... .. . ... : ... .. . ...
ROW 18 : ... .. . ... : ... .. . ... : ... .. . ... : ... .. . ... : ... .. . ...
ROW 19 : E-4 11 . ... : A#3 11 . ... : ... .. . ... : ... .. . ... : ... .. . ...
ROW 1A : ... .. . ... : ... .. . ... : ... .. . ... : ... .. . ... : ... .. . ...
ROW 1B : C#4 11 . ... : E-4 11 . ... : ... .. . ... : ... .. . ... : ... .. . ...
ROW 1C : ... .. . ... : ... .. . ... : ... .. . ... : ... .. . ... : ... .. . ...
ROW 1D : A#3 11 . ... : C#4 11 . ... : ... .. . ... : ... .. . ... : ... .. . ...
ROW 1E : ... .. . ... : ... .. . ... : ... .. . ... : ... .. . ... : ... .. . ...
ROW 1F : G-3 11 . ... : A#3 11 . ... : ... .. . ... : ... .. . ... : ... .. . ...
ROW 20 : ... .. . ... : ... .. . ... : ... .. . ... : ... .. . ... : ... .. . ...
ROW 21 : C#4 11 . ... : G-3 11 . ... : ... .. . ... : ... .. . ... : ... .. . ...
ROW 22 : ... .. . ... : ... .. . ... : ... .. . ... : ... .. . ... : ... .. . ...
ROW 23 : A#3 11 . ... : C#4 11 . ... : ... .. . ... : ... .. . ... : ... .. . ...
ROW 24 : ... .. . ... : ... .. . ... : ... .. . ... : ... .. . ... : ... .. . ...
ROW 25 : G-3 11 . ... : A#3 11 . ... : ... .. . ... : ... .. . ... : ... .. . ...
ROW 26 : ... .. . ... : ... .. . ... : ... .. . ... : ... .. . ... : ... .. . ...
ROW 27 : E-3 11 . ... : G-3 11 . ... : ... .. . ... : ... .. . ... : ... .. . ...
ROW 28 : ... .. . ... : ... .. . ... : ... .. . ... : ... .. . ... : ... .. . ...
ROW 29 : A#3 11 . ... : E-3 11 . ... : ... .. . ... : ... .. . ... : ... .. . ...
ROW 2A : ... .. . ... : ... .. . ... : ... .. . ... : ... .. . ... : ... .. . ...
ROW 2B : G-3 11 . ... : A#3 11 . ... : ... .. . ... : ... .. . ... : ... .. . ...
ROW 2C : ... .. . ... : ... .. . ... : ... .. . ... : ... .. . ... : ... .. . ...
ROW 2D : E-3 11 . ... : G-3 11 . ... : ... .. . ... : ... .. . ... : ... .. . ...
ROW 2E : ... .. . ... : ... .. . ... : ... .. . ... : ... .. . ... : ... .. . ...
ROW 2F : C#3 11 . ... : E-3 11 . ... : ... .. . ... : ... .. . ... : ... .. . ...
ROW 30 : ... .. . ... : ... .. . ... : ... .. . ... : ... .. . ... : ... .. . ...
ROW 31 : G-3 11 . ... : C#3 11 . ... : ... .. . ... : ... .. . ... : ... .. . ...
ROW 32 : ... .. . ... : ... .. . ... : ... .. . ... : ... .. . ... : ... .. . ...
ROW 33 : E-3 11 . ... : G-3 11 . ... : ... .. . ... : ... .. . ... : ... .. . ...
ROW 34 : ... .. . ... : ... .. . ... : ... .. . ... : ... .. . ... : ... .. . ...
ROW 35 : C#3 11 . ... : E-3 11 . ... : ... .. . ... : ... .. . ... : ... .. . ...
ROW 36 : ... .. . ... : ... .. . ... : ... .. . ... : ... .. . ... : ... .. . ...
ROW 37 : A#2 11 . ... : C#3 11 . ... : ... .. . ... : ... .. . ... : ... .. . ...
ROW 38 : ... .. . ... : ... .. . ... : ... .. . ... : ... .. . ... : ... .. . ...
ROW 39 : E-3 11 . ... : A#2 11 . ... : ... .. . ... : ... .. . ... : ... .. . ...
ROW 3A : ... .. . ... : ... .. . ... : ... .. . ... : ... .. . ... : ... .. . ...
ROW 3B : C#3 11 . ... : E-3 11 . ... : ... .. . ... : ... .. . ... : ... .. . ...
ROW 3C : ... .. . ... : ... .. . ... : ... .. . ... : ... .. . ... : ... .. . ...
ROW 3D : A#2 11 . ... : C#3 11 . ... : ... .. . ... : ... .. . ... : ... .. . ...
ROW 3E : ... .. . ... : ... .. . ... : ... .. . ... : ... .. . ... : ... .. . ...
ROW 3F : G-2 11 . ... : A#2 11 . ... : ... .. . ... : ... .. . ... : ... .. . ...

TRACK  64   4 150 "Final Boss Part 2"
COLUMNS : 3 2 1 1 1

ORDER 00 : 00 00 00 00 00
ORDER 01 : 01 01 01 01 01
ORDER 02 : 02 02 02 02 02
ORDER 03 : 03 03 03 03 03
ORDER 04 : 04 04 04 04 04
ORDER 05 : 05 05 05 05 05
ORDER 06 : 06 06 06 06 06

PATTERN 00
ROW 00 : --- .. 6 V03 P78 ... : C-1 00 6 V03 P7F : C-2 00 . P7F : ... .. . ... : ... .. . ...
ROW 01 : ... .. . ... ... ... : G-1 00 . ... ... : ... .. . ... : ... .. . ... : ... .. . ...
ROW 02 : ... .. . ... ... ... : ^-1 00 . ... ... : ... .. . ... : ... .. . ... : ... .. . ...
ROW 03 : ... .. . ... ... ... : ^-1 00 . ... ... : ... .. . ... : ... .. . ... : ... .. . ...
ROW 04 : ... .. . ... ... ... : ^-1 00 . ... ... : ... .. . ... : ... .. . ... : ... .. . ...
ROW 05 : C-1 00 . ... ... G01 : G#1 00 . ... ... : C#2 00 . ... : ... .. . ... : ... .. . ...
ROW 06 : G-1 00 . ... ... G01 : C#1 00 . ... ... : ... .. . ... : ... .. . ... : ... .. . ...
ROW 07 : ^-1 00 . ... ... G01 : ^-1 00 . ... ... : ... .. . ... : ... .. . ... : ... .. . ...
ROW 08 : ^-1 00 . ... ... G01 : ^-1 00 . ... ... : ... .. . ... : ... .. . ... : ... .. . ...
ROW 09 : ^-1 00 . ... ... G01 : ^-1 00 . ... ... : ... .. . ... : ... .. . ... : ... .. . ...
ROW 0A : G#1 00 . ... ... G01 : D-1 00 . ... ... : D-2 00 . ... : ... .. . ... : ... .. . ...
ROW 0B : C#1 00 . ... ... G01 : A-1 00 . ... ... : ... .. . ... : ... .. . ... : ... .. . ...
ROW 0C : ^-1 00 . ... ... G01 : ^-1 00 . ... ... : ... .. . ... : ... .. . ... : ... .. . ...
ROW 0D : ^-1 00 . ... ... G01 : ^-1 00 . ... ... : ... .. . ... : ... .. . ... : ... .. . ...
ROW 0E : ^-1 00 . ... ... G01 : ^-1 00 . ... ... : ... .. . ... : ... .. . ... : ... .. . ...
ROW 0F : D-1 00 . ... ... G01 : ^-1 00 . ... ... : ... .. . ... : ... .. . ... : ... .. . ...
ROW 10 : A-1 00 . ... ... G01 : ^-1 00 . ... ... : ... .. . ... : ... .. . ... : ... .. . ...
ROW 11 : ^-1 00 . ... ... G01 : ^-1 00 . ... ... : ... .. . ... : ... .. . ... : ... .. . ...
ROW 12 : ^-1 00 . ... ... G01 : ^-1 00 . ... ... : ... .. . ... : ... .. . ... : ... .. . ...
ROW 13 : ^-1 00 . ... ... G01 : ^-1 00 . ... ... : ... .. . ... : ... .. . ... : ... .. . ...
ROW 14 : ^-1 00 . ... ... G01 : ^-1 00 . ... ... : ... .. . ... : ... .. . ... : ... .. . ...
ROW 15 : ^-1 00 . ... ... G01 : ^-1 00 . ... ... : ... .. . ... : ... .. . ... : ... .. . ...
ROW 16 : ^-1 00 . ... ... G01 : ^-1 00 . ... ... : ... .. . ... : ... .. . ... : ... .. . ...
ROW 17 : ^-1 00 . ... ... G01 : ^-1 00 . ... ... : ... .. . ... : ... .. . ... : ... .. . ...
ROW 18 : ^-1 00 . ... ... G01 : ^-1 00 . ... ... : ... .. . ... : ... .. . ... : ... .. . ...
ROW 19 : ^-1 00 . ... ... G01 : ^-1 00 . ... ... : ... .. . ... : ... .. . ... : ... .. . ...
ROW 1A : ^-1 00 . ... ... G01 : ^-1 00 . ... ... : ... .. . ... : ... .. . ... : ... .. . ...
ROW 1B : ^-1 00 . ... ... G01 : ^-1 00 . ... ... : ... .. . ... : ... .. . ... : ... .. . ...
ROW 1C : ^-1 00 . ... ... G01 : ^-1 00 . ... ... : ... .. . ... : ... .. . ... : ... .. . ...
ROW 1D : ^-1 00 . ... ... G01 : ^-1 00 . ... ... : ... .. . ... : ... .. . ... : ... .. . ...
ROW 1E : ^-1 00 . ... ... G01 : ^-1 00 . ... ... : ... .. . ... : ... .. . ... : ... .. . ...
ROW 1F : ^-1 00 . ... ... G01 : ^-1 00 . ... ... : ... .. . ... : ... .. . ... : ... .. . ...
ROW 20 : ^-1 00 . ... ... G01 : ^-1 00 . ... ... : ... .. . ... : ... .. . ... : ... .. . ...
ROW 21 : ^-1 00 . ... ... G01 : ^-1 00 . ... ... : ... .. . ... : ... .. . ... : ... .. . ...
ROW 22 : ^-1 00 . ... ... G01 : ^-1 00 . ... ... : ... .. . ... : ... .. . ... : ... .. . ...
ROW 23 : ^-1 00 . ... ... G01 : ^-1 00 . ... ... : ... .. . ... : ... .. . ... : ... .. . ...
ROW 24 : ^-1 00 . ... ... G01 : ^-1 00 . ... ... : ... .. . ... : ... .. . ... : ... .. . ...
ROW 25 : ^-1 00 . ... ... G01 : ^-1 00 . ... ... : ... .. . ... : ... .. . ... : ... .. . ...
ROW 26 : ^-1 00 . ... ... G01 : ^-1 00 . ... ... : ... .. . ... : ... .. . ... : ... .. . ...
ROW 27 : ^-1 00 . ... ... G01 : ^-1 00 . ... ... : ... .. . ... : ... .. . ... : ... .. . ...
ROW 28 : ^-1 00 . ... ... G01 : ^-1 00 . ... ... : ... .. . ... : ... .. . ... : ... .. . ...
ROW 29 : ^-1 00 . ... ... G01 : ^-1 00 . ... ... : ... .. . ... : ... .. . ... : ... .. . ...
ROW 2A : ^-1 00 . ... ... G01 : ^-1 00 . ... ... : ... .. . ... : ... .. . ... : ... .. . ...
ROW 2B : ^-1 00 . ... ... G01 : ^-1 00 . ... ... : ... .. . ... : ... .. . ... : ... .. . ...
ROW 2C : ^-1 00 . ... ... G01 : ^-1 00 . ... ... : ... .. . ... : ... .. . ... : ... .. . ...
ROW 2D : ^-1 00 . ... ... G01 : ^-1 00 . ... ... : ... .. . ... : ... .. . ... : ... .. . ...
ROW 2E : ^-1 00 . ... ... G01 : ^-1 00 . ... ... : ... .. . ... : ... .. . ... : ... .. . ...
ROW 2F : ^-1 00 . ... ... G01 : ^-1 00 . ... ... : ... .. . ... : ... .. . ... : ... .. . ...
ROW 30 : ^-1 00 . ... ... G01 : ^-1 00 . ... ... : ... .. . ... : ... .. . ... : ... .. . ...
ROW 31 : ^-1 00 . ... ... G01 : ^-1 00 . ... ... : ... .. . ... : ... .. . ... : ... .. . ...
ROW 32 : ^-1 00 . ... ... G01 : ^-1 00 . ... ... : ... .. . ... : ... .. . ... : ... .. . ...
ROW 33 : ^-1 00 . ... ... G01 : ^-1 00 . ... ... : ... .. . ... : ... .. . ... : ... .. . ...
ROW 34 : ^-1 00 . ... ... G01 : ^-1 00 . ... ... : ... .. . ... : ... .. . ... : ... .. . ...
ROW 35 : ^-1 00 . ... ... G01 : ^-1 00 . ... ... : ... .. . ... : ... .. . ... : ... .. . ...
ROW 36 : ^-1 00 . ... ... G01 : ^-1 00 . ... ... : ... .. . ... : ... .. . ... : ... .. . ...
ROW 37 : ^-1 00 . ... ... G01 : ^-1 00 . ... ... : ... .. . ... : ... .. . ... : ... .. . ...
ROW 38 : ^-1 00 . ... ... G01 : ^-1 00 . ... ... : ... .. . ... : ... .. . ... : ... .. . ...
ROW 39 : ^-1 00 . ... ... G01 : ^-1 00 . ... ... : ... .. . ... : ... .. . ... : ... .. . ...
ROW 3A : ^-1 00 . ... ... G01 : ^-1 00 . ... ... : ... .. . ... : ... .. . ... : ... .. . ...
ROW 3B : ^-1 00 . ... ... G01 : ^-1 00 . ... ... : ... .. . ... : ... .. . ... : ... .. . ...
ROW 3C : ^-1 00 . ... ... G01 : E-3 00 . ... ... : ... .. . ... : ... .. . ... : ... .. . ...
ROW 3D : ^-1 00 . ... ... G01 : A-2 00 . ... ... : ... .. . ... : ... .. . ... : ... .. . ...
ROW 3E : ^-1 00 . ... ... G01 : ^-1 00 . ... ... : ... .. . ... : ... .. . ... : ... .. . ...
ROW 3F : ^-1 00 . ... ... G01 : ^-1 00 . ... ... : ... .. . ... : ... .. . ... : ... .. . ...

PATTERN 01
ROW 00 : ^-1 00 6 V03 P78 G01 : ^-1 00 6 V03 P7F : D-2 00 . P7F : ... .. . ... : ... .. . ...
ROW 01 : E-3 00 . ... ... G01 : ^-1 00 . ... ... : ... .. . ... : ... .. . ... : ... .. . ...
ROW 02 : A-2 00 . ... ... G01 : ^-1 00 . ... ... : ... .. . ... : ... .. . ... : ... .. . ...
ROW 03 : ^-1 00 . ... ... G01 : ^-1 00 . ... ... : ... .. . ... : ... .. . ... : ... .. . ...
ROW 04 : ^-1 00 . ... ... G01 : ^-1 00 . ... ... : ... .. . ... : ... .. . ... : ... .. . ...
ROW 05 : ^-1 00 . ... ... G01 : ^-1 00 . ... ... : ... .. . ... : ... .. . ... : ... .. . ...
ROW 06 : ^-1 00 . ... ... G01 : ^-1 00 . ... ... : ... .. . ... : ... .. . ... : ... .. . ...
ROW 07 : ^-1 00 . ... ... G01 : ^-1 00 . ... ... : ... .. . ... : ... .. . ... : ... .. . ...
ROW 08 : ^-1 00 . ... ... G01 : ^-1 00 . ... ... : ... .. . ... : ... .. . ... : ... .. . ...
ROW 09 : ^-1 00 . ... ... G01 : ^-1 00 . ... ... : ... .. . ... : ... .. . ... : ... .. . ...
ROW 0A : ^-1 00 . ... ... G01 : ^-1 00 . ... ... : ... .. . ... : ... .. . ... : ... .. . ...
ROW 0B : ^-1 00 . ... ... G01 : ^-1 00 . ... ... : ... .. . ... : ... .. . ... : ... .. . ...
ROW 0C : ^-1 00 . ... ... G01 : ^-1 00 . ... ... : ... .. . ... : ... .. . ... : ... .. . ...
ROW 0D : ^-1 00 . ... ... G01 : ^-1 00 . ... ... : ... .. . ... : ... .. . ... : ... .. . ...
ROW 0E : ^-1 00 . ... ... G01 : ^-1 00 . ... ... : ... .. . ... : ... .. . ... : ... .. . ...
ROW 0F : ^-1 00 . ... ... G01 : ^-1 00 . ... ... : ... .. . ... : ... .. . ... : ... .. . ...
ROW 10 : ^-1 00 . ... ... G01 : F-3 00 . ... ... : ... .. . ... : ... .. . ... : ... .. . ...
ROW 11 : ^-1 00 . ... ... G01 : A#2 00 . ... ... : ... .. . ... : ... .. . ... : ... .. . ...
ROW 12 : ^-1 00 . ... ... G01 : ^-1 00 . ... ... : ... .. . ... : ... .. . ... : ... .. . ...
ROW 13 : ^-1 00 . ... ... G01 : ^-1 00 . ... ... : ... .. . ... : ... .. . ... : ... .. . ...
ROW 14 : ^-1 00 . ... ... G01 : ^-1 00 . ... ... : ... .. . ... : ... .. . ... : ... .. . ...
ROW 15 : F-3 00 . ... ... G01 : ^-1 00 . ... ... : ... .. . ... : ... .. . ... : ... .. . ...
ROW 16 : A#2 00 . ... ... G01 : ^-1 00 . ... ... : ... .. . ... : ... .. . ... : ... .. . ...
ROW 17 : ^-1 00 . ... ... G01 : ^-1 00 . ... ... : ... .. . ... : ... .. . ... : ... .. . ...
ROW 18 : ^-1 00 . ... ... G01 : ^-1 00 . ... ... : ... .. . ... : ... .. . ... : ... .. . ...
ROW 19 : ^-1 00 . ... ... G01 : ^-1 00 . ... ... : ... .. . ... : ... .. . ... : ... .. . ...
ROW 1A : ^-1 00 . ... ... G01 : A#2 00 . ... ... : ... .. . ... : ... .. . ... : ... .. . ...
ROW 1B : ^-1 00 . ... ... G01 : F-2 00 . ... ... : ... .. . ... : ... .. . ... : ... .. . ...
ROW 1C : ^-1 00 . ... ... G01 : ^-1 00 . ... ... : ... .. . ... : ... .. . ... : ... .. . ...
ROW 1D : ^-1 00 . ... ... G01 : ^-1 00 . ... ... : ... .. . ... : ... .. . ... : ... .. . ...
ROW 1E : ^-1 00 . ... ... G01 : ^-1 00 . ... ... : ... .. . ... : ... .. . ... : ... .. . ...
ROW 1F : A#2 00 . ... ... G01 : ^-1 00 . ... ... : ... .. . ... : ... .. . ... : ... .. . ...
ROW 20 : F-2 00 . ... ... G01 : ^-1 00 . ... ... : ... .. . ... : ... .. . ... : ... .. . ...
ROW 21 : ^-1 00 . ... ... G01 : ^-1 00 . ... ... : ... .. . ... : ... .. . ... : ... .. . ...
ROW 22 : ^-1 00 . ... ... G01 : ^-1 00 . ... ... : ... .. . ... : ... .. . ... : ... .. . ...
ROW 23 : ^-1 00 . ... ... G01 : ^-1 00 . ... ... : ... .. . ... : ... .. . ... : ... .. . ...
ROW 24 : ^-1 00 . ... ... G01 : C-3 00 . ... ... : ... .. . ... : ... .. . ... : ... .. . ...
ROW 25 : ^-1 00 . ... ... G01 : G-2 00 . ... ... : ... .. . ... : ... .. . ... : ... .. . ...
ROW 26 : ^-1 00 . ... ... G01 : ^-1 00 . ... ... : ... .. . ... : ... .. . ... : ... .. . ...
ROW 27 : ^-1 00 . ... ... G01 : ^-1 00 . ... ... : ... .. . ... : ... .. . ... : ... .. . ...
ROW 28 : ^-1 00 . ... ... G01 : ^-1 00 . ... ... : ... .. . ... : ... .. . ... : ... .. . ...
ROW 29 : C-3 00 . ... ... G01 : ^-1 00 . ... ... : ... .. . ... : ... .. . ... : ... .. . ...
ROW 2A : G-2 00 . ... ... G01 : ^-1 00 . ... ... : ... .. . ... : ... .. . ... : ... .. . ...
ROW 2B : ^-1 00 . ... ... G01 : ^-1 00 . ... ... : ... .. . ... : ... .. . ... : ... .. . ...
ROW 2C : ^-1 00 . ... ... G01 : ^-1 00 . ... ... : ... .. . ... : ... .. . ... : ... .. . ...
ROW 2D : ^-1 00 . ... ... G01 : ^-1 00 . ... ... : ... .. . ... : ... .. . ... : ... .. . ...
ROW 2E : ^-1 00 . ... ... G01 : D-3 00 . ... ... : ... .. . ... : ... .. . ... : ... .. . ...
ROW 2F : ^-1 00 . ... ... G01 : A-2 00 . ... ... : ... .. . ... : ... .. . ... : ... .. . ...
ROW 30 : ^-1 00 . ... ... G01 : ^-1 00 . ... ... : ... .. . ... : ... .. . ... : ... .. . ...
ROW 31 : ^-1 00 . ... ... G01 : ^-1 00 . ... ... : ... .. . ... : ... .. . ... : ... .. . ...
ROW 32 : ^-1 00 . ... ... G01 : ^-1 00 . ... ... : ... .. . ... : ... .. . ... : ... .. . ...
ROW 33 : D-3 00 . ... ... G01 : ^-1 00 . ... ... : ... .. . ... : ... .. . ... : ... .. . ...
ROW 34 : A-2 00 . ... ... G01 : ^-1 00 . ... ... : ... .. . ... : ... .. . ... : ... .. . ...
ROW 35 : ^-1 00 . ... ... G01 : ^-1 00 . ... ... : ... .. . ... : ... .. . ... : ... .. . ...
ROW 36 : ^-1 00 . ... ... G01 : ^-1 00 . ... ... : ... .. . ... : ... .. . ... : ... .. . ...
ROW 37 : ^-1 00 . ... ... G01 : ^-1 00 . ... ... : ... .. . ... : ... .. . ... : ... .. . ...
ROW 38 : ^-1 00 . ... ... G01 : ^-1 00 . ... ... : ... .. . ... : ... .. . ... : ... .. . ...
ROW 39 : ^-1 00 . ... ... G01 : ^-1 00 . ... ... : ... .. . ... : ... .. . ... : ... .. . ...
ROW 3A : ^-1 00 . ... ... G01 : ^-1 00 . ... ... : ... .. . ... : ... .. . ... : ... .. . ...
ROW 3B : ^-1 00 . ... ... G01 : ^-1 00 . ... ... : ... .. . ... : ... .. . ... : ... .. . ...
ROW 3C : ^-1 00 . ... ... G01 : ^-1 00 . ... ... : ... .. . ... : ... .. . ... : ... .. . ...
ROW 3D : ^-1 00 . ... ... G01 : ^-1 00 . ... ... : ... .. . ... : ... .. . ... : ... .. . ...
ROW 3E : ^-1 00 . ... ... G01 : ^-1 00 . ... ... : ... .. . ... : ... .. . ... : ... .. . ...
ROW 3F : ^-1 00 . ... ... G01 : ^-1 00 . ... ... : ... .. . ... : ... .. . ... : ... .. . ...

PATTERN 02
ROW 00 : ^-1 00 6 V03 P78 G01 : ^-1 00 6 V03 P7F : D-2 00 . P7F : ... .. . ... : ... .. . ...
ROW 01 : ^-1 00 . ... ... G01 : ^-1 00 . ... ... : ... .. . ... : ... .. . ... : ... .. . ...
ROW 02 : ^-1 00 . ... ... G01 : ^-1 00 . ... ... : ... .. . ... : ... .. . ... : ... .. . ...
ROW 03 : ^-1 00 . ... ... G01 : ^-1 00 . ... ... : ... .. . ... : ... .. . ... : ... .. . ...
ROW 04 : ^-1 00 . ... ... G01 : ^-1 00 . ... ... : ... .. . ... : ... .. . ... : ... .. . ...
ROW 05 : ^-1 00 . ... ... G01 : ^-1 00 . ... ... : ... .. . ... : ... .. . ... : ... .. . ...
ROW 06 : ^-1 00 . ... ... G01 : ^-1 00 . ... ... : ... .. . ... : ... .. . ... : ... .. . ...
ROW 07 : ^-1 00 . ... ... G01 : ^-1 00 . ... ... : ... .. . ... : ... .. . ... : ... .. . ...
ROW 08 : ^-1 00 . ... ... G01 : ^-1 00 . ... ... : ... .. . ... : ... .. . ... : ... .. . ...
ROW 09 : ^-1 00 . ... ... G01 : ^-1 00 . ... ... : ... .. . ... : ... .. . ... : ... .. . ...
ROW 0A : ^-1 00 . ... ... G01 : ^-1 00 . ... ... : ... .. . ... : ... .. . ... : ... .. . ...
ROW 0B : ^-1 00 . ... ... G01 : ^-1 00 . ... ... : ... .. . ... : ... .. . ... : ... .. . ...
ROW 0C : ^-1 00 . ... ... G01 : ^-1 00 . ... ... : ... .. . ... : ... .. . ... : ... .. . ...
ROW 0D : ^-1 00 . ... ... G01 : ^-1 00 . ... ... : ... .. . ... : ... .. . ... : ... .. . ...
ROW 0E : ^-1 00 . ... ... G01 : ^-1 00 . ... ... : ... .. . ... : ... .. . ... : ... .. . ...
ROW 0F : ^-1 00 . ... ... G01 : ^-1 00 . ... ... : ... .. . ... : ... .. . ... : ... .. . ...
ROW 10 : ^-1 00 . ... ... G01 : ^-1 00 . ... ... : ... .. . ... : ... .. . ... : ... .. . ...
ROW 11 : ^-1 00 . ... ... G01 : ^-1 00 . ... ... : ... .. . ... : ... .. . ... : ... .. . ...
ROW 12 : ^-1 00 . ... ... G01 : ^-1 00 . ... ... : ... .. . ... : ... .. . ... : ... .. . ...
ROW 13 : ^-1 00 . ... ... G01 : ^-1 00 . ... ... : ... .. . ... : ... .. . ... : ... .. . ...
ROW 14 : ^-1 00 . ... ... G01 : ^-1 00 . ... ... : ... .. . ... : ... .. . ... : ... .. . ...
ROW 15 : ^-1 00 . ... ... G01 : ^-1 00 . ... ... : ... .. . ... : ... .. . ... : ... .. . ...
ROW 16 : ^-1 00 . ... ... G01 : ^-1 00 . ... ... : ... .. . ... : ... .. . ... : ... .. . ...
ROW 17 : ^-1 00 . ... ... G01 : ^-1 00 . ... ... : ... .. . ... : ... .. . ... : ... .. . ...
ROW 18 : ^-1 00 . ... ... G01 : ^-1 00 . ... ... : ... .. . ... : ... .. . ... : ... .. . ...
ROW 19 : ^-1 00 . ... ... G01 : ^-1 00 . ... ... : ... .. . ... : ... .. . ... : ... .. . ...
ROW 1A : ^-1 00 . ... ... G01 : ^-1 00 . ... ... : ... .. . ... : ... .. . ... : ... .. . ...
ROW 1B : ^-1 00 . ... ... G01 : ^-1 00 . ... ... : ... .. . ... : ... .. . ... : ... .. . ...
ROW 1C : ^-1 00 . ... ... G01 : ^-1 00 . ... ... : ... .. . ... : ... .. . ... : ... .. . ...
ROW 1D : ^-1 00 . ... ... G01 : ^-1 00 . ... ... : ... .. . ... : ... .. . ... : ... .. . ...
ROW 1E : ^-1 00 . ... ... G01 : ^-1 00 . ... ... : ... .. . ... : ... .. . ... : ... .. . ...
ROW 1F : ^-1 00 . ... ... G01 : ^-1 00 . ... ... : ... .. . ... : ... .. . ... : ... .. . ...
ROW 20 : ^-1 00 . ... ... G01 : C-1 00 . ... ... : C-2 00 . ... : ... .. . ... : ... .. . ...
ROW 21 : ^-1 00 . ... ... G01 : G-1 00 . ... ... : ... .. . ... : ... .. . ... : ... .. . ...
ROW 22 : ^-1 00 . ... ... G01 : ^-1 00 . ... ... : ... .. . ... : ... .. . ... : ... .. . ...
ROW 23 : ^-1 00 . ... ... G01 : ^-1 00 . ... ... : ... .. . ... : ... .. . ... : ... .. . ...
ROW 24 : ^-1 00 . ... ... G01 : ^-1 00 . ... ... : ... .. . ... : ... .. . ... : ... .. . ...
ROW 25 : C-1 00 . ... ... G01 : G#1 00 . ... ... : C#2 00 . ... : ... .. . ... : ... .. . ...
ROW 26 : G-1 00 . ... ... G01 : C#1 00 . ... ... : ... .. . ... : ... .. . ... : ... .. . ...
ROW 27 : ^-1 00 . ... ... G01 : ^-1 00 . ... ... : ... .. . ... : ... .. . ... : ... .. . ...
ROW 28 : ^-1 00 . ... ... G01 : ^-1 00 . ... ... : ... .. . ... : ... .. . ... : ... .. . ...
ROW 29 : ^-1 00 . ... ... G01 : ^-1 00 . ... ... : ... .. . ... : ... .. . ... : ... .. . ...
ROW 2A : G#1 00 . ... ... G01 : D-1 00 . ... ... : D-2 00 . ... : ... .. . ... : ... .. . ...
ROW 2B : C#1 00 . ... ... G01 : A-1 00 . ... ... : ... .. . ... : ... .. . ... : ... .. . ...
ROW 2C : ^-1 00 . ... ... G01 : ^-1 00 . ... ... : ... .. . ... : ... .. . ... : ... .. . ...
ROW 2D : ^-1 00 . ... ... G01 : ^-1 00 . ... ... : ... .. . ... : ... .. . ... : ... .. . ...
ROW 2E : ^-1 00 . ... ... G01 : ^-1 00 . ... ... : ... .. . ... : ... .. . ... : ... .. . ...
ROW 2F : D-1 00 . ... ... G01 : ^-1 00 . ... ... : ... .. . ... : ... .. . ... : ... .. . ...
ROW 30 : A-1 00 . ... ... G01 : ^-1 00 . ... ... : ... .. . ... : ... .. . ... : ... .. . ...
ROW 31 : ^-1 00 . ... ... G01 : ^-1 00 . ... ... : ... .. . ... : ... .. . ... : ... .. . ...
ROW 32 : ^-1 00 . ... ... G01 : ^-1 00 . ... ... : ... .. . ... : ... .. . ... : ... .. . ...
ROW 33 : ^-1 00 . ... ... G01 : ^-1 00 . ... ... : ... .. . ... : ... .. . ... : ... .. . ...
ROW 34 : ^-1 00 . ... ... G01 : ^-1 00 . ... ... : ... .. . ... : ... .. . ... : ... .. . ...
ROW 35 : ^-1 00 . ... ... G01 : ^-1 00 . ... ... : ... .. . ... : ... .. . ... : ... .. . ...
ROW 36 : ^-1 00 . ... ... G01 : ^-1 00 . ... ... : ... .. . ... : ... .. . ... : ... .. . ...
ROW 37 : ^-1 00 . ... ... G01 : ^-1 00 . ... ... : ... .. . ... : ... .. . ... : ... .. . ...
ROW 38 : ^-1 00 . ... ... G01 : ^-1 00 . ... ... : ... .. . ... : ... .. . ... : ... .. . ...
ROW 39 : ^-1 00 . ... ... G01 : ^-1 00 . ... ... : ... .. . ... : ... .. . ... : ... .. . ...
ROW 3A : ^-1 00 . ... ... G01 : ^-1 00 . ... ... : ... .. . ... : ... .. . ... : ... .. . ...
ROW 3B : ^-1 00 . ... ... G01 : ^-1 00 . ... ... : ... .. . ... : ... .. . ... : ... .. . ...
ROW 3C : ^-1 00 . ... ... G01 : ^-1 00 . ... ... : ... .. . ... : ... .. . ... : ... .. . ...
ROW 3D : ^-1 00 . ... ... G01 : ^-1 00 . ... ... : ... .. . ... : ... .. . ... : ... .. . ...
ROW 3E : ^-1 00 . ... ... G01 : ^-1 00 . ... ... : ... .. . ... : ... .. . ... : ... .. . ...
ROW 3F : ^-1 00 . ... ... G01 : ^-1 00 . ... ... : ... .. . ... : ... .. . ... : ... .. . ...

PATTERN 03
ROW 00 : ^-1 00 6 V03 P78 G01 : ^-1 00 6 V03 P7F : D-2 00 . P7F : ... .. . ... : ... .. . ...
ROW 01 : ^-1 00 . ... ... G01 : ^-1 00 . ... ... : ... .. . ... : ... .. . ... : ... .. . ...
ROW 02 : ^-1 00 . ... ... G01 : ^-1 00 . ... ... : ... .. . ... : ... .. . ... : ... .. . ...
ROW 03 : ^-1 00 . ... ... G01 : ^-1 00 . ... ... : ... .. . ... : ... .. . ... : ... .. . ...
ROW 04 : ^-1 00 . ... ... G01 : ^-1 00 . ... ... : ... .. . ... : ... .. . ... : ... .. . ...
ROW 05 : ^-1 00 . ... ... G01 : ^-1 00 . ... ... : ... .. . ... : ... .. . ... : ... .. . ...
ROW 06 : ^-1 00 . ... ... G01 : ^-1 00 . ... ... : ... .. . ... : ... .. . ... : ... .. . ...
ROW 07 : ^-1 00 . ... ... G01 : ^-1 00 . ... ... : ... .. . ... : ... .. . ... : ... .. . ...
ROW 08 : ^-1 00 . ... ... G01 : ^-1 00 . ... ... : ... .. . ... : ... .. . ... : ... .. . ...
ROW 09 : ^-1 00 . ... ... G01 : ^-1 00 . ... ... : ... .. . ... : ... .. . ... : ... .. . ...
ROW 0A : ^-1 00 . ... ... G01 : ^-1 00 . ... ... : ... .. . ... : ... .. . ... : ... .. . ...
ROW 0B : ^-1 00 . ... ... G01 : ^-1 00 . ... ... : ... .. . ... : ... .. . ... : ... .. . ...
ROW 0C : ^-1 00 . ... ... G01 : ^-1 00 . ... ... : ... .. . ... : ... .. . ... : ... .. . ...
ROW 0D : ^-1 00 . ... ... G01 : ^-1 00 . ... ... : ... .. . ... : ... .. . ... : ... .. . ...
ROW 0E : ^-1 00 . ... ... G01 : ^-1 00 . ... ... : ... .. . ... : ... .. . ... : ... .. . ...
ROW 0F : ^-1 00 . ... ... G01 : ^-1 00 . ... ... : ... .. . ... : ... .. . ... : ... .. . ...
ROW 10 : ^-1 00 . ... ... G01 : ^-1 00 . ... ... : ... .. . ... : ... .. . ... : ... .. . ...
ROW 11 : ^-1 00 . ... ... G01 : ^-1 00 . ... ... : ... .. . ... : ... .. . ... : ... .. . ...
ROW 12 : ^-1 00 . ... ... G01 : ^-1 00 . ... ... : ... .. . ... : ... .. . ... : ... .. . ...
ROW 13 : ^-1 00 . ... ... G01 : ^-1 00 . ... ... : ... .. . ... : ... .. . ... : ... .. . ...
ROW 14 : ^-1 00 . ... ... G01 : ^-1 00 . ... ... : ... .. . ... : ... .. . ... : ... .. . ...
ROW 15 : ^-1 00 . ... ... G01 : ^-1 00 . ... ... : ... .. . ... : ... .. . ... : ... .. . ...
ROW 16 : ^-1 00 . ... ... G01 : ^-1 00 . ... ... : ... .. . ... : ... .. . ... : ... .. . ...
ROW 17 : ^-1 00 . ... ... G01 : ^-1 00 . ... ... : ... .. . ... : ... .. . ... : ... .. . ...
ROW 18 : ^-1 00 . ... ... G01 : ^-1 00 . ... ... : ... .. . ... : ... .. . ... : ... .. . ...
ROW 19 : ^-1 00 . ... ... G01 : ^-1 00 . ... ... : ... .. . ... : ... .. . ... : ... .. . ...
ROW 1A : ^-1 00 . ... ... G01 : ^-1 00 . ... ... : ... .. . ... : ... .. . ... : ... .. . ...
ROW 1B : ^-1 00 . ... ... G01 : ^-1 00 . ... ... : ... .. . ... : ... .. . ... : ... .. . ...
ROW 1C : ^-1 00 . ... ... G01 : E-3 00 . ... ... : ... .. . ... : ... .. . ... : ... .. . ...
ROW 1D : ^-1 00 . ... ... G01 : A-2 00 . ... ... : ... .. . ... : ... .. . ... : ... .. . ...
ROW 1E : ^-1 00 . ... ... G01 : ^-1 00 . ... ... : ... .. . ... : ... .. . ... : ... .. . ...
ROW 1F : ^-1 00 . ... ... G01 : ^-1 00 . ... ... : ... .. . ... : ... .. . ... : ... .. . ...
ROW 20 : ^-1 00 . ... ... G01 : ^-1 00 . ... ... : ... .. . ... : ... .. . ... : ... .. . ...
ROW 21 : E-3 00 . ... ... G01 : ^-1 00 . ... ... : ... .. . ... : ... .. . ... : ... .. . ...
ROW 22 : A-2 00 . ... ... G01 : ^-1 00 . ... ... : ... .. . ... : ... .. . ... : ... .. . ...
ROW 23 : ^-1 00 . ... ... G01 : ^-1 00 . ... ... : ... .. . ... : ... .. . ... : ... .. . ...
ROW 24 : ^-1 00 . ... ... G01 : ^-1 00 . ... ... : ... .. . ... : ... .. . ... : ... .. . ...
ROW 25 : ^-1 00 . ... ... G01 : ^-1 00 . ... ... : ... .. . ... : ... .. . ... : ... .. . ...
ROW 26 : ^-1 00 . ... ... G01 : ^-1 00 . ... ... : ... .. . ... : ... .. . ... : ... .. . ...
ROW 27 : ^-1 00 . ... ... G01 : ^-1 00 . ... ... : ... .. . ... : ... .. . ... : ... .. . ...
ROW 28 : ^-1 00 . ... ... G01 : ^-1 00 . ... ... : ... .. . ... : ... .. . ... : ... .. . ...
ROW 29 : ^-1 00 . ... ... G01 : ^-1 00 . ... ... : ... .. . ... : ... .. . ... : ... .. . ...
ROW 2A : ^-1 00 . ... ... G01 : ^-1 00 . ... ... : ... .. . ... : ... .. . ... : ... .. . ...
ROW 2B : ^-1 00 . ... ... G01 : ^-1 00 . ... ... : ... .. . ... : ... .. . ... : ... .. . ...
ROW 2C : ^-1 00 . ... ... G01 : ^-1 00 . ... ... : ... .. . ... : ... .. . ... : ... .. . ...
ROW 2D : ^-1 00 . ... ... G01 : ^-1 00 . ... ... : ... .. . ... : ... .. . ... : ... .. . ...
ROW 2E : ^-1 00 . ... ... G01 : ^-1 00 . ... ... : ... .. . ... : ... .. . ... : ... .. . ...
ROW 2F : ^-1 00 . ... ... G01 : ^-1 00 . ... ... : ... .. . ... : ... .. . ... : ... .. . ...
ROW 30 : ^-1 00 . ... ... G01 : F-3 00 . ... ... : ... .. . ... : ... .. . ... : ... .. . ...
ROW 31 : ^-1 00 . ... ... G01 : A#2 00 . ... ... : ... .. . ... : ... .. . ... : ... .. . ...
ROW 32 : ^-1 00 . ... ... G01 : ^-1 00 . ... ... : ... .. . ... : ... .. . ... : ... .. . ...
ROW 33 : ^-1 00 . ... ... G01 : ^-1 00 . ... ... : ... .. . ... : ... .. . ... : ... .. . ...
ROW 34 : ^-1 00 . ... ... G01 : ^-1 00 . ... ... : ... .. . ... : ... .. . ... : ... .. . ...
ROW 35 : F-3 00 . ... ... G01 : ^-1 00 . ... ... : ... .. . ... : ... .. . ... : ... .. . ...
ROW 36 : A#2 00 . ... ... G01 : ^-1 00 . ... ... : ... .. . ... : ... .. . ... : ... .. . ...
ROW 37 : ^-1 00 . ... ... G01 : ^-1 00 . ... ... : ... .. . ... : ... .. . ... : ... .. . ...
ROW 38 : ^-1 00 . ... ... G01 : ^-1 00 . ... ... : ... .. . ... : ... .. . ... : ... .. . ...
ROW 39 : ^-1 00 . ... ... G01 : ^-1 00 . ... ... : ... .. . ... : ... .. . ... : ... .. . ...
ROW 3A : ^-1 00 . ... ... G01 : G-3 00 . ... ... : ... .. . ... : ... .. . ... : ... .. . ...
ROW 3B : ^-1 00 . ... ... G01 : C-3 00 . ... ... : ... .. . ... : ... .. . ... : ... .. . ...
ROW 3C : ^-1 00 . ... ... G01 : ^-1 00 . ... ... : ... .. . ... : ... .. . ... : ... .. . ...
ROW 3D : ^-1 00 . ... ... G01 : ^-1 00 . ... ... : ... .. . ... : ... .. . ... : ... .. . ...
ROW 3E : ^-1 00 . ... ... G01 : ^-1 00 . ... ... : ... .. . ... : ... .. . ... : ... .. . ...
ROW 3F : G-3 00 . ... ... G01 : ^-1 00 . ... ... : ... .. . ... : ... .. . ... : ... .. . ...

PATTERN 04
ROW 00 : C-3 00 6 V03 P78 G01 : ^-1 00 . ... ... : D-2 00 . P7F : ... .. . ... : ... .. . ...
ROW 01 : ^-1 00 . ... ... G01 : ^-1 00 . ... ... : ... .. . ... : ... .. . ... : ... .. . ...
ROW 02 : ^-1 00 . ... ... G01 : ^-1 00 . ... ... : ... .. . ... : ... .. . ... : ... .. . ...
ROW 03 : ^-1 00 . ... ... G01 : ^-1 00 . ... ... : ... .. . ... : ... .. . ... : ... .. . ...
ROW 04 : ^-1 00 . ... ... G01 : F-3 00 . ... ... : ... .. . ... : ... .. . ... : ... .. . ...
ROW 05 : ^-1 00 . ... ... G01 : A#2 00 . ... ... : ... .. . ... : ... .. . ... : ... .. . ...
ROW 06 : ^-1 00 . ... ... G01 : ^-1 00 . ... ... : ... .. . ... : ... .. . ... : ... .. . ...
ROW 07 : ^-1 00 . ... ... G01 : ^-1 00 . ... ... : ... .. . ... : ... .. . ... : ... .. . ...
ROW 08 : ^-1 00 . ... ... G01 : ^-1 00 . ... ... : ... .. . ... : ... .. . ... : ... .. . ...
ROW 09 : F-3 00 . ... ... G01 : ^-1 00 . ... ... : ... .. . ... : ... .. . ... : ... .. . ...
ROW 0A : A#2 00 . ... ... G01 : ^-1 00 . ... ... : ... .. . ... : ... .. . ... : ... .. . ...
ROW 0B : ^-1 00 . ... ... G01 : ^-1 00 . ... ... : ... .. . ... : ... .. . ... : ... .. . ...
ROW 0C : ^-1 00 . ... ... G01 : ^-1 00 . ... ... : ... .. . ... : ... .. . ... : ... .. . ...
ROW 0D : ^-1 00 . ... ... G01 : ^-1 00 . ... ... : ... .. . ... : ... .. . ... : ... .. . ...
ROW 0E : ^-1 00 . ... ... G01 : E-3 00 . ... ... : ... .. . ... : ... .. . ... : ... .. . ...
ROW 0F : ^-1 00 . ... ... G01 : A-2 00 . ... ... : ... .. . ... : ... .. . ... : ... .. . ...
ROW 10 : ^-1 00 . ... ... G01 : ^-1 00 . ... ... : ... .. . ... : ... .. . ... : ... .. . ...
ROW 11 : ^-1 00 . ... ... G01 : ^-1 00 . ... ... : ... .. . ... : ... .. . ... : ... .. . ...
ROW 12 : ^-1 00 . ... ... G01 : ^-1 00 . ... ... : ... .. . ... : ... .. . ... : ... .. . ...
ROW 13 : E-3 00 . ... ... G01 : ^-1 00 . ... ... : ... .. . ... : ... .. . ... : ... .. . ...
ROW 14 : A-2 00 . ... ... G01 : ^-1 00 . ... ... : ... .. . ... : ... .. . ... : ... .. . ...
ROW 15 : ^-1 00 . ... ... G01 : ^-1 00 . ... ... : ... .. . ... : ... .. . ... : ... .. . ...
ROW 16 : ^-1 00 . ... ... G01 : ^-1 00 . ... ... : ... .. . ... : ... .. . ... : ... .. . ...
ROW 17 : ^-1 00 . ... ... G01 : ^-1 00 . ... ... : ... .. . ... : ... .. . ... : ... .. . ...
ROW 18 : ^-1 00 . ... ... G01 : D-3 00 . ... ... : ... .. . ... : ... .. . ... : ... .. . ...
ROW 19 : ^-1 00 . ... ... G01 : F-2 00 . ... ... : ... .. . ... : ... .. . ... : ... .. . ...
ROW 1A : ^-1 00 . ... ... G01 : ^-1 00 . ... ... : ... .. . ... : ... .. . ... : ... .. . ...
ROW 1B : ^-1 00 . ... ... G01 : ^-1 00 . ... ... : ... .. . ... : ... .. . ... : ... .. . ...
ROW 1C : ^-1 00 . ... ... G01 : ^-1 00 . ... ... : ... .. . ... : ... .. . ... : ... .. . ...
ROW 1D : D-3 00 . ... ... G01 : ^-1 00 . ... ... : ... .. . ... : ... .. . ... : ... .. . ...
ROW 1E : F-2 00 . ... ... G01 : ^-1 00 . ... ... : ... .. . ... : ... .. . ... : ... .. . ...
ROW 1F : ^-1 00 . ... ... G01 : ^-1 00 . ... ... : ... .. . ... : ... .. . ... : ... .. . ...
ROW 20 : ^-1 00 . ... ... G01 : ^-1 00 . ... ... : ... .. . ... : ... .. . ... : ... .. . ...
ROW 21 : ^-1 00 . ... ... G01 : ^-1 00 . ... ... : ... .. . ... : ... .. . ... : ... .. . ...
ROW 22 : ^-1 00 . ... ... G01 : C-3 00 . ... ... : ... .. . ... : ... .. . ... : ... .. . ...
ROW 23 : ^-1 00 . ... ... G01 : ^-1 00 . ... ... : ... .. . ... : ... .. . ... : ... .. . ...
ROW 24 : ^-1 00 . ... ... G01 : ^-1 00 . ... ... : ... .. . ... : ... .. . ... : ... .. . ...
ROW 25 : ^-1 00 . ... ... G01 : ^-1 00 . ... ... : ... .. . ... : ... .. . ... : ... .. . ...
ROW 26 : ^-1 00 . ... ... G01 : ^-1 00 . ... ... : ... .. . ... : ... .. . ... : ... .. . ...
ROW 27 : C-3 00 . ... ... G01 : ^-1 00 . ... ... : ... .. . ... : ... .. . ... : ... .. . ...
ROW 28 : ^-1 00 . ... ... G01 : ^-1 00 . ... ... : ... .. . ... : ... .. . ... : ... .. . ...
ROW 29 : ^-1 00 . ... ... G01 : ^-1 00 . ... ... : ... .. . ... : ... .. . ... : ... .. . ...
ROW 2A : ^-1 00 . ... ... G01 : ^-1 00 . ... ... : ... .. . ... : ... .. . ... : ... .. . ...
ROW 2B : ^-1 00 . ... ... G01 : ^-1 00 . ... ... : ... .. . ... : ... .. . ... : ... .. . ...
ROW 2C : ^-1 00 . ... ... G01 : A#2 00 . ... ... : ... .. . ... : ... .. . ... : ... .. . ...
ROW 2D : ^-1 00 . ... ... G01 : ^-1 00 . ... ... : ... .. . ... : ... .. . ... : ... .. . ...
ROW 2E : ^-1 00 . ... ... G01 : ^-1 00 . ... ... : ... .. . ... : ... .. . ... : ... .. . ...
ROW 2F : ^-1 00 . ... ... G01 : ^-1 00 . ... ... : ... .. . ... : ... .. . ... : ... .. . ...
ROW 30 : ^-1 00 . ... ... G01 : ^-1 00 . ... ... : ... .. . ... : ... .. . ... : ... .. . ...
ROW 31 : A#2 00 . ... ... G01 : ^-1 00 . ... ... : ... .. . ... : ... .. . ... : ... .. . ...
ROW 32 : ^-1 00 . ... ... G01 : ^-1 00 . ... ... : ... .. . ... : ... .. . ... : ... .. . ...
ROW 33 : ^-1 00 . ... ... G01 : ^-1 00 . ... ... : ... .. . ... : ... .. . ... : ... .. . ...
ROW 34 : ^-1 00 . ... ... G01 : ^-1 00 . ... ... : ... .. . ... : ... .. . ... : ... .. . ...
ROW 35 : ^-1 00 . ... ... G01 : ^-1 00 . ... ... : ... .. . ... : ... .. . ... : ... .. . ...
ROW 36 : ^-1 00 . ... ... G01 : A-2 00 . ... ... : ... .. . ... : ... .. . ... : ... .. . ...
ROW 37 : ^-1 00 . ... ... G01 : D-2 00 . ... ... : ... .. . ... : ... .. . ... : ... .. . ...
ROW 38 : ^-1 00 . ... ... G01 : ^-1 00 . ... ... : ... .. . ... : ... .. . ... : ... .. . ...
ROW 39 : ^-1 00 . ... ... G01 : ^-1 00 . ... ... : ... .. . ... : ... .. . ... : ... .. . ...
ROW 3A : ^-1 00 . ... ... G01 : ^-1 00 . ... ... : ... .. . ... : ... .. . ... : ... .. . ...
ROW 3B : A-2 00 . ... ... G01 : ^-1 00 . ... ... : ... .. . ... : ... .. . ... : ... .. . ...
ROW 3C : D-2 00 . ... ... G01 : ^-1 00 . ... ... : ... .. . ... : ... .. . ... : ... .. . ...
ROW 3D : ^-1 00 . ... ... G01 : ^-1 00 . ... ... : ... .. . ... : ... .. . ... : ... .. . ...
ROW 3E : ^-1 00 . ... ... G01 : ^-1 00 . ... ... : ... .. . ... : ... .. . ... : ... .. . ...
ROW 3F : ^-1 00 . ... ... G01 : ^-1 00 . ... ... : ... .. . ... : ... .. . ... : ... .. . ...

PATTERN 05
ROW 00 : ^-1 00 6 V03 P78 G01 : ^-1 00 6 V03 P7F : D-2 00 . P7F : ... .. . ... : ... .. . ...
ROW 01 : ^-1 00 . ... ... G01 : ^-1 00 . ... ... : ... .. . ... : ... .. . ... : ... .. . ...
ROW 02 : ^-1 00 . ... ... G01 : ^-1 00 . ... ... : ... .. . ... : ... .. . ... : ... .. . ...
ROW 03 : ^-1 00 . ... ... G01 : ^-1 00 . ... ... : ... .. . ... : ... .. . ... : ... .. . ...
ROW 04 : ^-1 00 . ... ... G01 : ^-1 00 . ... ... : ... .. . ... : ... .. . ... : ... .. . ...
ROW 05 : ^-1 00 . ... ... G01 : ^-1 00 . ... ... : ... .. . ... : ... .. . ... : ... .. . ...
ROW 06 : ^-1 00 . ... ... G01 : ^-1 00 . ... ... : ... .. . ... : ... .. . ... : ... .. . ...
ROW 07 : ^-1 00 . ... ... G01 : ^-1 00 . ... ... : ... .. . ... : ... .. . ... : ... .. . ...
ROW 08 : ^-1 00 . ... ... G01 : ^-1 00 . ... ... : ... .. . ... : ... .. . ... : ... .. . ...
ROW 09 : ^-1 00 . ... ... G01 : ^-1 00 . ... ... : ... .. . ... : ... .. . ... : ... .. . ...
ROW 0A : ^-1 00 . ... ... G01 : ^-1 00 . ... ... : ... .. . ... : ... .. . ... : ... .. . ...
ROW 0B : ^-1 00 . ... ... G01 : ^-1 00 . ... ... : ... .. . ... : ... .. . ... : ... .. . ...
ROW 0C : ^-1 00 . ... ... G01 : ^-1 00 . ... ... : ... .. . ... : ... .. . ... : ... .. . ...
ROW 0D : ^-1 00 . ... ... G01 : ^-1 00 . ... ... : ... .. . ... : ... .. . ... : ... .. . ...
ROW 0E : ^-1 00 . ... ... G01 : ^-1 00 . ... ... : ... .. . ... : ... .. . ... : ... .. . ...
ROW 0F : ^-1 00 . ... ... G01 : ^-1 00 . ... ... : ... .. . ... : ... .. . ... : ... .. . ...
ROW 10 : ^-1 00 . ... ... G01 : ^-1 00 . ... ... : ... .. . ... : ... .. . ... : ... .. . ...
ROW 11 : ^-1 00 . ... ... G01 : ^-1 00 . ... ... : ... .. . ... : ... .. . ... : ... .. . ...
ROW 12 : ^-1 00 . ... ... G01 : ^-1 00 . ... ... : ... .. . ... : ... .. . ... : ... .. . ...
ROW 13 : ^-1 00 . ... ... G01 : ^-1 00 . ... ... : ... .. . ... : ... .. . ... : ... .. . ...
ROW 14 : ^-1 00 . ... ... G01 : ^-1 00 . ... ... : ... .. . ... : ... .. . ... : ... .. . ...
ROW 15 : ^-1 00 . ... ... G01 : ^-1 00 . ... ... : ... .. . ... : ... .. . ... : ... .. . ...
ROW 16 : ^-1 00 . ... ... G01 : ^-1 00 . ... ... : ... .. . ... : ... .. . ... : ... .. . ...
ROW 17 : ^-1 00 . ... ... G01 : ^-1 00 . ... ... : ... .. . ... : ... .. . ... : ... .. . ...
ROW 18 : ^-1 00 . ... ... G01 : ^-1 00 . ... ... : ... .. . ... : ... .. . ... : ... .. . ...
ROW 19 : ^-1 00 . ... ... G01 : ^-1 00 . ... ... : ... .. . ... : ... .. . ... : ... .. . ...
ROW 1A : ^-1 00 . ... ... G01 : ^-1 00 . ... ... : ... .. . ... : ... .. . ... : ... .. . ...
ROW 1B : ^-1 00 . ... ... G01 : ^-1 00 . ... ... : ... .. . ... : ... .. . ... : ... .. . ...
ROW 1C : ^-1 00 . ... ... G01 : ^-1 00 . ... ... : ... .. . ... : ... .. . ... : ... .. . ...
ROW 1D : ^-1 00 . ... ... G01 : ^-1 00 . ... ... : ... .. . ... : ... .. . ... : ... .. . ...
ROW 1E : ^-1 00 . ... ... G01 : ^-1 00 . ... ... : ... .. . ... : ... .. . ... : ... .. . ...
ROW 1F : ^-1 00 . ... ... G01 : ^-1 00 . ... ... : ... .. . ... : ... .. . ... : ... .. . ...
ROW 20 : ^-1 00 . ... ... G01 : ^-1 00 . ... ... : ... .. . ... : ... .. . ... : ... .. . ...
ROW 21 : ^-1 00 . ... ... G01 : ^-1 00 . ... ... : ... .. . ... : ... .. . ... : ... .. . ...
ROW 22 : ^-1 00 . ... ... G01 : ^-1 00 . ... ... : ... .. . ... : ... .. . ... : ... .. . ...
ROW 23 : ^-1 00 . ... ... G01 : ^-1 00 . ... ... : ... .. . ... : ... .. . ... : ... .. . ...
ROW 24 : ^-1 00 . ... ... G01 : ^-1 00 . ... ... : ... .. . ... : ... .. . ... : ... .. . ...
ROW 25 : ^-1 00 . ... ... G01 : ^-1 00 . ... ... : ... .. . ... : ... .. . ... : ... .. . ...
ROW 26 : ^-1 00 . ... ... G01 : ^-1 00 . ... ... : ... .. . ... : ... .. . ... : ... .. . ...
ROW 27 : ^-1 00 . ... ... G01 : ^-1 00 . ... ... : ... .. . ... : ... .. . ... : ... .. . ...
ROW 28 : ^-1 00 . ... ... G01 : ^-1 00 . ... ... : ... .. . ... : ... .. . ... : ... .. . ...
ROW 29 : ^-1 00 . ... ... G01 : ^-1 00 . ... ... : ... .. . ... : ... .. . ... : ... .. . ...
ROW 2A : ^-1 00 . ... ... G01 : ^-1 00 . ... ... : ... .. . ... : ... .. . ... : ... .. . ...
ROW 2B : ^-1 00 . ... ... G01 : ^-1 00 . ... ... : ... .. . ... : ... .. . ... : ... .. . ...
ROW 2C : ^-1 00 . ... ... G01 : ^-1 00 . ... ... : ... .. . ... : ... .. . ... : ... .. . ...
ROW 2D : ^-1 00 . ... ... G01 : ^-1 00 . ... ... : ... .. . ... : ... .. . ... : ... .. . ...
ROW 2E : ^-1 00 . ... ... G01 : ^-1 00 . ... ... : ... .. . ... : ... .. . ... : ... .. . ...
ROW 2F : ^-1 00 . ... ... G01 : ^-1 00 . ... ... : ... .. . ... : ... .. . ... : ... .. . ...
ROW 30 : ^-1 00 . ... ... G01 : ^-1 00 . ... ... : ... .. . ... : ... .. . ... : ... .. . ...
ROW 31 : ^-1 00 . ... ... G01 : ^-1 00 . ... ... : ... .. . ... : ... .. . ... : ... .. . ...
ROW 32 : ^-1 00 . ... ... G01 : ^-1 00 . ... ... : ... .. . ... : ... .. . ... : ... .. . ...
ROW 33 : ^-1 00 . ... ... G01 : ^-1 00 . ... ... : ... .. . ... : ... .. . ... : ... .. . ...
ROW 34 : ^-1 00 . ... ... G01 : ^-1 00 . ... ... : ... .. . ... : ... .. . ... : ... .. . ...
ROW 35 : ^-1 00 . ... ... G01 : ^-1 00 . ... ... : ... .. . ... : ... .. . ... : ... .. . ...
ROW 36 : ^-1 00 . ... ... G01 : ^-1 00 . ... ... : ... .. . ... : ... .. . ... : ... .. . ...
ROW 37 : ^-1 00 . ... ... G01 : ^-1 00 . ... ... : ... .. . ... : ... .. . ... : ... .. . ...
ROW 38 : ^-1 00 . ... ... G01 : ^-1 00 . ... ... : ... .. . ... : ... .. . ... : ... .. . ...
ROW 39 : ^-1 00 . ... ... G01 : ^-1 00 . ... ... : ... .. . ... : ... .. . ... : ... .. . ...
ROW 3A : ^-1 00 . ... ... G01 : ^-1 00 . ... ... : ... .. . ... : ... .. . ... : ... .. . ...
ROW 3B : ^-1 00 . ... ... G01 : ^-1 00 . ... ... : ... .. . ... : ... .. . ... : ... .. . D00
ROW 3C : ... .. . ... ... ... : ... .. . ... ... : ... .. . ... : ... .. . ... : ... .. . ...
ROW 3D : ... .. . ... ... ... : ... .. . ... ... : ... .. . ... : ... .. . ... : ... .. . ...
ROW 3E : ... .. . ... ... ... : ... .. . ... ... : ... .. . ... : ... .. . ... : ... .. . ...
ROW 3F : ... .. . ... ... ... : ... .. . ... ... : ... .. . ... : ... .. . ... : ... .. . ...

PATTERN 06
ROW 00 : ^-1 00 6 V03 P78 G01 : C-1 00 6 V03 P7F : C-2 00 . P7F : ... .. . ... : ... .. . ...
ROW 01 : ^-1 00 . ... ... G01 : G-1 00 . ... ... : ... .. . ... : ... .. . ... : ... .. . ...
ROW 02 : ^-1 00 . ... ... G01 : ^-1 00 . ... ... : ... .. . ... : ... .. . ... : ... .. . ...
ROW 03 : ^-1 00 . ... ... G01 : ^-1 00 . ... ... : ... .. . ... : ... .. . ... : ... .. . ...
ROW 04 : ^-1 00 . ... ... G01 : ^-1 00 . ... ... : ... .. . ... : ... .. . ... : ... .. . ...
ROW 05 : C-1 00 . ... ... G01 : G#1 00 . ... ... : C#2 00 . ... : ... .. . ... : ... .. . ...
ROW 06 : G-1 00 . ... ... G01 : C#1 00 . ... ... : ... .. . ... : ... .. . ... : ... .. . ...
ROW 07 : ^-1 00 . ... ... G01 : ^-1 00 . ... ... : ... .. . ... : ... .. . ... : ... .. . ...
ROW 08 : ^-1 00 . ... ... G01 : ^-1 00 . ... ... : ... .. . ... : ... .. . ... : ... .. . ...
ROW 09 : ^-1 00 . ... ... G01 : ^-1 00 . ... ... : ... .. . ... : ... .. . ... : ... .. . ...
ROW 0A : G#1 00 . ... ... G01 : D-1 00 . ... ... : D-2 00 . ... : ... .. . ... : ... .. . ...
ROW 0B : C#1 00 . ... ... G01 : A-1 00 . ... ... : ... .. . ... : ... .. . ... : ... .. . ...
ROW 0C : ^-1 00 . ... ... G01 : ^-1 00 . ... ... : ... .. . ... : ... .. . ... : ... .. . ...
ROW 0D : ^-1 00 . ... ... G01 : ^-1 00 . ... ... : ... .. . ... : ... .. . ... : ... .. . ...
ROW 0E : ^-1 00 . ... ... G01 : ^-1 00 . ... ... : ... .. . ... : ... .. . ... : ... .. . ...
ROW 0F : D-1 00 . ... ... G01 : ^-1 00 . ... ... : ... .. . ... : ... .. . ... : ... .. . ...
ROW 10 : A-1 00 . ... ... G01 : ^-1 00 . ... ... : ... .. . ... : ... .. . ... : ... .. . ...
ROW 11 : ^-1 00 . ... ... G01 : ^-1 00 . ... ... : ... .. . ... : ... .. . ... : ... .. . ...
ROW 12 : ^-1 00 . ... ... G01 : ^-1 00 . ... ... : ... .. . ... : ... .. . ... : ... .. . ...
ROW 13 : ^-1 00 . ... ... G01 : ^-1 00 . ... ... : ... .. . ... : ... .. . ... : ... .. . ...
ROW 14 : ^-1 00 . ... ... G01 : ^-1 00 . ... ... : ... .. . ... : ... .. . ... : ... .. . ...
ROW 15 : ^-1 00 . ... ... G01 : ^-1 00 . ... ... : ... .. . ... : ... .. . ... : ... .. . ...
ROW 16 : ^-1 00 . ... ... G01 : ^-1 00 . ... ... : ... .. . ... : ... .. . ... : ... .. . ...
ROW 17 : ^-1 00 . ... ... G01 : ^-1 00 . ... ... : ... .. . ... : ... .. . ... : ... .. . ...
ROW 18 : ^-1 00 . ... ... G01 : ^-1 00 . ... ... : ... .. . ... : ... .. . ... : ... .. . ...
ROW 19 : ^-1 00 . ... ... G01 : ^-1 00 . ... ... : ... .. . ... : ... .. . ... : ... .. . ...
ROW 1A : ^-1 00 . ... ... G01 : ^-1 00 . ... ... : ... .. . ... : ... .. . ... : ... .. . ...
ROW 1B : ^-1 00 . ... ... G01 : ^-1 00 . ... ... : ... .. . ... : ... .. . ... : ... .. . ...
ROW 1C : ^-1 00 . ... ... G01 : ^-1 00 . ... ... : ... .. . ... : ... .. . ... : ... .. . ...
ROW 1D : ^-1 00 . ... ... G01 : ^-1 00 . ... ... : ... .. . ... : ... .. . ... : ... .. . ...
ROW 1E : ^-1 00 . ... ... G01 : ^-1 00 . ... ... : ... .. . ... : ... .. . ... : ... .. . ...
ROW 1F : ^-1 00 . ... ... G01 : ^-1 00 . ... ... : ... .. . ... : ... .. . ... : ... .. . ...
ROW 20 : ^-1 00 . ... ... G01 : ^-1 00 . ... ... : ... .. . ... : ... .. . ... : ... .. . ...
ROW 21 : ^-1 00 . ... ... G01 : ^-1 00 . ... ... : ... .. . ... : ... .. . ... : ... .. . ...
ROW 22 : ^-1 00 . ... ... G01 : ^-1 00 . ... ... : ... .. . ... : ... .. . ... : ... .. . ...
ROW 23 : ^-1 00 . ... ... G01 : ^-1 00 . ... ... : ... .. . ... : ... .. . ... : ... .. . ...
ROW 24 : ^-1 00 . ... ... G01 : ^-1 00 . ... ... : ... .. . ... : ... .. . ... : ... .. . ...
ROW 25 : ^-1 00 . ... ... G01 : ^-1 00 . ... ... : ... .. . ... : ... .. . ... : ... .. . ...
ROW 26 : ^-1 00 . ... ... G01 : ^-1 00 . ... ... : ... .. . ... : ... .. . ... : ... .. . ...
ROW 27 : ^-1 00 . ... ... G01 : ^-1 00 . ... ... : ... .. . ... : ... .. . ... : ... .. . ...
ROW 28 : ^-1 00 . ... ... G01 : ^-1 00 . ... ... : ... .. . ... : ... .. . ... : ... .. . ...
ROW 29 : ^-1 00 . ... ... G01 : ^-1 00 . ... ... : ... .. . ... : ... .. . ... : ... .. . ...
ROW 2A : ^-1 00 . ... ... G01 : ^-1 00 . ... ... : ... .. . ... : ... .. . ... : ... .. . ...
ROW 2B : ^-1 00 . ... ... G01 : ^-1 00 . ... ... : ... .. . ... : ... .. . ... : ... .. . ...
ROW 2C : ^-1 00 . ... ... G01 : ^-1 00 . ... ... : ... .. . ... : ... .. . ... : ... .. . ...
ROW 2D : ^-1 00 . ... ... G01 : ^-1 00 . ... ... : ... .. . ... : ... .. . ... : ... .. . ...
ROW 2E : ^-1 00 . ... ... G01 : ^-1 00 . ... ... : ... .. . ... : ... .. . ... : ... .. . ...
ROW 2F : ^-1 00 . ... ... G01 : ^-1 00 . ... ... : ... .. . ... : ... .. . ... : ... .. . ...
ROW 30 : ^-1 00 . ... ... G01 : ^-1 00 . ... ... : ... .. . ... : ... .. . ... : ... .. . ...
ROW 31 : ^-1 00 . ... ... G01 : ^-1 00 . ... ... : ... .. . ... : ... .. . ... : ... .. . ...
ROW 32 : ^-1 00 . ... ... G01 : ^-1 00 . ... ... : ... .. . ... : ... .. . ... : ... .. . ...
ROW 33 : ^-1 00 . ... ... G01 : ^-1 00 . ... ... : ... .. . ... : ... .. . ... : ... .. . ...
ROW 34 : ^-1 00 . ... ... G01 : ^-1 00 . ... ... : ... .. . ... : ... .. . ... : ... .. . ...
ROW 35 : ^-1 00 . ... ... G01 : ^-1 00 . ... ... : ... .. . ... : ... .. . ... : ... .. . ...
ROW 36 : ^-1 00 . ... ... G01 : ^-1 00 . ... ... : ... .. . ... : ... .. . ... : ... .. . ...
ROW 37 : ^-1 00 . ... ... G01 : ^-1 00 . ... ... : ... .. . ... : ... .. . ... : ... .. . ...
ROW 38 : ^-1 00 . ... ... G01 : ^-1 00 . ... ... : ... .. . ... : ... .. . ... : ... .. . ...
ROW 39 : ^-1 00 . ... ... G01 : ^-1 00 . ... ... : ... .. . ... : ... .. . ... : ... .. . ...
ROW 3A : ^-1 00 . ... ... G01 : ^-1 00 . ... ... : ... .. . ... : ... .. . ... : ... .. . ...
ROW 3B : ^-1 00 . ... ... G01 : ^-1 00 . ... ... : ... .. . ... : ... .. . ... : ... .. . ...
ROW 3C : ^-1 00 . ... ... G01 : E-3 00 . ... ... : ... .. . ... : ... .. . ... : ... .. . ...
ROW 3D : ^-1 00 . ... ... G01 : A-2 00 . ... ... : ... .. . ... : ... .. . ... : ... .. . ...
ROW 3E : ^-1 00 . ... ... G01 : ^-1 00 . ... ... : ... .. . ... : ... .. . ... : ... .. . ...
ROW 3F : ^-1 00 . ... ... G01 : ^-1 00 . ... ... : ... .. . ... : ... .. . ... : ... .. . B01

TRACK  64  10 150 "Ending"
COLUMNS : 1 1 1 1 1

ORDER 00 : 00 00 00 00 00

PATTERN 00
ROW 00 : ... .. . ... : ... .. . ... : E-6 00 . P7F : ... .. . ... : ... .. . ...
ROW 01 : E-5 10 . ... : ... .. . ... : ... .. . ... : ... .. . ... : ... .. . ...
ROW 02 : ... .. . ... : E-5 10 . ... : C-6 00 . ... : ... .. . ... : ... .. . ...
ROW 03 : C-5 10 . ... : ... .. . ... : ... .. . ... : ... .. . ... : ... .. . ...
ROW 04 : ... .. . ... : C-5 10 . ... : A-5 00 . ... : ... .. . ... : ... .. . ...
ROW 05 : A-4 10 . ... : ... .. . ... : ... .. . ... : ... .. . ... : ... .. . ...
ROW 06 : ... .. . ... : A-4 10 . ... : F-5 00 . ... : ... .. . ... : ... .. . ...
ROW 07 : F-4 10 . ... : ... .. . ... : ... .. . ... : ... .. . ... : ... .. . ...
ROW 08 : ... .. . ... : F-4 10 . ... : ^-3 00 . ... : ... .. . ... : ... .. . ...
ROW 09 : ^-3 10 . ... : ... .. . ... : ... .. . ... : ... .. . ... : ... .. . ...
ROW 0A : ... .. . ... : ^-3 10 . ... : ^-3 00 . ... : ... .. . ... : ... .. . ...
ROW 0B : ^-3 10 . ... : ... .. . ... : ... .. . ... : ... .. . ... : ... .. . ...
ROW 0C : ... .. . ... : ^-3 10 . ... : ^-3 00 . ... : ... .. . ... : ... .. . ...
ROW 0D : ^-3 10 . ... : ... .. . ... : ... .. . ... : ... .. . ... : ... .. . ...
ROW 0E : ... .. . ... : ^-3 10 . ... : ^-3 00 . ... : ... .. . ... : ... .. . ...
ROW 0F : ^-3 10 . ... : ... .. . ... : ... .. . ... : ... .. . ... : ... .. . ...
ROW 10 : ... .. . ... : ^-3 10 . ... : D-6 00 . ... : ... .. . ... : ... .. . ...
ROW 11 : D-5 10 . ... : ... .. . ... : ... .. . ... : ... .. . ... : ... .. . ...
ROW 12 : ... .. . ... : D-5 10 . ... : B-5 00 . ... : ... .. . ... : ... .. . ...
ROW 13 : B-4 10 . ... : ... .. . ... : ... .. . ... : ... .. . ... : ... .. . ...
ROW 14 : ... .. . ... : B-4 10 . ... : G-5 00 . ... : ... .. . ... : ... .. . ...
ROW 15 : G-4 10 . ... : ... .. . ... : ... .. . ... : ... .. . ... : ... .. . ...
ROW 16 : ... .. . ... : G-4 10 . ... : E-5 00 . ... : ... .. . ... : ... .. . ...
ROW 17 : E-4 10 . ... : ... .. . ... : ... .. . ... : ... .. . ... : ... .. . ...
ROW 18 : ... .. . ... : E-4 10 . ... : ^-3 00 . ... : ... .. . ... : ... .. . ...
ROW 19 : ^-3 10 . ... : ... .. . ... : ... .. . ... : ... .. . ... : ... .. . ...
ROW 1A : ... .. . ... : ^-3 10 . ... : ^-3 00 . ... : ... .. . ... : ... .. . ...
ROW 1B : ^-3 10 . ... : ... .. . ... : ... .. . ... : ... .. . ... : ... .. . ...
ROW 1C : ... .. . ... : ^-3 10 . ... : ^-3 00 . ... : ... .. . ... : ... .. . ...
ROW 1D : ^-3 10 . ... : ... .. . ... : ... .. . ... : ... .. . ... : ... .. . ...
ROW 1E : ... .. . ... : ^-3 10 . ... : ^-3 00 . ... : ... .. . ... : ... .. . ...
ROW 1F : ^-3 10 . ... : ... .. . ... : ... .. . ... : ... .. . ... : ... .. . ...
ROW 20 : ... .. . ... : ^-3 10 . ... : C-6 00 . ... : ... .. . ... : ... .. . ...
ROW 21 : C-5 10 . ... : ... .. . ... : ... .. . ... : ... .. . ... : ... .. . ...
ROW 22 : ... .. . ... : C-5 10 . ... : A-5 00 . ... : ... .. . ... : ... .. . ...
ROW 23 : A-4 10 . ... : ... .. . ... : ... .. . ... : ... .. . ... : ... .. . ...
ROW 24 : ... .. . ... : A-4 10 . ... : F-5 00 . ... : ... .. . ... : ... .. . ...
ROW 25 : F-4 10 . ... : ... .. . ... : ... .. . ... : ... .. . ... : ... .. . ...
ROW 26 : ... .. . ... : F-4 10 . ... : D-5 00 . ... : ... .. . ... : ... .. . ...
ROW 27 : D-4 10 . ... : ... .. . ... : ... .. . ... : ... .. . ... : ... .. . ...
ROW 28 : ... .. . ... : D-4 10 . ... : ^-3 00 . ... : ... .. . ... : ... .. . ...
ROW 29 : ^-3 10 . ... : ... .. . ... : ... .. . ... : ... .. . ... : ... .. . ...
ROW 2A : ... .. . ... : ^-3 10 . ... : ^-3 00 . ... : ... .. . ... : ... .. . ...
ROW 2B : ^-3 10 . ... : ... .. . ... : ... .. . ... : ... .. . ... : ... .. . ...
ROW 2C : ... .. . ... : ^-3 10 . ... : ^-3 00 . ... : ... .. . ... : ... .. . ...
ROW 2D : ^-3 10 . ... : ... .. . ... : ... .. . ... : ... .. . ... : ... .. . ...
ROW 2E : ... .. . ... : ^-3 10 . ... : ^-3 00 . ... : ... .. . ... : ... .. . ...
ROW 2F : ^-3 10 . ... : ... .. . ... : ... .. . ... : ... .. . ... : ... .. . ...
ROW 30 : ... .. . ... : ^-3 10 . ... : A-5 00 . ... : ... .. . ... : ... .. . ...
ROW 31 : A-4 10 . ... : ... .. . ... : ... .. . ... : ... .. . ... : ... .. . ...
ROW 32 : ... .. . ... : A-4 10 . ... : F-5 00 . ... : ... .. . ... : ... .. . ...
ROW 33 : F-4 10 . ... : ... .. . ... : ... .. . ... : ... .. . ... : ... .. . ...
ROW 34 : ... .. . ... : F-4 10 . ... : D-5 00 . ... : ... .. . ... : ... .. . ...
ROW 35 : D-4 10 . ... : ... .. . ... : ... .. . ... : ... .. . ... : ... .. . ...
ROW 36 : ... .. . ... : D-4 10 . ... : B-4 00 . ... : ... .. . ... : ... .. . ...
ROW 37 : B-3 10 . ... : ... .. . ... : ... .. . ... : ... .. . ... : ... .. . ...
ROW 38 : ... .. . ... : B-3 10 . ... : F-5 00 . ... : ... .. . ... : ... .. . ...
ROW 39 : F-4 10 . ... : ... .. . ... : ... .. . ... : ... .. . ... : ... .. . ...
ROW 3A : ... .. . ... : F-4 10 . ... : D-5 00 . ... : ... .. . ... : ... .. . ...
ROW 3B : D-4 10 . ... : ... .. . ... : ... .. . ... : ... .. . ... : ... .. . ...
ROW 3C : ... .. . ... : D-4 10 . ... : B-4 00 . ... : ... .. . ... : ... .. . ...
ROW 3D : B-3 10 . ... : ... .. . ... : ... .. . ... : ... .. . ... : ... .. . ...
ROW 3E : ... .. . ... : B-3 10 . ... : A-4 00 . ... : ... .. . ... : ... .. . ...
ROW 3F : A-3 10 . ... : A-3 10 . G0A : ... .. . ... : ... .. . ... : ... .. . ...

TRACK 128   2 150 "Staff Roll"
COLUMNS : 1 1 1 1 1

ORDER 00 : 00 00 00 00 00
ORDER 01 : 01 01 01 01 01
ORDER 02 : 02 02 02 02 02
ORDER 03 : 03 03 03 03 03
ORDER 04 : 04 04 04 04 04
ORDER 05 : 05 05 05 05 05
ORDER 06 : 06 06 06 06 06
ORDER 07 : 07 07 07 07 07

PATTERN 00
ROW 00 : ... .. . ... : ... .. . ... : ... .. . ... : ... .. . ... : C-3 00 . ...
ROW 01 : A-2 0F . ... : E-2 0B . ... : A-2 17 . ... : F-# 1B . ... : ... .. . ...
ROW 02 : ... .. . ... : ... .. . ... : ... .. . ... : ... .. . ... : ... .. . ...
ROW 03 : ... .. . ... : A-1 0B . ... : ... .. . ... : ... .. . ... : ... .. . ...
ROW 04 : ... .. . ... : ... .. . ... : ... .. . ... : ... .. . ... : ... .. . ...
ROW 05 : ... .. . ... : G-2 0B . ... : A-2 17 . ... : ... .. . ... : ... .. . ...
ROW 06 : ... .. . ... : ... .. . ... : ... .. . ... : ... .. . ... : ... .. . ...
ROW 07 : ... .. . ... : A-1 0B . ... : ... .. . ... : ... .. . ... : ... .. . ...
ROW 08 : ... .. . ... : ... .. . ... : ... .. . ... : ... .. . ... : D-3 00 . ...
ROW 09 : E-3 0F . ... : A-2 0B . ... : A-3 17 . ... : A-# 1B . ... : ... .. . ...
ROW 0A : ... .. . ... : ... .. . ... : ... .. . ... : ... .. . ... : ... .. . ...
ROW 0B : ... .. . ... : B-2 0B . ... : ... .. . ... : ... .. . ... : ... .. . ...
ROW 0C : ... .. . ... : ... .. . ... : ... .. . ... : ... .. . ... : ... .. . ...
ROW 0D : ... .. . ... : C-3 0B . ... : A-2 17 . ... : ... .. . ... : ... .. . ...
ROW 0E : ... .. . ... : ... .. . ... : ... .. . ... : ... .. . ... : ... .. . ...
ROW 0F : ... .. . ... : A-2 0B . ... : ... .. . ... : ... .. . ... : ... .. . ...
ROW 10 : ... .. . ... : ... .. . ... : ... .. . ... : ... .. . ... : C-3 00 . ...
ROW 11 : ... .. . ... : E-2 0B . ... : G-2 17 . ... : F-# 1B . ... : ... .. . ...
ROW 12 : ... .. . ... : ... .. . ... : ... .. . ... : ... .. . ... : ... .. . ...
ROW 13 : --- .. . ... : A-1 0B . ... : ... .. . ... : ... .. . ... : ... .. . ...
ROW 14 : ... .. . ... : ... .. . ... : ... .. . ... : ... .. . ... : C-3 00 . ...
ROW 15 : A-2 0F . ... : G-2 0B . ... : G-2 17 . ... : F-# 1B . ... : ... .. . ...
ROW 16 : ... .. . ... : ... .. . ... : ... .. . ... : ... .. . ... : ... .. . ...
ROW 17 : ... .. . ... : A-1 0B . ... : ... .. . ... : ... .. . ... : ... .. . ...
ROW 18 : ... .. . ... : ... .. . ... : ... .. . ... : ... .. . ... : D-3 00 . ...
ROW 19 : C-3 0F . ... : A-2 0B . ... : G-3 17 . ... : A-# 1B . ... : ... .. . ...
ROW 1A : ... .. . ... : ... .. . ... : ... .. . ... : ... .. . ... : ... .. . ...
ROW 1B : ... .. . ... : B-2 0B . ... : ... .. . ... : ... .. . ... : ... .. . ...
ROW 1C : ... .. . ... : ... .. . ... : ... .. . ... : ... .. . ... : ... .. . ...
ROW 1D : E-3 0F . ... : C-3 0B . ... : G-2 17 . ... : ... .. . ... : ... .. . ...
ROW 1E : ... .. . ... : ... .. . ... : ... .. . ... : ... .. . ... : ... .. . ...
ROW 1F : ... .. . ... : A-2 0B . ... : ... .. . ... : ... .. . ... : ... .. . ...
ROW 20 : ... .. . ... : ... .. . ... : ... .. . ... : ... .. . ... : C-3 00 . ...
ROW 21 : A-3 0F . ... : E-2 0B . ... : F-2 17 . ... : F-# 1B . ... : ... .. . ...
ROW 22 : ... .. . ... : ... .. . ... : ... .. . ... : ... .. . ... : ... .. . ...
ROW 23 : ... .. . ... : A-1 0B . ... : ... .. . ... : ... .. . ... : ... .. . ...
ROW 24 : ... .. . ... : ... .. . ... : ... .. . ... : ... .. . ... : ... .. . ...
ROW 25 : ... .. . ... : G-2 0B . ... : F-2 17 . ... : ... .. . ... : ... .. . ...
ROW 26 : ... .. . ... : ... .. . ... : ... .. . ... : ... .. . ... : ... .. . ...
ROW 27 : ... .. . ... : A-1 0B . ... : ... .. . ... : ... .. . ... : ... .. . ...
ROW 28 : ... .. . ... : ... .. . ... : ... .. . ... : ... .. . ... : D-3 00 . ...
ROW 29 : ... .. . ... : A-2 0B . ... : F-3 17 . ... : A-# 1B . ... : ... .. . ...
ROW 2A : ... .. . ... : ... .. . ... : ... .. . ... : ... .. . ... : ... .. . ...
ROW 2B : ... .. . ... : B-2 0B . ... : ... .. . ... : ... .. . ... : ... .. . ...
ROW 2C : ... .. . ... : ... .. . ... : ... .. . ... : ... .. . ... : ... .. . ...
ROW 2D : ... .. . ... : C-3 0B . ... : F-2 17 . ... : ... .. . ... : ... .. . ...
ROW 2E : ... .. . ... : ... .. . ... : ... .. . ... : ... .. . ... : ... .. . ...
ROW 2F : ... .. . ... : A-2 0B . ... : ... .. . ... : ... .. . ... : ... .. . ...
ROW 30 : ... .. . ... : ... .. . ... : ... .. . ... : ... .. . ... : C-3 00 . ...
ROW 31 : ... .. . ... : E-2 0B . ... : F-2 17 . ... : F-# 1B . ... : ... .. . ...
ROW 32 : ... .. . ... : ... .. . ... : ... .. . ... : ... .. . ... : ... .. . ...
ROW 33 : ... .. . ... : A-1 0B . ... : ... .. . ... : ... .. . ... : ... .. . ...
ROW 34 : ... .. . ... : ... .. . ... : ... .. . ... : ... .. . ... : C-3 00 . ...
ROW 35 : ... .. . ... : G-2 0B . ... : F-2 17 . ... : F-# 1B . ... : ... .. . ...
ROW 36 : ... .. . ... : ... .. . ... : ... .. . ... : ... .. . ... : ... .. . ...
ROW 37 : ... .. . ... : A-1 0B . ... : ... .. . ... : ... .. . ... : ... .. . ...
ROW 38 : ... .. . ... : ... .. . ... : ... .. . ... : ... .. . ... : D-3 00 . ...
ROW 39 : A-2 0F . ... : A-2 0B . ... : F-3 17 . ... : A-# 1B . ... : ... .. . ...
ROW 3A : ... .. . ... : ... .. . ... : ... .. . ... : ... .. . ... : ... .. . ...
ROW 3B : ... .. . ... : B-2 0B . ... : ... .. . ... : ... .. . ... : ... .. . ...
ROW 3C : ... .. . ... : ... .. . ... : ... .. . ... : ... .. . ... : ... .. . ...
ROW 3D : B-2 0F . ... : C-3 0B . ... : F-2 17 . ... : ... .. . ... : ... .. . ...
ROW 3E : ... .. . ... : ... .. . ... : ... .. . ... : ... .. . ... : ... .. . ...
ROW 3F : ... .. . ... : A-2 0B . ... : ... .. . ... : ... .. . ... : ... .. . ...
ROW 40 : ... .. . ... : ... .. . ... : ... .. . ... : ... .. . ... : C-3 00 . ...
ROW 41 : C-3 0F . ... : E-2 0B . ... : G-2 17 . ... : F-# 1B . ... : ... .. . ...
ROW 42 : ... .. . ... : ... .. . ... : ... .. . ... : ... .. . ... : ... .. . ...
ROW 43 : ... .. . ... : A-1 0B . ... : ... .. . ... : ... .. . ... : ... .. . ...
ROW 44 : ... .. . ... : ... .. . ... : ... .. . ... : ... .. . ... : ... .. . ...
ROW 45 : ... .. . ... : G-2 0B . ... : G-2 17 . ... : ... .. . ... : ... .. . ...
ROW 46 : ... .. . ... : ... .. . ... : ... .. . ... : ... .. . ... : ... .. . ...
ROW 47 : ... .. . ... : A-1 0B . ... : ... .. . ... : ... .. . ... : ... .. . ...
ROW 48 : ... .. . ... : ... .. . ... : ... .. . ... : ... .. . ... : D-3 00 . ...
ROW 49 : G-3 0F . ... : A-2 0B . ... : G-3 17 . ... : A-# 1B . ... : ... .. . ...
ROW 4A : ... .. . ... : ... .. . ... : ... .. . ... : ... .. . ... : ... .. . ...
ROW 4B : ... .. . ... : B-2 0B . ... : ... .. . ... : ... .. . ... : ... .. . ...
ROW 4C : ... .. . ... : ... .. . ... : ... .. . ... : ... .. . ... : ... .. . ...
ROW 4D : F-3 0F . ... : C-3 0B . ... : G-2 17 . ... : ... .. . ... : ... .. . ...
ROW 4E : ... .. . ... : ... .. . ... : ... .. . ... : ... .. . ... : ... .. . ...
ROW 4F : ... .. . ... : A-2 0B . ... : ... .. . ... : ... .. . ... : ... .. . ...
ROW 50 : ... .. . ... : ... .. . ... : ... .. . ... : ... .. . ... : C-3 00 . ...
ROW 51 : E-3 0F . ... : E-2 0B . ... : G-2 17 . ... : F-# 1B . ... : ... .. . ...
ROW 52 : ... .. . ... : ... .. . ... : ... .. . ... : ... .. . ... : ... .. . ...
ROW 53 : ... .. . ... : A-1 0B . ... : ... .. . ... : ... .. . ... : ... .. . ...
ROW 54 : ... .. . ... : ... .. . ... : ... .. . ... : ... .. . ... : C-3 00 . ...
ROW 55 : ... .. . ... : G-2 0B . ... : G-2 17 . ... : F-# 1B . ... : ... .. . ...
ROW 56 : ... .. . ... : ... .. . ... : ... .. . ... : ... .. . ... : ... .. . ...
ROW 57 : ... .. . ... : A-1 0B . ... : ... .. . ... : ... .. . ... : ... .. . ...
ROW 58 : ... .. . ... : ... .. . ... : ... .. . ... : ... .. . ... : D-3 00 . ...
ROW 59 : C-3 0F . ... : A-2 0B . ... : G-3 17 . ... : A-# 1B . ... : ... .. . ...
ROW 5A : ... .. . ... : ... .. . ... : ... .. . ... : ... .. . ... : ... .. . ...
ROW 5B : ... .. . ... : B-2 0B . ... : ... .. . ... : ... .. . ... : ... .. . ...
ROW 5C : ... .. . ... : ... .. . ... : ... .. . ... : ... .. . ... : ... .. . ...
ROW 5D : ... .. . ... : C-3 0B . ... : G-2 17 . ... : ... .. . ... : ... .. . ...
ROW 5E : ... .. . ... : ... .. . ... : ... .. . ... : ... .. . ... : ... .. . ...
ROW 5F : ... .. . ... : A-2 0B . ... : ... .. . ... : ... .. . ... : ... .. . ...
ROW 60 : ... .. . ... : ... .. . ... : ... .. . ... : ... .. . ... : C-3 00 . ...
ROW 61 : D-3 0F . ... : E-2 0B . ... : G-2 17 . ... : F-# 1B . ... : ... .. . ...
ROW 62 : ... .. . ... : ... .. . ... : ... .. . ... : ... .. . ... : ... .. . ...
ROW 63 : ... .. . ... : A-1 0B . ... : ... .. . ... : ... .. . ... : ... .. . ...
ROW 64 : ... .. . ... : ... .. . ... : ... .. . ... : ... .. . ... : ... .. . ...
ROW 65 : ... .. . ... : G-2 0B . ... : G-2 17 . ... : ... .. . ... : ... .. . ...
ROW 66 : ... .. . ... : ... .. . ... : ... .. . ... : ... .. . ... : ... .. . ...
ROW 67 : ... .. . ... : A-1 0B . ... : ... .. . ... : ... .. . ... : ... .. . ...
ROW 68 : ... .. . ... : ... .. . ... : ... .. . ... : ... .. . ... : D-3 00 . ...
ROW 69 : G-3 0F . ... : A-2 0B . ... : G-3 17 . ... : A-# 1B . ... : ... .. . ...
ROW 6A : ... .. . ... : ... .. . ... : ... .. . ... : ... .. . ... : ... .. . ...
ROW 6B : ... .. . ... : B-2 0B . ... : ... .. . ... : ... .. . ... : ... .. . ...
ROW 6C : ... .. . ... : ... .. . ... : ... .. . ... : ... .. . ... : ... .. . ...
ROW 6D : ... .. . ... : C-3 0B . ... : G-2 17 . ... : ... .. . ... : ... .. . ...
ROW 6E : ... .. . ... : ... .. . ... : ... .. . ... : ... .. . ... : ... .. . ...
ROW 6F : ... .. . ... : A-2 0B . ... : ... .. . ... : ... .. . ... : ... .. . ...
ROW 70 : ... .. . ... : ... .. . ... : ... .. . ... : ... .. . ... : E-3 00 . W0A
ROW 71 : B-3 0F . ... : E-2 0B . ... : G-3 17 . ... : D-# 1B . ... : ... .. . ...
ROW 72 : ... .. . ... : ... .. . ... : ... .. . ... : ... .. . ... : ... .. . ...
ROW 73 : ... .. . ... : A-1 0B . ... : ... .. . ... : ... .. . ... : ... .. . ...
ROW 74 : ... .. . ... : ... .. . ... : ... .. . ... : ... .. . ... : E-3 00 . W0A
ROW 75 : ... .. . ... : G-2 0B . ... : A-3 17 . ... : D-# 1B . ... : ... .. . ...
ROW 76 : ... .. . ... : ... .. . ... : ... .. . ... : ... .. . ... : ... .. . ...
ROW 77 : ... .. . ... : A-1 0B . ... : ... .. . ... : ... .. . ... : ... .. . ...
ROW 78 : ... .. . ... : ... .. . ... : ... .. . ... : ... .. . ... : E-3 00 . W09
ROW 79 : G-3 0F . ... : A-2 0B . ... : B-3 17 . ... : 5-# 1B . ... : ... .. . ...
ROW 7A : ... .. . ... : ... .. . ... : ... .. . ... : ... .. . ... : ... .. . ...
ROW 7B : ... .. . ... : B-2 0B . ... : ... .. . ... : ... .. . ... : ... .. . ...
ROW 7C : ... .. . ... : ... .. . ... : ... .. . ... : ... .. . ... : E-3 00 . W09
ROW 7D : ... .. . ... : C-3 0B . ... : G-3 17 . ... : 5-# 1B . ... : ... .. . ...
ROW 7E : ... .. . ... : ... .. . ... : ... .. . ... : ... .. . ... : ... .. . ...
ROW 7F : ... .. . ... : A-2 0B . ... : ... .. . ... : ... .. . ... : ... .. . ...

PATTERN 01
ROW 00 : ... .. . ... : ... .. . ... : ... .. . ... : ... .. . ... : C-3 00 . ...
ROW 01 : A-2 0F . ... : E-2 0B . ... : A-2 17 . ... : F-# 1B . ... : ... .. . ...
ROW 02 : ... .. . ... : ... .. . ... : ... .. . ... : ... .. . ... : ... .. . ...
ROW 03 : ... .. . ... : A-1 0B . ... : ... .. . ... : ... .. . ... : ... .. . ...
ROW 04 : ... .. . ... : ... .. . ... : ... .. . ... : ... .. . ... : ... .. . ...
ROW 05 : ... .. . ... : G-2 0B . ... : A-2 17 . ... : ... .. . ... : ... .. . ...
ROW 06 : ... .. . ... : ... .. . ... : ... .. . ... : ... .. . ... : ... .. . ...
ROW 07 : ... .. . ... : A-1 0B . ... : ... .. . ... : ... .. . ... : ... .. . ...
ROW 08 : ... .. . ... : ... .. . ... : ... .. . ... : ... .. . ... : D-3 00 . ...
ROW 09 : E-3 0F . ... : A-2 0B . ... : A-3 17 . ... : A-# 1B . ... : ... .. . ...
ROW 0A : ... .. . ... : ... .. . ... : ... .. . ... : ... .. . ... : ... .. . ...
ROW 0B : ... .. . ... : B-2 0B . ... : ... .. . ... : ... .. . ... : ... .. . ...
ROW 0C : ... .. . ... : ... .. . ... : ... .. . ... : ... .. . ... : ... .. . ...
ROW 0D : ... .. . ... : C-3 0B . ... : A-2 17 . ... : ... .. . ... : ... .. . ...
ROW 0E : ... .. . ... : ... .. . ... : ... .. . ... : ... .. . ... : ... .. . ...
ROW 0F : ... .. . ... : A-2 0B . ... : ... .. . ... : ... .. . ... : ... .. . ...
ROW 10 : ... .. . ... : ... .. . ... : ... .. . ... : ... .. . ... : C-3 00 . ...
ROW 11 : ... .. . ... : E-2 0B . ... : G-2 17 . ... : F-# 1B . ... : ... .. . ...
ROW 12 : ... .. . ... : ... .. . ... : ... .. . ... : ... .. . ... : ... .. . ...
ROW 13 : --- .. . ... : A-1 0B . ... : ... .. . ... : ... .. . ... : ... .. . ...
ROW 14 : ... .. . ... : ... .. . ... : ... .. . ... : ... .. . ... : C-3 00 . ...
ROW 15 : A-2 0F . ... : G-2 0B . ... : G-2 17 . ... : F-# 1B . ... : ... .. . ...
ROW 16 : ... .. . ... : ... .. . ... : ... .. . ... : ... .. . ... : ... .. . ...
ROW 17 : ... .. . ... : A-1 0B . ... : ... .. . ... : ... .. . ... : ... .. . ...
ROW 18 : ... .. . ... : ... .. . ... : ... .. . ... : ... .. . ... : D-3 00 . ...
ROW 19 : C-3 0F . ... : A-2 0B . ... : G-3 17 . ... : A-# 1B . ... : ... .. . ...
ROW 1A : ... .. . ... : ... .. . ... : ... .. . ... : ... .. . ... : ... .. . ...
ROW 1B : ... .. . ... : B-2 0B . ... : ... .. . ... : ... .. . ... : ... .. . ...
ROW 1C : ... .. . ... : ... .. . ... : ... .. . ... : ... .. . ... : ... .. . ...
ROW 1D : E-3 0F . ... : C-3 0B . ... : G-2 17 . ... : ... .. . ... : ... .. . ...
ROW 1E : ... .. . ... : ... .. . ... : ... .. . ... : ... .. . ... : ... .. . ...
ROW 1F : ... .. . ... : A-2 0B . ... : ... .. . ... : ... .. . ... : ... .. . ...
ROW 20 : ... .. . ... : ... .. . ... : ... .. . ... : ... .. . ... : C-3 00 . ...
ROW 21 : A-3 0F . ... : E-2 0B . ... : F-2 17 . ... : F-# 1B . ... : ... .. . ...
ROW 22 : ... .. . ... : ... .. . ... : ... .. . ... : ... .. . ... : ... .. . ...
ROW 23 : ... .. . ... : A-1 0B . ... : ... .. . ... : ... .. . ... : ... .. . ...
ROW 24 : ... .. . ... : ... .. . ... : ... .. . ... : ... .. . ... : ... .. . ...
ROW 25 : ... .. . ... : G-2 0B . ... : F-2 17 . ... : ... .. . ... : ... .. . ...
ROW 26 : ... .. . ... : ... .. . ... : ... .. . ... : ... .. . ... : ... .. . ...
ROW 27 : ... .. . ... : A-1 0B . ... : ... .. . ... : ... .. . ... : ... .. . ...
ROW 28 : ... .. . ... : ... .. . ... : ... .. . ... : ... .. . ... : D-3 00 . ...
ROW 29 : ... .. . ... : A-2 0B . ... : F-3 17 . ... : A-# 1B . ... : ... .. . ...
ROW 2A : ... .. . ... : ... .. . ... : ... .. . ... : ... .. . ... : ... .. . ...
ROW 2B : ... .. . ... : B-2 0B . ... : ... .. . ... : ... .. . ... : ... .. . ...
ROW 2C : ... .. . ... : ... .. . ... : ... .. . ... : ... .. . ... : ... .. . ...
ROW 2D : ... .. . ... : C-3 0B . ... : F-2 17 . ... : ... .. . ... : ... .. . ...
ROW 2E : ... .. . ... : ... .. . ... : ... .. . ... : ... .. . ... : ... .. . ...
ROW 2F : ... .. . ... : A-2 0B . ... : ... .. . ... : ... .. . ... : ... .. . ...
ROW 30 : ... .. . ... : ... .. . ... : ... .. . ... : ... .. . ... : C-3 00 . ...
ROW 31 : ... .. . ... : E-2 0B . ... : F-2 17 . ... : F-# 1B . ... : ... .. . ...
ROW 32 : ... .. . ... : ... .. . ... : ... .. . ... : ... .. . ... : ... .. . ...
ROW 33 : ... .. . ... : A-1 0B . ... : ... .. . ... : ... .. . ... : ... .. . ...
ROW 34 : ... .. . ... : ... .. . ... : ... .. . ... : ... .. . ... : C-3 00 . ...
ROW 35 : ... .. . ... : G-2 0B . ... : F-2 17 . ... : F-# 1B . ... : ... .. . ...
ROW 36 : ... .. . ... : ... .. . ... : ... .. . ... : ... .. . ... : ... .. . ...
ROW 37 : ... .. . ... : A-1 0B . ... : ... .. . ... : ... .. . ... : ... .. . ...
ROW 38 : ... .. . ... : ... .. . ... : ... .. . ... : ... .. . ... : D-3 00 . ...
ROW 39 : A-2 0F . ... : A-2 0B . ... : F-3 17 . ... : A-# 1B . ... : ... .. . ...
ROW 3A : ... .. . ... : ... .. . ... : ... .. . ... : ... .. . ... : ... .. . ...
ROW 3B : ... .. . ... : B-2 0B . ... : ... .. . ... : ... .. . ... : ... .. . ...
ROW 3C : ... .. . ... : ... .. . ... : ... .. . ... : ... .. . ... : ... .. . ...
ROW 3D : B-2 0F . ... : C-3 0B . ... : F-2 17 . ... : ... .. . ... : ... .. . ...
ROW 3E : ... .. . ... : ... .. . ... : ... .. . ... : ... .. . ... : ... .. . ...
ROW 3F : ... .. . ... : A-2 0B . ... : ... .. . ... : ... .. . ... : ... .. . ...
ROW 40 : ... .. . ... : ... .. . ... : ... .. . ... : ... .. . ... : C-3 00 . ...
ROW 41 : C-3 0F . ... : E-2 0B . ... : G-2 17 . ... : F-# 1B . ... : ... .. . ...
ROW 42 : ... .. . ... : ... .. . ... : ... .. . ... : ... .. . ... : ... .. . ...
ROW 43 : ... .. . ... : A-1 0B . ... : ... .. . ... : ... .. . ... : ... .. . ...
ROW 44 : ... .. . ... : ... .. . ... : ... .. . ... : ... .. . ... : ... .. . ...
ROW 45 : ... .. . ... : G-2 0B . ... : G-2 17 . ... : ... .. . ... : ... .. . ...
ROW 46 : ... .. . ... : ... .. . ... : ... .. . ... : ... .. . ... : ... .. . ...
ROW 47 : ... .. . ... : A-1 0B . ... : ... .. . ... : ... .. . ... : ... .. . ...
ROW 48 : ... .. . ... : ... .. . ... : ... .. . ... : ... .. . ... : D-3 00 . ...
ROW 49 : D-3 0F . ... : A-2 0B . ... : G-3 17 . ... : A-# 1B . ... : ... .. . ...
ROW 4A : ... .. . ... : ... .. . ... : ... .. . ... : ... .. . ... : ... .. . ...
ROW 4B : ... .. . ... : B-2 0B . ... : ... .. . ... : ... .. . ... : ... .. . ...
ROW 4C : ... .. . ... : ... .. . ... : ... .. . ... : ... .. . ... : ... .. . ...
ROW 4D : C-3 0F . ... : C-3 0B . ... : G-2 17 . ... : ... .. . ... : ... .. . ...
ROW 4E : ... .. . ... : ... .. . ... : ... .. . ... : ... .. . ... : ... .. . ...
ROW 4F : ... .. . ... : A-2 0B . ... : ... .. . ... : ... .. . ... : ... .. . ...
ROW 50 : ... .. . ... : ... .. . ... : ... .. . ... : ... .. . ... : C-3 00 . ...
ROW 51 : B-2 0F . ... : E-2 0B . ... : G-2 17 . ... : F-# 1B . ... : ... .. . ...
ROW 52 : ... .. . ... : ... .. . ... : ... .. . ... : ... .. . ... : ... .. . ...
ROW 53 : ... .. . ... : A-1 0B . ... : ... .. . ... : ... .. . ... : ... .. . ...
ROW 54 : ... .. . ... : ... .. . ... : ... .. . ... : ... .. . ... : C-3 00 . ...
ROW 55 : A-2 0F . ... : G-2 0B . ... : G-2 17 . ... : F-# 1B . ... : ... .. . ...
ROW 56 : ... .. . ... : ... .. . ... : ... .. . ... : ... .. . ... : ... .. . ...
ROW 57 : ... .. . ... : A-1 0B . ... : ... .. . ... : ... .. . ... : ... .. . ...
ROW 58 : ... .. . ... : ... .. . ... : ... .. . ... : ... .. . ... : D-3 00 . ...
ROW 59 : G-2 0F . ... : A-2 0B . ... : G-3 17 . ... : A-# 1B . ... : ... .. . ...
ROW 5A : ... .. . ... : ... .. . ... : ... .. . ... : ... .. . ... : ... .. . ...
ROW 5B : ... .. . ... : B-2 0B . ... : ... .. . ... : ... .. . ... : ... .. . ...
ROW 5C : ... .. . ... : ... .. . ... : ... .. . ... : ... .. . ... : ... .. . ...
ROW 5D : ... .. . ... : C-3 0B . ... : G-2 17 . ... : ... .. . ... : ... .. . ...
ROW 5E : ... .. . ... : ... .. . ... : ... .. . ... : ... .. . ... : ... .. . ...
ROW 5F : ... .. . ... : A-2 0B . ... : ... .. . ... : ... .. . ... : ... .. . ...
ROW 60 : ... .. . ... : ... .. . ... : ... .. . ... : ... .. . ... : C-3 00 . ...
ROW 61 : A-2 0F . ... : C#3 0B . ... : A-3 17 . ... : F-# 1B . ... : ... .. . ...
ROW 62 : ... .. . ... : ... .. . ... : ... .. . ... : ... .. . ... : ... .. . ...
ROW 63 : ... .. . ... : A-1 0B . ... : ... .. . ... : ... .. . ... : ... .. . ...
ROW 64 : ... .. . ... : ... .. . ... : ... .. . ... : ... .. . ... : ... .. . ...
ROW 65 : ... .. . ... : E-2 0B . ... : A-2 17 . ... : ... .. . ... : ... .. . ...
ROW 66 : ... .. . ... : ... .. . ... : ... .. . ... : ... .. . ... : ... .. . ...
ROW 67 : ... .. . ... : A-1 0B . ... : ... .. . ... : ... .. . ... : ... .. . ...
ROW 68 : ... .. . ... : ... .. . ... : ... .. . ... : ... .. . ... : D-3 00 . ...
ROW 69 : ... .. . ... : C#2 0B . ... : E-3 17 . ... : A-# 1B . ... : ... .. . ...
ROW 6A : ... .. . ... : ... .. . ... : ... .. . ... : ... .. . ... : ... .. . ...
ROW 6B : ... .. . ... : A-1 0B . ... : ... .. . ... : ... .. . ... : ... .. . ...
ROW 6C : ... .. . ... : ... .. . ... : ... .. . ... : ... .. . ... : ... .. . ...
ROW 6D : ... .. . ... : F#2 0B . ... : D-3 17 . ... : ... .. . ... : ... .. . ...
ROW 6E : ... .. . ... : ... .. . ... : ... .. . ... : ... .. . ... : ... .. . ...
ROW 6F : ... .. . ... : A-1 0B . ... : ... .. . ... : ... .. . ... : ... .. . ...
ROW 70 : ... .. . ... : ... .. . ... : ... .. . ... : ... .. . ... : E-3 00 . W0A
ROW 71 : ... .. . ... : E-2 0B . ... : C#3 17 . ... : D-# 1B . ... : ... .. . ...
ROW 72 : ... .. . ... : ... .. . ... : ... .. . ... : ... .. . ... : ... .. . ...
ROW 73 : ... .. . ... : A-1 0B . ... : ... .. . ... : ... .. . ... : ... .. . ...
ROW 74 : ... .. . ... : ... .. . ... : ... .. . ... : ... .. . ... : E-3 00 . W0A
ROW 75 : ... .. . ... : D-2 0B . ... : B-2 17 . ... : D-# 1B . ... : ... .. . ...
ROW 76 : ... .. . ... : ... .. . ... : ... .. . ... : ... .. . ... : ... .. . ...
ROW 77 : ... .. . ... : A-1 0B . ... : ... .. . ... : ... .. . ... : ... .. . ...
ROW 78 : ... .. . ... : ... .. . ... : ... .. . ... : ... .. . ... : E-3 00 . W09
ROW 79 : --- .. . ... : C#2 0B . ... : A-2 17 . ... : 5-# 1B . ... : ... .. . ...
ROW 7A : ... .. . ... : ... .. . ... : ... .. . ... : ... .. . ... : ... .. . ...
ROW 7B : ... .. . ... : A-1 0B . ... : ... .. . ... : ... .. . ... : ... .. . ...
ROW 7C : ... .. . ... : ... .. . ... : ... .. . ... : ... .. . ... : E-3 00 . W09
ROW 7D : ... .. . ... : B-1 0B . ... : E-3 17 . ... : 5-# 1B . ... : ... .. . ...
ROW 7E : ... .. . ... : ... .. . ... : ... .. . ... : ... .. . ... : ... .. . ...
ROW 7F : ... .. . ... : A-1 0B . ... : ... .. . ... : ... .. . ... : ... .. . ...

PATTERN 02
ROW 00 : ... .. . ... : ... .. . ... : ... .. . ... : ... .. . ... : C-3 00 . ...
ROW 01 : A-2 0F . ... : E-2 0B . ... : A-2 17 . ... : F-# 1B . ... : ... .. . ...
ROW 02 : ... .. . ... : ... .. . ... : ... .. . ... : ... .. . ... : ... .. . ...
ROW 03 : ... .. . ... : A-1 0B . ... : ... .. . ... : ... .. . ... : ... .. . ...
ROW 04 : ... .. . ... : ... .. . ... : ... .. . ... : ... .. . ... : ... .. . ...
ROW 05 : ... .. . ... : G-2 0B . ... : A-2 17 . ... : ... .. . ... : ... .. . ...
ROW 06 : ... .. . ... : ... .. . ... : ... .. . ... : ... .. . ... : ... .. . ...
ROW 07 : ... .. . ... : A-1 0B . ... : ... .. . ... : ... .. . ... : ... .. . ...
ROW 08 : ... .. . ... : ... .. . ... : ... .. . ... : ... .. . ... : D-3 00 . ...
ROW 09 : E-3 0F . ... : A-2 0B . ... : A-3 17 . ... : A-# 1B . ... : ... .. . ...
ROW 0A : ... .. . ... : ... .. . ... : ... .. . ... : ... .. . ... : ... .. . ...
ROW 0B : ... .. . ... : B-2 0B . ... : ... .. . ... : ... .. . ... : ... .. . ...
ROW 0C : ... .. . ... : ... .. . ... : ... .. . ... : ... .. . ... : ... .. . ...
ROW 0D : ... .. . ... : C-3 0B . ... : A-2 17 . ... : ... .. . ... : ... .. . ...
ROW 0E : ... .. . ... : ... .. . ... : ... .. . ... : ... .. . ... : ... .. . ...
ROW 0F : ... .. . ... : A-2 0B . ... : ... .. . ... : ... .. . ... : ... .. . ...
ROW 10 : ... .. . ... : ... .. . ... : ... .. . ... : ... .. . ... : C-3 00 . ...
ROW 11 : ... .. . ... : E-2 0B . ... : G-2 17 . ... : F-# 1B . ... : ... .. . ...
ROW 12 : ... .. . ... : ... .. . ... : ... .. . ... : ... .. . ... : ... .. . ...
ROW 13 : --- .. . ... : A-1 0B . ... : ... .. . ... : ... .. . ... : ... .. . ...
ROW 14 : ... .. . ... : ... .. . ... : ... .. . ... : ... .. . ... : C-3 00 . ...
ROW 15 : A-2 0F . ... : G-2 0B . ... : G-2 17 . ... : F-# 1B . ... : ... .. . ...
ROW 16 : ... .. . ... : ... .. . ... : ... .. . ... : ... .. . ... : ... .. . ...
ROW 17 : ... .. . ... : A-1 0B . ... : ... .. . ... : ... .. . ... : ... .. . ...
ROW 18 : ... .. . ... : ... .. . ... : ... .. . ... : ... .. . ... : D-3 00 . ...
ROW 19 : C-3 0F . ... : A-2 0B . ... : G-3 17 . ... : A-# 1B . ... : ... .. . ...
ROW 1A : ... .. . ... : ... .. . ... : ... .. . ... : ... .. . ... : ... .. . ...
ROW 1B : ... .. . ... : B-2 0B . ... : ... .. . ... : ... .. . ... : ... .. . ...
ROW 1C : ... .. . ... : ... .. . ... : ... .. . ... : ... .. . ... : ... .. . ...
ROW 1D : E-3 0F . ... : C-3 0B . ... : G-2 17 . ... : ... .. . ... : ... .. . ...
ROW 1E : ... .. . ... : ... .. . ... : ... .. . ... : ... .. . ... : ... .. . ...
ROW 1F : ... .. . ... : A-2 0B . ... : ... .. . ... : ... .. . ... : ... .. . ...
ROW 20 : ... .. . ... : ... .. . ... : ... .. . ... : ... .. . ... : C-3 00 . ...
ROW 21 : A-3 0F . ... : E-2 0B . ... : F-2 17 . ... : F-# 1B . ... : ... .. . ...
ROW 22 : ... .. . ... : ... .. . ... : ... .. . ... : ... .. . ... : ... .. . ...
ROW 23 : ... .. . ... : A-1 0B . ... : ... .. . ... : ... .. . ... : ... .. . ...
ROW 24 : ... .. . ... : ... .. . ... : ... .. . ... : ... .. . ... : ... .. . ...
ROW 25 : ... .. . ... : G-2 0B . ... : F-2 17 . ... : ... .. . ... : ... .. . ...
ROW 26 : ... .. . ... : ... .. . ... : ... .. . ... : ... .. . ... : ... .. . ...
ROW 27 : ... .. . ... : A-1 0B . ... : ... .. . ... : ... .. . ... : ... .. . ...
ROW 28 : ... .. . ... : ... .. . ... : ... .. . ... : ... .. . ... : D-3 00 . ...
ROW 29 : ... .. . ... : A-2 0B . ... : F-3 17 . ... : A-# 1B . ... : ... .. . ...
ROW 2A : ... .. . ... : ... .. . ... : ... .. . ... : ... .. . ... : ... .. . ...
ROW 2B : ... .. . ... : B-2 0B . ... : ... .. . ... : ... .. . ... : ... .. . ...
ROW 2C : ... .. . ... : ... .. . ... : ... .. . ... : ... .. . ... : ... .. . ...
ROW 2D : ... .. . ... : C-3 0B . ... : F-2 17 . ... : ... .. . ... : ... .. . ...
ROW 2E : ... .. . ... : ... .. . ... : ... .. . ... : ... .. . ... : ... .. . ...
ROW 2F : ... .. . ... : A-2 0B . ... : ... .. . ... : ... .. . ... : ... .. . ...
ROW 30 : ... .. . ... : ... .. . ... : ... .. . ... : ... .. . ... : C-3 00 . ...
ROW 31 : ... .. . ... : E-2 0B . ... : F-2 17 . ... : F-# 1B . ... : ... .. . ...
ROW 32 : ... .. . ... : ... .. . ... : ... .. . ... : ... .. . ... : ... .. . ...
ROW 33 : ... .. . ... : A-1 0B . ... : ... .. . ... : ... .. . ... : ... .. . ...
ROW 34 : ... .. . ... : ... .. . ... : ... .. . ... : ... .. . ... : C-3 00 . ...
ROW 35 : ... .. . ... : G-2 0B . ... : F-2 17 . ... : F-# 1B . ... : ... .. . ...
ROW 36 : ... .. . ... : ... .. . ... : ... .. . ... : ... .. . ... : ... .. . ...
ROW 37 : ... .. . ... : A-1 0B . ... : ... .. . ... : ... .. . ... : ... .. . ...
ROW 38 : ... .. . ... : ... .. . ... : ... .. . ... : ... .. . ... : D-3 00 . ...
ROW 39 : A-2 0F . ... : A-2 0B . ... : F-3 17 . ... : A-# 1B . ... : ... .. . ...
ROW 3A : ... .. . ... : ... .. . ... : ... .. . ... : ... .. . ... : ... .. . ...
ROW 3B : ... .. . ... : B-2 0B . ... : ... .. . ... : ... .. . ... : ... .. . ...
ROW 3C : ... .. . ... : ... .. . ... : ... .. . ... : ... .. . ... : ... .. . ...
ROW 3D : B-2 0F . ... : C-3 0B . ... : F-2 17 . ... : ... .. . ... : ... .. . ...
ROW 3E : ... .. . ... : ... .. . ... : ... .. . ... : ... .. . ... : ... .. . ...
ROW 3F : ... .. . ... : A-2 0B . ... : ... .. . ... : ... .. . ... : ... .. . ...
ROW 40 : ... .. . ... : ... .. . ... : ... .. . ... : ... .. . ... : C-3 00 . ...
ROW 41 : C-3 0F . ... : E-2 0B . ... : G-2 17 . ... : F-# 1B . ... : ... .. . ...
ROW 42 : ... .. . ... : ... .. . ... : ... .. . ... : ... .. . ... : ... .. . ...
ROW 43 : ... .. . ... : A-1 0B . ... : ... .. . ... : ... .. . ... : ... .. . ...
ROW 44 : ... .. . ... : ... .. . ... : ... .. . ... : ... .. . ... : ... .. . ...
ROW 45 : ... .. . ... : G-2 0B . ... : G-2 17 . ... : ... .. . ... : ... .. . ...
ROW 46 : ... .. . ... : ... .. . ... : ... .. . ... : ... .. . ... : ... .. . ...
ROW 47 : ... .. . ... : A-1 0B . ... : ... .. . ... : ... .. . ... : ... .. . ...
ROW 48 : ... .. . ... : ... .. . ... : ... .. . ... : ... .. . ... : D-3 00 . ...
ROW 49 : G-3 0F . ... : A-2 0B . ... : G-3 17 . ... : A-# 1B . ... : ... .. . ...
ROW 4A : ... .. . ... : ... .. . ... : ... .. . ... : ... .. . ... : ... .. . ...
ROW 4B : ... .. . ... : B-2 0B . ... : ... .. . ... : ... .. . ... : ... .. . ...
ROW 4C : ... .. . ... : ... .. . ... : ... .. . ... : ... .. . ... : ... .. . ...
ROW 4D : F-3 0F . ... : C-3 0B . ... : G-2 17 . ... : ... .. . ... : ... .. . ...
ROW 4E : ... .. . ... : ... .. . ... : ... .. . ... : ... .. . ... : ... .. . ...
ROW 4F : ... .. . ... : A-2 0B . ... : ... .. . ... : ... .. . ... : ... .. . ...
ROW 50 : ... .. . ... : ... .. . ... : ... .. . ... : ... .. . ... : C-3 00 . ...
ROW 51 : E-3 0F . ... : E-2 0B . ... : G-2 17 . ... : F-# 1B . ... : ... .. . ...
ROW 52 : ... .. . ... : ... .. . ... : ... .. . ... : ... .. . ... : ... .. . ...
ROW 53 : ... .. . ... : A-1 0B . ... : ... .. . ... : ... .. . ... : ... .. . ...
ROW 54 : ... .. . ... : ... .. . ... : ... .. . ... : ... .. . ... : C-3 00 . ...
ROW 55 : ... .. . ... : G-2 0B . ... : G-2 17 . ... : F-# 1B . ... : ... .. . ...
ROW 56 : ... .. . ... : ... .. . ... : ... .. . ... : ... .. . ... : ... .. . ...
ROW 57 : ... .. . ... : A-1 0B . ... : ... .. . ... : ... .. . ... : ... .. . ...
ROW 58 : ... .. . ... : ... .. . ... : ... .. . ... : ... .. . ... : D-3 00 . ...
ROW 59 : C-3 0F . ... : A-2 0B . ... : G-3 17 . ... : A-# 1B . ... : ... .. . ...
ROW 5A : ... .. . ... : ... .. . ... : ... .. . ... : ... .. . ... : ... .. . ...
ROW 5B : ... .. . ... : B-2 0B . ... : ... .. . ... : ... .. . ... : ... .. . ...
ROW 5C : ... .. . ... : ... .. . ... : ... .. . ... : ... .. . ... : ... .. . ...
ROW 5D : ... .. . ... : C-3 0B . ... : G-2 17 . ... : ... .. . ... : ... .. . ...
ROW 5E : ... .. . ... : ... .. . ... : ... .. . ... : ... .. . ... : ... .. . ...
ROW 5F : ... .. . ... : A-2 0B . ... : ... .. . ... : ... .. . ... : ... .. . ...
ROW 60 : ... .. . ... : ... .. . ... : ... .. . ... : ... .. . ... : C-3 00 . ...
ROW 61 : D-3 0F . ... : E-2 0B . ... : G-2 17 . ... : F-# 1B . ... : ... .. . ...
ROW 62 : ... .. . ... : ... .. . ... : ... .. . ... : ... .. . ... : ... .. . ...
ROW 63 : ... .. . ... : A-1 0B . ... : ... .. . ... : ... .. . ... : ... .. . ...
ROW 64 : ... .. . ... : ... .. . ... : ... .. . ... : ... .. . ... : ... .. . ...
ROW 65 : ... .. . ... : G-2 0B . ... : G-2 17 . ... : ... .. . ... : ... .. . ...
ROW 66 : ... .. . ... : ... .. . ... : ... .. . ... : ... .. . ... : ... .. . ...
ROW 67 : ... .. . ... : A-1 0B . ... : ... .. . ... : ... .. . ... : ... .. . ...
ROW 68 : ... .. . ... : ... .. . ... : ... .. . ... : ... .. . ... : D-3 00 . ...
ROW 69 : G-3 0F . ... : A-2 0B . ... : G-3 17 . ... : A-# 1B . ... : ... .. . ...
ROW 6A : ... .. . ... : ... .. . ... : ... .. . ... : ... .. . ... : ... .. . ...
ROW 6B : ... .. . ... : B-2 0B . ... : ... .. . ... : ... .. . ... : ... .. . ...
ROW 6C : ... .. . ... : ... .. . ... : ... .. . ... : ... .. . ... : ... .. . ...
ROW 6D : ... .. . ... : C-3 0B . ... : G-2 17 . ... : ... .. . ... : ... .. . ...
ROW 6E : ... .. . ... : ... .. . ... : ... .. . ... : ... .. . ... : ... .. . ...
ROW 6F : ... .. . ... : A-2 0B . ... : ... .. . ... : ... .. . ... : ... .. . ...
ROW 70 : ... .. . ... : ... .. . ... : ... .. . ... : ... .. . ... : E-3 00 . W0A
ROW 71 : B-3 0F . ... : E-2 0B . ... : G-3 17 . ... : D-# 1B . ... : ... .. . ...
ROW 72 : ... .. . ... : ... .. . ... : ... .. . ... : ... .. . ... : ... .. . ...
ROW 73 : ... .. . ... : A-1 0B . ... : ... .. . ... : ... .. . ... : ... .. . ...
ROW 74 : ... .. . ... : ... .. . ... : ... .. . ... : ... .. . ... : E-3 00 . W0A
ROW 75 : ... .. . ... : G-2 0B . ... : A-3 17 . ... : D-# 1B . ... : ... .. . ...
ROW 76 : ... .. . ... : ... .. . ... : ... .. . ... : ... .. . ... : ... .. . ...
ROW 77 : ... .. . ... : A-1 0B . ... : ... .. . ... : ... .. . ... : ... .. . ...
ROW 78 : ... .. . ... : ... .. . ... : ... .. . ... : ... .. . ... : E-3 00 . W09
ROW 79 : G-3 0F . ... : A-2 0B . ... : B-3 17 . ... : 5-# 1B . ... : ... .. . ...
ROW 7A : ... .. . ... : ... .. . ... : ... .. . ... : ... .. . ... : ... .. . ...
ROW 7B : ... .. . ... : B-2 0B . ... : ... .. . ... : ... .. . ... : ... .. . ...
ROW 7C : ... .. . ... : ... .. . ... : ... .. . ... : ... .. . ... : E-3 00 . W09
ROW 7D : ... .. . ... : C-3 0B . ... : G-3 17 . ... : 5-# 1B . ... : ... .. . ...
ROW 7E : ... .. . ... : ... .. . ... : ... .. . ... : ... .. . ... : ... .. . ...
ROW 7F : ... .. . ... : A-2 0B . ... : ... .. . ... : ... .. . ... : ... .. . ...

PATTERN 03
ROW 00 : ... .. . ... : ... .. . ... : ... .. . ... : ... .. . ... : C-3 00 . ...
ROW 01 : A-2 0F . ... : E-2 0B . ... : A-2 17 . ... : F-# 1B . ... : ... .. . ...
ROW 02 : ... .. . ... : ... .. . ... : ... .. . ... : ... .. . ... : ... .. . ...
ROW 03 : ... .. . ... : A-1 0B . ... : ... .. . ... : ... .. . ... : ... .. . ...
ROW 04 : ... .. . ... : ... .. . ... : ... .. . ... : ... .. . ... : ... .. . ...
ROW 05 : ... .. . ... : G-2 0B . ... : A-2 17 . ... : ... .. . ... : ... .. . ...
ROW 06 : ... .. . ... : ... .. . ... : ... .. . ... : ... .. . ... : ... .. . ...
ROW 07 : ... .. . ... : A-1 0B . ... : ... .. . ... : ... .. . ... : ... .. . ...
ROW 08 : ... .. . ... : ... .. . ... : ... .. . ... : ... .. . ... : D-3 00 . ...
ROW 09 : E-3 0F . ... : A-2 0B . ... : A-3 17 . ... : A-# 1B . ... : ... .. . ...
ROW 0A : ... .. . ... : ... .. . ... : ... .. . ... : ... .. . ... : ... .. . ...
ROW 0B : ... .. . ... : B-2 0B . ... : ... .. . ... : ... .. . ... : ... .. . ...
ROW 0C : ... .. . ... : ... .. . ... : ... .. . ... : ... .. . ... : ... .. . ...
ROW 0D : ... .. . ... : C-3 0B . ... : A-2 17 . ... : ... .. . ... : ... .. . ...
ROW 0E : ... .. . ... : ... .. . ... : ... .. . ... : ... .. . ... : ... .. . ...
ROW 0F : ... .. . ... : A-2 0B . ... : ... .. . ... : ... .. . ... : ... .. . ...
ROW 10 : ... .. . ... : ... .. . ... : ... .. . ... : ... .. . ... : C-3 00 . ...
ROW 11 : ... .. . ... : E-2 0B . ... : G-2 17 . ... : F-# 1B . ... : ... .. . ...
ROW 12 : ... .. . ... : ... .. . ... : ... .. . ... : ... .. . ... : ... .. . ...
ROW 13 : --- .. . ... : A-1 0B . ... : ... .. . ... : ... .. . ... : ... .. . ...
ROW 14 : ... .. . ... : ... .. . ... : ... .. . ... : ... .. . ... : C-3 00 . ...
ROW 15 : A-2 0F . ... : G-2 0B . ... : G-2 17 . ... : F-# 1B . ... : ... .. . ...
ROW 16 : ... .. . ... : ... .. . ... : ... .. . ... : ... .. . ... : ... .. . ...
ROW 17 : ... .. . ... : A-1 0B . ... : ... .. . ... : ... .. . ... : ... .. . ...
ROW 18 : ... .. . ... : ... .. . ... : ... .. . ... : ... .. . ... : D-3 00 . ...
ROW 19 : C-3 0F . ... : A-2 0B . ... : G-3 17 . ... : A-# 1B . ... : ... .. . ...
ROW 1A : ... .. . ... : ... .. . ... : ... .. . ... : ... .. . ... : ... .. . ...
ROW 1B : ... .. . ... : B-2 0B . ... : ... .. . ... : ... .. . ... : ... .. . ...
ROW 1C : ... .. . ... : ... .. . ... : ... .. . ... : ... .. . ... : ... .. . ...
ROW 1D : E-3 0F . ... : C-3 0B . ... : G-2 17 . ... : ... .. . ... : ... .. . ...
ROW 1E : ... .. . ... : ... .. . ... : ... .. . ... : ... .. . ... : ... .. . ...
ROW 1F : ... .. . ... : A-2 0B . ... : ... .. . ... : ... .. . ... : ... .. . ...
ROW 20 : ... .. . ... : ... .. . ... : ... .. . ... : ... .. . ... : C-3 00 . ...
ROW 21 : A-3 0F . ... : E-2 0B . ... : F-2 17 . ... : F-# 1B . ... : ... .. . ...
ROW 22 : ... .. . ... : ... .. . ... : ... .. . ... : ... .. . ... : ... .. . ...
ROW 23 : ... .. . ... : A-1 0B . ... : ... .. . ... : ... .. . ... : ... .. . ...
ROW 24 : ... .. . ... : ... .. . ... : ... .. . ... : ... .. . ... : ... .. . ...
ROW 25 : ... .. . ... : G-2 0B . ... : F-2 17 . ... : ... .. . ... : ... .. . ...
ROW 26 : ... .. . ... : ... .. . ... : ... .. . ... : ... .. . ... : ... .. . ...
ROW 27 : ... .. . ... : A-1 0B . ... : ... .. . ... : ... .. . ... : ... .. . ...
ROW 28 : ... .. . ... : ... .. . ... : ... .. . ... : ... .. . ... : D-3 00 . ...
ROW 29 : ... .. . ... : A-2 0B . ... : F-3 17 . ... : A-# 1B . ... : ... .. . ...
ROW 2A : ... .. . ... : ... .. . ... : ... .. . ... : ... .. . ... : ... .. . ...
ROW 2B : ... .. . ... : B-2 0B . ... : ... .. . ... : ... .. . ... : ... .. . ...
ROW 2C : ... .. . ... : ... .. . ... : ... .. . ... : ... .. . ... : ... .. . ...
ROW 2D : ... .. . ... : C-3 0B . ... : F-2 17 . ... : ... .. . ... : ... .. . ...
ROW 2E : ... .. . ... : ... .. . ... : ... .. . ... : ... .. . ... : ... .. . ...
ROW 2F : ... .. . ... : A-2 0B . ... : ... .. . ... : ... .. . ... : ... .. . ...
ROW 30 : ... .. . ... : ... .. . ... : ... .. . ... : ... .. . ... : C-3 00 . ...
ROW 31 : ... .. . ... : E-2 0B . ... : F-2 17 . ... : F-# 1B . ... : ... .. . ...
ROW 32 : ... .. . ... : ... .. . ... : ... .. . ... : ... .. . ... : ... .. . ...
ROW 33 : ... .. . ... : A-1 0B . ... : ... .. . ... : ... .. . ... : ... .. . ...
ROW 34 : ... .. . ... : ... .. . ... : ... .. . ... : ... .. . ... : C-3 00 . ...
ROW 35 : ... .. . ... : G-2 0B . ... : F-2 17 . ... : F-# 1B . ... : ... .. . ...
ROW 36 : ... .. . ... : ... .. . ... : ... .. . ... : ... .. . ... : ... .. . ...
ROW 37 : ... .. . ... : A-1 0B . ... : ... .. . ... : ... .. . ... : ... .. . ...
ROW 38 : ... .. . ... : ... .. . ... : ... .. . ... : ... .. . ... : D-3 00 . ...
ROW 39 : A-2 0F . ... : A-2 0B . ... : F-3 17 . ... : A-# 1B . ... : ... .. . ...
ROW 3A : ... .. . ... : ... .. . ... : ... .. . ... : ... .. . ... : ... .. . ...
ROW 3B : ... .. . ... : B-2 0B . ... : ... .. . ... : ... .. . ... : ... .. . ...
ROW 3C : ... .. . ... : ... .. . ... : ... .. . ... : ... .. . ... : ... .. . ...
ROW 3D : B-2 0F . ... : C-3 0B . ... : F-2 17 . ... : ... .. . ... : ... .. . ...
ROW 3E : ... .. . ... : ... .. . ... : ... .. . ... : ... .. . ... : ... .. . ...
ROW 3F : ... .. . ... : A-2 0B . ... : ... .. . ... : ... .. . ... : ... .. . ...
ROW 40 : ... .. . ... : ... .. . ... : ... .. . ... : ... .. . ... : C-3 00 . ...
ROW 41 : C-3 0F . ... : A-1 0B . ... : G-2 17 . ... : F-# 1B . ... : ... .. . ...
ROW 42 : ... .. . ... : ... .. . ... : ... .. . ... : ... .. . ... : ... .. . ...
ROW 43 : ... .. . ... : E-1 0B . ... : ... .. . ... : ... .. . ... : ... .. . ...
ROW 44 : ... .. . ... : ... .. . ... : ... .. . ... : ... .. . ... : ... .. . ...
ROW 45 : ... .. . ... : A-1 0B . ... : G-2 17 . ... : ... .. . ... : ... .. . ...
ROW 46 : ... .. . ... : ... .. . ... : ... .. . ... : ... .. . ... : ... .. . ...
ROW 47 : ... .. . ... : B-1 0B . ... : ... .. . ... : ... .. . ... : ... .. . ...
ROW 48 : ... .. . ... : ... .. . ... : ... .. . ... : ... .. . ... : D-3 00 . ...
ROW 49 : D-3 0F . ... : D-2 0B . ... : G-3 17 . ... : A-# 1B . ... : ... .. . ...
ROW 4A : ... .. . ... : ... .. . ... : ... .. . ... : ... .. . ... : ... .. . ...
ROW 4B : ... .. . ... : B-1 0B . ... : ... .. . ... : ... .. . ... : ... .. . ...
ROW 4C : ... .. . ... : ... .. . ... : ... .. . ... : ... .. . ... : ... .. . ...
ROW 4D : C-3 0F . ... : D-2 0B . ... : G-2 17 . ... : ... .. . ... : ... .. . ...
ROW 4E : ... .. . ... : ... .. . ... : ... .. . ... : ... .. . ... : ... .. . ...
ROW 4F : ... .. . ... : E-2 0B . ... : ... .. . ... : ... .. . ... : ... .. . ...
ROW 50 : ... .. . ... : ... .. . ... : ... .. . ... : ... .. . ... : C-3 00 . ...
ROW 51 : B-2 0F . ... : G-2 0B . ... : G-2 17 . ... : F-# 1B . ... : ... .. . ...
ROW 52 : ... .. . ... : ... .. . ... : ... .. . ... : ... .. . ... : ... .. . ...
ROW 53 : ... .. . ... : E-2 0B . ... : ... .. . ... : ... .. . ... : ... .. . ...
ROW 54 : ... .. . ... : ... .. . ... : ... .. . ... : ... .. . ... : C-3 00 . ...
ROW 55 : A-2 0F . ... : G-2 0B . ... : G-2 17 . ... : F-# 1B . ... : ... .. . ...
ROW 56 : ... .. . ... : ... .. . ... : ... .. . ... : ... .. . ... : ... .. . ...
ROW 57 : ... .. . ... : A-2 0B . ... : ... .. . ... : ... .. . ... : ... .. . ...
ROW 58 : ... .. . ... : ... .. . ... : ... .. . ... : ... .. . ... : D-3 00 . ...
ROW 59 : G-2 0F . ... : B-2 0B . ... : G-3 17 . ... : A-# 1B . ... : ... .. . ...
ROW 5A : ... .. . ... : ... .. . ... : ... .. . ... : ... .. . ... : ... .. . ...
ROW 5B : ... .. . ... : A-2 0B . ... : ... .. . ... : ... .. . ... : ... .. . ...
ROW 5C : ... .. . ... : ... .. . ... : ... .. . ... : ... .. . ... : ... .. . ...
ROW 5D : ... .. . ... : B-2 0B . ... : G-2 17 . ... : ... .. . ... : ... .. . ...
ROW 5E : ... .. . ... : ... .. . ... : ... .. . ... : ... .. . ... : ... .. . ...
ROW 5F : ... .. . ... : D-3 0B . ... : ... .. . ... : ... .. . ... : ... .. . ...
ROW 60 : ... .. . ... : ... .. . ... : ... .. . ... : ... .. . ... : C-3 00 . ...
ROW 61 : A-2 0F . ... : D-3 0B . ... : --- .. . ... : F-# 1B . ... : ... .. . ...
ROW 62 : ... .. . ... : ... .. . ... : ... .. . ... : ... .. . ... : ... .. . ...
ROW 63 : ... .. . ... : ... .. . ... : A-2 18 . G03 : ... .. . ... : ... .. . ...
ROW 64 : ... .. . ... : ... .. . ... : ... .. . ... : ... .. . ... : ... .. . ...
ROW 65 : ... .. . ... : ... .. . ... : --- .. . ... : ... .. . ... : ... .. . ...
ROW 66 : ... .. . ... : ... .. . ... : ... .. . ... : ... .. . ... : ... .. . ...
ROW 67 : ... .. . ... : ... .. . ... : D-3 18 . G03 : ... .. . ... : ... .. . ...
ROW 68 : ... .. . ... : ... .. . ... : ... .. . ... : ... .. . ... : D-3 00 . ...
ROW 69 : ... .. . ... : C#3 0B . ... : --- .. . ... : A-# 1B . ... : ... .. . ...
ROW 6A : ... .. . ... : ... .. . ... : ... .. . ... : ... .. . ... : ... .. . ...
ROW 6B : ... .. . ... : ... .. . ... : E-3 18 . G03 : ... .. . ... : ... .. . ...
ROW 6C : ... .. . ... : ... .. . ... : ... .. . ... : ... .. . ... : ... .. . ...
ROW 6D : ... .. . ... : B-2 0B . ... : --- .. . ... : ... .. . ... : ... .. . ...
ROW 6E : ... .. . ... : ... .. . ... : ... .. . ... : ... .. . ... : ... .. . ...
ROW 6F : ... .. . ... : ... .. . ... : E-2 18 . G03 : ... .. . ... : ... .. . ...
ROW 70 : ... .. . ... : ... .. . ... : ... .. . ... : ... .. . ... : E-3 00 . W0A
ROW 71 : ... .. . ... : C#3 0B . ... : --- .. . ... : D-# 1B . ... : ... .. . ...
ROW 72 : ... .. . ... : ... .. . ... : ... .. . ... : ... .. . ... : ... .. . ...
ROW 73 : ... .. . ... : ... .. . ... : A-2 18 . G03 : ... .. . ... : ... .. . ...
ROW 74 : ... .. . ... : ... .. . ... : ... .. . ... : ... .. . ... : E-3 00 . W0A
ROW 75 : ... .. . ... : ... .. . ... : --- .. . G05 : D-# 1B . ... : ... .. . ...
ROW 76 : ... .. . ... : ... .. . ... : ... .. . ... : ... .. . ... : ... .. . ...
ROW 77 : ... .. . ... : ... .. . ... : A-2 18 . G03 : ... .. . ... : ... .. . ...
ROW 78 : ... .. . ... : ... .. . ... : ... .. . ... : ... .. . ... : E-3 00 . W09
ROW 79 : ... .. . ... : ... .. . ... : --- .. . G05 : 5-# 1B . ... : ... .. . ...
ROW 7A : ... .. . ... : ... .. . ... : ... .. . ... : ... .. . ... : ... .. . ...
ROW 7B : ... .. . ... : ... .. . ... : A-2 18 . G03 : ... .. . ... : ... .. . ...
ROW 7C : ... .. . ... : ... .. . ... : ... .. . ... : ... .. . ... : E-3 00 . W09
ROW 7D : --- .. . ... : --- .. . ... : --- .. . ... : 5-# 1B . ... : ... .. . ...
ROW 7E : ... .. . ... : ... .. . ... : ... .. . ... : ... .. . ... : ... .. . ...
ROW 7F : ... .. . ... : ... .. . ... : ... .. . ... : ... .. . ... : ... .. . ...

PATTERN 04
ROW 00 : ... .. . ... : ... .. . ... : ... .. . ... : ... .. . ... : C-3 00 . ...
ROW 01 : A-3 0F . ... : E-2 0B . ... : A-2 17 . ... : F-# 1B . ... : ... .. . ...
ROW 02 : ... .. . ... : ... .. . ... : ... .. . ... : ... .. . ... : ... .. . ...
ROW 03 : ... .. . ... : A-1 0B . ... : ... .. . ... : ... .. . ... : ... .. . ...
ROW 04 : ... .. . ... : ... .. . ... : ... .. . ... : ... .. . ... : ... .. . ...
ROW 05 : ... .. . ... : G-2 0B . ... : A-2 17 . ... : ... .. . ... : ... .. . ...
ROW 06 : ... .. . ... : ... .. . ... : ... .. . ... : ... .. . ... : ... .. . ...
ROW 07 : ... .. . ... : A-1 0B . ... : ... .. . ... : ... .. . ... : ... .. . ...
ROW 08 : ... .. . ... : ... .. . ... : ... .. . ... : ... .. . ... : D-3 00 . ...
ROW 09 : E-4 0F . ... : A-2 0B . ... : A-3 17 . ... : A-# 1B . ... : ... .. . ...
ROW 0A : ... .. . ... : ... .. . ... : ... .. . ... : ... .. . ... : ... .. . ...
ROW 0B : ... .. . ... : B-2 0B . ... : ... .. . ... : ... .. . ... : ... .. . ...
ROW 0C : ... .. . ... : ... .. . ... : ... .. . ... : ... .. . ... : ... .. . ...
ROW 0D : ... .. . ... : C-3 0B . ... : A-2 17 . ... : ... .. . ... : ... .. . ...
ROW 0E : ... .. . ... : ... .. . ... : ... .. . ... : ... .. . ... : ... .. . ...
ROW 0F : ... .. . ... : A-2 0B . ... : ... .. . ... : ... .. . ... : ... .. . ...
ROW 10 : ... .. . ... : ... .. . ... : ... .. . ... : ... .. . ... : C-3 00 . ...
ROW 11 : ... .. . ... : E-2 0B . ... : G-2 17 . ... : F-# 1B . ... : ... .. . ...
ROW 12 : ... .. . ... : ... .. . ... : ... .. . ... : ... .. . ... : ... .. . ...
ROW 13 : --- .. . ... : A-1 0B . ... : ... .. . ... : ... .. . ... : ... .. . ...
ROW 14 : ... .. . ... : ... .. . ... : ... .. . ... : ... .. . ... : C-3 00 . ...
ROW 15 : A-3 0F . ... : G-2 0B . ... : G-2 17 . ... : F-# 1B . ... : ... .. . ...
ROW 16 : ... .. . ... : ... .. . ... : ... .. . ... : ... .. . ... : ... .. . ...
ROW 17 : ... .. . ... : A-1 0B . ... : ... .. . ... : ... .. . ... : ... .. . ...
ROW 18 : ... .. . ... : ... .. . ... : ... .. . ... : ... .. . ... : D-3 00 . ...
ROW 19 : C-4 0F . ... : A-2 0B . ... : G-3 17 . ... : A-# 1B . ... : ... .. . ...
ROW 1A : ... .. . ... : ... .. . ... : ... .. . ... : ... .. . ... : ... .. . ...
ROW 1B : ... .. . ... : B-2 0B . ... : ... .. . ... : ... .. . ... : ... .. . ...
ROW 1C : ... .. . ... : ... .. . ... : ... .. . ... : ... .. . ... : ... .. . ...
ROW 1D : E-4 0F . ... : C-3 0B . ... : G-2 17 . ... : ... .. . ... : ... .. . ...
ROW 1E : ... .. . ... : ... .. . ... : ... .. . ... : ... .. . ... : ... .. . ...
ROW 1F : ... .. . ... : A-2 0B . ... : ... .. . ... : ... .. . ... : ... .. . ...
ROW 20 : ... .. . ... : ... .. . ... : ... .. . ... : ... .. . ... : C-3 00 . ...
ROW 21 : A-4 0F . ... : E-2 0B . ... : F-2 17 . ... : F-# 1B . ... : ... .. . ...
ROW 22 : ... .. . ... : ... .. . ... : ... .. . ... : ... .. . ... : ... .. . ...
ROW 23 : ... .. . ... : A-1 0B . ... : ... .. . ... : ... .. . ... : ... .. . ...
ROW 24 : ... .. . ... : ... .. . ... : ... .. . ... : ... .. . ... : ... .. . ...
ROW 25 : ... .. . ... : G-2 0B . ... : F-2 17 . ... : ... .. . ... : ... .. . ...
ROW 26 : ... .. . ... : ... .. . ... : ... .. . ... : ... .. . ... : ... .. . ...
ROW 27 : ... .. . ... : A-1 0B . ... : ... .. . ... : ... .. . ... : ... .. . ...
ROW 28 : ... .. . ... : ... .. . ... : ... .. . ... : ... .. . ... : D-3 00 . ...
ROW 29 : ... .. . ... : A-2 0B . ... : F-3 17 . ... : A-# 1B . ... : ... .. . ...
ROW 2A : ... .. . ... : ... .. . ... : ... .. . ... : ... .. . ... : ... .. . ...
ROW 2B : ... .. . ... : B-2 0B . ... : ... .. . ... : ... .. . ... : ... .. . ...
ROW 2C : ... .. . ... : ... .. . ... : ... .. . ... : ... .. . ... : ... .. . ...
ROW 2D : ... .. . ... : C-3 0B . ... : F-2 17 . ... : ... .. . ... : ... .. . ...
ROW 2E : ... .. . ... : ... .. . ... : ... .. . ... : ... .. . ... : ... .. . ...
ROW 2F : ... .. . ... : A-2 0B . ... : ... .. . ... : ... .. . ... : ... .. . ...
ROW 30 : ... .. . ... : ... .. . ... : ... .. . ... : ... .. . ... : C-3 00 . ...
ROW 31 : ... .. . ... : E-2 0B . ... : F-2 17 . ... : F-# 1B . ... : ... .. . ...
ROW 32 : ... .. . ... : ... .. . ... : ... .. . ... : ... .. . ... : ... .. . ...
ROW 33 : ... .. . ... : A-1 0B . ... : ... .. . ... : ... .. . ... : ... .. . ...
ROW 34 : ... .. . ... : ... .. . ... : ... .. . ... : ... .. . ... : C-3 00 . ...
ROW 35 : ... .. . ... : G-2 0B . ... : F-2 17 . ... : F-# 1B . ... : ... .. . ...
ROW 36 : ... .. . ... : ... .. . ... : ... .. . ... : ... .. . ... : ... .. . ...
ROW 37 : ... .. . ... : A-1 0B . ... : ... .. . ... : ... .. . ... : ... .. . ...
ROW 38 : ... .. . ... : ... .. . ... : ... .. . ... : ... .. . ... : D-3 00 . ...
ROW 39 : A-3 0F . ... : A-2 0B . ... : F-3 17 . ... : A-# 1B . ... : ... .. . ...
ROW 3A : ... .. . ... : ... .. . ... : ... .. . ... : ... .. . ... : ... .. . ...
ROW 3B : ... .. . ... : B-2 0B . ... : ... .. . ... : ... .. . ... : ... .. . ...
ROW 3C : ... .. . ... : ... .. . ... : ... .. . ... : ... .. . ... : ... .. . ...
ROW 3D : B-3 0F . ... : C-3 0B . ... : F-2 17 . ... : ... .. . ... : ... .. . ...
ROW 3E : ... .. . ... : ... .. . ... : ... .. . ... : ... .. . ... : ... .. . ...
ROW 3F : ... .. . ... : A-2 0B . ... : ... .. . ... : ... .. . ... : ... .. . ...
ROW 40 : ... .. . ... : ... .. . ... : ... .. . ... : ... .. . ... : C-3 00 . ...
ROW 41 : C-4 0F . ... : E-2 0B . ... : G-2 17 . ... : F-# 1B . ... : ... .. . ...
ROW 42 : ... .. . ... : ... .. . ... : ... .. . ... : ... .. . ... : ... .. . ...
ROW 43 : ... .. . ... : A-1 0B . ... : ... .. . ... : ... .. . ... : ... .. . ...
ROW 44 : ... .. . ... : ... .. . ... : ... .. . ... : ... .. . ... : ... .. . ...
ROW 45 : ... .. . ... : G-2 0B . ... : G-2 17 . ... : ... .. . ... : ... .. . ...
ROW 46 : ... .. . ... : ... .. . ... : ... .. . ... : ... .. . ... : ... .. . ...
ROW 47 : ... .. . ... : A-1 0B . ... : ... .. . ... : ... .. . ... : ... .. . ...
ROW 48 : ... .. . ... : ... .. . ... : ... .. . ... : ... .. . ... : D-3 00 . ...
ROW 49 : G-4 0F . ... : A-2 0B . ... : G-3 17 . ... : A-# 1B . ... : ... .. . ...
ROW 4A : ... .. . ... : ... .. . ... : ... .. . ... : ... .. . ... : ... .. . ...
ROW 4B : ... .. . ... : B-2 0B . ... : ... .. . ... : ... .. . ... : ... .. . ...
ROW 4C : ... .. . ... : ... .. . ... : ... .. . ... : ... .. . ... : ... .. . ...
ROW 4D : F-4 0F . ... : C-3 0B . ... : G-2 17 . ... : ... .. . ... : ... .. . ...
ROW 4E : ... .. . ... : ... .. . ... : ... .. . ... : ... .. . ... : ... .. . ...
ROW 4F : ... .. . ... : A-2 0B . ... : ... .. . ... : ... .. . ... : ... .. . ...
ROW 50 : ... .. . ... : ... .. . ... : ... .. . ... : ... .. . ... : C-3 00 . ...
ROW 51 : E-4 0F . ... : E-2 0B . ... : G-2 17 . ... : F-# 1B . ... : ... .. . ...
ROW 52 : ... .. . ... : ... .. . ... : ... .. . ... : ... .. . ... : ... .. . ...
ROW 53 : ... .. . ... : A-1 0B . ... : ... .. . ... : ... .. . ... : ... .. . ...
ROW 54 : ... .. . ... : ... .. . ... : ... .. . ... : ... .. . ... : C-3 00 . ...
ROW 55 : ... .. . ... : G-2 0B . ... : G-2 17 . ... : F-# 1B . ... : ... .. . ...
ROW 56 : ... .. . ... : ... .. . ... : ... .. . ... : ... .. . ... : ... .. . ...
ROW 57 : ... .. . ... : A-1 0B . ... : ... .. . ... : ... .. . ... : ... .. . ...
ROW 58 : ... .. . ... : ... .. . ... : ... .. . ... : ... .. . ... : D-3 00 . ...
ROW 59 : C-4 0F . ... : A-2 0B . ... : G-3 17 . ... : A-# 1B . ... : ... .. . ...
ROW 5A : ... .. . ... : ... .. . ... : ... .. . ... : ... .. . ... : ... .. . ...
ROW 5B : ... .. . ... : B-2 0B . ... : ... .. . ... : ... .. . ... : ... .. . ...
ROW 5C : ... .. . ... : ... .. . ... : ... .. . ... : ... .. . ... : ... .. . ...
ROW 5D : ... .. . ... : C-3 0B . ... : G-2 17 . ... : ... .. . ... : ... .. . ...
ROW 5E : ... .. . ... : ... .. . ... : ... .. . ... : ... .. . ... : ... .. . ...
ROW 5F : ... .. . ... : A-2 0B . ... : ... .. . ... : ... .. . ... : ... .. . ...
ROW 60 : ... .. . ... : ... .. . ... : ... .. . ... : ... .. . ... : C-3 00 . ...
ROW 61 : D-4 0F . ... : E-2 0B . ... : G-2 17 . ... : F-# 1B . ... : ... .. . ...
ROW 62 : ... .. . ... : ... .. . ... : ... .. . ... : ... .. . ... : ... .. . ...
ROW 63 : ... .. . ... : A-1 0B . ... : ... .. . ... : ... .. . ... : ... .. . ...
ROW 64 : ... .. . ... : ... .. . ... : ... .. . ... : ... .. . ... : ... .. . ...
ROW 65 : ... .. . ... : G-2 0B . ... : G-2 17 . ... : ... .. . ... : ... .. . ...
ROW 66 : ... .. . ... : ... .. . ... : ... .. . ... : ... .. . ... : ... .. . ...
ROW 67 : ... .. . ... : A-1 0B . ... : ... .. . ... : ... .. . ... : ... .. . ...
ROW 68 : ... .. . ... : ... .. . ... : ... .. . ... : ... .. . ... : D-3 00 . ...
ROW 69 : G-4 0F . ... : A-2 0B . ... : G-3 17 . ... : A-# 1B . ... : ... .. . ...
ROW 6A : ... .. . ... : ... .. . ... : ... .. . ... : ... .. . ... : ... .. . ...
ROW 6B : ... .. . ... : B-2 0B . ... : ... .. . ... : ... .. . ... : ... .. . ...
ROW 6C : ... .. . ... : ... .. . ... : ... .. . ... : ... .. . ... : ... .. . ...
ROW 6D : ... .. . ... : C-3 0B . ... : G-2 17 . ... : ... .. . ... : ... .. . ...
ROW 6E : ... .. . ... : ... .. . ... : ... .. . ... : ... .. . ... : ... .. . ...
ROW 6F : ... .. . ... : A-2 0B . ... : ... .. . ... : ... .. . ... : ... .. . ...
ROW 70 : ... .. . ... : ... .. . ... : ... .. . ... : ... .. . ... : E-3 00 . W0A
ROW 71 : B-4 0F . ... : E-2 0B . ... : G-3 17 . ... : D-# 1B . ... : ... .. . ...
ROW 72 : ... .. . ... : ... .. . ... : ... .. . ... : ... .. . ... : ... .. . ...
ROW 73 : ... .. . ... : A-1 0B . ... : ... .. . ... : ... .. . ... : ... .. . ...
ROW 74 : ... .. . ... : ... .. . ... : ... .. . ... : ... .. . ... : E-3 00 . W0A
ROW 75 : ... .. . ... : G-2 0B . ... : A-3 17 . ... : D-# 1B . ... : ... .. . ...
ROW 76 : ... .. . ... : ... .. . ... : ... .. . ... : ... .. . ... : ... .. . ...
ROW 77 : ... .. . ... : A-1 0B . ... : ... .. . ... : ... .. . ... : ... .. . ...
ROW 78 : ... .. . ... : ... .. . ... : ... .. . ... : ... .. . ... : E-3 00 . W09
ROW 79 : G-4 0F . ... : A-2 0B . ... : B-3 17 . ... : 5-# 1B . ... : ... .. . ...
ROW 7A : ... .. . ... : ... .. . ... : ... .. . ... : ... .. . ... : ... .. . ...
ROW 7B : ... .. . ... : B-2 0B . ... : ... .. . ... : ... .. . ... : ... .. . ...
ROW 7C : ... .. . ... : ... .. . ... : ... .. . ... : ... .. . ... : E-3 00 . W09
ROW 7D : ... .. . ... : C-3 0B . ... : G-3 17 . ... : 5-# 1B . ... : ... .. . ...
ROW 7E : ... .. . ... : ... .. . ... : ... .. . ... : ... .. . ... : ... .. . ...
ROW 7F : ... .. . ... : A-2 0B . ... : ... .. . ... : ... .. . ... : ... .. . ...

PATTERN 05
ROW 00 : ... .. . ... : ... .. . ... : ... .. . ... : ... .. . ... : C-3 00 . ...
ROW 01 : A-3 0F . ... : E-2 0B . ... : A-2 17 . ... : F-# 1B . ... : ... .. . ...
ROW 02 : ... .. . ... : ... .. . ... : ... .. . ... : ... .. . ... : ... .. . ...
ROW 03 : ... .. . ... : A-1 0B . ... : ... .. . ... : ... .. . ... : ... .. . ...
ROW 04 : ... .. . ... : ... .. . ... : ... .. . ... : ... .. . ... : ... .. . ...
ROW 05 : ... .. . ... : G-2 0B . ... : A-2 17 . ... : ... .. . ... : ... .. . ...
ROW 06 : ... .. . ... : ... .. . ... : ... .. . ... : ... .. . ... : ... .. . ...
ROW 07 : ... .. . ... : A-1 0B . ... : ... .. . ... : ... .. . ... : ... .. . ...
ROW 08 : ... .. . ... : ... .. . ... : ... .. . ... : ... .. . ... : D-3 00 . ...
ROW 09 : E-4 0F . ... : A-2 0B . ... : A-3 17 . ... : A-# 1B . ... : ... .. . ...
ROW 0A : ... .. . ... : ... .. . ... : ... .. . ... : ... .. . ... : ... .. . ...
ROW 0B : ... .. . ... : B-2 0B . ... : ... .. . ... : ... .. . ... : ... .. . ...
ROW 0C : ... .. . ... : ... .. . ... : ... .. . ... : ... .. . ... : ... .. . ...
ROW 0D : ... .. . ... : C-3 0B . ... : A-2 17 . ... : ... .. . ... : ... .. . ...
ROW 0E : ... .. . ... : ... .. . ... : ... .. . ... : ... .. . ... : ... .. . ...
ROW 0F : ... .. . ... : A-2 0B . ... : ... .. . ... : ... .. . ... : ... .. . ...
ROW 10 : ... .. . ... : ... .. . ... : ... .. . ... : ... .. . ... : C-3 00 . ...
ROW 11 : ... .. . ... : E-2 0B . ... : G-2 17 . ... : F-# 1B . ... : ... .. . ...
ROW 12 : ... .. . ... : ... .. . ... : ... .. . ... : ... .. . ... : ... .. . ...
ROW 13 : --- .. . ... : A-1 0B . ... : ... .. . ... : ... .. . ... : ... .. . ...
ROW 14 : ... .. . ... : ... .. . ... : ... .. . ... : ... .. . ... : C-3 00 . ...
ROW 15 : A-3 0F . ... : G-2 0B . ... : G-2 17 . ... : F-# 1B . ... : ... .. . ...
ROW 16 : ... .. . ... : ... .. . ... : ... .. . ... : ... .. . ... : ... .. . ...
ROW 17 : ... .. . ... : A-1 0B . ... : ... .. . ... : ... .. . ... : ... .. . ...
ROW 18 : ... .. . ... : ... .. . ... : ... .. . ... : ... .. . ... : D-3 00 . ...
ROW 19 : C-4 0F . ... : A-2 0B . ... : G-3 17 . ... : A-# 1B . ... : ... .. . ...
ROW 1A : ... .. . ... : ... .. . ... : ... .. . ... : ... .. . ... : ... .. . ...
ROW 1B : ... .. . ... : B-2 0B . ... : ... .. . ... : ... .. . ... : ... .. . ...
ROW 1C : ... .. . ... : ... .. . ... : ... .. . ... : ... .. . ... : ... .. . ...
ROW 1D : E-4 0F . ... : C-3 0B . ... : G-2 17 . ... : ... .. . ... : ... .. . ...
ROW 1E : ... .. . ... : ... .. . ... : ... .. . ... : ... .. . ... : ... .. . ...
ROW 1F : ... .. . ... : A-2 0B . ... : ... .. . ... : ... .. . ... : ... .. . ...
ROW 20 : ... .. . ... : ... .. . ... : ... .. . ... : ... .. . ... : C-3 00 . ...
ROW 21 : A-4 0F . ... : E-2 0B . ... : F-2 17 . ... : F-# 1B . ... : ... .. . ...
ROW 22 : ... .. . ... : ... .. . ... : ... .. . ... : ... .. . ... : ... .. . ...
ROW 23 : ... .. . ... : A-1 0B . ... : ... .. . ... : ... .. . ... : ... .. . ...
ROW 24 : ... .. . ... : ... .. . ... : ... .. . ... : ... .. . ... : ... .. . ...
ROW 25 : ... .. . ... : G-2 0B . ... : F-2 17 . ... : ... .. . ... : ... .. . ...
ROW 26 : ... .. . ... : ... .. . ... : ... .. . ... : ... .. . ... : ... .. . ...
ROW 27 : ... .. . ... : A-1 0B . ... : ... .. . ... : ... .. . ... : ... .. . ...
ROW 28 : ... .. . ... : ... .. . ... : ... .. . ... : ... .. . ... : D-3 00 . ...
ROW 29 : ... .. . ... : A-2 0B . ... : F-3 17 . ... : A-# 1B . ... : ... .. . ...
ROW 2A : ... .. . ... : ... .. . ... : ... .. . ... : ... .. . ... : ... .. . ...
ROW 2B : ... .. . ... : B-2 0B . ... : ... .. . ... : ... .. . ... : ... .. . ...
ROW 2C : ... .. . ... : ... .. . ... : ... .. . ... : ... .. . ... : ... .. . ...
ROW 2D : ... .. . ... : C-3 0B . ... : F-2 17 . ... : ... .. . ... : ... .. . ...
ROW 2E : ... .. . ... : ... .. . ... : ... .. . ... : ... .. . ... : ... .. . ...
ROW 2F : ... .. . ... : A-2 0B . ... : ... .. . ... : ... .. . ... : ... .. . ...
ROW 30 : ... .. . ... : ... .. . ... : ... .. . ... : ... .. . ... : C-3 00 . ...
ROW 31 : ... .. . ... : E-2 0B . ... : F-2 17 . ... : F-# 1B . ... : ... .. . ...
ROW 32 : ... .. . ... : ... .. . ... : ... .. . ... : ... .. . ... : ... .. . ...
ROW 33 : ... .. . ... : A-1 0B . ... : ... .. . ... : ... .. . ... : ... .. . ...
ROW 34 : ... .. . ... : ... .. . ... : ... .. . ... : ... .. . ... : C-3 00 . ...
ROW 35 : ... .. . ... : G-2 0B . ... : F-2 17 . ... : F-# 1B . ... : ... .. . ...
ROW 36 : ... .. . ... : ... .. . ... : ... .. . ... : ... .. . ... : ... .. . ...
ROW 37 : ... .. . ... : A-1 0B . ... : ... .. . ... : ... .. . ... : ... .. . ...
ROW 38 : ... .. . ... : ... .. . ... : ... .. . ... : ... .. . ... : D-3 00 . ...
ROW 39 : A-3 0F . ... : A-2 0B . ... : F-3 17 . ... : A-# 1B . ... : ... .. . ...
ROW 3A : ... .. . ... : ... .. . ... : ... .. . ... : ... .. . ... : ... .. . ...
ROW 3B : ... .. . ... : B-2 0B . ... : ... .. . ... : ... .. . ... : ... .. . ...
ROW 3C : ... .. . ... : ... .. . ... : ... .. . ... : ... .. . ... : ... .. . ...
ROW 3D : B-3 0F . ... : C-3 0B . ... : F-2 17 . ... : ... .. . ... : ... .. . ...
ROW 3E : ... .. . ... : ... .. . ... : ... .. . ... : ... .. . ... : ... .. . ...
ROW 3F : ... .. . ... : A-2 0B . ... : ... .. . ... : ... .. . ... : ... .. . ...
ROW 40 : ... .. . ... : ... .. . ... : ... .. . ... : ... .. . ... : C-3 00 . ...
ROW 41 : C-4 0F . ... : E-2 0B . ... : G-2 17 . ... : F-# 1B . ... : ... .. . ...
ROW 42 : ... .. . ... : ... .. . ... : ... .. . ... : ... .. . ... : ... .. . ...
ROW 43 : ... .. . ... : A-1 0B . ... : ... .. . ... : ... .. . ... : ... .. . ...
ROW 44 : ... .. . ... : ... .. . ... : ... .. . ... : ... .. . ... : ... .. . ...
ROW 45 : ... .. . ... : G-2 0B . ... : G-2 17 . ... : ... .. . ... : ... .. . ...
ROW 46 : ... .. . ... : ... .. . ... : ... .. . ... : ... .. . ... : ... .. . ...
ROW 47 : ... .. . ... : A-1 0B . ... : ... .. . ... : ... .. . ... : ... .. . ...
ROW 48 : ... .. . ... : ... .. . ... : ... .. . ... : ... .. . ... : D-3 00 . ...
ROW 49 : D-4 0F . ... : A-2 0B . ... : G-3 17 . ... : A-# 1B . ... : ... .. . ...
ROW 4A : ... .. . ... : ... .. . ... : ... .. . ... : ... .. . ... : ... .. . ...
ROW 4B : ... .. . ... : B-2 0B . ... : ... .. . ... : ... .. . ... : ... .. . ...
ROW 4C : ... .. . ... : ... .. . ... : ... .. . ... : ... .. . ... : ... .. . ...
ROW 4D : C-4 0F . ... : C-3 0B . ... : G-2 17 . ... : ... .. . ... : ... .. . ...
ROW 4E : ... .. . ... : ... .. . ... : ... .. . ... : ... .. . ... : ... .. . ...
ROW 4F : ... .. . ... : A-2 0B . ... : ... .. . ... : ... .. . ... : ... .. . ...
ROW 50 : ... .. . ... : ... .. . ... : ... .. . ... : ... .. . ... : C-3 00 . ...
ROW 51 : B-3 0F . ... : E-2 0B . ... : G-2 17 . ... : F-# 1B . ... : ... .. . ...
ROW 52 : ... .. . ... : ... .. . ... : ... .. . ... : ... .. . ... : ... .. . ...
ROW 53 : ... .. . ... : A-1 0B . ... : ... .. . ... : ... .. . ... : ... .. . ...
ROW 54 : ... .. . ... : ... .. . ... : ... .. . ... : ... .. . ... : C-3 00 . ...
ROW 55 : A-3 0F . ... : G-2 0B . ... : G-2 17 . ... : F-# 1B . ... : ... .. . ...
ROW 56 : ... .. . ... : ... .. . ... : ... .. . ... : ... .. . ... : ... .. . ...
ROW 57 : ... .. . ... : A-1 0B . ... : ... .. . ... : ... .. . ... : ... .. . ...
ROW 58 : ... .. . ... : ... .. . ... : ... .. . ... : ... .. . ... : D-3 00 . ...
ROW 59 : G-3 0F . ... : A-2 0B . ... : G-3 17 . ... : A-# 1B . ... : ... .. . ...
ROW 5A : ... .. . ... : ... .. . ... : ... .. . ... : ... .. . ... : ... .. . ...
ROW 5B : ... .. . ... : B-2 0B . ... : ... .. . ... : ... .. . ... : ... .. . ...
ROW 5C : ... .. . ... : ... .. . ... : ... .. . ... : ... .. . ... : ... .. . ...
ROW 5D : ... .. . ... : C-3 0B . ... : G-2 17 . ... : ... .. . ... : ... .. . ...
ROW 5E : ... .. . ... : ... .. . ... : ... .. . ... : ... .. . ... : ... .. . ...
ROW 5F : ... .. . ... : A-2 0B . ... : ... .. . ... : ... .. . ... : ... .. . ...
ROW 60 : ... .. . ... : ... .. . ... : ... .. . ... : ... .. . ... : C-3 00 . ...
ROW 61 : A-3 0F . ... : C#3 0B . ... : A-3 17 . ... : F-# 1B . ... : ... .. . ...
ROW 62 : ... .. . ... : ... .. . ... : ... .. . ... : ... .. . ... : ... .. . ...
ROW 63 : ... .. . ... : A-1 0B . ... : ... .. . ... : ... .. . ... : ... .. . ...
ROW 64 : ... .. . ... : ... .. . ... : ... .. . ... : ... .. . ... : ... .. . ...
ROW 65 : ... .. . ... : E-2 0B . ... : A-2 17 . ... : ... .. . ... : ... .. . ...
ROW 66 : ... .. . ... : ... .. . ... : ... .. . ... : ... .. . ... : ... .. . ...
ROW 67 : ... .. . ... : A-1 0B . ... : ... .. . ... : ... .. . ... : ... .. . ...
ROW 68 : ... .. . ... : ... .. . ... : ... .. . ... : ... .. . ... : D-3 00 . ...
ROW 69 : ... .. . ... : C#2 0B . ... : E-3 17 . ... : A-# 1B . ... : ... .. . ...
ROW 6A : ... .. . ... : ... .. . ... : ... .. . ... : ... .. . ... : ... .. . ...
ROW 6B : ... .. . ... : A-1 0B . ... : ... .. . ... : ... .. . ... : ... .. . ...
ROW 6C : ... .. . ... : ... .. . ... : ... .. . ... : ... .. . ... : ... .. . ...
ROW 6D : ... .. . ... : F#2 0B . ... : D-3 17 . ... : ... .. . ... : ... .. . ...
ROW 6E : ... .. . ... : ... .. . ... : ... .. . ... : ... .. . ... : ... .. . ...
ROW 6F : ... .. . ... : A-1 0B . ... : ... .. . ... : ... .. . ... : ... .. . ...
ROW 70 : ... .. . ... : ... .. . ... : ... .. . ... : ... .. . ... : E-3 00 . W0A
ROW 71 : ... .. . ... : E-2 0B . ... : C#3 17 . ... : D-# 1B . ... : ... .. . ...
ROW 72 : ... .. . ... : ... .. . ... : ... .. . ... : ... .. . ... : ... .. . ...
ROW 73 : ... .. . ... : A-1 0B . ... : ... .. . ... : ... .. . ... : ... .. . ...
ROW 74 : ... .. . ... : ... .. . ... : ... .. . ... : ... .. . ... : E-3 00 . W0A
ROW 75 : ... .. . ... : D-2 0B . ... : B-2 17 . ... : D-# 1B . ... : ... .. . ...
ROW 76 : ... .. . ... : ... .. . ... : ... .. . ... : ... .. . ... : ... .. . ...
ROW 77 : ... .. . ... : A-1 0B . ... : ... .. . ... : ... .. . ... : ... .. . ...
ROW 78 : ... .. . ... : ... .. . ... : ... .. . ... : ... .. . ... : E-3 00 . W09
ROW 79 : --- .. . ... : C#2 0B . ... : A-2 17 . ... : 5-# 1B . ... : ... .. . ...
ROW 7A : ... .. . ... : ... .. . ... : ... .. . ... : ... .. . ... : ... .. . ...
ROW 7B : ... .. . ... : A-1 0B . ... : ... .. . ... : ... .. . ... : ... .. . ...
ROW 7C : ... .. . ... : ... .. . ... : ... .. . ... : ... .. . ... : E-3 00 . W09
ROW 7D : ... .. . ... : B-1 0B . ... : E-3 17 . ... : 5-# 1B . ... : ... .. . ...
ROW 7E : ... .. . ... : ... .. . ... : ... .. . ... : ... .. . ... : ... .. . ...
ROW 7F : ... .. . ... : A-1 0B . ... : ... .. . ... : ... .. . ... : ... .. . ...

PATTERN 06
ROW 00 : ... .. . ... : ... .. . ... : ... .. . ... : ... .. . ... : C-3 00 . ...
ROW 01 : A-3 0F . ... : E-2 0B . ... : A-2 17 . ... : F-# 1B . ... : ... .. . ...
ROW 02 : ... .. . ... : ... .. . ... : ... .. . ... : ... .. . ... : ... .. . ...
ROW 03 : ... .. . ... : A-1 0B . ... : ... .. . ... : ... .. . ... : ... .. . ...
ROW 04 : ... .. . ... : ... .. . ... : ... .. . ... : ... .. . ... : ... .. . ...
ROW 05 : ... .. . ... : G-2 0B . ... : A-2 17 . ... : ... .. . ... : ... .. . ...
ROW 06 : ... .. . ... : ... .. . ... : ... .. . ... : ... .. . ... : ... .. . ...
ROW 07 : ... .. . ... : A-1 0B . ... : ... .. . ... : ... .. . ... : ... .. . ...
ROW 08 : ... .. . ... : ... .. . ... : ... .. . ... : ... .. . ... : D-3 00 . ...
ROW 09 : E-4 0F . ... : A-2 0B . ... : A-3 17 . ... : A-# 1B . ... : ... .. . ...
ROW 0A : ... .. . ... : ... .. . ... : ... .. . ... : ... .. . ... : ... .. . ...
ROW 0B : ... .. . ... : B-2 0B . ... : ... .. . ... : ... .. . ... : ... .. . ...
ROW 0C : ... .. . ... : ... .. . ... : ... .. . ... : ... .. . ... : ... .. . ...
ROW 0D : ... .. . ... : C-3 0B . ... : A-2 17 . ... : ... .. . ... : ... .. . ...
ROW 0E : ... .. . ... : ... .. . ... : ... .. . ... : ... .. . ... : ... .. . ...
ROW 0F : ... .. . ... : A-2 0B . ... : ... .. . ... : ... .. . ... : ... .. . ...
ROW 10 : ... .. . ... : ... .. . ... : ... .. . ... : ... .. . ... : C-3 00 . ...
ROW 11 : ... .. . ... : E-2 0B . ... : G-2 17 . ... : F-# 1B . ... : ... .. . ...
ROW 12 : ... .. . ... : ... .. . ... : ... .. . ... : ... .. . ... : ... .. . ...
ROW 13 : --- .. . ... : A-1 0B . ... : ... .. . ... : ... .. . ... : ... .. . ...
ROW 14 : ... .. . ... : ... .. . ... : ... .. . ... : ... .. . ... : C-3 00 . ...
ROW 15 : A-3 0F . ... : G-2 0B . ... : G-2 17 . ... : F-# 1B . ... : ... .. . ...
ROW 16 : ... .. . ... : ... .. . ... : ... .. . ... : ... .. . ... : ... .. . ...
ROW 17 : ... .. . ... : A-1 0B . ... : ... .. . ... : ... .. . ... : ... .. . ...
ROW 18 : ... .. . ... : ... .. . ... : ... .. . ... : ... .. . ... : D-3 00 . ...
ROW 19 : C-4 0F . ... : A-2 0B . ... : G-3 17 . ... : A-# 1B . ... : ... .. . ...
ROW 1A : ... .. . ... : ... .. . ... : ... .. . ... : ... .. . ... : ... .. . ...
ROW 1B : ... .. . ... : B-2 0B . ... : ... .. . ... : ... .. . ... : ... .. . ...
ROW 1C : ... .. . ... : ... .. . ... : ... .. . ... : ... .. . ... : ... .. . ...
ROW 1D : E-4 0F . ... : C-3 0B . ... : G-2 17 . ... : ... .. . ... : ... .. . ...
ROW 1E : ... .. . ... : ... .. . ... : ... .. . ... : ... .. . ... : ... .. . ...
ROW 1F : ... .. . ... : A-2 0B . ... : ... .. . ... : ... .. . ... : ... .. . ...
ROW 20 : ... .. . ... : ... .. . ... : ... .. . ... : ... .. . ... : C-3 00 . ...
ROW 21 : A-4 0F . ... : E-2 0B . ... : F-2 17 . ... : F-# 1B . ... : ... .. . ...
ROW 22 : ... .. . ... : ... .. . ... : ... .. . ... : ... .. . ... : ... .. . ...
ROW 23 : ... .. . ... : A-1 0B . ... : ... .. . ... : ... .. . ... : ... .. . ...
ROW 24 : ... .. . ... : ... .. . ... : ... .. . ... : ... .. . ... : ... .. . ...
ROW 25 : ... .. . ... : G-2 0B . ... : F-2 17 . ... : ... .. . ... : ... .. . ...
ROW 26 : ... .. . ... : ... .. . ... : ... .. . ... : ... .. . ... : ... .. . ...
ROW 27 : ... .. . ... : A-1 0B . ... : ... .. . ... : ... .. . ... : ... .. . ...
ROW 28 : ... .. . ... : ... .. . ... : ... .. . ... : ... .. . ... : D-3 00 . ...
ROW 29 : ... .. . ... : A-2 0B . ... : F-3 17 . ... : A-# 1B . ... : ... .. . ...
ROW 2A : ... .. . ... : ... .. . ... : ... .. . ... : ... .. . ... : ... .. . ...
ROW 2B : ... .. . ... : B-2 0B . ... : ... .. . ... : ... .. . ... : ... .. . ...
ROW 2C : ... .. . ... : ... .. . ... : ... .. . ... : ... .. . ... : ... .. . ...
ROW 2D : ... .. . ... : C-3 0B . ... : F-2 17 . ... : ... .. . ... : ... .. . ...
ROW 2E : ... .. . ... : ... .. . ... : ... .. . ... : ... .. . ... : ... .. . ...
ROW 2F : ... .. . ... : A-2 0B . ... : ... .. . ... : ... .. . ... : ... .. . ...
ROW 30 : ... .. . ... : ... .. . ... : ... .. . ... : ... .. . ... : C-3 00 . ...
ROW 31 : ... .. . ... : E-2 0B . ... : F-2 17 . ... : F-# 1B . ... : ... .. . ...
ROW 32 : ... .. . ... : ... .. . ... : ... .. . ... : ... .. . ... : ... .. . ...
ROW 33 : ... .. . ... : A-1 0B . ... : ... .. . ... : ... .. . ... : ... .. . ...
ROW 34 : ... .. . ... : ... .. . ... : ... .. . ... : ... .. . ... : C-3 00 . ...
ROW 35 : ... .. . ... : G-2 0B . ... : F-2 17 . ... : F-# 1B . ... : ... .. . ...
ROW 36 : ... .. . ... : ... .. . ... : ... .. . ... : ... .. . ... : ... .. . ...
ROW 37 : ... .. . ... : A-1 0B . ... : ... .. . ... : ... .. . ... : ... .. . ...
ROW 38 : ... .. . ... : ... .. . ... : ... .. . ... : ... .. . ... : D-3 00 . ...
ROW 39 : A-3 0F . ... : A-2 0B . ... : F-3 17 . ... : A-# 1B . ... : ... .. . ...
ROW 3A : ... .. . ... : ... .. . ... : ... .. . ... : ... .. . ... : ... .. . ...
ROW 3B : ... .. . ... : B-2 0B . ... : ... .. . ... : ... .. . ... : ... .. . ...
ROW 3C : ... .. . ... : ... .. . ... : ... .. . ... : ... .. . ... : ... .. . ...
ROW 3D : B-3 0F . ... : C-3 0B . ... : F-2 17 . ... : ... .. . ... : ... .. . ...
ROW 3E : ... .. . ... : ... .. . ... : ... .. . ... : ... .. . ... : ... .. . ...
ROW 3F : ... .. . ... : A-2 0B . ... : ... .. . ... : ... .. . ... : ... .. . ...
ROW 40 : ... .. . ... : ... .. . ... : ... .. . ... : ... .. . ... : C-3 00 . ...
ROW 41 : C-4 0F . ... : E-2 0B . ... : G-2 17 . ... : F-# 1B . ... : ... .. . ...
ROW 42 : ... .. . ... : ... .. . ... : ... .. . ... : ... .. . ... : ... .. . ...
ROW 43 : ... .. . ... : A-1 0B . ... : ... .. . ... : ... .. . ... : ... .. . ...
ROW 44 : ... .. . ... : ... .. . ... : ... .. . ... : ... .. . ... : ... .. . ...
ROW 45 : ... .. . ... : G-2 0B . ... : G-2 17 . ... : ... .. . ... : ... .. . ...
ROW 46 : ... .. . ... : ... .. . ... : ... .. . ... : ... .. . ... : ... .. . ...
ROW 47 : ... .. . ... : A-1 0B . ... : ... .. . ... : ... .. . ... : ... .. . ...
ROW 48 : ... .. . ... : ... .. . ... : ... .. . ... : ... .. . ... : D-3 00 . ...
ROW 49 : G-4 0F . ... : A-2 0B . ... : G-3 17 . ... : A-# 1B . ... : ... .. . ...
ROW 4A : ... .. . ... : ... .. . ... : ... .. . ... : ... .. . ... : ... .. . ...
ROW 4B : ... .. . ... : B-2 0B . ... : ... .. . ... : ... .. . ... : ... .. . ...
ROW 4C : ... .. . ... : ... .. . ... : ... .. . ... : ... .. . ... : ... .. . ...
ROW 4D : F-4 0F . ... : C-3 0B . ... : G-2 17 . ... : ... .. . ... : ... .. . ...
ROW 4E : ... .. . ... : ... .. . ... : ... .. . ... : ... .. . ... : ... .. . ...
ROW 4F : ... .. . ... : A-2 0B . ... : ... .. . ... : ... .. . ... : ... .. . ...
ROW 50 : ... .. . ... : ... .. . ... : ... .. . ... : ... .. . ... : C-3 00 . ...
ROW 51 : E-4 0F . ... : E-2 0B . ... : G-2 17 . ... : F-# 1B . ... : ... .. . ...
ROW 52 : ... .. . ... : ... .. . ... : ... .. . ... : ... .. . ... : ... .. . ...
ROW 53 : ... .. . ... : A-1 0B . ... : ... .. . ... : ... .. . ... : ... .. . ...
ROW 54 : ... .. . ... : ... .. . ... : ... .. . ... : ... .. . ... : C-3 00 . ...
ROW 55 : ... .. . ... : G-2 0B . ... : G-2 17 . ... : F-# 1B . ... : ... .. . ...
ROW 56 : ... .. . ... : ... .. . ... : ... .. . ... : ... .. . ... : ... .. . ...
ROW 57 : ... .. . ... : A-1 0B . ... : ... .. . ... : ... .. . ... : ... .. . ...
ROW 58 : ... .. . ... : ... .. . ... : ... .. . ... : ... .. . ... : D-3 00 . ...
ROW 59 : C-4 0F . ... : A-2 0B . ... : G-3 17 . ... : A-# 1B . ... : ... .. . ...
ROW 5A : ... .. . ... : ... .. . ... : ... .. . ... : ... .. . ... : ... .. . ...
ROW 5B : ... .. . ... : B-2 0B . ... : ... .. . ... : ... .. . ... : ... .. . ...
ROW 5C : ... .. . ... : ... .. . ... : ... .. . ... : ... .. . ... : ... .. . ...
ROW 5D : ... .. . ... : C-3 0B . ... : G-2 17 . ... : ... .. . ... : ... .. . ...
ROW 5E : ... .. . ... : ... .. . ... : ... .. . ... : ... .. . ... : ... .. . ...
ROW 5F : ... .. . ... : A-2 0B . ... : ... .. . ... : ... .. . ... : ... .. . ...
ROW 60 : ... .. . ... : ... .. . ... : ... .. . ... : ... .. . ... : C-3 00 . ...
ROW 61 : D-4 0F . ... : E-2 0B . ... : G-2 17 . ... : F-# 1B . ... : ... .. . ...
ROW 62 : ... .. . ... : ... .. . ... : ... .. . ... : ... .. . ... : ... .. . ...
ROW 63 : ... .. . ... : A-1 0B . ... : ... .. . ... : ... .. . ... : ... .. . ...
ROW 64 : ... .. . ... : ... .. . ... : ... .. . ... : ... .. . ... : ... .. . ...
ROW 65 : ... .. . ... : G-2 0B . ... : G-2 17 . ... : ... .. . ... : ... .. . ...
ROW 66 : ... .. . ... : ... .. . ... : ... .. . ... : ... .. . ... : ... .. . ...
ROW 67 : ... .. . ... : A-1 0B . ... : ... .. . ... : ... .. . ... : ... .. . ...
ROW 68 : ... .. . ... : ... .. . ... : ... .. . ... : ... .. . ... : D-3 00 . ...
ROW 69 : G-4 0F . ... : A-2 0B . ... : G-3 17 . ... : A-# 1B . ... : ... .. . ...
ROW 6A : ... .. . ... : ... .. . ... : ... .. . ... : ... .. . ... : ... .. . ...
ROW 6B : ... .. . ... : B-2 0B . ... : ... .. . ... : ... .. . ... : ... .. . ...
ROW 6C : ... .. . ... : ... .. . ... : ... .. . ... : ... .. . ... : ... .. . ...
ROW 6D : ... .. . ... : C-3 0B . ... : G-2 17 . ... : ... .. . ... : ... .. . ...
ROW 6E : ... .. . ... : ... .. . ... : ... .. . ... : ... .. . ... : ... .. . ...
ROW 6F : ... .. . ... : A-2 0B . ... : ... .. . ... : ... .. . ... : ... .. . ...
ROW 70 : ... .. . ... : ... .. . ... : ... .. . ... : ... .. . ... : E-3 00 . W0A
ROW 71 : B-4 0F . ... : E-2 0B . ... : G-3 17 . ... : D-# 1B . ... : ... .. . ...
ROW 72 : ... .. . ... : ... .. . ... : ... .. . ... : ... .. . ... : ... .. . ...
ROW 73 : ... .. . ... : A-1 0B . ... : ... .. . ... : ... .. . ... : ... .. . ...
ROW 74 : ... .. . ... : ... .. . ... : ... .. . ... : ... .. . ... : E-3 00 . W0A
ROW 75 : ... .. . ... : G-2 0B . ... : A-3 17 . ... : D-# 1B . ... : ... .. . ...
ROW 76 : ... .. . ... : ... .. . ... : ... .. . ... : ... .. . ... : ... .. . ...
ROW 77 : ... .. . ... : A-1 0B . ... : ... .. . ... : ... .. . ... : ... .. . ...
ROW 78 : ... .. . ... : ... .. . ... : ... .. . ... : ... .. . ... : E-3 00 . W09
ROW 79 : G-4 0F . ... : A-2 0B . ... : B-3 17 . ... : 5-# 1B . ... : ... .. . ...
ROW 7A : ... .. . ... : ... .. . ... : ... .. . ... : ... .. . ... : ... .. . ...
ROW 7B : ... .. . ... : B-2 0B . ... : ... .. . ... : ... .. . ... : ... .. . ...
ROW 7C : ... .. . ... : ... .. . ... : ... .. . ... : ... .. . ... : E-3 00 . W09
ROW 7D : ... .. . ... : C-3 0B . ... : G-3 17 . ... : 5-# 1B . ... : ... .. . ...
ROW 7E : ... .. . ... : ... .. . ... : ... .. . ... : ... .. . ... : ... .. . ...
ROW 7F : ... .. . ... : A-2 0B . ... : ... .. . ... : ... .. . ... : ... .. . ...

PATTERN 07
ROW 00 : ... .. . ... : ... .. . ... : ... .. . ... : ... .. . ... : C-3 00 . ...
ROW 01 : A-3 0F . ... : E-2 0B . ... : A-2 17 . ... : F-# 1B . ... : ... .. . ...
ROW 02 : ... .. . ... : ... .. . ... : ... .. . ... : ... .. . ... : ... .. . ...
ROW 03 : ... .. . ... : A-1 0B . ... : ... .. . ... : ... .. . ... : ... .. . ...
ROW 04 : ... .. . ... : ... .. . ... : ... .. . ... : ... .. . ... : ... .. . ...
ROW 05 : ... .. . ... : G-2 0B . ... : A-2 17 . ... : ... .. . ... : ... .. . ...
ROW 06 : ... .. . ... : ... .. . ... : ... .. . ... : ... .. . ... : ... .. . ...
ROW 07 : ... .. . ... : A-1 0B . ... : ... .. . ... : ... .. . ... : ... .. . ...
ROW 08 : ... .. . ... : ... .. . ... : ... .. . ... : ... .. . ... : D-3 00 . ...
ROW 09 : E-4 0F . ... : A-2 0B . ... : A-3 17 . ... : A-# 1B . ... : ... .. . ...
ROW 0A : ... .. . ... : ... .. . ... : ... .. . ... : ... .. . ... : ... .. . ...
ROW 0B : ... .. . ... : B-2 0B . ... : ... .. . ... : ... .. . ... : ... .. . ...
ROW 0C : ... .. . ... : ... .. . ... : ... .. . ... : ... .. . ... : ... .. . ...
ROW 0D : ... .. . ... : C-3 0B . ... : A-2 17 . ... : ... .. . ... : ... .. . ...
ROW 0E : ... .. . ... : ... .. . ... : ... .. . ... : ... .. . ... : ... .. . ...
ROW 0F : ... .. . ... : A-2 0B . ... : ... .. . ... : ... .. . ... : ... .. . ...
ROW 10 : ... .. . ... : ... .. . ... : ... .. . ... : ... .. . ... : C-3 00 . ...
ROW 11 : ... .. . ... : E-2 0B . ... : G-2 17 . ... : F-# 1B . ... : ... .. . ...
ROW 12 : ... .. . ... : ... .. . ... : ... .. . ... : ... .. . ... : ... .. . ...
ROW 13 : --- .. . ... : A-1 0B . ... : ... .. . ... : ... .. . ... : ... .. . ...
ROW 14 : ... .. . ... : ... .. . ... : ... .. . ... : ... .. . ... : C-3 00 . ...
ROW 15 : A-3 0F . ... : G-2 0B . ... : G-2 17 . ... : F-# 1B . ... : ... .. . ...
ROW 16 : ... .. . ... : ... .. . ... : ... .. . ... : ... .. . ... : ... .. . ...
ROW 17 : ... .. . ... : A-1 0B . ... : ... .. . ... : ... .. . ... : ... .. . ...
ROW 18 : ... .. . ... : ... .. . ... : ... .. . ... : ... .. . ... : D-3 00 . ...
ROW 19 : C-4 0F . ... : A-2 0B . ... : G-3 17 . ... : A-# 1B . ... : ... .. . ...
ROW 1A : ... .. . ... : ... .. . ... : ... .. . ... : ... .. . ... : ... .. . ...
ROW 1B : ... .. . ... : B-2 0B . ... : ... .. . ... : ... .. . ... : ... .. . ...
ROW 1C : ... .. . ... : ... .. . ... : ... .. . ... : ... .. . ... : ... .. . ...
ROW 1D : E-4 0F . ... : C-3 0B . ... : G-2 17 . ... : ... .. . ... : ... .. . ...
ROW 1E : ... .. . ... : ... .. . ... : ... .. . ... : ... .. . ... : ... .. . ...
ROW 1F : ... .. . ... : A-2 0B . ... : ... .. . ... : ... .. . ... : ... .. . ...
ROW 20 : ... .. . ... : ... .. . ... : ... .. . ... : ... .. . ... : C-3 00 . ...
ROW 21 : A-4 0F . ... : E-2 0B . ... : F-2 17 . ... : F-# 1B . ... : ... .. . ...
ROW 22 : ... .. . ... : ... .. . ... : ... .. . ... : ... .. . ... : ... .. . ...
ROW 23 : ... .. . ... : A-1 0B . ... : ... .. . ... : ... .. . ... : ... .. . ...
ROW 24 : ... .. . ... : ... .. . ... : ... .. . ... : ... .. . ... : ... .. . ...
ROW 25 : ... .. . ... : G-2 0B . ... : F-2 17 . ... : ... .. . ... : ... .. . ...
ROW 26 : ... .. . ... : ... .. . ... : ... .. . ... : ... .. . ... : ... .. . ...
ROW 27 : ... .. . ... : A-1 0B . ... : ... .. . ... : ... .. . ... : ... .. . ...
ROW 28 : ... .. . ... : ... .. . ... : ... .. . ... : ... .. . ... : D-3 00 . ...
ROW 29 : ... .. . ... : A-2 0B . ... : F-3 17 . ... : A-# 1B . ... : ... .. . ...
ROW 2A : ... .. . ... : ... .. . ... : ... .. . ... : ... .. . ... : ... .. . ...
ROW 2B : ... .. . ... : B-2 0B . ... : ... .. . ... : ... .. . ... : ... .. . ...
ROW 2C : ... .. . ... : ... .. . ... : ... .. . ... : ... .. . ... : ... .. . ...
ROW 2D : ... .. . ... : C-3 0B . ... : F-2 17 . ... : ... .. . ... : ... .. . ...
ROW 2E : ... .. . ... : ... .. . ... : ... .. . ... : ... .. . ... : ... .. . ...
ROW 2F : ... .. . ... : A-2 0B . ... : ... .. . ... : ... .. . ... : ... .. . ...
ROW 30 : ... .. . ... : ... .. . ... : ... .. . ... : ... .. . ... : C-3 00 . ...
ROW 31 : ... .. . ... : E-2 0B . ... : F-2 17 . ... : F-# 1B . ... : ... .. . ...
ROW 32 : ... .. . ... : ... .. . ... : ... .. . ... : ... .. . ... : ... .. . ...
ROW 33 : ... .. . ... : A-1 0B . ... : ... .. . ... : ... .. . ... : ... .. . ...
ROW 34 : ... .. . ... : ... .. . ... : ... .. . ... : ... .. . ... : C-3 00 . ...
ROW 35 : ... .. . ... : G-2 0B . ... : F-2 17 . ... : F-# 1B . ... : ... .. . ...
ROW 36 : ... .. . ... : ... .. . ... : ... .. . ... : ... .. . ... : ... .. . ...
ROW 37 : ... .. . ... : A-1 0B . ... : ... .. . ... : ... .. . ... : ... .. . ...
ROW 38 : ... .. . ... : ... .. . ... : ... .. . ... : ... .. . ... : D-3 00 . ...
ROW 39 : A-3 0F . ... : A-2 0B . ... : F-3 17 . ... : A-# 1B . ... : ... .. . ...
ROW 3A : ... .. . ... : ... .. . ... : ... .. . ... : ... .. . ... : ... .. . ...
ROW 3B : ... .. . ... : B-2 0B . ... : ... .. . ... : ... .. . ... : ... .. . ...
ROW 3C : ... .. . ... : ... .. . ... : ... .. . ... : ... .. . ... : ... .. . ...
ROW 3D : B-3 0F . ... : C-3 0B . ... : F-2 17 . ... : ... .. . ... : ... .. . ...
ROW 3E : ... .. . ... : ... .. . ... : ... .. . ... : ... .. . ... : ... .. . ...
ROW 3F : ... .. . ... : A-2 0B . ... : ... .. . ... : ... .. . ... : ... .. . ...
ROW 40 : ... .. . ... : ... .. . ... : ... .. . ... : ... .. . ... : C-3 00 . ...
ROW 41 : C-4 0F . ... : A-1 0B . ... : G-2 17 . ... : F-# 1B . ... : ... .. . ...
ROW 42 : ... .. . ... : ... .. . ... : ... .. . ... : ... .. . ... : ... .. . ...
ROW 43 : ... .. . ... : E-1 0B . ... : ... .. . ... : ... .. . ... : ... .. . ...
ROW 44 : ... .. . ... : ... .. . ... : ... .. . ... : ... .. . ... : ... .. . ...
ROW 45 : ... .. . ... : A-1 0B . ... : G-2 17 . ... : ... .. . ... : ... .. . ...
ROW 46 : ... .. . ... : ... .. . ... : ... .. . ... : ... .. . ... : ... .. . ...
ROW 47 : ... .. . ... : B-1 0B . ... : ... .. . ... : ... .. . ... : ... .. . ...
ROW 48 : ... .. . ... : ... .. . ... : ... .. . ... : ... .. . ... : D-3 00 . ...
ROW 49 : D-4 0F . ... : D-2 0B . ... : G-3 17 . ... : A-# 1B . ... : ... .. . ...
ROW 4A : ... .. . ... : ... .. . ... : ... .. . ... : ... .. . ... : ... .. . ...
ROW 4B : ... .. . ... : B-1 0B . ... : ... .. . ... : ... .. . ... : ... .. . ...
ROW 4C : ... .. . ... : ... .. . ... : ... .. . ... : ... .. . ... : ... .. . ...
ROW 4D : C-4 0F . ... : D-2 0B . ... : G-2 17 . ... : ... .. . ... : ... .. . ...
ROW 4E : ... .. . ... : ... .. . ... : ... .. . ... : ... .. . ... : ... .. . ...
ROW 4F : ... .. . ... : E-2 0B . ... : ... .. . ... : ... .. . ... : ... .. . ...
ROW 50 : ... .. . ... : ... .. . ... : ... .. . ... : ... .. . ... : C-3 00 . ...
ROW 51 : B-3 0F . ... : G-2 0B . ... : G-2 17 . ... : F-# 1B . ... : ... .. . ...
ROW 52 : ... .. . ... : ... .. . ... : ... .. . ... : ... .. . ... : ... .. . ...
ROW 53 : ... .. . ... : E-2 0B . ... : ... .. . ... : ... .. . ... : ... .. . ...
ROW 54 : ... .. . ... : ... .. . ... : ... .. . ... : ... .. . ... : C-3 00 . ...
ROW 55 : A-3 0F . ... : G-2 0B . ... : G-2 17 . ... : F-# 1B . ... : ... .. . ...
ROW 56 : ... .. . ... : ... .. . ... : ... .. . ... : ... .. . ... : ... .. . ...
ROW 57 : ... .. . ... : A-2 0B . ... : ... .. . ... : ... .. . ... : ... .. . ...
ROW 58 : ... .. . ... : ... .. . ... : ... .. . ... : ... .. . ... : D-3 00 . ...
ROW 59 : G-3 0F . ... : B-2 0B . ... : G-3 17 . ... : A-# 1B . ... : ... .. . ...
ROW 5A : ... .. . ... : ... .. . ... : ... .. . ... : ... .. . ... : ... .. . ...
ROW 5B : ... .. . ... : A-2 0B . ... : ... .. . ... : ... .. . ... : ... .. . ...
ROW 5C : ... .. . ... : ... .. . ... : ... .. . ... : ... .. . ... : ... .. . ...
ROW 5D : ... .. . ... : B-2 0B . ... : G-2 17 . ... : ... .. . ... : ... .. . ...
ROW 5E : ... .. . ... : ... .. . ... : ... .. . ... : ... .. . ... : ... .. . ...
ROW 5F : ... .. . ... : D-3 0B . ... : ... .. . ... : ... .. . ... : ... .. . ...
ROW 60 : ... .. . ... : ... .. . ... : ... .. . ... : ... .. . ... : C-3 00 . ...
ROW 61 : A-3 0F . ... : D-3 0B . ... : --- .. . ... : F-# 1B . ... : ... .. . ...
ROW 62 : ... .. . ... : ... .. . ... : ... .. . ... : ... .. . ... : ... .. . ...
ROW 63 : ... .. . ... : ... .. . ... : A-2 18 . G03 : ... .. . ... : ... .. . ...
ROW 64 : ... .. . ... : ... .. . ... : ... .. . ... : ... .. . ... : ... .. . ...
ROW 65 : ... .. . ... : ... .. . ... : --- .. . ... : ... .. . ... : ... .. . ...
ROW 66 : ... .. . ... : ... .. . ... : ... .. . ... : ... .. . ... : ... .. . ...
ROW 67 : ... .. . ... : ... .. . ... : D-3 18 . G03 : ... .. . ... : ... .. . ...
ROW 68 : ... .. . ... : ... .. . ... : ... .. . ... : ... .. . ... : D-3 00 . ...
ROW 69 : ... .. . ... : C#3 0B . ... : --- .. . ... : A-# 1B . ... : ... .. . ...
ROW 6A : ... .. . ... : ... .. . ... : ... .. . ... : ... .. . ... : ... .. . ...
ROW 6B : ... .. . ... : ... .. . ... : E-3 18 . G03 : ... .. . ... : ... .. . ...
ROW 6C : ... .. . ... : ... .. . ... : ... .. . ... : ... .. . ... : ... .. . ...
ROW 6D : ... .. . ... : B-2 0B . ... : --- .. . ... : ... .. . ... : ... .. . ...
ROW 6E : ... .. . ... : ... .. . ... : ... .. . ... : ... .. . ... : ... .. . ...
ROW 6F : ... .. . ... : ... .. . ... : E-2 18 . G03 : ... .. . ... : ... .. . ...
ROW 70 : ... .. . ... : ... .. . ... : ... .. . ... : ... .. . ... : E-3 00 . W0A
ROW 71 : ... .. . ... : C#3 0B . ... : --- .. . ... : D-# 1B . ... : ... .. . ...
ROW 72 : ... .. . ... : ... .. . ... : ... .. . ... : ... .. . ... : ... .. . ...
ROW 73 : ... .. . ... : ... .. . ... : A-2 18 . G03 : ... .. . ... : ... .. . ...
ROW 74 : ... .. . ... : ... .. . ... : ... .. . ... : ... .. . ... : E-3 00 . W0A
ROW 75 : ... .. . ... : ... .. . ... : --- .. . G05 : D-# 1B . ... : ... .. . ...
ROW 76 : ... .. . ... : ... .. . ... : ... .. . ... : ... .. . ... : ... .. . ...
ROW 77 : ... .. . ... : ... .. . ... : A-2 18 . G03 : ... .. . ... : ... .. . ...
ROW 78 : ... .. . ... : ... .. . ... : ... .. . ... : ... .. . ... : E-3 00 . W09
ROW 79 : ... .. . ... : ... .. . ... : --- .. . G05 : 5-# 1B . ... : ... .. . ...
ROW 7A : ... .. . ... : ... .. . ... : ... .. . ... : ... .. . ... : ... .. . ...
ROW 7B : ... .. . ... : ... .. . ... : A-2 18 . G03 : ... .. . ... : ... .. . ...
ROW 7C : ... .. . ... : ... .. . ... : ... .. . ... : ... .. . ... : E-3 00 . W09
ROW 7D : --- .. . ... : --- .. . ... : --- .. . ... : 5-# 1B . ... : ... .. . ...
ROW 7E : ... .. . ... : ... .. . ... : ... .. . ... : ... .. . ... : ... .. . ...
ROW 7F : ... .. . ... : ... .. . ... : ... .. . ... : ... .. . ... : ... .. . ...

TRACK  32  16 150 "Continue"
COLUMNS : 1 1 1 1 1

ORDER 00 : 00 00 00 00 00

PATTERN 00
ROW 00 : A#4 12 . ... : A#3 12 . ... : D-2 15 . ... : ... .. . ... : ... .. . ...
ROW 01 : A-4 12 . ... : ... .. . ... : ... .. . ... : ... .. . ... : ... .. . ...
ROW 02 : G-4 12 . ... : D-4 12 . ... : ... .. . ... : ... .. . ... : ... .. . ...
ROW 03 : A#4 12 . ... : ... .. . ... : ... .. . ... : ... .. . ... : ... .. . ...
ROW 04 : A-4 12 . ... : A-3 12 . ... : C-3 15 . ... : ... .. . ... : ... .. . ...
ROW 05 : G-4 12 . ... : ... .. . ... : ... .. . ... : ... .. . ... : ... .. . ...
ROW 06 : F#4 12 . ... : C-4 12 . ... : ... .. . ... : ... .. . ... : ... .. . ...
ROW 07 : G-4 12 . ... : ... .. . ... : ... .. . ... : ... .. . ... : ... .. . ...
ROW 08 : G-4 12 . ... : G-4 12 . ... : A-2 15 . ... : ... .. . ... : ... .. . ...
ROW 09 : D-4 12 . ... : ... .. . ... : ... .. . ... : ... .. . ... : ... .. . ...
ROW 0A : D#4 12 . ... : A#3 12 . ... : ... .. . ... : ... .. . ... : ... .. . ...
ROW 0B : C-4 12 . ... : ... .. . ... : ... .. . ... : ... .. . ... : ... .. . ...
ROW 0C : D-4 12 . ... : A-3 12 . ... : C-3 15 . ... : ... .. . ... : ... .. . ...
ROW 0D : A#3 12 . ... : ... .. . ... : ... .. . ... : ... .. . ... : ... .. . ...
ROW 0E : C-4 12 . ... : F#3 12 . ... : ... .. . ... : ... .. . ... : ... .. . ...
ROW 0F : A-3 12 . ... : ... .. . ... : ... .. . ... : ... .. . ... : ... .. . ...
ROW 10 : A#3 12 . ... : G-3 12 . ... : A#2 15 . ... : ... .. . ... : ... .. . ...
ROW 11 : A-3 12 . ... : ... .. . ... : ... .. . ... : ... .. . ... : ... .. . ...
ROW 12 : G-3 12 . ... : ... .. . ... : ... .. . ... : ... .. . ... : ... .. . ...
ROW 13 : A#3 12 . ... : ... .. . ... : ... .. . ... : ... .. . ... : ... .. . ...
ROW 14 : A-3 12 . ... : ... .. . ... : C-3 15 . ... : ... .. . ... : ... .. . ...
ROW 15 : G-3 12 . ... : ... .. . ... : ... .. . ... : ... .. . ... : ... .. . ...
ROW 16 : F#3 12 . ... : ... .. . ... : ... .. . ... : ... .. . ... : ... .. . ...
ROW 17 : G-3 12 . ... : ... .. . ... : ... .. . ... : ... .. . ... : ... .. . ...
ROW 18 : G-3 12 . ... : ... .. . ... : D-3 15 . ... : ... .. . ... : ... .. . ...
ROW 19 : D-3 12 . ... : ... .. . ... : ... .. . ... : ... .. . ... : ... .. . ...
ROW 1A : D#3 12 . ... : ... .. . ... : ... .. . ... : ... .. . ... : ... .. . ...
ROW 1B : C-3 12 . ... : ... .. . ... : ... .. . ... : ... .. . ... : ... .. . ...
ROW 1C : D-3 12 . ... : F#3 12 . ... : A-2 15 . ... : ... .. . ... : ... .. . ...
ROW 1D : A#2 12 . ... : ... .. . ... : ... .. . ... : ... .. . ... : ... .. . ...
ROW 1E : C-3 12 . ... : ... .. . ... : ... .. . ... : ... .. . ... : ... .. . ...
ROW 1F : A-2 12 . ... : ... .. . ... : ... .. . ... : ... .. . ... : ... .. . ...

# End of export
