# j0CC-FamiTracker text export 0.6.3.0

# Song information
TITLE           "Mega Man X8 - Troia Base"
AUTHOR          "Naoto Tanaka(?)"
COPYRIGHT       "cv. MiniMacro Sound 2024"

# Song comment
COMMENT ""

# Global settings
MACHINE         0
FRAMERATE       0
EXPANSION       0
VIBRATO         1
SPLIT           32

# Macros
MACRO       0   0  -1  -1   0 : 15 14 13
MACRO       0   1  -1  -1   0 : 12
MACRO       0   2  -1  -1   0 : 11 7 4 3 1 0
MACRO       0   3  -1  -1   0 : 14 3 1 0
MACRO       0   4  -1  -1   0 : 15 8 6 5 5 5 4 4 4 4 4 3 3 3 2 2 1 0
MACRO       0   5  -1  -1   0 : 15 15 15 15 15 15 15 15 15 15 15 15 15 15 15 15 0
MACRO       0   6  -1  -1   0 : 15 10 5 1 5 10 8 5 1 0
MACRO       0   7  -1  -1   0 : 15 11 10 10 10 11 12 3 3 5
MACRO       0   8  -1  -1   0 : 15 7 9 5 3 2 1 1 0
MACRO       0   9  -1  -1   0 : 15 15 15 15 15 0
MACRO       0  10  -1  -1   0 : 15 12 10 9 9 8 8 8 7 7 7 7 6 6 6 6 6 5 5 5 5 5 5 4 4 4 4 4 3 3 3 3 2 2 2 1
MACRO       0  11  -1  -1   0 : 4 9 12
MACRO       0  12   0  -1   0 : 15 3
MACRO       0  13  -1  -1   0 : 15 14 14 13 13 12 11 11 10 10 9 9 8 8 7 6 6 5 5 4 4 3 3 2 1 1 1
MACRO       0  14   0  -1   0 : 15 12 3
MACRO       0  15   0  -1   0 : 15 12 11 11 11 11 15 12 11 11 11 11 15 12 11 11 11
MACRO       0  16  -1  -1   0 : 15 14
MACRO       0  17  -1  -1   0 : 15 7 4 2 6 3 1 0 1 0
MACRO       0  18  -1  -1   0 : 15 9 11 7 8 5 2 0
MACRO       0  19  -1  -1   0 : 15 7 9 5 3 3 3 2 2 2 2 1 1 1 1 1 0
MACRO       0  20  -1  -1   0 : 8 5 2 3 5 4 3 1 0
MACRO       0  21  -1   1   0 : 15 11 10 9 8 7 6 6 5 5 4 4 3 3 2 2 1 0
MACRO       0  22  -1  -1   0 : 15 13 12 14 4 5
MACRO       0  23  -1  -1   0 : 11 11 11 1 1 0
MACRO       0  24  -1  -1   0 : 13 9 8 7 5 4 3 2 0
MACRO       0  25  -1  -1   0 : 15 15 14 14 14 13 13 12 12 12 12 11 11 11 11 11 10 10 10 10 10 9 9 9 8 8 8 7 7 7 7 6 6 6 6 6 6 5 5 5 5 4 4 4 4 4 3 3 3 3 3 3 2 2 2 2 2 1 1 1 1 1 1 0
MACRO       0  26  -1  -1   0 : 15 8 7 6 6 5 5 5 4 4 4 3 3 3 2 1 0
MACRO       0  27  -1  -1   0 : 15 15 15 15 15 15 15 15 15 15 15 15 0
MACRO       0  28  -1  -1   0 : 15 13 12 11 11 10 10 10 9 9 9 9 8 8 8 8 8 7 7 7 7 6 6 6 5 5 4 3 1 0
MACRO       0  29  -1  -1   0 : 15 13 12 11 11 10 10 10 9 9 9 9 8 8 8 8 8 7 7 7 7 6 6 6 5 5 4 3 1 0
MACRO       0  30   4  -1   0 : 15 12 8 4 2 4 7 12 7 4 2
MACRO       0  31  -1  -1   0 : 10 3 0 0 0 2 1 0
MACRO       0  32  -1  -1   0 : 12 10 7 5 4 4 4 4 3 3 3 3 2
MACRO       0  33  -1  -1   0 : 15 11 14 9 8 7 7 6 6 6 6 5 5 5 5 5 4 4 4 4 4 3 3 3 3 3 3 3 2 2 2 2 2 2 2 2 2 2 2 1 1 1 1 1 1 1 1 1 1 1 1 1 1 1 1 1 0
MACRO       0  34  -1  -1   0 : 15 14 13 12 14 4 6
MACRO       0  35  -1  -1   0 : 15 14 4 8 6
MACRO       0  36  -1  -1   0 : 0 0 0 0 0 0 0 0 0 0 0 0 0 0 0 0 0 0 0 0 0 0 0 0 0 0 0 0 0 0 0 0 0 0 0 0 0 0 0 0
MACRO       0  37  -1  -1   0 : 10 7 9 6 4 3 2 1 1 0
MACRO       0  38  -1  -1   0 : 15 13 12 11 11 10 10 10 9 9 9 9 8 8 8 8 8 7 7 7 7 6 6 6 5 5 4 3 1 0
MACRO       0  39  -1  -1   0 : 15 10 12 9 8 8 7 7 7 6 6 6 6 5 5 5 5 5 4 4 4 4 4 4 3 3 3 3 3 2 2 2 2 1 1 1 0
MACRO       0  40  -1  -1   0 : 15 8 6 15 8 6 15 8 6 15 8 6 15 8 6 5 5 5 4 4 15 8 6 5 5 5 15 8 6 5 5 5 15 8 6 5 5 5 4 4 4 4 4 3 3 3 2 2 1 0
MACRO       0  41  -1   3   0 : 15 14 13 12 10 9 8 7 7 6 5 5 4 4 3 3 2 2 1 0
MACRO       0  42  -1  -1   0 : 4 5 6 7 8 9 10 11 12
MACRO       0  43  -1  -1   0 : 15 12 11 10 9 8 7 6 5 4 3 2 1 0
MACRO       1   0  -1  -1   0 : 1 1 1 1 1 0
MACRO       1   1  -1  -1   0 : 1 0 -1 -1 0 0 1 0 1
MACRO       1   2  -1  -1   0 : 0 1 2 3 4 5 6
MACRO       1   3   0  -1   0 : 0 0 0 0 0 0 -1 -1 -1 -1 -1 -1 -3 -3 -3 -3 -3
MACRO       1   4   0  -1   0 : 0 0 0 0 0 0 -2 -2 -2 -2 -2 -2 -3 -3 -3 -3 -3
MACRO       1   5   0  -1   0 : 0 -1 -1 -1 -1
MACRO       1   6  -1  -1   0 : 0 -3 8 6 3 0 -3
MACRO       1   7   0  -1   0 : 0 0 12 12
MACRO       1   8  -1  -1   0 : -2 1 0
MACRO       1   9  -1  -1   0 : 0 -4 10 6
MACRO       1  10  -1  -1   0 : 12 0
MACRO       1  11  -1  -1   0 : 1
MACRO       1  12  -1  -1   0 : 1 1 1 1 1 1 1 1 1 1 1 1 1 1 1 1 1 0 0 0 1 1 1 1 1 0 1 1 1 1 1 0 1 1 1 1 1 0
MACRO       2   0   0  -1   0 : -3 -2 1 2 3 3 2 -1 -2 -3
MACRO       2   1   0  -1   0 : 18
MACRO       2   2   0  -1   0 : 1 1 -1 -1 -2 -1 -1 1 1 2
MACRO       2   3   0  -1   0 : 0 1 0 0 -1 0 -1 0 0 1
MACRO       2   4   3  -1   0 : 0 1 1 -1 -1 0
MACRO       2   5   0  -1   0 : -5 -3 2 4 4 4 2 -3 -5
MACRO       2   6   3  -1   0 : 0 0 0 -1
MACRO       2   7   0  -1   0 : 38
MACRO       2   8   0  -1   0 : 0 0 -1
MACRO       2   9   0  -1   0 : 0 0 1
MACRO       2  10  22  -1   0 : 0 0 0 0 0 0 0 0 0 0 0 0 0 0 0 0 0 0 0 0 0 0 -3 -2 1 2 3 3 2 -1 -2 -3
MACRO       2  11   2  -1   0 : -2 -2 -2 -2 -2 2 2 2 2 2 2 -2 -2 -2
MACRO       2  12   0  -1   0 : 24
MACRO       3   0   0  -1   0 : 12
MACRO       3   1   0  -1   0 : 6
MACRO       4   0  -1  -1   0 : 2
MACRO       4   1  -1  -1   0 : 1
MACRO       4   2  -1  -1   0 : 0 1 0
MACRO       4   3  -1  -1   0 : 0 1 0
MACRO       4   4  -1  -1   0 : 0 0 0 1
MACRO       4   5  -1  -1   0 : 2 1
MACRO       4   6  -1  -1   0 : 2 1 1 0

# DPCM samples

# Detune settings

# Grooves
GROOVE   0   2 : 4 3

# Tracks using default groove
USEGROOVE : 1

# Instruments
INST2A03   0    -1  -1  -1  -1  -1 "Blank"
INST2A03   1    41  -1  -1  -1  -1 "Lead 1"
INST2A03   2    11  -1  -1  -1  -1 "Fade-In 1"
INST2A03   3    42  -1  -1  -1  -1 "Fade-In 2"
INST2A03   4     6  -1  -1  -1  -1 "Pulsate 1"
INST2A03   5    20  -1   4  -1  -1 "Pulsate 2"
INST2A03   6    17  -1  -1  -1  -1 "Pulsate 3"
INST2A03   7    12  -1  -1  -1  -1 "Retrig 1"
INST2A03   8    14  -1  -1  -1  -1 "Retrig 2"
INST2A03   9    30  -1  -1  -1  -1 "Retrig 3"
INST2A03  10     2  -1  -1  -1  -1 "Kick 1"
INST2A03  11     4   0  -1  -1  -1 "Snare 1"
INST2A03  12     8   2  -1  -1  -1 "Snare 2"
INST2A03  13    24   0  -1  -1  -1 "Snare 3"
INST2A03  14    18   6  -1  -1   2 "Snare 4"
INST2A03  15    32  -1  -1  -1  -1 "Snare 5"
INST2A03  16    19   0  -1  -1  -1 "Snare 6"
INST2A03  17    43  -1  -1  -1  -1 "Snare 7"
INST2A03  18     3   5  -1  -1  -1 "Hihat 1"
INST2A03  19    26  -1  -1  -1   0 "Hihat 2"
INST2A03  20    37  -1  -1  -1  -1 "Hihat 3"
INST2A03  21    -1  -1   1  -1  -1 "Tom 1"
INST2A03  22     9  -1  -1   0  -1 "Tom 2"
INST2A03  23    -1  -1  12  -1  -1 "Tom 3"
INST2A03  24    -1  -1   7  -1  -1 "Tom 4"
INST2A03  25    39  -1  -1  -1  -1 "Crash"
INST2A03  26    23  -1  -1  -1   1 "P-Noise"
INST2A03  27     0   7  -1  -1  -1 "Arp"
INST2A03  28    -1  -1  11  -1  -1 "Vibrato A-3"

# Tracks

TRACK  64   0 150 "Forwarding"
COLUMNS : 3 4 2 1 1

ORDER 00 : 00 00 00 00 00
ORDER 01 : 01 01 01 01 01
ORDER 02 : 02 02 02 02 02
ORDER 03 : 03 03 03 03 03
ORDER 04 : 04 04 04 04 04
ORDER 05 : 05 05 05 05 05
ORDER 06 : 06 06 06 06 06
ORDER 07 : 07 07 07 07 07
ORDER 08 : 08 08 08 08 08
ORDER 09 : 09 09 09 09 09
ORDER 0A : 0A 0A 0A 0A 0A
ORDER 0B : 0B 0B 0B 0B 0B
ORDER 0C : 0C 0C 0C 0C 0C
ORDER 0D : 0D 0D 0D 0D 0D
ORDER 0E : 0E 0E 0E 0E 0E
ORDER 0F : 0F 0F 0F 0F 0F
ORDER 10 : 10 10 10 10 10
ORDER 11 : 11 11 11 11 11
ORDER 12 : 12 12 12 12 12
ORDER 13 : 13 13 13 13 13
ORDER 14 : 14 14 14 14 14
ORDER 15 : 15 15 15 15 15
ORDER 16 : 16 16 16 16 16

PATTERN 00
ROW 00 : C-3 01 A V00 400 I07 : C-2 01 A V01 P82 400 I07 : C-3 01 . R4F ... : F-# 00 1 A20 : ... .. . ...
ROW 01 : ... .. . ... ... ... : ... .. . ... ... ... ... : ... .. . ... ... : ... .. . ... : ... .. . ...
ROW 02 : ... .. . ... ... ... : ... .. . ... ... ... ... : ... .. . R4F ... : ... .. . ... : ... .. . ...
ROW 03 : ... .. . ... ... ... : ... .. . ... ... ... ... : ... .. . ... ... : ... .. . ... : ... .. . ...
ROW 04 : ... .. . ... ... ... : ... .. . ... ... ... ... : ... .. . R4F ... : ... .. . ... : ... .. . ...
ROW 05 : ... .. . ... ... ... : ... .. . ... ... ... ... : ... .. . ... ... : ... .. . ... : ... .. . ...
ROW 06 : ... .. . ... ... ... : ... .. . ... ... ... ... : ... .. . R4F ... : ... .. . ... : ... .. . ...
ROW 07 : ... .. . ... ... ... : ... .. . ... ... ... ... : ... .. . ... ... : ... .. . ... : ... .. . ...
ROW 08 : ... .. . ... ... ... : ... .. . ... ... ... ... : ... .. . R4F ... : ... .. . ... : ... .. . ...
ROW 09 : ... .. . ... ... ... : ... .. . ... ... ... ... : ... .. . ... ... : ... .. . ... : ... .. . ...
ROW 0A : ... .. . ... ... ... : ... .. . ... ... ... ... : ... .. . R4F ... : ... .. . ... : ... .. . ...
ROW 0B : ... .. . ... ... ... : ... .. . ... ... ... ... : ... .. . ... ... : ... .. . ... : ... .. . ...
ROW 0C : ... .. . ... ... ... : ... .. . ... ... ... ... : ... .. . R4F ... : ... .. . ... : ... .. . ...
ROW 0D : ... .. . ... ... ... : ... .. . ... ... ... ... : ... .. . ... ... : ... .. . ... : ... .. . ...
ROW 0E : ... .. . ... ... ... : ... .. . ... ... ... ... : ... .. . R4F S06 : ... .. . ... : ... .. . ...
ROW 0F : ... .. . ... ... ... : ... .. . ... ... ... ... : ... .. . ... ... : ... .. . ... : ... .. . D00
ROW 10 : ... .. . ... ... ... : ... .. . ... ... ... ... : ... .. . ... ... : ... .. . ... : ... .. . ...
ROW 11 : ... .. . ... ... ... : ... .. . ... ... ... ... : ... .. . ... ... : ... .. . ... : ... .. . ...
ROW 12 : ... .. . ... ... ... : ... .. . ... ... ... ... : ... .. . ... ... : ... .. . ... : ... .. . ...
ROW 13 : ... .. . ... ... ... : ... .. . ... ... ... ... : ... .. . ... ... : ... .. . ... : ... .. . ...
ROW 14 : ... .. . ... ... ... : ... .. . ... ... ... ... : ... .. . ... ... : ... .. . ... : ... .. . ...
ROW 15 : ... .. . ... ... ... : ... .. . ... ... ... ... : ... .. . ... ... : ... .. . ... : ... .. . ...
ROW 16 : ... .. . ... ... ... : ... .. . ... ... ... ... : ... .. . ... ... : ... .. . ... : ... .. . ...
ROW 17 : ... .. . ... ... ... : ... .. . ... ... ... ... : ... .. . ... ... : ... .. . ... : ... .. . ...
ROW 18 : ... .. . ... ... ... : ... .. . ... ... ... ... : ... .. . ... ... : ... .. . ... : ... .. . ...
ROW 19 : ... .. . ... ... ... : ... .. . ... ... ... ... : ... .. . ... ... : ... .. . ... : ... .. . ...
ROW 1A : ... .. . ... ... ... : ... .. . ... ... ... ... : ... .. . ... ... : ... .. . ... : ... .. . ...
ROW 1B : ... .. . ... ... ... : ... .. . ... ... ... ... : ... .. . ... ... : ... .. . ... : ... .. . ...
ROW 1C : ... .. . ... ... ... : ... .. . ... ... ... ... : ... .. . ... ... : ... .. . ... : ... .. . ...
ROW 1D : ... .. . ... ... ... : ... .. . ... ... ... ... : ... .. . ... ... : ... .. . ... : ... .. . ...
ROW 1E : ... .. . ... ... ... : ... .. . ... ... ... ... : ... .. . ... ... : ... .. . ... : ... .. . ...
ROW 1F : ... .. . ... ... ... : ... .. . ... ... ... ... : ... .. . ... ... : ... .. . ... : ... .. . ...
ROW 20 : ... .. . ... ... ... : ... .. . ... ... ... ... : ... .. . ... ... : ... .. . ... : ... .. . ...
ROW 21 : ... .. . ... ... ... : ... .. . ... ... ... ... : ... .. . ... ... : ... .. . ... : ... .. . ...
ROW 22 : ... .. . ... ... ... : ... .. . ... ... ... ... : ... .. . ... ... : ... .. . ... : ... .. . ...
ROW 23 : ... .. . ... ... ... : ... .. . ... ... ... ... : ... .. . ... ... : ... .. . ... : ... .. . ...
ROW 24 : ... .. . ... ... ... : ... .. . ... ... ... ... : ... .. . ... ... : ... .. . ... : ... .. . ...
ROW 25 : ... .. . ... ... ... : ... .. . ... ... ... ... : ... .. . ... ... : ... .. . ... : ... .. . ...
ROW 26 : ... .. . ... ... ... : ... .. . ... ... ... ... : ... .. . ... ... : ... .. . ... : ... .. . ...
ROW 27 : ... .. . ... ... ... : ... .. . ... ... ... ... : ... .. . ... ... : ... .. . ... : ... .. . ...
ROW 28 : ... .. . ... ... ... : ... .. . ... ... ... ... : ... .. . ... ... : ... .. . ... : ... .. . ...
ROW 29 : ... .. . ... ... ... : ... .. . ... ... ... ... : ... .. . ... ... : ... .. . ... : ... .. . ...
ROW 2A : ... .. . ... ... ... : ... .. . ... ... ... ... : ... .. . ... ... : ... .. . ... : ... .. . ...
ROW 2B : ... .. . ... ... ... : ... .. . ... ... ... ... : ... .. . ... ... : ... .. . ... : ... .. . ...
ROW 2C : ... .. . ... ... ... : ... .. . ... ... ... ... : ... .. . ... ... : ... .. . ... : ... .. . ...
ROW 2D : ... .. . ... ... ... : ... .. . ... ... ... ... : ... .. . ... ... : ... .. . ... : ... .. . ...
ROW 2E : ... .. . ... ... ... : ... .. . ... ... ... ... : ... .. . ... ... : ... .. . ... : ... .. . ...
ROW 2F : ... .. . ... ... ... : ... .. . ... ... ... ... : ... .. . ... ... : ... .. . ... : ... .. . ...
ROW 30 : ... .. . ... ... ... : ... .. . ... ... ... ... : ... .. . ... ... : ... .. . ... : ... .. . ...
ROW 31 : ... .. . ... ... ... : ... .. . ... ... ... ... : ... .. . ... ... : ... .. . ... : ... .. . ...
ROW 32 : ... .. . ... ... ... : ... .. . ... ... ... ... : ... .. . ... ... : ... .. . ... : ... .. . ...
ROW 33 : ... .. . ... ... ... : ... .. . ... ... ... ... : ... .. . ... ... : ... .. . ... : ... .. . ...
ROW 34 : ... .. . ... ... ... : ... .. . ... ... ... ... : ... .. . ... ... : ... .. . ... : ... .. . ...
ROW 35 : ... .. . ... ... ... : ... .. . ... ... ... ... : ... .. . ... ... : ... .. . ... : ... .. . ...
ROW 36 : ... .. . ... ... ... : ... .. . ... ... ... ... : ... .. . ... ... : ... .. . ... : ... .. . ...
ROW 37 : ... .. . ... ... ... : ... .. . ... ... ... ... : ... .. . ... ... : ... .. . ... : ... .. . ...
ROW 38 : ... .. . ... ... ... : ... .. . ... ... ... ... : ... .. . ... ... : ... .. . ... : ... .. . ...
ROW 39 : ... .. . ... ... ... : ... .. . ... ... ... ... : ... .. . ... ... : ... .. . ... : ... .. . ...
ROW 3A : ... .. . ... ... ... : ... .. . ... ... ... ... : ... .. . ... ... : ... .. . ... : ... .. . ...
ROW 3B : ... .. . ... ... ... : ... .. . ... ... ... ... : ... .. . ... ... : ... .. . ... : ... .. . ...
ROW 3C : ... .. . ... ... ... : ... .. . ... ... ... ... : ... .. . ... ... : ... .. . ... : ... .. . ...
ROW 3D : ... .. . ... ... ... : ... .. . ... ... ... ... : ... .. . ... ... : ... .. . ... : ... .. . ...
ROW 3E : ... .. . ... ... ... : ... .. . ... ... ... ... : ... .. . ... ... : ... .. . ... : ... .. . ...
ROW 3F : ... .. . ... ... ... : ... .. . ... ... ... ... : ... .. . ... ... : ... .. . ... : ... .. . ...

PATTERN 01
ROW 00 : C-3 01 A V00 400 T32 : C-3 01 7 V01 P81 400 T32 : C-3 01 . ... ... : 2-# 0A F A00 : ... .. . ...
ROW 01 : === .. . ... G02 ... : === .. . ... ... G02 ... : D-3 01 . ... ... : ... .. . ... : ... .. . ...
ROW 02 : D-3 01 . ... G02 ... : D-3 01 . ... ... G02 ... : ... .. . ... ... : F-# 12 A ... : ... .. . ...
ROW 03 : ... .. . ... ... ... : ... .. . ... ... ... ... : ... .. . ... ... : ... .. . ... : ... .. . ...
ROW 04 : === .. . ... G01 ... : === .. . ... ... G01 ... : --- .. . ... ... : E-# 14 D ... : ... .. . ...
ROW 05 : D-3 01 . ... G01 ... : D-3 01 . ... ... G01 ... : ... .. . ... ... : ... .. . ... : ... .. . ...
ROW 06 : ... .. . ... ... ... : ... .. . ... ... ... ... : D-3 01 . ... ... : E-# 14 . ... : ... .. . ...
ROW 07 : === .. . ... ... ... : === .. . ... ... ... ... : ... .. . ... ... : ... .. . ... : ... .. . ...
ROW 08 : A-3 01 D ... ... ... : F-3 01 A ... ... ... ... : ... .. . ... ... : 8-# 0D F ... : ... .. . ...
ROW 09 : ... .. . ... ... ... : ... .. . ... ... ... ... : ... .. . ... ... : ... .. . ... : ... .. . ...
ROW 0A : ... .. . ... ... ... : ... .. . ... ... ... ... : ... .. . ... ... : F-# 12 A ... : ... .. . ...
ROW 0B : ... .. . ... ... ... : ... .. . ... ... ... ... : --- .. . ... ... : ... .. . ... : ... .. . ...
ROW 0C : ... .. . ... ... ... : ... .. . ... ... ... ... : A-2 01 . ... ... : E-# 14 D ... : ... .. . ...
ROW 0D : ... .. . ... ... ... : ... .. . ... ... ... ... : ... .. . ... ... : ... .. . ... : ... .. . ...
ROW 0E : === .. . ... ... ... : === .. . ... ... ... ... : ... .. . ... ... : F-# 12 A ... : ... .. . ...
ROW 0F : ... .. . ... ... ... : ... .. . ... ... ... ... : ... .. . ... ... : ... .. . ... : ... .. . ...
ROW 10 : C-4 01 . ... ... ... : G-3 01 . ... ... ... ... : ... .. . ... ... : 2-# 0A F ... : ... .. . ...
ROW 11 : ... .. . ... ... ... : ... .. . ... ... ... ... : ... .. . ... ... : ... .. . ... : ... .. . ...
ROW 12 : ... .. . ... ... ... : ... .. . ... ... ... ... : ... .. . ... ... : E-# 14 D ... : ... .. . ...
ROW 13 : ... .. . ... ... ... : ... .. . ... ... ... ... : --- .. . ... ... : ... .. . ... : ... .. . ...
ROW 14 : ... .. . ... ... ... : ... .. . ... ... ... ... : D-3 01 . ... ... : E-# 14 . ... : ... .. . ...
ROW 15 : ... .. . ... ... ... : ... .. . ... ... ... ... : ... .. . ... ... : ... .. . ... : ... .. . ...
ROW 16 : === .. . ... ... ... : === .. . ... ... ... ... : ... .. . ... ... : E-# 12 A ... : ... .. . ...
ROW 17 : ... .. . ... ... ... : ... .. . ... ... ... ... : ... .. . ... ... : ... .. . ... : ... .. . ...
ROW 18 : G-3 01 . ... ... ... : E-3 01 . ... ... ... ... : ... .. . ... ... : 8-# 0D F ... : ... .. . ...
ROW 19 : ... .. . ... ... ... : ... .. . ... ... ... ... : --- .. . ... ... : ... .. . ... : ... .. . ...
ROW 1A : ... .. . ... ... ... : ... .. . ... ... ... ... : D-3 01 . ... ... : E-# 12 A ... : ... .. . ...
ROW 1B : ... .. . ... ... ... : ... .. . ... ... ... ... : ... .. . ... ... : ... .. . ... : ... .. . ...
ROW 1C : ... .. . ... ... ... : ... .. . ... ... ... ... : ... .. . ... ... : E-# 14 D ... : ... .. . ...
ROW 1D : ... .. . ... ... ... : ... .. . ... ... ... ... : ... .. . ... ... : ... .. . ... : ... .. . ...
ROW 1E : === .. . ... ... ... : === .. . ... ... ... ... : ... .. . ... ... : E-# 12 A ... : ... .. . ...
ROW 1F : ... .. . ... ... ... : ... .. . ... ... ... ... : --- .. . ... ... : ... .. . ... : ... .. . ...
ROW 20 : A-3 01 . ... ... ... : F-3 01 . ... ... ... ... : D-3 01 . ... ... : 2-# 0A F ... : ... .. . ...
ROW 21 : ... .. . ... ... ... : ... .. . ... ... ... ... : ... .. . ... ... : ... .. . ... : ... .. . ...
ROW 22 : ... .. . ... ... ... : ... .. . ... ... ... ... : ... .. . ... ... : F-# 12 A ... : ... .. . ...
ROW 23 : ... .. . ... ... ... : ... .. . ... ... ... ... : ... .. . ... ... : ... .. . ... : ... .. . ...
ROW 24 : ... .. . ... ... ... : ... .. . ... ... ... ... : --- .. . ... ... : E-# 14 D ... : ... .. . ...
ROW 25 : ... .. . ... ... ... : ... .. . ... ... ... ... : ... .. . ... ... : ... .. . ... : ... .. . ...
ROW 26 : ... .. . ... ... ... : ... .. . ... ... ... ... : D-3 01 . ... ... : E-# 14 . ... : ... .. . ...
ROW 27 : ... .. . ... ... ... : ... .. . ... ... ... ... : ... .. . ... ... : ... .. . ... : ... .. . ...
ROW 28 : ... .. . ... ... ... : ... .. . ... ... ... ... : ... .. . ... ... : 8-# 0D F ... : ... .. . ...
ROW 29 : ... .. . ... ... ... : ... .. . ... ... ... ... : ... .. . ... ... : ... .. . ... : ... .. . ...
ROW 2A : ... .. . ... ... ... : ... .. . ... ... ... ... : ... .. . ... ... : F-# 12 A ... : ... .. . ...
ROW 2B : ... .. . ... ... ... : ... .. . ... ... ... ... : --- .. . ... ... : ... .. . ... : ... .. . ...
ROW 2C : ... .. . ... ... ... : ... .. . ... ... ... ... : E-3 01 . ... ... : E-# 14 D ... : ... .. . ...
ROW 2D : ... .. . ... ... ... : ... .. . ... ... ... ... : ... .. . ... ... : ... .. . ... : ... .. . ...
ROW 2E : ... .. . ... ... ... : ... .. . ... ... ... ... : ... .. . ... ... : F-# 12 A ... : ... .. . ...
ROW 2F : ... .. . ... ... ... : ... .. . ... ... ... ... : ... .. . ... ... : ... .. . ... : ... .. . ...
ROW 30 : ... .. . ... ... ... : ... .. . ... ... ... ... : ... .. . ... ... : 2-# 0A F ... : ... .. . ...
ROW 31 : ... .. . ... ... ... : ... .. . ... ... ... ... : ... .. . ... ... : ... .. . ... : ... .. . ...
ROW 32 : ... .. . ... ... ... : ... .. . ... ... ... ... : ... .. . ... ... : E-# 14 D ... : ... .. . ...
ROW 33 : ... .. . ... ... ... : ... .. . ... ... ... ... : --- .. . ... ... : ... .. . ... : ... .. . ...
ROW 34 : ... .. . ... ... ... : ... .. . ... ... ... ... : D-3 01 . ... ... : E-# 14 . ... : ... .. . ...
ROW 35 : ... .. . ... ... ... : ... .. . ... ... ... ... : ... .. . ... ... : ... .. . ... : ... .. . ...
ROW 36 : === .. . ... ... ... : === .. . ... ... ... ... : ... .. . ... ... : E-# 12 A ... : ... .. . ...
ROW 37 : ... .. . ... ... ... : ... .. . ... ... ... ... : ... .. . ... ... : ... .. . ... : ... .. . ...
ROW 38 : F-3 01 . ... ... ... : D-3 01 . ... ... ... ... : ... .. . ... ... : 8-# 0D F ... : ... .. . ...
ROW 39 : === .. . ... G02 ... : === .. . ... ... G02 ... : --- .. . ... ... : ... .. . ... : ... .. . ...
ROW 3A : G-3 01 . ... G02 ... : E-3 01 . ... ... G02 ... : A-2 01 . ... ... : E-# 12 A ... : ... .. . ...
ROW 3B : ... .. . ... ... ... : ... .. . ... ... ... ... : ... .. . ... ... : ... .. . ... : ... .. . ...
ROW 3C : === .. . ... G01 ... : === .. . ... ... G01 ... : ... .. . ... ... : E-# 14 D ... : ... .. . ...
ROW 3D : A-3 01 . ... G01 ... : F-3 01 . ... ... G01 ... : ... .. . ... ... : ... .. . ... : ... .. . ...
ROW 3E : ... .. . ... ... ... : ... .. . ... ... ... ... : ... .. . ... ... : E-# 12 A ... : ... .. . ...
ROW 3F : === .. . ... ... ... : === .. . ... ... ... ... : --- .. . ... ... : ... .. . ... : ... .. . ...

PATTERN 02
ROW 00 : G-3 01 D V00 400 A00 : E-3 01 A V01 P81 400 A00 : C-3 01 . ... ... : 2-# 0A F ... : ... .. . ...
ROW 01 : ... .. . ... ... ... : ... .. . ... ... ... ... : D-3 01 . ... ... : ... .. . ... : ... .. . ...
ROW 02 : ... .. . ... ... ... : ... .. . ... ... ... ... : ... .. . ... ... : F-# 12 A ... : ... .. . ...
ROW 03 : ... .. . ... ... ... : ... .. . ... ... ... ... : ... .. . ... ... : ... .. . ... : ... .. . ...
ROW 04 : ... .. . ... ... ... : ... .. . ... ... ... ... : --- .. . ... ... : E-# 14 D ... : ... .. . ...
ROW 05 : ... .. . ... ... ... : ... .. . ... ... ... ... : ... .. . ... ... : ... .. . ... : ... .. . ...
ROW 06 : ... .. . ... ... ... : ... .. . ... ... ... ... : D-3 01 . ... ... : E-# 14 . ... : ... .. . ...
ROW 07 : === .. . ... ... ... : === .. . ... ... ... ... : ... .. . ... ... : ... .. . ... : ... .. . ...
ROW 08 : G-3 01 . ... ... ... : E-3 01 . ... ... ... ... : ... .. . ... ... : 8-# 0D F ... : ... .. . ...
ROW 09 : === .. . ... G02 ... : === .. . ... ... G02 ... : ... .. . ... ... : ... .. . ... : ... .. . ...
ROW 0A : F-3 01 . ... G02 ... : D-3 01 . ... ... G02 ... : ... .. . ... ... : F-# 12 A ... : ... .. . ...
ROW 0B : ... .. . ... ... ... : ... .. . ... ... ... ... : --- .. . ... ... : ... .. . ... : ... .. . ...
ROW 0C : === .. . ... G01 ... : === .. . ... ... G01 ... : A-2 01 . ... ... : E-# 14 D ... : ... .. . ...
ROW 0D : E-3 01 . ... G01 ... : C-3 01 . ... ... G01 ... : ... .. . ... ... : ... .. . ... : ... .. . ...
ROW 0E : ... .. . ... ... ... : ... .. . ... ... ... ... : ... .. . ... ... : F-# 12 A ... : ... .. . ...
ROW 0F : === .. . ... ... ... : === .. . ... ... ... ... : ... .. . ... ... : ... .. . ... : ... .. . ...
ROW 10 : C-3 01 . ... ... ... : G-2 01 . ... ... ... ... : ... .. . ... ... : 2-# 0A F ... : ... .. . ...
ROW 11 : ... .. . ... ... ... : ... .. . ... ... ... ... : ... .. . ... ... : ... .. . ... : ... .. . ...
ROW 12 : ... .. . ... ... ... : ... .. . ... ... ... ... : ... .. . ... ... : E-# 14 D ... : ... .. . ...
ROW 13 : ... .. . ... ... ... : ... .. . ... ... ... ... : --- .. . ... ... : ... .. . ... : ... .. . ...
ROW 14 : ... .. . ... ... ... : ... .. . ... ... ... ... : D-3 01 . ... ... : E-# 14 . ... : ... .. . ...
ROW 15 : ... .. . ... ... ... : ... .. . ... ... ... ... : ... .. . ... ... : ... .. . ... : ... .. . ...
ROW 16 : ... .. . ... ... ... : ... .. . ... ... ... ... : ... .. . ... ... : E-# 12 A ... : ... .. . ...
ROW 17 : ... .. . ... ... ... : ... .. . ... ... ... ... : ... .. . ... ... : ... .. . ... : ... .. . ...
ROW 18 : ... .. . ... ... ... : ... .. . ... ... ... ... : ... .. . ... ... : 8-# 0D F ... : ... .. . ...
ROW 19 : ... .. . ... ... ... : ... .. . ... ... ... ... : --- .. . ... ... : ... .. . ... : ... .. . ...
ROW 1A : ... .. . ... ... ... : ... .. . ... ... ... ... : D-3 01 . ... ... : E-# 12 A ... : ... .. . ...
ROW 1B : ... .. . ... ... ... : ... .. . ... ... ... ... : ... .. . ... ... : ... .. . ... : ... .. . ...
ROW 1C : ... .. . ... 467 ... : ... .. . ... ... 467 ... : ... .. . ... ... : E-# 14 D ... : ... .. . ...
ROW 1D : ... .. . ... ... ... : ... .. . ... ... ... ... : ... .. . ... ... : ... .. . ... : ... .. . ...
ROW 1E : ... .. . ... ... ... : ... .. . ... ... ... ... : ... .. . ... ... : E-# 12 A ... : ... .. . ...
ROW 1F : ... .. . ... ... ... : ... .. . ... ... ... ... : --- .. . ... ... : ... .. . ... : ... .. . ...
ROW 20 : ... .. . ... ... ... : ... .. . ... ... ... ... : D-3 01 . ... ... : 2-# 0A F ... : ... .. . ...
ROW 21 : ... .. . ... ... ... : ... .. . ... ... ... ... : ... .. . ... ... : ... .. . ... : ... .. . ...
ROW 22 : ... .. . ... ... ... : ... .. . ... ... ... ... : ... .. . ... ... : F-# 12 A ... : ... .. . ...
ROW 23 : ... .. . ... ... ... : ... .. . ... ... ... ... : ... .. . ... ... : ... .. . ... : ... .. . ...
ROW 24 : ... .. . ... ... ... : ... .. . ... ... ... ... : --- .. . ... ... : E-# 14 D ... : ... .. . ...
ROW 25 : ... .. . ... ... ... : ... .. . ... ... ... ... : ... .. . ... ... : ... .. . ... : ... .. . ...
ROW 26 : ... .. . ... ... ... : ... .. . ... ... ... ... : D-3 01 . ... ... : E-# 14 . ... : ... .. . ...
ROW 27 : ... .. . ... ... ... : ... .. . ... ... ... ... : ... .. . ... ... : ... .. . ... : ... .. . ...
ROW 28 : ... .. . ... ... ... : ... .. . ... ... ... ... : ... .. . ... ... : 8-# 0D F ... : ... .. . ...
ROW 29 : ... .. . ... ... ... : ... .. . ... ... ... ... : ... .. . ... ... : ... .. . ... : ... .. . ...
ROW 2A : ... .. . ... ... ... : ... .. . ... ... ... ... : ... .. . ... ... : F-# 12 A ... : ... .. . ...
ROW 2B : ... .. . ... ... ... : ... .. . ... ... ... ... : --- .. . ... ... : ... .. . ... : ... .. . ...
ROW 2C : ... .. . ... ... A01 : ... .. . ... ... ... A01 : E-3 01 . ... ... : E-# 14 D ... : ... .. . ...
ROW 2D : ... .. . ... ... ... : ... .. . ... ... ... ... : ... .. . ... ... : ... .. . ... : ... .. . ...
ROW 2E : ... .. . ... ... ... : ... .. . ... ... ... ... : ... .. . ... ... : F-# 12 A ... : ... .. . ...
ROW 2F : ... .. . ... ... ... : ... .. . ... ... ... ... : ... .. . ... ... : ... .. . ... : ... .. . ...
ROW 30 : ... .. . ... ... ... : ... .. . ... ... ... ... : ... .. . ... ... : 2-# 0A F ... : ... .. . ...
ROW 31 : ... .. . ... ... ... : ... .. . ... ... ... ... : ... .. . ... ... : ... .. . ... : ... .. . ...
ROW 32 : ... .. . ... ... ... : ... .. . ... ... ... ... : ... .. . ... ... : E-# 14 D ... : ... .. . ...
ROW 33 : ... .. . ... ... ... : ... .. . ... ... ... ... : --- .. . ... ... : ... .. . ... : ... .. . ...
ROW 34 : ... .. . ... ... ... : ... .. . ... ... ... ... : D-3 01 . ... ... : E-# 14 . ... : ... .. . ...
ROW 35 : ... .. . ... ... ... : ... .. . ... ... ... ... : ... .. . ... ... : ... .. . ... : ... .. . ...
ROW 36 : ... .. . ... ... ... : ... .. . ... ... ... ... : ... .. . ... ... : E-# 12 A ... : ... .. . ...
ROW 37 : ... .. . ... ... ... : ... .. . ... ... ... ... : ... .. . ... ... : ... .. . ... : ... .. . ...
ROW 38 : ... .. . ... ... ... : ... .. . ... ... ... ... : ... .. . ... ... : 8-# 0D F ... : ... .. . ...
ROW 39 : ... .. . ... ... ... : ... .. . ... ... ... ... : --- .. . ... ... : ... .. . ... : ... .. . ...
ROW 3A : ... .. . ... ... ... : ... .. . ... ... ... ... : A-2 01 . ... ... : E-# 12 A ... : ... .. . ...
ROW 3B : ... .. . ... ... ... : ... .. . ... ... ... ... : ... .. . ... ... : ... .. . ... : ... .. . ...
ROW 3C : ... .. . ... ... ... : ... .. . ... ... ... ... : ... .. . ... ... : E-# 14 D ... : ... .. . ...
ROW 3D : ... .. . ... ... ... : ... .. . ... ... ... ... : ... .. . ... ... : ... .. . ... : ... .. . ...
ROW 3E : ... .. . ... ... ... : ... .. . ... ... ... ... : ... .. . ... ... : E-# 12 A ... : ... .. . ...
ROW 3F : ... .. . ... ... ... : ... .. . ... ... ... ... : --- .. . ... ... : ... .. . ... : ... .. . ...

PATTERN 03
ROW 00 : --- .. D V00 400 A00 : --- .. A V01 P81 400 A00 : F-2 01 . ... ... : 2-# 0A F ... : ... .. . ...
ROW 01 : ... .. . ... ... ... : ... .. . ... ... ... ... : G-2 01 . ... ... : ... .. . ... : ... .. . ...
ROW 02 : ... .. . ... ... ... : ... .. . ... ... ... ... : ... .. . ... ... : F-# 12 A ... : ... .. . ...
ROW 03 : ... .. . ... ... ... : ... .. . ... ... ... ... : ... .. . ... ... : ... .. . ... : ... .. . ...
ROW 04 : ... .. . ... ... ... : ... .. . ... ... ... ... : --- .. . ... ... : E-# 14 D ... : ... .. . ...
ROW 05 : ... .. . ... ... ... : ... .. . ... ... ... ... : ... .. . ... ... : ... .. . ... : ... .. . ...
ROW 06 : ... .. . ... ... ... : ... .. . ... ... ... ... : G-2 01 . ... ... : E-# 14 . ... : ... .. . ...
ROW 07 : ... .. . ... ... ... : ... .. . ... ... ... ... : ... .. . ... ... : ... .. . ... : ... .. . ...
ROW 08 : A-3 01 . ... ... ... : F-3 01 . ... ... ... ... : ... .. . ... ... : 8-# 0D F ... : ... .. . ...
ROW 09 : ... .. . ... ... ... : ... .. . ... ... ... ... : ... .. . ... ... : ... .. . ... : ... .. . ...
ROW 0A : ... .. . ... ... ... : ... .. . ... ... ... ... : ... .. . ... ... : F-# 12 A ... : ... .. . ...
ROW 0B : ... .. . ... ... ... : ... .. . ... ... ... ... : --- .. . ... ... : ... .. . ... : ... .. . ...
ROW 0C : ... .. . ... ... ... : ... .. . ... ... ... ... : D-3 01 . ... ... : E-# 14 D ... : ... .. . ...
ROW 0D : ... .. . ... ... ... : ... .. . ... ... ... ... : ... .. . ... ... : ... .. . ... : ... .. . ...
ROW 0E : === .. . ... ... ... : === .. . ... ... ... ... : ... .. . ... ... : F-# 12 A ... : ... .. . ...
ROW 0F : ... .. . ... ... ... : ... .. . ... ... ... ... : ... .. . ... ... : ... .. . ... : ... .. . ...
ROW 10 : C-4 01 . ... ... ... : G-3 01 . ... ... ... ... : ... .. . ... ... : 2-# 0A F ... : ... .. . ...
ROW 11 : ... .. . ... ... ... : ... .. . ... ... ... ... : ... .. . ... ... : ... .. . ... : ... .. . ...
ROW 12 : ... .. . ... ... ... : ... .. . ... ... ... ... : ... .. . ... ... : E-# 14 D ... : ... .. . ...
ROW 13 : ... .. . ... ... ... : ... .. . ... ... ... ... : --- .. . ... ... : ... .. . ... : ... .. . ...
ROW 14 : ... .. . ... ... ... : ... .. . ... ... ... ... : G-2 01 . ... ... : E-# 14 . ... : ... .. . ...
ROW 15 : ... .. . ... ... ... : ... .. . ... ... ... ... : ... .. . ... ... : ... .. . ... : ... .. . ...
ROW 16 : === .. . ... ... ... : === .. . ... ... ... ... : ... .. . ... ... : E-# 12 A ... : ... .. . ...
ROW 17 : ... .. . ... ... ... : ... .. . ... ... ... ... : ... .. . ... ... : ... .. . ... : ... .. . ...
ROW 18 : A-3 01 . ... ... ... : F-3 01 . ... ... ... ... : ... .. . ... ... : 8-# 0D F ... : ... .. . ...
ROW 19 : === .. . ... G02 ... : === .. . ... ... G02 ... : --- .. . ... ... : ... .. . ... : ... .. . ...
ROW 1A : C-4 01 . ... G02 ... : G-3 01 . ... ... G02 ... : G-2 01 . ... ... : E-# 12 A ... : ... .. . ...
ROW 1B : ... .. . ... ... ... : ... .. . ... ... ... ... : ... .. . ... ... : ... .. . ... : ... .. . ...
ROW 1C : === .. . ... G01 ... : === .. . ... ... G01 ... : ... .. . ... ... : E-# 14 D ... : ... .. . ...
ROW 1D : D-4 01 . ... G01 ... : A-3 01 . ... ... G01 ... : ... .. . ... ... : ... .. . ... : ... .. . ...
ROW 1E : ... .. . ... ... ... : ... .. . ... ... ... ... : ... .. . ... ... : E-# 12 A ... : ... .. . ...
ROW 1F : === .. . ... ... ... : === .. . ... ... ... ... : --- .. . ... ... : ... .. . ... : ... .. . ...
ROW 20 : G-3 01 . ... ... T32 : E-3 01 . ... ... ... T31 : G-2 01 . ... ... : 2-# 0A F ... : ... .. . ...
ROW 21 : ... .. . ... ... ... : ... .. . ... ... ... ... : ... .. . ... ... : ... .. . ... : ... .. . ...
ROW 22 : ... .. . ... ... ... : ... .. . ... ... ... ... : ... .. . ... ... : F-# 12 A ... : ... .. . ...
ROW 23 : ... .. . ... ... ... : ... .. . ... ... ... ... : ... .. . ... ... : ... .. . ... : ... .. . ...
ROW 24 : ... .. . ... ... ... : ... .. . ... ... ... ... : --- .. . ... ... : E-# 14 D ... : ... .. . ...
ROW 25 : ... .. . ... ... ... : ... .. . ... ... ... ... : ... .. . ... ... : ... .. . ... : ... .. . ...
ROW 26 : ... .. . ... ... ... : ... .. . ... ... ... ... : G-2 01 . ... ... : E-# 14 . ... : ... .. . ...
ROW 27 : ... .. . ... ... ... : ... .. . ... ... ... ... : ... .. . ... ... : ... .. . ... : ... .. . ...
ROW 28 : ... .. . ... ... ... : ... .. . ... ... ... ... : ... .. . ... ... : 8-# 0D F ... : ... .. . ...
ROW 29 : ... .. . ... ... ... : ... .. . ... ... ... ... : ... .. . ... ... : ... .. . ... : ... .. . ...
ROW 2A : ... .. . ... ... ... : ... .. . ... ... ... ... : ... .. . ... ... : F-# 12 A ... : ... .. . ...
ROW 2B : ... .. . ... ... ... : ... .. . ... ... ... ... : --- .. . ... ... : ... .. . ... : ... .. . ...
ROW 2C : ... .. . ... ... ... : ... .. . ... ... ... ... : F-2 01 . ... ... : E-# 14 D ... : ... .. . ...
ROW 2D : ... .. . ... ... ... : ... .. . ... ... ... ... : ... .. . ... ... : ... .. . ... : ... .. . ...
ROW 2E : ... .. . ... ... ... : ... .. . ... ... ... ... : ... .. . ... ... : F-# 12 A ... : ... .. . ...
ROW 2F : === .. . ... ... ... : === .. . ... ... ... ... : ... .. . ... ... : ... .. . ... : ... .. . ...
ROW 30 : E-3 01 . ... ... ... : C-3 01 . ... ... ... ... : ... .. . ... ... : 2-# 0A F ... : ... .. . ...
ROW 31 : === .. . ... G02 ... : === .. . ... ... G02 ... : ... .. . ... ... : ... .. . ... : ... .. . ...
ROW 32 : D-3 01 . ... G02 ... : A-2 01 . ... ... G02 ... : ... .. . ... ... : E-# 14 D ... : ... .. . ...
ROW 33 : ... .. . ... ... ... : ... .. . ... ... ... ... : --- .. . ... ... : ... .. . ... : ... .. . ...
ROW 34 : === .. . ... G01 ... : === .. . ... ... G01 ... : G-2 01 . ... ... : E-# 14 . ... : ... .. . ...
ROW 35 : E-3 01 . ... G01 ... : C-3 01 . ... ... G01 ... : ... .. . ... ... : ... .. . ... : ... .. . ...
ROW 36 : ... .. . ... ... ... : ... .. . ... ... ... ... : ... .. . ... ... : E-# 12 A ... : ... .. . ...
ROW 37 : === .. . ... ... ... : === .. . ... ... ... ... : ... .. . ... ... : ... .. . ... : ... .. . ...
ROW 38 : F-3 01 . ... ... ... : D-3 01 . ... ... ... ... : ... .. . ... ... : 8-# 0D F ... : ... .. . ...
ROW 39 : ... .. . ... ... ... : ... .. . ... ... ... ... : --- .. . ... ... : ... .. . ... : ... .. . ...
ROW 3A : ... .. . ... ... ... : ... .. . ... ... ... ... : D-3 01 . ... ... : E-# 12 A ... : ... .. . ...
ROW 3B : ... .. . ... ... ... : ... .. . ... ... ... ... : ... .. . ... ... : ... .. . ... : ... .. . ...
ROW 3C : ... .. . ... ... ... : ... .. . ... ... ... ... : ... .. . ... ... : E-# 14 D ... : ... .. . ...
ROW 3D : ... .. . ... ... ... : ... .. . ... ... ... ... : ... .. . ... ... : ... .. . ... : ... .. . ...
ROW 3E : ... .. . ... ... ... : ... .. . ... ... ... ... : ... .. . ... ... : E-# 12 A ... : ... .. . ...
ROW 3F : ... .. . ... ... ... : ... .. . ... ... ... ... : --- .. . ... ... : ... .. . ... : ... .. . ...

PATTERN 04
ROW 00 : ... .. D V00 465 A00 : ... .. A V01 P81 465 A00 : F-2 01 . ... ... : 2-# 0A F ... : ... .. . ...
ROW 01 : ... .. . ... ... ... : ... .. . ... ... ... ... : G-2 01 . ... ... : ... .. . ... : ... .. . ...
ROW 02 : ... .. . ... ... ... : ... .. . ... ... ... ... : ... .. . ... ... : F-# 12 A ... : ... .. . ...
ROW 03 : ... .. . ... ... ... : ... .. . ... ... ... ... : ... .. . ... ... : ... .. . ... : ... .. . ...
ROW 04 : ... .. . ... ... ... : ... .. . ... ... ... ... : --- .. . ... ... : E-# 14 D ... : ... .. . ...
ROW 05 : ... .. . ... ... ... : ... .. . ... ... ... ... : ... .. . ... ... : ... .. . ... : ... .. . ...
ROW 06 : ... .. . ... ... ... : ... .. . ... ... ... ... : G-2 01 . ... ... : E-# 14 . ... : ... .. . ...
ROW 07 : === .. . ... ... ... : === .. . ... ... ... ... : ... .. . ... ... : ... .. . ... : ... .. . ...
ROW 08 : F-3 01 . ... 400 ... : D-3 01 . ... ... 400 ... : ... .. . ... ... : 8-# 0D F ... : ... .. . ...
ROW 09 : === .. . ... G02 ... : === .. . ... ... G02 ... : ... .. . ... ... : ... .. . ... : ... .. . ...
ROW 0A : G-3 01 . ... G02 ... : E-3 01 . ... ... G02 ... : ... .. . ... ... : F-# 12 A ... : ... .. . ...
ROW 0B : ... .. . ... ... ... : ... .. . ... ... ... ... : --- .. . ... ... : ... .. . ... : ... .. . ...
ROW 0C : === .. . ... G01 ... : === .. . ... ... G01 ... : D-3 01 . ... ... : E-# 14 D ... : ... .. . ...
ROW 0D : A-3 01 . ... G01 ... : F-3 01 . ... ... G01 ... : ... .. . ... ... : ... .. . ... : ... .. . ...
ROW 0E : ... .. . ... ... ... : ... .. . ... ... ... ... : ... .. . ... ... : F-# 12 A ... : ... .. . ...
ROW 0F : === .. . ... ... ... : === .. . ... ... ... ... : ... .. . ... ... : ... .. . ... : ... .. . ...
ROW 10 : G-3 01 . ... ... ... : E-3 01 . ... ... ... ... : ... .. . ... ... : 2-# 0A F ... : ... .. . ...
ROW 11 : ... .. . ... ... ... : ... .. . ... ... ... ... : ... .. . ... ... : ... .. . ... : ... .. . ...
ROW 12 : ... .. . ... ... ... : ... .. . ... ... ... ... : ... .. . ... ... : E-# 14 D ... : ... .. . ...
ROW 13 : ... .. . ... ... ... : ... .. . ... ... ... ... : --- .. . ... ... : ... .. . ... : ... .. . ...
ROW 14 : ... .. . ... ... ... : ... .. . ... ... ... ... : G-2 01 . ... ... : E-# 14 . ... : ... .. . ...
ROW 15 : ... .. . ... ... ... : ... .. . ... ... ... ... : ... .. . ... ... : ... .. . ... : ... .. . ...
ROW 16 : ... .. . ... ... ... : ... .. . ... ... ... ... : ... .. . ... ... : E-# 12 A ... : ... .. . ...
ROW 17 : ... .. . ... ... ... : ... .. . ... ... ... ... : ... .. . ... ... : ... .. . ... : ... .. . ...
ROW 18 : ... .. . ... ... ... : ... .. . ... ... ... ... : ... .. . ... ... : 8-# 0D F ... : ... .. . ...
ROW 19 : ... .. . ... ... ... : ... .. . ... ... ... ... : --- .. . ... ... : ... .. . ... : ... .. . ...
ROW 1A : ... .. . ... ... ... : ... .. . ... ... ... ... : G-2 01 . ... ... : E-# 12 A ... : ... .. . ...
ROW 1B : ... .. . ... ... ... : ... .. . ... ... ... ... : ... .. . ... ... : ... .. . ... : ... .. . ...
ROW 1C : ... .. . ... 465 ... : ... .. . ... ... 465 ... : ... .. . ... ... : E-# 14 D ... : ... .. . ...
ROW 1D : ... .. . ... ... ... : ... .. . ... ... ... ... : ... .. . ... ... : ... .. . ... : ... .. . ...
ROW 1E : ... .. . ... ... ... : ... .. . ... ... ... ... : ... .. . ... ... : E-# 12 A ... : ... .. . ...
ROW 1F : ... .. . ... ... ... : ... .. . ... ... ... ... : --- .. . ... ... : ... .. . ... : ... .. . ...
ROW 20 : ... .. . ... ... ... : ... .. . ... ... ... ... : C-4 16 . ... ... : 8-# 0D . ... : ... .. . ...
ROW 21 : ... .. . ... ... ... : ... .. . ... ... ... ... : ... .. . ... ... : ... .. . ... : ... .. . ...
ROW 22 : ... .. . ... ... ... : ... .. . ... ... ... ... : ... .. . ... ... : 8-# 0D 7 ... : ... .. . ...
ROW 23 : ... .. . ... ... ... : ... .. . ... ... ... ... : ... .. . ... ... : ... .. . ... : ... .. . ...
ROW 24 : ... .. . ... ... ... : ... .. . ... ... ... ... : ... .. . ... ... : 8-# 0D . ... : ... .. . ...
ROW 25 : ... .. . ... ... ... : ... .. . ... ... ... ... : ... .. . ... ... : ... .. . ... : ... .. . ...
ROW 26 : ... .. . ... ... ... : ... .. . ... ... ... ... : ... .. . ... ... : E-# 12 2 ... : ... .. . ...
ROW 27 : ... .. . ... ... ... : ... .. . ... ... ... ... : ... .. . ... ... : ... .. . ... : ... .. . ...
ROW 28 : ... .. . ... ... ... : ... .. . ... ... ... ... : C-4 16 . ... ... : 8-# 0D F ... : ... .. . ...
ROW 29 : ... .. . ... ... ... : ... .. . ... ... ... ... : ... .. . ... ... : ... .. . ... : ... .. . ...
ROW 2A : ... .. . ... ... ... : ... .. . ... ... ... ... : ... .. . ... ... : E-# 12 2 ... : ... .. . ...
ROW 2B : ... .. . ... ... ... : ... .. . ... ... ... ... : ... .. . ... ... : ... .. . ... : ... .. . ...
ROW 2C : ... .. . ... ... ... : ... .. . ... ... ... ... : C-5 15 . ... ... : 8-# 0D 7 ... : ... .. . ...
ROW 2D : ... .. . ... ... ... : ... .. . ... ... ... ... : C-5 15 . ... G01 : 8-# 0D A G01 : ... .. . ...
ROW 2E : === .. . ... ... ... : === .. . ... ... ... ... : C-5 15 . ... G02 : 8-# 0D D G02 : ... .. . ...
ROW 2F : ... .. . ... ... ... : ... .. . ... ... ... ... : ... .. . ... ... : ... .. . ... : ... .. . ...
ROW 30 : E-4 01 1 V01 400 ... : E-4 01 0 V01 ... 400 ... : G-4 15 . ... ... : 8-# 0D F ... : ... .. . ...
ROW 31 : --- .. . ... ... ... : --- .. . ... ... ... ... : ... .. . ... ... : ... .. . ... : ... .. . ...
ROW 32 : E-4 01 . ... ... ... : E-4 01 . ... ... ... ... : --- .. . ... ... : 8-# 0D 4 ... : ... .. . ...
ROW 33 : --- .. . ... ... ... : --- .. . ... ... ... ... : ... .. . ... ... : ... .. . ... : ... .. . ...
ROW 34 : E-4 01 2 ... ... ... : E-4 01 1 ... ... ... ... : D#4 15 . ... ... : 8-# 0D 7 ... : ... .. . ...
ROW 35 : --- .. . ... ... ... : --- .. . ... ... ... ... : ... .. . ... ... : ... .. . ... : ... .. . ...
ROW 36 : E-4 01 . ... ... ... : E-4 01 . ... ... ... ... : --- .. . ... ... : E-# 12 2 ... : ... .. . ...
ROW 37 : --- .. . ... ... ... : --- .. . ... ... ... ... : ... .. . ... ... : ... .. . ... : ... .. . ...
ROW 38 : E-4 01 3 ... ... ... : E-4 01 2 ... ... ... ... : D#4 15 . ... ... : 8-# 0D A ... : ... .. . ...
ROW 39 : --- .. . ... ... ... : --- .. . ... ... ... ... : ... .. . ... ... : 8-# 0D 4 G01 : ... .. . ...
ROW 3A : E-4 01 . ... ... ... : E-4 01 . ... ... ... ... : D#4 15 . ... ... : 8-# 0D 7 G02 : ... .. . ...
ROW 3B : --- .. . ... ... ... : --- .. . ... ... ... ... : ... .. . ... ... : ... .. . ... : ... .. . ...
ROW 3C : E-4 01 4 ... ... ... : E-4 01 3 ... ... ... ... : C-4 15 . ... ... : 8-# 0D A ... : ... .. . ...
ROW 3D : --- .. . ... ... ... : --- .. . ... ... ... ... : ... .. . ... ... : 8-# 0D D G01 : ... .. . ...
ROW 3E : E-4 01 . ... ... ... : E-4 01 . ... ... ... ... : C-4 15 . ... ... : 8-# 0D F G02 : ... .. . ...
ROW 3F : --- .. . ... ... ... : --- .. . ... ... ... ... : ... .. . ... ... : ... .. . ... : ... .. . ...

PATTERN 05
ROW 00 : --- .. . ... ... ... : A-2 09 7 V02 P81 400 ... : C-3 01 . ... ... : E-# 19 F ... : ... .. . ...
ROW 01 : ... .. . ... ... ... : ... .. . ... ... ... ... : D-3 01 . ... ... : ... .. . ... : ... .. . ...
ROW 02 : ... .. . ... ... ... : C-3 09 . ... ... ... ... : ... .. . ... ... : ... .. . ... : ... .. . ...
ROW 03 : ... .. . ... ... ... : ... .. . ... ... ... ... : ... .. . ... ... : ... .. . ... : ... .. . ...
ROW 04 : ... .. . ... ... ... : D-3 09 . ... ... ... ... : --- .. . ... ... : ... .. . ... : ... .. . ...
ROW 05 : ... .. . ... ... ... : ... .. . ... ... ... ... : ... .. . ... ... : ... .. . ... : ... .. . ...
ROW 06 : ... .. . ... ... ... : E-3 09 . ... ... ... ... : D-3 01 . ... ... : ... .. . ... : ... .. . ...
ROW 07 : ... .. . ... ... ... : ... .. . ... ... ... ... : ... .. . ... ... : ... .. . ... : ... .. . ...
ROW 08 : ... .. . ... ... ... : F-3 09 . ... ... ... ... : ... .. . ... ... : 8-# 0D . ... : ... .. . ...
ROW 09 : ... .. . ... ... ... : ... .. . ... ... ... ... : ... .. . ... ... : ... .. . ... : ... .. . ...
ROW 0A : ... .. . ... ... ... : G-3 09 . ... ... ... ... : ... .. . ... ... : F-# 12 A ... : ... .. . ...
ROW 0B : ... .. . ... ... ... : ... .. . ... ... ... ... : --- .. . ... ... : ... .. . ... : ... .. . ...
ROW 0C : ... .. . ... ... ... : A-3 09 . ... ... ... ... : A-2 01 . ... ... : E-# 14 D ... : ... .. . ...
ROW 0D : ... .. . ... ... ... : ... .. . ... ... ... ... : ... .. . ... ... : ... .. . ... : ... .. . ...
ROW 0E : ... .. . ... ... ... : C-4 09 . ... ... ... ... : ... .. . ... ... : F-# 12 A ... : ... .. . ...
ROW 0F : ... .. . ... ... ... : ... .. . ... ... ... ... : ... .. . ... ... : ... .. . ... : ... .. . ...
ROW 10 : ... .. . ... ... ... : D-4 09 . ... ... ... ... : ... .. . ... ... : 2-# 0A F ... : ... .. . ...
ROW 11 : ... .. . ... ... ... : ... .. . ... ... ... ... : ... .. . ... ... : ... .. . ... : ... .. . ...
ROW 12 : ... .. . ... ... ... : C-4 09 . ... ... ... ... : ... .. . ... ... : E-# 14 D ... : ... .. . ...
ROW 13 : ... .. . ... ... ... : ... .. . ... ... ... ... : --- .. . ... ... : ... .. . ... : ... .. . ...
ROW 14 : ... .. . ... ... ... : A-3 09 . ... ... ... ... : D-3 01 . ... ... : E-# 14 . ... : ... .. . ...
ROW 15 : ... .. . ... ... ... : ... .. . ... ... ... ... : ... .. . ... ... : ... .. . ... : ... .. . ...
ROW 16 : ... .. . ... ... ... : G-3 09 . ... ... ... ... : ... .. . ... ... : E-# 12 A ... : ... .. . ...
ROW 17 : ... .. . ... ... ... : ... .. . ... ... ... ... : ... .. . ... ... : ... .. . ... : ... .. . ...
ROW 18 : ... .. . ... ... ... : F-3 09 . ... ... ... ... : ... .. . ... ... : 8-# 0D F ... : ... .. . ...
ROW 19 : ... .. . ... ... ... : ... .. . ... ... ... ... : --- .. . ... ... : ... .. . ... : ... .. . ...
ROW 1A : ... .. . ... ... ... : E-3 09 . ... ... ... ... : D-3 01 . ... ... : E-# 12 A ... : ... .. . ...
ROW 1B : ... .. . ... ... ... : ... .. . ... ... ... ... : ... .. . ... ... : ... .. . ... : ... .. . ...
ROW 1C : ... .. . ... ... ... : D-3 09 . ... ... ... ... : ... .. . ... ... : E-# 14 D ... : ... .. . ...
ROW 1D : ... .. . ... ... ... : ... .. . ... ... ... ... : ... .. . ... ... : ... .. . ... : ... .. . ...
ROW 1E : ... .. . ... ... ... : C-3 09 . ... ... ... ... : ... .. . ... ... : E-# 12 A ... : ... .. . ...
ROW 1F : ... .. . ... ... ... : ... .. . ... ... ... ... : --- .. . ... ... : ... .. . ... : ... .. . ...
ROW 20 : ... .. . ... ... ... : A-2 09 . ... ... ... ... : D-3 01 . ... ... : 2-# 0A F ... : ... .. . ...
ROW 21 : ... .. . ... ... ... : ... .. . ... ... ... ... : ... .. . ... ... : ... .. . ... : ... .. . ...
ROW 22 : ... .. . ... ... ... : C-3 09 . ... ... ... ... : ... .. . ... ... : F-# 12 A ... : ... .. . ...
ROW 23 : ... .. . ... ... ... : ... .. . ... ... ... ... : ... .. . ... ... : ... .. . ... : ... .. . ...
ROW 24 : ... .. . ... ... ... : D-3 09 . ... ... ... ... : --- .. . ... ... : E-# 14 D ... : ... .. . ...
ROW 25 : ... .. . ... ... ... : ... .. . ... ... ... ... : ... .. . ... ... : ... .. . ... : ... .. . ...
ROW 26 : ... .. . ... ... ... : E-3 09 . ... ... ... ... : D-3 01 . ... ... : E-# 14 . ... : ... .. . ...
ROW 27 : ... .. . ... ... ... : ... .. . ... ... ... ... : ... .. . ... ... : ... .. . ... : ... .. . ...
ROW 28 : ... .. . ... ... ... : F-3 09 . ... ... ... ... : ... .. . ... ... : 8-# 0D F ... : ... .. . ...
ROW 29 : ... .. . ... ... ... : ... .. . ... ... ... ... : ... .. . ... ... : ... .. . ... : ... .. . ...
ROW 2A : ... .. . ... ... ... : G-3 09 . ... ... ... ... : ... .. . ... ... : F-# 12 A ... : ... .. . ...
ROW 2B : ... .. . ... ... ... : ... .. . ... ... ... ... : --- .. . ... ... : ... .. . ... : ... .. . ...
ROW 2C : ... .. . ... ... ... : A-3 09 . ... ... ... ... : E-3 01 . ... ... : E-# 14 D ... : ... .. . ...
ROW 2D : ... .. . ... ... ... : ... .. . ... ... ... ... : ... .. . ... ... : ... .. . ... : ... .. . ...
ROW 2E : ... .. . ... ... ... : C-4 09 . ... ... ... ... : ... .. . ... ... : F-# 12 A ... : ... .. . ...
ROW 2F : ... .. . ... ... ... : ... .. . ... ... ... ... : ... .. . ... ... : ... .. . ... : ... .. . ...
ROW 30 : ... .. . ... ... ... : D-4 09 . ... ... ... ... : ... .. . ... ... : 2-# 0A F ... : ... .. . ...
ROW 31 : ... .. . ... ... ... : ... .. . ... ... ... ... : ... .. . ... ... : ... .. . ... : ... .. . ...
ROW 32 : ... .. . ... ... ... : C-4 09 . ... ... ... ... : ... .. . ... ... : E-# 14 D ... : ... .. . ...
ROW 33 : ... .. . ... ... ... : ... .. . ... ... ... ... : --- .. . ... ... : ... .. . ... : ... .. . ...
ROW 34 : ... .. . ... ... ... : A-3 09 . ... ... ... ... : D-3 01 . ... ... : E-# 14 . ... : ... .. . ...
ROW 35 : ... .. . ... ... ... : ... .. . ... ... ... ... : ... .. . ... ... : ... .. . ... : ... .. . ...
ROW 36 : ... .. . ... ... ... : G-3 09 . ... ... ... ... : ... .. . ... ... : E-# 12 A ... : ... .. . ...
ROW 37 : ... .. . ... ... ... : ... .. . ... ... ... ... : ... .. . ... ... : ... .. . ... : ... .. . ...
ROW 38 : ... .. . ... ... ... : F-3 09 . ... ... ... ... : ... .. . ... ... : 8-# 0D F ... : ... .. . ...
ROW 39 : ... .. . ... ... ... : ... .. . ... ... ... ... : --- .. . ... ... : ... .. . ... : ... .. . ...
ROW 3A : ... .. . ... ... ... : E-3 09 . ... ... ... ... : A-2 01 . ... ... : E-# 12 A ... : ... .. . ...
ROW 3B : ... .. . ... ... ... : ... .. . ... ... ... ... : ... .. . ... ... : ... .. . ... : ... .. . ...
ROW 3C : ... .. . ... ... ... : D-3 09 . ... ... ... ... : ... .. . ... ... : E-# 14 D ... : ... .. . ...
ROW 3D : ... .. . ... ... ... : ... .. . ... ... ... ... : ... .. . ... ... : ... .. . ... : ... .. . ...
ROW 3E : ... .. . ... ... ... : C-3 09 . ... ... ... ... : ... .. . ... ... : E-# 12 A ... : ... .. . ...
ROW 3F : ... .. . ... ... ... : ... .. . ... ... ... ... : --- .. . ... ... : ... .. . ... : ... .. . ...

PATTERN 06
ROW 00 : D-2 01 A V00 400 ... : A-2 09 7 V02 P81 400 ... : C-3 01 . ... ... : 2-# 0A F ... : ... .. . ...
ROW 01 : ... .. . ... ... ... : ... .. . ... ... ... ... : D-3 01 . ... ... : ... .. . ... : ... .. . ...
ROW 02 : ... .. . ... ... M62 : C-3 09 . ... ... ... ... : ... .. . ... ... : F-# 12 A ... : ... .. . ...
ROW 03 : ... .. . ... ... ... : ... .. . ... ... ... ... : ... .. . ... ... : ... .. . ... : ... .. . ...
ROW 04 : A-1 01 . ... ... ... : D-3 09 . ... ... ... ... : --- .. . ... ... : E-# 14 D ... : ... .. . ...
ROW 05 : ... .. . ... ... ... : ... .. . ... ... ... ... : ... .. . ... ... : ... .. . ... : ... .. . ...
ROW 06 : ... .. 2 ... ... ... : E-3 09 . ... ... ... ... : D-3 01 . ... ... : E-# 14 . ... : ... .. . ...
ROW 07 : ... .. . ... ... ... : ... .. . ... ... ... ... : ... .. . ... ... : ... .. . ... : ... .. . ...
ROW 08 : A-1 01 A ... ... ... : F-3 09 . ... ... ... ... : ... .. . ... ... : 8-# 0D F ... : ... .. . ...
ROW 09 : ... .. . ... ... ... : ... .. . ... ... ... ... : ... .. . ... ... : ... .. . ... : ... .. . ...
ROW 0A : ... .. 2 ... ... ... : G-3 09 . ... ... ... ... : ... .. . ... ... : F-# 12 A ... : ... .. . ...
ROW 0B : ... .. . ... ... ... : ... .. . ... ... ... ... : --- .. . ... ... : ... .. . ... : ... .. . ...
ROW 0C : A-1 01 A ... ... ... : A-3 09 . ... ... ... ... : A-2 01 . ... ... : E-# 14 D ... : ... .. . ...
ROW 0D : ... .. 2 ... ... ... : ... .. . ... ... ... ... : ... .. . ... ... : ... .. . ... : ... .. . ...
ROW 0E : A-1 01 A ... ... ... : C-4 09 . ... ... ... ... : ... .. . ... ... : F-# 12 A ... : ... .. . ...
ROW 0F : ... .. 2 ... ... ... : ... .. . ... ... ... ... : ... .. . ... ... : ... .. . ... : ... .. . ...
ROW 10 : A-1 01 7 ... ... ... : D-4 09 . ... ... ... ... : ... .. . ... ... : 2-# 0A F ... : ... .. . ...
ROW 11 : ... .. 2 ... ... ... : ... .. . ... ... ... ... : ... .. . ... ... : ... .. . ... : ... .. . ...
ROW 12 : A-1 01 A ... ... ... : C-4 09 . ... ... ... ... : ... .. . ... ... : E-# 14 D ... : ... .. . ...
ROW 13 : ... .. 2 ... ... ... : ... .. . ... ... ... ... : --- .. . ... ... : ... .. . ... : ... .. . ...
ROW 14 : A-1 01 A ... ... ... : A-3 09 . ... ... ... ... : D-3 01 . ... ... : E-# 14 . ... : ... .. . ...
ROW 15 : ... .. 2 ... ... ... : ... .. . ... ... ... ... : ... .. . ... ... : ... .. . ... : ... .. . ...
ROW 16 : --- .. . ... ... ... : G-3 09 . ... ... ... ... : ... .. . ... ... : E-# 12 A ... : ... .. . ...
ROW 17 : ... .. . ... ... ... : ... .. . ... ... ... ... : ... .. . ... ... : ... .. . ... : ... .. . ...
ROW 18 : D-2 01 A ... ... ... : F-3 09 . ... ... ... ... : ... .. . ... ... : 8-# 0D F ... : ... .. . ...
ROW 19 : ... .. . ... ... ... : ... .. . ... ... ... ... : --- .. . ... ... : ... .. . ... : ... .. . ...
ROW 1A : ... .. . ... ... M62 : E-3 09 . ... ... ... ... : D-3 01 . ... ... : E-# 12 A ... : ... .. . ...
ROW 1B : ... .. . ... ... ... : ... .. . ... ... ... ... : ... .. . ... ... : ... .. . ... : ... .. . ...
ROW 1C : A-1 01 4 ... ... ... : D-3 09 . ... ... ... ... : ... .. . ... ... : E-# 14 D ... : ... .. . ...
ROW 1D : ... .. . ... ... ... : ... .. . ... ... ... ... : ... .. . ... ... : ... .. . ... : ... .. . ...
ROW 1E : ... .. . ... ... M62 : C-3 09 . ... ... ... ... : ... .. . ... ... : E-# 12 A ... : ... .. . ...
ROW 1F : ... .. . ... ... ... : ... .. . ... ... ... ... : --- .. . ... ... : ... .. . ... : ... .. . ...
ROW 20 : D-2 01 A ... ... ... : A-2 09 . ... ... ... ... : D-3 01 . ... ... : 2-# 0A F ... : ... .. . ...
ROW 21 : ... .. . ... ... ... : ... .. . ... ... ... ... : ... .. . ... ... : ... .. . ... : ... .. . ...
ROW 22 : ... .. . ... ... M62 : C-3 09 . ... ... ... ... : ... .. . ... ... : F-# 12 A ... : ... .. . ...
ROW 23 : ... .. . ... ... ... : ... .. . ... ... ... ... : ... .. . ... ... : ... .. . ... : ... .. . ...
ROW 24 : A-1 01 . ... ... ... : D-3 09 . ... ... ... ... : --- .. . ... ... : E-# 14 D ... : ... .. . ...
ROW 25 : ... .. . ... ... ... : ... .. . ... ... ... ... : ... .. . ... ... : ... .. . ... : ... .. . ...
ROW 26 : ... .. 2 ... ... ... : E-3 09 . ... ... ... ... : D-3 01 . ... ... : E-# 14 . ... : ... .. . ...
ROW 27 : ... .. . ... ... ... : ... .. . ... ... ... ... : ... .. . ... ... : ... .. . ... : ... .. . ...
ROW 28 : A-1 01 A ... ... ... : F-3 09 . ... ... ... ... : ... .. . ... ... : 8-# 0D F ... : ... .. . ...
ROW 29 : ... .. . ... ... ... : ... .. . ... ... ... ... : ... .. . ... ... : ... .. . ... : ... .. . ...
ROW 2A : ... .. 2 ... ... ... : G-3 09 . ... ... ... ... : ... .. . ... ... : F-# 12 A ... : ... .. . ...
ROW 2B : ... .. . ... ... ... : ... .. . ... ... ... ... : --- .. . ... ... : ... .. . ... : ... .. . ...
ROW 2C : A-1 01 A ... ... ... : A-3 09 . ... ... ... ... : E-3 01 . ... ... : E-# 14 D ... : ... .. . ...
ROW 2D : ... .. 2 ... ... ... : ... .. . ... ... ... ... : ... .. . ... ... : ... .. . ... : ... .. . ...
ROW 2E : A-1 01 A ... ... ... : C-4 09 . ... ... ... ... : ... .. . ... ... : F-# 12 A ... : ... .. . ...
ROW 2F : ... .. 2 ... ... ... : ... .. . ... ... ... ... : ... .. . ... ... : ... .. . ... : ... .. . ...
ROW 30 : D-3 01 D V01 ... ... : D-4 09 . ... ... ... ... : ... .. . ... ... : 2-# 0A F ... : ... .. . ...
ROW 31 : === .. . ... G02 ... : ... .. . ... ... ... ... : ... .. . ... ... : ... .. . ... : ... .. . ...
ROW 32 : E-3 01 . ... G02 ... : C-4 09 . ... ... ... ... : ... .. . ... ... : E-# 14 D ... : ... .. . ...
ROW 33 : ... .. . ... ... ... : ... .. . ... ... ... ... : --- .. . ... ... : ... .. . ... : ... .. . ...
ROW 34 : === .. . ... G01 ... : A-3 09 . ... ... ... ... : D-3 01 . ... ... : E-# 14 . ... : ... .. . ...
ROW 35 : F-3 01 . ... G01 ... : ... .. . ... ... ... ... : ... .. . ... ... : ... .. . ... : ... .. . ...
ROW 36 : ... .. . ... ... ... : G-3 09 . ... ... ... ... : ... .. . ... ... : E-# 12 A ... : ... .. . ...
ROW 37 : === .. . ... ... ... : ... .. . ... ... ... ... : ... .. . ... ... : ... .. . ... : ... .. . ...
ROW 38 : G-3 01 . ... ... T32 : F-3 09 . ... ... ... ... : ... .. . ... ... : 8-# 0D F ... : ... .. . ...
ROW 39 : ... .. . ... ... ... : ... .. . ... ... ... ... : --- .. . ... ... : ... .. . ... : ... .. . ...
ROW 3A : ... .. . ... ... ... : E-3 09 . ... ... ... ... : A-2 01 . ... ... : E-# 12 A ... : ... .. . ...
ROW 3B : ... .. . ... ... ... : ... .. . ... ... ... ... : ... .. . ... ... : ... .. . ... : ... .. . ...
ROW 3C : ... .. . ... ... ... : D-3 09 . ... ... ... ... : ... .. . ... ... : E-# 14 D ... : ... .. . ...
ROW 3D : ... .. . ... ... ... : ... .. . ... ... ... ... : ... .. . ... ... : ... .. . ... : ... .. . ...
ROW 3E : === .. . ... ... ... : C-3 09 . ... ... ... ... : ... .. . ... ... : E-# 12 A ... : ... .. . ...
ROW 3F : ... .. . ... ... ... : ... .. . ... ... ... ... : --- .. . ... ... : ... .. . ... : ... .. . ...

PATTERN 07
ROW 00 : C-4 01 D V01 400 ... : A-2 09 7 V02 P81 400 ... : F-2 01 . ... ... : 2-# 0A F ... : ... .. . ...
ROW 01 : ... .. . ... ... ... : ... .. . ... ... ... ... : G-2 01 . ... ... : ... .. . ... : ... .. . ...
ROW 02 : ... .. . ... ... ... : C-3 09 . ... ... ... ... : ... .. . ... ... : F-# 12 A ... : ... .. . ...
ROW 03 : ... .. . ... ... ... : ... .. . ... ... ... ... : ... .. . ... ... : ... .. . ... : ... .. . ...
ROW 04 : ... .. . ... ... ... : D-3 09 . ... ... ... ... : --- .. . ... ... : E-# 14 D ... : ... .. . ...
ROW 05 : ... .. . ... ... ... : ... .. . ... ... ... ... : ... .. . ... ... : ... .. . ... : ... .. . ...
ROW 06 : ... .. . ... 464 ... : E-3 09 . ... ... ... ... : G-2 01 . ... ... : E-# 14 . ... : ... .. . ...
ROW 07 : ... .. . ... ... ... : ... .. . ... ... ... ... : ... .. . ... ... : ... .. . ... : ... .. . ...
ROW 08 : ... .. . ... ... ... : F-3 09 . ... ... ... ... : ... .. . ... ... : 8-# 0D F ... : ... .. . ...
ROW 09 : ... .. . ... ... ... : ... .. . ... ... ... ... : ... .. . ... ... : ... .. . ... : ... .. . ...
ROW 0A : ... .. . ... ... ... : G-3 09 . ... ... ... ... : ... .. . ... ... : F-# 12 A ... : ... .. . ...
ROW 0B : ... .. . ... ... ... : ... .. . ... ... ... ... : --- .. . ... ... : ... .. . ... : ... .. . ...
ROW 0C : ... .. . ... ... ... : A-3 09 . ... ... ... ... : D-3 01 . ... ... : E-# 14 D ... : ... .. . ...
ROW 0D : ... .. . ... ... ... : ... .. . ... ... ... ... : ... .. . ... ... : ... .. . ... : ... .. . ...
ROW 0E : === .. . ... ... ... : C-4 09 . ... ... ... ... : ... .. . ... ... : F-# 12 A ... : ... .. . ...
ROW 0F : ... .. . ... ... ... : ... .. . ... ... ... ... : ... .. . ... ... : ... .. . ... : ... .. . ...
ROW 10 : A-3 01 . ... 400 ... : D-4 09 . ... ... ... ... : ... .. . ... ... : 2-# 0A F ... : ... .. . ...
ROW 11 : === .. . ... G02 ... : ... .. . ... ... ... ... : ... .. . ... ... : ... .. . ... : ... .. . ...
ROW 12 : C-4 01 . ... G02 ... : C-4 09 . ... ... ... ... : ... .. . ... ... : E-# 14 D ... : ... .. . ...
ROW 13 : ... .. . ... ... ... : ... .. . ... ... ... ... : --- .. . ... ... : ... .. . ... : ... .. . ...
ROW 14 : === .. . ... G01 ... : A-3 09 . ... ... ... ... : G-2 01 . ... ... : E-# 14 . ... : ... .. . ...
ROW 15 : D-4 01 . ... G01 ... : ... .. . ... ... ... ... : ... .. . ... ... : ... .. . ... : ... .. . ...
ROW 16 : ... .. . ... ... ... : G-3 09 . ... ... ... ... : ... .. . ... ... : E-# 12 A ... : ... .. . ...
ROW 17 : === .. . ... ... ... : ... .. . ... ... ... ... : ... .. . ... ... : ... .. . ... : ... .. . ...
ROW 18 : G-3 01 . ... ... T32 : F-3 09 . ... ... ... ... : ... .. . ... ... : 8-# 0D F ... : ... .. . ...
ROW 19 : ... .. . ... ... ... : ... .. . ... ... ... ... : --- .. . ... ... : ... .. . ... : ... .. . ...
ROW 1A : ... .. . ... ... ... : E-3 09 . ... ... ... ... : G-2 01 . ... ... : E-# 12 A ... : ... .. . ...
ROW 1B : ... .. . ... ... ... : ... .. . ... ... ... ... : ... .. . ... ... : ... .. . ... : ... .. . ...
ROW 1C : ... .. . ... ... ... : D-3 09 . ... ... ... ... : ... .. . ... ... : E-# 14 D ... : ... .. . ...
ROW 1D : ... .. . ... ... ... : ... .. . ... ... ... ... : ... .. . ... ... : ... .. . ... : ... .. . ...
ROW 1E : ... .. . ... ... ... : C-3 09 . ... ... ... ... : ... .. . ... ... : E-# 12 A ... : ... .. . ...
ROW 1F : ... .. . ... ... ... : ... .. . ... ... ... ... : --- .. . ... ... : ... .. . ... : ... .. . ...
ROW 20 : ... .. . ... ... ... : A-2 09 . ... ... ... ... : G-2 01 . ... ... : 2-# 0A F ... : ... .. . ...
ROW 21 : ... .. . ... ... ... : ... .. . ... ... ... ... : ... .. . ... ... : ... .. . ... : ... .. . ...
ROW 22 : ... .. . ... ... ... : C-3 09 . ... ... ... ... : ... .. . ... ... : F-# 12 A ... : ... .. . ...
ROW 23 : ... .. . ... ... ... : ... .. . ... ... ... ... : ... .. . ... ... : ... .. . ... : ... .. . ...
ROW 24 : ... .. . ... ... ... : D-3 09 . ... ... ... ... : --- .. . ... ... : E-# 14 D ... : ... .. . ...
ROW 25 : ... .. . ... ... ... : ... .. . ... ... ... ... : ... .. . ... ... : ... .. . ... : ... .. . ...
ROW 26 : ... .. . ... ... ... : E-3 09 . ... ... ... ... : G-2 01 . ... ... : E-# 14 . ... : ... .. . ...
ROW 27 : ... .. . ... ... ... : ... .. . ... ... ... ... : ... .. . ... ... : ... .. . ... : ... .. . ...
ROW 28 : ... .. . ... ... ... : F-3 09 . ... ... ... ... : ... .. . ... ... : 8-# 0D F ... : ... .. . ...
ROW 29 : ... .. . ... ... ... : ... .. . ... ... ... ... : ... .. . ... ... : ... .. . ... : ... .. . ...
ROW 2A : ... .. . ... ... ... : G-3 09 . ... ... ... ... : ... .. . ... ... : F-# 12 A ... : ... .. . ...
ROW 2B : ... .. . ... ... ... : ... .. . ... ... ... ... : --- .. . ... ... : ... .. . ... : ... .. . ...
ROW 2C : ... .. . ... ... ... : A-3 09 . ... ... ... ... : F-2 01 . ... ... : E-# 14 D ... : ... .. . ...
ROW 2D : ... .. . ... ... ... : ... .. . ... ... ... ... : ... .. . ... ... : ... .. . ... : ... .. . ...
ROW 2E : ... .. . ... ... ... : C-4 09 . ... ... ... ... : ... .. . ... ... : F-# 12 A ... : ... .. . ...
ROW 2F : === .. . ... ... ... : ... .. . ... ... ... ... : ... .. . ... ... : ... .. . ... : ... .. . ...
ROW 30 : E-3 01 . ... ... ... : D-4 09 . ... ... ... ... : ... .. . ... ... : 2-# 0A F ... : ... .. . ...
ROW 31 : === .. . ... G02 ... : ... .. . ... ... ... ... : ... .. . ... ... : ... .. . ... : ... .. . ...
ROW 32 : D-3 01 . ... G02 ... : C-4 09 . ... ... ... ... : ... .. . ... ... : E-# 14 D ... : ... .. . ...
ROW 33 : ... .. . ... ... ... : ... .. . ... ... ... ... : --- .. . ... ... : ... .. . ... : ... .. . ...
ROW 34 : === .. . ... G01 ... : A-3 09 . ... ... ... ... : G-2 01 . ... ... : E-# 14 . ... : ... .. . ...
ROW 35 : E-3 01 . ... G01 ... : ... .. . ... ... ... ... : ... .. . ... ... : ... .. . ... : ... .. . ...
ROW 36 : ... .. . ... ... ... : G-3 09 . ... ... ... ... : ... .. . ... ... : E-# 12 A ... : ... .. . ...
ROW 37 : === .. . ... ... ... : ... .. . ... ... ... ... : ... .. . ... ... : ... .. . ... : ... .. . ...
ROW 38 : F-3 01 . ... ... ... : F-3 09 . ... ... ... ... : ... .. . ... ... : 8-# 0D F ... : ... .. . ...
ROW 39 : ... .. . ... ... ... : ... .. . ... ... ... ... : --- .. . ... ... : ... .. . ... : ... .. . ...
ROW 3A : ... .. . ... ... ... : E-3 09 . ... ... ... ... : D-3 01 . ... ... : E-# 12 A ... : ... .. . ...
ROW 3B : ... .. . ... ... ... : ... .. . ... ... ... ... : ... .. . ... ... : ... .. . ... : ... .. . ...
ROW 3C : ... .. . ... ... ... : D-3 09 . ... ... ... ... : ... .. . ... ... : E-# 14 D ... : ... .. . ...
ROW 3D : ... .. . ... ... ... : ... .. . ... ... ... ... : ... .. . ... ... : ... .. . ... : ... .. . ...
ROW 3E : ... .. . ... ... ... : C-3 09 . ... ... ... ... : ... .. . ... ... : E-# 12 A ... : ... .. . ...
ROW 3F : ... .. . ... ... ... : ... .. . ... ... ... ... : --- .. . ... ... : ... .. . ... : ... .. . ...

PATTERN 08
ROW 00 : ... .. D V01 465 A00 : A-2 09 7 V02 P81 400 ... : F-2 01 . ... ... : 2-# 0A F ... : ... .. . ...
ROW 01 : ... .. . ... ... ... : ... .. . ... ... ... ... : G-2 01 . ... ... : ... .. . ... : ... .. . ...
ROW 02 : ... .. . ... ... ... : C-3 09 . ... ... ... ... : ... .. . ... ... : F-# 12 A ... : ... .. . ...
ROW 03 : ... .. . ... ... ... : ... .. . ... ... ... ... : ... .. . ... ... : ... .. . ... : ... .. . ...
ROW 04 : ... .. . ... ... ... : D-3 09 . ... ... ... ... : --- .. . ... ... : E-# 14 D ... : ... .. . ...
ROW 05 : ... .. . ... ... ... : ... .. . ... ... ... ... : ... .. . ... ... : ... .. . ... : ... .. . ...
ROW 06 : ... .. . ... ... ... : E-3 09 . ... ... ... ... : G-2 01 . ... ... : E-# 14 . ... : ... .. . ...
ROW 07 : === .. . ... ... ... : ... .. . ... ... ... ... : ... .. . ... ... : ... .. . ... : ... .. . ...
ROW 08 : F-3 01 . ... 400 ... : F-3 09 . ... ... ... ... : ... .. . ... ... : 8-# 0D F ... : ... .. . ...
ROW 09 : === .. . ... G02 ... : ... .. . ... ... ... ... : ... .. . ... ... : ... .. . ... : ... .. . ...
ROW 0A : G-3 01 . ... G02 ... : G-3 09 . ... ... ... ... : ... .. . ... ... : F-# 12 A ... : ... .. . ...
ROW 0B : ... .. . ... ... ... : ... .. . ... ... ... ... : --- .. . ... ... : ... .. . ... : ... .. . ...
ROW 0C : === .. . ... G01 ... : A-3 09 . ... ... ... ... : D-3 01 . ... ... : E-# 14 D ... : ... .. . ...
ROW 0D : A-3 01 . ... G01 ... : ... .. . ... ... ... ... : ... .. . ... ... : ... .. . ... : ... .. . ...
ROW 0E : ... .. . ... ... ... : C-4 09 . ... ... ... ... : ... .. . ... ... : F-# 12 A ... : ... .. . ...
ROW 0F : === .. . ... ... ... : ... .. . ... ... ... ... : ... .. . ... ... : ... .. . ... : ... .. . ...
ROW 10 : G-3 01 . ... ... ... : D-4 09 . ... ... ... ... : ... .. . ... ... : 2-# 0A F ... : ... .. . ...
ROW 11 : ... .. . ... ... ... : ... .. . ... ... ... ... : ... .. . ... ... : ... .. . ... : ... .. . ...
ROW 12 : ... .. . ... ... ... : C-4 09 . ... ... ... ... : ... .. . ... ... : E-# 14 D ... : ... .. . ...
ROW 13 : ... .. . ... ... ... : ... .. . ... ... ... ... : --- .. . ... ... : ... .. . ... : ... .. . ...
ROW 14 : ... .. . ... ... ... : A-3 09 . ... ... ... ... : G-2 01 . ... ... : E-# 14 . ... : ... .. . ...
ROW 15 : ... .. . ... ... ... : ... .. . ... ... ... ... : ... .. . ... ... : ... .. . ... : ... .. . ...
ROW 16 : ... .. . ... ... ... : G-3 09 . ... ... ... ... : ... .. . ... ... : E-# 12 A ... : ... .. . ...
ROW 17 : ... .. . ... ... ... : ... .. . ... ... ... ... : ... .. . ... ... : ... .. . ... : ... .. . ...
ROW 18 : ... .. . ... ... ... : F-3 09 . ... ... ... ... : ... .. . ... ... : 8-# 0D F ... : ... .. . ...
ROW 19 : ... .. . ... ... ... : ... .. . ... ... ... ... : --- .. . ... ... : ... .. . ... : ... .. . ...
ROW 1A : ... .. . ... ... ... : E-3 09 . ... ... ... ... : G-2 01 . ... ... : E-# 12 A ... : ... .. . ...
ROW 1B : ... .. . ... ... ... : ... .. . ... ... ... ... : ... .. . ... ... : ... .. . ... : ... .. . ...
ROW 1C : ... .. . ... 465 ... : D-3 09 . ... ... ... ... : ... .. . ... ... : E-# 14 D ... : ... .. . ...
ROW 1D : ... .. . ... ... ... : ... .. . ... ... ... ... : ... .. . ... ... : ... .. . ... : ... .. . ...
ROW 1E : ... .. . ... ... ... : C-3 09 . ... ... ... ... : ... .. . ... ... : E-# 12 A ... : ... .. . ...
ROW 1F : ... .. . ... ... ... : ... .. . ... ... ... ... : --- .. . ... ... : ... .. . ... : ... .. . ...
ROW 20 : ... .. . ... ... ... : A-2 09 . ... ... ... ... : G-2 01 . ... ... : 8-# 0D D ... : ... .. . ...
ROW 21 : ... .. . ... ... ... : ... .. . ... ... ... ... : ... .. . ... ... : ... .. . ... : ... .. . ...
ROW 22 : ... .. . ... ... ... : C-3 09 . ... ... ... ... : ... .. . ... ... : 8-# 0D A ... : ... .. . ...
ROW 23 : ... .. . ... ... ... : ... .. . ... ... ... ... : ... .. . ... ... : ... .. . ... : ... .. . ...
ROW 24 : ... .. . ... ... ... : D-3 09 . ... ... ... ... : ... .. . ... ... : 8-# 0D . ... : ... .. . ...
ROW 25 : ... .. . ... ... ... : ... .. . ... ... ... ... : --- .. . ... ... : ... .. . ... : ... .. . ...
ROW 26 : ... .. . ... ... ... : E-3 09 . ... ... ... ... : G-2 01 . ... ... : E-# 12 2 ... : ... .. . ...
ROW 27 : ... .. . ... ... ... : ... .. . ... ... ... ... : ... .. . ... ... : ... .. . ... : ... .. . ...
ROW 28 : ... .. . ... ... ... : F-3 09 . ... ... ... ... : ... .. . ... ... : 8-# 0D F ... : ... .. . ...
ROW 29 : ... .. . ... ... ... : ... .. . ... ... ... ... : ... .. . ... ... : ... .. . ... : ... .. . ...
ROW 2A : ... .. . ... ... ... : G-3 09 . ... ... ... ... : ... .. . ... ... : E-# 12 2 ... : ... .. . ...
ROW 2B : ... .. . ... ... ... : ... .. . ... ... ... ... : --- .. . ... ... : ... .. . ... : ... .. . ...
ROW 2C : ... .. . ... ... ... : A-3 09 . ... ... ... ... : ... .. . ... ... : 8-# 0D F ... : ... .. . ...
ROW 2D : ... .. . ... ... ... : ... .. . ... ... ... ... : ... .. . ... ... : 8-# 0D A G01 : ... .. . ...
ROW 2E : === .. . ... ... ... : C-4 09 . ... ... ... ... : ... .. . ... ... : 8-# 0D D G02 : ... .. . ...
ROW 2F : ... .. . ... ... ... : ... .. . ... ... ... ... : ... .. . ... ... : ... .. . ... : ... .. . ...
ROW 30 : F-3 01 . V00 400 ... : D-3 01 A V01 ... ... ... : ... .. . ... ... : 8-# 0D . ... : ... .. . ...
ROW 31 : === .. . ... G02 ... : === .. . ... ... G02 ... : ... .. . ... ... : ... .. . ... : ... .. . ...
ROW 32 : F-3 01 . ... G02 ... : D-3 01 . ... ... G02 ... : ... .. . ... ... : E-# 12 2 ... : ... .. . ...
ROW 33 : ... .. . ... ... ... : ... .. . ... ... ... ... : ... .. . ... ... : ... .. . ... : ... .. . ...
ROW 34 : === .. . ... G01 ... : === .. . ... ... G01 ... : G-3 01 . ... ... : 8-# 0D F ... : ... .. . ...
ROW 35 : F-3 01 . ... G01 ... : D-3 01 . ... ... G01 ... : A-3 01 . ... ... : ... .. . ... : ... .. . ...
ROW 36 : ... .. . ... ... ... : ... .. . ... ... ... ... : ... .. . ... ... : E-# 12 2 ... : ... .. . ...
ROW 37 : === .. . ... ... ... : === .. . ... ... ... ... : ... .. . ... ... : ... .. . ... : ... .. . ...
ROW 38 : A#3 01 . ... ... ... : F-3 01 . ... ... ... ... : --- .. . ... ... : 8-# 0D F ... : ... .. . ...
ROW 39 : === .. . ... G02 ... : === .. . ... ... G02 ... : ... .. . ... ... : ... .. . ... : ... .. . ...
ROW 3A : A#3 01 . ... G02 ... : F-3 01 . ... ... G02 ... : D-3 01 . ... ... : 8-# 0D D G02 : ... .. . ...
ROW 3B : ... .. . ... ... ... : ... .. . ... ... ... ... : ... .. . ... ... : ... .. . ... : ... .. . ...
ROW 3C : === .. . ... G01 ... : === .. . ... ... G01 ... : ... .. . ... ... : ... .. . ... : ... .. . ...
ROW 3D : A#3 01 . ... G01 ... : F-3 01 . ... ... G01 ... : ... .. . ... ... : 8-# 0D A G01 : ... .. . ...
ROW 3E : ... .. . ... ... ... : ... .. . ... ... ... ... : ... .. . ... ... : ... .. . ... : ... .. . ...
ROW 3F : === .. . ... ... ... : === .. . ... ... ... ... : --- .. . ... ... : ... .. . ... : ... .. . ...

PATTERN 09
ROW 00 : F-4 01 D V02 400 ... : D#3 01 D V00 P81 400 ... : C-3 01 . ... ... : 8-# 0D D ... : ... .. . ...
ROW 01 : G-4 01 . ... ... ... : ... .. . ... ... ... ... : ... .. . ... ... : ... .. . ... : ... .. . ...
ROW 02 : ... .. . ... ... ... : ... .. . ... ... ... ... : ... .. . ... ... : 8-# 0D A ... : ... .. . ...
ROW 03 : ... .. . ... ... ... : ... .. . ... ... ... ... : ... .. . ... ... : ... .. . ... : ... .. . ...
ROW 04 : ... .. . ... ... ... : === .. . ... ... ... ... : --- .. . ... ... : 8-# 0D . ... : ... .. . ...
ROW 05 : ... .. . ... ... ... : ... .. . ... ... ... ... : ... .. . ... ... : ... .. . ... : ... .. . ...
ROW 06 : ... .. . ... ... ... : D#3 01 . ... ... ... ... : C-3 01 . ... ... : E-# 12 2 ... : ... .. . ...
ROW 07 : ... .. . ... ... ... : ... .. . ... ... ... ... : ... .. . ... ... : ... .. . ... : ... .. . ...
ROW 08 : ... .. . ... ... ... : === .. . ... ... ... ... : ... .. . ... ... : 8-# 0D F ... : ... .. . ...
ROW 09 : ... .. . ... ... ... : ... .. . ... ... ... ... : ... .. . ... ... : ... .. . ... : ... .. . ...
ROW 0A : ... .. . ... ... ... : ... .. . ... ... ... ... : --- .. . ... ... : E-# 12 2 ... : ... .. . ...
ROW 0B : ... .. . ... ... ... : ... .. . ... ... ... ... : ... .. . ... ... : ... .. . ... : ... .. . ...
ROW 0C : ... .. . ... ... ... : D#3 01 . ... ... ... L02 : A#2 01 . S04 ... : 8-# 0D F ... : ... .. . ...
ROW 0D : ... .. . ... ... ... : D#3 01 . ... ... G01 L02 : A#2 01 . S03 G01 : 8-# 0D A G01 : ... .. . ...
ROW 0E : ... .. . ... ... ... : D#3 01 . ... ... G02 L02 : A#2 01 . S04 G02 : 8-# 0D D G02 : ... .. . ...
ROW 0F : ... .. . ... ... ... : ... .. . ... ... ... ... : ... .. . ... ... : ... .. . ... : ... .. . ...
ROW 10 : ... .. . ... 464 ... : F-3 01 . ... ... ... ... : C-3 01 . ... ... : 8-# 0D . ... : ... .. . ...
ROW 11 : ... .. . ... ... ... : ... .. . ... ... ... ... : ... .. . ... ... : ... .. . ... : ... .. . ...
ROW 12 : ... .. . ... ... ... : ... .. . ... ... ... ... : ... .. . ... ... : E-# 12 2 ... : ... .. . ...
ROW 13 : ... .. . ... ... ... : ... .. . ... ... ... ... : ... .. . ... ... : ... .. . ... : ... .. . ...
ROW 14 : ... .. . ... ... ... : ... .. . ... ... ... ... : ... .. . ... ... : 8-# 0D F ... : ... .. . ...
ROW 15 : ... .. . ... ... ... : ... .. . ... ... ... ... : ... .. . ... ... : ... .. . ... : ... .. . ...
ROW 16 : ... .. . ... ... ... : ... .. . ... ... 465 ... : ... .. . ... ... : E-# 12 2 ... : ... .. . ...
ROW 17 : ... .. . ... ... ... : ... .. . ... ... ... ... : ... .. . ... ... : ... .. . ... : ... .. . ...
ROW 18 : ... .. . ... ... ... : ... .. . ... ... ... ... : ... .. . ... ... : 8-# 0D A ... : ... .. . ...
ROW 19 : ... .. . ... ... ... : === .. . ... 400 G01 ... : --- .. . ... G01 : 8-# 0D 7 G01 : ... .. . ...
ROW 1A : ... .. . ... ... ... : F-3 01 . ... ... G01 ... : C-3 01 . ... G01 : 8-# 0D . G02 : ... .. . ...
ROW 1B : ... .. . ... ... ... : ... .. . ... ... ... ... : ... .. . ... ... : ... .. . ... : ... .. . ...
ROW 1C : ... .. . ... ... ... : ... .. . ... ... ... ... : ... .. . ... ... : 8-# 0D A ... : ... .. . ...
ROW 1D : ... .. . ... ... ... : ... .. . ... ... ... ... : ... .. . ... ... : 8-# 0D D G01 : ... .. . ...
ROW 1E : ... .. . ... ... ... : ... .. . ... ... ... ... : ... .. . ... ... : 8-# 0D F G02 : ... .. . ...
ROW 1F : ... .. . ... ... ... : === .. . ... ... ... ... : --- .. . ... ... : ... .. . ... : ... .. . ...
ROW 20 : ... .. . ... ... ... : D#3 01 . ... ... ... ... : C-3 01 . ... ... : 8-# 0D D ... : ... .. . ...
ROW 21 : ... .. . ... ... ... : ... .. . ... ... ... ... : ... .. . ... ... : ... .. . ... : ... .. . ...
ROW 22 : ... .. . ... ... ... : ... .. . ... ... ... ... : ... .. . ... ... : 8-# 0D A ... : ... .. . ...
ROW 23 : ... .. . ... ... ... : ... .. . ... ... ... ... : ... .. . ... ... : ... .. . ... : ... .. . ...
ROW 24 : ... .. . ... ... ... : === .. . ... ... ... ... : --- .. . ... ... : 8-# 0D . ... : ... .. . ...
ROW 25 : ... .. . ... ... ... : ... .. . ... ... ... ... : ... .. . ... ... : ... .. . ... : ... .. . ...
ROW 26 : ... .. . ... ... ... : D#3 01 . ... ... ... ... : C-3 01 . ... ... : E-# 12 2 ... : ... .. . ...
ROW 27 : ... .. . ... ... ... : ... .. . ... ... ... ... : ... .. . ... ... : ... .. . ... : ... .. . ...
ROW 28 : ... .. . ... ... ... : === .. . ... ... ... ... : ... .. . ... ... : 8-# 0D F ... : ... .. . ...
ROW 29 : ... .. . ... ... ... : ... .. . ... ... ... ... : ... .. . ... ... : ... .. . ... : ... .. . ...
ROW 2A : ... .. . ... ... ... : D#3 01 . ... ... G02 ... : --- .. . ... ... : E-# 12 2 ... : ... .. . ...
ROW 2B : ... .. . ... ... ... : ... .. . ... ... ... ... : ... .. . ... ... : ... .. . ... : ... .. . ...
ROW 2C : ... .. . ... ... ... : === .. . ... ... G01 ... : ... .. . ... ... : 8-# 0D F ... : ... .. . ...
ROW 2D : ... .. . ... ... ... : D#3 01 . ... ... G01 ... : A#2 01 . ... G01 : 8-# 0D A G01 : ... .. . ...
ROW 2E : === .. . ... ... ... : ... .. . ... ... ... ... : ... .. . ... ... : 8-# 0D D G02 : ... .. . ...
ROW 2F : ... .. . ... ... ... : === .. . ... ... ... ... : --- .. . ... ... : ... .. . ... : ... .. . ...
ROW 30 : G-3 01 . V00 400 ... : D#3 01 A V01 ... ... ... : F-3 01 . ... ... : 8-# 0D . ... : ... .. . ...
ROW 31 : === .. . ... G02 ... : === .. . ... ... G02 ... : ... .. . ... ... : ... .. . ... : ... .. . ...
ROW 32 : F-3 01 . ... G02 ... : D-3 01 . ... ... G02 ... : ... .. . ... ... : E-# 12 2 ... : ... .. . ...
ROW 33 : ... .. . ... ... ... : ... .. . ... ... ... ... : ... .. . ... ... : ... .. . ... : ... .. . ...
ROW 34 : === .. . ... G01 ... : === .. . ... ... G01 ... : ... .. . ... ... : 8-# 0D F ... : ... .. . ...
ROW 35 : F-3 01 . ... G01 ... : D-3 01 . ... ... G01 ... : ... .. . ... ... : ... .. . ... : ... .. . ...
ROW 36 : ... .. . ... ... ... : ... .. . ... ... ... ... : ... .. . ... ... : E-# 12 2 ... : ... .. . ...
ROW 37 : === .. . ... ... ... : === .. . ... ... ... ... : ... .. . ... ... : ... .. . ... : ... .. . ...
ROW 38 : D#3 01 . ... ... ... : C-3 01 . ... ... ... ... : ... .. . ... ... : 8-# 0D F ... : ... .. . ...
ROW 39 : ... .. . ... ... ... : ... .. . ... ... ... ... : --- .. . ... G01 : ... .. . ... : ... .. . ...
ROW 3A : ... .. . ... ... ... : ... .. . ... ... ... ... : F-3 01 . ... G01 : 8-# 0D D G02 : ... .. . ...
ROW 3B : ... .. . ... ... ... : ... .. . ... ... ... ... : ... .. . ... ... : ... .. . ... : ... .. . ...
ROW 3C : === .. . ... G01 ... : === .. . ... ... G01 ... : ... .. . ... ... : ... .. . ... : ... .. . ...
ROW 3D : D#3 01 . ... G01 ... : C-3 01 . ... ... G01 ... : ... .. . ... ... : 8-# 0D A G01 : ... .. . ...
ROW 3E : ... .. . ... ... ... : ... .. . ... ... ... ... : ... .. . ... ... : ... .. . ... : ... .. . ...
ROW 3F : === .. . ... ... ... : === .. . ... ... ... ... : --- .. . ... ... : ... .. . ... : ... .. . ...

PATTERN 0A
ROW 00 : E-4 01 D V02 400 ... : F#3 01 D V00 P81 400 ... : B-2 01 . ... ... : 8-# 0D D ... : ... .. . ...
ROW 01 : F#4 01 . ... ... ... : ... .. . ... ... ... ... : ... .. . ... ... : ... .. . ... : ... .. . ...
ROW 02 : ... .. . ... ... ... : ... .. . ... ... ... ... : ... .. . ... ... : 8-# 0D A ... : ... .. . ...
ROW 03 : ... .. . ... ... ... : ... .. . ... ... ... ... : ... .. . ... ... : ... .. . ... : ... .. . ...
ROW 04 : ... .. . ... ... ... : === .. . ... ... ... ... : --- .. . ... ... : 8-# 0D . ... : ... .. . ...
ROW 05 : ... .. . ... ... ... : ... .. . ... ... ... ... : ... .. . ... ... : ... .. . ... : ... .. . ...
ROW 06 : ... .. . ... ... ... : F#3 01 . ... ... ... ... : B-2 01 . ... ... : E-# 12 2 ... : ... .. . ...
ROW 07 : ... .. . ... ... ... : ... .. . ... ... ... ... : ... .. . ... ... : ... .. . ... : ... .. . ...
ROW 08 : ... .. . ... ... ... : === .. . ... ... ... ... : ... .. . ... ... : 8-# 0D F ... : ... .. . ...
ROW 09 : ... .. . ... ... ... : ... .. . ... ... ... ... : ... .. . ... ... : ... .. . ... : ... .. . ...
ROW 0A : ... .. . ... ... ... : ... .. . ... ... ... ... : --- .. . ... ... : E-# 12 2 ... : ... .. . ...
ROW 0B : ... .. . ... ... ... : ... .. . ... ... ... ... : ... .. . ... ... : ... .. . ... : ... .. . ...
ROW 0C : ... .. . ... ... ... : F#3 01 . ... ... ... L02 : B-2 01 . S04 ... : 8-# 0D F ... : ... .. . ...
ROW 0D : ... .. . ... ... ... : F#3 01 . ... ... G01 L02 : B-2 01 . S03 G01 : 8-# 0D A G01 : ... .. . ...
ROW 0E : ... .. . ... ... ... : F#3 01 . ... ... G02 L02 : B-2 01 . S04 G02 : 8-# 0D D G02 : ... .. . ...
ROW 0F : ... .. . ... ... ... : ... .. . ... ... ... ... : ... .. . ... ... : ... .. . ... : ... .. . ...
ROW 10 : ... .. . ... 464 ... : G#3 01 . ... ... ... ... : C#3 01 . ... ... : 8-# 0D . ... : ... .. . ...
ROW 11 : ... .. . ... ... ... : ... .. . ... ... ... ... : ... .. . ... ... : ... .. . ... : ... .. . ...
ROW 12 : ... .. . ... ... ... : ... .. . ... ... ... ... : ... .. . ... ... : E-# 12 2 ... : ... .. . ...
ROW 13 : ... .. . ... ... ... : ... .. . ... ... ... ... : ... .. . ... ... : ... .. . ... : ... .. . ...
ROW 14 : ... .. . ... ... ... : ... .. . ... ... ... ... : ... .. . ... ... : 8-# 0D F ... : ... .. . ...
ROW 15 : ... .. . ... ... ... : ... .. . ... ... ... ... : ... .. . ... ... : ... .. . ... : ... .. . ...
ROW 16 : ... .. . ... ... ... : ... .. . ... ... 465 ... : ... .. . ... ... : E-# 12 2 ... : ... .. . ...
ROW 17 : ... .. . ... ... ... : ... .. . ... ... ... ... : ... .. . ... ... : ... .. . ... : ... .. . ...
ROW 18 : ... .. . ... ... ... : ... .. . ... ... ... ... : ... .. . ... ... : 8-# 0D A ... : ... .. . ...
ROW 19 : ... .. . ... ... ... : === .. . ... 400 G01 ... : --- .. . ... G01 : 8-# 0D 7 G01 : ... .. . ...
ROW 1A : ... .. . ... ... ... : G#3 01 . ... ... G01 ... : C#3 01 . ... G01 : 8-# 0D . G02 : ... .. . ...
ROW 1B : ... .. . ... ... ... : ... .. . ... ... ... ... : ... .. . ... ... : ... .. . ... : ... .. . ...
ROW 1C : ... .. . ... ... ... : ... .. . ... ... ... ... : ... .. . ... ... : 8-# 0D A ... : ... .. . ...
ROW 1D : ... .. . ... ... ... : ... .. . ... ... ... ... : ... .. . ... ... : 8-# 0D D G01 : ... .. . ...
ROW 1E : ... .. . ... ... ... : ... .. . ... ... ... ... : ... .. . ... ... : 8-# 0D F G02 : ... .. . ...
ROW 1F : ... .. . ... ... ... : === .. . ... ... ... ... : --- .. . ... ... : ... .. . ... : ... .. . ...
ROW 20 : ... .. . ... ... ... : F#3 01 . ... ... ... ... : B-2 01 . ... ... : 8-# 0D D ... : ... .. . ...
ROW 21 : ... .. . ... ... ... : ... .. . ... ... ... ... : ... .. . ... ... : ... .. . ... : ... .. . ...
ROW 22 : ... .. . ... ... ... : ... .. . ... ... ... ... : ... .. . ... ... : 8-# 0D A ... : ... .. . ...
ROW 23 : ... .. . ... ... ... : ... .. . ... ... ... ... : ... .. . ... ... : ... .. . ... : ... .. . ...
ROW 24 : ... .. . ... ... ... : === .. . ... ... ... ... : --- .. . ... ... : 8-# 0D . ... : ... .. . ...
ROW 25 : ... .. . ... ... ... : ... .. . ... ... ... ... : ... .. . ... ... : ... .. . ... : ... .. . ...
ROW 26 : ... .. . ... ... ... : F#3 01 . ... ... ... ... : B-2 01 . ... ... : E-# 12 2 ... : ... .. . ...
ROW 27 : ... .. . ... ... ... : ... .. . ... ... ... ... : ... .. . ... ... : ... .. . ... : ... .. . ...
ROW 28 : ... .. . ... ... ... : === .. . ... ... ... ... : ... .. . ... ... : 8-# 0D F ... : ... .. . ...
ROW 29 : ... .. . ... ... ... : ... .. . ... ... ... ... : ... .. . ... ... : ... .. . ... : ... .. . ...
ROW 2A : ... .. . ... ... ... : F#3 01 . ... ... G02 ... : --- .. . ... ... : E-# 12 2 ... : ... .. . ...
ROW 2B : ... .. . ... ... ... : ... .. . ... ... ... ... : ... .. . ... ... : ... .. . ... : ... .. . ...
ROW 2C : ... .. . ... ... ... : === .. . ... ... G01 ... : ... .. . ... ... : 8-# 0D F ... : ... .. . ...
ROW 2D : ... .. . ... ... ... : F#3 01 . ... ... G01 ... : B-2 01 . ... G01 : 8-# 0D A G01 : ... .. . ...
ROW 2E : === .. . ... ... ... : ... .. . ... ... ... ... : ... .. . ... ... : 8-# 0D D G02 : ... .. . ...
ROW 2F : ... .. . ... ... ... : === .. . ... ... ... ... : --- .. . ... ... : ... .. . ... : ... .. . ...
ROW 30 : G#3 01 . V00 400 Q12 : F-3 01 A V01 ... 400 Q12 : G#3 01 . ... ... : 8-# 0D . ... : ... .. . ...
ROW 31 : ... .. . ... ... ... : ... .. . ... ... ... ... : ... .. . ... ... : ... .. . ... : ... .. . ...
ROW 32 : ... .. . ... ... ... : ... .. . ... ... ... ... : ... .. . ... ... : E-# 12 2 ... : ... .. . ...
ROW 33 : ... .. . ... ... ... : ... .. . ... ... ... ... : ... .. . ... ... : ... .. . ... : ... .. . ...
ROW 34 : ... .. . ... ... ... : ... .. . ... ... ... ... : ... .. . ... ... : 8-# 0D F ... : ... .. . ...
ROW 35 : ... .. . ... ... ... : ... .. . ... ... ... ... : ... .. . ... ... : ... .. . ... : ... .. . ...
ROW 36 : ... .. . ... ... ... : ... .. . ... ... ... ... : ... .. . ... ... : E-# 12 2 ... : ... .. . ...
ROW 37 : === .. . ... ... ... : === .. . ... ... ... ... : ... .. . ... ... : ... .. . ... : ... .. . ...
ROW 38 : G#3 01 . ... ... ... : F-3 01 . ... ... ... ... : ... .. . ... ... : 8-# 0D F ... : ... .. . ...
ROW 39 : ... .. . ... ... ... : ... .. . ... ... ... ... : --- .. . ... G01 : ... .. . ... : ... .. . ...
ROW 3A : ... .. . ... ... ... : ... .. . ... ... ... ... : G#3 01 . ... G01 : 8-# 0D D G02 : ... .. . ...
ROW 3B : ... .. . ... ... ... : ... .. . ... ... ... ... : ... .. . ... ... : ... .. . ... : ... .. . ...
ROW 3C : ... .. . ... ... ... : ... .. . ... ... ... ... : ... .. . ... ... : ... .. . ... : ... .. . ...
ROW 3D : ... .. . ... ... ... : ... .. . ... ... ... ... : ... .. . ... ... : 8-# 0D A G01 : ... .. . ...
ROW 3E : ... .. . ... ... ... : ... .. . ... ... ... ... : ... .. . ... ... : ... .. . ... : ... .. . ...
ROW 3F : === .. . ... ... ... : === .. . ... ... ... ... : --- .. . ... ... : ... .. . ... : ... .. . ...

PATTERN 0B
ROW 00 : F-4 01 D V02 400 ... : D#3 01 D V00 P81 400 ... : C-3 01 . ... ... : 8-# 0D D ... : ... .. . ...
ROW 01 : G-4 01 . ... ... ... : ... .. . ... ... ... ... : ... .. . ... ... : ... .. . ... : ... .. . ...
ROW 02 : ... .. . ... ... ... : ... .. . ... ... ... ... : ... .. . ... ... : 8-# 0D A ... : ... .. . ...
ROW 03 : ... .. . ... ... ... : ... .. . ... ... ... ... : ... .. . ... ... : ... .. . ... : ... .. . ...
ROW 04 : ... .. . ... ... ... : === .. . ... ... ... ... : --- .. . ... ... : 8-# 0D . ... : ... .. . ...
ROW 05 : ... .. . ... ... ... : ... .. . ... ... ... ... : ... .. . ... ... : ... .. . ... : ... .. . ...
ROW 06 : ... .. . ... ... ... : D#3 01 . ... ... ... ... : C-3 01 . ... ... : E-# 12 2 ... : ... .. . ...
ROW 07 : ... .. . ... ... ... : ... .. . ... ... ... ... : ... .. . ... ... : ... .. . ... : ... .. . ...
ROW 08 : ... .. . ... ... ... : === .. . ... ... ... ... : ... .. . ... ... : 8-# 0D F ... : ... .. . ...
ROW 09 : ... .. . ... ... ... : ... .. . ... ... ... ... : ... .. . ... ... : ... .. . ... : ... .. . ...
ROW 0A : ... .. . ... ... ... : ... .. . ... ... ... ... : --- .. . ... ... : E-# 12 2 ... : ... .. . ...
ROW 0B : ... .. . ... ... ... : ... .. . ... ... ... ... : ... .. . ... ... : ... .. . ... : ... .. . ...
ROW 0C : ... .. . ... ... ... : D#3 01 . ... ... ... L02 : A#2 01 . S04 ... : 8-# 0D F ... : ... .. . ...
ROW 0D : ... .. . ... ... ... : D#3 01 . ... ... G01 L02 : A#2 01 . S03 G01 : 8-# 0D A G01 : ... .. . ...
ROW 0E : ... .. . ... ... ... : D#3 01 . ... ... G02 L02 : A#2 01 . S04 G02 : 8-# 0D D G02 : ... .. . ...
ROW 0F : ... .. . ... ... ... : ... .. . ... ... ... ... : ... .. . ... ... : ... .. . ... : ... .. . ...
ROW 10 : ... .. . ... 464 ... : F-3 01 . ... ... ... ... : C-3 01 . ... ... : 8-# 0D . ... : ... .. . ...
ROW 11 : ... .. . ... ... ... : ... .. . ... ... ... ... : ... .. . ... ... : ... .. . ... : ... .. . ...
ROW 12 : ... .. . ... ... ... : ... .. . ... ... ... ... : ... .. . ... ... : E-# 12 2 ... : ... .. . ...
ROW 13 : ... .. . ... ... ... : ... .. . ... ... ... ... : ... .. . ... ... : ... .. . ... : ... .. . ...
ROW 14 : ... .. . ... ... ... : ... .. . ... ... ... ... : ... .. . ... ... : 8-# 0D F ... : ... .. . ...
ROW 15 : ... .. . ... ... ... : ... .. . ... ... ... ... : ... .. . ... ... : ... .. . ... : ... .. . ...
ROW 16 : ... .. . ... ... ... : ... .. . ... ... 465 ... : ... .. . ... ... : E-# 12 2 ... : ... .. . ...
ROW 17 : ... .. . ... ... ... : ... .. . ... ... ... ... : ... .. . ... ... : ... .. . ... : ... .. . ...
ROW 18 : ... .. . ... ... ... : ... .. . ... ... ... ... : ... .. . ... ... : 8-# 0D A ... : ... .. . ...
ROW 19 : ... .. . ... ... ... : === .. . ... 400 G01 ... : --- .. . ... G01 : 8-# 0D 7 G01 : ... .. . ...
ROW 1A : ... .. . ... ... ... : F-3 01 . ... ... G01 ... : C-3 01 . ... G01 : 8-# 0D . G02 : ... .. . ...
ROW 1B : ... .. . ... ... ... : ... .. . ... ... ... ... : ... .. . ... ... : ... .. . ... : ... .. . ...
ROW 1C : ... .. . ... ... ... : ... .. . ... ... ... ... : ... .. . ... ... : 8-# 0D A ... : ... .. . ...
ROW 1D : ... .. . ... ... ... : ... .. . ... ... ... ... : ... .. . ... ... : 8-# 0D D G01 : ... .. . ...
ROW 1E : ... .. . ... ... ... : ... .. . ... ... ... ... : ... .. . ... ... : 8-# 0D F G02 : ... .. . ...
ROW 1F : ... .. . ... ... ... : === .. . ... ... ... ... : --- .. . ... ... : ... .. . ... : ... .. . ...
ROW 20 : ... .. . ... ... ... : D#3 01 . ... ... ... ... : C-3 01 . ... ... : 8-# 0D D ... : ... .. . ...
ROW 21 : ... .. . ... ... ... : ... .. . ... ... ... ... : ... .. . ... ... : ... .. . ... : ... .. . ...
ROW 22 : ... .. . ... ... ... : ... .. . ... ... ... ... : ... .. . ... ... : 8-# 0D A ... : ... .. . ...
ROW 23 : ... .. . ... ... ... : ... .. . ... ... ... ... : ... .. . ... ... : ... .. . ... : ... .. . ...
ROW 24 : ... .. . ... ... ... : === .. . ... ... ... ... : --- .. . ... ... : 8-# 0D . ... : ... .. . ...
ROW 25 : ... .. . ... ... ... : ... .. . ... ... ... ... : ... .. . ... ... : ... .. . ... : ... .. . ...
ROW 26 : === .. . ... ... ... : D#3 01 . ... ... ... ... : C-3 01 . ... ... : E-# 12 2 ... : ... .. . ...
ROW 27 : ... .. . ... ... ... : === .. . ... ... ... ... : ... .. . ... ... : ... .. . ... : ... .. . ...
ROW 28 : G-3 01 . V00 400 ... : D#3 01 A V01 ... ... ... : ... .. . ... ... : 8-# 0D F ... : ... .. . ...
ROW 29 : ... .. . ... ... ... : ... .. . ... ... ... ... : ... .. . ... ... : ... .. . ... : ... .. . ...
ROW 2A : ... .. . ... ... ... : ... .. . ... ... ... ... : --- .. . ... ... : E-# 12 2 ... : ... .. . ...
ROW 2B : ... .. . ... ... ... : ... .. . ... ... ... ... : ... .. . ... ... : ... .. . ... : ... .. . ...
ROW 2C : ... .. . ... ... ... : ... .. . ... ... ... ... : G-3 18 . ... ... : 8-# 0D F ... : ... .. . ...
ROW 2D : ... .. . ... ... ... : ... .. . ... ... ... ... : G-3 18 . ... G01 : 8-# 0D A G01 : ... .. . ...
ROW 2E : ... .. . ... ... ... : ... .. . ... ... ... ... : G-3 18 . ... G02 : 8-# 0D D G02 : ... .. . ...
ROW 2F : === .. . ... ... ... : === .. . ... ... ... ... : ... .. . ... ... : ... .. . ... : ... .. . ...
ROW 30 : G-3 01 . ... 465 ... : D-3 01 . ... ... ... ... : C-5 17 . ... ... : 8-# 0D . ... : ... .. . ...
ROW 31 : ... .. . ... ... ... : ... .. . ... ... ... ... : ... .. . ... ... : ... .. . ... : ... .. . ...
ROW 32 : ... .. . ... ... ... : ... .. . ... ... ... ... : --- .. . ... ... : E-# 12 2 ... : ... .. . ...
ROW 33 : ... .. . ... ... ... : ... .. . ... ... ... ... : ... .. . ... ... : ... .. . ... : ... .. . ...
ROW 34 : ... .. . ... ... ... : ... .. . ... ... ... ... : G-4 17 . ... ... : 8-# 0D F ... : ... .. . ...
ROW 35 : ... .. . ... ... ... : ... .. . ... ... ... ... : ... .. . ... ... : ... .. . ... : ... .. . ...
ROW 36 : ... .. . ... ... ... : ... .. . ... ... ... ... : --- .. . ... ... : E-# 12 2 ... : ... .. . ...
ROW 37 : === .. . ... ... ... : === .. . ... ... ... ... : ... .. . ... ... : ... .. . ... : ... .. . ...
ROW 38 : G#3 01 . ... 400 ... : F-3 01 . ... ... ... ... : D#4 17 . ... ... : 8-# 0D F ... : ... .. . ...
ROW 39 : === .. . ... G02 ... : === .. . ... ... G02 ... : --- .. . ... G02 : ... .. . ... : ... .. . ...
ROW 3A : G-3 01 . ... G02 ... : D#3 01 . ... ... G02 ... : D#4 17 . ... G02 : 8-# 0D D G02 : ... .. . ...
ROW 3B : ... .. . ... ... ... : ... .. . ... ... ... ... : ... .. . ... ... : ... .. . ... : ... .. . ...
ROW 3C : === .. . ... G01 ... : === .. . ... ... G01 ... : --- .. . ... G01 : ... .. . ... : ... .. . ...
ROW 3D : G#3 01 . ... G01 ... : F-3 01 . ... ... G01 ... : C-4 17 . ... G01 : 8-# 0D A G01 : ... .. . ...
ROW 3E : ... .. . ... ... ... : ... .. . ... ... ... ... : ... .. . ... ... : ... .. . ... : ... .. . ...
ROW 3F : === .. . ... ... ... : === .. . ... ... ... ... : --- .. . ... ... : ... .. . ... : ... .. . ...

PATTERN 0C
ROW 00 : G#3 01 D V00 400 T32 : C-3 01 A V01 P81 400 T32 : A#2 01 . ... ... : 8-# 0D D ... : ... .. . ...
ROW 01 : ... .. . ... ... ... : ... .. . ... ... ... ... : ... .. . ... ... : ... .. . ... : ... .. . ...
ROW 02 : ... .. . ... ... ... : ... .. . ... ... ... ... : ... .. . ... ... : 8-# 0D A ... : ... .. . ...
ROW 03 : ... .. . ... ... ... : ... .. . ... ... ... ... : ... .. . ... ... : ... .. . ... : ... .. . ...
ROW 04 : ... .. . ... ... ... : ... .. . ... ... ... ... : --- .. . ... ... : 8-# 0D . ... : ... .. . ...
ROW 05 : ... .. . ... ... ... : ... .. . ... ... ... ... : ... .. . ... ... : ... .. . ... : ... .. . ...
ROW 06 : === .. . ... ... ... : === .. . ... ... ... ... : A#2 01 . ... ... : E-# 12 2 ... : ... .. . ...
ROW 07 : ... .. . ... ... ... : ... .. . ... ... ... ... : ... .. . ... ... : ... .. . ... : ... .. . ...
ROW 08 : F-3 01 . ... ... ... : D-3 01 . ... ... ... ... : ... .. . ... ... : 8-# 0D F ... : ... .. . ...
ROW 09 : ... .. . ... ... ... : ... .. . ... ... ... ... : ... .. . ... ... : ... .. . ... : ... .. . ...
ROW 0A : ... .. . ... ... ... : ... .. . ... ... ... ... : --- .. . ... ... : E-# 12 2 ... : ... .. . ...
ROW 0B : ... .. . ... ... ... : ... .. . ... ... ... ... : ... .. . ... ... : ... .. . ... : ... .. . ...
ROW 0C : ... .. . ... ... ... : ... .. . ... ... ... ... : G-3 18 . ... ... : 8-# 0D F ... : ... .. . ...
ROW 0D : ... .. . ... ... ... : ... .. . ... ... ... ... : G-3 18 . ... G01 : 8-# 0D A G01 : ... .. . ...
ROW 0E : ... .. . ... ... ... : ... .. . ... ... ... ... : G-3 18 . ... G02 : 8-# 0D D G02 : ... .. . ...
ROW 0F : ... .. . ... ... ... : ... .. . ... ... ... ... : ... .. . ... ... : ... .. . ... : ... .. . ...
ROW 10 : ... .. . ... 465 ... : ... .. . ... ... 465 ... : G-4 17 . ... ... : 8-# 0D . ... : ... .. . ...
ROW 11 : ... .. . ... ... ... : ... .. . ... ... ... ... : ... .. . ... ... : ... .. . ... : ... .. . ...
ROW 12 : ... .. . ... ... ... : ... .. . ... ... ... ... : --- .. . ... ... : E-# 12 2 ... : ... .. . ...
ROW 13 : ... .. . ... ... ... : ... .. . ... ... ... ... : ... .. . ... ... : ... .. . ... : ... .. . ...
ROW 14 : ... .. . ... ... ... : ... .. . ... ... ... ... : D#4 17 . ... ... : 8-# 0D F ... : ... .. . ...
ROW 15 : ... .. . ... ... ... : ... .. . ... ... ... ... : ... .. . ... ... : ... .. . ... : ... .. . ...
ROW 16 : ... .. . ... ... ... : ... .. . ... ... ... ... : --- .. . ... ... : E-# 12 2 ... : ... .. . ...
ROW 17 : === .. . ... ... ... : === .. . ... ... ... ... : ... .. . ... ... : ... .. . ... : ... .. . ...
ROW 18 : A#3 01 . ... 400 ... : G-3 01 . ... ... 400 ... : C-4 17 . ... ... : 8-# 0D A ... : ... .. . ...
ROW 19 : === .. . ... G02 ... : === .. . ... ... G02 ... : --- .. . ... G02 : 8-# 0D 7 G01 : ... .. . ...
ROW 1A : G#3 01 . ... G02 ... : F-3 01 . ... ... G02 ... : C-4 17 . ... G02 : 8-# 0D . G02 : ... .. . ...
ROW 1B : ... .. . ... ... ... : ... .. . ... ... ... ... : ... .. . ... ... : ... .. . ... : ... .. . ...
ROW 1C : === .. . ... G01 ... : === .. . ... ... G01 ... : --- .. . ... G01 : 8-# 0D A ... : ... .. . ...
ROW 1D : G-3 01 . ... G01 ... : D#3 01 . ... ... G01 ... : A#3 17 . ... G01 : 8-# 0D D G01 : ... .. . ...
ROW 1E : ... .. . ... ... ... : ... .. . ... ... ... ... : ... .. . ... ... : 8-# 0D F G02 : ... .. . ...
ROW 1F : === .. . ... ... ... : === .. . ... ... ... ... : --- .. . ... ... : ... .. . ... : ... .. . ...
ROW 20 : F#3 01 . ... ... ... : C#3 01 . ... ... ... ... : A-2 01 . ... ... : 8-# 0D D ... : ... .. . ...
ROW 21 : ... .. . ... ... ... : ... .. . ... ... ... ... : ... .. . ... ... : ... .. . ... : ... .. . ...
ROW 22 : ... .. . ... ... ... : ... .. . ... ... ... ... : ... .. . ... ... : 8-# 0D A ... : ... .. . ...
ROW 23 : ... .. . ... ... ... : ... .. . ... ... ... ... : ... .. . ... ... : ... .. . ... : ... .. . ...
ROW 24 : ... .. . ... ... ... : ... .. . ... ... ... ... : --- .. . ... ... : 8-# 0D . ... : ... .. . ...
ROW 25 : ... .. . ... ... ... : ... .. . ... ... ... ... : ... .. . ... ... : ... .. . ... : ... .. . ...
ROW 26 : ... .. . ... ... ... : ... .. . ... ... ... ... : A-2 01 . ... ... : E-# 12 2 ... : ... .. . ...
ROW 27 : ... .. . ... ... ... : ... .. . ... ... ... ... : ... .. . ... ... : ... .. . ... : ... .. . ...
ROW 28 : ... .. . ... ... ... : ... .. . ... ... ... ... : ... .. . ... ... : 8-# 0D F ... : ... .. . ...
ROW 29 : ... .. . ... ... ... : ... .. . ... ... ... ... : ... .. . ... ... : ... .. . ... : ... .. . ...
ROW 2A : ... .. . ... ... ... : ... .. . ... ... ... ... : --- .. . ... ... : E-# 12 2 ... : ... .. . ...
ROW 2B : ... .. . ... ... ... : ... .. . ... ... ... ... : ... .. . ... ... : ... .. . ... : ... .. . ...
ROW 2C : ... .. . ... 465 ... : ... .. . ... ... 465 ... : G-3 18 . ... ... : 8-# 0D F ... : ... .. . ...
ROW 2D : ... .. . ... ... ... : ... .. . ... ... ... ... : G-3 18 . ... G01 : 8-# 0D A G01 : ... .. . ...
ROW 2E : ... .. . ... ... ... : ... .. . ... ... ... ... : G-3 18 . ... G02 : 8-# 0D D G02 : ... .. . ...
ROW 2F : ... .. . ... ... ... : ... .. . ... ... ... ... : ... .. . ... ... : ... .. . ... : ... .. . ...
ROW 30 : ... .. . ... ... ... : ... .. . ... ... ... ... : D#3 18 . ... ... : 8-# 0D F ... : ... .. . ...
ROW 31 : ... .. . ... ... ... : ... .. . ... ... ... ... : ... .. . ... ... : ... .. . ... : ... .. . ...
ROW 32 : ... .. . ... ... ... : ... .. . ... ... ... ... : --- .. . ... ... : ... .. . ... : ... .. . ...
ROW 33 : ... .. . ... ... ... : ... .. . ... ... ... ... : ... .. . ... ... : ... .. . ... : ... .. . ...
ROW 34 : ... .. . ... ... ... : ... .. . ... ... ... ... : G-3 01 . ... ... : ... .. . ... : ... .. . ...
ROW 35 : ... .. . ... ... ... : ... .. . ... ... ... ... : A-3 01 . ... ... : ... .. . ... : ... .. . ...
ROW 36 : ... .. . ... ... ... : ... .. . ... ... ... ... : ... .. . ... ... : ... .. . ... : ... .. . ...
ROW 37 : ... .. . ... ... ... : ... .. . ... ... ... ... : ... .. . ... ... : ... .. . ... : ... .. . ...
ROW 38 : ... .. . ... ... ... : ... .. . ... ... ... ... : --- .. . ... ... : ... .. . ... : ... .. . ...
ROW 39 : ... .. . ... ... ... : ... .. . ... ... ... ... : ... .. . ... ... : ... .. . ... : ... .. . ...
ROW 3A : ... .. . ... ... ... : ... .. . ... ... ... ... : E-3 01 . ... ... : ... .. . ... : ... .. . ...
ROW 3B : ... .. . ... ... ... : ... .. . ... ... ... ... : ... .. . ... ... : ... .. . ... : ... .. . ...
ROW 3C : ... .. . ... ... ... : ... .. . ... ... ... ... : ... .. . ... ... : ... .. . ... : ... .. . ...
ROW 3D : ... .. . ... ... ... : ... .. . ... ... ... ... : ... .. . ... ... : ... .. . ... : ... .. . ...
ROW 3E : === .. . ... ... ... : === .. . ... ... ... ... : ... .. . ... ... : ... .. . ... : ... .. . ...
ROW 3F : ... .. . ... ... ... : ... .. . ... ... ... ... : --- .. . ... ... : ... .. . ... : ... .. . ...

PATTERN 0D
ROW 00 : D-3 01 A V01 400 M62 : A-2 09 7 V02 P81 400 ... : C-3 01 . ... ... : 2-# 0A F A00 : ... .. . ...
ROW 01 : ... .. . ... ... ... : ... .. . ... ... ... ... : D-3 01 . ... ... : ... .. . ... : ... .. . ...
ROW 02 : A-2 01 4 ... ... M62 : C-3 09 . ... ... ... ... : ... .. . ... ... : F-# 12 A ... : ... .. . ...
ROW 03 : ... .. . ... ... ... : ... .. . ... ... ... ... : ... .. . ... ... : ... .. . ... : ... .. . ...
ROW 04 : A-2 01 7 ... ... M62 : D-3 09 . ... ... ... ... : --- .. . ... ... : E-# 14 D ... : ... .. . ...
ROW 05 : ... .. . ... ... ... : ... .. . ... ... ... ... : ... .. . ... ... : ... .. . ... : ... .. . ...
ROW 06 : D-3 01 A ... ... M62 : E-3 09 . ... ... ... ... : D-3 01 . ... ... : E-# 14 . ... : ... .. . ...
ROW 07 : ... .. . ... ... ... : ... .. . ... ... ... ... : ... .. . ... ... : ... .. . ... : ... .. . ...
ROW 08 : D-3 01 . ... ... M62 : F-3 09 . ... ... ... ... : ... .. . ... ... : 8-# 0D F ... : ... .. . ...
ROW 09 : ... .. . ... ... ... : ... .. . ... ... ... ... : ... .. . ... ... : ... .. . ... : ... .. . ...
ROW 0A : A-2 01 4 ... ... M62 : G-3 09 . ... ... ... ... : ... .. . ... ... : F-# 12 A ... : ... .. . ...
ROW 0B : ... .. . ... ... ... : ... .. . ... ... ... ... : --- .. . ... ... : ... .. . ... : ... .. . ...
ROW 0C : A-2 01 7 ... ... M62 : A-3 09 . ... ... ... ... : A-2 01 . ... ... : E-# 14 D ... : ... .. . ...
ROW 0D : ... .. . ... ... ... : ... .. . ... ... ... ... : ... .. . ... ... : ... .. . ... : ... .. . ...
ROW 0E : D-3 01 A ... ... M62 : C-4 09 . ... ... ... ... : ... .. . ... ... : F-# 12 A ... : ... .. . ...
ROW 0F : ... .. . ... ... ... : ... .. . ... ... ... ... : ... .. . ... ... : ... .. . ... : ... .. . ...
ROW 10 : C-3 01 . ... ... M62 : D-4 09 . ... ... ... ... : ... .. . ... ... : 2-# 0A F ... : ... .. . ...
ROW 11 : ... .. . ... ... ... : ... .. . ... ... ... ... : ... .. . ... ... : ... .. . ... : ... .. . ...
ROW 12 : G-2 01 4 ... ... M62 : C-4 09 . ... ... ... ... : ... .. . ... ... : E-# 14 D ... : ... .. . ...
ROW 13 : ... .. . ... ... ... : ... .. . ... ... ... ... : --- .. . ... ... : ... .. . ... : ... .. . ...
ROW 14 : G-2 01 7 ... ... M62 : A-3 09 . ... ... ... ... : D-3 01 . ... ... : E-# 14 . ... : ... .. . ...
ROW 15 : ... .. . ... ... ... : ... .. . ... ... ... ... : ... .. . ... ... : ... .. . ... : ... .. . ...
ROW 16 : C-3 01 A ... ... M62 : G-3 09 . ... ... ... ... : ... .. . ... ... : E-# 12 A ... : ... .. . ...
ROW 17 : ... .. . ... ... ... : ... .. . ... ... ... ... : ... .. . ... ... : ... .. . ... : ... .. . ...
ROW 18 : C-3 01 . ... ... M62 : F-3 09 . ... ... ... ... : ... .. . ... ... : 8-# 0D F ... : ... .. . ...
ROW 19 : ... .. . ... ... ... : ... .. . ... ... ... ... : --- .. . ... ... : ... .. . ... : ... .. . ...
ROW 1A : G-2 01 4 ... ... M62 : E-3 09 . ... ... ... ... : D-3 01 . ... ... : E-# 12 A ... : ... .. . ...
ROW 1B : ... .. . ... ... ... : ... .. . ... ... ... ... : ... .. . ... ... : ... .. . ... : ... .. . ...
ROW 1C : G-2 01 7 ... ... M62 : D-3 09 . ... ... ... ... : ... .. . ... ... : E-# 14 D ... : ... .. . ...
ROW 1D : ... .. . ... ... ... : ... .. . ... ... ... ... : ... .. . ... ... : ... .. . ... : ... .. . ...
ROW 1E : C-3 01 A ... ... M62 : C-3 09 . ... ... ... ... : ... .. . ... ... : E-# 12 A ... : ... .. . ...
ROW 1F : ... .. . ... ... ... : ... .. . ... ... ... ... : --- .. . ... ... : ... .. . ... : ... .. . ...
ROW 20 : D-3 01 . ... ... M62 : A-2 09 . ... ... ... ... : D-3 01 . ... ... : 2-# 0A F ... : ... .. . ...
ROW 21 : ... .. . ... ... ... : ... .. . ... ... ... ... : ... .. . ... ... : ... .. . ... : ... .. . ...
ROW 22 : A-2 01 4 ... ... M62 : C-3 09 . ... ... ... ... : ... .. . ... ... : F-# 12 A ... : ... .. . ...
ROW 23 : ... .. . ... ... ... : ... .. . ... ... ... ... : ... .. . ... ... : ... .. . ... : ... .. . ...
ROW 24 : A-2 01 7 ... ... M62 : D-3 09 . ... ... ... ... : --- .. . ... ... : E-# 14 D ... : ... .. . ...
ROW 25 : ... .. . ... ... ... : ... .. . ... ... ... ... : ... .. . ... ... : ... .. . ... : ... .. . ...
ROW 26 : D-3 01 A ... ... M62 : E-3 09 . ... ... ... ... : D-3 01 . ... ... : E-# 14 . ... : ... .. . ...
ROW 27 : ... .. . ... ... ... : ... .. . ... ... ... ... : ... .. . ... ... : ... .. . ... : ... .. . ...
ROW 28 : D-3 01 . ... ... M62 : F-3 09 . ... ... ... ... : ... .. . ... ... : 8-# 0D F ... : ... .. . ...
ROW 29 : ... .. . ... ... ... : ... .. . ... ... ... ... : ... .. . ... ... : ... .. . ... : ... .. . ...
ROW 2A : A-2 01 4 ... ... M62 : G-3 09 . ... ... ... ... : ... .. . ... ... : F-# 12 A ... : ... .. . ...
ROW 2B : ... .. . ... ... ... : ... .. . ... ... ... ... : --- .. . ... ... : ... .. . ... : ... .. . ...
ROW 2C : A-2 01 7 ... ... M62 : A-3 09 . ... ... ... ... : E-3 01 . ... ... : E-# 14 D ... : ... .. . ...
ROW 2D : ... .. . ... ... ... : ... .. . ... ... ... ... : ... .. . ... ... : ... .. . ... : ... .. . ...
ROW 2E : D-3 01 A ... ... M62 : C-4 09 . ... ... ... ... : ... .. . ... ... : F-# 12 A ... : ... .. . ...
ROW 2F : ... .. . ... ... ... : ... .. . ... ... ... ... : ... .. . ... ... : ... .. . ... : ... .. . ...
ROW 30 : C-3 01 . ... ... M62 : D-4 09 . ... ... ... ... : ... .. . ... ... : 2-# 0A F ... : ... .. . ...
ROW 31 : ... .. . ... ... ... : ... .. . ... ... ... ... : ... .. . ... ... : ... .. . ... : ... .. . ...
ROW 32 : G-2 01 4 ... ... M62 : C-4 09 . ... ... ... ... : ... .. . ... ... : E-# 14 D ... : ... .. . ...
ROW 33 : ... .. . ... ... ... : ... .. . ... ... ... ... : --- .. . ... ... : ... .. . ... : ... .. . ...
ROW 34 : G-2 01 7 ... ... M62 : A-3 09 . ... ... ... ... : D-3 01 . ... ... : E-# 14 . ... : ... .. . ...
ROW 35 : ... .. . ... ... ... : ... .. . ... ... ... ... : ... .. . ... ... : ... .. . ... : ... .. . ...
ROW 36 : C-3 01 A ... ... M62 : G-3 09 . ... ... ... ... : ... .. . ... ... : E-# 12 A ... : ... .. . ...
ROW 37 : ... .. . ... ... ... : ... .. . ... ... ... ... : ... .. . ... ... : ... .. . ... : ... .. . ...
ROW 38 : C-3 01 . ... ... M62 : F-3 09 . ... ... ... ... : ... .. . ... ... : 8-# 0D F ... : ... .. . ...
ROW 39 : ... .. . ... ... ... : ... .. . ... ... ... ... : --- .. . ... ... : ... .. . ... : ... .. . ...
ROW 3A : G-2 01 4 ... ... M62 : E-3 09 . ... ... ... ... : A-2 01 . ... ... : E-# 12 A ... : ... .. . ...
ROW 3B : ... .. . ... ... ... : ... .. . ... ... ... ... : ... .. . ... ... : ... .. . ... : ... .. . ...
ROW 3C : G-2 01 7 ... ... M62 : D-3 09 . ... ... ... ... : ... .. . ... ... : E-# 14 D ... : ... .. . ...
ROW 3D : ... .. . ... ... ... : ... .. . ... ... ... ... : ... .. . ... ... : ... .. . ... : ... .. . ...
ROW 3E : C-3 01 A ... ... M62 : C-3 09 . ... ... ... ... : ... .. . ... ... : E-# 12 A ... : ... .. . ...
ROW 3F : ... .. . ... ... ... : ... .. . ... ... ... ... : --- .. . ... ... : ... .. . ... : ... .. . ...

PATTERN 0E
ROW 00 : F-3 01 A V01 400 M62 : A-2 09 7 V02 P81 400 ... : C-3 01 . ... ... : 2-# 0A F ... : ... .. . ...
ROW 01 : ... .. . ... ... ... : ... .. . ... ... ... ... : D-3 01 . ... ... : ... .. . ... : ... .. . ...
ROW 02 : D-3 01 4 ... ... M62 : C-3 09 . ... ... ... ... : ... .. . ... ... : F-# 12 A ... : ... .. . ...
ROW 03 : ... .. . ... ... ... : ... .. . ... ... ... ... : ... .. . ... ... : ... .. . ... : ... .. . ...
ROW 04 : D-3 01 7 ... ... M62 : D-3 09 . ... ... ... ... : --- .. . ... ... : E-# 14 D ... : ... .. . ...
ROW 05 : ... .. . ... ... ... : ... .. . ... ... ... ... : ... .. . ... ... : ... .. . ... : ... .. . ...
ROW 06 : F-3 01 A ... ... M62 : E-3 09 . ... ... ... ... : D-3 01 . ... ... : E-# 14 . ... : ... .. . ...
ROW 07 : ... .. . ... ... ... : ... .. . ... ... ... ... : ... .. . ... ... : ... .. . ... : ... .. . ...
ROW 08 : F-3 01 . ... ... M62 : F-3 09 . ... ... ... ... : ... .. . ... ... : 8-# 0D F ... : ... .. . ...
ROW 09 : ... .. . ... ... ... : ... .. . ... ... ... ... : ... .. . ... ... : ... .. . ... : ... .. . ...
ROW 0A : D-3 01 4 ... ... M62 : G-3 09 . ... ... ... ... : ... .. . ... ... : F-# 12 A ... : ... .. . ...
ROW 0B : ... .. . ... ... ... : ... .. . ... ... ... ... : --- .. . ... ... : ... .. . ... : ... .. . ...
ROW 0C : D-3 01 7 ... ... M62 : A-3 09 . ... ... ... ... : A-2 01 . ... ... : E-# 14 D ... : ... .. . ...
ROW 0D : ... .. . ... ... ... : ... .. . ... ... ... ... : ... .. . ... ... : ... .. . ... : ... .. . ...
ROW 0E : F-3 01 A ... ... M62 : C-4 09 . ... ... ... ... : ... .. . ... ... : F-# 12 A ... : ... .. . ...
ROW 0F : ... .. . ... ... ... : ... .. . ... ... ... ... : ... .. . ... ... : ... .. . ... : ... .. . ...
ROW 10 : F-3 01 D ... ... ... : D-4 09 . ... ... ... ... : ... .. . ... ... : 2-# 0A F ... : ... .. . ...
ROW 11 : === .. . ... G02 ... : ... .. . ... ... ... ... : ... .. . ... ... : ... .. . ... : ... .. . ...
ROW 12 : E-3 01 . ... G02 ... : C-4 09 . ... ... ... ... : ... .. . ... ... : E-# 14 D ... : ... .. . ...
ROW 13 : ... .. . ... ... ... : ... .. . ... ... ... ... : --- .. . ... ... : ... .. . ... : ... .. . ...
ROW 14 : === .. . ... G01 ... : A-3 09 . ... ... ... ... : D-3 01 . ... ... : E-# 14 . ... : ... .. . ...
ROW 15 : D-3 01 . ... G01 ... : ... .. . ... ... ... ... : ... .. . ... ... : ... .. . ... : ... .. . ...
ROW 16 : ... .. . ... ... ... : G-3 09 . ... ... ... ... : ... .. . ... ... : E-# 12 A ... : ... .. . ...
ROW 17 : === .. . ... ... ... : ... .. . ... ... ... ... : ... .. . ... ... : ... .. . ... : ... .. . ...
ROW 18 : G-3 01 . ... ... ... : F-3 09 . ... ... ... ... : ... .. . ... ... : 8-# 0D F ... : ... .. . ...
ROW 19 : ... .. . ... ... ... : ... .. . ... ... ... ... : --- .. . ... ... : ... .. . ... : ... .. . ...
ROW 1A : ... .. . ... ... ... : E-3 09 . ... ... ... ... : D-3 01 . ... ... : E-# 12 A ... : ... .. . ...
ROW 1B : === .. . ... ... ... : ... .. . ... ... ... ... : ... .. . ... ... : ... .. . ... : ... .. . ...
ROW 1C : F-3 01 . ... ... ... : D-3 09 . ... ... ... ... : ... .. . ... ... : E-# 14 D ... : ... .. . ...
ROW 1D : === .. . ... ... ... : ... .. . ... ... ... ... : ... .. . ... ... : ... .. . ... : ... .. . ...
ROW 1E : G-3 01 . ... ... ... : C-3 09 . ... ... ... ... : ... .. . ... ... : E-# 12 A ... : ... .. . ...
ROW 1F : === .. . ... ... ... : ... .. . ... ... ... ... : --- .. . ... ... : ... .. . ... : ... .. . ...
ROW 20 : F-3 01 . ... ... ... : A-2 09 . ... ... ... ... : D-3 01 . ... ... : 2-# 0A F ... : ... .. . ...
ROW 21 : === .. . ... G02 ... : ... .. . ... ... ... ... : ... .. . ... ... : ... .. . ... : ... .. . ...
ROW 22 : D-3 01 . ... G02 ... : C-3 09 . ... ... ... ... : ... .. . ... ... : F-# 12 A ... : ... .. . ...
ROW 23 : ... .. . ... ... ... : ... .. . ... ... ... ... : ... .. . ... ... : ... .. . ... : ... .. . ...
ROW 24 : === .. . ... G01 ... : D-3 09 . ... ... ... ... : --- .. . ... ... : E-# 14 D ... : ... .. . ...
ROW 25 : G-3 01 . ... G01 ... : ... .. . ... ... ... ... : ... .. . ... ... : ... .. . ... : ... .. . ...
ROW 26 : ... .. . ... ... ... : E-3 09 . ... ... ... ... : D-3 01 . ... ... : E-# 14 . ... : ... .. . ...
ROW 27 : === .. . ... ... ... : ... .. . ... ... ... ... : ... .. . ... ... : ... .. . ... : ... .. . ...
ROW 28 : A-3 01 . ... ... ... : F-3 09 . ... ... ... ... : ... .. . ... ... : 8-# 0D F ... : ... .. . ...
ROW 29 : ... .. . ... ... ... : ... .. . ... ... ... ... : ... .. . ... ... : ... .. . ... : ... .. . ...
ROW 2A : ... .. . ... ... ... : G-3 09 . ... ... ... ... : ... .. . ... ... : F-# 12 A ... : ... .. . ...
ROW 2B : === .. . ... ... ... : ... .. . ... ... ... ... : --- .. . ... ... : ... .. . ... : ... .. . ...
ROW 2C : F-3 01 . ... ... ... : A-3 09 . ... ... ... ... : E-3 01 . ... ... : E-# 14 D ... : ... .. . ...
ROW 2D : === .. . ... ... ... : ... .. . ... ... ... ... : ... .. . ... ... : ... .. . ... : ... .. . ...
ROW 2E : G-3 01 . ... ... ... : C-4 09 . ... ... ... ... : ... .. . ... ... : F-# 12 A ... : ... .. . ...
ROW 2F : === .. . ... ... ... : ... .. . ... ... ... ... : ... .. . ... ... : ... .. . ... : ... .. . ...
ROW 30 : A-3 01 . ... ... ... : D-4 09 . ... ... ... ... : ... .. . ... ... : 2-# 0A F ... : ... .. . ...
ROW 31 : === .. . ... G02 ... : ... .. . ... ... ... ... : ... .. . ... ... : ... .. . ... : ... .. . ...
ROW 32 : G-3 01 . ... G02 ... : C-4 09 . ... ... ... ... : ... .. . ... ... : 8-# 0D D ... : ... .. . ...
ROW 33 : ... .. . ... ... ... : ... .. . ... ... ... ... : --- .. . ... ... : ... .. . ... : ... .. . ...
ROW 34 : === .. . ... G01 ... : A-3 09 . ... ... ... ... : D-3 01 . ... ... : 8-# 0D . ... : ... .. . ...
ROW 35 : A-3 01 . ... G01 ... : ... .. . ... ... ... ... : ... .. . ... ... : ... .. . ... : ... .. . ...
ROW 36 : ... .. . ... ... ... : G-3 09 . ... ... ... ... : ... .. . ... ... : E-# 12 A ... : ... .. . ...
ROW 37 : === .. . ... ... ... : ... .. . ... ... ... ... : ... .. . ... ... : ... .. . ... : ... .. . ...
ROW 38 : C-4 01 . ... ... ... : F-3 09 . ... ... ... ... : ... .. . ... ... : 8-# 0D F ... : ... .. . ...
ROW 39 : === .. . ... G02 ... : ... .. . ... ... ... ... : --- .. . ... ... : ... .. . ... : ... .. . ...
ROW 3A : A-3 01 . ... G02 ... : E-3 09 . ... ... ... ... : A-2 01 . ... ... : 8-# 0D D ... : ... .. . ...
ROW 3B : ... .. . ... ... ... : ... .. . ... ... ... ... : ... .. . ... ... : ... .. . ... : ... .. . ...
ROW 3C : === .. . ... G01 ... : D-3 09 . ... ... ... ... : ... .. . ... ... : 8-# 0D . ... : ... .. . ...
ROW 3D : C-4 01 . ... G01 ... : ... .. . ... ... ... ... : ... .. . ... ... : ... .. . ... : ... .. . ...
ROW 3E : ... .. . ... ... ... : C-3 09 . ... ... ... ... : ... .. . ... ... : E-# 12 A ... : ... .. . ...
ROW 3F : === .. . ... ... ... : ... .. . ... ... ... ... : --- .. . ... ... : ... .. . ... : ... .. . ...

PATTERN 0F
ROW 00 : E-4 01 D V01 400 T31 : C-4 01 A V00 P81 400 T32 : F-2 01 . ... ... : D-# 19 F ... : ... .. . ...
ROW 01 : ... .. . ... ... ... : ... .. . ... ... ... ... : G-2 01 . ... ... : ... .. . ... : ... .. . ...
ROW 02 : ... .. . ... ... ... : ... .. . ... ... ... ... : ... .. . ... ... : ... .. . ... : ... .. . ...
ROW 03 : ... .. . ... ... ... : ... .. . ... ... ... ... : ... .. . ... ... : ... .. . ... : ... .. . ...
ROW 04 : ... .. . ... ... ... : ... .. . ... ... ... ... : --- .. . ... ... : ... .. . ... : ... .. . ...
ROW 05 : ... .. . ... ... ... : ... .. . ... ... ... ... : ... .. . ... ... : ... .. . ... : ... .. . ...
ROW 06 : ... .. . ... ... ... : ... .. . ... ... ... ... : G-2 01 . ... ... : ... .. . ... : ... .. . ...
ROW 07 : ... .. . ... ... ... : ... .. . ... ... ... ... : ... .. . ... ... : ... .. . ... : ... .. . ...
ROW 08 : ... .. . ... ... ... : ... .. . ... ... ... ... : ... .. . ... ... : 8-# 0D . ... : ... .. . ...
ROW 09 : ... .. . ... ... ... : ... .. . ... ... ... ... : ... .. . ... ... : ... .. . ... : ... .. . ...
ROW 0A : === .. . ... ... ... : === .. . ... ... ... ... : ... .. . ... ... : F-# 12 A ... : ... .. . ...
ROW 0B : ... .. . ... ... ... : ... .. . ... ... ... ... : --- .. . ... ... : ... .. . ... : ... .. . ...
ROW 0C : D-4 01 . ... ... ... : A-3 01 . ... ... ... ... : D-3 01 . ... ... : E-# 14 D ... : ... .. . ...
ROW 0D : ... .. . ... ... ... : ... .. . ... ... ... ... : ... .. . ... ... : ... .. . ... : ... .. . ...
ROW 0E : ... .. . ... ... ... : ... .. . ... ... ... ... : ... .. . ... ... : F-# 12 A ... : ... .. . ...
ROW 0F : ... .. . ... ... ... : ... .. . ... ... ... ... : ... .. . ... ... : ... .. . ... : ... .. . ...
ROW 10 : ... .. . ... ... ... : ... .. . ... ... ... ... : ... .. . ... ... : 2-# 0A F ... : ... .. . ...
ROW 11 : ... .. . ... ... ... : ... .. . ... ... ... ... : ... .. . ... ... : ... .. . ... : ... .. . ...
ROW 12 : ... .. . ... ... ... : ... .. . ... ... ... ... : ... .. . ... ... : E-# 14 D ... : ... .. . ...
ROW 13 : ... .. . ... ... ... : ... .. . ... ... ... ... : --- .. . ... ... : ... .. . ... : ... .. . ...
ROW 14 : ... .. . ... 465 ... : ... .. . ... ... 463 ... : G-2 01 . ... ... : E-# 14 . ... : ... .. . ...
ROW 15 : ... .. . ... ... ... : ... .. . ... ... ... ... : ... .. . ... ... : ... .. . ... : ... .. . ...
ROW 16 : ... .. . ... ... ... : ... .. . ... ... ... ... : ... .. . ... ... : E-# 12 A ... : ... .. . ...
ROW 17 : ... .. . ... ... ... : ... .. . ... ... ... ... : ... .. . ... ... : ... .. . ... : ... .. . ...
ROW 18 : ... .. . ... ... ... : ... .. . ... ... ... ... : ... .. . ... ... : 8-# 0D F ... : ... .. . ...
ROW 19 : ... .. . ... ... ... : ... .. . ... ... ... ... : --- .. . ... ... : ... .. . ... : ... .. . ...
ROW 1A : ... .. . ... ... ... : ... .. . ... ... ... ... : G-2 01 . ... ... : E-# 12 A ... : ... .. . ...
ROW 1B : ... .. . ... ... ... : ... .. . ... ... ... ... : ... .. . ... ... : ... .. . ... : ... .. . ...
ROW 1C : ... .. . ... ... ... : ... .. . ... ... ... ... : ... .. . ... ... : E-# 14 D ... : ... .. . ...
ROW 1D : ... .. . ... ... ... : ... .. . ... ... ... ... : ... .. . ... ... : ... .. . ... : ... .. . ...
ROW 1E : === .. . ... ... ... : === .. . ... ... ... ... : ... .. . ... ... : E-# 12 A ... : ... .. . ...
ROW 1F : ... .. . ... ... ... : ... .. . ... ... ... ... : --- .. . ... ... : ... .. . ... : ... .. . ...
ROW 20 : C-4 01 . ... 400 ... : F-3 01 . ... ... 400 ... : G-2 01 . ... ... : 2-# 0A F ... : ... .. . ...
ROW 21 : ... .. . ... ... ... : ... .. . ... ... ... ... : ... .. . ... ... : ... .. . ... : ... .. . ...
ROW 22 : ... .. . ... ... ... : ... .. . ... ... ... ... : ... .. . ... ... : F-# 12 A ... : ... .. . ...
ROW 23 : ... .. . ... ... ... : ... .. . ... ... ... ... : ... .. . ... ... : ... .. . ... : ... .. . ...
ROW 24 : ... .. . ... ... ... : ... .. . ... ... ... ... : --- .. . ... ... : E-# 14 D ... : ... .. . ...
ROW 25 : ... .. . ... ... ... : ... .. . ... ... ... ... : ... .. . ... ... : ... .. . ... : ... .. . ...
ROW 26 : ... .. . ... ... ... : ... .. . ... ... ... ... : G-2 01 . ... ... : E-# 14 . ... : ... .. . ...
ROW 27 : ... .. . ... ... ... : ... .. . ... ... ... ... : ... .. . ... ... : ... .. . ... : ... .. . ...
ROW 28 : ... .. . ... ... ... : ... .. . ... ... ... ... : ... .. . ... ... : 8-# 0D F ... : ... .. . ...
ROW 29 : ... .. . ... ... ... : ... .. . ... ... ... ... : ... .. . ... ... : ... .. . ... : ... .. . ...
ROW 2A : ... .. . ... ... ... : ... .. . ... ... ... ... : ... .. . ... ... : F-# 12 A ... : ... .. . ...
ROW 2B : ... .. . ... ... ... : ... .. . ... ... ... ... : --- .. . ... ... : ... .. . ... : ... .. . ...
ROW 2C : ... .. . ... R55 ... : ... .. . ... ... R33 ... : F-2 01 . ... ... : E-# 14 D ... : ... .. . ...
ROW 2D : ... .. . ... ... ... : ... .. . ... ... ... ... : ... .. . ... ... : ... .. . ... : ... .. . ...
ROW 2E : ... .. . ... ... ... : ... .. . ... ... ... ... : ... .. . ... ... : F-# 12 A ... : ... .. . ...
ROW 2F : ... .. . ... ... ... : ... .. . ... ... ... ... : ... .. . ... ... : ... .. . ... : ... .. . ...
ROW 30 : ... .. . ... ... ... : ... .. . ... ... ... ... : ... .. . ... ... : 2-# 0A F ... : ... .. . ...
ROW 31 : ... .. . ... ... ... : ... .. . ... ... ... ... : ... .. . ... ... : ... .. . ... : ... .. . ...
ROW 32 : ... .. . ... ... ... : ... .. . ... ... ... ... : ... .. . ... ... : E-# 14 D ... : ... .. . ...
ROW 33 : ... .. . ... ... ... : ... .. . ... ... ... ... : --- .. . ... ... : ... .. . ... : ... .. . ...
ROW 34 : ... .. . ... 465 ... : ... .. . ... ... 465 ... : G-2 01 . ... ... : E-# 14 . ... : ... .. . ...
ROW 35 : ... .. . ... ... ... : ... .. . ... ... ... ... : ... .. . ... ... : ... .. . ... : ... .. . ...
ROW 36 : ... .. . ... ... ... : ... .. . ... ... ... ... : ... .. . ... ... : E-# 12 A ... : ... .. . ...
ROW 37 : ... .. . ... ... ... : ... .. . ... ... ... ... : ... .. . ... ... : ... .. . ... : ... .. . ...
ROW 38 : ... .. . ... ... ... : ... .. . ... ... ... ... : ... .. . ... ... : 8-# 0D F ... : ... .. . ...
ROW 39 : ... .. . ... ... ... : ... .. . ... ... ... ... : --- .. . ... ... : ... .. . ... : ... .. . ...
ROW 3A : ... .. . ... ... ... : ... .. . ... ... ... ... : D-3 01 . ... ... : E-# 12 A ... : ... .. . ...
ROW 3B : ... .. . ... ... ... : ... .. . ... ... ... ... : ... .. . ... ... : ... .. . ... : ... .. . ...
ROW 3C : ... .. . ... ... ... : ... .. . ... ... ... ... : ... .. . ... ... : E-# 14 D ... : ... .. . ...
ROW 3D : ... .. . ... ... ... : ... .. . ... ... ... ... : ... .. . ... ... : ... .. . ... : ... .. . ...
ROW 3E : === .. . ... ... ... : === .. . ... ... ... ... : ... .. . ... ... : E-# 12 A ... : ... .. . ...
ROW 3F : ... .. . ... ... ... : ... .. . ... ... ... ... : --- .. . ... ... : ... .. . ... : ... .. . ...

PATTERN 10
ROW 00 : A-3 01 D V01 400 ... : D-3 01 A V00 P81 400 ... : F-2 01 . ... ... : 2-# 0A F ... : ... .. . ...
ROW 01 : ... .. . ... ... ... : ... .. . ... ... ... ... : G-2 01 . ... ... : ... .. . ... : ... .. . ...
ROW 02 : ... .. . ... ... ... : ... .. . ... ... ... ... : ... .. . ... ... : F-# 12 A ... : ... .. . ...
ROW 03 : ... .. . ... ... ... : ... .. . ... ... ... ... : ... .. . ... ... : ... .. . ... : ... .. . ...
ROW 04 : ... .. . ... ... ... : ... .. . ... ... ... ... : --- .. . ... ... : E-# 14 D ... : ... .. . ...
ROW 05 : ... .. . ... ... ... : ... .. . ... ... ... ... : ... .. . ... ... : ... .. . ... : ... .. . ...
ROW 06 : ... .. . ... ... ... : ... .. . ... ... ... ... : G-2 01 . ... ... : E-# 14 . ... : ... .. . ...
ROW 07 : === .. . ... ... ... : === .. . ... ... ... ... : ... .. . ... ... : ... .. . ... : ... .. . ...
ROW 08 : E-4 01 . ... ... T31 : G-3 01 . ... ... ... T32 : ... .. . ... ... : 8-# 0D F ... : ... .. . ...
ROW 09 : ... .. . ... ... ... : ... .. . ... ... ... ... : ... .. . ... ... : ... .. . ... : ... .. . ...
ROW 0A : ... .. . ... ... ... : ... .. . ... ... ... ... : ... .. . ... ... : F-# 12 A ... : ... .. . ...
ROW 0B : === .. . ... ... ... : === .. . ... ... ... ... : --- .. . ... ... : ... .. . ... : ... .. . ...
ROW 0C : A-3 01 . ... ... ... : D-3 01 . ... ... ... ... : D-3 01 . ... ... : E-# 14 D ... : ... .. . ...
ROW 0D : ... .. . ... ... ... : ... .. . ... ... ... ... : ... .. . ... ... : ... .. . ... : ... .. . ...
ROW 0E : ... .. . ... ... ... : ... .. . ... ... ... ... : ... .. . ... ... : F-# 12 A ... : ... .. . ...
ROW 0F : ... .. . ... ... ... : ... .. . ... ... ... ... : ... .. . ... ... : ... .. . ... : ... .. . ...
ROW 10 : ... .. . ... ... ... : ... .. . ... ... ... ... : ... .. . ... ... : 2-# 0A F ... : ... .. . ...
ROW 11 : ... .. . ... ... ... : ... .. . ... ... ... ... : ... .. . ... ... : ... .. . ... : ... .. . ...
ROW 12 : ... .. . ... ... ... : ... .. . ... ... ... ... : ... .. . ... ... : E-# 14 D ... : ... .. . ...
ROW 13 : ... .. . ... ... ... : ... .. . ... ... ... ... : --- .. . ... ... : ... .. . ... : ... .. . ...
ROW 14 : ... .. . ... ... ... : ... .. . ... ... ... ... : G-2 01 . ... ... : E-# 14 . ... : ... .. . ...
ROW 15 : ... .. . ... ... ... : ... .. . ... ... ... ... : ... .. . ... ... : ... .. . ... : ... .. . ...
ROW 16 : ... .. . ... ... ... : ... .. . ... ... ... ... : ... .. . ... ... : E-# 12 A ... : ... .. . ...
ROW 17 : ... .. . ... ... ... : ... .. . ... ... ... ... : ... .. . ... ... : ... .. . ... : ... .. . ...
ROW 18 : ... .. . ... ... ... : ... .. . ... ... 465 ... : ... .. . ... ... : 8-# 0D F ... : ... .. . ...
ROW 19 : ... .. . ... ... ... : ... .. . ... ... ... ... : --- .. . ... ... : ... .. . ... : ... .. . ...
ROW 1A : ... .. . ... ... ... : ... .. . ... ... ... ... : G-2 01 . ... ... : E-# 12 A ... : ... .. . ...
ROW 1B : ... .. . ... ... ... : ... .. . ... ... ... ... : ... .. . ... ... : ... .. . ... : ... .. . ...
ROW 1C : ... .. . ... ... ... : ... .. . ... ... ... ... : ... .. . ... ... : E-# 14 D ... : ... .. . ...
ROW 1D : ... .. . ... ... ... : ... .. . ... ... ... ... : ... .. . ... ... : ... .. . ... : ... .. . ...
ROW 1E : ... .. . ... ... ... : ... .. . ... ... ... ... : ... .. . ... ... : E-# 12 A ... : ... .. . ...
ROW 1F : ... .. . ... ... ... : === .. . ... ... ... ... : --- .. . ... ... : ... .. . ... : ... .. . ...
ROW 20 : ... .. . ... ... A01 : F-3 01 . ... ... 400 ... : G-2 01 . ... ... : 2-# 0A F ... : ... .. . ...
ROW 21 : ... .. . ... ... ... : ... .. . ... ... ... ... : ... .. . ... ... : ... .. . ... : ... .. . ...
ROW 22 : ... .. . ... ... ... : ... .. . ... ... ... ... : ... .. . ... ... : F-# 12 A ... : ... .. . ...
ROW 23 : ... .. . ... ... ... : ... .. . ... ... ... ... : ... .. . ... ... : ... .. . ... : ... .. . ...
ROW 24 : ... .. . ... ... ... : ... .. . ... ... ... ... : --- .. . ... ... : E-# 14 D ... : ... .. . ...
ROW 25 : ... .. . ... ... ... : ... .. . ... ... ... ... : ... .. . ... ... : ... .. . ... : ... .. . ...
ROW 26 : ... .. . ... ... ... : ... .. . ... ... ... ... : G-2 01 . ... ... : E-# 14 . ... : ... .. . ...
ROW 27 : ... .. . ... ... ... : === .. . ... ... ... ... : ... .. . ... ... : ... .. . ... : ... .. . ...
ROW 28 : ... .. . ... ... ... : F-3 01 . ... ... ... T32 : ... .. . ... ... : 8-# 0D F ... : ... .. . ...
ROW 29 : ... .. . ... ... ... : ... .. . ... ... ... ... : ... .. . ... ... : ... .. . ... : ... .. . ...
ROW 2A : ... .. . ... ... ... : ... .. . ... ... ... ... : ... .. . ... ... : F-# 12 A ... : ... .. . ...
ROW 2B : ... .. . ... ... ... : === .. . ... ... ... ... : --- .. . ... ... : ... .. . ... : ... .. . ...
ROW 2C : ... .. . ... ... ... : D-3 01 . ... ... ... ... : F-2 01 . ... ... : E-# 14 D ... : ... .. . ...
ROW 2D : ... .. . ... ... ... : ... .. . ... ... ... ... : ... .. . ... ... : ... .. . ... : ... .. . ...
ROW 2E : ... .. . ... ... ... : ... .. . ... ... ... ... : ... .. . ... ... : F-# 12 A ... : ... .. . ...
ROW 2F : ... .. . ... ... ... : ... .. . ... ... ... ... : ... .. . ... ... : ... .. . ... : ... .. . ...
ROW 30 : ... .. . ... ... ... : ... .. . ... ... ... ... : ... .. . ... ... : 2-# 0A F ... : ... .. . ...
ROW 31 : ... .. . ... ... ... : ... .. . ... ... ... ... : ... .. . ... ... : ... .. . ... : ... .. . ...
ROW 32 : ... .. . ... ... ... : ... .. . ... ... ... ... : ... .. . ... ... : E-# 14 D ... : ... .. . ...
ROW 33 : ... .. . ... ... ... : ... .. . ... ... ... ... : --- .. . ... ... : ... .. . ... : ... .. . ...
ROW 34 : ... .. . ... ... ... : ... .. . ... ... 465 ... : G-2 01 . ... ... : E-# 14 . ... : ... .. . ...
ROW 35 : ... .. . ... ... ... : ... .. . ... ... ... ... : ... .. . ... ... : ... .. . ... : ... .. . ...
ROW 36 : ... .. . ... ... ... : ... .. . ... ... ... ... : ... .. . ... ... : E-# 12 A ... : ... .. . ...
ROW 37 : ... .. . ... ... ... : ... .. . ... ... ... ... : ... .. . ... ... : ... .. . ... : ... .. . ...
ROW 38 : ... .. . ... ... ... : ... .. . ... ... ... ... : ... .. . ... ... : 8-# 0D F ... : ... .. . ...
ROW 39 : ... .. . ... ... ... : ... .. . ... ... ... ... : --- .. . ... ... : ... .. . ... : ... .. . ...
ROW 3A : ... .. . ... ... ... : ... .. . ... ... ... ... : D-3 01 . ... ... : E-# 12 A ... : ... .. . ...
ROW 3B : ... .. . ... ... ... : ... .. . ... ... ... ... : ... .. . ... ... : ... .. . ... : ... .. . ...
ROW 3C : ... .. . ... ... ... : ... .. . ... ... ... ... : ... .. . ... ... : E-# 14 D ... : ... .. . ...
ROW 3D : ... .. . ... ... ... : ... .. . ... ... ... ... : ... .. . ... ... : ... .. . ... : ... .. . ...
ROW 3E : ... .. . ... ... ... : ... .. . ... ... ... ... : ... .. . ... ... : E-# 12 A ... : ... .. . ...
ROW 3F : ... .. . ... ... ... : ... .. . ... ... ... ... : --- .. . ... ... : ... .. . ... : ... .. . ...

PATTERN 11
ROW 00 : ... .. . ... ... ... : ... .. . ... ... ... A01 : C-3 01 . ... ... : 2-# 0A F ... : ... .. . ...
ROW 01 : ... .. . ... ... ... : ... .. . ... ... ... ... : D-3 01 . ... ... : ... .. . ... : ... .. . ...
ROW 02 : ... .. . ... ... ... : ... .. . ... ... ... ... : ... .. . ... ... : F-# 12 A ... : ... .. . ...
ROW 03 : ... .. . ... ... ... : ... .. . ... ... ... ... : ... .. . ... ... : ... .. . ... : ... .. . ...
ROW 04 : ... .. . ... ... ... : ... .. . ... ... ... ... : --- .. . ... ... : E-# 14 D ... : ... .. . ...
ROW 05 : ... .. . ... ... ... : ... .. . ... ... ... ... : ... .. . ... ... : ... .. . ... : ... .. . ...
ROW 06 : ... .. . ... ... ... : ... .. . ... ... ... ... : D-3 01 . ... ... : E-# 14 . ... : ... .. . ...
ROW 07 : ... .. . ... ... ... : ... .. . ... ... ... ... : ... .. . ... ... : ... .. . ... : ... .. . ...
ROW 08 : ... .. . ... ... ... : ... .. . ... ... ... ... : ... .. . ... ... : 8-# 0D F ... : ... .. . ...
ROW 09 : ... .. . ... ... ... : ... .. . ... ... ... ... : ... .. . ... ... : ... .. . ... : ... .. . ...
ROW 0A : ... .. . ... ... ... : ... .. . ... ... ... ... : ... .. . ... ... : F-# 12 A ... : ... .. . ...
ROW 0B : ... .. . ... ... ... : ... .. . ... ... ... ... : --- .. . ... ... : ... .. . ... : ... .. . ...
ROW 0C : D-3 01 D V01 400 A00 : D-3 01 A V02 P81 400 A00 : A-2 01 . ... ... : E-# 14 D ... : ... .. . ...
ROW 0D : === .. . ... ... ... : === .. . ... ... ... ... : ... .. . ... ... : ... .. . ... : ... .. . ...
ROW 0E : E-3 01 . ... ... ... : E-3 01 . ... ... ... ... : ... .. . ... ... : F-# 12 A ... : ... .. . ...
ROW 0F : === .. . ... ... ... : === .. . ... ... ... ... : ... .. . ... ... : ... .. . ... : ... .. . ...
ROW 10 : F-3 01 . ... ... ... : F-3 01 . ... ... ... ... : ... .. . ... ... : 2-# 0A F ... : ... .. . ...
ROW 11 : ... .. . ... ... ... : ... .. . ... ... ... ... : ... .. . ... ... : ... .. . ... : ... .. . ...
ROW 12 : ... .. . ... ... ... : ... .. . ... ... ... ... : ... .. . ... ... : E-# 14 D ... : ... .. . ...
ROW 13 : === .. . ... ... ... : === .. . ... ... ... ... : --- .. . ... ... : ... .. . ... : ... .. . ...
ROW 14 : F-3 01 . ... ... ... : F-3 01 . ... ... ... ... : D-3 01 . ... ... : E-# 14 . ... : ... .. . ...
ROW 15 : === .. . ... ... ... : === .. . ... ... ... ... : ... .. . ... ... : ... .. . ... : ... .. . ...
ROW 16 : G-3 01 . ... ... ... : G-3 01 . ... ... ... ... : ... .. . ... ... : E-# 12 A ... : ... .. . ...
ROW 17 : === .. . ... ... ... : === .. . ... ... ... ... : ... .. . ... ... : ... .. . ... : ... .. . ...
ROW 18 : A-3 01 . ... ... ... : A-3 01 . ... ... ... ... : ... .. . ... ... : 8-# 0D F ... : ... .. . ...
ROW 19 : ... .. . ... ... ... : ... .. . ... ... ... ... : --- .. . ... ... : ... .. . ... : ... .. . ...
ROW 1A : ... .. . ... ... ... : ... .. . ... ... ... ... : D-3 01 . ... ... : E-# 12 A ... : ... .. . ...
ROW 1B : ... .. . ... ... ... : ... .. . ... ... ... ... : ... .. . ... ... : ... .. . ... : ... .. . ...
ROW 1C : ... .. . ... ... ... : ... .. . ... ... ... ... : ... .. . ... ... : E-# 14 D ... : ... .. . ...
ROW 1D : ... .. . ... ... ... : ... .. . ... ... ... ... : ... .. . ... ... : ... .. . ... : ... .. . ...
ROW 1E : ... .. . ... ... ... : ... .. . ... ... ... ... : ... .. . ... ... : E-# 12 A ... : ... .. . ...
ROW 1F : === .. . ... ... ... : === .. . ... ... ... ... : --- .. . ... ... : ... .. . ... : ... .. . ...
ROW 20 : A-3 01 . ... ... ... : A-3 01 . ... ... ... ... : D-3 01 . ... ... : 2-# 0A F ... : ... .. . ...
ROW 21 : === .. . ... G02 ... : === .. . ... ... G02 ... : ... .. . ... ... : ... .. . ... : ... .. . ...
ROW 22 : G-3 01 . ... G02 ... : G-3 01 . ... ... G02 ... : ... .. . ... ... : F-# 12 A ... : ... .. . ...
ROW 23 : ... .. . ... ... ... : ... .. . ... ... ... ... : ... .. . ... ... : ... .. . ... : ... .. . ...
ROW 24 : === .. . ... G01 ... : === .. . ... ... G01 ... : --- .. . ... ... : E-# 14 D ... : ... .. . ...
ROW 25 : F-3 01 . ... G01 ... : F-3 01 . ... ... G01 ... : ... .. . ... ... : ... .. . ... : ... .. . ...
ROW 26 : ... .. . ... ... ... : ... .. . ... ... ... ... : D-3 01 . ... ... : E-# 14 . ... : ... .. . ...
ROW 27 : === .. . ... ... ... : === .. . ... ... ... ... : ... .. . ... ... : ... .. . ... : ... .. . ...
ROW 28 : C-4 01 . ... ... ... : C-4 01 . ... ... ... ... : ... .. . ... ... : 8-# 0D F ... : ... .. . ...
ROW 29 : === .. . ... G02 ... : === .. . ... ... G02 ... : ... .. . ... ... : ... .. . ... : ... .. . ...
ROW 2A : A-3 01 . ... G02 ... : A-3 01 . ... ... G02 ... : ... .. . ... ... : F-# 12 A ... : ... .. . ...
ROW 2B : ... .. . ... ... ... : ... .. . ... ... ... ... : --- .. . ... ... : ... .. . ... : ... .. . ...
ROW 2C : === .. . ... G01 ... : === .. . ... ... G01 ... : E-3 01 . ... ... : E-# 14 D ... : ... .. . ...
ROW 2D : G-3 01 . ... G01 ... : G-3 01 . ... ... G01 ... : ... .. . ... ... : ... .. . ... : ... .. . ...
ROW 2E : ... .. . ... ... ... : ... .. . ... ... ... ... : ... .. . ... ... : F-# 12 A ... : ... .. . ...
ROW 2F : === .. . ... ... ... : === .. . ... ... ... ... : ... .. . ... ... : ... .. . ... : ... .. . ...
ROW 30 : F-3 01 . ... ... ... : F-3 01 . ... ... ... ... : ... .. . ... ... : 2-# 0A F ... : ... .. . ...
ROW 31 : === .. . ... G02 ... : === .. . ... ... G02 ... : ... .. . ... ... : ... .. . ... : ... .. . ...
ROW 32 : D-4 01 . ... G02 ... : D-4 01 . ... ... G02 ... : ... .. . ... ... : E-# 14 D ... : ... .. . ...
ROW 33 : ... .. . ... ... ... : ... .. . ... ... ... ... : --- .. . ... ... : ... .. . ... : ... .. . ...
ROW 34 : === .. . ... G01 ... : === .. . ... ... G01 ... : D-3 01 . ... ... : E-# 14 . ... : ... .. . ...
ROW 35 : A-3 01 . ... G01 ... : A-3 01 . ... ... G01 ... : ... .. . ... ... : ... .. . ... : ... .. . ...
ROW 36 : ... .. . ... ... ... : ... .. . ... ... ... ... : ... .. . ... ... : E-# 12 A ... : ... .. . ...
ROW 37 : === .. . ... ... ... : === .. . ... ... ... ... : ... .. . ... ... : ... .. . ... : ... .. . ...
ROW 38 : C-4 01 . ... ... P81 : C-5 01 . ... P80 ... ... : ... .. . ... ... : 8-# 0D F ... : ... .. . ...
ROW 39 : ... .. . ... ... ... : ... .. . ... ... ... ... : --- .. . ... ... : ... .. . ... : ... .. . ...
ROW 3A : ... .. . ... ... ... : ... .. . ... ... ... ... : A-2 01 . ... ... : E-# 12 A ... : ... .. . ...
ROW 3B : ... .. . ... ... ... : ... .. . ... ... ... ... : ... .. . ... ... : ... .. . ... : ... .. . ...
ROW 3C : ... .. . ... ... ... : ... .. . ... ... ... ... : ... .. . ... ... : E-# 14 D ... : ... .. . ...
ROW 3D : ... .. . ... ... ... : ... .. . ... ... ... ... : ... .. . ... ... : ... .. . ... : ... .. . ...
ROW 3E : ... .. . ... ... ... : ... .. . ... ... ... ... : ... .. . ... ... : E-# 12 A ... : ... .. . ...
ROW 3F : === .. . ... ... ... : === .. . ... ... ... ... : --- .. . ... ... : ... .. . ... : ... .. . ...

PATTERN 12
ROW 00 : F-3 01 D V01 400 P80 : F-3 01 A V02 P81 400 ... : C-3 01 . ... ... : 2-# 0A F ... : ... .. . ...
ROW 01 : ... .. . ... ... ... : ... .. . ... ... ... ... : D-3 01 . ... ... : ... .. . ... : ... .. . ...
ROW 02 : ... .. . ... ... ... : ... .. . ... ... ... ... : ... .. . ... ... : F-# 12 A ... : ... .. . ...
ROW 03 : === .. . ... ... ... : === .. . ... ... ... ... : ... .. . ... ... : ... .. . ... : ... .. . ...
ROW 04 : F-3 01 . ... ... ... : F-3 01 . ... ... ... ... : --- .. . ... ... : E-# 14 D ... : ... .. . ...
ROW 05 : === .. . ... ... ... : === .. . ... ... ... ... : ... .. . ... ... : ... .. . ... : ... .. . ...
ROW 06 : D-3 01 . ... ... ... : D-3 01 . ... ... ... ... : D-3 01 . ... ... : E-# 14 . ... : ... .. . ...
ROW 07 : === .. . ... ... ... : === .. . ... ... ... ... : ... .. . ... ... : ... .. . ... : ... .. . ...
ROW 08 : G-3 01 . ... ... ... : G-3 01 . ... ... ... ... : ... .. . ... ... : 8-# 0D F ... : ... .. . ...
ROW 09 : === .. . ... ... ... : === .. . ... ... ... ... : ... .. . ... ... : ... .. . ... : ... .. . ...
ROW 0A : G-3 01 . ... ... ... : G-3 01 . ... ... ... ... : ... .. . ... ... : F-# 12 A ... : ... .. . ...
ROW 0B : === .. . ... ... ... : === .. . ... ... ... ... : --- .. . ... ... : ... .. . ... : ... .. . ...
ROW 0C : D-3 01 . ... ... ... : D-3 01 . ... ... ... ... : A-2 01 . ... ... : E-# 14 D ... : ... .. . ...
ROW 0D : === .. . ... ... ... : === .. . ... ... ... ... : ... .. . ... ... : ... .. . ... : ... .. . ...
ROW 0E : F-3 01 . ... ... ... : F-3 01 . ... ... ... ... : ... .. . ... ... : F-# 12 A ... : ... .. . ...
ROW 0F : === .. . ... ... ... : === .. . ... ... ... ... : ... .. . ... ... : ... .. . ... : ... .. . ...
ROW 10 : A-3 01 . ... ... ... : A-3 01 . ... ... ... ... : ... .. . ... ... : 2-# 0A F ... : ... .. . ...
ROW 11 : === .. . ... ... ... : === .. . ... ... ... ... : ... .. . ... ... : ... .. . ... : ... .. . ...
ROW 12 : D-3 01 . ... ... ... : D-3 01 . ... ... ... ... : ... .. . ... ... : E-# 14 D ... : ... .. . ...
ROW 13 : === .. . ... ... ... : === .. . ... ... ... ... : --- .. . ... ... : ... .. . ... : ... .. . ...
ROW 14 : F-3 01 . ... ... ... : F-3 01 . ... ... ... ... : D-3 01 . ... ... : E-# 14 . ... : ... .. . ...
ROW 15 : === .. . ... ... ... : === .. . ... ... ... ... : ... .. . ... ... : ... .. . ... : ... .. . ...
ROW 16 : A-4 01 . ... ... ... : A-3 01 . ... ... ... ... : ... .. . ... ... : E-# 12 A ... : ... .. . ...
ROW 17 : === .. . ... ... ... : === .. . ... ... ... ... : ... .. . ... ... : ... .. . ... : ... .. . ...
ROW 18 : A-3 01 . ... ... ... : A-3 01 . ... ... ... ... : ... .. . ... ... : 8-# 0D F ... : ... .. . ...
ROW 19 : === .. . ... ... ... : === .. . ... ... ... ... : --- .. . ... ... : ... .. . ... : ... .. . ...
ROW 1A : G-3 01 . ... ... ... : G-3 01 . ... ... ... ... : D-3 01 . ... ... : E-# 12 A ... : ... .. . ...
ROW 1B : === .. . ... ... ... : === .. . ... ... ... ... : ... .. . ... ... : ... .. . ... : ... .. . ...
ROW 1C : F-3 01 . ... ... ... : F-3 01 . ... ... ... ... : ... .. . ... ... : E-# 14 D ... : ... .. . ...
ROW 1D : === .. . ... ... ... : === .. . ... ... ... ... : ... .. . ... ... : ... .. . ... : ... .. . ...
ROW 1E : G-3 01 . ... ... ... : G-3 01 . ... ... ... ... : ... .. . ... ... : E-# 12 A ... : ... .. . ...
ROW 1F : === .. . ... ... ... : === .. . ... ... ... ... : --- .. . ... ... : ... .. . ... : ... .. . ...
ROW 20 : G-3 01 . ... ... T32 : F#3 01 . V01 ... ... ... : D-3 01 . ... ... : 2-# 0A F ... : ... .. . ...
ROW 21 : ... .. . ... ... ... : ... .. . ... ... ... ... : ... .. . ... ... : ... .. . ... : ... .. . ...
ROW 22 : ... .. . ... ... ... : ... .. . ... ... ... ... : ... .. . ... ... : F-# 12 A ... : ... .. . ...
ROW 23 : ... .. . ... ... ... : ... .. . ... ... ... ... : ... .. . ... ... : ... .. . ... : ... .. . ...
ROW 24 : ... .. . ... ... ... : ... .. . ... ... ... ... : --- .. . ... ... : E-# 14 D ... : ... .. . ...
ROW 25 : ... .. . ... ... ... : ... .. . ... ... ... ... : ... .. . ... ... : ... .. . ... : ... .. . ...
ROW 26 : ... .. . ... ... ... : ... .. . ... ... ... ... : D-3 01 . ... ... : E-# 14 . ... : ... .. . ...
ROW 27 : ... .. . ... ... ... : ... .. . ... ... ... ... : ... .. . ... ... : ... .. . ... : ... .. . ...
ROW 28 : ... .. . ... ... ... : ... .. . ... ... ... ... : ... .. . ... ... : 8-# 0D F ... : ... .. . ...
ROW 29 : ... .. . ... ... ... : ... .. . ... ... ... ... : ... .. . ... ... : ... .. . ... : ... .. . ...
ROW 2A : === .. . ... ... ... : === .. . ... ... ... ... : ... .. . ... ... : F-# 12 A ... : ... .. . ...
ROW 2B : ... .. . ... ... ... : ... .. . ... ... ... ... : --- .. . ... ... : ... .. . ... : ... .. . ...
ROW 2C : E-3 01 . ... ... ... : A-2 01 . ... ... ... ... : E-3 01 . ... ... : E-# 14 D ... : ... .. . ...
ROW 2D : ... .. . ... ... ... : ... .. . ... ... ... ... : ... .. . ... ... : ... .. . ... : ... .. . ...
ROW 2E : ... .. . ... ... ... : ... .. . ... ... ... ... : ... .. . ... ... : F-# 12 A ... : ... .. . ...
ROW 2F : ... .. . ... ... ... : ... .. . ... ... ... ... : ... .. . ... ... : ... .. . ... : ... .. . ...
ROW 30 : ... .. . ... ... ... : ... .. . ... ... ... ... : ... .. . ... ... : 2-# 0A F ... : ... .. . ...
ROW 31 : ... .. . ... ... ... : ... .. . ... ... ... ... : ... .. . ... ... : ... .. . ... : ... .. . ...
ROW 32 : ... .. . ... ... ... : ... .. . ... ... ... ... : ... .. . ... ... : E-# 14 D ... : ... .. . ...
ROW 33 : ... .. . ... ... ... : ... .. . ... ... ... ... : --- .. . ... ... : ... .. . ... : ... .. . ...
ROW 34 : ... .. . ... ... ... : ... .. . ... ... ... ... : D-3 01 . ... ... : E-# 14 . ... : ... .. . ...
ROW 35 : ... .. . ... ... ... : ... .. . ... ... ... ... : ... .. . ... ... : ... .. . ... : ... .. . ...
ROW 36 : === .. . ... ... ... : === .. . ... ... ... ... : ... .. . ... ... : E-# 12 A ... : ... .. . ...
ROW 37 : ... .. . ... ... ... : ... .. . ... ... ... ... : ... .. . ... ... : ... .. . ... : ... .. . ...
ROW 38 : F-3 01 . ... ... ... : D-3 01 . ... ... ... ... : ... .. . ... ... : 8-# 0D F ... : ... .. . ...
ROW 39 : === .. . ... G02 ... : === .. . ... ... G02 ... : --- .. . ... ... : ... .. . ... : ... .. . ...
ROW 3A : E-3 01 . ... G02 ... : C-3 01 . ... ... G02 ... : A-2 01 . ... ... : E-# 12 A ... : ... .. . ...
ROW 3B : ... .. . ... ... ... : ... .. . ... ... ... ... : ... .. . ... ... : ... .. . ... : ... .. . ...
ROW 3C : === .. . ... G01 ... : === .. . ... ... G01 ... : ... .. . ... ... : E-# 14 D ... : ... .. . ...
ROW 3D : F-3 01 . ... G01 ... : D-3 01 . ... ... G01 ... : ... .. . ... ... : ... .. . ... : ... .. . ...
ROW 3E : ... .. . ... ... ... : ... .. . ... ... ... ... : ... .. . ... ... : E-# 12 A ... : ... .. . ...
ROW 3F : === .. . ... ... ... : === .. . ... ... ... ... : --- .. . ... ... : ... .. . ... : ... .. . ...

PATTERN 13
ROW 00 : D-3 01 D V01 400 ... : A#2 01 A V01 P81 400 ... : F-2 01 . ... ... : 2-# 0A F ... : ... .. . ...
ROW 01 : ... .. . ... ... ... : ... .. . ... ... ... ... : G-2 01 . ... ... : ... .. . ... : ... .. . ...
ROW 02 : ... .. . ... ... ... : ... .. . ... ... ... ... : ... .. . ... ... : F-# 12 A ... : ... .. . ...
ROW 03 : ... .. . ... ... ... : ... .. . ... ... ... ... : ... .. . ... ... : ... .. . ... : ... .. . ...
ROW 04 : ... .. . ... ... ... : ... .. . ... ... ... ... : --- .. . ... ... : E-# 14 D ... : ... .. . ...
ROW 05 : ... .. . ... ... ... : ... .. . ... ... ... ... : ... .. . ... ... : ... .. . ... : ... .. . ...
ROW 06 : ... .. . ... ... ... : ... .. . ... ... ... ... : G-2 01 . ... ... : E-# 14 . ... : ... .. . ...
ROW 07 : ... .. . ... ... ... : ... .. . ... ... ... ... : ... .. . ... ... : ... .. . ... : ... .. . ...
ROW 08 : ... .. . ... ... ... : ... .. . ... ... ... ... : ... .. . ... ... : 8-# 0D F ... : ... .. . ...
ROW 09 : ... .. . ... ... ... : ... .. . ... ... ... ... : ... .. . ... ... : ... .. . ... : ... .. . ...
ROW 0A : === .. . ... ... ... : === .. . ... ... ... ... : ... .. . ... ... : F-# 12 A ... : ... .. . ...
ROW 0B : ... .. . ... ... ... : ... .. . ... ... ... ... : --- .. . ... ... : ... .. . ... : ... .. . ...
ROW 0C : A-3 01 . ... ... ... : D-3 01 . ... ... ... ... : D-3 01 . ... ... : E-# 14 D ... : ... .. . ...
ROW 0D : ... .. . ... ... ... : ... .. . ... ... ... ... : ... .. . ... ... : ... .. . ... : ... .. . ...
ROW 0E : ... .. . ... ... ... : ... .. . ... ... ... ... : ... .. . ... ... : F-# 12 A ... : ... .. . ...
ROW 0F : ... .. . ... ... ... : ... .. . ... ... ... ... : ... .. . ... ... : ... .. . ... : ... .. . ...
ROW 10 : ... .. . ... ... ... : ... .. . ... ... ... ... : ... .. . ... ... : 2-# 0A F ... : ... .. . ...
ROW 11 : ... .. . ... ... ... : ... .. . ... ... ... ... : ... .. . ... ... : ... .. . ... : ... .. . ...
ROW 12 : === .. . ... ... ... : === .. . ... ... ... ... : ... .. . ... ... : E-# 14 D ... : ... .. . ...
ROW 13 : ... .. . ... ... ... : ... .. . ... ... ... ... : --- .. . ... ... : ... .. . ... : ... .. . ...
ROW 14 : A-3 01 . ... ... ... : D-3 01 . ... ... ... ... : G-2 01 . ... ... : E-# 14 . ... : ... .. . ...
ROW 15 : === .. . ... ... ... : === .. . ... ... ... ... : ... .. . ... ... : ... .. . ... : ... .. . ...
ROW 16 : A#3 01 . ... ... ... : D-3 01 . ... ... ... ... : ... .. . ... ... : E-# 12 A ... : ... .. . ...
ROW 17 : === .. . ... ... ... : === .. . ... ... ... ... : ... .. . ... ... : ... .. . ... : ... .. . ...
ROW 18 : C-4 01 . ... ... ... : A-3 01 . ... ... ... ... : ... .. . ... ... : 8-# 0D F ... : ... .. . ...
ROW 19 : === .. . ... G02 ... : === .. . ... ... G02 ... : --- .. . ... ... : ... .. . ... : ... .. . ...
ROW 1A : A-3 01 . ... G02 ... : F-3 01 . ... ... G02 ... : G-2 01 . ... ... : E-# 12 A ... : ... .. . ...
ROW 1B : ... .. . ... ... ... : ... .. . ... ... ... ... : ... .. . ... ... : ... .. . ... : ... .. . ...
ROW 1C : === .. . ... G01 ... : === .. . ... ... G01 ... : ... .. . ... ... : E-# 14 D ... : ... .. . ...
ROW 1D : G-3 01 . ... G01 ... : D-3 01 . ... ... G01 ... : ... .. . ... ... : ... .. . ... : ... .. . ...
ROW 1E : ... .. . ... ... ... : ... .. . ... ... ... ... : ... .. . ... ... : E-# 12 A ... : ... .. . ...
ROW 1F : === .. . ... ... ... : === .. . ... ... ... ... : --- .. . ... ... : ... .. . ... : ... .. . ...
ROW 20 : D-4 01 . ... ... ... : A-3 01 . ... ... ... ... : G-2 01 . ... ... : 2-# 0A F ... : ... .. . ...
ROW 21 : ... .. . ... ... ... : ... .. . ... ... ... ... : ... .. . ... ... : ... .. . ... : ... .. . ...
ROW 22 : ... .. . ... ... ... : ... .. . ... ... ... ... : ... .. . ... ... : F-# 12 A ... : ... .. . ...
ROW 23 : ... .. . ... ... ... : ... .. . ... ... ... ... : ... .. . ... ... : ... .. . ... : ... .. . ...
ROW 24 : ... .. . ... ... ... : ... .. . ... ... ... ... : --- .. . ... ... : E-# 14 D ... : ... .. . ...
ROW 25 : ... .. . ... ... ... : ... .. . ... ... ... ... : ... .. . ... ... : ... .. . ... : ... .. . ...
ROW 26 : ... .. . ... ... ... : ... .. . ... ... ... ... : G-2 01 . ... ... : E-# 14 . ... : ... .. . ...
ROW 27 : ... .. . ... ... ... : ... .. . ... ... ... ... : ... .. . ... ... : ... .. . ... : ... .. . ...
ROW 28 : ... .. . ... ... ... : ... .. . ... ... ... ... : ... .. . ... ... : 8-# 0D F ... : ... .. . ...
ROW 29 : ... .. . ... ... ... : ... .. . ... ... ... ... : ... .. . ... ... : ... .. . ... : ... .. . ...
ROW 2A : === .. . ... ... ... : === .. . ... ... ... ... : ... .. . ... ... : F-# 12 A ... : ... .. . ...
ROW 2B : ... .. . ... ... ... : ... .. . ... ... ... ... : --- .. . ... ... : ... .. . ... : ... .. . ...
ROW 2C : A-3 01 . ... ... ... : D-3 01 . ... ... ... ... : F-2 01 . ... ... : E-# 14 D ... : ... .. . ...
ROW 2D : ... .. . ... ... ... : ... .. . ... ... ... ... : ... .. . ... ... : ... .. . ... : ... .. . ...
ROW 2E : ... .. . ... ... ... : ... .. . ... ... ... ... : ... .. . ... ... : F-# 12 A ... : ... .. . ...
ROW 2F : ... .. . ... ... ... : ... .. . ... ... ... ... : ... .. . ... ... : ... .. . ... : ... .. . ...
ROW 30 : ... .. . ... ... ... : ... .. . ... ... ... ... : ... .. . ... ... : 2-# 0A F ... : ... .. . ...
ROW 31 : ... .. . ... ... ... : ... .. . ... ... ... ... : ... .. . ... ... : ... .. . ... : ... .. . ...
ROW 32 : ... .. . ... ... ... : ... .. . ... ... ... ... : ... .. . ... ... : E-# 14 D ... : ... .. . ...
ROW 33 : ... .. . ... ... ... : ... .. . ... ... ... ... : --- .. . ... ... : ... .. . ... : ... .. . ...
ROW 34 : ... .. . ... ... ... : ... .. . ... ... ... ... : G-2 01 . ... ... : E-# 14 . ... : ... .. . ...
ROW 35 : ... .. . ... ... ... : ... .. . ... ... ... ... : ... .. . ... ... : ... .. . ... : ... .. . ...
ROW 36 : === .. . ... ... ... : === .. . ... ... ... ... : ... .. . ... ... : E-# 12 A ... : ... .. . ...
ROW 37 : ... .. . ... ... ... : ... .. . ... ... ... ... : ... .. . ... ... : ... .. . ... : ... .. . ...
ROW 38 : C-4 01 . ... ... ... : A-3 01 . ... ... ... ... : ... .. . ... ... : 8-# 0D F ... : ... .. . ...
ROW 39 : === .. . ... G02 ... : === .. . ... ... G02 ... : --- .. . ... ... : ... .. . ... : ... .. . ...
ROW 3A : A-3 01 . ... G02 ... : F-3 01 . ... ... G02 ... : D-3 01 . ... ... : E-# 12 A ... : ... .. . ...
ROW 3B : ... .. . ... ... ... : ... .. . ... ... ... ... : ... .. . ... ... : ... .. . ... : ... .. . ...
ROW 3C : === .. . ... G01 ... : === .. . ... ... G01 ... : ... .. . ... ... : E-# 14 D ... : ... .. . ...
ROW 3D : C-4 01 . ... G01 ... : A-3 01 . ... ... G01 ... : ... .. . ... ... : ... .. . ... : ... .. . ...
ROW 3E : ... .. . ... ... ... : ... .. . ... ... ... ... : ... .. . ... ... : E-# 12 A ... : ... .. . ...
ROW 3F : === .. . ... ... ... : === .. . ... ... ... ... : --- .. . ... ... : ... .. . ... : ... .. . ...

PATTERN 14
ROW 00 : F-4 01 D V01 400 T32 : C-4 01 A V01 P81 400 T32 : F-2 01 . ... ... : 2-# 0A F ... : ... .. . ...
ROW 01 : ... .. . ... ... ... : ... .. . ... ... ... ... : G-2 01 . ... ... : ... .. . ... : ... .. . ...
ROW 02 : ... .. . ... ... ... : ... .. . ... ... ... ... : ... .. . ... ... : F-# 12 A ... : ... .. . ...
ROW 03 : ... .. . ... ... ... : ... .. . ... ... ... ... : ... .. . ... ... : ... .. . ... : ... .. . ...
ROW 04 : ... .. . ... 464 ... : ... .. . ... ... 464 ... : --- .. . ... ... : E-# 14 D ... : ... .. . ...
ROW 05 : ... .. . ... ... ... : ... .. . ... ... ... ... : ... .. . ... ... : ... .. . ... : ... .. . ...
ROW 06 : ... .. . ... ... ... : ... .. . ... ... ... ... : G-2 01 . ... ... : E-# 14 . ... : ... .. . ...
ROW 07 : === .. . ... ... ... : === .. . ... ... ... ... : ... .. . ... ... : ... .. . ... : ... .. . ...
ROW 08 : E-4 01 . ... 400 ... : B-3 01 . ... ... 400 ... : ... .. . ... ... : 8-# 0D F ... : ... .. . ...
ROW 09 : === .. . ... G02 ... : === .. . ... ... G02 ... : ... .. . ... ... : ... .. . ... : ... .. . ...
ROW 0A : F-4 01 . ... G02 ... : C-4 01 . ... ... G02 ... : ... .. . ... ... : F-# 12 A ... : ... .. . ...
ROW 0B : ... .. . ... ... ... : ... .. . ... ... ... ... : --- .. . ... ... : ... .. . ... : ... .. . ...
ROW 0C : === .. . ... G01 ... : === .. . ... ... G01 ... : D-3 01 . ... ... : E-# 14 D ... : ... .. . ...
ROW 0D : G-4 01 . ... G01 ... : D-4 01 . ... ... G01 ... : ... .. . ... ... : ... .. . ... : ... .. . ...
ROW 0E : ... .. . ... ... ... : ... .. . ... ... ... ... : ... .. . ... ... : F-# 12 A ... : ... .. . ...
ROW 0F : ... .. . ... ... ... : ... .. . ... ... ... ... : ... .. . ... ... : ... .. . ... : ... .. . ...
ROW 10 : ... .. . ... ... ... : ... .. . ... ... ... ... : ... .. . ... ... : 2-# 0A F ... : ... .. . ...
ROW 11 : ... .. . ... ... ... : ... .. . ... ... ... ... : ... .. . ... ... : ... .. . ... : ... .. . ...
ROW 12 : ... .. . ... ... ... : ... .. . ... ... ... ... : ... .. . ... ... : E-# 14 D ... : ... .. . ...
ROW 13 : ... .. . ... ... ... : ... .. . ... ... ... ... : --- .. . ... ... : ... .. . ... : ... .. . ...
ROW 14 : ... .. . ... ... ... : ... .. . ... ... ... ... : G-2 01 . ... ... : E-# 14 . ... : ... .. . ...
ROW 15 : ... .. . ... ... ... : ... .. . ... ... ... ... : ... .. . ... ... : ... .. . ... : ... .. . ...
ROW 16 : ... .. . ... ... ... : ... .. . ... ... ... ... : ... .. . ... ... : E-# 12 A ... : ... .. . ...
ROW 17 : ... .. . ... ... ... : ... .. . ... ... ... ... : ... .. . ... ... : ... .. . ... : ... .. . ...
ROW 18 : ... .. A ... I06 A01 : ... .. A ... ... I06 A01 : ... .. . ... ... : 8-# 0D F ... : ... .. . ...
ROW 19 : ... .. . ... ... ... : ... .. . ... ... ... ... : --- .. . ... ... : ... .. . ... : ... .. . ...
ROW 1A : ... .. . ... ... ... : ... .. . ... ... ... ... : G-2 01 . ... ... : E-# 12 A ... : ... .. . ...
ROW 1B : ... .. . ... ... ... : ... .. . ... ... ... ... : ... .. . ... ... : ... .. . ... : ... .. . ...
ROW 1C : ... .. . ... ... ... : ... .. . ... ... ... ... : ... .. . ... ... : E-# 14 D ... : ... .. . ...
ROW 1D : ... .. . ... ... ... : ... .. . ... ... ... ... : ... .. . ... ... : ... .. . ... : ... .. . ...
ROW 1E : ... .. . ... ... ... : ... .. . ... ... ... ... : ... .. . ... ... : E-# 12 A ... : ... .. . ...
ROW 1F : ... .. . ... ... ... : ... .. . ... ... ... ... : --- .. . ... ... : ... .. . ... : ... .. . ...
ROW 20 : ... .. . ... ... ... : G-1 01 7 V00 P82 ... A00 : G-2 01 . ... ... : 2-# 0A F ... : ... .. . ...
ROW 21 : ... .. . ... ... ... : ... .. . ... ... ... ... : ... .. . ... ... : ... .. . ... : ... .. . ...
ROW 22 : ... .. . ... ... ... : ... .. . ... ... ... ... : ... .. . ... ... : ... .. . ... : ... .. . ...
ROW 23 : ... .. . ... ... ... : ... .. . ... ... ... ... : ... .. . ... ... : ... .. . ... : ... .. . ...
ROW 24 : ... .. . ... ... ... : --- .. . ... ... ... ... : --- .. . ... ... : ... .. . ... : ... .. . ...
ROW 25 : ... .. . ... ... ... : ... .. . ... ... ... ... : ... .. . ... ... : ... .. . ... : ... .. . ...
ROW 26 : ... .. . ... ... ... : A-1 01 . ... ... ... ... : A-2 01 . ... ... : ... .. . ... : ... .. . ...
ROW 27 : ... .. . ... ... ... : ... .. . ... ... ... ... : ... .. . ... ... : ... .. . ... : ... .. . ...
ROW 28 : ... .. . ... ... ... : ... .. . ... ... ... ... : ... .. . ... ... : ... .. . ... : ... .. . ...
ROW 29 : ... .. . ... ... ... : ... .. . ... ... ... ... : ... .. . ... ... : ... .. . ... : ... .. . ...
ROW 2A : ... .. . ... ... ... : --- .. . ... ... ... ... : --- .. . ... ... : ... .. . ... : ... .. . ...
ROW 2B : ... .. . ... ... ... : ... .. . ... ... ... ... : ... .. . ... ... : ... .. . ... : ... .. . ...
ROW 2C : ... .. . ... ... ... : G-1 01 . ... ... S06 ... : G-2 01 . ... S06 : ... .. . ... : ... .. . ...
ROW 2D : ... .. . ... ... ... : ... .. . ... ... ... ... : ... .. . ... ... : ... .. . ... : ... .. . ...
ROW 2E : ... .. . ... ... ... : A-1 01 . ... ... S06 ... : A-2 01 . ... S06 : ... .. . ... : ... .. . ...
ROW 2F : ... .. . ... ... ... : ... .. . ... ... ... ... : ... .. . ... ... : ... .. . ... : ... .. . ...
ROW 30 : ... .. . ... ... ... : A#1 01 . ... ... S06 ... : A#2 01 . ... S06 : F-# 00 1 A20 : ... .. . ...
ROW 31 : ... .. . ... ... ... : ... .. . ... ... ... ... : ... .. . ... ... : ... .. . ... : ... .. . ...
ROW 32 : ... .. . ... ... ... : C-2 01 . ... ... S06 ... : C-3 01 . ... S06 : ... .. . ... : ... .. . ...
ROW 33 : ... .. . ... ... ... : ... .. . ... ... ... ... : ... .. . ... ... : ... .. . ... : ... .. . ...
ROW 34 : ... .. . ... ... ... : D-2 01 . ... ... ... ... : D-3 01 . ... ... : ... .. . ... : ... .. . ...
ROW 35 : ... .. . ... ... ... : ... .. . ... ... ... ... : ... .. . ... ... : ... .. . ... : ... .. . ...
ROW 36 : ... .. . ... ... ... : ... .. . ... ... ... ... : ... .. . ... ... : ... .. . ... : ... .. . ...
ROW 37 : ... .. . ... ... ... : ... .. . ... ... ... ... : ... .. . ... ... : ... .. . ... : ... .. . ...
ROW 38 : ... .. . ... ... ... : --- .. . ... ... ... ... : --- .. . ... ... : ... .. . ... : ... .. . ...
ROW 39 : ... .. . ... ... ... : ... .. . ... ... ... ... : ... .. . ... ... : ... .. . ... : ... .. . ...
ROW 3A : ... .. . ... ... ... : E-2 01 . ... ... ... ... : E-3 01 . ... ... : ... .. . ... : ... .. . ...
ROW 3B : ... .. . ... ... ... : F-2 01 . ... ... ... ... : F-3 01 . ... ... : ... .. . ... : ... .. . ...
ROW 3C : --- .. . ... ... A00 : ... .. . ... ... ... ... : ... .. . ... ... : ... .. . ... : ... .. . ...
ROW 3D : ... .. . ... ... ... : ... .. . ... ... ... ... : ... .. . ... ... : ... .. . ... : ... .. . ...
ROW 3E : ... .. . ... ... ... : ... .. . ... ... ... ... : ... .. . ... ... : ... .. . ... : ... .. . ...
ROW 3F : ... .. . ... ... ... : ... .. . ... ... ... ... : --- .. . ... ... : ... .. . ... : ... .. . ...

PATTERN 15
ROW 00 : D-3 01 A V01 400 M62 : A-2 09 7 V02 P81 400 ... : C-3 01 . ... ... : 2-# 0A F A00 : ... .. . ...
ROW 01 : ... .. . ... ... ... : ... .. . ... ... ... ... : D-3 01 . ... ... : ... .. . ... : ... .. . ...
ROW 02 : A-2 01 4 ... ... M62 : C-3 09 . ... ... ... ... : ... .. . ... ... : ... .. . ... : ... .. . ...
ROW 03 : ... .. . ... ... ... : ... .. . ... ... ... ... : ... .. . ... ... : ... .. . ... : ... .. . ...
ROW 04 : A-2 01 7 ... ... M62 : D-3 09 . ... ... ... ... : ... .. . ... ... : ... .. . ... : ... .. . ...
ROW 05 : ... .. . ... ... ... : ... .. . ... ... ... ... : ... .. . ... ... : ... .. . ... : ... .. . ...
ROW 06 : D-3 01 A ... ... M62 : E-3 09 . ... ... ... ... : ... .. . ... ... : ... .. . ... : ... .. . ...
ROW 07 : ... .. . ... ... ... : ... .. . ... ... ... ... : ... .. . ... ... : ... .. . ... : ... .. . ...
ROW 08 : D-3 01 . ... ... M62 : F-3 09 . ... ... ... ... : ... .. . ... ... : 2-# 0A . ... : ... .. . ...
ROW 09 : ... .. . ... ... ... : ... .. . ... ... ... ... : ... .. . ... ... : ... .. . ... : ... .. . ...
ROW 0A : A-2 01 4 ... ... M62 : G-3 09 . ... ... ... ... : ... .. . ... ... : ... .. . ... : ... .. . ...
ROW 0B : ... .. . ... ... ... : ... .. . ... ... ... ... : ... .. . ... ... : ... .. . ... : ... .. . ...
ROW 0C : A-2 01 7 ... ... M62 : A-3 09 . ... ... ... ... : ... .. . ... ... : ... .. . ... : ... .. . ...
ROW 0D : ... .. . ... ... ... : ... .. . ... ... ... ... : ... .. . ... ... : ... .. . ... : ... .. . ...
ROW 0E : D-3 01 A ... ... M62 : C-4 09 . ... ... ... ... : ... .. . ... ... : ... .. . ... : ... .. . ...
ROW 0F : ... .. . ... ... ... : ... .. . ... ... ... ... : ... .. . ... ... : ... .. . ... : ... .. . ...
ROW 10 : C-3 01 . ... ... M62 : D-4 09 . ... ... ... ... : ... .. . ... ... : 2-# 0A . ... : ... .. . ...
ROW 11 : ... .. . ... ... ... : ... .. . ... ... ... ... : ... .. . ... ... : ... .. . ... : ... .. . ...
ROW 12 : G-2 01 4 ... ... M62 : C-4 09 . ... ... ... ... : ... .. . ... ... : ... .. . ... : ... .. . ...
ROW 13 : ... .. . ... ... ... : ... .. . ... ... ... ... : ... .. . ... ... : ... .. . ... : ... .. . ...
ROW 14 : G-2 01 7 ... ... M62 : A-3 09 . ... ... ... ... : ... .. . ... ... : ... .. . ... : ... .. . ...
ROW 15 : ... .. . ... ... ... : ... .. . ... ... ... ... : ... .. . ... ... : ... .. . ... : ... .. . ...
ROW 16 : C-3 01 A ... ... M62 : G-3 09 . ... ... ... ... : ... .. . ... ... : ... .. . ... : ... .. . ...
ROW 17 : ... .. . ... ... ... : ... .. . ... ... ... ... : ... .. . ... ... : ... .. . ... : ... .. . ...
ROW 18 : C-3 01 . ... ... M62 : F-3 09 . ... ... ... ... : ... .. . ... ... : 2-# 0A . ... : ... .. . ...
ROW 19 : ... .. . ... ... ... : ... .. . ... ... ... ... : ... .. . ... ... : ... .. . ... : ... .. . ...
ROW 1A : G-2 01 4 ... ... M62 : E-3 09 . ... ... ... ... : ... .. . ... ... : ... .. . ... : ... .. . ...
ROW 1B : ... .. . ... ... ... : ... .. . ... ... ... ... : ... .. . ... ... : ... .. . ... : ... .. . ...
ROW 1C : G-2 01 7 ... ... M62 : D-3 09 . ... ... ... ... : ... .. . ... ... : ... .. . ... : ... .. . ...
ROW 1D : ... .. . ... ... ... : ... .. . ... ... ... ... : ... .. . ... ... : ... .. . ... : ... .. . ...
ROW 1E : C-3 01 A ... ... M62 : C-3 09 . ... ... ... ... : ... .. . ... ... : ... .. . ... : ... .. . ...
ROW 1F : ... .. . ... ... ... : ... .. . ... ... ... ... : ... .. . ... ... : ... .. . ... : ... .. . ...
ROW 20 : D-3 01 . ... ... M62 : A-2 09 . ... ... ... ... : C-4 16 . ... ... : 2-# 0A . ... : ... .. . ...
ROW 21 : ... .. . ... ... ... : ... .. . ... ... ... ... : ... .. . ... ... : ... .. . ... : ... .. . ...
ROW 22 : A-2 01 4 ... ... M62 : C-3 09 . ... ... ... ... : ... .. . ... ... : ... .. . ... : ... .. . ...
ROW 23 : ... .. . ... ... ... : ... .. . ... ... ... ... : ... .. . ... ... : ... .. . ... : ... .. . ...
ROW 24 : A-2 01 7 ... ... M62 : D-3 09 . ... ... ... ... : ... .. . ... ... : ... .. . ... : ... .. . ...
ROW 25 : ... .. . ... ... ... : ... .. . ... ... ... ... : ... .. . ... ... : ... .. . ... : ... .. . ...
ROW 26 : D-3 01 A ... ... M62 : E-3 09 . ... ... ... ... : ... .. . ... ... : ... .. . ... : ... .. . ...
ROW 27 : ... .. . ... ... ... : ... .. . ... ... ... ... : ... .. . ... ... : ... .. . ... : ... .. . ...
ROW 28 : D-3 01 . ... ... M62 : F-3 09 . ... ... ... ... : C-4 16 . ... ... : 2-# 0A . ... : ... .. . ...
ROW 29 : ... .. . ... ... ... : ... .. . ... ... ... ... : ... .. . ... ... : ... .. . ... : ... .. . ...
ROW 2A : A-2 01 4 ... ... M62 : G-3 09 . ... ... ... ... : ... .. . ... ... : ... .. . ... : ... .. . ...
ROW 2B : ... .. . ... ... ... : ... .. . ... ... ... ... : ... .. . ... ... : ... .. . ... : ... .. . ...
ROW 2C : A-2 01 7 ... ... M62 : A-3 09 . ... ... ... ... : ... .. . ... ... : ... .. . ... : ... .. . ...
ROW 2D : ... .. . ... ... ... : ... .. . ... ... ... ... : ... .. . ... ... : ... .. . ... : ... .. . ...
ROW 2E : D-3 01 A ... ... M62 : C-4 09 . ... ... ... ... : ... .. . ... ... : ... .. . ... : ... .. . ...
ROW 2F : ... .. . ... ... ... : ... .. . ... ... ... ... : ... .. . ... ... : ... .. . ... : ... .. . ...
ROW 30 : C-3 01 . ... ... M62 : D-4 09 . ... ... ... ... : D-3 01 . S02 ... : 2-# 0A . ... : ... .. . ...
ROW 31 : ... .. . ... ... ... : ... .. . ... ... ... ... : ... .. . ... ... : ... .. . ... : ... .. . ...
ROW 32 : G-2 01 4 ... ... M62 : C-4 09 . ... ... ... ... : D-3 01 . S02 ... : ... .. . ... : ... .. . ...
ROW 33 : ... .. . ... ... ... : ... .. . ... ... ... ... : ... .. . ... ... : ... .. . ... : ... .. . ...
ROW 34 : G-2 01 7 ... ... M62 : A-3 09 . ... ... ... ... : E-3 01 . ... ... : ... .. . ... : ... .. . ...
ROW 35 : ... .. . ... ... ... : ... .. . ... ... ... ... : F-3 01 . ... ... : ... .. . ... : ... .. . ...
ROW 36 : C-3 01 A ... ... M62 : G-3 09 . ... ... ... ... : ... .. . ... ... : ... .. . ... : ... .. . ...
ROW 37 : ... .. . ... ... ... : ... .. . ... ... ... ... : ... .. . ... ... : ... .. . ... : ... .. . ...
ROW 38 : C-3 01 . ... ... M62 : F-3 09 . ... ... ... ... : --- .. . ... ... : 2-# 0A . ... : ... .. . ...
ROW 39 : ... .. . ... ... ... : ... .. . ... ... ... ... : ... .. . ... ... : ... .. . ... : ... .. . ...
ROW 3A : G-2 01 4 ... ... M62 : E-3 09 . ... ... ... ... : A-3 01 . ... ... : ... .. . ... : ... .. . ...
ROW 3B : ... .. . ... ... ... : ... .. . ... ... ... ... : ... .. . ... ... : ... .. . ... : ... .. . ...
ROW 3C : G-2 01 7 ... ... M62 : D-3 09 . ... ... ... ... : ... .. . ... ... : ... .. . ... : ... .. . ...
ROW 3D : ... .. . ... ... ... : ... .. . ... ... ... ... : ... .. . ... ... : ... .. . ... : ... .. . ...
ROW 3E : C-3 01 A ... ... M62 : C-3 09 . ... ... ... ... : ... .. . ... ... : ... .. . ... : ... .. . ...
ROW 3F : ... .. . ... ... ... : ... .. . ... ... ... ... : --- .. . ... ... : ... .. . ... : ... .. . ...

PATTERN 16
ROW 00 : D-3 01 A V01 400 M62 : A-2 09 7 V02 P81 400 ... : C-3 01 . ... ... : 2-# 0A F ... : ... .. . ...
ROW 01 : ... .. . ... ... ... : ... .. . ... ... ... ... : D-3 01 . ... ... : ... .. . ... : ... .. . ...
ROW 02 : A-2 01 4 ... ... M62 : C-3 09 . ... ... ... ... : ... .. . ... ... : F-# 12 A ... : ... .. . ...
ROW 03 : ... .. . ... ... ... : ... .. . ... ... ... ... : ... .. . ... ... : ... .. . ... : ... .. . ...
ROW 04 : A-2 01 7 ... ... M62 : D-3 09 . ... ... ... ... : ... .. . ... ... : E-# 14 D ... : ... .. . ...
ROW 05 : ... .. . ... ... ... : ... .. . ... ... ... ... : ... .. . ... ... : ... .. . ... : ... .. . ...
ROW 06 : D-3 01 A ... ... M62 : E-3 09 . ... ... ... ... : ... .. . ... ... : E-# 14 . ... : ... .. . ...
ROW 07 : ... .. . ... ... ... : ... .. . ... ... ... ... : ... .. . ... ... : ... .. . ... : ... .. . ...
ROW 08 : D-3 01 . ... ... M62 : F-3 09 . ... ... ... ... : ... .. . ... ... : 2-# 0A F ... : ... .. . ...
ROW 09 : ... .. . ... ... ... : ... .. . ... ... ... ... : ... .. . ... ... : ... .. . ... : ... .. . ...
ROW 0A : A-2 01 4 ... ... M62 : G-3 09 . ... ... ... ... : ... .. . ... ... : F-# 12 A ... : ... .. . ...
ROW 0B : ... .. . ... ... ... : ... .. . ... ... ... ... : ... .. . ... ... : ... .. . ... : ... .. . ...
ROW 0C : A-2 01 7 ... ... M62 : A-3 09 . ... ... ... ... : ... .. . ... ... : E-# 14 D ... : ... .. . ...
ROW 0D : ... .. . ... ... ... : ... .. . ... ... ... ... : ... .. . ... ... : ... .. . ... : ... .. . ...
ROW 0E : D-3 01 A ... ... M62 : C-4 09 . ... ... ... ... : ... .. . ... ... : F-# 12 A ... : ... .. . ...
ROW 0F : ... .. . ... ... ... : ... .. . ... ... ... ... : ... .. . ... ... : ... .. . ... : ... .. . ...
ROW 10 : C-3 01 . ... ... M62 : D-4 09 . ... ... ... ... : ... .. . ... ... : 2-# 0A F ... : ... .. . ...
ROW 11 : ... .. . ... ... ... : ... .. . ... ... ... ... : ... .. . ... ... : ... .. . ... : ... .. . ...
ROW 12 : G-2 01 4 ... ... M62 : C-4 09 . ... ... ... ... : ... .. . ... ... : E-# 14 D ... : ... .. . ...
ROW 13 : ... .. . ... ... ... : ... .. . ... ... ... ... : ... .. . ... ... : ... .. . ... : ... .. . ...
ROW 14 : G-2 01 7 ... ... M62 : A-3 09 . ... ... ... ... : ... .. . ... ... : E-# 14 . ... : ... .. . ...
ROW 15 : ... .. . ... ... ... : ... .. . ... ... ... ... : ... .. . ... ... : ... .. . ... : ... .. . ...
ROW 16 : C-3 01 A ... ... M62 : G-3 09 . ... ... ... ... : ... .. . ... ... : E-# 12 A ... : ... .. . ...
ROW 17 : ... .. . ... ... ... : ... .. . ... ... ... ... : ... .. . ... ... : ... .. . ... : ... .. . ...
ROW 18 : C-3 01 . ... ... M62 : F-3 09 . ... ... ... ... : ... .. . ... ... : 2-# 0A F ... : ... .. . ...
ROW 19 : ... .. . ... ... ... : ... .. . ... ... ... ... : ... .. . ... ... : ... .. . ... : ... .. . ...
ROW 1A : G-2 01 4 ... ... M62 : E-3 09 . ... ... ... ... : ... .. . ... ... : E-# 12 A ... : ... .. . ...
ROW 1B : ... .. . ... ... ... : ... .. . ... ... ... ... : ... .. . ... ... : ... .. . ... : ... .. . ...
ROW 1C : G-2 01 7 ... ... M62 : D-3 09 . ... ... ... ... : ... .. . ... ... : E-# 14 D ... : ... .. . ...
ROW 1D : ... .. . ... ... ... : ... .. . ... ... ... ... : ... .. . ... ... : ... .. . ... : ... .. . ...
ROW 1E : C-3 01 A ... ... M62 : C-3 09 . ... ... ... ... : ... .. . ... ... : E-# 12 A ... : ... .. . ...
ROW 1F : ... .. . ... ... ... : ... .. . ... ... ... ... : ... .. . ... ... : ... .. . ... : ... .. . ...
ROW 20 : D-3 01 . ... ... M62 : A-2 09 . ... ... ... ... : C-4 16 . ... ... : 2-# 0A F ... : ... .. . ...
ROW 21 : ... .. . ... ... ... : ... .. . ... ... ... ... : ... .. . ... ... : ... .. . ... : ... .. . ...
ROW 22 : A-2 01 4 ... ... M62 : C-3 09 . ... ... ... ... : ... .. . ... ... : F-# 12 A ... : ... .. . ...
ROW 23 : ... .. . ... ... ... : ... .. . ... ... ... ... : ... .. . ... ... : ... .. . ... : ... .. . ...
ROW 24 : A-2 01 7 ... ... M62 : D-3 09 . ... ... ... ... : ... .. . ... ... : E-# 14 D ... : ... .. . ...
ROW 25 : ... .. . ... ... ... : ... .. . ... ... ... ... : ... .. . ... ... : ... .. . ... : ... .. . ...
ROW 26 : D-3 01 A ... ... M62 : E-3 09 . ... ... ... ... : ... .. . ... ... : E-# 14 . ... : ... .. . ...
ROW 27 : ... .. . ... ... ... : ... .. . ... ... ... ... : ... .. . ... ... : ... .. . ... : ... .. . ...
ROW 28 : D-3 01 . ... ... M62 : F-3 09 . ... ... ... ... : C-4 16 . ... ... : 2-# 0A F ... : ... .. . ...
ROW 29 : ... .. . ... ... ... : ... .. . ... ... ... ... : ... .. . ... ... : ... .. . ... : ... .. . ...
ROW 2A : A-2 01 4 ... ... M62 : G-3 09 . ... ... ... ... : ... .. . ... ... : F-# 12 A ... : ... .. . ...
ROW 2B : ... .. . ... ... ... : ... .. . ... ... ... ... : ... .. . ... ... : ... .. . ... : ... .. . ...
ROW 2C : A-2 01 7 ... ... M62 : A-3 09 . ... ... ... ... : ... .. . ... ... : E-# 14 D ... : ... .. . ...
ROW 2D : ... .. . ... ... ... : ... .. . ... ... ... ... : ... .. . ... ... : ... .. . ... : ... .. . ...
ROW 2E : D-3 01 A ... ... M62 : C-4 09 . ... ... ... ... : ... .. . ... ... : F-# 12 A ... : ... .. . ...
ROW 2F : ... .. . ... ... ... : ... .. . ... ... ... ... : ... .. . ... ... : ... .. . ... : ... .. . ...
ROW 30 : ... .. . ... ... ... : D-4 09 . ... ... ... ... : A-3 01 . R4F ... : 2-# 0A F ... : ... .. . ...
ROW 31 : ... .. . ... ... ... : ... .. . ... ... ... ... : ... .. . ... ... : ... .. . ... : ... .. . ...
ROW 32 : --- .. . ... ... ... : C-4 09 . ... ... ... ... : ... .. . R4F ... : ... .. . ... : ... .. . ...
ROW 33 : ... .. . ... ... ... : ... .. . ... ... ... ... : ... .. . ... ... : ... .. . ... : ... .. . ...
ROW 34 : ... .. . ... ... ... : A-3 09 . ... ... ... ... : ... .. . R4F ... : ... .. . ... : ... .. . ...
ROW 35 : ... .. . ... ... ... : ... .. . ... ... ... ... : ... .. . ... ... : ... .. . ... : ... .. . ...
ROW 36 : ... .. . ... ... ... : G-3 09 . ... ... ... ... : ... .. . R4F ... : ... .. . ... : ... .. . ...
ROW 37 : ... .. . ... ... ... : ... .. . ... ... ... ... : ... .. . ... ... : ... .. . ... : ... .. . ...
ROW 38 : ... .. . ... ... ... : F-3 09 . ... ... ... ... : ... .. . R4F ... : 2-# 0A . ... : ... .. . ...
ROW 39 : ... .. . ... ... ... : ... .. . ... ... ... ... : ... .. . ... ... : ... .. . ... : ... .. . ...
ROW 3A : ... .. . ... ... ... : E-3 09 . ... ... ... ... : ... .. . R4F ... : ... .. . ... : ... .. . ...
ROW 3B : ... .. . ... ... ... : ... .. . ... ... ... ... : ... .. . ... ... : ... .. . ... : ... .. . ...
ROW 3C : ... .. . ... ... ... : D-3 09 . ... ... ... ... : ... .. . R4F ... : ... .. . ... : ... .. . ...
ROW 3D : ... .. . ... ... ... : ... .. . ... ... ... ... : ... .. . ... ... : ... .. . ... : ... .. . ...
ROW 3E : ... .. . ... ... ... : C-3 09 . ... ... ... ... : ... .. . R4F S06 : ... .. . ... : ... .. . ...
ROW 3F : ... .. . ... ... ... : ... .. . ... ... ... ... : ... .. . ... ... : ... .. . ... : ... .. . B01

TRACK  64   7 150 "Passage"
COLUMNS : 3 2 1 1 1

ORDER 00 : 00 00 00 00 00
ORDER 01 : 01 01 01 01 01
ORDER 02 : 02 02 02 02 02

PATTERN 00
ROW 00 : D-1 01 7 V00 400 S01 : ... .. . ... ... : D-3 01 . S01 : F-# 00 1 A30 : ... .. . ...
ROW 01 : D-1 01 . ... ... S01 : ... .. . ... ... : D-3 01 . S01 : ... .. . ... : ... .. . ...
ROW 02 : G-1 01 . ... T42 ... : ... .. . ... ... : G-3 01 . T42 : ... .. . ... : ... .. . ...
ROW 03 : ... .. . ... ... ... : ... .. . ... ... : ... .. . ... : ... .. . ... : ... .. . ...
ROW 04 : --- .. . ... ... ... : ... .. . ... ... : --- .. . ... : ... .. . ... : ... .. . ...
ROW 05 : E-1 01 . ... ... ... : ... .. . ... ... : E-3 01 . ... : ... .. . ... : ... .. . ...
ROW 06 : ... .. . ... ... S0D : ... .. . ... ... : ... .. . S0D : ... .. . ... : ... .. . ...
ROW 07 : ... .. . ... ... ... : ... .. . ... ... : ... .. . ... : ... .. . ... : ... .. . D00
ROW 08 : ... .. . ... ... ... : ... .. . ... ... : ... .. . ... : ... .. . ... : ... .. . ...
ROW 09 : ... .. . ... ... ... : ... .. . ... ... : ... .. . ... : ... .. . ... : ... .. . ...
ROW 0A : ... .. . ... ... ... : ... .. . ... ... : ... .. . ... : ... .. . ... : ... .. . ...
ROW 0B : ... .. . ... ... ... : ... .. . ... ... : ... .. . ... : ... .. . ... : ... .. . ...
ROW 0C : ... .. . ... ... ... : ... .. . ... ... : ... .. . ... : ... .. . ... : ... .. . ...
ROW 0D : ... .. . ... ... ... : ... .. . ... ... : ... .. . ... : ... .. . ... : ... .. . ...
ROW 0E : ... .. . ... ... ... : ... .. . ... ... : ... .. . ... : ... .. . ... : ... .. . ...
ROW 0F : ... .. . ... ... ... : ... .. . ... ... : ... .. . ... : ... .. . ... : ... .. . ...
ROW 10 : ... .. . ... ... ... : ... .. . ... ... : ... .. . ... : ... .. . ... : ... .. . ...
ROW 11 : ... .. . ... ... ... : ... .. . ... ... : ... .. . ... : ... .. . ... : ... .. . ...
ROW 12 : ... .. . ... ... ... : ... .. . ... ... : ... .. . ... : ... .. . ... : ... .. . ...
ROW 13 : ... .. . ... ... ... : ... .. . ... ... : ... .. . ... : ... .. . ... : ... .. . ...
ROW 14 : ... .. . ... ... ... : ... .. . ... ... : ... .. . ... : ... .. . ... : ... .. . ...
ROW 15 : ... .. . ... ... ... : ... .. . ... ... : ... .. . ... : ... .. . ... : ... .. . ...
ROW 16 : ... .. . ... ... ... : ... .. . ... ... : ... .. . ... : ... .. . ... : ... .. . ...
ROW 17 : ... .. . ... ... ... : ... .. . ... ... : ... .. . ... : ... .. . ... : ... .. . ...
ROW 18 : ... .. . ... ... ... : ... .. . ... ... : ... .. . ... : ... .. . ... : ... .. . ...
ROW 19 : ... .. . ... ... ... : ... .. . ... ... : ... .. . ... : ... .. . ... : ... .. . ...
ROW 1A : ... .. . ... ... ... : ... .. . ... ... : ... .. . ... : ... .. . ... : ... .. . ...
ROW 1B : ... .. . ... ... ... : ... .. . ... ... : ... .. . ... : ... .. . ... : ... .. . ...
ROW 1C : ... .. . ... ... ... : ... .. . ... ... : ... .. . ... : ... .. . ... : ... .. . ...
ROW 1D : ... .. . ... ... ... : ... .. . ... ... : ... .. . ... : ... .. . ... : ... .. . ...
ROW 1E : ... .. . ... ... ... : ... .. . ... ... : ... .. . ... : ... .. . ... : ... .. . ...
ROW 1F : ... .. . ... ... ... : ... .. . ... ... : ... .. . ... : ... .. . ... : ... .. . ...
ROW 20 : ... .. . ... ... ... : ... .. . ... ... : ... .. . ... : ... .. . ... : ... .. . ...
ROW 21 : ... .. . ... ... ... : ... .. . ... ... : ... .. . ... : ... .. . ... : ... .. . ...
ROW 22 : ... .. . ... ... ... : ... .. . ... ... : ... .. . ... : ... .. . ... : ... .. . ...
ROW 23 : ... .. . ... ... ... : ... .. . ... ... : ... .. . ... : ... .. . ... : ... .. . ...
ROW 24 : ... .. . ... ... ... : ... .. . ... ... : ... .. . ... : ... .. . ... : ... .. . ...
ROW 25 : ... .. . ... ... ... : ... .. . ... ... : ... .. . ... : ... .. . ... : ... .. . ...
ROW 26 : ... .. . ... ... ... : ... .. . ... ... : ... .. . ... : ... .. . ... : ... .. . ...
ROW 27 : ... .. . ... ... ... : ... .. . ... ... : ... .. . ... : ... .. . ... : ... .. . ...
ROW 28 : ... .. . ... ... ... : ... .. . ... ... : ... .. . ... : ... .. . ... : ... .. . ...
ROW 29 : ... .. . ... ... ... : ... .. . ... ... : ... .. . ... : ... .. . ... : ... .. . ...
ROW 2A : ... .. . ... ... ... : ... .. . ... ... : ... .. . ... : ... .. . ... : ... .. . ...
ROW 2B : ... .. . ... ... ... : ... .. . ... ... : ... .. . ... : ... .. . ... : ... .. . ...
ROW 2C : ... .. . ... ... ... : ... .. . ... ... : ... .. . ... : ... .. . ... : ... .. . ...
ROW 2D : ... .. . ... ... ... : ... .. . ... ... : ... .. . ... : ... .. . ... : ... .. . ...
ROW 2E : ... .. . ... ... ... : ... .. . ... ... : ... .. . ... : ... .. . ... : ... .. . ...
ROW 2F : ... .. . ... ... ... : ... .. . ... ... : ... .. . ... : ... .. . ... : ... .. . ...
ROW 30 : ... .. . ... ... ... : ... .. . ... ... : ... .. . ... : ... .. . ... : ... .. . ...
ROW 31 : ... .. . ... ... ... : ... .. . ... ... : ... .. . ... : ... .. . ... : ... .. . ...
ROW 32 : ... .. . ... ... ... : ... .. . ... ... : ... .. . ... : ... .. . ... : ... .. . ...
ROW 33 : ... .. . ... ... ... : ... .. . ... ... : ... .. . ... : ... .. . ... : ... .. . ...
ROW 34 : ... .. . ... ... ... : ... .. . ... ... : ... .. . ... : ... .. . ... : ... .. . ...
ROW 35 : ... .. . ... ... ... : ... .. . ... ... : ... .. . ... : ... .. . ... : ... .. . ...
ROW 36 : ... .. . ... ... ... : ... .. . ... ... : ... .. . ... : ... .. . ... : ... .. . ...
ROW 37 : ... .. . ... ... ... : ... .. . ... ... : ... .. . ... : ... .. . ... : ... .. . ...
ROW 38 : ... .. . ... ... ... : ... .. . ... ... : ... .. . ... : ... .. . ... : ... .. . ...
ROW 39 : ... .. . ... ... ... : ... .. . ... ... : ... .. . ... : ... .. . ... : ... .. . ...
ROW 3A : ... .. . ... ... ... : ... .. . ... ... : ... .. . ... : ... .. . ... : ... .. . ...
ROW 3B : ... .. . ... ... ... : ... .. . ... ... : ... .. . ... : ... .. . ... : ... .. . ...
ROW 3C : ... .. . ... ... ... : ... .. . ... ... : ... .. . ... : ... .. . ... : ... .. . ...
ROW 3D : ... .. . ... ... ... : ... .. . ... ... : ... .. . ... : ... .. . ... : ... .. . ...
ROW 3E : ... .. . ... ... ... : ... .. . ... ... : ... .. . ... : ... .. . ... : ... .. . ...
ROW 3F : ... .. . ... ... ... : ... .. . ... ... : ... .. . ... : ... .. . ... : ... .. . ...

PATTERN 01
ROW 00 : D-3 01 7 V00 400 M62 : A-2 04 7 V02 P81 : D-3 01 . ... : D-# 19 F A00 : ... .. . ...
ROW 01 : A-2 01 . ... ... M62 : C-3 04 . ... ... : ... .. . ... : ... .. . ... : ... .. . ...
ROW 02 : A-2 01 . ... ... M62 : D-3 04 . ... ... : --- .. . ... : ... .. . ... : ... .. . ...
ROW 03 : D-3 01 . ... ... M62 : E-3 04 . ... ... : D-3 01 . ... : ... .. . ... : ... .. . ...
ROW 04 : D-3 01 . ... ... M62 : F-3 04 . ... ... : ... .. . ... : ... .. . ... : ... .. . ...
ROW 05 : A-2 01 . ... ... M62 : G-3 04 . ... ... : --- .. . ... : ... .. . ... : ... .. . ...
ROW 06 : A-2 01 . ... ... M62 : A-3 04 . ... ... : ... .. . ... : ... .. . ... : ... .. . ...
ROW 07 : D-3 01 . ... ... M62 : C-4 04 . ... ... : ... .. . ... : ... .. . ... : ... .. . ...
ROW 08 : C-3 01 . ... ... M62 : D-4 04 . ... ... : ... .. . ... : ... .. . ... : ... .. . ...
ROW 09 : G-2 01 . ... ... M62 : C-4 04 . ... ... : ... .. . ... : ... .. . ... : ... .. . ...
ROW 0A : G-2 01 . ... ... M62 : A-3 04 . ... ... : ... .. . ... : ... .. . ... : ... .. . ...
ROW 0B : C-3 01 . ... ... M62 : G-3 04 . ... ... : ... .. . ... : ... .. . ... : ... .. . ...
ROW 0C : C-3 01 . ... ... M62 : F-3 04 . ... ... : ... .. . ... : ... .. . ... : ... .. . ...
ROW 0D : G-2 01 . ... ... M62 : E-3 04 . ... ... : ... .. . ... : ... .. . ... : ... .. . ...
ROW 0E : G-2 01 . ... ... M62 : D-3 04 . ... ... : ... .. . ... : ... .. . ... : ... .. . ...
ROW 0F : C-3 01 . ... ... M62 : C-3 04 . ... ... : ... .. . ... : ... .. . ... : ... .. . ...
ROW 10 : D-3 01 . ... ... M62 : A-2 04 . ... ... : C-4 16 . ... : 6-# 0B . ... : ... .. . ...
ROW 11 : A-2 01 . ... ... M62 : C-3 04 . ... ... : ... .. . ... : ... .. . ... : ... .. . ...
ROW 12 : A-2 01 . ... ... M62 : D-3 04 . ... ... : ... .. . ... : ... .. . ... : ... .. . ...
ROW 13 : D-3 01 . ... ... M62 : E-3 04 . ... ... : ... .. . ... : ... .. . ... : ... .. . ...
ROW 14 : D-3 01 . ... ... M62 : F-3 04 . ... ... : ... .. . ... : ... .. . ... : ... .. . ...
ROW 15 : A-2 01 . ... ... M62 : G-3 04 . ... ... : ... .. . ... : ... .. . ... : ... .. . ...
ROW 16 : A-2 01 . ... ... M62 : A-3 04 . ... ... : ... .. . ... : ... .. . ... : ... .. . ...
ROW 17 : D-3 01 . ... ... M62 : C-4 04 . ... ... : ... .. . ... : ... .. . ... : ... .. . ...
ROW 18 : C-3 01 . ... ... M62 : D-4 04 . ... ... : ... .. . ... : ... .. . ... : ... .. . ...
ROW 19 : G-2 01 . ... ... M62 : C-4 04 . ... ... : ... .. . ... : ... .. . ... : ... .. . ...
ROW 1A : G-2 01 . ... ... M62 : A-3 04 . ... ... : ... .. . ... : ... .. . ... : ... .. . ...
ROW 1B : C-3 01 . ... ... M62 : G-3 04 . ... ... : ... .. . ... : ... .. . ... : ... .. . ...
ROW 1C : C-3 01 . ... ... M62 : F-3 04 . ... ... : ... .. . ... : ... .. . ... : ... .. . ...
ROW 1D : G-2 01 . ... ... M62 : E-3 04 . ... ... : ... .. . ... : ... .. . ... : ... .. . ...
ROW 1E : G-2 01 . ... ... M62 : D-3 04 . ... ... : ... .. . ... : ... .. . ... : ... .. . ...
ROW 1F : C-3 01 . ... ... M62 : C-3 04 . ... ... : ... .. . ... : ... .. . ... : ... .. . ...
ROW 20 : D-3 01 . ... ... M62 : A-2 04 . ... ... : D-3 01 . ... : 6-# 0B . ... : ... .. . ...
ROW 21 : A-2 01 . ... ... M62 : C-3 04 . ... ... : ... .. . ... : ... .. . ... : ... .. . ...
ROW 22 : A-2 01 . ... ... M62 : D-3 04 . ... ... : --- .. . ... : ... .. . ... : ... .. . ...
ROW 23 : D-3 01 . ... ... M62 : E-3 04 . ... ... : D-3 01 . ... : ... .. . ... : ... .. . ...
ROW 24 : D-3 01 . ... ... M62 : F-3 04 . ... ... : ... .. . ... : ... .. . ... : ... .. . ...
ROW 25 : A-2 01 . ... ... M62 : G-3 04 . ... ... : --- .. . ... : ... .. . ... : ... .. . ...
ROW 26 : A-2 01 . ... ... M62 : A-3 04 . ... ... : ... .. . ... : ... .. . ... : ... .. . ...
ROW 27 : D-3 01 . ... ... M62 : C-4 04 . ... ... : ... .. . ... : ... .. . ... : ... .. . ...
ROW 28 : C-3 01 . ... ... M62 : D-4 04 . ... ... : ... .. . ... : ... .. . ... : ... .. . ...
ROW 29 : G-2 01 . ... ... M62 : C-4 04 . ... ... : ... .. . ... : ... .. . ... : ... .. . ...
ROW 2A : G-2 01 . ... ... M62 : A-3 04 . ... ... : ... .. . ... : ... .. . ... : ... .. . ...
ROW 2B : C-3 01 . ... ... M62 : G-3 04 . ... ... : ... .. . ... : ... .. . ... : ... .. . ...
ROW 2C : C-3 01 . ... ... M62 : F-3 04 . ... ... : ... .. . ... : ... .. . ... : ... .. . ...
ROW 2D : G-2 01 . ... ... M62 : E-3 04 . ... ... : ... .. . ... : ... .. . ... : ... .. . ...
ROW 2E : G-2 01 . ... ... M62 : D-3 04 . ... ... : ... .. . ... : ... .. . ... : ... .. . ...
ROW 2F : C-3 01 . ... ... M62 : C-3 04 . ... ... : ... .. . ... : ... .. . ... : ... .. . ...
ROW 30 : D-3 01 . ... ... M62 : A-2 04 . ... ... : C-4 16 . ... : 6-# 0B . ... : ... .. . ...
ROW 31 : A-2 01 . ... ... M62 : C-3 04 . ... ... : ... .. . ... : ... .. . ... : ... .. . ...
ROW 32 : A-2 01 . ... ... M62 : D-3 04 . ... ... : ... .. . ... : ... .. . ... : ... .. . ...
ROW 33 : D-3 01 . ... ... M62 : E-3 04 . ... ... : ... .. . ... : ... .. . ... : ... .. . ...
ROW 34 : D-3 01 . ... ... M62 : F-3 04 . ... ... : ... .. . ... : ... .. . ... : ... .. . ...
ROW 35 : A-2 01 . ... ... M62 : G-3 04 . ... ... : ... .. . ... : ... .. . ... : ... .. . ...
ROW 36 : A-2 01 . ... ... M62 : A-3 04 . ... ... : ... .. . ... : ... .. . ... : ... .. . ...
ROW 37 : D-3 01 . ... ... M62 : C-4 04 . ... ... : ... .. . ... : ... .. . ... : ... .. . ...
ROW 38 : E-3 01 . ... ... M62 : D-4 04 . ... ... : ... .. . ... : ... .. . ... : ... .. . ...
ROW 39 : A-2 01 . ... ... M62 : C-4 04 . ... ... : ... .. . ... : ... .. . ... : ... .. . ...
ROW 3A : A-2 01 . ... ... M62 : A-3 04 . ... ... : ... .. . ... : ... .. . ... : ... .. . ...
ROW 3B : E-3 01 . ... ... M62 : G-3 04 . ... ... : ... .. . ... : ... .. . ... : ... .. . ...
ROW 3C : E-3 01 . ... ... M62 : F-3 04 . ... ... : ... .. . ... : ... .. . ... : ... .. . ...
ROW 3D : A-2 01 . ... ... M62 : E-3 04 . ... ... : ... .. . ... : ... .. . ... : ... .. . ...
ROW 3E : A-2 01 . ... ... M62 : D-3 04 . ... ... : ... .. . ... : ... .. . ... : ... .. . ...
ROW 3F : E-3 01 . ... ... M62 : C-3 04 . ... ... : ... .. . ... : ... .. . ... : ... .. . ...

PATTERN 02
ROW 00 : F-3 01 7 V00 400 M62 : A-2 04 7 V02 P81 : D-3 01 . ... : 6-# 0B F ... : ... .. . ...
ROW 01 : D-3 01 . ... ... M62 : C-3 04 . ... ... : ... .. . ... : ... .. . ... : ... .. . ...
ROW 02 : D-3 01 . ... ... M62 : D-3 04 . ... ... : --- .. . ... : ... .. . ... : ... .. . ...
ROW 03 : F-3 01 . ... ... M62 : E-3 04 . ... ... : D-3 01 . ... : ... .. . ... : ... .. . ...
ROW 04 : F-3 01 . ... ... M62 : F-3 04 . ... ... : ... .. . ... : ... .. . ... : ... .. . ...
ROW 05 : D-3 01 . ... ... M62 : G-3 04 . ... ... : --- .. . ... : ... .. . ... : ... .. . ...
ROW 06 : D-3 01 . ... ... M62 : A-3 04 . ... ... : ... .. . ... : ... .. . ... : ... .. . ...
ROW 07 : F-3 01 . ... ... M62 : C-4 04 . ... ... : ... .. . ... : ... .. . ... : ... .. . ...
ROW 08 : E-3 01 . ... ... M62 : D-4 04 . ... ... : ... .. . ... : ... .. . ... : ... .. . ...
ROW 09 : C-3 01 . ... ... M62 : C-4 04 . ... ... : ... .. . ... : ... .. . ... : ... .. . ...
ROW 0A : C-3 01 . ... ... M62 : A-3 04 . ... ... : ... .. . ... : ... .. . ... : ... .. . ...
ROW 0B : E-3 01 . ... ... M62 : G-3 04 . ... ... : ... .. . ... : ... .. . ... : ... .. . ...
ROW 0C : E-3 01 . ... ... M62 : F-3 04 . ... ... : ... .. . ... : ... .. . ... : ... .. . ...
ROW 0D : C-3 01 . ... ... M62 : E-3 04 . ... ... : ... .. . ... : ... .. . ... : ... .. . ...
ROW 0E : C-3 01 . ... ... M62 : D-3 04 . ... ... : ... .. . ... : ... .. . ... : ... .. . ...
ROW 0F : E-3 01 . ... ... M62 : C-3 04 . ... ... : ... .. . ... : ... .. . ... : ... .. . ...
ROW 10 : F-3 01 . ... ... M62 : A-2 04 . ... ... : C-4 16 . ... : 6-# 0B . ... : ... .. . ...
ROW 11 : D-3 01 . ... ... M62 : C-3 04 . ... ... : ... .. . ... : ... .. . ... : ... .. . ...
ROW 12 : D-3 01 . ... ... M62 : D-3 04 . ... ... : ... .. . ... : ... .. . ... : ... .. . ...
ROW 13 : F-3 01 . ... ... M62 : E-3 04 . ... ... : ... .. . ... : ... .. . ... : ... .. . ...
ROW 14 : F-3 01 . ... ... M62 : F-3 04 . ... ... : ... .. . ... : ... .. . ... : ... .. . ...
ROW 15 : D-3 01 . ... ... M62 : G-3 04 . ... ... : ... .. . ... : ... .. . ... : ... .. . ...
ROW 16 : D-3 01 . ... ... M62 : A-3 04 . ... ... : ... .. . ... : ... .. . ... : ... .. . ...
ROW 17 : F-3 01 . ... ... M62 : C-4 04 . ... ... : ... .. . ... : ... .. . ... : ... .. . ...
ROW 18 : E-3 01 . ... ... M62 : D-4 04 . ... ... : D-3 01 . S01 : ... .. . ... : ... .. . ...
ROW 19 : C-3 01 . ... ... M62 : C-4 04 . ... ... : D-3 01 . S01 : ... .. . ... : ... .. . ...
ROW 1A : C-3 01 . ... ... M62 : A-3 04 . ... ... : D-3 01 . T42 : ... .. . ... : ... .. . ...
ROW 1B : E-3 01 . ... ... M62 : G-3 04 . ... ... : ... .. . ... : ... .. . ... : ... .. . ...
ROW 1C : E-3 01 . ... ... M62 : F-3 04 . ... ... : --- .. . ... : ... .. . ... : ... .. . ...
ROW 1D : C-3 01 . ... ... M62 : E-3 04 . ... ... : A-2 01 . ... : ... .. . ... : ... .. . ...
ROW 1E : C-3 01 . ... ... M62 : D-3 04 . ... ... : ... .. . S0B : ... .. . ... : ... .. . ...
ROW 1F : E-3 01 . ... ... M62 : C-3 04 . ... ... : ... .. . ... : ... .. . ... : ... .. . ...
ROW 20 : F-3 01 . ... ... M62 : A-2 04 . ... ... : D-3 01 . ... : 6-# 0B . ... : ... .. . ...
ROW 21 : D-3 01 . ... ... M62 : C-3 04 . ... ... : ... .. . ... : ... .. . ... : ... .. . ...
ROW 22 : D-3 01 . ... ... M62 : D-3 04 . ... ... : --- .. . ... : ... .. . ... : ... .. . ...
ROW 23 : F-3 01 . ... ... M62 : E-3 04 . ... ... : D-3 01 . ... : ... .. . ... : ... .. . ...
ROW 24 : F-3 01 . ... ... M62 : F-3 04 . ... ... : ... .. . ... : ... .. . ... : ... .. . ...
ROW 25 : D-3 01 . ... ... M62 : G-3 04 . ... ... : --- .. . ... : ... .. . ... : ... .. . ...
ROW 26 : D-3 01 . ... ... M62 : A-3 04 . ... ... : ... .. . ... : ... .. . ... : ... .. . ...
ROW 27 : F-3 01 . ... ... M62 : C-4 04 . ... ... : ... .. . ... : ... .. . ... : ... .. . ...
ROW 28 : E-3 01 . ... ... M62 : D-4 04 . ... ... : ... .. . ... : ... .. . ... : ... .. . ...
ROW 29 : C-3 01 . ... ... M62 : C-4 04 . ... ... : ... .. . ... : ... .. . ... : ... .. . ...
ROW 2A : C-3 01 . ... ... M62 : A-3 04 . ... ... : ... .. . ... : ... .. . ... : ... .. . ...
ROW 2B : E-3 01 . ... ... M62 : G-3 04 . ... ... : ... .. . ... : ... .. . ... : ... .. . ...
ROW 2C : E-3 01 . ... ... M62 : F-3 04 . ... ... : ... .. . ... : ... .. . ... : ... .. . ...
ROW 2D : C-3 01 . ... ... M62 : E-3 04 . ... ... : ... .. . ... : ... .. . ... : ... .. . ...
ROW 2E : C-3 01 . ... ... M62 : D-3 04 . ... ... : ... .. . ... : ... .. . ... : ... .. . ...
ROW 2F : E-3 01 . ... ... M62 : C-3 04 . ... ... : ... .. . ... : ... .. . ... : ... .. . ...
ROW 30 : F-3 01 . ... ... M62 : A-2 04 . ... ... : C-4 16 . ... : 6-# 0B . ... : ... .. . ...
ROW 31 : D-3 01 . ... ... M62 : C-3 04 . ... ... : ... .. . ... : ... .. . ... : ... .. . ...
ROW 32 : D-3 01 . ... ... M62 : D-3 04 . ... ... : ... .. . ... : ... .. . ... : ... .. . ...
ROW 33 : F-3 01 . ... ... M62 : E-3 04 . ... ... : ... .. . ... : ... .. . ... : ... .. . ...
ROW 34 : F-3 01 . ... ... M62 : F-3 04 . ... ... : ... .. . ... : ... .. . ... : ... .. . ...
ROW 35 : D-3 01 . ... ... M62 : G-3 04 . ... ... : ... .. . ... : ... .. . ... : ... .. . ...
ROW 36 : D-3 01 . ... ... M62 : A-3 04 . ... ... : ... .. . ... : ... .. . ... : ... .. . ...
ROW 37 : F-3 01 . ... ... M62 : C-4 04 . ... ... : ... .. . ... : ... .. . ... : ... .. . ...
ROW 38 : E-3 01 . ... ... M62 : D-4 04 . ... ... : ... .. . ... : ... .. . ... : ... .. . ...
ROW 39 : C-3 01 . ... ... M62 : C-4 04 . ... ... : ... .. . ... : ... .. . ... : ... .. . ...
ROW 3A : C-3 01 . ... ... M62 : A-3 04 . ... ... : ... .. . ... : ... .. . ... : ... .. . ...
ROW 3B : E-3 01 . ... ... M62 : G-3 04 . ... ... : ... .. . ... : ... .. . ... : ... .. . ...
ROW 3C : E-3 01 . ... ... M62 : F-3 04 . ... ... : ... .. . ... : ... .. . ... : ... .. . ...
ROW 3D : C-3 01 . ... ... M62 : E-3 04 . ... ... : ... .. . ... : ... .. . ... : ... .. . ...
ROW 3E : C-3 01 . ... ... M62 : D-3 04 . ... ... : ... .. . ... : ... .. . ... : ... .. . ...
ROW 3F : E-3 01 . ... ... M62 : C-3 04 . ... ... : ... .. . ... : ... .. . ... : ... .. . B01

# End of export
